G04 #@! TF.GenerationSoftware,KiCad,Pcbnew,7.0.5-7.0.5~ubuntu20.04.1*
G04 #@! TF.CreationDate,2023-07-24T22:04:44+03:00*
G04 #@! TF.ProjectId,hardware,68617264-7761-4726-952e-6b696361645f,rev?*
G04 #@! TF.SameCoordinates,Original*
G04 #@! TF.FileFunction,Copper,L2,Bot*
G04 #@! TF.FilePolarity,Positive*
%FSLAX46Y46*%
G04 Gerber Fmt 4.6, Leading zero omitted, Abs format (unit mm)*
G04 Created by KiCad (PCBNEW 7.0.5-7.0.5~ubuntu20.04.1) date 2023-07-24 22:04:44*
%MOMM*%
%LPD*%
G01*
G04 APERTURE LIST*
G04 Aperture macros list*
%AMRoundRect*
0 Rectangle with rounded corners*
0 $1 Rounding radius*
0 $2 $3 $4 $5 $6 $7 $8 $9 X,Y pos of 4 corners*
0 Add a 4 corners polygon primitive as box body*
4,1,4,$2,$3,$4,$5,$6,$7,$8,$9,$2,$3,0*
0 Add four circle primitives for the rounded corners*
1,1,$1+$1,$2,$3*
1,1,$1+$1,$4,$5*
1,1,$1+$1,$6,$7*
1,1,$1+$1,$8,$9*
0 Add four rect primitives between the rounded corners*
20,1,$1+$1,$2,$3,$4,$5,0*
20,1,$1+$1,$4,$5,$6,$7,0*
20,1,$1+$1,$6,$7,$8,$9,0*
20,1,$1+$1,$8,$9,$2,$3,0*%
G04 Aperture macros list end*
G04 #@! TA.AperFunction,SMDPad,CuDef*
%ADD10R,1.500000X0.600000*%
G04 #@! TD*
G04 #@! TA.AperFunction,ComponentPad*
%ADD11R,1.700000X1.700000*%
G04 #@! TD*
G04 #@! TA.AperFunction,ComponentPad*
%ADD12O,1.700000X1.700000*%
G04 #@! TD*
G04 #@! TA.AperFunction,ComponentPad*
%ADD13C,1.524000*%
G04 #@! TD*
G04 #@! TA.AperFunction,ComponentPad*
%ADD14R,1.524000X1.524000*%
G04 #@! TD*
G04 #@! TA.AperFunction,ComponentPad*
%ADD15C,2.200000*%
G04 #@! TD*
G04 #@! TA.AperFunction,ComponentPad*
%ADD16R,2.200000X2.200000*%
G04 #@! TD*
G04 #@! TA.AperFunction,ComponentPad*
%ADD17C,1.500000*%
G04 #@! TD*
G04 #@! TA.AperFunction,SMDPad,CuDef*
%ADD18RoundRect,0.250000X1.000000X0.650000X-1.000000X0.650000X-1.000000X-0.650000X1.000000X-0.650000X0*%
G04 #@! TD*
G04 #@! TA.AperFunction,SMDPad,CuDef*
%ADD19RoundRect,0.150000X-0.150000X0.587500X-0.150000X-0.587500X0.150000X-0.587500X0.150000X0.587500X0*%
G04 #@! TD*
G04 #@! TA.AperFunction,SMDPad,CuDef*
%ADD20RoundRect,0.250000X0.450000X-0.262500X0.450000X0.262500X-0.450000X0.262500X-0.450000X-0.262500X0*%
G04 #@! TD*
G04 #@! TA.AperFunction,SMDPad,CuDef*
%ADD21RoundRect,0.150000X-0.587500X-0.150000X0.587500X-0.150000X0.587500X0.150000X-0.587500X0.150000X0*%
G04 #@! TD*
G04 #@! TA.AperFunction,SMDPad,CuDef*
%ADD22RoundRect,0.250000X-0.450000X0.262500X-0.450000X-0.262500X0.450000X-0.262500X0.450000X0.262500X0*%
G04 #@! TD*
G04 #@! TA.AperFunction,SMDPad,CuDef*
%ADD23RoundRect,0.250000X-0.250000X-0.475000X0.250000X-0.475000X0.250000X0.475000X-0.250000X0.475000X0*%
G04 #@! TD*
G04 #@! TA.AperFunction,SMDPad,CuDef*
%ADD24RoundRect,0.250000X0.850000X0.350000X-0.850000X0.350000X-0.850000X-0.350000X0.850000X-0.350000X0*%
G04 #@! TD*
G04 #@! TA.AperFunction,SMDPad,CuDef*
%ADD25RoundRect,0.250000X1.275000X1.125000X-1.275000X1.125000X-1.275000X-1.125000X1.275000X-1.125000X0*%
G04 #@! TD*
G04 #@! TA.AperFunction,SMDPad,CuDef*
%ADD26RoundRect,0.249997X2.950003X2.650003X-2.950003X2.650003X-2.950003X-2.650003X2.950003X-2.650003X0*%
G04 #@! TD*
G04 #@! TA.AperFunction,SMDPad,CuDef*
%ADD27RoundRect,0.250000X0.650000X-1.000000X0.650000X1.000000X-0.650000X1.000000X-0.650000X-1.000000X0*%
G04 #@! TD*
G04 #@! TA.AperFunction,SMDPad,CuDef*
%ADD28RoundRect,0.250000X1.000000X-1.950000X1.000000X1.950000X-1.000000X1.950000X-1.000000X-1.950000X0*%
G04 #@! TD*
G04 #@! TA.AperFunction,SMDPad,CuDef*
%ADD29RoundRect,0.250000X0.512652X0.159099X0.159099X0.512652X-0.512652X-0.159099X-0.159099X-0.512652X0*%
G04 #@! TD*
G04 #@! TA.AperFunction,SMDPad,CuDef*
%ADD30RoundRect,0.250000X0.550000X-1.500000X0.550000X1.500000X-0.550000X1.500000X-0.550000X-1.500000X0*%
G04 #@! TD*
G04 #@! TA.AperFunction,SMDPad,CuDef*
%ADD31RoundRect,0.250000X0.262500X0.450000X-0.262500X0.450000X-0.262500X-0.450000X0.262500X-0.450000X0*%
G04 #@! TD*
G04 #@! TA.AperFunction,ViaPad*
%ADD32C,0.800000*%
G04 #@! TD*
G04 #@! TA.AperFunction,ViaPad*
%ADD33C,0.700000*%
G04 #@! TD*
G04 #@! TA.AperFunction,Conductor*
%ADD34C,0.500000*%
G04 #@! TD*
G04 #@! TA.AperFunction,Conductor*
%ADD35C,0.700000*%
G04 #@! TD*
G04 #@! TA.AperFunction,Conductor*
%ADD36C,0.300000*%
G04 #@! TD*
G04 #@! TA.AperFunction,Conductor*
%ADD37C,1.200000*%
G04 #@! TD*
G04 #@! TA.AperFunction,Conductor*
%ADD38C,1.500000*%
G04 #@! TD*
G04 #@! TA.AperFunction,Conductor*
%ADD39C,1.000000*%
G04 #@! TD*
G04 APERTURE END LIST*
D10*
X161300000Y-105257500D03*
X161300000Y-103987500D03*
X161300000Y-102717500D03*
X161300000Y-101447500D03*
X161300000Y-100177500D03*
X161300000Y-98907500D03*
X161300000Y-97637500D03*
X161300000Y-96367500D03*
X168400000Y-96367500D03*
X168400000Y-97637500D03*
X168400000Y-98907500D03*
X168400000Y-100177500D03*
X168400000Y-101447500D03*
X168400000Y-102717500D03*
X168400000Y-103987500D03*
X168400000Y-105257500D03*
D11*
X174800000Y-111460000D03*
D12*
X174800000Y-114000000D03*
X172260000Y-111460000D03*
X172260000Y-114000000D03*
X169720000Y-111460000D03*
X169720000Y-114000000D03*
D13*
X143120000Y-97675000D03*
X145660000Y-97675000D03*
X148200000Y-97675000D03*
X150740000Y-97675000D03*
X153280000Y-97675000D03*
X155820000Y-97675000D03*
X155820000Y-107835000D03*
X153280000Y-107835000D03*
X150740000Y-107835000D03*
X148200000Y-107835000D03*
X145660000Y-107835000D03*
D14*
X143120000Y-107835000D03*
D15*
X161840000Y-84995000D03*
D16*
X161840000Y-92495000D03*
D15*
X136440000Y-84995000D03*
X142840000Y-84995000D03*
X139640000Y-92495000D03*
X127740000Y-120335000D03*
D16*
X125200000Y-120335000D03*
D15*
X137240000Y-120275000D03*
X134700000Y-120275000D03*
D16*
X132160000Y-120275000D03*
D11*
X169720000Y-117860000D03*
D12*
X172260000Y-117860000D03*
X174800000Y-117860000D03*
D17*
X169350000Y-89800000D03*
X174230000Y-89800000D03*
D15*
X125120000Y-86000000D03*
X127660000Y-86000000D03*
D16*
X130200000Y-86000000D03*
D18*
X129600000Y-113530000D03*
X125600000Y-113530000D03*
D19*
X151800000Y-102200000D03*
X153700000Y-102200000D03*
X152750000Y-104075000D03*
D20*
X155850000Y-111875000D03*
X155850000Y-110050000D03*
X150750000Y-111875000D03*
X150750000Y-110050000D03*
D21*
X153512500Y-88262500D03*
X153512500Y-86362500D03*
X155387500Y-87312500D03*
D22*
X155800000Y-93662500D03*
X155800000Y-95487500D03*
D20*
X153300000Y-111875000D03*
X153300000Y-110050000D03*
D22*
X153260000Y-93662500D03*
X153260000Y-95487500D03*
X148180000Y-93662500D03*
X148180000Y-95487500D03*
X145640000Y-93662500D03*
X145640000Y-95487500D03*
D19*
X147350000Y-102200000D03*
X149250000Y-102200000D03*
X148300000Y-104075000D03*
D23*
X130650000Y-99530000D03*
X132550000Y-99530000D03*
D20*
X150800000Y-88112500D03*
X150800000Y-86287500D03*
D19*
X156250000Y-102200000D03*
X158150000Y-102200000D03*
X157200000Y-104075000D03*
D20*
X143100000Y-111875000D03*
X143100000Y-110050000D03*
D24*
X131800000Y-92170000D03*
D25*
X127175000Y-95975000D03*
X127175000Y-92925000D03*
D26*
X125500000Y-94450000D03*
D25*
X123825000Y-95975000D03*
X123825000Y-92925000D03*
D24*
X131800000Y-96730000D03*
D20*
X145650000Y-111875000D03*
X145650000Y-110050000D03*
D27*
X158400000Y-90875000D03*
X158400000Y-86875000D03*
D28*
X136200000Y-110730000D03*
X136200000Y-102330000D03*
D29*
X124371751Y-110046751D03*
X123028249Y-108703249D03*
D22*
X150720000Y-93662500D03*
X150720000Y-95487500D03*
D19*
X142900000Y-102200000D03*
X144800000Y-102200000D03*
X143850000Y-104075000D03*
D22*
X143100000Y-93662500D03*
X143100000Y-95487500D03*
D20*
X148200000Y-111875000D03*
X148200000Y-110050000D03*
D30*
X126800000Y-107430000D03*
X126800000Y-102030000D03*
D31*
X133912500Y-117200000D03*
X132087500Y-117200000D03*
D32*
X181000000Y-86700000D03*
X177050000Y-83650000D03*
X173900000Y-91500000D03*
X177200000Y-91900000D03*
X164300000Y-99500000D03*
X161900000Y-124400000D03*
X173300000Y-83700000D03*
X168200000Y-83700000D03*
D33*
X166100000Y-92500000D03*
X166100000Y-94400000D03*
D32*
X121800000Y-115400000D03*
X122600000Y-106000000D03*
X164000000Y-112600000D03*
X170800000Y-106000000D03*
X158500000Y-99100000D03*
X158500000Y-96500000D03*
X140600000Y-113600000D03*
X153242500Y-105600000D03*
X152600000Y-100800000D03*
X156900000Y-100649500D03*
X146600000Y-100649500D03*
X154400000Y-90000000D03*
X152000000Y-114800000D03*
X164300000Y-104900000D03*
X157200000Y-114800000D03*
X168600000Y-116000000D03*
X159200000Y-123400000D03*
X165200000Y-111000000D03*
X167200000Y-117400000D03*
X164100000Y-123400000D03*
X158200000Y-104600000D03*
X157950000Y-107150000D03*
X152800000Y-102200000D03*
X149400000Y-98800000D03*
X140800000Y-97600000D03*
X144800000Y-100800000D03*
X149600000Y-100800000D03*
X152000000Y-98800000D03*
X174400000Y-103800000D03*
X140200000Y-110200000D03*
X146000000Y-114000000D03*
X134000000Y-112800000D03*
X135800000Y-116800000D03*
X175700000Y-108600000D03*
X179300000Y-90100000D03*
X173900000Y-108600000D03*
X147300000Y-86500000D03*
X159400000Y-100800000D03*
X157400000Y-94800000D03*
X162449500Y-106500688D03*
X158400688Y-113200688D03*
D33*
X163400000Y-106500000D03*
X163415332Y-110815332D03*
X160400000Y-114700000D03*
X163400000Y-109200000D03*
D32*
X163100000Y-100800000D03*
X159100000Y-107100000D03*
X151500000Y-91300000D03*
X163900000Y-95900000D03*
X163900000Y-93200000D03*
X162500000Y-89000000D03*
X158200000Y-100700000D03*
X155000000Y-105000000D03*
X156600000Y-98900000D03*
X149500000Y-107100000D03*
X159800000Y-94400000D03*
X171600000Y-93400000D03*
X154400000Y-92600000D03*
X178600000Y-100000000D03*
X168200000Y-119800000D03*
X172300000Y-121200000D03*
X169400000Y-91800000D03*
X171600000Y-91800000D03*
X155000000Y-91200000D03*
X151200000Y-90000000D03*
X166800000Y-87800000D03*
X171600000Y-90200000D03*
X169200000Y-94800000D03*
D34*
X177050000Y-83650000D02*
X177750000Y-83650000D01*
X180800000Y-86700000D02*
X181000000Y-86700000D01*
X177750000Y-83650000D02*
X180800000Y-86700000D01*
D35*
X120800000Y-115400000D02*
X120800000Y-120900000D01*
X124300000Y-124400000D02*
X129900000Y-124400000D01*
X120800000Y-120900000D02*
X124300000Y-124400000D01*
D34*
X172600000Y-102000000D02*
X174400000Y-103800000D01*
X168900000Y-82500000D02*
X172600000Y-86200000D01*
X172600000Y-86200000D02*
X172600000Y-102000000D01*
X151900000Y-82500000D02*
X168900000Y-82500000D01*
X149000000Y-87800000D02*
X149000000Y-85400000D01*
X149312500Y-88112500D02*
X149000000Y-87800000D01*
X149000000Y-85400000D02*
X151900000Y-82500000D01*
X150800000Y-88112500D02*
X149312500Y-88112500D01*
D35*
X174000000Y-124400000D02*
X168400000Y-124400000D01*
X180500000Y-89300000D02*
X180500000Y-117900000D01*
X180500000Y-117900000D02*
X174000000Y-124400000D01*
X174900000Y-83700000D02*
X180500000Y-89300000D01*
X173300000Y-83700000D02*
X174900000Y-83700000D01*
X132160000Y-120275000D02*
X132075000Y-120275000D01*
X132075000Y-120275000D02*
X129900000Y-122450000D01*
X129900000Y-122450000D02*
X129900000Y-124400000D01*
D34*
X173900000Y-91500000D02*
X176800000Y-91500000D01*
X177200000Y-91900000D02*
X176800000Y-91500000D01*
D36*
X164300000Y-104900000D02*
X164300000Y-99500000D01*
D37*
X136440000Y-84995000D02*
X132835000Y-88600000D01*
X132835000Y-88600000D02*
X125500000Y-88600000D01*
X125500000Y-88600000D02*
X125120000Y-88220000D01*
X125120000Y-88220000D02*
X125120000Y-86000000D01*
D34*
X168312500Y-100177500D02*
X169822500Y-100177500D01*
X169822500Y-100177500D02*
X171300000Y-98700000D01*
X171300000Y-98700000D02*
X171300000Y-96400000D01*
X169700000Y-94800000D02*
X169200000Y-94800000D01*
X171300000Y-96400000D02*
X169700000Y-94800000D01*
D35*
X168200000Y-83700000D02*
X165600000Y-83700000D01*
X165600000Y-83700000D02*
X164500000Y-84800000D01*
X164500000Y-84800000D02*
X164500000Y-88600000D01*
X164500000Y-88600000D02*
X166100000Y-90200000D01*
X166100000Y-90200000D02*
X166100000Y-92500000D01*
X161900000Y-124400000D02*
X129900000Y-124400000D01*
D34*
X164100000Y-123400000D02*
X159200000Y-123400000D01*
D35*
X168400000Y-124400000D02*
X161900000Y-124400000D01*
D34*
X179300000Y-90100000D02*
X179300000Y-91400000D01*
X175700000Y-95000000D02*
X175700000Y-108600000D01*
X179300000Y-91400000D02*
X175700000Y-95000000D01*
D35*
X169720000Y-117860000D02*
X169720000Y-124400000D01*
X169720000Y-124400000D02*
X168400000Y-124400000D01*
D34*
X168200000Y-119800000D02*
X160275000Y-111875000D01*
X160275000Y-111875000D02*
X155850000Y-111875000D01*
X172300000Y-121200000D02*
X174600000Y-121200000D01*
X174600000Y-121200000D02*
X179000000Y-116800000D01*
X179000000Y-116800000D02*
X179000000Y-100400000D01*
X179000000Y-100400000D02*
X178600000Y-100000000D01*
X166100000Y-96700000D02*
X166100000Y-94400000D01*
X168312500Y-97637500D02*
X167037500Y-97637500D01*
X167037500Y-97637500D02*
X166100000Y-96700000D01*
X153242500Y-105600000D02*
X143100000Y-105600000D01*
X143100000Y-105600000D02*
X142800000Y-105300000D01*
X142800000Y-105300000D02*
X142800000Y-102300000D01*
X142800000Y-102300000D02*
X142900000Y-102200000D01*
D35*
X170700000Y-116000000D02*
X174300000Y-116000000D01*
X169720000Y-117860000D02*
X169720000Y-116980000D01*
X174800000Y-115500000D02*
X174800000Y-114000000D01*
X174300000Y-116000000D02*
X174800000Y-115500000D01*
X169720000Y-116980000D02*
X170700000Y-116000000D01*
X132550000Y-99530000D02*
X132550000Y-98450000D01*
X132550000Y-98450000D02*
X131800000Y-97700000D01*
X131800000Y-97700000D02*
X131800000Y-96730000D01*
D34*
X164000000Y-112600000D02*
X162600000Y-111200000D01*
X162600000Y-111200000D02*
X162600000Y-109200000D01*
X159300000Y-105900000D02*
X158000000Y-105900000D01*
X162600000Y-109200000D02*
X159300000Y-105900000D01*
X158000000Y-105900000D02*
X157200000Y-105100000D01*
X157200000Y-105100000D02*
X157200000Y-104075000D01*
X165200000Y-111000000D02*
X165200000Y-114000000D01*
X165200000Y-114000000D02*
X167900000Y-116700000D01*
X168312500Y-105257500D02*
X170057500Y-105257500D01*
X152750000Y-104075000D02*
X157200000Y-104075000D01*
D35*
X132550000Y-102050000D02*
X132550000Y-99530000D01*
X125370000Y-106000000D02*
X122600000Y-106000000D01*
D34*
X143850000Y-104075000D02*
X148300000Y-104075000D01*
D35*
X121800000Y-115400000D02*
X120800000Y-115400000D01*
D34*
X148300000Y-104075000D02*
X152750000Y-104075000D01*
D35*
X122600000Y-106000000D02*
X120800000Y-107800000D01*
X120800000Y-107800000D02*
X120800000Y-115400000D01*
X127170000Y-107430000D02*
X132550000Y-102050000D01*
D34*
X132087500Y-117200000D02*
X132087500Y-120202500D01*
X170057500Y-105257500D02*
X170800000Y-106000000D01*
D35*
X126800000Y-107430000D02*
X125370000Y-106000000D01*
D34*
X158500000Y-95100000D02*
X158500000Y-96500000D01*
D38*
X160220000Y-90875000D02*
X161840000Y-92495000D01*
D34*
X158400000Y-93600000D02*
X158400000Y-95000000D01*
D39*
X136200000Y-110730000D02*
X137270000Y-110730000D01*
X125525000Y-111200000D02*
X129600000Y-111200000D01*
D34*
X140600000Y-113600000D02*
X139100000Y-112100000D01*
D39*
X139400000Y-99000000D02*
X132570000Y-92170000D01*
D38*
X158400000Y-90875000D02*
X160220000Y-90875000D01*
D34*
X139100000Y-112100000D02*
X139100000Y-108900000D01*
X142200000Y-99800000D02*
X157800000Y-99800000D01*
D39*
X139400000Y-99800000D02*
X139400000Y-99000000D01*
D34*
X157800000Y-99800000D02*
X158500000Y-99100000D01*
D39*
X137270000Y-110730000D02*
X139100000Y-108900000D01*
X129600000Y-111200000D02*
X135730000Y-111200000D01*
X142200000Y-99800000D02*
X139400000Y-99800000D01*
X129600000Y-113530000D02*
X129600000Y-111200000D01*
X132570000Y-92170000D02*
X131800000Y-92170000D01*
X139100000Y-108900000D02*
X139400000Y-108600000D01*
X139400000Y-108600000D02*
X139400000Y-100200000D01*
X125525000Y-111200000D02*
X124371751Y-110046751D01*
D34*
X158400000Y-95000000D02*
X158500000Y-95100000D01*
D39*
X139400000Y-100200000D02*
X139400000Y-99800000D01*
X158400000Y-90875000D02*
X158400000Y-93600000D01*
D35*
X143100000Y-110050000D02*
X143100000Y-107855000D01*
X145660000Y-107835000D02*
X145660000Y-110040000D01*
X148200000Y-110050000D02*
X148200000Y-107835000D01*
X150750000Y-110050000D02*
X150750000Y-107845000D01*
X153280000Y-107835000D02*
X153280000Y-110030000D01*
X155800000Y-95487500D02*
X155800000Y-97655000D01*
D34*
X151800000Y-101600000D02*
X152600000Y-100800000D01*
X151800000Y-102200000D02*
X151800000Y-101600000D01*
X156250000Y-101150000D02*
X156250000Y-102200000D01*
X156900000Y-100649500D02*
X156750500Y-100649500D01*
X156750500Y-100649500D02*
X156250000Y-101150000D01*
D35*
X148180000Y-95487500D02*
X148180000Y-97655000D01*
X145660000Y-97675000D02*
X145660000Y-95507500D01*
D34*
X147350000Y-101399500D02*
X146600000Y-100649500D01*
X147350000Y-102200000D02*
X147350000Y-101399500D01*
D37*
X125200000Y-113930000D02*
X125200000Y-120335000D01*
X125600000Y-113530000D02*
X125200000Y-113930000D01*
D38*
X158400000Y-86875000D02*
X159960000Y-86875000D01*
D34*
X154400000Y-90000000D02*
X154400000Y-89000000D01*
D38*
X159960000Y-86875000D02*
X161840000Y-84995000D01*
D34*
X154400000Y-89000000D02*
X157000000Y-89000000D01*
X154200000Y-89000000D02*
X154400000Y-89000000D01*
X153512500Y-88312500D02*
X154200000Y-89000000D01*
X157000000Y-89000000D02*
X158400000Y-87600000D01*
X134200000Y-117200000D02*
X134700000Y-117700000D01*
X157200000Y-114800000D02*
X152000000Y-114800000D01*
X133912500Y-117200000D02*
X134200000Y-117200000D01*
X134700000Y-117700000D02*
X134700000Y-120275000D01*
X174800000Y-106000000D02*
X171517500Y-102717500D01*
X171517500Y-102717500D02*
X168312500Y-102717500D01*
X174800000Y-111460000D02*
X174800000Y-106000000D01*
X168800000Y-108600000D02*
X171200000Y-108600000D01*
X165800000Y-105600000D02*
X168800000Y-108600000D01*
X171200000Y-108600000D02*
X172260000Y-109660000D01*
X165800000Y-99800000D02*
X165800000Y-105600000D01*
X166692500Y-98907500D02*
X165800000Y-99800000D01*
X172260000Y-109660000D02*
X172260000Y-111460000D01*
X168312500Y-98907500D02*
X166692500Y-98907500D01*
X168600000Y-116000000D02*
X167900000Y-116700000D01*
X167900000Y-116700000D02*
X167200000Y-117400000D01*
X157950000Y-107950000D02*
X155850000Y-110050000D01*
X158200000Y-104600000D02*
X158150000Y-104550000D01*
X158150000Y-104550000D02*
X158150000Y-102200000D01*
X157950000Y-107150000D02*
X157950000Y-107950000D01*
X149412000Y-96988000D02*
X149412000Y-98788000D01*
X152800000Y-102200000D02*
X153700000Y-102200000D01*
X149412000Y-98788000D02*
X149400000Y-98800000D01*
X150720000Y-95680000D02*
X149412000Y-96988000D01*
X142312500Y-95487500D02*
X143100000Y-95487500D01*
X140800000Y-97600000D02*
X140800000Y-97000000D01*
X140800000Y-97000000D02*
X142312500Y-95487500D01*
X144800000Y-102200000D02*
X144800000Y-100800000D01*
X152000000Y-96747500D02*
X152000000Y-98800000D01*
X149250000Y-102200000D02*
X149250000Y-101150000D01*
X149250000Y-101150000D02*
X149600000Y-100800000D01*
X153260000Y-95487500D02*
X152000000Y-96747500D01*
X153512500Y-86362500D02*
X150875000Y-86362500D01*
X143000000Y-114000000D02*
X140200000Y-111200000D01*
X146000000Y-114000000D02*
X143000000Y-114000000D01*
X140200000Y-111200000D02*
X140200000Y-110200000D01*
X135800000Y-116800000D02*
X135700000Y-116800000D01*
X134000000Y-115100000D02*
X134000000Y-112800000D01*
X135700000Y-116800000D02*
X134000000Y-115100000D01*
X147300000Y-86500000D02*
X144600000Y-86500000D01*
D36*
X144702500Y-94600000D02*
X142476472Y-94600000D01*
D34*
X141700000Y-89400000D02*
X141700000Y-92100000D01*
D36*
X142476472Y-94600000D02*
X141700000Y-93823528D01*
D34*
X144600000Y-86500000D02*
X141700000Y-89400000D01*
X170800000Y-104000000D02*
X168325000Y-104000000D01*
X173900000Y-108600000D02*
X173900000Y-107100000D01*
X173900000Y-107100000D02*
X170800000Y-104000000D01*
D36*
X141700000Y-93823528D02*
X141700000Y-92100000D01*
X145640000Y-93662500D02*
X144702500Y-94600000D01*
D34*
X156262500Y-93662500D02*
X157400000Y-94800000D01*
X155800000Y-93662500D02*
X156262500Y-93662500D01*
X158900000Y-104100000D02*
X158900000Y-101300000D01*
X158900000Y-101300000D02*
X159400000Y-100800000D01*
X160057500Y-105257500D02*
X158900000Y-104100000D01*
X161387500Y-105257500D02*
X160057500Y-105257500D01*
D36*
X162725000Y-106225188D02*
X162725000Y-104425000D01*
D34*
X151600000Y-113600000D02*
X150750000Y-112750000D01*
D36*
X162725000Y-104425000D02*
X162287500Y-103987500D01*
X162287500Y-103987500D02*
X161387500Y-103987500D01*
D34*
X158001376Y-113600000D02*
X151600000Y-113600000D01*
X150750000Y-112750000D02*
X150750000Y-111875000D01*
D36*
X162449500Y-106500688D02*
X162725000Y-106225188D01*
D34*
X158400688Y-113200688D02*
X158001376Y-113600000D01*
D36*
X162617500Y-102717500D02*
X161387500Y-102717500D01*
X163400000Y-106500000D02*
X163350688Y-106450688D01*
X163415332Y-110815332D02*
X163400000Y-110800000D01*
D34*
X159900000Y-116000000D02*
X149600000Y-116000000D01*
D36*
X163350688Y-106450688D02*
X163350688Y-103450688D01*
D34*
X160400000Y-114700000D02*
X160400000Y-115500000D01*
D36*
X163350688Y-103450688D02*
X162617500Y-102717500D01*
X163400000Y-110800000D02*
X163400000Y-109200000D01*
D34*
X160400000Y-115500000D02*
X159900000Y-116000000D01*
X149600000Y-116000000D02*
X145650000Y-112050000D01*
D36*
X152000000Y-106900000D02*
X152000000Y-112400000D01*
X159100000Y-108361028D02*
X159100000Y-107100000D01*
X161387500Y-101447500D02*
X162452500Y-101447500D01*
X154600000Y-112200000D02*
X154600000Y-111500000D01*
X155187500Y-110912500D02*
X156548528Y-110912500D01*
X154600000Y-111500000D02*
X155187500Y-110912500D01*
X153900000Y-112900000D02*
X154600000Y-112200000D01*
X151400000Y-106300000D02*
X152000000Y-106900000D01*
X152000000Y-112400000D02*
X152500000Y-112900000D01*
X156548528Y-110912500D02*
X159100000Y-108361028D01*
X162452500Y-101447500D02*
X163100000Y-100800000D01*
X142475000Y-111875000D02*
X141300000Y-110700000D01*
X142300000Y-106300000D02*
X151400000Y-106300000D01*
X143100000Y-111875000D02*
X142475000Y-111875000D01*
X152500000Y-112900000D02*
X153900000Y-112900000D01*
X141300000Y-107300000D02*
X142300000Y-106300000D01*
X141300000Y-110700000D02*
X141300000Y-107300000D01*
D34*
X163900000Y-98500000D02*
X163900000Y-95900000D01*
X161387500Y-100177500D02*
X162222500Y-100177500D01*
X162222500Y-100177500D02*
X162750000Y-99650000D01*
X163247918Y-99150000D02*
X163250000Y-99150000D01*
X162750000Y-99650000D02*
X162750000Y-99647918D01*
X148180000Y-93662500D02*
X149342500Y-92500000D01*
X149342500Y-92500000D02*
X150300000Y-92500000D01*
X162500000Y-89000000D02*
X163900000Y-90400000D01*
X163250000Y-99150000D02*
X163900000Y-98500000D01*
X150300000Y-92500000D02*
X151500000Y-91300000D01*
X163900000Y-90400000D02*
X163900000Y-93200000D01*
X162750000Y-99647918D02*
X163247918Y-99150000D01*
D36*
X154500000Y-105400000D02*
X154900000Y-105000000D01*
X159992500Y-98907500D02*
X158200000Y-100700000D01*
X161387500Y-98907500D02*
X159992500Y-98907500D01*
X154500000Y-110675000D02*
X154500000Y-105400000D01*
X154900000Y-105000000D02*
X155000000Y-105000000D01*
X153300000Y-111875000D02*
X154500000Y-110675000D01*
D34*
X156600000Y-98900000D02*
X157862500Y-97637500D01*
D36*
X148200000Y-111875000D02*
X149500000Y-110575000D01*
X149500000Y-110575000D02*
X149500000Y-107100000D01*
D34*
X157862500Y-97637500D02*
X161387500Y-97637500D01*
X164400000Y-94400000D02*
X159800000Y-94400000D01*
X153337500Y-93662500D02*
X154400000Y-92600000D01*
X165400000Y-93400000D02*
X164400000Y-94400000D01*
X171600000Y-93400000D02*
X165400000Y-93400000D01*
X171600000Y-91800000D02*
X169400000Y-91800000D01*
X150720000Y-93662500D02*
X153182500Y-91200000D01*
X153182500Y-91200000D02*
X155000000Y-91200000D01*
X149600000Y-91600000D02*
X151200000Y-90000000D01*
X145162500Y-91600000D02*
X149600000Y-91600000D01*
X171600000Y-88400000D02*
X171000000Y-87800000D01*
X143100000Y-93662500D02*
X145162500Y-91600000D01*
X171000000Y-87800000D02*
X166800000Y-87800000D01*
X171600000Y-90200000D02*
X171600000Y-88400000D01*
G04 #@! TA.AperFunction,Conductor*
G36*
X179251545Y-80000575D02*
G01*
X179402663Y-80007999D01*
X179596574Y-80018162D01*
X179602452Y-80018751D01*
X179771626Y-80043846D01*
X179863387Y-80058379D01*
X179947547Y-80071708D01*
X179952980Y-80072817D01*
X180122209Y-80115206D01*
X180291320Y-80160520D01*
X180296156Y-80162030D01*
X180461239Y-80221098D01*
X180462494Y-80221563D01*
X180624260Y-80283659D01*
X180628547Y-80285493D01*
X180787684Y-80360759D01*
X180789235Y-80361521D01*
X180920871Y-80428593D01*
X180942968Y-80439852D01*
X180946747Y-80441944D01*
X181033431Y-80493900D01*
X181097983Y-80532591D01*
X181099907Y-80533792D01*
X181157564Y-80571235D01*
X181244256Y-80627533D01*
X181247451Y-80629752D01*
X181389278Y-80734939D01*
X181391342Y-80736538D01*
X181524964Y-80844744D01*
X181527597Y-80846999D01*
X181589574Y-80903172D01*
X181658503Y-80965646D01*
X181660722Y-80967758D01*
X181782239Y-81089275D01*
X181784352Y-81091495D01*
X181902990Y-81222391D01*
X181905260Y-81225041D01*
X182013450Y-81358644D01*
X182015078Y-81360744D01*
X182120238Y-81502536D01*
X182122473Y-81505754D01*
X182216206Y-81650091D01*
X182217407Y-81652015D01*
X182308049Y-81803242D01*
X182310146Y-81807030D01*
X182388445Y-81960698D01*
X182389263Y-81962364D01*
X182464494Y-82121426D01*
X182466350Y-82125765D01*
X182492437Y-82193723D01*
X182528418Y-82287459D01*
X182528919Y-82288811D01*
X182539827Y-82319295D01*
X182587958Y-82453813D01*
X182589489Y-82458713D01*
X182634797Y-82627809D01*
X182677178Y-82797004D01*
X182678291Y-82802459D01*
X182706152Y-82978372D01*
X182731243Y-83147511D01*
X182731839Y-83153462D01*
X182742009Y-83347519D01*
X182749424Y-83498451D01*
X182749500Y-83501543D01*
X182749500Y-121374000D01*
X182729498Y-121442121D01*
X182675842Y-121488614D01*
X182623500Y-121500000D01*
X178999998Y-121500000D01*
X177500000Y-122999998D01*
X177500000Y-125873500D01*
X177479998Y-125941621D01*
X177426342Y-125988114D01*
X177374000Y-125999500D01*
X121126000Y-125999500D01*
X121057879Y-125979498D01*
X121011386Y-125925842D01*
X121000000Y-125873500D01*
X121000000Y-123000000D01*
X120999999Y-122999998D01*
X119500001Y-121500000D01*
X119500000Y-121500000D01*
X116426500Y-121500000D01*
X116358379Y-121479998D01*
X116311886Y-121426342D01*
X116300500Y-121374000D01*
X116300500Y-102280000D01*
X125500001Y-102280000D01*
X125500001Y-103579978D01*
X125510493Y-103682691D01*
X125565642Y-103849122D01*
X125657683Y-103998344D01*
X125657688Y-103998350D01*
X125781649Y-104122311D01*
X125781655Y-104122316D01*
X125930877Y-104214357D01*
X126097308Y-104269506D01*
X126200012Y-104279999D01*
X126550000Y-104279999D01*
X126550000Y-102280000D01*
X127050000Y-102280000D01*
X127050000Y-104279999D01*
X127399978Y-104279999D01*
X127502691Y-104269506D01*
X127669122Y-104214357D01*
X127818344Y-104122316D01*
X127818350Y-104122311D01*
X127942311Y-103998350D01*
X127942316Y-103998344D01*
X128034357Y-103849122D01*
X128089506Y-103682691D01*
X128099999Y-103579987D01*
X128100000Y-103579987D01*
X128100000Y-102280000D01*
X127050000Y-102280000D01*
X126550000Y-102280000D01*
X125500001Y-102280000D01*
X116300500Y-102280000D01*
X116300500Y-101780000D01*
X125500000Y-101780000D01*
X126550000Y-101780000D01*
X126550000Y-99780000D01*
X127050000Y-99780000D01*
X127050000Y-101780000D01*
X128099999Y-101780000D01*
X128099999Y-100480021D01*
X128089506Y-100377308D01*
X128034357Y-100210877D01*
X127942316Y-100061655D01*
X127942311Y-100061649D01*
X127818350Y-99937688D01*
X127818344Y-99937683D01*
X127669122Y-99845642D01*
X127502691Y-99790493D01*
X127399987Y-99780000D01*
X129650001Y-99780000D01*
X129650001Y-100054978D01*
X129660493Y-100157691D01*
X129715642Y-100324122D01*
X129807683Y-100473344D01*
X129807688Y-100473350D01*
X129931649Y-100597311D01*
X129931655Y-100597316D01*
X130080877Y-100689357D01*
X130247308Y-100744506D01*
X130350012Y-100754999D01*
X130400000Y-100754998D01*
X130400000Y-99780000D01*
X129650001Y-99780000D01*
X127399987Y-99780000D01*
X127050000Y-99780000D01*
X126550000Y-99780000D01*
X126200021Y-99780000D01*
X126097308Y-99790493D01*
X125930877Y-99845642D01*
X125781655Y-99937683D01*
X125781649Y-99937688D01*
X125657688Y-100061649D01*
X125657683Y-100061655D01*
X125565642Y-100210877D01*
X125510493Y-100377308D01*
X125500000Y-100480012D01*
X125500000Y-101780000D01*
X116300500Y-101780000D01*
X116300500Y-99280000D01*
X129650000Y-99280000D01*
X130400000Y-99280000D01*
X130399999Y-98305000D01*
X130399999Y-98304999D01*
X130350021Y-98305000D01*
X130247308Y-98315493D01*
X130080877Y-98370642D01*
X129931655Y-98462683D01*
X129931649Y-98462688D01*
X129807688Y-98586649D01*
X129807683Y-98586655D01*
X129715642Y-98735877D01*
X129660493Y-98902308D01*
X129650000Y-99005012D01*
X129650000Y-99280000D01*
X116300500Y-99280000D01*
X116300500Y-96225000D01*
X121800001Y-96225000D01*
X121800001Y-97149980D01*
X121810493Y-97252694D01*
X121865641Y-97419122D01*
X121957682Y-97568345D01*
X121957687Y-97568351D01*
X122081648Y-97692312D01*
X122081654Y-97692317D01*
X122230877Y-97784358D01*
X122397300Y-97839505D01*
X122455426Y-97845443D01*
X122466594Y-97850000D01*
X122496811Y-97850000D01*
X122503218Y-97850326D01*
X122513679Y-97851394D01*
X122521763Y-97850000D01*
X122552204Y-97850000D01*
X122552213Y-97849999D01*
X123575000Y-97849999D01*
X123575000Y-96225000D01*
X124075000Y-96225000D01*
X124075000Y-97849999D01*
X125250000Y-97849999D01*
X125250000Y-96225000D01*
X125750000Y-96225000D01*
X125750000Y-97849999D01*
X126925000Y-97849999D01*
X126925000Y-96225000D01*
X127425000Y-96225000D01*
X127425000Y-97849999D01*
X128499980Y-97849999D01*
X128602694Y-97839506D01*
X128769122Y-97784358D01*
X128918345Y-97692317D01*
X128918351Y-97692312D01*
X129042312Y-97568351D01*
X129042317Y-97568345D01*
X129134358Y-97419122D01*
X129189505Y-97252698D01*
X129189506Y-97252692D01*
X129200000Y-97149989D01*
X129200000Y-96225000D01*
X127425000Y-96225000D01*
X126925000Y-96225000D01*
X125750000Y-96225000D01*
X125250000Y-96225000D01*
X124075000Y-96225000D01*
X123575000Y-96225000D01*
X121800001Y-96225000D01*
X116300500Y-96225000D01*
X116300500Y-94700000D01*
X121800000Y-94700000D01*
X121800000Y-94800021D01*
X121800001Y-95725000D01*
X123575000Y-95725000D01*
X123575000Y-94700000D01*
X124075000Y-94700000D01*
X124075000Y-95725000D01*
X125250000Y-95725000D01*
X125250000Y-94700000D01*
X125750000Y-94700000D01*
X125750000Y-95725000D01*
X126925000Y-95725000D01*
X126925000Y-94700000D01*
X127425000Y-94700000D01*
X127425000Y-95725000D01*
X129200000Y-95725000D01*
X129199999Y-94700000D01*
X127425000Y-94700000D01*
X126925000Y-94700000D01*
X125750000Y-94700000D01*
X125250000Y-94700000D01*
X124075000Y-94700000D01*
X123575000Y-94700000D01*
X121800000Y-94700000D01*
X116300500Y-94700000D01*
X116300500Y-93175000D01*
X121800000Y-93175000D01*
X121800000Y-94200000D01*
X123575000Y-94200000D01*
X123575000Y-93175000D01*
X124075000Y-93175000D01*
X124075000Y-94200000D01*
X126925000Y-94200000D01*
X126925000Y-93175000D01*
X127425000Y-93175000D01*
X127425000Y-94200000D01*
X129199999Y-94200000D01*
X129199998Y-94106213D01*
X129200000Y-94106192D01*
X129200000Y-93175000D01*
X127425000Y-93175000D01*
X126925000Y-93175000D01*
X124075000Y-93175000D01*
X123575000Y-93175000D01*
X121800000Y-93175000D01*
X116300500Y-93175000D01*
X116300500Y-91126000D01*
X116320502Y-91057879D01*
X116374158Y-91011386D01*
X116426500Y-91000000D01*
X121985146Y-91000000D01*
X122053267Y-91020002D01*
X122099760Y-91073658D01*
X122109864Y-91143932D01*
X122080370Y-91208512D01*
X122074241Y-91215095D01*
X121957687Y-91331648D01*
X121957682Y-91331654D01*
X121865641Y-91480877D01*
X121810494Y-91647301D01*
X121810493Y-91647307D01*
X121800000Y-91750010D01*
X121800000Y-92675000D01*
X129199999Y-92675000D01*
X129199999Y-91750021D01*
X129189832Y-91650495D01*
X129189744Y-91648781D01*
X129189506Y-91647305D01*
X129134358Y-91480876D01*
X129042317Y-91331654D01*
X129042312Y-91331648D01*
X128925759Y-91215095D01*
X128891733Y-91152783D01*
X128896798Y-91081968D01*
X128939345Y-91025132D01*
X129005865Y-91000321D01*
X129014854Y-91000000D01*
X132947810Y-91000000D01*
X133015931Y-91020002D01*
X133036905Y-91036905D01*
X137499998Y-95499999D01*
X137500000Y-95500000D01*
X140499999Y-95500000D01*
X140500000Y-95500000D01*
X141565946Y-94434052D01*
X141628255Y-94400030D01*
X141699070Y-94405094D01*
X141744133Y-94434054D01*
X142138101Y-94828021D01*
X142172126Y-94890334D01*
X142167062Y-94961149D01*
X142124515Y-95017985D01*
X142093043Y-95035171D01*
X142070170Y-95043702D01*
X142066475Y-95046469D01*
X142043319Y-95060207D01*
X142042469Y-95060596D01*
X142039125Y-95062123D01*
X141999954Y-95096064D01*
X141996455Y-95098884D01*
X141983911Y-95108275D01*
X141983908Y-95108278D01*
X141972817Y-95119366D01*
X141969531Y-95122425D01*
X141930359Y-95156368D01*
X141930356Y-95156373D01*
X141927859Y-95160258D01*
X141910963Y-95181221D01*
X140493721Y-96598463D01*
X140472758Y-96615359D01*
X140468873Y-96617856D01*
X140468868Y-96617859D01*
X140434925Y-96657031D01*
X140431866Y-96660317D01*
X140420778Y-96671408D01*
X140420775Y-96671411D01*
X140411384Y-96683955D01*
X140408564Y-96687454D01*
X140374623Y-96726625D01*
X140372709Y-96730818D01*
X140358969Y-96753975D01*
X140356202Y-96757670D01*
X140338090Y-96806234D01*
X140336369Y-96810389D01*
X140314834Y-96857544D01*
X140314833Y-96857548D01*
X140314176Y-96862117D01*
X140307523Y-96888186D01*
X140305909Y-96892512D01*
X140305909Y-96892516D01*
X140302209Y-96944223D01*
X140301729Y-96948690D01*
X140299500Y-96964201D01*
X140299500Y-96979867D01*
X140299339Y-96984363D01*
X140296455Y-97024688D01*
X140295641Y-97036073D01*
X140296620Y-97040576D01*
X140299500Y-97067357D01*
X140299500Y-97140719D01*
X140279498Y-97208840D01*
X140277196Y-97212295D01*
X140219781Y-97295474D01*
X140163761Y-97443184D01*
X140144722Y-97599996D01*
X140144722Y-97600003D01*
X140163761Y-97756815D01*
X140191771Y-97830670D01*
X140219780Y-97904523D01*
X140219781Y-97904525D01*
X140219782Y-97904526D01*
X140219783Y-97904529D01*
X140309516Y-98034529D01*
X140309518Y-98034531D01*
X140343168Y-98064342D01*
X140427760Y-98139283D01*
X140567635Y-98212696D01*
X140567636Y-98212696D01*
X140567638Y-98212697D01*
X140606215Y-98222205D01*
X140721015Y-98250500D01*
X140721017Y-98250500D01*
X140878983Y-98250500D01*
X140878985Y-98250500D01*
X141032365Y-98212696D01*
X141172240Y-98139283D01*
X141290483Y-98034530D01*
X141380220Y-97904523D01*
X141436237Y-97756818D01*
X141436237Y-97756817D01*
X141436238Y-97756815D01*
X141446172Y-97675003D01*
X142102601Y-97675003D01*
X142122148Y-97873476D01*
X142122149Y-97873481D01*
X142122150Y-97873485D01*
X142158896Y-97994619D01*
X142180046Y-98064343D01*
X142264427Y-98222208D01*
X142274064Y-98240237D01*
X142400590Y-98394410D01*
X142554763Y-98520936D01*
X142574237Y-98531345D01*
X142689983Y-98593213D01*
X142730658Y-98614954D01*
X142921515Y-98672850D01*
X142921521Y-98672850D01*
X142921523Y-98672851D01*
X143119997Y-98692399D01*
X143120000Y-98692399D01*
X143120003Y-98692399D01*
X143318476Y-98672851D01*
X143318476Y-98672850D01*
X143318485Y-98672850D01*
X143509342Y-98614954D01*
X143685237Y-98520936D01*
X143839410Y-98394410D01*
X143965936Y-98240237D01*
X144059954Y-98064342D01*
X144117850Y-97873485D01*
X144126628Y-97784358D01*
X144137399Y-97675003D01*
X144137399Y-97674996D01*
X144117851Y-97476523D01*
X144117850Y-97476521D01*
X144117850Y-97476515D01*
X144059954Y-97285658D01*
X144045317Y-97258275D01*
X143981942Y-97139709D01*
X143965936Y-97109763D01*
X143839410Y-96955590D01*
X143685237Y-96829064D01*
X143685235Y-96829063D01*
X143685234Y-96829062D01*
X143509343Y-96735046D01*
X143432384Y-96711701D01*
X143318485Y-96677150D01*
X143318481Y-96677149D01*
X143318476Y-96677148D01*
X143120003Y-96657601D01*
X143119997Y-96657601D01*
X142921523Y-96677148D01*
X142921517Y-96677149D01*
X142921515Y-96677150D01*
X142855426Y-96697198D01*
X142730656Y-96735046D01*
X142554765Y-96829062D01*
X142400590Y-96955590D01*
X142274062Y-97109765D01*
X142180046Y-97285656D01*
X142146057Y-97397703D01*
X142132262Y-97443182D01*
X142122148Y-97476523D01*
X142102601Y-97674996D01*
X142102601Y-97675003D01*
X141446172Y-97675003D01*
X141455278Y-97600003D01*
X141455278Y-97599996D01*
X141436238Y-97443184D01*
X141427112Y-97419122D01*
X141380220Y-97295477D01*
X141380217Y-97295472D01*
X141380217Y-97295471D01*
X141371311Y-97282569D01*
X141349076Y-97215144D01*
X141366824Y-97146401D01*
X141385909Y-97121903D01*
X142282202Y-96225610D01*
X142344512Y-96191586D01*
X142415322Y-96196650D01*
X142542517Y-96244091D01*
X142602127Y-96250500D01*
X143597872Y-96250499D01*
X143657483Y-96244091D01*
X143773241Y-96200916D01*
X143792326Y-96193798D01*
X143792326Y-96193797D01*
X143792331Y-96193796D01*
X143907546Y-96107546D01*
X143993796Y-95992331D01*
X144044091Y-95857483D01*
X144050500Y-95797873D01*
X144050499Y-95177128D01*
X144048268Y-95156372D01*
X144046505Y-95139966D01*
X144059112Y-95070098D01*
X144107491Y-95018137D01*
X144171783Y-95000500D01*
X144568217Y-95000500D01*
X144636338Y-95020502D01*
X144682831Y-95074158D01*
X144693495Y-95139970D01*
X144689500Y-95177119D01*
X144689500Y-95797864D01*
X144689502Y-95797885D01*
X144695908Y-95857480D01*
X144695908Y-95857481D01*
X144746201Y-95992326D01*
X144746203Y-95992329D01*
X144746204Y-95992331D01*
X144768754Y-96022454D01*
X144832452Y-96107544D01*
X144832453Y-96107544D01*
X144832454Y-96107546D01*
X144899410Y-96157669D01*
X144947672Y-96193798D01*
X144977530Y-96204934D01*
X145034367Y-96247479D01*
X145059179Y-96313999D01*
X145059500Y-96322990D01*
X145059500Y-96798409D01*
X145039498Y-96866530D01*
X145013434Y-96895808D01*
X144940590Y-96955589D01*
X144814062Y-97109765D01*
X144720046Y-97285656D01*
X144686057Y-97397703D01*
X144672262Y-97443182D01*
X144662148Y-97476523D01*
X144642601Y-97674996D01*
X144642601Y-97675003D01*
X144662148Y-97873476D01*
X144662149Y-97873481D01*
X144662150Y-97873485D01*
X144698896Y-97994619D01*
X144720046Y-98064343D01*
X144804427Y-98222208D01*
X144814064Y-98240237D01*
X144940590Y-98394410D01*
X145094763Y-98520936D01*
X145114237Y-98531345D01*
X145229983Y-98593213D01*
X145270658Y-98614954D01*
X145461515Y-98672850D01*
X145461521Y-98672850D01*
X145461523Y-98672851D01*
X145659997Y-98692399D01*
X145660000Y-98692399D01*
X145660003Y-98692399D01*
X145858476Y-98672851D01*
X145858476Y-98672850D01*
X145858485Y-98672850D01*
X146049342Y-98614954D01*
X146225237Y-98520936D01*
X146379410Y-98394410D01*
X146505936Y-98240237D01*
X146599954Y-98064342D01*
X146657850Y-97873485D01*
X146666628Y-97784358D01*
X146677399Y-97675003D01*
X146677399Y-97674996D01*
X146657851Y-97476523D01*
X146657850Y-97476521D01*
X146657850Y-97476515D01*
X146599954Y-97285658D01*
X146585317Y-97258275D01*
X146521942Y-97139709D01*
X146505936Y-97109763D01*
X146379410Y-96955590D01*
X146379409Y-96955589D01*
X146306566Y-96895808D01*
X146266597Y-96837131D01*
X146260500Y-96798409D01*
X146260500Y-96307778D01*
X146280502Y-96239657D01*
X146326117Y-96197189D01*
X146332324Y-96193798D01*
X146332331Y-96193796D01*
X146447546Y-96107546D01*
X146533796Y-95992331D01*
X146584091Y-95857483D01*
X146590500Y-95797873D01*
X146590499Y-95177128D01*
X146584091Y-95117517D01*
X146559095Y-95050499D01*
X146533798Y-94982673D01*
X146533796Y-94982670D01*
X146533796Y-94982669D01*
X146475173Y-94904359D01*
X146447546Y-94867453D01*
X146357434Y-94799996D01*
X146332331Y-94781204D01*
X146332329Y-94781203D01*
X146332326Y-94781201D01*
X146197483Y-94730909D01*
X146197486Y-94730909D01*
X146137878Y-94724500D01*
X146137873Y-94724500D01*
X145448581Y-94724500D01*
X145380460Y-94704498D01*
X145333967Y-94650842D01*
X145323863Y-94580568D01*
X145353357Y-94515988D01*
X145359486Y-94509405D01*
X145406487Y-94462404D01*
X145468799Y-94428378D01*
X145495582Y-94425499D01*
X146137865Y-94425499D01*
X146137872Y-94425499D01*
X146197483Y-94419091D01*
X146332331Y-94368796D01*
X146447546Y-94282546D01*
X146533796Y-94167331D01*
X146535400Y-94163032D01*
X146549270Y-94125842D01*
X146584091Y-94032483D01*
X146590500Y-93972873D01*
X146590499Y-93352128D01*
X146584091Y-93292517D01*
X146551549Y-93205266D01*
X146533798Y-93157673D01*
X146533796Y-93157670D01*
X146533796Y-93157669D01*
X146485922Y-93093718D01*
X146447546Y-93042453D01*
X146362159Y-92978533D01*
X146332331Y-92956204D01*
X146332329Y-92956203D01*
X146332326Y-92956201D01*
X146197483Y-92905909D01*
X146197486Y-92905909D01*
X146137873Y-92899500D01*
X145142135Y-92899500D01*
X145142114Y-92899502D01*
X145082519Y-92905908D01*
X145082518Y-92905908D01*
X144947673Y-92956201D01*
X144947670Y-92956203D01*
X144832453Y-93042453D01*
X144746203Y-93157670D01*
X144746201Y-93157673D01*
X144695909Y-93292515D01*
X144689500Y-93352121D01*
X144689500Y-93972864D01*
X144689501Y-93972877D01*
X144690215Y-93979515D01*
X144677606Y-94049383D01*
X144654033Y-94082072D01*
X144573513Y-94162594D01*
X144511201Y-94196620D01*
X144484416Y-94199500D01*
X144163271Y-94199500D01*
X144095150Y-94179498D01*
X144048657Y-94125842D01*
X144038553Y-94055568D01*
X144042475Y-94040201D01*
X144042278Y-94040155D01*
X144044090Y-94032486D01*
X144044090Y-94032485D01*
X144044091Y-94032483D01*
X144050500Y-93972873D01*
X144050499Y-93472002D01*
X144070501Y-93403882D01*
X144087395Y-93382917D01*
X145332911Y-92137402D01*
X145395221Y-92103379D01*
X145422004Y-92100500D01*
X148729995Y-92100500D01*
X148798116Y-92120502D01*
X148844609Y-92174158D01*
X148854713Y-92244432D01*
X148825219Y-92309012D01*
X148819090Y-92315596D01*
X148272088Y-92862596D01*
X148209776Y-92896621D01*
X148182993Y-92899500D01*
X147682135Y-92899500D01*
X147682114Y-92899502D01*
X147622519Y-92905908D01*
X147622518Y-92905908D01*
X147487673Y-92956201D01*
X147487670Y-92956203D01*
X147372453Y-93042453D01*
X147286203Y-93157670D01*
X147286201Y-93157673D01*
X147235909Y-93292515D01*
X147229500Y-93352121D01*
X147229500Y-93972864D01*
X147229502Y-93972885D01*
X147235908Y-94032480D01*
X147235908Y-94032481D01*
X147286201Y-94167326D01*
X147286203Y-94167329D01*
X147286204Y-94167331D01*
X147301156Y-94187304D01*
X147372453Y-94282546D01*
X147415585Y-94314834D01*
X147487669Y-94368796D01*
X147487671Y-94368796D01*
X147487673Y-94368798D01*
X147548030Y-94391309D01*
X147622514Y-94419090D01*
X147622517Y-94419091D01*
X147682127Y-94425500D01*
X148677872Y-94425499D01*
X148737483Y-94419091D01*
X148872331Y-94368796D01*
X148987546Y-94282546D01*
X149073796Y-94167331D01*
X149075400Y-94163032D01*
X149089270Y-94125842D01*
X149124091Y-94032483D01*
X149130500Y-93972873D01*
X149130499Y-93472002D01*
X149150501Y-93403882D01*
X149167395Y-93382917D01*
X149512910Y-93037402D01*
X149575220Y-93003379D01*
X149602003Y-93000500D01*
X149703350Y-93000500D01*
X149771471Y-93020502D01*
X149817964Y-93074158D01*
X149828068Y-93144432D01*
X149821406Y-93170531D01*
X149775909Y-93292514D01*
X149769500Y-93352121D01*
X149769500Y-93972864D01*
X149769502Y-93972885D01*
X149775908Y-94032480D01*
X149775908Y-94032481D01*
X149826201Y-94167326D01*
X149826203Y-94167329D01*
X149826204Y-94167331D01*
X149841156Y-94187304D01*
X149912453Y-94282546D01*
X149955585Y-94314834D01*
X150027669Y-94368796D01*
X150027671Y-94368796D01*
X150027673Y-94368798D01*
X150088030Y-94391309D01*
X150162514Y-94419090D01*
X150162517Y-94419091D01*
X150222127Y-94425500D01*
X151217872Y-94425499D01*
X151277483Y-94419091D01*
X151412331Y-94368796D01*
X151527546Y-94282546D01*
X151613796Y-94167331D01*
X151615400Y-94163032D01*
X151629270Y-94125842D01*
X151664091Y-94032483D01*
X151670500Y-93972873D01*
X151670499Y-93472002D01*
X151690501Y-93403882D01*
X151707395Y-93382917D01*
X153352911Y-91737402D01*
X153415221Y-91703379D01*
X153442004Y-91700500D01*
X154293543Y-91700500D01*
X154361664Y-91720502D01*
X154408157Y-91774158D01*
X154418261Y-91844432D01*
X154388767Y-91909012D01*
X154329041Y-91947396D01*
X154323696Y-91948839D01*
X154167638Y-91987302D01*
X154167634Y-91987304D01*
X154027759Y-92060717D01*
X153909518Y-92165468D01*
X153909516Y-92165470D01*
X153819783Y-92295470D01*
X153819782Y-92295473D01*
X153819781Y-92295475D01*
X153819780Y-92295477D01*
X153797052Y-92355407D01*
X153763762Y-92443184D01*
X153757222Y-92497042D01*
X153729154Y-92562255D01*
X153721236Y-92570948D01*
X153429589Y-92862595D01*
X153367277Y-92896621D01*
X153340494Y-92899500D01*
X152762135Y-92899500D01*
X152762114Y-92899502D01*
X152702519Y-92905908D01*
X152702518Y-92905908D01*
X152567673Y-92956201D01*
X152567670Y-92956203D01*
X152452453Y-93042453D01*
X152366203Y-93157670D01*
X152366201Y-93157673D01*
X152315909Y-93292515D01*
X152309500Y-93352121D01*
X152309500Y-93972864D01*
X152309502Y-93972885D01*
X152315908Y-94032480D01*
X152315908Y-94032481D01*
X152366201Y-94167326D01*
X152366203Y-94167329D01*
X152366204Y-94167331D01*
X152381156Y-94187304D01*
X152452453Y-94282546D01*
X152495585Y-94314834D01*
X152567669Y-94368796D01*
X152567671Y-94368796D01*
X152567673Y-94368798D01*
X152628030Y-94391309D01*
X152702514Y-94419090D01*
X152702517Y-94419091D01*
X152762127Y-94425500D01*
X153757872Y-94425499D01*
X153817483Y-94419091D01*
X153952331Y-94368796D01*
X154067546Y-94282546D01*
X154153796Y-94167331D01*
X154155400Y-94163032D01*
X154169270Y-94125842D01*
X154204091Y-94032483D01*
X154210500Y-93972873D01*
X154210499Y-93549504D01*
X154230501Y-93481385D01*
X154247404Y-93460410D01*
X154425388Y-93282426D01*
X154484328Y-93249183D01*
X154632365Y-93212696D01*
X154669299Y-93193311D01*
X154738908Y-93179364D01*
X154805011Y-93205266D01*
X154846617Y-93262794D01*
X154853131Y-93318345D01*
X154849501Y-93352112D01*
X154849500Y-93352131D01*
X154849500Y-93972864D01*
X154849502Y-93972885D01*
X154855908Y-94032480D01*
X154855908Y-94032481D01*
X154906201Y-94167326D01*
X154906203Y-94167329D01*
X154906204Y-94167331D01*
X154921156Y-94187304D01*
X154992453Y-94282546D01*
X155035585Y-94314834D01*
X155107669Y-94368796D01*
X155107671Y-94368796D01*
X155107673Y-94368798D01*
X155168030Y-94391309D01*
X155242514Y-94419090D01*
X155242517Y-94419091D01*
X155302127Y-94425500D01*
X156265495Y-94425499D01*
X156333616Y-94445501D01*
X156354590Y-94462404D01*
X156402538Y-94510352D01*
X156436564Y-94572664D01*
X156431499Y-94643479D01*
X156388952Y-94700315D01*
X156322432Y-94725126D01*
X156299987Y-94724726D01*
X156297896Y-94724501D01*
X156297875Y-94724500D01*
X156297873Y-94724500D01*
X156297868Y-94724500D01*
X155302135Y-94724500D01*
X155302114Y-94724502D01*
X155242519Y-94730908D01*
X155242518Y-94730908D01*
X155107673Y-94781201D01*
X155107670Y-94781203D01*
X154992453Y-94867453D01*
X154906203Y-94982670D01*
X154906201Y-94982673D01*
X154855909Y-95117515D01*
X154849500Y-95177121D01*
X154849500Y-95797864D01*
X154849502Y-95797885D01*
X154855908Y-95857480D01*
X154855908Y-95857481D01*
X154906201Y-95992326D01*
X154906203Y-95992329D01*
X154906204Y-95992331D01*
X154928754Y-96022454D01*
X154992452Y-96107544D01*
X154992453Y-96107544D01*
X154992454Y-96107546D01*
X155107669Y-96193796D01*
X155116766Y-96197189D01*
X155117528Y-96197473D01*
X155174365Y-96240017D01*
X155199179Y-96306537D01*
X155199500Y-96315530D01*
X155199500Y-96814822D01*
X155179498Y-96882943D01*
X155153435Y-96912220D01*
X155100590Y-96955589D01*
X154974062Y-97109765D01*
X154880046Y-97285656D01*
X154846057Y-97397703D01*
X154832262Y-97443182D01*
X154822148Y-97476523D01*
X154802601Y-97674996D01*
X154802601Y-97675003D01*
X154822148Y-97873476D01*
X154822149Y-97873481D01*
X154822150Y-97873485D01*
X154858896Y-97994619D01*
X154880046Y-98064343D01*
X154964427Y-98222208D01*
X154974064Y-98240237D01*
X155100590Y-98394410D01*
X155254763Y-98520936D01*
X155274237Y-98531345D01*
X155389983Y-98593213D01*
X155430658Y-98614954D01*
X155621515Y-98672850D01*
X155621521Y-98672850D01*
X155621523Y-98672851D01*
X155819997Y-98692399D01*
X155826190Y-98692399D01*
X155826190Y-98694908D01*
X155885117Y-98706079D01*
X155936649Y-98754916D01*
X155953597Y-98823860D01*
X155952804Y-98833434D01*
X155944722Y-98900002D01*
X155944722Y-98900003D01*
X155963761Y-99056815D01*
X155967044Y-99065470D01*
X155991070Y-99128821D01*
X155996524Y-99199606D01*
X155962842Y-99262104D01*
X155900718Y-99296471D01*
X155873258Y-99299500D01*
X152685711Y-99299500D01*
X152617590Y-99279498D01*
X152571097Y-99225842D01*
X152560993Y-99155568D01*
X152578061Y-99112008D01*
X152576674Y-99111280D01*
X152580214Y-99104531D01*
X152580220Y-99104523D01*
X152636237Y-98956818D01*
X152636237Y-98956817D01*
X152636238Y-98956815D01*
X152655278Y-98800003D01*
X152655278Y-98799997D01*
X152647483Y-98735799D01*
X152644118Y-98708089D01*
X152655763Y-98638056D01*
X152703423Y-98585435D01*
X152771966Y-98566933D01*
X152828595Y-98581781D01*
X152884733Y-98611787D01*
X152890658Y-98614954D01*
X153081515Y-98672850D01*
X153081521Y-98672850D01*
X153081523Y-98672851D01*
X153279997Y-98692399D01*
X153280000Y-98692399D01*
X153280003Y-98692399D01*
X153478476Y-98672851D01*
X153478476Y-98672850D01*
X153478485Y-98672850D01*
X153669342Y-98614954D01*
X153845237Y-98520936D01*
X153999410Y-98394410D01*
X154125936Y-98240237D01*
X154219954Y-98064342D01*
X154277850Y-97873485D01*
X154286628Y-97784358D01*
X154297399Y-97675003D01*
X154297399Y-97674996D01*
X154277851Y-97476523D01*
X154277850Y-97476521D01*
X154277850Y-97476515D01*
X154219954Y-97285658D01*
X154205317Y-97258275D01*
X154141942Y-97139709D01*
X154125936Y-97109763D01*
X153999410Y-96955590D01*
X153845237Y-96829064D01*
X153845235Y-96829063D01*
X153845234Y-96829062D01*
X153669343Y-96735046D01*
X153592384Y-96711701D01*
X153478485Y-96677150D01*
X153478481Y-96677149D01*
X153478476Y-96677148D01*
X153280003Y-96657601D01*
X153279996Y-96657601D01*
X153095471Y-96675774D01*
X153025718Y-96662545D01*
X152974190Y-96613705D01*
X152957247Y-96544759D01*
X152980269Y-96477599D01*
X152994020Y-96461293D01*
X153167910Y-96287402D01*
X153230222Y-96253378D01*
X153257005Y-96250499D01*
X153757865Y-96250499D01*
X153757872Y-96250499D01*
X153817483Y-96244091D01*
X153933241Y-96200916D01*
X153952326Y-96193798D01*
X153952326Y-96193797D01*
X153952331Y-96193796D01*
X154067546Y-96107546D01*
X154153796Y-95992331D01*
X154204091Y-95857483D01*
X154210500Y-95797873D01*
X154210499Y-95177128D01*
X154204091Y-95117517D01*
X154179095Y-95050499D01*
X154153798Y-94982673D01*
X154153796Y-94982670D01*
X154153796Y-94982669D01*
X154095173Y-94904359D01*
X154067546Y-94867453D01*
X153977434Y-94799996D01*
X153952331Y-94781204D01*
X153952329Y-94781203D01*
X153952326Y-94781201D01*
X153817483Y-94730909D01*
X153817486Y-94730909D01*
X153757873Y-94724500D01*
X152762135Y-94724500D01*
X152762114Y-94724502D01*
X152702519Y-94730908D01*
X152702518Y-94730908D01*
X152567673Y-94781201D01*
X152567670Y-94781203D01*
X152452453Y-94867453D01*
X152366203Y-94982670D01*
X152366201Y-94982673D01*
X152315909Y-95117515D01*
X152309500Y-95177121D01*
X152309500Y-95677995D01*
X152289498Y-95746116D01*
X152272599Y-95767085D01*
X151982869Y-96056816D01*
X151693721Y-96345964D01*
X151672758Y-96362859D01*
X151668873Y-96365356D01*
X151668868Y-96365359D01*
X151634925Y-96404531D01*
X151631866Y-96407817D01*
X151620778Y-96418908D01*
X151620775Y-96418911D01*
X151611384Y-96431455D01*
X151608564Y-96434954D01*
X151574623Y-96474125D01*
X151572709Y-96478318D01*
X151558969Y-96501475D01*
X151556202Y-96505170D01*
X151538090Y-96553734D01*
X151536369Y-96557889D01*
X151514834Y-96605044D01*
X151514833Y-96605048D01*
X151514176Y-96609617D01*
X151507523Y-96635686D01*
X151505909Y-96640012D01*
X151505909Y-96640016D01*
X151502209Y-96691723D01*
X151501729Y-96696190D01*
X151499500Y-96711701D01*
X151499500Y-96723137D01*
X151479498Y-96791258D01*
X151425842Y-96837751D01*
X151355568Y-96847855D01*
X151311282Y-96830885D01*
X151310696Y-96831982D01*
X151129343Y-96735046D01*
X151052384Y-96711701D01*
X150938485Y-96677150D01*
X150938481Y-96677149D01*
X150938476Y-96677148D01*
X150741314Y-96657730D01*
X150675482Y-96631148D01*
X150634472Y-96573193D01*
X150631305Y-96502267D01*
X150664566Y-96443245D01*
X150820410Y-96287401D01*
X150882720Y-96253378D01*
X150909503Y-96250499D01*
X151217865Y-96250499D01*
X151217872Y-96250499D01*
X151277483Y-96244091D01*
X151393241Y-96200916D01*
X151412326Y-96193798D01*
X151412326Y-96193797D01*
X151412331Y-96193796D01*
X151527546Y-96107546D01*
X151613796Y-95992331D01*
X151664091Y-95857483D01*
X151670500Y-95797873D01*
X151670499Y-95177128D01*
X151664091Y-95117517D01*
X151639095Y-95050499D01*
X151613798Y-94982673D01*
X151613796Y-94982670D01*
X151613796Y-94982669D01*
X151555173Y-94904359D01*
X151527546Y-94867453D01*
X151437434Y-94799996D01*
X151412331Y-94781204D01*
X151412329Y-94781203D01*
X151412326Y-94781201D01*
X151277483Y-94730909D01*
X151277486Y-94730909D01*
X151217873Y-94724500D01*
X150222135Y-94724500D01*
X150222114Y-94724502D01*
X150162519Y-94730908D01*
X150162518Y-94730908D01*
X150027673Y-94781201D01*
X150027670Y-94781203D01*
X149912453Y-94867453D01*
X149826203Y-94982670D01*
X149826201Y-94982673D01*
X149775909Y-95117515D01*
X149769500Y-95177121D01*
X149769500Y-95797864D01*
X149769502Y-95797888D01*
X149775172Y-95850634D01*
X149762565Y-95920502D01*
X149738989Y-95953195D01*
X149105721Y-96586463D01*
X149084758Y-96603359D01*
X149080873Y-96605856D01*
X149080868Y-96605859D01*
X149046925Y-96645031D01*
X149043866Y-96648317D01*
X149032778Y-96659408D01*
X149032775Y-96659411D01*
X149023384Y-96671955D01*
X149020564Y-96675455D01*
X149001725Y-96697196D01*
X148942000Y-96735581D01*
X148871003Y-96735581D01*
X148811276Y-96697198D01*
X148781783Y-96632618D01*
X148780500Y-96614685D01*
X148780500Y-96315530D01*
X148800502Y-96247409D01*
X148854158Y-96200916D01*
X148862472Y-96197473D01*
X148872331Y-96193796D01*
X148987546Y-96107546D01*
X149073796Y-95992331D01*
X149124091Y-95857483D01*
X149130500Y-95797873D01*
X149130499Y-95177128D01*
X149124091Y-95117517D01*
X149099095Y-95050499D01*
X149073798Y-94982673D01*
X149073796Y-94982670D01*
X149073796Y-94982669D01*
X149015173Y-94904359D01*
X148987546Y-94867453D01*
X148897434Y-94799996D01*
X148872331Y-94781204D01*
X148872329Y-94781203D01*
X148872326Y-94781201D01*
X148737483Y-94730909D01*
X148737486Y-94730909D01*
X148677873Y-94724500D01*
X147682135Y-94724500D01*
X147682114Y-94724502D01*
X147622519Y-94730908D01*
X147622518Y-94730908D01*
X147487673Y-94781201D01*
X147487670Y-94781203D01*
X147372453Y-94867453D01*
X147286203Y-94982670D01*
X147286201Y-94982673D01*
X147235909Y-95117515D01*
X147229500Y-95177121D01*
X147229500Y-95797864D01*
X147229502Y-95797885D01*
X147235908Y-95857480D01*
X147235908Y-95857481D01*
X147286201Y-95992326D01*
X147286203Y-95992329D01*
X147286204Y-95992331D01*
X147308754Y-96022454D01*
X147372452Y-96107544D01*
X147372453Y-96107544D01*
X147372454Y-96107546D01*
X147487669Y-96193796D01*
X147496766Y-96197189D01*
X147497528Y-96197473D01*
X147554365Y-96240017D01*
X147579179Y-96306537D01*
X147579500Y-96315530D01*
X147579500Y-96814822D01*
X147559498Y-96882943D01*
X147533435Y-96912220D01*
X147480590Y-96955589D01*
X147354062Y-97109765D01*
X147260046Y-97285656D01*
X147226057Y-97397703D01*
X147212262Y-97443182D01*
X147202148Y-97476523D01*
X147182601Y-97674996D01*
X147182601Y-97675003D01*
X147202148Y-97873476D01*
X147202149Y-97873481D01*
X147202150Y-97873485D01*
X147238896Y-97994619D01*
X147260046Y-98064343D01*
X147344427Y-98222208D01*
X147354064Y-98240237D01*
X147480590Y-98394410D01*
X147634763Y-98520936D01*
X147654237Y-98531345D01*
X147769983Y-98593213D01*
X147810658Y-98614954D01*
X148001515Y-98672850D01*
X148001521Y-98672850D01*
X148001523Y-98672851D01*
X148199997Y-98692399D01*
X148200000Y-98692399D01*
X148200003Y-98692399D01*
X148398476Y-98672851D01*
X148398476Y-98672850D01*
X148398485Y-98672850D01*
X148589038Y-98615045D01*
X148660031Y-98614413D01*
X148720097Y-98652262D01*
X148750166Y-98716577D01*
X148750694Y-98750807D01*
X148744722Y-98799994D01*
X148744722Y-98800003D01*
X148763761Y-98956815D01*
X148790984Y-99028593D01*
X148819780Y-99104523D01*
X148819781Y-99104525D01*
X148819782Y-99104526D01*
X148823326Y-99111280D01*
X148821404Y-99112288D01*
X148840221Y-99169355D01*
X148822470Y-99238097D01*
X148770373Y-99286330D01*
X148714289Y-99299500D01*
X142816957Y-99299500D01*
X142748836Y-99279498D01*
X142735970Y-99270024D01*
X142683315Y-99225842D01*
X142615215Y-99168698D01*
X142458434Y-99089960D01*
X142401528Y-99076473D01*
X142287721Y-99049500D01*
X142287719Y-99049500D01*
X140273525Y-99049500D01*
X140205404Y-99029498D01*
X140158911Y-98975842D01*
X140148378Y-98938136D01*
X140147916Y-98934192D01*
X140146795Y-98924599D01*
X140146617Y-98922861D01*
X140139999Y-98847203D01*
X140139998Y-98847200D01*
X140139998Y-98847198D01*
X140138515Y-98840015D01*
X140138591Y-98839999D01*
X140137011Y-98832869D01*
X140136934Y-98832888D01*
X140135241Y-98825747D01*
X140135241Y-98825745D01*
X140109249Y-98754331D01*
X140108720Y-98752811D01*
X140084814Y-98680666D01*
X140084812Y-98680662D01*
X140081713Y-98674016D01*
X140081784Y-98673982D01*
X140078602Y-98667409D01*
X140078533Y-98667444D01*
X140075240Y-98660888D01*
X140075237Y-98660883D01*
X140033506Y-98597435D01*
X140032539Y-98595916D01*
X140029903Y-98591643D01*
X139992712Y-98531345D01*
X139992709Y-98531342D01*
X139988159Y-98525587D01*
X139988221Y-98525537D01*
X139983604Y-98519871D01*
X139983544Y-98519922D01*
X139978827Y-98514300D01*
X139923606Y-98462202D01*
X139922325Y-98460958D01*
X133145832Y-91684464D01*
X133134040Y-91670853D01*
X133133936Y-91670714D01*
X133116769Y-91639265D01*
X133093796Y-91577669D01*
X133007546Y-91462454D01*
X133007544Y-91462453D01*
X133007544Y-91462452D01*
X132895442Y-91378533D01*
X132892331Y-91376204D01*
X132892329Y-91376203D01*
X132892326Y-91376201D01*
X132757483Y-91325909D01*
X132757486Y-91325909D01*
X132697873Y-91319500D01*
X130902135Y-91319500D01*
X130902114Y-91319502D01*
X130842519Y-91325908D01*
X130842518Y-91325908D01*
X130707673Y-91376201D01*
X130707670Y-91376203D01*
X130592453Y-91462453D01*
X130506203Y-91577670D01*
X130506201Y-91577673D01*
X130455909Y-91712515D01*
X130449500Y-91772121D01*
X130449500Y-92567864D01*
X130449502Y-92567885D01*
X130455908Y-92627480D01*
X130455908Y-92627481D01*
X130506201Y-92762326D01*
X130506203Y-92762329D01*
X130506204Y-92762331D01*
X130519418Y-92779982D01*
X130592453Y-92877546D01*
X130650061Y-92920671D01*
X130707669Y-92963796D01*
X130707671Y-92963796D01*
X130707673Y-92963798D01*
X130747181Y-92978533D01*
X130842514Y-93014090D01*
X130842517Y-93014091D01*
X130902127Y-93020500D01*
X132306941Y-93020499D01*
X132375062Y-93040501D01*
X132396036Y-93057404D01*
X138612595Y-99273962D01*
X138646621Y-99336274D01*
X138649500Y-99363057D01*
X138649500Y-99776322D01*
X138649393Y-99779986D01*
X138645668Y-99843930D01*
X138645669Y-99843934D01*
X138647586Y-99854805D01*
X138649500Y-99876685D01*
X138649500Y-108236940D01*
X138629498Y-108305061D01*
X138612596Y-108326035D01*
X138571274Y-108367358D01*
X138538409Y-108400223D01*
X138538405Y-108400227D01*
X138206518Y-108732114D01*
X137915594Y-109023038D01*
X137853282Y-109057063D01*
X137782466Y-109051998D01*
X137725631Y-109009451D01*
X137700820Y-108942931D01*
X137700499Y-108933942D01*
X137700499Y-108732135D01*
X137700499Y-108732128D01*
X137694091Y-108672517D01*
X137667044Y-108600000D01*
X137643798Y-108537673D01*
X137643796Y-108537670D01*
X137643796Y-108537669D01*
X137583025Y-108456489D01*
X137557546Y-108422453D01*
X137460354Y-108349696D01*
X137442331Y-108336204D01*
X137442329Y-108336203D01*
X137442326Y-108336201D01*
X137307483Y-108285909D01*
X137307486Y-108285909D01*
X137247873Y-108279500D01*
X135152135Y-108279500D01*
X135152114Y-108279502D01*
X135092519Y-108285908D01*
X135092518Y-108285908D01*
X134957673Y-108336201D01*
X134957670Y-108336203D01*
X134842453Y-108422453D01*
X134756203Y-108537670D01*
X134756201Y-108537673D01*
X134705909Y-108672515D01*
X134699500Y-108732121D01*
X134699500Y-110323500D01*
X134679498Y-110391621D01*
X134625842Y-110438114D01*
X134573500Y-110449500D01*
X129623677Y-110449500D01*
X129620013Y-110449393D01*
X129556069Y-110445668D01*
X129556063Y-110445669D01*
X129545193Y-110447586D01*
X129523314Y-110449500D01*
X125888058Y-110449500D01*
X125819937Y-110429498D01*
X125798962Y-110412595D01*
X125420061Y-110033693D01*
X125386036Y-109971381D01*
X125384440Y-109926667D01*
X125390050Y-109887652D01*
X125369568Y-109745195D01*
X125309780Y-109614279D01*
X125309779Y-109614278D01*
X125309779Y-109614277D01*
X125272172Y-109567607D01*
X125272158Y-109567592D01*
X124850913Y-109146349D01*
X124850906Y-109146342D01*
X124842146Y-109139283D01*
X124804223Y-109108722D01*
X124786572Y-109100661D01*
X124673307Y-109048934D01*
X124530850Y-109028452D01*
X124388393Y-109048934D01*
X124388392Y-109048934D01*
X124374335Y-109055354D01*
X124304061Y-109065456D01*
X124239480Y-109035962D01*
X124201098Y-108976235D01*
X124201100Y-108905238D01*
X124209397Y-108884190D01*
X124250468Y-108802409D01*
X124290902Y-108631810D01*
X124290902Y-108456489D01*
X124250467Y-108285887D01*
X124171786Y-108129217D01*
X124171784Y-108129213D01*
X124106567Y-108049154D01*
X124071232Y-108013819D01*
X124071230Y-108013819D01*
X123028249Y-109056801D01*
X122338819Y-109746230D01*
X122374165Y-109781575D01*
X122454203Y-109846777D01*
X122454215Y-109846784D01*
X122610888Y-109925468D01*
X122781490Y-109965902D01*
X122956810Y-109965902D01*
X123127409Y-109925468D01*
X123209190Y-109884397D01*
X123279042Y-109871699D01*
X123344670Y-109898782D01*
X123385238Y-109957046D01*
X123387866Y-110027994D01*
X123380354Y-110049335D01*
X123373934Y-110063393D01*
X123353452Y-110205850D01*
X123372668Y-110339498D01*
X123373934Y-110348306D01*
X123373935Y-110348310D01*
X123433722Y-110479224D01*
X123471329Y-110525894D01*
X123471338Y-110525904D01*
X123471340Y-110525906D01*
X123892596Y-110947160D01*
X123939279Y-110984780D01*
X124070195Y-111044568D01*
X124212652Y-111065050D01*
X124251667Y-111059440D01*
X124321940Y-111069542D01*
X124358695Y-111095062D01*
X124949161Y-111685528D01*
X124961133Y-111699380D01*
X124975390Y-111718530D01*
X125015392Y-111752095D01*
X125019411Y-111755778D01*
X125025223Y-111761590D01*
X125045152Y-111777348D01*
X125050209Y-111781346D01*
X125051631Y-111782504D01*
X125081072Y-111807207D01*
X125109786Y-111831302D01*
X125109787Y-111831302D01*
X125109789Y-111831304D01*
X125115923Y-111835339D01*
X125115880Y-111835404D01*
X125122034Y-111839324D01*
X125122076Y-111839258D01*
X125128321Y-111843109D01*
X125128323Y-111843111D01*
X125162933Y-111859250D01*
X125197094Y-111875179D01*
X125198744Y-111875978D01*
X125266567Y-111910040D01*
X125266569Y-111910040D01*
X125273461Y-111912549D01*
X125273433Y-111912623D01*
X125280339Y-111915023D01*
X125280365Y-111914948D01*
X125287322Y-111917253D01*
X125287327Y-111917256D01*
X125287332Y-111917257D01*
X125287335Y-111917258D01*
X125303999Y-111920698D01*
X125361716Y-111932615D01*
X125363339Y-111932975D01*
X125437279Y-111950500D01*
X125444567Y-111951352D01*
X125444557Y-111951429D01*
X125451825Y-111952172D01*
X125451832Y-111952093D01*
X125459135Y-111952731D01*
X125459144Y-111952733D01*
X125506613Y-111951352D01*
X125534992Y-111950527D01*
X125536824Y-111950500D01*
X128723500Y-111950500D01*
X128791621Y-111970502D01*
X128838114Y-112024158D01*
X128849500Y-112076500D01*
X128849500Y-112253500D01*
X128829498Y-112321621D01*
X128775842Y-112368114D01*
X128723501Y-112379500D01*
X128552135Y-112379500D01*
X128552114Y-112379502D01*
X128492519Y-112385908D01*
X128492518Y-112385908D01*
X128357673Y-112436201D01*
X128357670Y-112436203D01*
X128242453Y-112522453D01*
X128156203Y-112637670D01*
X128156201Y-112637673D01*
X128105909Y-112772515D01*
X128099500Y-112832121D01*
X128099500Y-114227864D01*
X128099502Y-114227885D01*
X128105908Y-114287480D01*
X128105908Y-114287481D01*
X128156201Y-114422326D01*
X128156203Y-114422329D01*
X128156204Y-114422331D01*
X128165337Y-114434531D01*
X128242453Y-114537546D01*
X128299006Y-114579881D01*
X128357669Y-114623796D01*
X128357671Y-114623796D01*
X128357673Y-114623798D01*
X128409651Y-114643184D01*
X128492514Y-114674090D01*
X128492517Y-114674091D01*
X128552127Y-114680500D01*
X130647872Y-114680499D01*
X130707483Y-114674091D01*
X130842331Y-114623796D01*
X130957546Y-114537546D01*
X131043796Y-114422331D01*
X131094091Y-114287483D01*
X131100500Y-114227873D01*
X131100499Y-112832128D01*
X131094091Y-112772517D01*
X131052464Y-112660909D01*
X131043798Y-112637673D01*
X131043796Y-112637670D01*
X131043796Y-112637669D01*
X130988422Y-112563699D01*
X130957546Y-112522453D01*
X130878704Y-112463433D01*
X130842331Y-112436204D01*
X130842329Y-112436203D01*
X130842326Y-112436201D01*
X130707483Y-112385909D01*
X130707486Y-112385909D01*
X130647878Y-112379500D01*
X130647873Y-112379500D01*
X130476499Y-112379500D01*
X130408378Y-112359498D01*
X130361885Y-112305842D01*
X130350499Y-112253499D01*
X130350500Y-112076499D01*
X130370502Y-112008379D01*
X130424158Y-111961886D01*
X130476500Y-111950500D01*
X133707626Y-111950500D01*
X133775747Y-111970502D01*
X133822240Y-112024158D01*
X133832344Y-112094432D01*
X133802850Y-112159012D01*
X133766183Y-112188065D01*
X133729188Y-112207483D01*
X133627759Y-112260717D01*
X133509518Y-112365468D01*
X133509516Y-112365470D01*
X133419783Y-112495470D01*
X133419782Y-112495473D01*
X133419781Y-112495475D01*
X133419780Y-112495477D01*
X133409549Y-112522454D01*
X133363761Y-112643184D01*
X133344722Y-112799996D01*
X133344722Y-112800003D01*
X133363762Y-112956816D01*
X133408501Y-113074782D01*
X133419780Y-113104523D01*
X133467799Y-113174091D01*
X133477196Y-113187704D01*
X133499432Y-113255129D01*
X133499500Y-113259280D01*
X133499499Y-115032640D01*
X133496622Y-115059411D01*
X133495641Y-115063919D01*
X133495641Y-115063928D01*
X133499339Y-115115634D01*
X133499500Y-115120130D01*
X133499500Y-115135799D01*
X133501729Y-115151311D01*
X133502209Y-115155778D01*
X133505908Y-115207480D01*
X133505910Y-115207488D01*
X133507521Y-115211808D01*
X133514177Y-115237883D01*
X133514834Y-115242455D01*
X133514836Y-115242462D01*
X133536365Y-115289603D01*
X133538086Y-115293757D01*
X133543629Y-115308617D01*
X133556204Y-115342331D01*
X133556205Y-115342332D01*
X133558968Y-115346024D01*
X133572706Y-115369178D01*
X133574619Y-115373367D01*
X133574621Y-115373370D01*
X133574622Y-115373371D01*
X133574623Y-115373373D01*
X133608565Y-115412544D01*
X133611379Y-115416036D01*
X133620779Y-115428593D01*
X133631865Y-115439679D01*
X133634920Y-115442960D01*
X133663085Y-115475465D01*
X133668872Y-115482143D01*
X133672751Y-115484635D01*
X133693723Y-115501537D01*
X134226591Y-116034405D01*
X134260617Y-116096717D01*
X134255552Y-116167532D01*
X134213005Y-116224368D01*
X134146485Y-116249179D01*
X134137496Y-116249500D01*
X133602135Y-116249500D01*
X133602114Y-116249502D01*
X133542519Y-116255908D01*
X133542518Y-116255908D01*
X133407673Y-116306201D01*
X133407670Y-116306203D01*
X133292453Y-116392453D01*
X133206203Y-116507670D01*
X133206201Y-116507673D01*
X133155909Y-116642515D01*
X133149500Y-116702121D01*
X133149500Y-117697864D01*
X133149502Y-117697885D01*
X133155908Y-117757480D01*
X133155908Y-117757481D01*
X133206201Y-117892326D01*
X133206203Y-117892329D01*
X133206204Y-117892331D01*
X133211945Y-117900000D01*
X133292453Y-118007546D01*
X133338971Y-118042369D01*
X133407669Y-118093796D01*
X133407671Y-118093796D01*
X133407673Y-118093798D01*
X133451114Y-118110000D01*
X133542514Y-118144090D01*
X133542517Y-118144091D01*
X133602127Y-118150500D01*
X134073499Y-118150499D01*
X134141620Y-118170501D01*
X134188113Y-118224156D01*
X134199499Y-118276499D01*
X134199499Y-118938003D01*
X134179497Y-119006124D01*
X134126750Y-119052197D01*
X134022171Y-119100963D01*
X134022167Y-119100966D01*
X133828607Y-119236498D01*
X133828602Y-119236502D01*
X133725595Y-119339509D01*
X133663283Y-119373534D01*
X133592467Y-119368468D01*
X133535631Y-119325922D01*
X133510821Y-119259401D01*
X133510500Y-119250413D01*
X133510500Y-119150325D01*
X133510499Y-119150322D01*
X133510335Y-119149500D01*
X133495966Y-119077260D01*
X133440601Y-118994399D01*
X133357740Y-118939034D01*
X133357739Y-118939033D01*
X133284677Y-118924500D01*
X133284674Y-118924500D01*
X132714000Y-118924500D01*
X132645879Y-118904498D01*
X132599386Y-118850842D01*
X132588000Y-118798500D01*
X132587999Y-118160109D01*
X132608001Y-118091988D01*
X132638490Y-118059241D01*
X132638492Y-118059240D01*
X132707546Y-118007546D01*
X132793796Y-117892331D01*
X132844091Y-117757483D01*
X132850500Y-117697873D01*
X132850499Y-116702128D01*
X132844091Y-116642517D01*
X132810225Y-116551718D01*
X132793798Y-116507673D01*
X132793796Y-116507670D01*
X132793796Y-116507669D01*
X132734367Y-116428282D01*
X132707546Y-116392453D01*
X132605224Y-116315856D01*
X132592331Y-116306204D01*
X132592329Y-116306203D01*
X132592326Y-116306201D01*
X132457483Y-116255909D01*
X132457486Y-116255909D01*
X132397873Y-116249500D01*
X131777135Y-116249500D01*
X131777114Y-116249502D01*
X131717519Y-116255908D01*
X131717518Y-116255908D01*
X131582673Y-116306201D01*
X131582670Y-116306203D01*
X131467453Y-116392453D01*
X131381203Y-116507670D01*
X131381201Y-116507673D01*
X131330909Y-116642515D01*
X131324500Y-116702121D01*
X131324500Y-117697864D01*
X131324502Y-117697885D01*
X131330908Y-117757480D01*
X131330908Y-117757481D01*
X131381201Y-117892326D01*
X131381203Y-117892329D01*
X131381204Y-117892331D01*
X131467454Y-118007546D01*
X131536510Y-118059241D01*
X131579056Y-118116076D01*
X131587000Y-118160108D01*
X131587000Y-118798500D01*
X131566998Y-118866621D01*
X131513342Y-118913114D01*
X131461000Y-118924500D01*
X131035322Y-118924500D01*
X130962260Y-118939033D01*
X130879399Y-118994399D01*
X130824033Y-119077260D01*
X130809500Y-119150322D01*
X130809500Y-120639074D01*
X130789498Y-120707195D01*
X130772595Y-120728169D01*
X129506139Y-121994625D01*
X129499938Y-122000063D01*
X129471718Y-122021717D01*
X129391088Y-122126798D01*
X129391087Y-122126797D01*
X129375465Y-122147157D01*
X129314955Y-122293239D01*
X129294317Y-122449998D01*
X129294318Y-122450000D01*
X129298960Y-122485273D01*
X129299499Y-122493490D01*
X129299499Y-123095477D01*
X129299500Y-123673500D01*
X129279498Y-123741621D01*
X129225842Y-123788114D01*
X129173500Y-123799500D01*
X128210632Y-123799500D01*
X128142511Y-123779498D01*
X128096018Y-123725842D01*
X128085914Y-123655568D01*
X128115408Y-123590988D01*
X128143596Y-123566813D01*
X128242260Y-123504817D01*
X128242262Y-123504816D01*
X128369816Y-123377262D01*
X128369817Y-123377260D01*
X128407517Y-123317262D01*
X128465789Y-123224522D01*
X128525368Y-123054255D01*
X128545565Y-122875000D01*
X128525368Y-122695745D01*
X128465789Y-122525478D01*
X128465787Y-122525475D01*
X128465787Y-122525474D01*
X128369817Y-122372739D01*
X128369816Y-122372737D01*
X128242262Y-122245183D01*
X128242260Y-122245182D01*
X128089526Y-122149213D01*
X128089524Y-122149212D01*
X128089522Y-122149211D01*
X128065551Y-122140823D01*
X128007862Y-122099446D01*
X127981699Y-122033446D01*
X127995371Y-121963779D01*
X128044539Y-121912563D01*
X128077754Y-121899376D01*
X128235954Y-121861396D01*
X128468629Y-121765019D01*
X128683370Y-121633426D01*
X128684178Y-121632733D01*
X128684179Y-121632732D01*
X127911568Y-120860121D01*
X128028458Y-120809349D01*
X128145739Y-120713934D01*
X128232928Y-120590415D01*
X128263354Y-120504801D01*
X129037732Y-121279179D01*
X129037733Y-121279178D01*
X129038426Y-121278370D01*
X129170019Y-121063629D01*
X129266396Y-120830954D01*
X129325187Y-120586068D01*
X129344947Y-120335000D01*
X129325187Y-120083931D01*
X129266396Y-119839045D01*
X129170019Y-119606370D01*
X129038426Y-119391631D01*
X129037732Y-119390819D01*
X128265929Y-120162622D01*
X128263116Y-120149085D01*
X128193558Y-120014844D01*
X128090362Y-119904348D01*
X127961181Y-119825791D01*
X127909996Y-119811449D01*
X128684178Y-119037266D01*
X128683359Y-119036566D01*
X128468629Y-118904980D01*
X128235954Y-118808603D01*
X127991068Y-118749812D01*
X127739999Y-118730052D01*
X127488931Y-118749812D01*
X127244045Y-118808603D01*
X127011370Y-118904980D01*
X126796636Y-119036569D01*
X126695660Y-119122810D01*
X126630870Y-119151840D01*
X126560670Y-119141235D01*
X126509064Y-119096998D01*
X126480601Y-119054399D01*
X126397739Y-118999033D01*
X126324677Y-118984500D01*
X126324674Y-118984500D01*
X126176500Y-118984500D01*
X126108379Y-118964498D01*
X126061886Y-118910842D01*
X126050500Y-118858500D01*
X126050500Y-114806499D01*
X126070502Y-114738378D01*
X126124158Y-114691885D01*
X126176500Y-114680499D01*
X126647865Y-114680499D01*
X126647872Y-114680499D01*
X126707483Y-114674091D01*
X126842331Y-114623796D01*
X126957546Y-114537546D01*
X127043796Y-114422331D01*
X127094091Y-114287483D01*
X127100500Y-114227873D01*
X127100499Y-112832128D01*
X127094091Y-112772517D01*
X127052464Y-112660909D01*
X127043798Y-112637673D01*
X127043796Y-112637670D01*
X127043796Y-112637669D01*
X126988422Y-112563699D01*
X126957546Y-112522453D01*
X126878704Y-112463433D01*
X126842331Y-112436204D01*
X126842329Y-112436203D01*
X126842326Y-112436201D01*
X126707483Y-112385909D01*
X126707486Y-112385909D01*
X126647873Y-112379500D01*
X124552135Y-112379500D01*
X124552114Y-112379502D01*
X124492519Y-112385908D01*
X124492518Y-112385908D01*
X124357673Y-112436201D01*
X124357670Y-112436203D01*
X124242453Y-112522453D01*
X124156203Y-112637670D01*
X124156201Y-112637673D01*
X124105909Y-112772515D01*
X124099500Y-112832121D01*
X124099500Y-114227864D01*
X124099502Y-114227885D01*
X124105908Y-114287480D01*
X124105908Y-114287481D01*
X124156201Y-114422326D01*
X124156203Y-114422329D01*
X124156204Y-114422331D01*
X124242454Y-114537546D01*
X124299009Y-114579883D01*
X124341555Y-114636716D01*
X124349500Y-114680750D01*
X124349500Y-118858500D01*
X124329498Y-118926621D01*
X124275842Y-118973114D01*
X124223500Y-118984500D01*
X124075322Y-118984500D01*
X124002260Y-118999033D01*
X123919399Y-119054399D01*
X123864033Y-119137260D01*
X123849500Y-119210322D01*
X123849500Y-121459677D01*
X123864033Y-121532739D01*
X123879308Y-121555600D01*
X123919399Y-121615601D01*
X124002260Y-121670966D01*
X124075326Y-121685500D01*
X126324674Y-121685500D01*
X126397740Y-121670966D01*
X126480601Y-121615601D01*
X126509065Y-121572999D01*
X126563539Y-121527473D01*
X126633982Y-121518623D01*
X126695660Y-121547190D01*
X126796631Y-121633427D01*
X126796633Y-121633428D01*
X127011370Y-121765019D01*
X127244045Y-121861396D01*
X127402245Y-121899376D01*
X127463814Y-121934728D01*
X127496497Y-121997755D01*
X127489917Y-122068446D01*
X127446162Y-122124357D01*
X127414447Y-122140824D01*
X127390474Y-122149212D01*
X127237739Y-122245182D01*
X127237737Y-122245183D01*
X127110183Y-122372737D01*
X127110182Y-122372739D01*
X127014212Y-122525474D01*
X127014211Y-122525477D01*
X127014211Y-122525478D01*
X126954632Y-122695745D01*
X126934435Y-122875000D01*
X126954632Y-123054255D01*
X126954633Y-123054257D01*
X127014211Y-123224522D01*
X127014212Y-123224525D01*
X127110182Y-123377260D01*
X127110183Y-123377262D01*
X127237737Y-123504816D01*
X127237739Y-123504817D01*
X127336404Y-123566813D01*
X127383442Y-123619991D01*
X127394262Y-123690159D01*
X127365429Y-123755037D01*
X127306098Y-123794028D01*
X127269368Y-123799500D01*
X125670632Y-123799500D01*
X125602511Y-123779498D01*
X125556018Y-123725842D01*
X125545914Y-123655568D01*
X125575408Y-123590988D01*
X125603596Y-123566813D01*
X125702260Y-123504817D01*
X125702262Y-123504816D01*
X125829816Y-123377262D01*
X125829817Y-123377260D01*
X125867517Y-123317262D01*
X125925789Y-123224522D01*
X125985368Y-123054255D01*
X126005565Y-122875000D01*
X125985368Y-122695745D01*
X125925789Y-122525478D01*
X125925787Y-122525475D01*
X125925787Y-122525474D01*
X125829817Y-122372739D01*
X125829816Y-122372737D01*
X125702262Y-122245183D01*
X125702260Y-122245182D01*
X125549525Y-122149212D01*
X125549522Y-122149211D01*
X125478493Y-122124357D01*
X125379255Y-122089632D01*
X125244954Y-122074500D01*
X125155046Y-122074500D01*
X125020745Y-122089632D01*
X125020742Y-122089632D01*
X125020742Y-122089633D01*
X124850477Y-122149211D01*
X124850474Y-122149212D01*
X124697739Y-122245182D01*
X124697737Y-122245183D01*
X124570183Y-122372737D01*
X124570182Y-122372739D01*
X124474212Y-122525474D01*
X124474211Y-122525477D01*
X124474211Y-122525478D01*
X124414632Y-122695745D01*
X124394435Y-122875000D01*
X124414632Y-123054255D01*
X124414633Y-123054257D01*
X124474211Y-123224522D01*
X124474212Y-123224525D01*
X124570182Y-123377260D01*
X124570183Y-123377262D01*
X124697737Y-123504816D01*
X124697739Y-123504817D01*
X124796404Y-123566813D01*
X124843442Y-123619991D01*
X124854262Y-123690159D01*
X124825429Y-123755037D01*
X124766098Y-123794028D01*
X124729368Y-123799500D01*
X124600926Y-123799500D01*
X124532805Y-123779498D01*
X124511831Y-123762595D01*
X121437405Y-120688169D01*
X121403379Y-120625857D01*
X121400500Y-120599074D01*
X121400500Y-116131852D01*
X121420502Y-116063731D01*
X121474158Y-116017238D01*
X121544432Y-116007134D01*
X121560154Y-116011195D01*
X121560234Y-116010872D01*
X121567639Y-116012697D01*
X121721015Y-116050500D01*
X121721017Y-116050500D01*
X121878983Y-116050500D01*
X121878985Y-116050500D01*
X122032365Y-116012696D01*
X122172240Y-115939283D01*
X122290483Y-115834530D01*
X122380220Y-115704523D01*
X122436237Y-115556818D01*
X122436237Y-115556817D01*
X122436238Y-115556815D01*
X122455278Y-115400003D01*
X122455278Y-115399996D01*
X122436238Y-115243184D01*
X122409848Y-115173600D01*
X122380220Y-115095477D01*
X122380216Y-115095472D01*
X122380216Y-115095470D01*
X122290483Y-114965470D01*
X122290481Y-114965468D01*
X122172240Y-114860717D01*
X122032365Y-114787304D01*
X122032361Y-114787302D01*
X121878987Y-114749500D01*
X121878985Y-114749500D01*
X121721015Y-114749500D01*
X121721012Y-114749500D01*
X121560234Y-114789128D01*
X121559671Y-114786846D01*
X121500391Y-114791412D01*
X121437893Y-114757728D01*
X121403528Y-114695603D01*
X121400500Y-114668147D01*
X121400500Y-108950008D01*
X121765596Y-108950008D01*
X121806030Y-109120610D01*
X121884711Y-109277280D01*
X121884713Y-109277284D01*
X121949930Y-109357343D01*
X121985265Y-109392678D01*
X121985267Y-109392678D01*
X123028248Y-108349696D01*
X123717677Y-107660265D01*
X123682332Y-107624922D01*
X123602294Y-107559720D01*
X123602282Y-107559713D01*
X123445609Y-107481029D01*
X123275008Y-107440596D01*
X123099688Y-107440596D01*
X122929085Y-107481030D01*
X122772415Y-107559711D01*
X122772411Y-107559713D01*
X122692357Y-107624926D01*
X121949926Y-108367358D01*
X121884720Y-108447401D01*
X121884713Y-108447413D01*
X121806029Y-108604086D01*
X121765596Y-108774687D01*
X121765596Y-108950008D01*
X121400500Y-108950008D01*
X121400500Y-108100924D01*
X121420502Y-108032803D01*
X121437400Y-108011834D01*
X122811829Y-106637404D01*
X122874141Y-106603379D01*
X122900924Y-106600500D01*
X125069075Y-106600500D01*
X125137196Y-106620502D01*
X125158170Y-106637405D01*
X125712595Y-107191830D01*
X125746621Y-107254142D01*
X125749500Y-107280925D01*
X125749500Y-108977864D01*
X125749502Y-108977885D01*
X125755908Y-109037480D01*
X125755908Y-109037481D01*
X125806201Y-109172326D01*
X125806203Y-109172329D01*
X125806204Y-109172331D01*
X125826916Y-109199999D01*
X125892453Y-109287546D01*
X125936262Y-109320341D01*
X126007669Y-109373796D01*
X126007671Y-109373796D01*
X126007673Y-109373798D01*
X126058294Y-109392678D01*
X126142514Y-109424090D01*
X126142517Y-109424091D01*
X126202127Y-109430500D01*
X127397872Y-109430499D01*
X127457483Y-109424091D01*
X127592331Y-109373796D01*
X127707546Y-109287546D01*
X127793796Y-109172331D01*
X127844091Y-109037483D01*
X127850500Y-108977873D01*
X127850499Y-107650923D01*
X127870501Y-107582803D01*
X127887399Y-107561834D01*
X132869233Y-102580000D01*
X134450001Y-102580000D01*
X134450001Y-104329978D01*
X134460493Y-104432691D01*
X134515642Y-104599122D01*
X134607683Y-104748344D01*
X134607688Y-104748350D01*
X134731649Y-104872311D01*
X134731655Y-104872316D01*
X134880877Y-104964357D01*
X135047308Y-105019506D01*
X135150012Y-105029999D01*
X135950000Y-105029999D01*
X135950000Y-102580000D01*
X136450000Y-102580000D01*
X136450000Y-105029999D01*
X137249978Y-105029999D01*
X137352691Y-105019506D01*
X137519122Y-104964357D01*
X137668344Y-104872316D01*
X137668350Y-104872311D01*
X137792311Y-104748350D01*
X137792316Y-104748344D01*
X137884357Y-104599122D01*
X137939506Y-104432691D01*
X137949999Y-104329987D01*
X137950000Y-104329987D01*
X137950000Y-102580000D01*
X136450000Y-102580000D01*
X135950000Y-102580000D01*
X134450001Y-102580000D01*
X132869233Y-102580000D01*
X132943872Y-102505361D01*
X132950054Y-102499940D01*
X132978282Y-102478282D01*
X133074536Y-102352841D01*
X133135044Y-102206762D01*
X133144112Y-102137883D01*
X133148114Y-102107484D01*
X133151732Y-102080000D01*
X134450000Y-102080000D01*
X135950000Y-102080000D01*
X135950000Y-99630000D01*
X136450000Y-99630000D01*
X136450000Y-102080000D01*
X137949999Y-102080000D01*
X137949999Y-100330021D01*
X137939506Y-100227308D01*
X137884357Y-100060877D01*
X137792316Y-99911655D01*
X137792311Y-99911649D01*
X137668350Y-99787688D01*
X137668344Y-99787683D01*
X137519122Y-99695642D01*
X137352691Y-99640493D01*
X137249987Y-99630000D01*
X136450000Y-99630000D01*
X135950000Y-99630000D01*
X135150021Y-99630000D01*
X135047308Y-99640493D01*
X134880877Y-99695642D01*
X134731655Y-99787683D01*
X134731649Y-99787688D01*
X134607688Y-99911649D01*
X134607683Y-99911655D01*
X134515642Y-100060877D01*
X134460493Y-100227308D01*
X134450000Y-100330012D01*
X134450000Y-102080000D01*
X133151732Y-102080000D01*
X133155682Y-102050000D01*
X133155682Y-102049999D01*
X133151040Y-102014737D01*
X133150500Y-102006505D01*
X133150500Y-100413895D01*
X133170502Y-100345774D01*
X133175632Y-100338386D01*
X133189020Y-100320502D01*
X133243796Y-100247331D01*
X133294091Y-100112483D01*
X133300500Y-100052873D01*
X133300499Y-99007128D01*
X133294091Y-98947517D01*
X133257533Y-98849500D01*
X133243798Y-98812673D01*
X133243796Y-98812670D01*
X133243796Y-98812669D01*
X133191141Y-98742331D01*
X133175632Y-98721613D01*
X133150821Y-98655093D01*
X133150500Y-98646104D01*
X133150500Y-98493494D01*
X133151040Y-98485262D01*
X133155682Y-98450000D01*
X133135044Y-98293238D01*
X133074536Y-98147159D01*
X133034673Y-98095209D01*
X132978282Y-98021718D01*
X132978280Y-98021716D01*
X132978279Y-98021715D01*
X132950055Y-98000058D01*
X132943861Y-97994626D01*
X132725570Y-97776335D01*
X132691545Y-97714024D01*
X132696610Y-97643209D01*
X132739157Y-97586373D01*
X132770631Y-97569186D01*
X132892331Y-97523796D01*
X133007546Y-97437546D01*
X133093796Y-97322331D01*
X133144091Y-97187483D01*
X133150500Y-97127873D01*
X133150499Y-96332128D01*
X133144091Y-96272517D01*
X133117386Y-96200916D01*
X133093798Y-96137673D01*
X133093796Y-96137670D01*
X133093796Y-96137669D01*
X133044192Y-96071407D01*
X133007546Y-96022453D01*
X132915028Y-95953195D01*
X132892331Y-95936204D01*
X132892329Y-95936203D01*
X132892326Y-95936201D01*
X132757483Y-95885909D01*
X132757486Y-95885909D01*
X132697873Y-95879500D01*
X130902135Y-95879500D01*
X130902114Y-95879502D01*
X130842519Y-95885908D01*
X130842518Y-95885908D01*
X130707673Y-95936201D01*
X130707670Y-95936203D01*
X130592453Y-96022453D01*
X130506203Y-96137670D01*
X130506201Y-96137673D01*
X130455909Y-96272515D01*
X130449500Y-96332121D01*
X130449500Y-97127864D01*
X130449502Y-97127885D01*
X130455908Y-97187480D01*
X130455908Y-97187481D01*
X130506201Y-97322326D01*
X130506203Y-97322329D01*
X130592453Y-97437546D01*
X130599985Y-97443184D01*
X130707669Y-97523796D01*
X130707671Y-97523796D01*
X130707673Y-97523798D01*
X130768030Y-97546309D01*
X130842514Y-97574090D01*
X130842517Y-97574091D01*
X130902127Y-97580500D01*
X131068318Y-97580499D01*
X131136438Y-97600501D01*
X131182931Y-97654156D01*
X131191181Y-97692082D01*
X131193240Y-97691812D01*
X131199500Y-97739361D01*
X131214955Y-97856760D01*
X131273272Y-97997548D01*
X131275464Y-98002841D01*
X131294357Y-98027463D01*
X131369389Y-98125248D01*
X131371718Y-98128282D01*
X131399944Y-98149940D01*
X131406132Y-98155367D01*
X131463460Y-98212695D01*
X131506692Y-98255927D01*
X131540718Y-98318239D01*
X131535653Y-98389054D01*
X131493106Y-98445890D01*
X131426586Y-98470701D01*
X131357212Y-98455610D01*
X131351450Y-98452263D01*
X131219122Y-98370642D01*
X131052691Y-98315493D01*
X130949987Y-98305000D01*
X130900000Y-98305000D01*
X130900000Y-100754999D01*
X130949978Y-100754999D01*
X131052691Y-100744506D01*
X131219122Y-100689357D01*
X131368344Y-100597316D01*
X131368350Y-100597311D01*
X131492311Y-100473350D01*
X131492316Y-100473344D01*
X131584357Y-100324121D01*
X131613142Y-100237253D01*
X131653555Y-100178881D01*
X131719112Y-100151625D01*
X131788997Y-100164138D01*
X131841023Y-100212447D01*
X131850802Y-100232850D01*
X131856202Y-100247327D01*
X131856203Y-100247329D01*
X131856204Y-100247331D01*
X131910980Y-100320502D01*
X131924368Y-100338386D01*
X131949179Y-100404906D01*
X131949500Y-100413895D01*
X131949500Y-101749074D01*
X131929498Y-101817195D01*
X131912595Y-101838169D01*
X128005588Y-105745175D01*
X127943276Y-105779201D01*
X127872460Y-105774136D01*
X127815625Y-105731589D01*
X127798437Y-105700110D01*
X127793799Y-105687675D01*
X127793796Y-105687670D01*
X127793796Y-105687669D01*
X127737671Y-105612696D01*
X127707546Y-105572453D01*
X127627076Y-105512214D01*
X127592331Y-105486204D01*
X127592329Y-105486203D01*
X127592326Y-105486201D01*
X127457483Y-105435909D01*
X127457486Y-105435909D01*
X127397873Y-105429500D01*
X126202135Y-105429500D01*
X126202114Y-105429502D01*
X126142519Y-105435908D01*
X126142518Y-105435908D01*
X126007673Y-105486201D01*
X126007670Y-105486203D01*
X125921721Y-105550544D01*
X125855201Y-105575355D01*
X125785826Y-105560263D01*
X125769509Y-105549639D01*
X125672846Y-105475468D01*
X125672841Y-105475464D01*
X125626344Y-105456204D01*
X125526760Y-105414955D01*
X125520626Y-105414148D01*
X125519531Y-105414004D01*
X125519530Y-105414003D01*
X125370000Y-105394318D01*
X125369999Y-105394318D01*
X125334738Y-105398960D01*
X125326506Y-105399500D01*
X122886658Y-105399500D01*
X122840228Y-105388054D01*
X122839488Y-105390006D01*
X122832361Y-105387302D01*
X122678987Y-105349500D01*
X122678985Y-105349500D01*
X122521015Y-105349500D01*
X122521012Y-105349500D01*
X122367638Y-105387302D01*
X122367634Y-105387304D01*
X122227759Y-105460717D01*
X122109518Y-105565468D01*
X122109516Y-105565470D01*
X122019782Y-105695473D01*
X122019779Y-105695480D01*
X122007675Y-105727393D01*
X121978959Y-105771804D01*
X120406139Y-107344625D01*
X120399938Y-107350063D01*
X120371720Y-107371716D01*
X120314981Y-107445659D01*
X120314980Y-107445658D01*
X120275468Y-107497152D01*
X120275463Y-107497160D01*
X120214955Y-107643239D01*
X120194318Y-107799999D01*
X120194318Y-107800003D01*
X120198960Y-107835264D01*
X120199499Y-107843495D01*
X120199499Y-115356504D01*
X120198960Y-115364734D01*
X120194318Y-115400001D01*
X120198960Y-115435262D01*
X120199500Y-115443494D01*
X120199500Y-120856505D01*
X120198960Y-120864737D01*
X120194318Y-120899999D01*
X120194318Y-120900000D01*
X120199500Y-120939361D01*
X120214955Y-121056760D01*
X120275463Y-121202839D01*
X120275465Y-121202842D01*
X120360371Y-121313495D01*
X120371718Y-121328282D01*
X120399944Y-121349940D01*
X120406132Y-121355367D01*
X123844633Y-124793869D01*
X123850062Y-124800059D01*
X123871718Y-124828282D01*
X123903212Y-124852448D01*
X123903220Y-124852455D01*
X123930259Y-124873202D01*
X123997159Y-124924536D01*
X124143238Y-124985044D01*
X124300000Y-125005682D01*
X124300001Y-125005682D01*
X124335262Y-125001040D01*
X124343494Y-125000500D01*
X129856506Y-125000500D01*
X129864738Y-125001040D01*
X129899999Y-125005682D01*
X129900000Y-125005682D01*
X129900001Y-125005682D01*
X129935262Y-125001040D01*
X129943494Y-125000500D01*
X161613342Y-125000500D01*
X161659771Y-125011945D01*
X161660512Y-125009994D01*
X161667638Y-125012697D01*
X161744325Y-125031598D01*
X161821015Y-125050500D01*
X161821017Y-125050500D01*
X161978983Y-125050500D01*
X161978985Y-125050500D01*
X162132365Y-125012696D01*
X162132368Y-125012694D01*
X162139488Y-125009994D01*
X162140228Y-125011945D01*
X162186658Y-125000500D01*
X168360639Y-125000500D01*
X169676506Y-125000500D01*
X169684738Y-125001040D01*
X169719999Y-125005682D01*
X169720000Y-125005682D01*
X169720001Y-125005682D01*
X169755262Y-125001040D01*
X169763494Y-125000500D01*
X173956506Y-125000500D01*
X173964738Y-125001040D01*
X173999999Y-125005682D01*
X174000000Y-125005682D01*
X174156762Y-124985044D01*
X174302841Y-124924536D01*
X174325620Y-124907056D01*
X174369742Y-124873202D01*
X174428277Y-124828286D01*
X174428277Y-124828285D01*
X174428282Y-124828282D01*
X174449940Y-124800054D01*
X174455361Y-124793872D01*
X180893872Y-118355361D01*
X180900054Y-118349940D01*
X180928282Y-118328282D01*
X181024536Y-118202841D01*
X181085044Y-118056762D01*
X181100500Y-117939361D01*
X181105682Y-117900000D01*
X181105682Y-117899999D01*
X181101040Y-117864737D01*
X181100500Y-117856505D01*
X181100500Y-89343494D01*
X181101040Y-89335262D01*
X181105682Y-89300000D01*
X181105682Y-89299999D01*
X181085044Y-89143239D01*
X181048650Y-89055375D01*
X181024536Y-88997159D01*
X181008192Y-88975859D01*
X181008191Y-88975857D01*
X181008191Y-88975858D01*
X180928282Y-88871718D01*
X180915962Y-88862265D01*
X180900055Y-88850058D01*
X180893861Y-88844626D01*
X175699238Y-83650003D01*
X176394722Y-83650003D01*
X176413761Y-83806815D01*
X176432724Y-83856815D01*
X176469780Y-83954523D01*
X176469781Y-83954525D01*
X176469782Y-83954526D01*
X176469783Y-83954529D01*
X176559516Y-84084529D01*
X176559517Y-84084530D01*
X176677760Y-84189283D01*
X176817635Y-84262696D01*
X176817636Y-84262696D01*
X176817638Y-84262697D01*
X176894324Y-84281598D01*
X176971015Y-84300500D01*
X176971017Y-84300500D01*
X177128983Y-84300500D01*
X177128985Y-84300500D01*
X177282365Y-84262696D01*
X177422240Y-84189283D01*
X177422243Y-84189279D01*
X177428514Y-84184952D01*
X177430179Y-84187365D01*
X177482114Y-84162940D01*
X177552497Y-84172254D01*
X177590539Y-84198353D01*
X180398459Y-87006272D01*
X180415361Y-87027245D01*
X180417855Y-87031126D01*
X180417856Y-87031127D01*
X180417857Y-87031128D01*
X180451189Y-87060010D01*
X180457046Y-87065085D01*
X180460324Y-87068137D01*
X180463089Y-87070902D01*
X180477686Y-87088416D01*
X180509517Y-87134530D01*
X180627760Y-87239283D01*
X180767635Y-87312696D01*
X180767636Y-87312696D01*
X180767638Y-87312697D01*
X180776313Y-87314835D01*
X180921015Y-87350500D01*
X180921017Y-87350500D01*
X181078983Y-87350500D01*
X181078985Y-87350500D01*
X181232365Y-87312696D01*
X181372240Y-87239283D01*
X181490483Y-87134530D01*
X181580220Y-87004523D01*
X181636237Y-86856818D01*
X181636237Y-86856817D01*
X181636238Y-86856815D01*
X181655278Y-86700003D01*
X181655278Y-86699996D01*
X181636238Y-86543184D01*
X181619860Y-86500000D01*
X181580220Y-86395477D01*
X181580216Y-86395472D01*
X181580216Y-86395470D01*
X181490483Y-86265470D01*
X181490481Y-86265468D01*
X181372240Y-86160717D01*
X181232365Y-86087304D01*
X181232361Y-86087302D01*
X181078987Y-86049500D01*
X181078985Y-86049500D01*
X180921015Y-86049500D01*
X180913394Y-86049500D01*
X180913394Y-86047056D01*
X180855066Y-86037352D01*
X180820829Y-86013016D01*
X178151537Y-83343723D01*
X178134635Y-83322751D01*
X178132143Y-83318872D01*
X178128527Y-83315739D01*
X178092960Y-83284920D01*
X178089679Y-83281865D01*
X178078593Y-83270779D01*
X178066036Y-83261379D01*
X178062544Y-83258565D01*
X178025495Y-83226462D01*
X178023373Y-83224623D01*
X178023371Y-83224622D01*
X178023370Y-83224621D01*
X178023367Y-83224619D01*
X178019178Y-83222706D01*
X177996024Y-83208968D01*
X177992332Y-83206205D01*
X177992331Y-83206204D01*
X177970291Y-83197983D01*
X177943757Y-83188086D01*
X177939603Y-83186365D01*
X177892462Y-83164836D01*
X177892455Y-83164834D01*
X177887883Y-83164177D01*
X177861808Y-83157521D01*
X177857488Y-83155910D01*
X177857480Y-83155908D01*
X177805778Y-83152209D01*
X177801311Y-83151729D01*
X177785799Y-83149500D01*
X177770130Y-83149500D01*
X177765634Y-83149339D01*
X177713927Y-83145641D01*
X177713926Y-83145641D01*
X177709427Y-83146620D01*
X177682642Y-83149500D01*
X177513802Y-83149500D01*
X177445681Y-83129498D01*
X177430247Y-83117811D01*
X177427023Y-83114955D01*
X177422240Y-83110717D01*
X177422239Y-83110716D01*
X177282365Y-83037304D01*
X177282361Y-83037302D01*
X177128987Y-82999500D01*
X177128985Y-82999500D01*
X176971015Y-82999500D01*
X176971012Y-82999500D01*
X176817638Y-83037302D01*
X176817634Y-83037304D01*
X176677759Y-83110717D01*
X176559518Y-83215468D01*
X176559516Y-83215470D01*
X176469783Y-83345470D01*
X176469782Y-83345473D01*
X176413761Y-83493184D01*
X176394722Y-83649996D01*
X176394722Y-83650003D01*
X175699238Y-83650003D01*
X175355367Y-83306132D01*
X175349940Y-83299944D01*
X175328282Y-83271718D01*
X175328280Y-83271717D01*
X175328280Y-83271716D01*
X175219290Y-83188086D01*
X175202841Y-83175464D01*
X175181459Y-83166607D01*
X175056760Y-83114955D01*
X174939361Y-83099500D01*
X174900000Y-83094318D01*
X174899999Y-83094318D01*
X174864738Y-83098960D01*
X174856506Y-83099500D01*
X173586658Y-83099500D01*
X173540228Y-83088054D01*
X173539488Y-83090006D01*
X173532361Y-83087302D01*
X173378987Y-83049500D01*
X173378985Y-83049500D01*
X173221015Y-83049500D01*
X173221012Y-83049500D01*
X173067638Y-83087302D01*
X173067634Y-83087304D01*
X172927759Y-83160717D01*
X172809518Y-83265468D01*
X172809516Y-83265470D01*
X172719783Y-83395470D01*
X172719782Y-83395473D01*
X172663761Y-83543184D01*
X172644722Y-83699996D01*
X172644722Y-83700003D01*
X172663761Y-83856815D01*
X172691771Y-83930670D01*
X172719780Y-84004523D01*
X172719781Y-84004525D01*
X172719782Y-84004526D01*
X172719783Y-84004529D01*
X172801972Y-84123599D01*
X172809517Y-84134530D01*
X172927760Y-84239283D01*
X173067635Y-84312696D01*
X173067636Y-84312696D01*
X173067638Y-84312697D01*
X173144324Y-84331598D01*
X173221015Y-84350500D01*
X173221017Y-84350500D01*
X173378983Y-84350500D01*
X173378985Y-84350500D01*
X173532365Y-84312696D01*
X173532368Y-84312694D01*
X173539488Y-84309994D01*
X173540228Y-84311945D01*
X173586658Y-84300500D01*
X174599075Y-84300500D01*
X174667196Y-84320502D01*
X174688170Y-84337405D01*
X179618464Y-89267699D01*
X179652490Y-89330011D01*
X179647425Y-89400826D01*
X179604878Y-89457662D01*
X179538358Y-89482473D01*
X179499216Y-89479133D01*
X179378988Y-89449500D01*
X179378985Y-89449500D01*
X179221015Y-89449500D01*
X179221012Y-89449500D01*
X179067638Y-89487302D01*
X179067634Y-89487304D01*
X178927759Y-89560717D01*
X178809518Y-89665468D01*
X178809516Y-89665470D01*
X178719783Y-89795470D01*
X178719782Y-89795473D01*
X178719781Y-89795475D01*
X178719780Y-89795477D01*
X178714712Y-89808840D01*
X178663761Y-89943184D01*
X178644722Y-90099996D01*
X178644722Y-90100003D01*
X178663762Y-90256816D01*
X178719778Y-90404518D01*
X178719782Y-90404526D01*
X178777196Y-90487704D01*
X178799432Y-90555129D01*
X178799500Y-90559280D01*
X178799500Y-91140495D01*
X178779498Y-91208616D01*
X178762599Y-91229585D01*
X178403864Y-91588321D01*
X178063913Y-91928272D01*
X178001601Y-91962297D01*
X177930785Y-91957232D01*
X177873950Y-91914685D01*
X177849737Y-91854363D01*
X177836238Y-91743184D01*
X177827636Y-91720502D01*
X177780220Y-91595477D01*
X177780216Y-91595472D01*
X177780216Y-91595470D01*
X177690483Y-91465470D01*
X177690481Y-91465468D01*
X177572240Y-91360717D01*
X177432365Y-91287304D01*
X177432361Y-91287302D01*
X177284329Y-91250817D01*
X177225387Y-91217573D01*
X177201537Y-91193723D01*
X177184635Y-91172751D01*
X177182143Y-91168872D01*
X177180077Y-91167082D01*
X177142960Y-91134920D01*
X177139679Y-91131865D01*
X177128593Y-91120779D01*
X177116036Y-91111379D01*
X177112544Y-91108565D01*
X177109479Y-91105909D01*
X177073373Y-91074623D01*
X177073371Y-91074622D01*
X177073370Y-91074621D01*
X177073367Y-91074619D01*
X177069178Y-91072706D01*
X177046024Y-91058968D01*
X177042332Y-91056205D01*
X177042331Y-91056204D01*
X177020291Y-91047983D01*
X176993757Y-91038086D01*
X176989603Y-91036365D01*
X176942462Y-91014836D01*
X176942455Y-91014834D01*
X176937883Y-91014177D01*
X176911808Y-91007521D01*
X176907488Y-91005910D01*
X176907480Y-91005908D01*
X176855778Y-91002209D01*
X176851311Y-91001729D01*
X176835799Y-90999500D01*
X176820130Y-90999500D01*
X176815634Y-90999339D01*
X176763927Y-90995641D01*
X176763926Y-90995641D01*
X176759427Y-90996620D01*
X176732642Y-90999500D01*
X174571819Y-90999500D01*
X174503698Y-90979498D01*
X174457205Y-90925842D01*
X174447101Y-90855568D01*
X174476595Y-90790988D01*
X174535243Y-90752926D01*
X174614721Y-90728816D01*
X174614722Y-90728815D01*
X174614727Y-90728814D01*
X174788538Y-90635910D01*
X174940883Y-90510883D01*
X175065910Y-90358538D01*
X175158814Y-90184727D01*
X175216024Y-89996132D01*
X175218447Y-89971531D01*
X175235341Y-89800003D01*
X175235341Y-89799996D01*
X175216025Y-89603875D01*
X175216025Y-89603873D01*
X175216024Y-89603870D01*
X175216024Y-89603868D01*
X175158814Y-89415273D01*
X175151650Y-89401871D01*
X175140446Y-89380909D01*
X175065910Y-89241462D01*
X174940883Y-89089117D01*
X174788538Y-88964090D01*
X174743849Y-88940203D01*
X174614728Y-88871186D01*
X174426125Y-88813974D01*
X174230003Y-88794659D01*
X174229997Y-88794659D01*
X174033875Y-88813974D01*
X174033873Y-88813974D01*
X173845271Y-88871186D01*
X173671461Y-88964090D01*
X173519117Y-89089117D01*
X173394090Y-89241461D01*
X173337622Y-89347106D01*
X173287870Y-89397754D01*
X173218633Y-89413464D01*
X173151894Y-89389248D01*
X173108842Y-89332794D01*
X173100500Y-89287710D01*
X173100500Y-86267357D01*
X173103379Y-86240576D01*
X173104359Y-86236073D01*
X173102214Y-86206084D01*
X173100661Y-86184363D01*
X173100500Y-86179867D01*
X173100500Y-86164201D01*
X173099999Y-86160717D01*
X173098264Y-86148657D01*
X173097788Y-86144216D01*
X173094091Y-86092520D01*
X173094091Y-86092517D01*
X173092481Y-86088202D01*
X173085821Y-86062107D01*
X173085165Y-86057543D01*
X173063624Y-86010376D01*
X173061910Y-86006237D01*
X173059397Y-85999500D01*
X173051938Y-85979498D01*
X173043798Y-85957672D01*
X173043796Y-85957669D01*
X173041031Y-85953975D01*
X173027289Y-85930814D01*
X173025377Y-85926627D01*
X172991435Y-85887456D01*
X172988620Y-85883963D01*
X172979221Y-85871407D01*
X172968131Y-85860317D01*
X172965078Y-85857038D01*
X172958546Y-85849500D01*
X172931128Y-85817857D01*
X172931127Y-85817856D01*
X172927246Y-85815362D01*
X172906275Y-85798461D01*
X169557814Y-82450000D01*
X178544357Y-82450000D01*
X178564808Y-82696810D01*
X178564893Y-82697828D01*
X178625935Y-82938877D01*
X178625938Y-82938884D01*
X178725826Y-83166606D01*
X178861835Y-83374785D01*
X179030249Y-83557732D01*
X179030254Y-83557736D01*
X179030256Y-83557738D01*
X179226490Y-83710473D01*
X179226491Y-83710474D01*
X179445190Y-83828828D01*
X179445192Y-83828829D01*
X179526713Y-83856815D01*
X179680386Y-83909571D01*
X179925665Y-83950500D01*
X179925669Y-83950500D01*
X180174331Y-83950500D01*
X180174335Y-83950500D01*
X180419614Y-83909571D01*
X180654810Y-83828828D01*
X180873509Y-83710474D01*
X181069744Y-83557738D01*
X181122436Y-83500500D01*
X181238164Y-83374785D01*
X181272163Y-83322745D01*
X181374173Y-83166607D01*
X181474063Y-82938881D01*
X181535108Y-82697821D01*
X181555643Y-82450000D01*
X181535108Y-82202179D01*
X181526674Y-82168874D01*
X181474064Y-81961122D01*
X181474061Y-81961115D01*
X181374173Y-81733393D01*
X181238164Y-81525214D01*
X181069750Y-81342267D01*
X180873509Y-81189526D01*
X180873508Y-81189525D01*
X180654809Y-81071171D01*
X180654807Y-81071170D01*
X180419618Y-80990430D01*
X180419609Y-80990428D01*
X180370836Y-80982289D01*
X180174335Y-80949500D01*
X179925665Y-80949500D01*
X179761952Y-80976818D01*
X179680390Y-80990428D01*
X179680381Y-80990430D01*
X179445192Y-81071170D01*
X179445190Y-81071171D01*
X179226491Y-81189525D01*
X179226490Y-81189526D01*
X179030249Y-81342267D01*
X178861835Y-81525214D01*
X178725826Y-81733393D01*
X178625938Y-81961115D01*
X178625935Y-81961122D01*
X178564893Y-82202171D01*
X178564892Y-82202177D01*
X178564892Y-82202179D01*
X178544357Y-82450000D01*
X169557814Y-82450000D01*
X169301537Y-82193723D01*
X169284635Y-82172751D01*
X169282143Y-82168872D01*
X169242959Y-82134919D01*
X169239679Y-82131865D01*
X169228593Y-82120779D01*
X169216036Y-82111379D01*
X169212544Y-82108565D01*
X169173373Y-82074623D01*
X169173371Y-82074622D01*
X169173370Y-82074621D01*
X169173367Y-82074619D01*
X169169178Y-82072706D01*
X169146024Y-82058968D01*
X169142332Y-82056205D01*
X169142331Y-82056204D01*
X169120291Y-82047983D01*
X169093757Y-82038086D01*
X169089603Y-82036365D01*
X169042462Y-82014836D01*
X169042455Y-82014834D01*
X169037883Y-82014177D01*
X169011808Y-82007521D01*
X169007488Y-82005910D01*
X169007480Y-82005908D01*
X168955778Y-82002209D01*
X168951311Y-82001729D01*
X168935799Y-81999500D01*
X168920130Y-81999500D01*
X168915634Y-81999339D01*
X168863927Y-81995641D01*
X168863926Y-81995641D01*
X168859427Y-81996620D01*
X168832642Y-81999500D01*
X151967358Y-81999500D01*
X151940573Y-81996620D01*
X151936073Y-81995641D01*
X151936072Y-81995641D01*
X151884366Y-81999339D01*
X151879870Y-81999500D01*
X151864201Y-81999500D01*
X151848690Y-82001729D01*
X151844223Y-82002209D01*
X151792516Y-82005909D01*
X151792512Y-82005909D01*
X151788186Y-82007523D01*
X151762117Y-82014176D01*
X151757548Y-82014833D01*
X151757544Y-82014834D01*
X151710389Y-82036369D01*
X151706244Y-82038086D01*
X151699862Y-82040466D01*
X151657670Y-82056202D01*
X151657665Y-82056205D01*
X151653969Y-82058972D01*
X151630824Y-82072705D01*
X151626628Y-82074621D01*
X151587446Y-82108571D01*
X151583948Y-82111390D01*
X151571405Y-82120780D01*
X151560327Y-82131858D01*
X151557039Y-82134919D01*
X151517858Y-82168870D01*
X151517854Y-82168874D01*
X151515358Y-82172759D01*
X151498461Y-82193724D01*
X148693721Y-84998463D01*
X148672758Y-85015359D01*
X148668873Y-85017856D01*
X148668868Y-85017859D01*
X148634925Y-85057031D01*
X148631866Y-85060317D01*
X148620778Y-85071408D01*
X148620775Y-85071411D01*
X148611384Y-85083955D01*
X148608564Y-85087454D01*
X148574623Y-85126625D01*
X148572709Y-85130818D01*
X148558969Y-85153975D01*
X148556202Y-85157670D01*
X148538090Y-85206234D01*
X148536369Y-85210389D01*
X148514834Y-85257544D01*
X148514833Y-85257548D01*
X148514176Y-85262117D01*
X148507523Y-85288186D01*
X148505909Y-85292512D01*
X148505909Y-85292516D01*
X148502209Y-85344223D01*
X148501729Y-85348690D01*
X148499500Y-85364201D01*
X148499500Y-85379867D01*
X148499339Y-85384363D01*
X148495989Y-85431201D01*
X148495641Y-85436073D01*
X148496620Y-85440576D01*
X148499500Y-85467357D01*
X148499500Y-87732640D01*
X148496621Y-87759420D01*
X148495641Y-87763923D01*
X148495641Y-87763928D01*
X148499339Y-87815634D01*
X148499500Y-87820130D01*
X148499500Y-87835799D01*
X148501729Y-87851311D01*
X148502209Y-87855778D01*
X148505908Y-87907480D01*
X148505910Y-87907488D01*
X148507521Y-87911808D01*
X148514177Y-87937883D01*
X148514834Y-87942455D01*
X148514836Y-87942462D01*
X148536365Y-87989603D01*
X148538086Y-87993757D01*
X148547076Y-88017857D01*
X148556204Y-88042331D01*
X148556205Y-88042332D01*
X148558968Y-88046024D01*
X148572706Y-88069178D01*
X148574619Y-88073367D01*
X148574621Y-88073370D01*
X148574622Y-88073371D01*
X148574623Y-88073373D01*
X148606014Y-88109600D01*
X148608565Y-88112544D01*
X148611379Y-88116036D01*
X148620779Y-88128593D01*
X148631865Y-88139679D01*
X148634919Y-88142959D01*
X148668872Y-88182143D01*
X148672751Y-88184635D01*
X148693723Y-88201537D01*
X148910961Y-88418775D01*
X148927862Y-88439746D01*
X148930356Y-88443627D01*
X148969538Y-88477578D01*
X148972817Y-88480631D01*
X148983907Y-88491721D01*
X148996463Y-88501120D01*
X148999956Y-88503935D01*
X149039127Y-88537877D01*
X149043314Y-88539789D01*
X149066475Y-88553531D01*
X149070169Y-88556296D01*
X149070172Y-88556298D01*
X149094766Y-88565470D01*
X149118746Y-88574414D01*
X149122876Y-88576124D01*
X149170043Y-88597665D01*
X149174607Y-88598321D01*
X149200702Y-88604981D01*
X149205017Y-88606591D01*
X149256728Y-88610289D01*
X149261157Y-88610764D01*
X149276701Y-88613000D01*
X149292370Y-88613000D01*
X149296866Y-88613161D01*
X149313047Y-88614317D01*
X149348573Y-88616859D01*
X149353073Y-88615879D01*
X149379858Y-88613000D01*
X149839891Y-88613000D01*
X149908012Y-88633002D01*
X149940757Y-88663488D01*
X149992454Y-88732546D01*
X150107669Y-88818796D01*
X150107671Y-88818796D01*
X150107673Y-88818798D01*
X150168030Y-88841309D01*
X150242514Y-88869090D01*
X150242517Y-88869091D01*
X150302127Y-88875500D01*
X151297872Y-88875499D01*
X151357483Y-88869091D01*
X151492331Y-88818796D01*
X151607546Y-88732546D01*
X151693796Y-88617331D01*
X151693973Y-88616858D01*
X151713139Y-88565470D01*
X151744091Y-88482483D01*
X151750500Y-88422873D01*
X151750499Y-87802128D01*
X151744091Y-87742517D01*
X151719084Y-87675469D01*
X151693798Y-87607673D01*
X151693796Y-87607670D01*
X151693796Y-87607669D01*
X151639216Y-87534759D01*
X151607546Y-87492453D01*
X151511802Y-87420780D01*
X151492331Y-87406204D01*
X151492329Y-87406203D01*
X151492326Y-87406201D01*
X151357483Y-87355909D01*
X151357486Y-87355909D01*
X151297873Y-87349500D01*
X150302135Y-87349500D01*
X150302114Y-87349502D01*
X150242519Y-87355908D01*
X150242518Y-87355908D01*
X150107673Y-87406201D01*
X150107670Y-87406203D01*
X149992455Y-87492452D01*
X149940759Y-87561510D01*
X149883923Y-87604056D01*
X149839891Y-87612000D01*
X149626500Y-87612000D01*
X149558379Y-87591998D01*
X149511886Y-87538342D01*
X149500500Y-87486000D01*
X149500500Y-86597864D01*
X149849500Y-86597864D01*
X149849502Y-86597885D01*
X149855908Y-86657480D01*
X149855908Y-86657481D01*
X149906201Y-86792326D01*
X149906203Y-86792329D01*
X149906204Y-86792331D01*
X149934845Y-86830591D01*
X149992453Y-86907546D01*
X150028500Y-86934530D01*
X150107669Y-86993796D01*
X150107671Y-86993796D01*
X150107673Y-86993798D01*
X150156171Y-87011886D01*
X150242514Y-87044090D01*
X150242517Y-87044091D01*
X150302127Y-87050500D01*
X151297872Y-87050499D01*
X151357483Y-87044091D01*
X151492331Y-86993796D01*
X151607546Y-86907546D01*
X151607547Y-86907544D01*
X151607549Y-86907543D01*
X151613919Y-86901174D01*
X151616329Y-86903584D01*
X151659934Y-86870943D01*
X151703964Y-86863000D01*
X152700468Y-86863000D01*
X152757670Y-86876732D01*
X152799696Y-86898146D01*
X152893481Y-86913000D01*
X154028652Y-86912999D01*
X154096773Y-86933001D01*
X154143266Y-86986657D01*
X154152883Y-87053548D01*
X154153405Y-87053590D01*
X154153222Y-87055906D01*
X154153370Y-87056931D01*
X154152929Y-87059630D01*
X154152703Y-87062500D01*
X155137500Y-87062500D01*
X155137500Y-86512500D01*
X155637500Y-86512500D01*
X155637500Y-87062500D01*
X156622296Y-87062500D01*
X156622100Y-87060010D01*
X156576280Y-86902297D01*
X156492685Y-86760947D01*
X156492680Y-86760940D01*
X156376559Y-86644819D01*
X156376552Y-86644814D01*
X156235202Y-86561219D01*
X156077489Y-86515399D01*
X156040650Y-86512500D01*
X155637500Y-86512500D01*
X155137500Y-86512500D01*
X154734350Y-86512500D01*
X154697512Y-86515399D01*
X154661650Y-86525818D01*
X154590654Y-86525614D01*
X154531038Y-86487059D01*
X154501731Y-86422393D01*
X154500499Y-86404828D01*
X154500499Y-86180982D01*
X154485646Y-86087196D01*
X154444395Y-86006237D01*
X154428050Y-85974157D01*
X154338342Y-85884449D01*
X154262502Y-85845807D01*
X154225304Y-85826854D01*
X154131519Y-85812000D01*
X154131515Y-85812000D01*
X152893483Y-85812000D01*
X152799697Y-85826853D01*
X152757671Y-85848267D01*
X152700468Y-85862000D01*
X151810868Y-85862000D01*
X151742747Y-85841998D01*
X151698167Y-85790550D01*
X151698115Y-85790579D01*
X151697983Y-85790337D01*
X151696254Y-85788342D01*
X151694245Y-85783492D01*
X151693796Y-85782670D01*
X151693796Y-85782669D01*
X151637812Y-85707884D01*
X151607546Y-85667453D01*
X151505927Y-85591382D01*
X151492331Y-85581204D01*
X151492329Y-85581203D01*
X151492326Y-85581201D01*
X151357483Y-85530909D01*
X151357486Y-85530909D01*
X151297873Y-85524500D01*
X150302135Y-85524500D01*
X150302114Y-85524502D01*
X150242519Y-85530908D01*
X150242518Y-85530908D01*
X150107673Y-85581201D01*
X150107670Y-85581203D01*
X149992453Y-85667453D01*
X149906203Y-85782670D01*
X149906201Y-85782673D01*
X149855909Y-85917515D01*
X149849500Y-85977121D01*
X149849500Y-86597864D01*
X149500500Y-86597864D01*
X149500500Y-85659503D01*
X149520502Y-85591382D01*
X149537405Y-85570408D01*
X152070408Y-83037405D01*
X152132720Y-83003379D01*
X152159503Y-83000500D01*
X165153993Y-83000500D01*
X165222114Y-83020502D01*
X165268607Y-83074158D01*
X165278711Y-83144432D01*
X165249217Y-83209012D01*
X165230697Y-83226462D01*
X165171719Y-83271717D01*
X165171716Y-83271720D01*
X165150063Y-83299938D01*
X165144625Y-83306139D01*
X164106139Y-84344625D01*
X164099938Y-84350063D01*
X164071719Y-84371717D01*
X163975320Y-84497346D01*
X163974673Y-84499065D01*
X163914956Y-84643237D01*
X163894318Y-84799999D01*
X163894318Y-84800000D01*
X163898960Y-84835262D01*
X163899500Y-84843494D01*
X163899500Y-88556505D01*
X163898960Y-88564737D01*
X163894318Y-88599999D01*
X163894318Y-88600000D01*
X163899500Y-88639361D01*
X163914955Y-88756760D01*
X163975463Y-88902839D01*
X163975465Y-88902842D01*
X164050016Y-89000000D01*
X164071718Y-89028282D01*
X164099944Y-89049940D01*
X164106132Y-89055367D01*
X164791484Y-89740719D01*
X165462595Y-90411830D01*
X165496621Y-90474142D01*
X165499500Y-90500925D01*
X165499500Y-92456505D01*
X165498960Y-92464737D01*
X165494707Y-92497042D01*
X165494318Y-92500000D01*
X165511101Y-92627483D01*
X165514956Y-92656762D01*
X165530559Y-92694432D01*
X165541919Y-92721856D01*
X165549508Y-92792445D01*
X165517729Y-92855933D01*
X165456671Y-92892160D01*
X165434501Y-92895753D01*
X165384367Y-92899339D01*
X165379870Y-92899500D01*
X165364201Y-92899500D01*
X165348690Y-92901729D01*
X165344223Y-92902209D01*
X165292516Y-92905909D01*
X165292512Y-92905909D01*
X165288186Y-92907523D01*
X165262117Y-92914176D01*
X165257548Y-92914833D01*
X165257544Y-92914834D01*
X165210389Y-92936369D01*
X165206239Y-92938087D01*
X165199862Y-92940466D01*
X165157670Y-92956202D01*
X165153975Y-92958969D01*
X165130819Y-92972707D01*
X165129969Y-92973096D01*
X165126625Y-92974623D01*
X165087454Y-93008564D01*
X165083955Y-93011384D01*
X165071411Y-93020775D01*
X165071408Y-93020778D01*
X165060317Y-93031866D01*
X165057031Y-93034925D01*
X165017859Y-93068868D01*
X165017856Y-93068873D01*
X165015361Y-93072755D01*
X164998465Y-93093718D01*
X164766904Y-93325279D01*
X164704592Y-93359305D01*
X164633777Y-93354240D01*
X164576941Y-93311693D01*
X164552130Y-93245173D01*
X164552727Y-93221003D01*
X164555278Y-93200000D01*
X164554466Y-93193312D01*
X164536238Y-93043184D01*
X164509510Y-92972709D01*
X164480220Y-92895477D01*
X164477930Y-92892160D01*
X164422804Y-92812295D01*
X164400568Y-92744870D01*
X164400500Y-92740719D01*
X164400500Y-90467357D01*
X164403379Y-90440576D01*
X164404359Y-90436073D01*
X164402102Y-90404518D01*
X164400661Y-90384363D01*
X164400500Y-90379867D01*
X164400500Y-90364201D01*
X164400500Y-90364200D01*
X164398264Y-90348657D01*
X164397788Y-90344216D01*
X164394949Y-90304523D01*
X164394091Y-90292517D01*
X164392481Y-90288202D01*
X164385821Y-90262107D01*
X164385165Y-90257543D01*
X164363624Y-90210376D01*
X164361910Y-90206237D01*
X164359582Y-90199996D01*
X164353888Y-90184727D01*
X164343798Y-90157672D01*
X164343159Y-90156818D01*
X164341031Y-90153975D01*
X164327289Y-90130814D01*
X164325377Y-90126627D01*
X164291435Y-90087456D01*
X164288620Y-90083963D01*
X164279221Y-90071407D01*
X164268131Y-90060317D01*
X164265078Y-90057038D01*
X164253120Y-90043238D01*
X164231128Y-90017857D01*
X164231127Y-90017856D01*
X164227246Y-90015362D01*
X164206275Y-89998461D01*
X163178762Y-88970948D01*
X163144736Y-88908636D01*
X163142778Y-88897059D01*
X163136237Y-88843182D01*
X163080220Y-88695477D01*
X163080216Y-88695472D01*
X163080216Y-88695470D01*
X162990483Y-88565470D01*
X162990481Y-88565468D01*
X162872240Y-88460717D01*
X162732365Y-88387304D01*
X162732361Y-88387302D01*
X162578987Y-88349500D01*
X162578985Y-88349500D01*
X162421015Y-88349500D01*
X162421012Y-88349500D01*
X162267638Y-88387302D01*
X162267634Y-88387304D01*
X162127759Y-88460717D01*
X162009518Y-88565468D01*
X162009516Y-88565470D01*
X161919783Y-88695470D01*
X161919782Y-88695473D01*
X161863761Y-88843184D01*
X161844722Y-88999996D01*
X161844722Y-89000003D01*
X161863761Y-89156815D01*
X161867387Y-89166375D01*
X161919780Y-89304523D01*
X161919781Y-89304525D01*
X161919782Y-89304526D01*
X161919783Y-89304529D01*
X162007221Y-89431204D01*
X162009517Y-89434530D01*
X162127760Y-89539283D01*
X162267635Y-89612696D01*
X162415671Y-89649183D01*
X162474612Y-89682426D01*
X163362595Y-90570409D01*
X163396621Y-90632721D01*
X163399500Y-90659504D01*
X163399500Y-91216435D01*
X163379498Y-91284556D01*
X163325842Y-91331049D01*
X163255568Y-91341153D01*
X163190988Y-91311659D01*
X163168735Y-91286436D01*
X163120602Y-91214400D01*
X163114075Y-91210039D01*
X163061071Y-91174623D01*
X163037739Y-91159033D01*
X162964677Y-91144500D01*
X162964674Y-91144500D01*
X161956612Y-91144500D01*
X161888491Y-91124498D01*
X161867517Y-91107596D01*
X160937018Y-90177098D01*
X160935905Y-90175956D01*
X160913539Y-90152428D01*
X160875059Y-90111947D01*
X160857899Y-90100003D01*
X160824742Y-90076925D01*
X160820918Y-90074042D01*
X160773410Y-90035304D01*
X160773408Y-90035303D01*
X160773407Y-90035302D01*
X160743008Y-90019422D01*
X160736190Y-90015291D01*
X160708053Y-89995707D01*
X160708050Y-89995705D01*
X160708049Y-89995705D01*
X160651696Y-89971521D01*
X160647390Y-89969476D01*
X160593060Y-89941096D01*
X160593054Y-89941093D01*
X160593049Y-89941091D01*
X160560082Y-89931657D01*
X160552569Y-89928982D01*
X160521063Y-89915461D01*
X160521059Y-89915460D01*
X160461004Y-89903117D01*
X160456356Y-89901976D01*
X160416416Y-89890549D01*
X160397418Y-89885113D01*
X160397413Y-89885112D01*
X160397410Y-89885112D01*
X160363223Y-89882508D01*
X160355321Y-89881400D01*
X160340969Y-89878451D01*
X160321741Y-89874500D01*
X160321739Y-89874500D01*
X160260438Y-89874500D01*
X160255656Y-89874318D01*
X160215466Y-89871257D01*
X160194525Y-89869663D01*
X160194517Y-89869663D01*
X160175853Y-89872040D01*
X160160503Y-89873995D01*
X160152547Y-89874500D01*
X159668773Y-89874500D01*
X159600652Y-89854498D01*
X159554159Y-89800842D01*
X159547047Y-89774921D01*
X159545905Y-89775192D01*
X159544091Y-89767518D01*
X159535550Y-89744619D01*
X159506030Y-89665470D01*
X159493798Y-89632673D01*
X159493796Y-89632670D01*
X159493796Y-89632669D01*
X159430963Y-89548735D01*
X159407546Y-89517453D01*
X159316771Y-89449500D01*
X159292331Y-89431204D01*
X159292329Y-89431203D01*
X159292326Y-89431201D01*
X159157483Y-89380909D01*
X159157486Y-89380909D01*
X159097873Y-89374500D01*
X157702135Y-89374500D01*
X157702111Y-89374502D01*
X157643997Y-89380749D01*
X157574129Y-89368142D01*
X157522168Y-89319763D01*
X157504611Y-89250971D01*
X157527034Y-89183608D01*
X157541425Y-89166387D01*
X158295411Y-88412401D01*
X158357721Y-88378378D01*
X158384504Y-88375499D01*
X159097865Y-88375499D01*
X159097872Y-88375499D01*
X159157483Y-88369091D01*
X159292331Y-88318796D01*
X159407546Y-88232546D01*
X159493796Y-88117331D01*
X159495582Y-88112544D01*
X159505572Y-88085757D01*
X159544091Y-87982483D01*
X159544091Y-87982475D01*
X159545903Y-87974814D01*
X159548695Y-87975473D01*
X159570660Y-87922443D01*
X159628976Y-87881950D01*
X159668772Y-87875500D01*
X159946470Y-87875500D01*
X159948065Y-87875520D01*
X159963179Y-87875902D01*
X160036363Y-87877757D01*
X160083758Y-87869261D01*
X160096708Y-87866941D01*
X160101451Y-87866276D01*
X160119536Y-87864436D01*
X160162438Y-87860074D01*
X160195153Y-87849809D01*
X160202904Y-87847907D01*
X160207986Y-87846995D01*
X160236653Y-87841858D01*
X160293610Y-87819106D01*
X160298071Y-87817518D01*
X160356588Y-87799159D01*
X160386590Y-87782505D01*
X160393762Y-87779100D01*
X160425617Y-87766377D01*
X160461817Y-87742519D01*
X160476807Y-87732640D01*
X160480904Y-87730158D01*
X160494337Y-87722702D01*
X160534502Y-87700409D01*
X160560525Y-87678067D01*
X160566882Y-87673273D01*
X160595519Y-87654402D01*
X160638890Y-87611029D01*
X160642364Y-87607810D01*
X160688895Y-87567866D01*
X160709888Y-87540743D01*
X160715152Y-87534767D01*
X161872516Y-86377403D01*
X161934826Y-86343379D01*
X161950612Y-86340981D01*
X162075408Y-86330063D01*
X162303663Y-86268903D01*
X162517830Y-86169035D01*
X162711401Y-86033495D01*
X162878495Y-85866401D01*
X163014035Y-85672830D01*
X163113903Y-85458663D01*
X163175063Y-85230408D01*
X163195659Y-84995000D01*
X163175063Y-84759592D01*
X163113903Y-84531337D01*
X163014035Y-84317171D01*
X163014034Y-84317170D01*
X163014033Y-84317167D01*
X162878501Y-84123607D01*
X162878498Y-84123603D01*
X162878495Y-84123599D01*
X162711401Y-83956505D01*
X162708570Y-83954523D01*
X162517830Y-83820965D01*
X162303665Y-83721098D01*
X162303661Y-83721096D01*
X162075411Y-83659937D01*
X161898852Y-83644490D01*
X161840000Y-83639341D01*
X161839999Y-83639341D01*
X161604588Y-83659937D01*
X161376338Y-83721096D01*
X161376334Y-83721098D01*
X161162167Y-83820966D01*
X160968607Y-83956498D01*
X160968596Y-83956507D01*
X160801507Y-84123596D01*
X160801498Y-84123607D01*
X160665966Y-84317167D01*
X160566098Y-84531334D01*
X160566095Y-84531341D01*
X160504935Y-84759598D01*
X160494019Y-84884369D01*
X160468156Y-84950488D01*
X160457595Y-84962482D01*
X159712194Y-85707884D01*
X159649881Y-85741909D01*
X159579066Y-85736845D01*
X159522230Y-85694298D01*
X159505042Y-85662820D01*
X159493798Y-85632673D01*
X159493796Y-85632670D01*
X159493796Y-85632669D01*
X159447187Y-85570408D01*
X159407546Y-85517453D01*
X159298831Y-85436070D01*
X159292331Y-85431204D01*
X159292329Y-85431203D01*
X159292326Y-85431201D01*
X159157483Y-85380909D01*
X159157486Y-85380909D01*
X159097873Y-85374500D01*
X157702135Y-85374500D01*
X157702114Y-85374502D01*
X157642519Y-85380908D01*
X157642518Y-85380908D01*
X157507673Y-85431201D01*
X157507670Y-85431203D01*
X157392453Y-85517453D01*
X157306203Y-85632670D01*
X157306201Y-85632673D01*
X157255909Y-85767515D01*
X157249500Y-85827121D01*
X157249500Y-87922864D01*
X157249502Y-87922890D01*
X157254686Y-87971120D01*
X157242079Y-88040988D01*
X157218504Y-88073680D01*
X156829591Y-88462595D01*
X156767279Y-88496620D01*
X156740495Y-88499500D01*
X154626500Y-88499500D01*
X154558379Y-88479498D01*
X154511886Y-88425842D01*
X154500500Y-88373501D01*
X154500500Y-88299074D01*
X154500499Y-88220178D01*
X154520501Y-88152059D01*
X154574156Y-88105566D01*
X154644430Y-88095461D01*
X154661653Y-88099182D01*
X154697513Y-88109600D01*
X154697510Y-88109600D01*
X154734348Y-88112499D01*
X154734351Y-88112500D01*
X155137500Y-88112500D01*
X155137500Y-87562500D01*
X155637500Y-87562500D01*
X155637500Y-88112500D01*
X156040649Y-88112500D01*
X156040651Y-88112499D01*
X156077489Y-88109600D01*
X156235202Y-88063780D01*
X156376552Y-87980185D01*
X156376559Y-87980180D01*
X156492680Y-87864059D01*
X156492685Y-87864052D01*
X156576280Y-87722702D01*
X156622100Y-87564989D01*
X156622296Y-87562500D01*
X155637500Y-87562500D01*
X155137500Y-87562500D01*
X154152704Y-87562500D01*
X154153405Y-87571410D01*
X154151744Y-87571540D01*
X154145157Y-87633984D01*
X154100720Y-87689354D01*
X154033402Y-87711910D01*
X154028652Y-87712000D01*
X152893483Y-87712000D01*
X152799697Y-87726853D01*
X152686657Y-87784449D01*
X152596949Y-87874157D01*
X152554834Y-87956815D01*
X152539354Y-87987196D01*
X152524500Y-88080981D01*
X152524500Y-88080984D01*
X152524500Y-88444016D01*
X152539353Y-88537802D01*
X152596949Y-88650842D01*
X152686657Y-88740550D01*
X152718472Y-88756760D01*
X152799696Y-88798146D01*
X152893481Y-88813000D01*
X153252995Y-88812999D01*
X153321115Y-88833001D01*
X153342090Y-88849904D01*
X153798461Y-89306275D01*
X153815362Y-89327246D01*
X153817857Y-89331128D01*
X153832128Y-89343494D01*
X153857037Y-89365077D01*
X153860315Y-89368129D01*
X153862595Y-89370409D01*
X153896621Y-89432721D01*
X153899500Y-89459504D01*
X153899500Y-89540719D01*
X153879498Y-89608840D01*
X153877196Y-89612295D01*
X153819781Y-89695474D01*
X153763761Y-89843184D01*
X153744722Y-89999996D01*
X153744722Y-90000003D01*
X153763761Y-90156815D01*
X153791771Y-90230670D01*
X153819780Y-90304523D01*
X153819781Y-90304525D01*
X153819782Y-90304526D01*
X153819783Y-90304529D01*
X153909516Y-90434529D01*
X153909518Y-90434531D01*
X153959925Y-90479187D01*
X153997650Y-90539331D01*
X153996871Y-90610323D01*
X153957834Y-90669624D01*
X153892934Y-90698407D01*
X153876372Y-90699500D01*
X153249858Y-90699500D01*
X153223073Y-90696620D01*
X153218573Y-90695641D01*
X153218572Y-90695641D01*
X153166866Y-90699339D01*
X153162370Y-90699500D01*
X153146701Y-90699500D01*
X153131190Y-90701729D01*
X153126723Y-90702209D01*
X153075016Y-90705909D01*
X153075012Y-90705909D01*
X153070686Y-90707523D01*
X153044617Y-90714176D01*
X153040048Y-90714833D01*
X153040044Y-90714834D01*
X152992889Y-90736369D01*
X152988739Y-90738087D01*
X152982362Y-90740466D01*
X152940170Y-90756202D01*
X152936475Y-90758969D01*
X152913319Y-90772707D01*
X152912469Y-90773096D01*
X152909125Y-90774623D01*
X152869954Y-90808564D01*
X152866455Y-90811384D01*
X152853911Y-90820775D01*
X152853908Y-90820778D01*
X152842817Y-90831866D01*
X152839531Y-90834925D01*
X152800359Y-90868868D01*
X152800356Y-90868873D01*
X152797859Y-90872758D01*
X152780963Y-90893721D01*
X152362018Y-91312666D01*
X152299706Y-91346692D01*
X152228891Y-91341627D01*
X152172055Y-91299080D01*
X152147842Y-91238758D01*
X152136238Y-91143184D01*
X152123201Y-91108809D01*
X152080220Y-90995477D01*
X152080216Y-90995472D01*
X152080216Y-90995470D01*
X151990483Y-90865470D01*
X151990481Y-90865468D01*
X151872240Y-90760717D01*
X151732365Y-90687304D01*
X151732356Y-90687301D01*
X151709475Y-90681661D01*
X151648121Y-90645937D01*
X151615820Y-90582714D01*
X151622829Y-90512064D01*
X151656076Y-90465011D01*
X151690483Y-90434530D01*
X151780220Y-90304523D01*
X151836237Y-90156818D01*
X151836237Y-90156817D01*
X151836238Y-90156815D01*
X151855278Y-90000003D01*
X151855278Y-89999996D01*
X151836238Y-89843184D01*
X151823213Y-89808840D01*
X151780220Y-89695477D01*
X151780216Y-89695472D01*
X151780216Y-89695470D01*
X151690483Y-89565470D01*
X151690481Y-89565468D01*
X151572240Y-89460717D01*
X151432365Y-89387304D01*
X151432361Y-89387302D01*
X151278987Y-89349500D01*
X151278985Y-89349500D01*
X151121015Y-89349500D01*
X151121012Y-89349500D01*
X150967638Y-89387302D01*
X150967634Y-89387304D01*
X150827759Y-89460717D01*
X150709518Y-89565468D01*
X150709516Y-89565470D01*
X150619783Y-89695470D01*
X150619782Y-89695473D01*
X150563762Y-89843184D01*
X150557222Y-89897042D01*
X150529154Y-89962255D01*
X150521236Y-89970948D01*
X149429589Y-91062596D01*
X149367279Y-91096620D01*
X149340496Y-91099500D01*
X145229855Y-91099500D01*
X145203075Y-91096621D01*
X145189770Y-91093727D01*
X145190082Y-91092289D01*
X145132667Y-91070871D01*
X145090124Y-91014032D01*
X145085063Y-90943216D01*
X145119084Y-90880914D01*
X146000000Y-90000000D01*
X146000000Y-87126500D01*
X146020002Y-87058379D01*
X146073658Y-87011886D01*
X146126000Y-87000500D01*
X146836198Y-87000500D01*
X146904319Y-87020502D01*
X146919749Y-87032186D01*
X146927760Y-87039283D01*
X147067635Y-87112696D01*
X147067636Y-87112696D01*
X147067638Y-87112697D01*
X147123641Y-87126500D01*
X147221015Y-87150500D01*
X147221017Y-87150500D01*
X147378983Y-87150500D01*
X147378985Y-87150500D01*
X147532365Y-87112696D01*
X147672240Y-87039283D01*
X147790483Y-86934530D01*
X147880220Y-86804523D01*
X147936237Y-86656818D01*
X147936237Y-86656817D01*
X147936238Y-86656815D01*
X147955278Y-86500003D01*
X147955278Y-86499996D01*
X147936238Y-86343184D01*
X147928392Y-86322498D01*
X147880220Y-86195477D01*
X147880216Y-86195472D01*
X147880216Y-86195470D01*
X147790483Y-86065470D01*
X147790481Y-86065468D01*
X147672240Y-85960717D01*
X147532365Y-85887304D01*
X147532361Y-85887302D01*
X147378987Y-85849500D01*
X147378985Y-85849500D01*
X147221015Y-85849500D01*
X147221012Y-85849500D01*
X147067638Y-85887302D01*
X147067634Y-85887304D01*
X146927760Y-85960716D01*
X146927758Y-85960718D01*
X146919753Y-85967811D01*
X146855500Y-85998013D01*
X146836198Y-85999500D01*
X146126000Y-85999500D01*
X146057879Y-85979498D01*
X146011386Y-85925842D01*
X146000000Y-85873500D01*
X146000000Y-80126500D01*
X146020002Y-80058379D01*
X146073658Y-80011886D01*
X146126000Y-80000500D01*
X179248458Y-80000500D01*
X179251545Y-80000575D01*
G37*
G04 #@! TD.AperFunction*
G04 #@! TA.AperFunction,Conductor*
G36*
X136716884Y-120460915D02*
G01*
X136786442Y-120595156D01*
X136889638Y-120705652D01*
X137018819Y-120784209D01*
X137070002Y-120798549D01*
X136295819Y-121572732D01*
X136296631Y-121573426D01*
X136511370Y-121705019D01*
X136744045Y-121801396D01*
X136902245Y-121839376D01*
X136963814Y-121874728D01*
X136996497Y-121937755D01*
X136989917Y-122008446D01*
X136946162Y-122064357D01*
X136914447Y-122080824D01*
X136890474Y-122089212D01*
X136737739Y-122185182D01*
X136737737Y-122185183D01*
X136610183Y-122312737D01*
X136610182Y-122312739D01*
X136514212Y-122465474D01*
X136514211Y-122465477D01*
X136514211Y-122465478D01*
X136454632Y-122635745D01*
X136434435Y-122815000D01*
X136454632Y-122994255D01*
X136475627Y-123054255D01*
X136514211Y-123164522D01*
X136514212Y-123164525D01*
X136610182Y-123317260D01*
X136610183Y-123317262D01*
X136737737Y-123444816D01*
X136737739Y-123444817D01*
X136890474Y-123540787D01*
X136890475Y-123540787D01*
X136890478Y-123540789D01*
X136929865Y-123554571D01*
X136987557Y-123595949D01*
X137013719Y-123661949D01*
X137000047Y-123731617D01*
X136950879Y-123782833D01*
X136888250Y-123799500D01*
X135051750Y-123799500D01*
X134983629Y-123779498D01*
X134937136Y-123725842D01*
X134927032Y-123655568D01*
X134956526Y-123590988D01*
X135010135Y-123554571D01*
X135049522Y-123540789D01*
X135202262Y-123444816D01*
X135329816Y-123317262D01*
X135425789Y-123164522D01*
X135485368Y-122994255D01*
X135505565Y-122815000D01*
X135485368Y-122635745D01*
X135425789Y-122465478D01*
X135425787Y-122465475D01*
X135425787Y-122465474D01*
X135329817Y-122312739D01*
X135329816Y-122312737D01*
X135202262Y-122185183D01*
X135202260Y-122185182D01*
X135049525Y-122089212D01*
X135049522Y-122089211D01*
X134978493Y-122064357D01*
X134879255Y-122029632D01*
X134744954Y-122014500D01*
X134655046Y-122014500D01*
X134520745Y-122029632D01*
X134520742Y-122029632D01*
X134520742Y-122029633D01*
X134350477Y-122089211D01*
X134350474Y-122089212D01*
X134197739Y-122185182D01*
X134197737Y-122185183D01*
X134070183Y-122312737D01*
X134070182Y-122312739D01*
X133974212Y-122465474D01*
X133974211Y-122465477D01*
X133974211Y-122465478D01*
X133914632Y-122635745D01*
X133894435Y-122815000D01*
X133914632Y-122994255D01*
X133935627Y-123054255D01*
X133974211Y-123164522D01*
X133974212Y-123164525D01*
X134070182Y-123317260D01*
X134070183Y-123317262D01*
X134197737Y-123444816D01*
X134197739Y-123444817D01*
X134350474Y-123540787D01*
X134350475Y-123540787D01*
X134350478Y-123540789D01*
X134389865Y-123554571D01*
X134447557Y-123595949D01*
X134473719Y-123661949D01*
X134460047Y-123731617D01*
X134410879Y-123782833D01*
X134348250Y-123799500D01*
X132511750Y-123799500D01*
X132443629Y-123779498D01*
X132397136Y-123725842D01*
X132387032Y-123655568D01*
X132416526Y-123590988D01*
X132470135Y-123554571D01*
X132509522Y-123540789D01*
X132662262Y-123444816D01*
X132789816Y-123317262D01*
X132885789Y-123164522D01*
X132945368Y-122994255D01*
X132965565Y-122815000D01*
X132945368Y-122635745D01*
X132885789Y-122465478D01*
X132885787Y-122465475D01*
X132885787Y-122465474D01*
X132789817Y-122312739D01*
X132789816Y-122312737D01*
X132662262Y-122185183D01*
X132662260Y-122185182D01*
X132509525Y-122089212D01*
X132509522Y-122089211D01*
X132438493Y-122064357D01*
X132339255Y-122029632D01*
X132204954Y-122014500D01*
X132115046Y-122014500D01*
X131980745Y-122029632D01*
X131980742Y-122029632D01*
X131980742Y-122029633D01*
X131810477Y-122089211D01*
X131810474Y-122089212D01*
X131657739Y-122185182D01*
X131657737Y-122185183D01*
X131530183Y-122312737D01*
X131530182Y-122312739D01*
X131434212Y-122465474D01*
X131434211Y-122465477D01*
X131434211Y-122465478D01*
X131374632Y-122635745D01*
X131354435Y-122815000D01*
X131374632Y-122994255D01*
X131395627Y-123054255D01*
X131434211Y-123164522D01*
X131434212Y-123164525D01*
X131530182Y-123317260D01*
X131530183Y-123317262D01*
X131657737Y-123444816D01*
X131657739Y-123444817D01*
X131810474Y-123540787D01*
X131810475Y-123540787D01*
X131810478Y-123540789D01*
X131849865Y-123554571D01*
X131907557Y-123595949D01*
X131933719Y-123661949D01*
X131920047Y-123731617D01*
X131870879Y-123782833D01*
X131808250Y-123799500D01*
X130626500Y-123799500D01*
X130558379Y-123779498D01*
X130511886Y-123725842D01*
X130500500Y-123673500D01*
X130500500Y-122750925D01*
X130520502Y-122682804D01*
X130537405Y-122661830D01*
X131536831Y-121662405D01*
X131599143Y-121628379D01*
X131625926Y-121625500D01*
X133284674Y-121625500D01*
X133357740Y-121610966D01*
X133440601Y-121555601D01*
X133495966Y-121472740D01*
X133510500Y-121399674D01*
X133510500Y-121299586D01*
X133530502Y-121231465D01*
X133584158Y-121184972D01*
X133654432Y-121174868D01*
X133719012Y-121204362D01*
X133725595Y-121210491D01*
X133828599Y-121313495D01*
X134022170Y-121449035D01*
X134236337Y-121548903D01*
X134464592Y-121610063D01*
X134700000Y-121630659D01*
X134935408Y-121610063D01*
X135163663Y-121548903D01*
X135377830Y-121449035D01*
X135571401Y-121313495D01*
X135724049Y-121160846D01*
X135786361Y-121126821D01*
X135857176Y-121131886D01*
X135914012Y-121174433D01*
X135920577Y-121184107D01*
X135941566Y-121218359D01*
X135942267Y-121219178D01*
X136714070Y-120447375D01*
X136716884Y-120460915D01*
G37*
G04 #@! TD.AperFunction*
G04 #@! TA.AperFunction,Conductor*
G36*
X138517533Y-110648002D02*
G01*
X138574368Y-110690549D01*
X138599179Y-110757069D01*
X138599500Y-110766058D01*
X138599500Y-112032640D01*
X138596621Y-112059420D01*
X138595641Y-112063923D01*
X138595641Y-112063928D01*
X138599339Y-112115634D01*
X138599500Y-112120130D01*
X138599500Y-112135799D01*
X138601729Y-112151311D01*
X138602209Y-112155778D01*
X138605908Y-112207480D01*
X138605910Y-112207488D01*
X138607521Y-112211808D01*
X138614177Y-112237883D01*
X138614834Y-112242455D01*
X138614836Y-112242462D01*
X138636365Y-112289603D01*
X138638086Y-112293757D01*
X138638728Y-112295477D01*
X138656204Y-112342331D01*
X138656205Y-112342332D01*
X138658968Y-112346024D01*
X138672706Y-112369178D01*
X138674619Y-112373367D01*
X138674621Y-112373370D01*
X138674622Y-112373371D01*
X138674623Y-112373373D01*
X138708565Y-112412544D01*
X138711379Y-112416036D01*
X138720779Y-112428593D01*
X138731865Y-112439679D01*
X138734919Y-112442959D01*
X138768872Y-112482143D01*
X138772751Y-112484635D01*
X138793723Y-112501537D01*
X139366968Y-113074782D01*
X139921236Y-113629049D01*
X139955261Y-113691361D01*
X139957222Y-113702956D01*
X139963761Y-113756815D01*
X139985216Y-113813385D01*
X140019780Y-113904523D01*
X140019781Y-113904525D01*
X140019782Y-113904526D01*
X140019783Y-113904529D01*
X140109516Y-114034529D01*
X140109518Y-114034531D01*
X140122052Y-114045635D01*
X140227760Y-114139283D01*
X140367635Y-114212696D01*
X140367636Y-114212696D01*
X140367638Y-114212697D01*
X140429175Y-114227864D01*
X140521015Y-114250500D01*
X140521017Y-114250500D01*
X140678983Y-114250500D01*
X140678985Y-114250500D01*
X140832365Y-114212696D01*
X140972240Y-114139283D01*
X141090483Y-114034530D01*
X141180220Y-113904523D01*
X141236237Y-113756818D01*
X141236237Y-113756817D01*
X141236238Y-113756815D01*
X141255278Y-113600003D01*
X141255278Y-113599996D01*
X141236238Y-113443184D01*
X141215045Y-113387304D01*
X141180220Y-113295477D01*
X141180216Y-113295472D01*
X141180216Y-113295470D01*
X141090483Y-113165470D01*
X141090481Y-113165468D01*
X140972240Y-113060717D01*
X140832365Y-112987304D01*
X140832363Y-112987303D01*
X140684326Y-112950816D01*
X140625385Y-112917572D01*
X139637405Y-111929591D01*
X139603379Y-111867279D01*
X139600500Y-111840496D01*
X139600500Y-111612196D01*
X139620502Y-111544075D01*
X139674158Y-111497582D01*
X139744432Y-111487478D01*
X139809012Y-111516972D01*
X139817519Y-111525480D01*
X139817593Y-111525407D01*
X139820778Y-111528592D01*
X139820779Y-111528593D01*
X139831865Y-111539679D01*
X139834919Y-111542959D01*
X139835710Y-111543872D01*
X139857243Y-111568723D01*
X139868872Y-111582143D01*
X139872751Y-111584635D01*
X139893723Y-111601537D01*
X142598461Y-114306275D01*
X142615362Y-114327246D01*
X142617857Y-114331128D01*
X142641799Y-114351874D01*
X142657038Y-114365078D01*
X142660317Y-114368131D01*
X142671407Y-114379221D01*
X142683963Y-114388620D01*
X142687456Y-114391435D01*
X142726627Y-114425377D01*
X142730814Y-114427289D01*
X142753975Y-114441031D01*
X142757669Y-114443796D01*
X142757672Y-114443798D01*
X142790909Y-114456193D01*
X142806246Y-114461914D01*
X142810376Y-114463624D01*
X142857543Y-114485165D01*
X142862107Y-114485821D01*
X142888202Y-114492481D01*
X142892517Y-114494091D01*
X142944228Y-114497789D01*
X142948657Y-114498264D01*
X142964201Y-114500500D01*
X142979870Y-114500500D01*
X142984366Y-114500661D01*
X143000547Y-114501817D01*
X143036073Y-114504359D01*
X143040573Y-114503379D01*
X143067358Y-114500500D01*
X145536198Y-114500500D01*
X145604319Y-114520502D01*
X145619749Y-114532186D01*
X145627760Y-114539283D01*
X145767635Y-114612696D01*
X145767636Y-114612696D01*
X145767638Y-114612697D01*
X145844325Y-114631598D01*
X145921015Y-114650500D01*
X145921017Y-114650500D01*
X146078983Y-114650500D01*
X146078985Y-114650500D01*
X146232365Y-114612696D01*
X146372240Y-114539283D01*
X146490483Y-114434530D01*
X146572397Y-114315856D01*
X146580216Y-114304529D01*
X146580216Y-114304528D01*
X146580220Y-114304523D01*
X146636237Y-114156818D01*
X146636237Y-114156817D01*
X146636238Y-114156815D01*
X146649737Y-114045635D01*
X146677803Y-113980422D01*
X146736672Y-113940735D01*
X146807651Y-113939175D01*
X146863913Y-113971727D01*
X149198461Y-116306275D01*
X149215362Y-116327246D01*
X149217856Y-116331127D01*
X149257038Y-116365078D01*
X149260317Y-116368131D01*
X149271407Y-116379221D01*
X149283963Y-116388620D01*
X149287452Y-116391432D01*
X149326627Y-116425377D01*
X149330803Y-116427284D01*
X149330814Y-116427289D01*
X149353975Y-116441031D01*
X149357669Y-116443796D01*
X149357672Y-116443798D01*
X149390909Y-116456193D01*
X149406246Y-116461914D01*
X149410376Y-116463624D01*
X149457543Y-116485165D01*
X149462107Y-116485821D01*
X149488202Y-116492481D01*
X149492517Y-116494091D01*
X149544228Y-116497789D01*
X149548657Y-116498264D01*
X149564201Y-116500500D01*
X149579870Y-116500500D01*
X149584366Y-116500661D01*
X149600547Y-116501817D01*
X149636073Y-116504359D01*
X149640573Y-116503379D01*
X149667358Y-116500500D01*
X159832642Y-116500500D01*
X159859426Y-116503379D01*
X159863927Y-116504359D01*
X159900265Y-116501759D01*
X159915634Y-116500661D01*
X159920130Y-116500500D01*
X159935798Y-116500500D01*
X159935799Y-116500500D01*
X159951338Y-116498265D01*
X159955770Y-116497789D01*
X160007483Y-116494091D01*
X160011791Y-116492483D01*
X160037901Y-116485819D01*
X160042457Y-116485165D01*
X160089640Y-116463616D01*
X160093739Y-116461918D01*
X160142331Y-116443796D01*
X160146019Y-116441035D01*
X160169183Y-116427289D01*
X160173373Y-116425377D01*
X160206371Y-116396783D01*
X160212547Y-116391432D01*
X160216047Y-116388612D01*
X160228593Y-116379221D01*
X160239686Y-116368126D01*
X160242961Y-116365078D01*
X160282143Y-116331128D01*
X160284631Y-116327256D01*
X160301534Y-116306278D01*
X160706278Y-115901534D01*
X160727256Y-115884631D01*
X160731128Y-115882143D01*
X160765086Y-115842951D01*
X160768126Y-115839686D01*
X160779221Y-115828593D01*
X160788613Y-115816045D01*
X160791432Y-115812547D01*
X160799844Y-115802839D01*
X160825377Y-115773373D01*
X160827289Y-115769183D01*
X160841036Y-115746017D01*
X160843796Y-115742331D01*
X160861918Y-115693739D01*
X160863616Y-115689640D01*
X160885165Y-115642457D01*
X160885819Y-115637901D01*
X160892483Y-115611791D01*
X160894091Y-115607483D01*
X160897789Y-115555770D01*
X160898265Y-115551338D01*
X160900500Y-115535799D01*
X160900500Y-115520130D01*
X160900661Y-115515634D01*
X160901893Y-115498407D01*
X160904359Y-115463927D01*
X160903379Y-115459420D01*
X160900500Y-115432640D01*
X160900500Y-115076936D01*
X160920502Y-115008815D01*
X160923764Y-115004175D01*
X160924531Y-115002847D01*
X160924536Y-115002841D01*
X160985044Y-114856762D01*
X161005682Y-114700000D01*
X161001488Y-114668147D01*
X160990124Y-114581824D01*
X160985044Y-114543238D01*
X160924536Y-114397159D01*
X160828282Y-114271718D01*
X160702841Y-114175464D01*
X160657819Y-114156815D01*
X160556760Y-114114955D01*
X160400000Y-114094318D01*
X160243239Y-114114955D01*
X160097160Y-114175463D01*
X160097157Y-114175465D01*
X159971718Y-114271718D01*
X159875465Y-114397157D01*
X159875463Y-114397160D01*
X159814955Y-114543239D01*
X159794318Y-114699999D01*
X159794318Y-114700000D01*
X159814955Y-114856760D01*
X159875463Y-115002839D01*
X159879595Y-115009995D01*
X159877665Y-115011108D01*
X159899062Y-115066444D01*
X159899500Y-115076936D01*
X159899500Y-115240496D01*
X159879498Y-115308617D01*
X159862595Y-115329591D01*
X159729591Y-115462595D01*
X159667279Y-115496621D01*
X159640496Y-115499500D01*
X157723628Y-115499500D01*
X157655507Y-115479498D01*
X157609014Y-115425842D01*
X157598910Y-115355568D01*
X157628404Y-115290988D01*
X157640075Y-115279187D01*
X157646572Y-115273431D01*
X157690483Y-115234530D01*
X157780220Y-115104523D01*
X157836237Y-114956818D01*
X157836237Y-114956817D01*
X157836238Y-114956815D01*
X157855278Y-114800003D01*
X157855278Y-114799996D01*
X157836238Y-114643184D01*
X157826565Y-114617680D01*
X157780220Y-114495477D01*
X157780216Y-114495472D01*
X157780216Y-114495470D01*
X157690483Y-114365470D01*
X157690481Y-114365468D01*
X157648856Y-114328592D01*
X157640074Y-114320812D01*
X157602350Y-114260669D01*
X157603129Y-114189677D01*
X157642166Y-114130376D01*
X157707066Y-114101593D01*
X157723628Y-114100500D01*
X157934018Y-114100500D01*
X157960802Y-114103379D01*
X157965303Y-114104359D01*
X158001641Y-114101759D01*
X158017010Y-114100661D01*
X158021506Y-114100500D01*
X158037174Y-114100500D01*
X158037175Y-114100500D01*
X158052714Y-114098265D01*
X158057146Y-114097789D01*
X158108859Y-114094091D01*
X158113167Y-114092483D01*
X158139277Y-114085819D01*
X158143833Y-114085165D01*
X158191016Y-114063616D01*
X158195115Y-114061918D01*
X158243707Y-114043796D01*
X158247395Y-114041035D01*
X158270559Y-114027289D01*
X158274749Y-114025377D01*
X158313923Y-113991432D01*
X158317423Y-113988612D01*
X158329969Y-113979221D01*
X158341062Y-113968126D01*
X158344337Y-113965078D01*
X158383519Y-113931128D01*
X158386005Y-113927258D01*
X158402913Y-113906276D01*
X158404666Y-113904523D01*
X158426076Y-113883113D01*
X158485016Y-113849871D01*
X158633053Y-113813384D01*
X158772928Y-113739971D01*
X158891171Y-113635218D01*
X158980908Y-113505211D01*
X159036925Y-113357506D01*
X159036925Y-113357505D01*
X159036926Y-113357503D01*
X159055966Y-113200691D01*
X159055966Y-113200684D01*
X159036926Y-113043872D01*
X159025648Y-113014135D01*
X158980908Y-112896165D01*
X158980904Y-112896160D01*
X158980904Y-112896158D01*
X158891171Y-112766158D01*
X158891169Y-112766156D01*
X158772928Y-112661405D01*
X158738207Y-112643182D01*
X158680827Y-112613066D01*
X158629806Y-112563699D01*
X158613574Y-112494583D01*
X158637286Y-112427663D01*
X158693413Y-112384186D01*
X158739384Y-112375500D01*
X160015496Y-112375500D01*
X160083617Y-112395502D01*
X160104591Y-112412405D01*
X167521236Y-119829050D01*
X167555262Y-119891362D01*
X167557222Y-119902957D01*
X167563761Y-119956815D01*
X167591771Y-120030670D01*
X167619780Y-120104523D01*
X167619781Y-120104525D01*
X167619782Y-120104526D01*
X167619783Y-120104529D01*
X167709516Y-120234529D01*
X167709517Y-120234530D01*
X167827760Y-120339283D01*
X167967635Y-120412696D01*
X167967636Y-120412696D01*
X167967638Y-120412697D01*
X168044325Y-120431598D01*
X168121015Y-120450500D01*
X168121017Y-120450500D01*
X168278983Y-120450500D01*
X168278985Y-120450500D01*
X168432365Y-120412696D01*
X168572240Y-120339283D01*
X168690483Y-120234530D01*
X168780220Y-120104523D01*
X168836237Y-119956818D01*
X168836237Y-119956817D01*
X168836238Y-119956815D01*
X168855278Y-119800003D01*
X168855278Y-119799996D01*
X168836238Y-119643184D01*
X168818787Y-119597171D01*
X168780220Y-119495477D01*
X168780216Y-119495472D01*
X168780216Y-119495470D01*
X168690483Y-119365470D01*
X168690481Y-119365468D01*
X168572240Y-119260717D01*
X168432365Y-119187304D01*
X168432361Y-119187302D01*
X168284329Y-119150817D01*
X168225387Y-119117573D01*
X167340146Y-118232332D01*
X167306120Y-118170020D01*
X167311185Y-118099205D01*
X167353732Y-118042369D01*
X167399088Y-118020898D01*
X167432361Y-118012697D01*
X167432361Y-118012696D01*
X167432365Y-118012696D01*
X167572240Y-117939283D01*
X167690483Y-117834530D01*
X167780220Y-117704523D01*
X167836237Y-117556818D01*
X167842776Y-117502957D01*
X167870841Y-117437747D01*
X167878751Y-117429062D01*
X168279220Y-117028594D01*
X168279220Y-117028593D01*
X168296943Y-117010871D01*
X168296943Y-117010869D01*
X168304791Y-117003023D01*
X168304791Y-117003022D01*
X168322510Y-116985304D01*
X168322511Y-116985301D01*
X168404405Y-116903407D01*
X168466718Y-116869383D01*
X168537533Y-116874449D01*
X168594369Y-116916996D01*
X168619179Y-116983516D01*
X168619500Y-116992504D01*
X168619500Y-118734677D01*
X168634033Y-118807739D01*
X168652405Y-118835235D01*
X168689399Y-118890601D01*
X168772260Y-118945966D01*
X168845326Y-118960500D01*
X168993500Y-118960500D01*
X169061621Y-118980502D01*
X169108114Y-119034158D01*
X169119500Y-119086500D01*
X169119500Y-123673500D01*
X169099498Y-123741621D01*
X169045842Y-123788114D01*
X168993500Y-123799500D01*
X164826742Y-123799500D01*
X164758621Y-123779498D01*
X164712128Y-123725842D01*
X164702024Y-123655568D01*
X164708928Y-123628824D01*
X164736237Y-123556818D01*
X164736237Y-123556817D01*
X164736238Y-123556815D01*
X164755278Y-123400003D01*
X164755278Y-123399996D01*
X164736238Y-123243184D01*
X164706405Y-123164522D01*
X164680220Y-123095477D01*
X164680216Y-123095472D01*
X164680216Y-123095470D01*
X164590483Y-122965470D01*
X164590481Y-122965468D01*
X164472240Y-122860717D01*
X164332365Y-122787304D01*
X164332361Y-122787302D01*
X164178987Y-122749500D01*
X164178985Y-122749500D01*
X164021015Y-122749500D01*
X164021012Y-122749500D01*
X163867638Y-122787302D01*
X163867634Y-122787304D01*
X163727760Y-122860716D01*
X163727758Y-122860718D01*
X163719753Y-122867811D01*
X163655500Y-122898013D01*
X163636198Y-122899500D01*
X159663802Y-122899500D01*
X159595681Y-122879498D01*
X159580247Y-122867811D01*
X159572241Y-122860718D01*
X159572239Y-122860716D01*
X159432365Y-122787304D01*
X159432361Y-122787302D01*
X159278987Y-122749500D01*
X159278985Y-122749500D01*
X159121015Y-122749500D01*
X159121012Y-122749500D01*
X158967638Y-122787302D01*
X158967634Y-122787304D01*
X158827759Y-122860717D01*
X158709518Y-122965468D01*
X158709516Y-122965470D01*
X158619783Y-123095470D01*
X158619782Y-123095473D01*
X158563761Y-123243184D01*
X158544722Y-123399996D01*
X158544722Y-123400003D01*
X158563761Y-123556815D01*
X158576722Y-123590988D01*
X158591070Y-123628821D01*
X158596524Y-123699606D01*
X158562842Y-123762104D01*
X158500718Y-123796471D01*
X158473258Y-123799500D01*
X137591750Y-123799500D01*
X137523629Y-123779498D01*
X137477136Y-123725842D01*
X137467032Y-123655568D01*
X137496526Y-123590988D01*
X137550135Y-123554571D01*
X137589522Y-123540789D01*
X137742262Y-123444816D01*
X137869816Y-123317262D01*
X137965789Y-123164522D01*
X138025368Y-122994255D01*
X138045565Y-122815000D01*
X138025368Y-122635745D01*
X137965789Y-122465478D01*
X137965787Y-122465475D01*
X137965787Y-122465474D01*
X137869817Y-122312739D01*
X137869816Y-122312737D01*
X137742262Y-122185183D01*
X137742260Y-122185182D01*
X137589526Y-122089213D01*
X137589524Y-122089212D01*
X137589522Y-122089211D01*
X137565551Y-122080823D01*
X137507862Y-122039446D01*
X137481699Y-121973446D01*
X137495371Y-121903779D01*
X137544539Y-121852563D01*
X137577754Y-121839376D01*
X137735954Y-121801396D01*
X137968629Y-121705019D01*
X138183370Y-121573426D01*
X138184178Y-121572733D01*
X138184179Y-121572732D01*
X137411568Y-120800121D01*
X137528458Y-120749349D01*
X137645739Y-120653934D01*
X137732928Y-120530415D01*
X137763354Y-120444801D01*
X138537732Y-121219179D01*
X138537733Y-121219178D01*
X138538426Y-121218370D01*
X138670019Y-121003629D01*
X138766396Y-120770954D01*
X138825187Y-120526068D01*
X138844947Y-120275000D01*
X138825187Y-120023931D01*
X138766396Y-119779045D01*
X138670019Y-119546370D01*
X138538426Y-119331631D01*
X138537732Y-119330819D01*
X137765929Y-120102621D01*
X137763116Y-120089085D01*
X137693558Y-119954844D01*
X137590362Y-119844348D01*
X137461181Y-119765791D01*
X137409996Y-119751449D01*
X138184178Y-118977267D01*
X138183359Y-118976566D01*
X137968629Y-118844980D01*
X137735954Y-118748603D01*
X137491068Y-118689812D01*
X137240000Y-118670052D01*
X136988931Y-118689812D01*
X136744045Y-118748603D01*
X136511370Y-118844980D01*
X136296633Y-118976571D01*
X136296628Y-118976575D01*
X136295820Y-118977265D01*
X136295820Y-118977267D01*
X137068431Y-119749878D01*
X136951542Y-119800651D01*
X136834261Y-119896066D01*
X136747072Y-120019585D01*
X136716645Y-120105198D01*
X135942267Y-119330820D01*
X135942265Y-119330820D01*
X135941575Y-119331628D01*
X135941561Y-119331647D01*
X135920574Y-119365894D01*
X135867925Y-119413525D01*
X135797884Y-119425130D01*
X135732687Y-119397025D01*
X135724048Y-119389152D01*
X135571403Y-119236507D01*
X135571392Y-119236498D01*
X135377830Y-119100965D01*
X135377827Y-119100963D01*
X135273250Y-119052198D01*
X135219965Y-119005280D01*
X135200500Y-118938003D01*
X135200500Y-117767357D01*
X135203379Y-117740576D01*
X135204359Y-117736073D01*
X135200933Y-117688170D01*
X135200661Y-117684363D01*
X135200500Y-117679867D01*
X135200500Y-117664201D01*
X135200500Y-117664200D01*
X135198264Y-117648657D01*
X135197788Y-117644216D01*
X135196155Y-117621386D01*
X135194091Y-117592517D01*
X135192481Y-117588202D01*
X135185821Y-117562107D01*
X135185165Y-117557543D01*
X135163624Y-117510376D01*
X135161910Y-117506237D01*
X135160688Y-117502961D01*
X135154188Y-117485532D01*
X135143798Y-117457672D01*
X135143796Y-117457669D01*
X135141031Y-117453975D01*
X135127289Y-117430814D01*
X135125377Y-117426627D01*
X135091435Y-117387456D01*
X135088620Y-117383963D01*
X135079221Y-117371407D01*
X135068131Y-117360317D01*
X135065078Y-117357038D01*
X135049693Y-117339283D01*
X135031128Y-117317857D01*
X135031127Y-117317856D01*
X135027246Y-117315362D01*
X135006279Y-117298465D01*
X134712403Y-117004589D01*
X134678378Y-116942277D01*
X134675499Y-116915494D01*
X134675499Y-116787503D01*
X134695501Y-116719382D01*
X134749157Y-116672889D01*
X134819431Y-116662785D01*
X134884011Y-116692279D01*
X134890594Y-116698408D01*
X135153653Y-116961467D01*
X135182370Y-117005881D01*
X135219780Y-117104523D01*
X135219781Y-117104525D01*
X135219782Y-117104526D01*
X135219783Y-117104529D01*
X135309516Y-117234529D01*
X135309517Y-117234530D01*
X135427760Y-117339283D01*
X135567635Y-117412696D01*
X135567636Y-117412696D01*
X135567638Y-117412697D01*
X135617190Y-117424910D01*
X135721015Y-117450500D01*
X135721017Y-117450500D01*
X135878983Y-117450500D01*
X135878985Y-117450500D01*
X136032365Y-117412696D01*
X136172240Y-117339283D01*
X136290483Y-117234530D01*
X136364951Y-117126643D01*
X136380216Y-117104529D01*
X136380216Y-117104528D01*
X136380220Y-117104523D01*
X136436237Y-116956818D01*
X136436237Y-116956817D01*
X136436238Y-116956815D01*
X136455278Y-116800003D01*
X136455278Y-116799996D01*
X136436238Y-116643184D01*
X136414188Y-116585044D01*
X136380220Y-116495477D01*
X136380216Y-116495472D01*
X136380216Y-116495470D01*
X136290483Y-116365470D01*
X136290481Y-116365468D01*
X136172240Y-116260717D01*
X136032365Y-116187304D01*
X136032361Y-116187302D01*
X135878987Y-116149500D01*
X135878985Y-116149500D01*
X135809504Y-116149500D01*
X135741383Y-116129498D01*
X135720409Y-116112595D01*
X134537405Y-114929590D01*
X134503379Y-114867278D01*
X134500500Y-114840495D01*
X134500500Y-113259280D01*
X134520502Y-113191159D01*
X134522804Y-113187704D01*
X134527779Y-113180497D01*
X134580220Y-113104523D01*
X134603964Y-113041912D01*
X134646821Y-112985312D01*
X134713476Y-112960867D01*
X134782767Y-112976338D01*
X134822643Y-113011083D01*
X134831844Y-113023373D01*
X134842454Y-113037546D01*
X134957669Y-113123796D01*
X134957671Y-113123796D01*
X134957673Y-113123798D01*
X135006361Y-113141957D01*
X135092514Y-113174090D01*
X135092517Y-113174091D01*
X135152127Y-113180500D01*
X137247872Y-113180499D01*
X137307483Y-113174091D01*
X137421646Y-113131510D01*
X137442326Y-113123798D01*
X137442326Y-113123797D01*
X137442331Y-113123796D01*
X137557546Y-113037546D01*
X137643796Y-112922331D01*
X137694091Y-112787483D01*
X137700500Y-112727873D01*
X137700499Y-111413071D01*
X137720501Y-111344951D01*
X137750759Y-111314376D01*
X137750068Y-111313552D01*
X137755686Y-111308836D01*
X137755696Y-111308830D01*
X137807773Y-111253629D01*
X137809005Y-111252361D01*
X138384406Y-110676961D01*
X138446717Y-110642937D01*
X138517533Y-110648002D01*
G37*
G04 #@! TD.AperFunction*
G04 #@! TA.AperFunction,Conductor*
G36*
X179868717Y-91729675D02*
G01*
X179898216Y-91794253D01*
X179899500Y-91812196D01*
X179899500Y-117599075D01*
X179879498Y-117667196D01*
X179862595Y-117688170D01*
X173788170Y-123762595D01*
X173725858Y-123796621D01*
X173699075Y-123799500D01*
X170446500Y-123799500D01*
X170378379Y-123779498D01*
X170331886Y-123725842D01*
X170320500Y-123673500D01*
X170320500Y-121200003D01*
X171644722Y-121200003D01*
X171663761Y-121356815D01*
X171670279Y-121374000D01*
X171719780Y-121504523D01*
X171719781Y-121504525D01*
X171719782Y-121504526D01*
X171719783Y-121504529D01*
X171808756Y-121633428D01*
X171809517Y-121634530D01*
X171927760Y-121739283D01*
X172067635Y-121812696D01*
X172067636Y-121812696D01*
X172067638Y-121812697D01*
X172144325Y-121831598D01*
X172221015Y-121850500D01*
X172221017Y-121850500D01*
X172378983Y-121850500D01*
X172378985Y-121850500D01*
X172532365Y-121812696D01*
X172672240Y-121739283D01*
X172680248Y-121732188D01*
X172744500Y-121701987D01*
X172763802Y-121700500D01*
X174532642Y-121700500D01*
X174559426Y-121703379D01*
X174563927Y-121704359D01*
X174600265Y-121701759D01*
X174615634Y-121700661D01*
X174620130Y-121700500D01*
X174635798Y-121700500D01*
X174635799Y-121700500D01*
X174651338Y-121698265D01*
X174655770Y-121697789D01*
X174707483Y-121694091D01*
X174711791Y-121692483D01*
X174737901Y-121685819D01*
X174742457Y-121685165D01*
X174789640Y-121663616D01*
X174793739Y-121661918D01*
X174842331Y-121643796D01*
X174846017Y-121641036D01*
X174869183Y-121627289D01*
X174873373Y-121625377D01*
X174912547Y-121591432D01*
X174916045Y-121588613D01*
X174928593Y-121579221D01*
X174939686Y-121568126D01*
X174942951Y-121565086D01*
X174982143Y-121531128D01*
X174984631Y-121527256D01*
X175001534Y-121506278D01*
X179306278Y-117201534D01*
X179327256Y-117184631D01*
X179331128Y-117182143D01*
X179365086Y-117142951D01*
X179368126Y-117139686D01*
X179379221Y-117128593D01*
X179388613Y-117116045D01*
X179391432Y-117112547D01*
X179396848Y-117106296D01*
X179425377Y-117073373D01*
X179427289Y-117069183D01*
X179441036Y-117046017D01*
X179443796Y-117042331D01*
X179461918Y-116993739D01*
X179463616Y-116989640D01*
X179485165Y-116942457D01*
X179485819Y-116937901D01*
X179492483Y-116911791D01*
X179494091Y-116907483D01*
X179497789Y-116855770D01*
X179498265Y-116851338D01*
X179500500Y-116835799D01*
X179500500Y-116820130D01*
X179500661Y-116815634D01*
X179501995Y-116796976D01*
X179504359Y-116763927D01*
X179503379Y-116759420D01*
X179500500Y-116732640D01*
X179500500Y-100467354D01*
X179503380Y-100440568D01*
X179504358Y-100436072D01*
X179500661Y-100384374D01*
X179500500Y-100379878D01*
X179500500Y-100364199D01*
X179499927Y-100360219D01*
X179498265Y-100348662D01*
X179497789Y-100344241D01*
X179494091Y-100292517D01*
X179492480Y-100288199D01*
X179485819Y-100262096D01*
X179485621Y-100260717D01*
X179485165Y-100257543D01*
X179463622Y-100210372D01*
X179461911Y-100206239D01*
X179443796Y-100157671D01*
X179443794Y-100157668D01*
X179443158Y-100156818D01*
X179441034Y-100153981D01*
X179427289Y-100130816D01*
X179425377Y-100126627D01*
X179391429Y-100087449D01*
X179388608Y-100083948D01*
X179379220Y-100071406D01*
X179368131Y-100060317D01*
X179365078Y-100057038D01*
X179361473Y-100052878D01*
X179331128Y-100017857D01*
X179331127Y-100017856D01*
X179327246Y-100015362D01*
X179306275Y-99998461D01*
X179278762Y-99970948D01*
X179244736Y-99908636D01*
X179242778Y-99897059D01*
X179236237Y-99843182D01*
X179180220Y-99695477D01*
X179180216Y-99695472D01*
X179180216Y-99695470D01*
X179090483Y-99565470D01*
X179090481Y-99565468D01*
X178972240Y-99460717D01*
X178832365Y-99387304D01*
X178832361Y-99387302D01*
X178678987Y-99349500D01*
X178678985Y-99349500D01*
X178521015Y-99349500D01*
X178521012Y-99349500D01*
X178367638Y-99387302D01*
X178367634Y-99387304D01*
X178227759Y-99460717D01*
X178109518Y-99565468D01*
X178109516Y-99565470D01*
X178019783Y-99695470D01*
X178019782Y-99695473D01*
X178019781Y-99695475D01*
X178019780Y-99695477D01*
X178019241Y-99696899D01*
X177963761Y-99843184D01*
X177944722Y-99999996D01*
X177944722Y-100000003D01*
X177963761Y-100156815D01*
X177982506Y-100206239D01*
X178019780Y-100304523D01*
X178019781Y-100304525D01*
X178019782Y-100304526D01*
X178019783Y-100304529D01*
X178109516Y-100434529D01*
X178109518Y-100434531D01*
X178120694Y-100444432D01*
X178227760Y-100539283D01*
X178367635Y-100612696D01*
X178403652Y-100621573D01*
X178465007Y-100657295D01*
X178497309Y-100720517D01*
X178499500Y-100743912D01*
X178499500Y-116540495D01*
X178479498Y-116608616D01*
X178462595Y-116629590D01*
X174429591Y-120662595D01*
X174367279Y-120696621D01*
X174340496Y-120699500D01*
X172763802Y-120699500D01*
X172695681Y-120679498D01*
X172680247Y-120667811D01*
X172672241Y-120660718D01*
X172672239Y-120660716D01*
X172532365Y-120587304D01*
X172532361Y-120587302D01*
X172378987Y-120549500D01*
X172378985Y-120549500D01*
X172221015Y-120549500D01*
X172221012Y-120549500D01*
X172067638Y-120587302D01*
X172067634Y-120587304D01*
X171927759Y-120660717D01*
X171809518Y-120765468D01*
X171809516Y-120765470D01*
X171719783Y-120895470D01*
X171719782Y-120895473D01*
X171663761Y-121043184D01*
X171644722Y-121199996D01*
X171644722Y-121200003D01*
X170320500Y-121200003D01*
X170320500Y-119086500D01*
X170340502Y-119018379D01*
X170394158Y-118971886D01*
X170446500Y-118960500D01*
X170594674Y-118960500D01*
X170667740Y-118945966D01*
X170750601Y-118890601D01*
X170805966Y-118807740D01*
X170820500Y-118734674D01*
X170820500Y-116985326D01*
X170805966Y-116912260D01*
X170795725Y-116896934D01*
X170774511Y-116829183D01*
X170793294Y-116760716D01*
X170811390Y-116737843D01*
X170911830Y-116637404D01*
X170974144Y-116603379D01*
X171000926Y-116600500D01*
X171790666Y-116600500D01*
X171858787Y-116620502D01*
X171905280Y-116674158D01*
X171915384Y-116744432D01*
X171885890Y-116809012D01*
X171836182Y-116843991D01*
X171767370Y-116870648D01*
X171767351Y-116870658D01*
X171593960Y-116978017D01*
X171593959Y-116978018D01*
X171443234Y-117115421D01*
X171320329Y-117278175D01*
X171229416Y-117460754D01*
X171173603Y-117656915D01*
X171154785Y-117860000D01*
X171173603Y-118063084D01*
X171229416Y-118259245D01*
X171229417Y-118259247D01*
X171229418Y-118259250D01*
X171320327Y-118441821D01*
X171320328Y-118441822D01*
X171320329Y-118441824D01*
X171443234Y-118604578D01*
X171593959Y-118741981D01*
X171593960Y-118741982D01*
X171767351Y-118849341D01*
X171767354Y-118849342D01*
X171767363Y-118849348D01*
X171957544Y-118923024D01*
X172158024Y-118960500D01*
X172158026Y-118960500D01*
X172361974Y-118960500D01*
X172361976Y-118960500D01*
X172562456Y-118923024D01*
X172752637Y-118849348D01*
X172926041Y-118741981D01*
X173076764Y-118604579D01*
X173199673Y-118441821D01*
X173284463Y-118271536D01*
X173332730Y-118219476D01*
X173401484Y-118201773D01*
X173468894Y-118224052D01*
X173513559Y-118279239D01*
X173518958Y-118295090D01*
X173526565Y-118323480D01*
X173526570Y-118323493D01*
X173626399Y-118537577D01*
X173626400Y-118537579D01*
X173761886Y-118731073D01*
X173761893Y-118731082D01*
X173928917Y-118898106D01*
X173928926Y-118898113D01*
X174122420Y-119033599D01*
X174122422Y-119033600D01*
X174336506Y-119133429D01*
X174336510Y-119133431D01*
X174550000Y-119190635D01*
X174550000Y-118295501D01*
X174657685Y-118344680D01*
X174764237Y-118360000D01*
X174835763Y-118360000D01*
X174942315Y-118344680D01*
X175050000Y-118295501D01*
X175050000Y-119190634D01*
X175263489Y-119133431D01*
X175263493Y-119133429D01*
X175477577Y-119033600D01*
X175477579Y-119033599D01*
X175671073Y-118898113D01*
X175671082Y-118898106D01*
X175838106Y-118731082D01*
X175838113Y-118731073D01*
X175973599Y-118537579D01*
X175973600Y-118537577D01*
X176073429Y-118323493D01*
X176073431Y-118323488D01*
X176130636Y-118110000D01*
X175233686Y-118110000D01*
X175259493Y-118069844D01*
X175300000Y-117931889D01*
X175300000Y-117788111D01*
X175259493Y-117650156D01*
X175233686Y-117610000D01*
X176130636Y-117610000D01*
X176073431Y-117396511D01*
X176073429Y-117396506D01*
X175973599Y-117182421D01*
X175838112Y-116988925D01*
X175671076Y-116821888D01*
X175671073Y-116821886D01*
X175477579Y-116686400D01*
X175477577Y-116686399D01*
X175263493Y-116586570D01*
X175263489Y-116586568D01*
X175035316Y-116525430D01*
X175035311Y-116525429D01*
X174926087Y-116515873D01*
X174859969Y-116490010D01*
X174818330Y-116432506D01*
X174814390Y-116361619D01*
X174847973Y-116301260D01*
X175193872Y-115955361D01*
X175200054Y-115949940D01*
X175228282Y-115928282D01*
X175324536Y-115802841D01*
X175385044Y-115656762D01*
X175398209Y-115556762D01*
X175398634Y-115553538D01*
X175405682Y-115500000D01*
X175405682Y-115499999D01*
X175401040Y-115464737D01*
X175400500Y-115456505D01*
X175400500Y-114992743D01*
X175420502Y-114924622D01*
X175460172Y-114885614D01*
X175466041Y-114881981D01*
X175616764Y-114744579D01*
X175739673Y-114581821D01*
X175830582Y-114399250D01*
X175886397Y-114203083D01*
X175905215Y-114000000D01*
X175886397Y-113796917D01*
X175830582Y-113600750D01*
X175739673Y-113418179D01*
X175739670Y-113418175D01*
X175616765Y-113255421D01*
X175466040Y-113118018D01*
X175466039Y-113118017D01*
X175292648Y-113010658D01*
X175292641Y-113010654D01*
X175292637Y-113010652D01*
X175164126Y-112960867D01*
X175102457Y-112936976D01*
X174998653Y-112917572D01*
X174901976Y-112899500D01*
X174698024Y-112899500D01*
X174601347Y-112917572D01*
X174497542Y-112936976D01*
X174354655Y-112992331D01*
X174307363Y-113010652D01*
X174307362Y-113010652D01*
X174307361Y-113010653D01*
X174307351Y-113010658D01*
X174133960Y-113118017D01*
X174133959Y-113118018D01*
X173983234Y-113255421D01*
X173860329Y-113418175D01*
X173769416Y-113600754D01*
X173713603Y-113796915D01*
X173694785Y-114000000D01*
X173713603Y-114203084D01*
X173769416Y-114399245D01*
X173769417Y-114399247D01*
X173769418Y-114399250D01*
X173860327Y-114581821D01*
X173860328Y-114581822D01*
X173860329Y-114581824D01*
X173983234Y-114744578D01*
X174133954Y-114881977D01*
X174133955Y-114881978D01*
X174133959Y-114881981D01*
X174139826Y-114885614D01*
X174187215Y-114938476D01*
X174199500Y-114992743D01*
X174199500Y-115199075D01*
X174179498Y-115267196D01*
X174162595Y-115288170D01*
X174088170Y-115362595D01*
X174025858Y-115396621D01*
X173999075Y-115399500D01*
X170743494Y-115399500D01*
X170735262Y-115398960D01*
X170700001Y-115394318D01*
X170700000Y-115394318D01*
X170543239Y-115414955D01*
X170397160Y-115475463D01*
X170397157Y-115475465D01*
X170271715Y-115571720D01*
X170250066Y-115599934D01*
X170244627Y-115606137D01*
X169345028Y-116505735D01*
X169282716Y-116539760D01*
X169211900Y-116534695D01*
X169155065Y-116492148D01*
X169130254Y-116425628D01*
X169145345Y-116356254D01*
X169152231Y-116345071D01*
X169180220Y-116304523D01*
X169236237Y-116156818D01*
X169236237Y-116156817D01*
X169236238Y-116156815D01*
X169255278Y-116000003D01*
X169255278Y-115999996D01*
X169236238Y-115843184D01*
X169225635Y-115815228D01*
X169180220Y-115695477D01*
X169180216Y-115695472D01*
X169180216Y-115695470D01*
X169090483Y-115565470D01*
X169090481Y-115565468D01*
X168972240Y-115460717D01*
X168832365Y-115387304D01*
X168832361Y-115387302D01*
X168678987Y-115349500D01*
X168678985Y-115349500D01*
X168521015Y-115349500D01*
X168521012Y-115349500D01*
X168367638Y-115387302D01*
X168367634Y-115387304D01*
X168227759Y-115460717D01*
X168109518Y-115565468D01*
X168109516Y-115565470D01*
X168019783Y-115695470D01*
X168019781Y-115695473D01*
X167974364Y-115815228D01*
X167931505Y-115871829D01*
X167864849Y-115896274D01*
X167795559Y-115880801D01*
X167767457Y-115859642D01*
X165737405Y-113829590D01*
X165703379Y-113767278D01*
X165701522Y-113750000D01*
X168389363Y-113750000D01*
X169286314Y-113750000D01*
X169260507Y-113790156D01*
X169220000Y-113928111D01*
X169220000Y-114071889D01*
X169260507Y-114209844D01*
X169286314Y-114250000D01*
X168389364Y-114250000D01*
X168446568Y-114463488D01*
X168446570Y-114463493D01*
X168546399Y-114677577D01*
X168546400Y-114677579D01*
X168681886Y-114871073D01*
X168681893Y-114871082D01*
X168848917Y-115038106D01*
X168848926Y-115038113D01*
X169042420Y-115173599D01*
X169042422Y-115173600D01*
X169256506Y-115273429D01*
X169256510Y-115273431D01*
X169470000Y-115330635D01*
X169470000Y-114435501D01*
X169577685Y-114484680D01*
X169684237Y-114500000D01*
X169755763Y-114500000D01*
X169862315Y-114484680D01*
X169970000Y-114435501D01*
X169970000Y-115330634D01*
X170183489Y-115273431D01*
X170183493Y-115273429D01*
X170397577Y-115173600D01*
X170397579Y-115173599D01*
X170591073Y-115038113D01*
X170591082Y-115038106D01*
X170758106Y-114871082D01*
X170758113Y-114871073D01*
X170893599Y-114677579D01*
X170893600Y-114677577D01*
X170993429Y-114463493D01*
X170993433Y-114463484D01*
X171001040Y-114435093D01*
X171037990Y-114374470D01*
X171101850Y-114343447D01*
X171172345Y-114351874D01*
X171227093Y-114397076D01*
X171235532Y-114411529D01*
X171320327Y-114581821D01*
X171320328Y-114581822D01*
X171320329Y-114581824D01*
X171443234Y-114744578D01*
X171593959Y-114881981D01*
X171593960Y-114881982D01*
X171767351Y-114989341D01*
X171767354Y-114989342D01*
X171767363Y-114989348D01*
X171957544Y-115063024D01*
X172158024Y-115100500D01*
X172158026Y-115100500D01*
X172361974Y-115100500D01*
X172361976Y-115100500D01*
X172562456Y-115063024D01*
X172752637Y-114989348D01*
X172926041Y-114881981D01*
X173076764Y-114744579D01*
X173199673Y-114581821D01*
X173290582Y-114399250D01*
X173346397Y-114203083D01*
X173365215Y-114000000D01*
X173346397Y-113796917D01*
X173290582Y-113600750D01*
X173199673Y-113418179D01*
X173199670Y-113418175D01*
X173076765Y-113255421D01*
X172926040Y-113118018D01*
X172926039Y-113118017D01*
X172752648Y-113010658D01*
X172752641Y-113010654D01*
X172752637Y-113010652D01*
X172624126Y-112960867D01*
X172562457Y-112936976D01*
X172458653Y-112917572D01*
X172361976Y-112899500D01*
X172158024Y-112899500D01*
X172061347Y-112917572D01*
X171957542Y-112936976D01*
X171814655Y-112992331D01*
X171767363Y-113010652D01*
X171767362Y-113010652D01*
X171767361Y-113010653D01*
X171767351Y-113010658D01*
X171593960Y-113118017D01*
X171593959Y-113118018D01*
X171443234Y-113255421D01*
X171320329Y-113418175D01*
X171320327Y-113418178D01*
X171320327Y-113418179D01*
X171276988Y-113505217D01*
X171235538Y-113588460D01*
X171187269Y-113640524D01*
X171118514Y-113658226D01*
X171051104Y-113635947D01*
X171006440Y-113580760D01*
X171001040Y-113564907D01*
X170993432Y-113536513D01*
X170993429Y-113536506D01*
X170893599Y-113322421D01*
X170758112Y-113128925D01*
X170591076Y-112961888D01*
X170591073Y-112961886D01*
X170397579Y-112826400D01*
X170397577Y-112826399D01*
X170183493Y-112726570D01*
X170183480Y-112726565D01*
X170150328Y-112717682D01*
X170089705Y-112680730D01*
X170058684Y-112616869D01*
X170067114Y-112546375D01*
X170112317Y-112491629D01*
X170137417Y-112478488D01*
X170212637Y-112449348D01*
X170386041Y-112341981D01*
X170536764Y-112204579D01*
X170549810Y-112187304D01*
X170600537Y-112120130D01*
X170659673Y-112041821D01*
X170750582Y-111859250D01*
X170806397Y-111663083D01*
X170825215Y-111460000D01*
X170806397Y-111256917D01*
X170750582Y-111060750D01*
X170659673Y-110878179D01*
X170619744Y-110825304D01*
X170536765Y-110715421D01*
X170386040Y-110578018D01*
X170386039Y-110578017D01*
X170212648Y-110470658D01*
X170212641Y-110470654D01*
X170212637Y-110470652D01*
X170081847Y-110419984D01*
X170022457Y-110396976D01*
X169899726Y-110374034D01*
X169821976Y-110359500D01*
X169618024Y-110359500D01*
X169540279Y-110374033D01*
X169417542Y-110396976D01*
X169282239Y-110449393D01*
X169227363Y-110470652D01*
X169227362Y-110470652D01*
X169227361Y-110470653D01*
X169227351Y-110470658D01*
X169053960Y-110578017D01*
X169053959Y-110578018D01*
X168903234Y-110715421D01*
X168780329Y-110878175D01*
X168689416Y-111060754D01*
X168633603Y-111256915D01*
X168614785Y-111460000D01*
X168633603Y-111663084D01*
X168689416Y-111859245D01*
X168689417Y-111859247D01*
X168689418Y-111859250D01*
X168780327Y-112041821D01*
X168780328Y-112041822D01*
X168780329Y-112041824D01*
X168903234Y-112204578D01*
X169053959Y-112341981D01*
X169053960Y-112341982D01*
X169227351Y-112449341D01*
X169227354Y-112449342D01*
X169227363Y-112449348D01*
X169302577Y-112478486D01*
X169358870Y-112521743D01*
X169382841Y-112588571D01*
X169366877Y-112657749D01*
X169316047Y-112707315D01*
X169289672Y-112717682D01*
X169256516Y-112726566D01*
X169256506Y-112726570D01*
X169042421Y-112826400D01*
X168848925Y-112961887D01*
X168848919Y-112961892D01*
X168681892Y-113128919D01*
X168681887Y-113128925D01*
X168546400Y-113322421D01*
X168446570Y-113536506D01*
X168446568Y-113536511D01*
X168389363Y-113750000D01*
X165701522Y-113750000D01*
X165700500Y-113740495D01*
X165700500Y-111459280D01*
X165720502Y-111391159D01*
X165722804Y-111387704D01*
X165730158Y-111377050D01*
X165780220Y-111304523D01*
X165836237Y-111156818D01*
X165855278Y-111000000D01*
X165851890Y-110972094D01*
X165836238Y-110843184D01*
X165825675Y-110815332D01*
X165780220Y-110695477D01*
X165780216Y-110695472D01*
X165780216Y-110695470D01*
X165690483Y-110565470D01*
X165690481Y-110565468D01*
X165572240Y-110460717D01*
X165432365Y-110387304D01*
X165432361Y-110387302D01*
X165278987Y-110349500D01*
X165278985Y-110349500D01*
X165121015Y-110349500D01*
X165121012Y-110349500D01*
X164967638Y-110387302D01*
X164967634Y-110387304D01*
X164827759Y-110460717D01*
X164709518Y-110565468D01*
X164709516Y-110565470D01*
X164619783Y-110695470D01*
X164619782Y-110695473D01*
X164619781Y-110695475D01*
X164619780Y-110695477D01*
X164604091Y-110736844D01*
X164563761Y-110843184D01*
X164544722Y-110999996D01*
X164544722Y-111000003D01*
X164563762Y-111156816D01*
X164619778Y-111304518D01*
X164619782Y-111304526D01*
X164677196Y-111387704D01*
X164699432Y-111455129D01*
X164699500Y-111459280D01*
X164699500Y-112070682D01*
X164679498Y-112138803D01*
X164625842Y-112185296D01*
X164555568Y-112195400D01*
X164490988Y-112165906D01*
X164489947Y-112164995D01*
X164372240Y-112060717D01*
X164232365Y-111987304D01*
X164232361Y-111987302D01*
X164084329Y-111950817D01*
X164025387Y-111917573D01*
X163660247Y-111552433D01*
X163626221Y-111490121D01*
X163631286Y-111419306D01*
X163673833Y-111362470D01*
X163701121Y-111346930D01*
X163718173Y-111339868D01*
X163843614Y-111243614D01*
X163939868Y-111118173D01*
X164000376Y-110972094D01*
X164021014Y-110815332D01*
X164020752Y-110813345D01*
X164008741Y-110722110D01*
X164000376Y-110658570D01*
X163939868Y-110512491D01*
X163843614Y-110387050D01*
X163843612Y-110387048D01*
X163843608Y-110387043D01*
X163837775Y-110381210D01*
X163840254Y-110378730D01*
X163807922Y-110334438D01*
X163800500Y-110291831D01*
X163800500Y-109707259D01*
X163820502Y-109639138D01*
X163826538Y-109630555D01*
X163889719Y-109548215D01*
X163924536Y-109502841D01*
X163985044Y-109356762D01*
X164005682Y-109200000D01*
X163997688Y-109139283D01*
X163990564Y-109085165D01*
X163985044Y-109043238D01*
X163924536Y-108897159D01*
X163828282Y-108771718D01*
X163702841Y-108675464D01*
X163697318Y-108673176D01*
X163556760Y-108614955D01*
X163400000Y-108594318D01*
X163243239Y-108614955D01*
X163097160Y-108675463D01*
X163097157Y-108675465D01*
X163007221Y-108744476D01*
X162941000Y-108770076D01*
X162871452Y-108755811D01*
X162841422Y-108733608D01*
X160080909Y-105973095D01*
X160046883Y-105910783D01*
X160051948Y-105839968D01*
X160094495Y-105783132D01*
X160161015Y-105758321D01*
X160170004Y-105758000D01*
X160360959Y-105758000D01*
X160429080Y-105778002D01*
X160430958Y-105779233D01*
X160446478Y-105789603D01*
X160452260Y-105793466D01*
X160525326Y-105808000D01*
X161918183Y-105808000D01*
X161986304Y-105828002D01*
X162032797Y-105881658D01*
X162042901Y-105951932D01*
X162013407Y-106016512D01*
X162001735Y-106028313D01*
X161959022Y-106066152D01*
X161959016Y-106066158D01*
X161869283Y-106196158D01*
X161869282Y-106196161D01*
X161869281Y-106196163D01*
X161869280Y-106196165D01*
X161861812Y-106215856D01*
X161813261Y-106343872D01*
X161794222Y-106500684D01*
X161794222Y-106500691D01*
X161813261Y-106657503D01*
X161835854Y-106717075D01*
X161869280Y-106805211D01*
X161869281Y-106805213D01*
X161869282Y-106805214D01*
X161869283Y-106805217D01*
X161959016Y-106935217D01*
X161959018Y-106935219D01*
X161983800Y-106957174D01*
X162077260Y-107039971D01*
X162217135Y-107113384D01*
X162217136Y-107113384D01*
X162217138Y-107113385D01*
X162293825Y-107132286D01*
X162370515Y-107151188D01*
X162370517Y-107151188D01*
X162528483Y-107151188D01*
X162528485Y-107151188D01*
X162681865Y-107113384D01*
X162821740Y-107039971D01*
X162881110Y-106987373D01*
X162945361Y-106957174D01*
X163015742Y-106966505D01*
X163041362Y-106981721D01*
X163097159Y-107024536D01*
X163243238Y-107085044D01*
X163400000Y-107105682D01*
X163556762Y-107085044D01*
X163702841Y-107024536D01*
X163828282Y-106928282D01*
X163924536Y-106802841D01*
X163985044Y-106656762D01*
X164005682Y-106500000D01*
X163985044Y-106343238D01*
X163924536Y-106197159D01*
X163828282Y-106071718D01*
X163828280Y-106071717D01*
X163828280Y-106071716D01*
X163800482Y-106050385D01*
X163758616Y-105993046D01*
X163751188Y-105950424D01*
X163751188Y-105555040D01*
X163771190Y-105486919D01*
X163824846Y-105440426D01*
X163895120Y-105430322D01*
X163935742Y-105443472D01*
X164067635Y-105512696D01*
X164067636Y-105512696D01*
X164067638Y-105512697D01*
X164144325Y-105531598D01*
X164221015Y-105550500D01*
X164221017Y-105550500D01*
X164378983Y-105550500D01*
X164378985Y-105550500D01*
X164532365Y-105512696D01*
X164672240Y-105439283D01*
X164790483Y-105334530D01*
X164875192Y-105211808D01*
X164880216Y-105204529D01*
X164880216Y-105204528D01*
X164880220Y-105204523D01*
X164936237Y-105056818D01*
X164936237Y-105056817D01*
X164936238Y-105056815D01*
X164955278Y-104900003D01*
X164955278Y-104899996D01*
X164936238Y-104743184D01*
X164922401Y-104706699D01*
X164880220Y-104595477D01*
X164880216Y-104595472D01*
X164880216Y-104595470D01*
X164814662Y-104500500D01*
X164790483Y-104465470D01*
X164742945Y-104423355D01*
X164705221Y-104363211D01*
X164700500Y-104329044D01*
X164700500Y-100070955D01*
X164720502Y-100002834D01*
X164742945Y-99976644D01*
X164790483Y-99934530D01*
X164880220Y-99804523D01*
X164936237Y-99656818D01*
X164936237Y-99656817D01*
X164936238Y-99656815D01*
X164955278Y-99500003D01*
X164955278Y-99499996D01*
X164936238Y-99343184D01*
X164923986Y-99310879D01*
X164880220Y-99195477D01*
X164880216Y-99195472D01*
X164880216Y-99195470D01*
X164790483Y-99065470D01*
X164790481Y-99065468D01*
X164672240Y-98960717D01*
X164532365Y-98887304D01*
X164532362Y-98887303D01*
X164447481Y-98866382D01*
X164386127Y-98830658D01*
X164353825Y-98767435D01*
X164359576Y-98700020D01*
X164361454Y-98694985D01*
X164361912Y-98693755D01*
X164363625Y-98689620D01*
X164385165Y-98642457D01*
X164385819Y-98637901D01*
X164392483Y-98611791D01*
X164394091Y-98607483D01*
X164397789Y-98555770D01*
X164398265Y-98551338D01*
X164400500Y-98535799D01*
X164400500Y-98520130D01*
X164400661Y-98515634D01*
X164402833Y-98485262D01*
X164404359Y-98463927D01*
X164403379Y-98459420D01*
X164400500Y-98432640D01*
X164400500Y-96359280D01*
X164420502Y-96291159D01*
X164422804Y-96287704D01*
X164431220Y-96275511D01*
X164480220Y-96204523D01*
X164536237Y-96056818D01*
X164550882Y-95936203D01*
X164555278Y-95900003D01*
X164555278Y-95899996D01*
X164536238Y-95743184D01*
X164523770Y-95710310D01*
X164480220Y-95595477D01*
X164480216Y-95595472D01*
X164480216Y-95595470D01*
X164390483Y-95465470D01*
X164390481Y-95465468D01*
X164272240Y-95360717D01*
X164132365Y-95287304D01*
X164132361Y-95287302D01*
X163978987Y-95249500D01*
X163978985Y-95249500D01*
X163821015Y-95249500D01*
X163821012Y-95249500D01*
X163667638Y-95287302D01*
X163667634Y-95287304D01*
X163527759Y-95360717D01*
X163409518Y-95465468D01*
X163409516Y-95465470D01*
X163319783Y-95595470D01*
X163319782Y-95595473D01*
X163263761Y-95743184D01*
X163244722Y-95899996D01*
X163244722Y-95900003D01*
X163263762Y-96056816D01*
X163319778Y-96204518D01*
X163319784Y-96204530D01*
X163377195Y-96287705D01*
X163399431Y-96355129D01*
X163399499Y-96359280D01*
X163399499Y-98240495D01*
X163379497Y-98308616D01*
X163362594Y-98329590D01*
X162933978Y-98758206D01*
X162920410Y-98769965D01*
X162919338Y-98770767D01*
X162919325Y-98770778D01*
X162908235Y-98781866D01*
X162904949Y-98784925D01*
X162865777Y-98818868D01*
X162865774Y-98818873D01*
X162863277Y-98822758D01*
X162846381Y-98843721D01*
X162515595Y-99174507D01*
X162453283Y-99208533D01*
X162382468Y-99203468D01*
X162325632Y-99160921D01*
X162300821Y-99094401D01*
X162300500Y-99085412D01*
X162300500Y-98582825D01*
X162300499Y-98582822D01*
X162299828Y-98579451D01*
X162285966Y-98509760D01*
X162230601Y-98426899D01*
X162156317Y-98377264D01*
X162110790Y-98322789D01*
X162101941Y-98252346D01*
X162132582Y-98188302D01*
X162156315Y-98167736D01*
X162230601Y-98118101D01*
X162285966Y-98035240D01*
X162300500Y-97962174D01*
X162300500Y-97312826D01*
X162285966Y-97239760D01*
X162285963Y-97239756D01*
X162284115Y-97235293D01*
X162276524Y-97164704D01*
X162308302Y-97101216D01*
X162325014Y-97086204D01*
X162407189Y-97024688D01*
X162493352Y-96909589D01*
X162543599Y-96774871D01*
X162549999Y-96715340D01*
X162550000Y-96715323D01*
X162550000Y-96617500D01*
X160050000Y-96617500D01*
X160050000Y-96715340D01*
X160056400Y-96774871D01*
X160106647Y-96909589D01*
X160126037Y-96935490D01*
X160150849Y-97002010D01*
X160135758Y-97071384D01*
X160085557Y-97121587D01*
X160025170Y-97137000D01*
X159090801Y-97137000D01*
X159022680Y-97116998D01*
X158976187Y-97063342D01*
X158966083Y-96993068D01*
X158987105Y-96939424D01*
X159080216Y-96804529D01*
X159080216Y-96804528D01*
X159080220Y-96804523D01*
X159136237Y-96656818D01*
X159136237Y-96656817D01*
X159136238Y-96656815D01*
X159155278Y-96500003D01*
X159155278Y-96499996D01*
X159136238Y-96343184D01*
X159109438Y-96272519D01*
X159080220Y-96195477D01*
X159026397Y-96117500D01*
X160050000Y-96117500D01*
X161050000Y-96117500D01*
X161050000Y-95567500D01*
X161550000Y-95567500D01*
X161550000Y-96117500D01*
X162550000Y-96117500D01*
X162550000Y-96019676D01*
X162549999Y-96019659D01*
X162543599Y-95960128D01*
X162493352Y-95825410D01*
X162407189Y-95710310D01*
X162292089Y-95624147D01*
X162157371Y-95573900D01*
X162097840Y-95567500D01*
X161550000Y-95567500D01*
X161050000Y-95567500D01*
X160502159Y-95567500D01*
X160442628Y-95573900D01*
X160307910Y-95624147D01*
X160192810Y-95710310D01*
X160106647Y-95825410D01*
X160056400Y-95960128D01*
X160050000Y-96019659D01*
X160050000Y-96117500D01*
X159026397Y-96117500D01*
X159022804Y-96112295D01*
X159000568Y-96044870D01*
X159000500Y-96040719D01*
X159000500Y-95167357D01*
X159003379Y-95140576D01*
X159004359Y-95136073D01*
X159001603Y-95097536D01*
X159000661Y-95084363D01*
X159000500Y-95079867D01*
X159000500Y-95064201D01*
X158999926Y-95060209D01*
X158998264Y-95048657D01*
X158997788Y-95044216D01*
X158997751Y-95043704D01*
X158994091Y-94992517D01*
X158992481Y-94988202D01*
X158985821Y-94962107D01*
X158985165Y-94957543D01*
X158963624Y-94910376D01*
X158961910Y-94906237D01*
X158961209Y-94904358D01*
X158947446Y-94867454D01*
X158943798Y-94857672D01*
X158943702Y-94857544D01*
X158941031Y-94853975D01*
X158927289Y-94830814D01*
X158925377Y-94826627D01*
X158920507Y-94819050D01*
X158922440Y-94817807D01*
X158900829Y-94760024D01*
X158900500Y-94750922D01*
X158900500Y-94471681D01*
X158920502Y-94403560D01*
X158926204Y-94398618D01*
X158902207Y-94348985D01*
X158900500Y-94328318D01*
X158900500Y-94216958D01*
X158920502Y-94148837D01*
X158929976Y-94135969D01*
X158934770Y-94130256D01*
X158952698Y-94108889D01*
X159011804Y-94069564D01*
X159082791Y-94068436D01*
X159143120Y-94105865D01*
X159173636Y-94169969D01*
X159167034Y-94234554D01*
X159163762Y-94243182D01*
X159151581Y-94343505D01*
X159126013Y-94402911D01*
X159147396Y-94436183D01*
X159151581Y-94456494D01*
X159163761Y-94556815D01*
X159186912Y-94617857D01*
X159219780Y-94704523D01*
X159219781Y-94704525D01*
X159219782Y-94704526D01*
X159219783Y-94704529D01*
X159297974Y-94817807D01*
X159309517Y-94834530D01*
X159427760Y-94939283D01*
X159567635Y-95012696D01*
X159567636Y-95012696D01*
X159567638Y-95012697D01*
X159616752Y-95024802D01*
X159721015Y-95050500D01*
X159721017Y-95050500D01*
X159878983Y-95050500D01*
X159878985Y-95050500D01*
X160032365Y-95012696D01*
X160172240Y-94939283D01*
X160180248Y-94932188D01*
X160244500Y-94901987D01*
X160263802Y-94900500D01*
X164332642Y-94900500D01*
X164359426Y-94903379D01*
X164363927Y-94904359D01*
X164400265Y-94901759D01*
X164415634Y-94900661D01*
X164420130Y-94900500D01*
X164435798Y-94900500D01*
X164435799Y-94900500D01*
X164451338Y-94898265D01*
X164455770Y-94897789D01*
X164507483Y-94894091D01*
X164511791Y-94892483D01*
X164537901Y-94885819D01*
X164542457Y-94885165D01*
X164589640Y-94863616D01*
X164593739Y-94861918D01*
X164642331Y-94843796D01*
X164646017Y-94841036D01*
X164669183Y-94827289D01*
X164673373Y-94825377D01*
X164712547Y-94791432D01*
X164716045Y-94788613D01*
X164728593Y-94779221D01*
X164739686Y-94768126D01*
X164742951Y-94765086D01*
X164782143Y-94731128D01*
X164784629Y-94727258D01*
X164801537Y-94706276D01*
X165195562Y-94312251D01*
X165290451Y-94217362D01*
X165352762Y-94183337D01*
X165423577Y-94188402D01*
X165480413Y-94230949D01*
X165505224Y-94297469D01*
X165504467Y-94322903D01*
X165494318Y-94399998D01*
X165494318Y-94400000D01*
X165514955Y-94556760D01*
X165575463Y-94702839D01*
X165579595Y-94709995D01*
X165577665Y-94711108D01*
X165599062Y-94766444D01*
X165599500Y-94776936D01*
X165599500Y-96632640D01*
X165596621Y-96659420D01*
X165595641Y-96663923D01*
X165595641Y-96663928D01*
X165599339Y-96715634D01*
X165599500Y-96720130D01*
X165599500Y-96735799D01*
X165601729Y-96751311D01*
X165602209Y-96755778D01*
X165605908Y-96807480D01*
X165605910Y-96807488D01*
X165607521Y-96811808D01*
X165614177Y-96837883D01*
X165614834Y-96842455D01*
X165614836Y-96842462D01*
X165636365Y-96889603D01*
X165638086Y-96893757D01*
X165641708Y-96903466D01*
X165656204Y-96942331D01*
X165656205Y-96942332D01*
X165658968Y-96946024D01*
X165672706Y-96969178D01*
X165674619Y-96973367D01*
X165674621Y-96973370D01*
X165674622Y-96973371D01*
X165674623Y-96973373D01*
X165684146Y-96984363D01*
X165708565Y-97012544D01*
X165711379Y-97016036D01*
X165720779Y-97028593D01*
X165731865Y-97039679D01*
X165734919Y-97042959D01*
X165768872Y-97082143D01*
X165772751Y-97084635D01*
X165793723Y-97101537D01*
X166635961Y-97943775D01*
X166652862Y-97964746D01*
X166655356Y-97968627D01*
X166694538Y-98002578D01*
X166697817Y-98005631D01*
X166708907Y-98016721D01*
X166721463Y-98026120D01*
X166724956Y-98028935D01*
X166764127Y-98062877D01*
X166768314Y-98064789D01*
X166791475Y-98078531D01*
X166795169Y-98081296D01*
X166795172Y-98081298D01*
X166828409Y-98093693D01*
X166843746Y-98099414D01*
X166847876Y-98101124D01*
X166895043Y-98122665D01*
X166899607Y-98123321D01*
X166925702Y-98129981D01*
X166930017Y-98131591D01*
X166981728Y-98135289D01*
X166986157Y-98135764D01*
X167001701Y-98138000D01*
X167017370Y-98138000D01*
X167021866Y-98138161D01*
X167037544Y-98139282D01*
X167073573Y-98141859D01*
X167078073Y-98140879D01*
X167104858Y-98138000D01*
X167460959Y-98138000D01*
X167529080Y-98158002D01*
X167530955Y-98159231D01*
X167543675Y-98167730D01*
X167543680Y-98167733D01*
X167589209Y-98222208D01*
X167598059Y-98292651D01*
X167567420Y-98356696D01*
X167543680Y-98377267D01*
X167530958Y-98385767D01*
X167463204Y-98406980D01*
X167460959Y-98407000D01*
X166759858Y-98407000D01*
X166733073Y-98404120D01*
X166728573Y-98403141D01*
X166728572Y-98403141D01*
X166676866Y-98406839D01*
X166672370Y-98407000D01*
X166656701Y-98407000D01*
X166641190Y-98409229D01*
X166636723Y-98409709D01*
X166585016Y-98413409D01*
X166585012Y-98413409D01*
X166580686Y-98415023D01*
X166554617Y-98421676D01*
X166550048Y-98422333D01*
X166550044Y-98422334D01*
X166502889Y-98443869D01*
X166498739Y-98445587D01*
X166497133Y-98446187D01*
X166450170Y-98463702D01*
X166446475Y-98466469D01*
X166423319Y-98480207D01*
X166422469Y-98480596D01*
X166419125Y-98482123D01*
X166379954Y-98516064D01*
X166376455Y-98518884D01*
X166363911Y-98528275D01*
X166363908Y-98528278D01*
X166352817Y-98539366D01*
X166349531Y-98542425D01*
X166310359Y-98576368D01*
X166310356Y-98576373D01*
X166307859Y-98580258D01*
X166290963Y-98601221D01*
X165493721Y-99398463D01*
X165472758Y-99415359D01*
X165468873Y-99417856D01*
X165468868Y-99417859D01*
X165434925Y-99457031D01*
X165431866Y-99460317D01*
X165420778Y-99471408D01*
X165420775Y-99471411D01*
X165411384Y-99483955D01*
X165408564Y-99487454D01*
X165374623Y-99526625D01*
X165372709Y-99530818D01*
X165358969Y-99553975D01*
X165356202Y-99557670D01*
X165338090Y-99606234D01*
X165336369Y-99610389D01*
X165314834Y-99657544D01*
X165314833Y-99657548D01*
X165314176Y-99662117D01*
X165307523Y-99688186D01*
X165305909Y-99692512D01*
X165305909Y-99692516D01*
X165302209Y-99744223D01*
X165301729Y-99748690D01*
X165299500Y-99764201D01*
X165299500Y-99779867D01*
X165299339Y-99784363D01*
X165297897Y-99804526D01*
X165295641Y-99836073D01*
X165296620Y-99840576D01*
X165299500Y-99867357D01*
X165299500Y-105532640D01*
X165296621Y-105559420D01*
X165295641Y-105563923D01*
X165295641Y-105563928D01*
X165299339Y-105615634D01*
X165299500Y-105620130D01*
X165299500Y-105635799D01*
X165301729Y-105651311D01*
X165302209Y-105655778D01*
X165305908Y-105707480D01*
X165305910Y-105707488D01*
X165307521Y-105711808D01*
X165314177Y-105737883D01*
X165314834Y-105742455D01*
X165314836Y-105742462D01*
X165336365Y-105789603D01*
X165338086Y-105793757D01*
X165343399Y-105808000D01*
X165356204Y-105842331D01*
X165356205Y-105842332D01*
X165358968Y-105846024D01*
X165372706Y-105869178D01*
X165374619Y-105873367D01*
X165374621Y-105873370D01*
X165374622Y-105873371D01*
X165374623Y-105873373D01*
X165405807Y-105909361D01*
X165408565Y-105912544D01*
X165411379Y-105916036D01*
X165420779Y-105928593D01*
X165431865Y-105939679D01*
X165434920Y-105942960D01*
X165450902Y-105961405D01*
X165468872Y-105982143D01*
X165472751Y-105984635D01*
X165493723Y-106001537D01*
X168398461Y-108906275D01*
X168415362Y-108927246D01*
X168417856Y-108931127D01*
X168457038Y-108965078D01*
X168460317Y-108968131D01*
X168471407Y-108979221D01*
X168483963Y-108988620D01*
X168487456Y-108991435D01*
X168526627Y-109025377D01*
X168530814Y-109027289D01*
X168553975Y-109041031D01*
X168556924Y-109043238D01*
X168557672Y-109043798D01*
X168588658Y-109055354D01*
X168606246Y-109061914D01*
X168610376Y-109063624D01*
X168657543Y-109085165D01*
X168662107Y-109085821D01*
X168688202Y-109092481D01*
X168692517Y-109094091D01*
X168744228Y-109097789D01*
X168748657Y-109098264D01*
X168764201Y-109100500D01*
X168779870Y-109100500D01*
X168784366Y-109100661D01*
X168800547Y-109101817D01*
X168836073Y-109104359D01*
X168840573Y-109103379D01*
X168867358Y-109100500D01*
X170940495Y-109100500D01*
X171008616Y-109120502D01*
X171029590Y-109137404D01*
X171722595Y-109830408D01*
X171756620Y-109892721D01*
X171759500Y-109919504D01*
X171759500Y-110405338D01*
X171739498Y-110473459D01*
X171699831Y-110512465D01*
X171593957Y-110578019D01*
X171443234Y-110715421D01*
X171320329Y-110878175D01*
X171229416Y-111060754D01*
X171173603Y-111256915D01*
X171154785Y-111460000D01*
X171173603Y-111663084D01*
X171229416Y-111859245D01*
X171229417Y-111859247D01*
X171229418Y-111859250D01*
X171320327Y-112041821D01*
X171320328Y-112041822D01*
X171320329Y-112041824D01*
X171443234Y-112204578D01*
X171593959Y-112341981D01*
X171593960Y-112341982D01*
X171767351Y-112449341D01*
X171767354Y-112449342D01*
X171767363Y-112449348D01*
X171957544Y-112523024D01*
X172158024Y-112560500D01*
X172158026Y-112560500D01*
X172361974Y-112560500D01*
X172361976Y-112560500D01*
X172562456Y-112523024D01*
X172752637Y-112449348D01*
X172926041Y-112341981D01*
X173076764Y-112204579D01*
X173089810Y-112187304D01*
X173140537Y-112120130D01*
X173199673Y-112041821D01*
X173290582Y-111859250D01*
X173346397Y-111663083D01*
X173365215Y-111460000D01*
X173346397Y-111256917D01*
X173290582Y-111060750D01*
X173199673Y-110878179D01*
X173159744Y-110825304D01*
X173076765Y-110715421D01*
X172926040Y-110578018D01*
X172926039Y-110578017D01*
X172820169Y-110512465D01*
X172772781Y-110459598D01*
X172760499Y-110405342D01*
X172760499Y-109727355D01*
X172763380Y-109700566D01*
X172764358Y-109696073D01*
X172761161Y-109651368D01*
X172760661Y-109644374D01*
X172760500Y-109639878D01*
X172760500Y-109624199D01*
X172759073Y-109614279D01*
X172758265Y-109608662D01*
X172757789Y-109604241D01*
X172754091Y-109552517D01*
X172752481Y-109548202D01*
X172745821Y-109522107D01*
X172745165Y-109517543D01*
X172723624Y-109470376D01*
X172721910Y-109466237D01*
X172703798Y-109417672D01*
X172703796Y-109417669D01*
X172701031Y-109413975D01*
X172687289Y-109390814D01*
X172685377Y-109386627D01*
X172671324Y-109370409D01*
X172651428Y-109347447D01*
X172648607Y-109343946D01*
X172644310Y-109338207D01*
X172639220Y-109331407D01*
X172628139Y-109320326D01*
X172625085Y-109317046D01*
X172612042Y-109301993D01*
X172591128Y-109277857D01*
X172591127Y-109277856D01*
X172591126Y-109277855D01*
X172587245Y-109275361D01*
X172566276Y-109258463D01*
X171601531Y-108293717D01*
X171584635Y-108272751D01*
X171582143Y-108268872D01*
X171542959Y-108234919D01*
X171539679Y-108231865D01*
X171528593Y-108220779D01*
X171516036Y-108211379D01*
X171512544Y-108208565D01*
X171473373Y-108174623D01*
X171473371Y-108174622D01*
X171473370Y-108174621D01*
X171473367Y-108174619D01*
X171469178Y-108172706D01*
X171446024Y-108158968D01*
X171442332Y-108156205D01*
X171442331Y-108156204D01*
X171411944Y-108144870D01*
X171393757Y-108138086D01*
X171389603Y-108136365D01*
X171342462Y-108114836D01*
X171342455Y-108114834D01*
X171337883Y-108114177D01*
X171311808Y-108107521D01*
X171307488Y-108105910D01*
X171307480Y-108105908D01*
X171255778Y-108102209D01*
X171251311Y-108101729D01*
X171235799Y-108099500D01*
X171220130Y-108099500D01*
X171215634Y-108099339D01*
X171163927Y-108095641D01*
X171163926Y-108095641D01*
X171159427Y-108096620D01*
X171132642Y-108099500D01*
X169059504Y-108099500D01*
X168991383Y-108079498D01*
X168970409Y-108062595D01*
X166337405Y-105429591D01*
X166303379Y-105367279D01*
X166300500Y-105340496D01*
X166300500Y-100059504D01*
X166320502Y-99991383D01*
X166337405Y-99970408D01*
X166862910Y-99444904D01*
X166925222Y-99410879D01*
X166952005Y-99408000D01*
X167460959Y-99408000D01*
X167529080Y-99428002D01*
X167530918Y-99429206D01*
X167543679Y-99437732D01*
X167589207Y-99492205D01*
X167598059Y-99562648D01*
X167567421Y-99626693D01*
X167543682Y-99647264D01*
X167469399Y-99696898D01*
X167414033Y-99779760D01*
X167399500Y-99852822D01*
X167399500Y-100502177D01*
X167414033Y-100575240D01*
X167415885Y-100579709D01*
X167423474Y-100650299D01*
X167391694Y-100713786D01*
X167374986Y-100728795D01*
X167292809Y-100790312D01*
X167206647Y-100905410D01*
X167156400Y-101040128D01*
X167150000Y-101099659D01*
X167150000Y-101197500D01*
X169650000Y-101197500D01*
X169650000Y-101099676D01*
X169649999Y-101099659D01*
X169643599Y-101040128D01*
X169593352Y-100905410D01*
X169573963Y-100879510D01*
X169549151Y-100812990D01*
X169564242Y-100743616D01*
X169614443Y-100693413D01*
X169674830Y-100678000D01*
X169755142Y-100678000D01*
X169781926Y-100680879D01*
X169786427Y-100681859D01*
X169822765Y-100679259D01*
X169838134Y-100678161D01*
X169842630Y-100678000D01*
X169858298Y-100678000D01*
X169858299Y-100678000D01*
X169873838Y-100675765D01*
X169878270Y-100675289D01*
X169929983Y-100671591D01*
X169934291Y-100669983D01*
X169960401Y-100663319D01*
X169964957Y-100662665D01*
X170012140Y-100641116D01*
X170016239Y-100639418D01*
X170064831Y-100621296D01*
X170068517Y-100618536D01*
X170091683Y-100604789D01*
X170095873Y-100602877D01*
X170135047Y-100568932D01*
X170138545Y-100566113D01*
X170151093Y-100556721D01*
X170162186Y-100545626D01*
X170165451Y-100542586D01*
X170204643Y-100508628D01*
X170207131Y-100504756D01*
X170224034Y-100483778D01*
X171606278Y-99101534D01*
X171627256Y-99084631D01*
X171631128Y-99082143D01*
X171665086Y-99042951D01*
X171668126Y-99039686D01*
X171679221Y-99028593D01*
X171688613Y-99016045D01*
X171691432Y-99012547D01*
X171704868Y-98997041D01*
X171725377Y-98973373D01*
X171727289Y-98969183D01*
X171741036Y-98946017D01*
X171743796Y-98942331D01*
X171761918Y-98893739D01*
X171763616Y-98889640D01*
X171785165Y-98842457D01*
X171785819Y-98837901D01*
X171792483Y-98811791D01*
X171794091Y-98807483D01*
X171797789Y-98755770D01*
X171798265Y-98751338D01*
X171800500Y-98735799D01*
X171800500Y-98720130D01*
X171800661Y-98715634D01*
X171801961Y-98697454D01*
X171804359Y-98663927D01*
X171803379Y-98659420D01*
X171800500Y-98632640D01*
X171800500Y-96467357D01*
X171803379Y-96440576D01*
X171804359Y-96436073D01*
X171802103Y-96404531D01*
X171800661Y-96384363D01*
X171800500Y-96379867D01*
X171800500Y-96364201D01*
X171799792Y-96359280D01*
X171798264Y-96348657D01*
X171797788Y-96344216D01*
X171797714Y-96343184D01*
X171794091Y-96292517D01*
X171792481Y-96288202D01*
X171785821Y-96262107D01*
X171785165Y-96257543D01*
X171763624Y-96210376D01*
X171761910Y-96206237D01*
X171761273Y-96204530D01*
X171756193Y-96190909D01*
X171743798Y-96157672D01*
X171743796Y-96157669D01*
X171741031Y-96153975D01*
X171727289Y-96130814D01*
X171725377Y-96126627D01*
X171691435Y-96087456D01*
X171688620Y-96083963D01*
X171679221Y-96071407D01*
X171668131Y-96060317D01*
X171665078Y-96057038D01*
X171664887Y-96056818D01*
X171631128Y-96017857D01*
X171631127Y-96017856D01*
X171627246Y-96015362D01*
X171606275Y-95998461D01*
X170101537Y-94493723D01*
X170084635Y-94472751D01*
X170082143Y-94468872D01*
X170074678Y-94462404D01*
X170042960Y-94434920D01*
X170039679Y-94431865D01*
X170028593Y-94420779D01*
X170016036Y-94411379D01*
X170012544Y-94408565D01*
X169973373Y-94374623D01*
X169973371Y-94374622D01*
X169973370Y-94374621D01*
X169973367Y-94374619D01*
X169969178Y-94372706D01*
X169946024Y-94358968D01*
X169942332Y-94356205D01*
X169942331Y-94356204D01*
X169912185Y-94344960D01*
X169893757Y-94338086D01*
X169889603Y-94336365D01*
X169842462Y-94314836D01*
X169842455Y-94314834D01*
X169837883Y-94314177D01*
X169811808Y-94307521D01*
X169807488Y-94305910D01*
X169807480Y-94305908D01*
X169755778Y-94302209D01*
X169751311Y-94301729D01*
X169735799Y-94299500D01*
X169720130Y-94299500D01*
X169715634Y-94299339D01*
X169654937Y-94294998D01*
X169655121Y-94292425D01*
X169599043Y-94280218D01*
X169575889Y-94263950D01*
X169572241Y-94260718D01*
X169572239Y-94260716D01*
X169432365Y-94187304D01*
X169432361Y-94187302D01*
X169276304Y-94148839D01*
X169214949Y-94113116D01*
X169200135Y-94084120D01*
X169188767Y-94109012D01*
X169129041Y-94147396D01*
X169123696Y-94148839D01*
X168967638Y-94187302D01*
X168967634Y-94187304D01*
X168827759Y-94260717D01*
X168709518Y-94365468D01*
X168709516Y-94365470D01*
X168619783Y-94495470D01*
X168619782Y-94495473D01*
X168563761Y-94643184D01*
X168544722Y-94799996D01*
X168544722Y-94800003D01*
X168563761Y-94956815D01*
X168587018Y-95018137D01*
X168619780Y-95104523D01*
X168619781Y-95104525D01*
X168619782Y-95104526D01*
X168619783Y-95104529D01*
X168709516Y-95234529D01*
X168709518Y-95234531D01*
X168725731Y-95248894D01*
X168827760Y-95339283D01*
X168967635Y-95412696D01*
X168967636Y-95412696D01*
X168967638Y-95412697D01*
X169044325Y-95431598D01*
X169121015Y-95450500D01*
X169121017Y-95450500D01*
X169278983Y-95450500D01*
X169278985Y-95450500D01*
X169432365Y-95412696D01*
X169463411Y-95396401D01*
X169533021Y-95382455D01*
X169599124Y-95408357D01*
X169611060Y-95418874D01*
X170762596Y-96570410D01*
X170796620Y-96632720D01*
X170799500Y-96659503D01*
X170799500Y-98440495D01*
X170779498Y-98508616D01*
X170762595Y-98529590D01*
X169652091Y-99640095D01*
X169589779Y-99674120D01*
X169562996Y-99677000D01*
X169339041Y-99677000D01*
X169270920Y-99656998D01*
X169269042Y-99655767D01*
X169256320Y-99647267D01*
X169210791Y-99592792D01*
X169201941Y-99522349D01*
X169232580Y-99458304D01*
X169256315Y-99437736D01*
X169330601Y-99388101D01*
X169385966Y-99305240D01*
X169400500Y-99232174D01*
X169400500Y-98582826D01*
X169385966Y-98509760D01*
X169330601Y-98426899D01*
X169256317Y-98377264D01*
X169210790Y-98322789D01*
X169201941Y-98252346D01*
X169232582Y-98188302D01*
X169256315Y-98167736D01*
X169330601Y-98118101D01*
X169385966Y-98035240D01*
X169400500Y-97962174D01*
X169400500Y-97312826D01*
X169385966Y-97239760D01*
X169330601Y-97156899D01*
X169330600Y-97156898D01*
X169256317Y-97107264D01*
X169210789Y-97052787D01*
X169201941Y-96982344D01*
X169232582Y-96918300D01*
X169256314Y-96897736D01*
X169330601Y-96848101D01*
X169385966Y-96765240D01*
X169400500Y-96692174D01*
X169400500Y-96042826D01*
X169385966Y-95969760D01*
X169330601Y-95886899D01*
X169247740Y-95831534D01*
X169247739Y-95831533D01*
X169174677Y-95817000D01*
X169174674Y-95817000D01*
X167625326Y-95817000D01*
X167625322Y-95817000D01*
X167552260Y-95831533D01*
X167469399Y-95886899D01*
X167414033Y-95969760D01*
X167399500Y-96042822D01*
X167399500Y-96692177D01*
X167414033Y-96765239D01*
X167431418Y-96791258D01*
X167469399Y-96848101D01*
X167530984Y-96889250D01*
X167543681Y-96897734D01*
X167589209Y-96952211D01*
X167598058Y-97022654D01*
X167567417Y-97086699D01*
X167543682Y-97107265D01*
X167530961Y-97115765D01*
X167463209Y-97136980D01*
X167460959Y-97137000D01*
X167297005Y-97137000D01*
X167228884Y-97116998D01*
X167207909Y-97100095D01*
X166637404Y-96529589D01*
X166603379Y-96467277D01*
X166600500Y-96440494D01*
X166600500Y-94776936D01*
X166620502Y-94708815D01*
X166623764Y-94704175D01*
X166624531Y-94702847D01*
X166624536Y-94702841D01*
X166685044Y-94556762D01*
X166705682Y-94400000D01*
X166685044Y-94243238D01*
X166624536Y-94097159D01*
X166624533Y-94097155D01*
X166620405Y-94090005D01*
X166623401Y-94088274D01*
X166603573Y-94036978D01*
X166617841Y-93967430D01*
X166667445Y-93916636D01*
X166729137Y-93900500D01*
X169093543Y-93900500D01*
X169161664Y-93920502D01*
X169200597Y-93965433D01*
X169233746Y-93923597D01*
X169300922Y-93900622D01*
X169306457Y-93900500D01*
X171136198Y-93900500D01*
X171204319Y-93920502D01*
X171219749Y-93932186D01*
X171227760Y-93939283D01*
X171367635Y-94012696D01*
X171367636Y-94012696D01*
X171367638Y-94012697D01*
X171444325Y-94031598D01*
X171521015Y-94050500D01*
X171521017Y-94050500D01*
X171678983Y-94050500D01*
X171678985Y-94050500D01*
X171832365Y-94012696D01*
X171914945Y-93969353D01*
X171984557Y-93955407D01*
X172050660Y-93981310D01*
X172092265Y-94038838D01*
X172099500Y-94080921D01*
X172099500Y-101932640D01*
X172096621Y-101959420D01*
X172095641Y-101963923D01*
X172095641Y-101963928D01*
X172099339Y-102015634D01*
X172099500Y-102020130D01*
X172099500Y-102035799D01*
X172101729Y-102051311D01*
X172102209Y-102055778D01*
X172105908Y-102107480D01*
X172105909Y-102107484D01*
X172107521Y-102111808D01*
X172114177Y-102137883D01*
X172114834Y-102142455D01*
X172114836Y-102142462D01*
X172136365Y-102189603D01*
X172138086Y-102193757D01*
X172145682Y-102214120D01*
X172156204Y-102242331D01*
X172156205Y-102242332D01*
X172158968Y-102246024D01*
X172172706Y-102269178D01*
X172174619Y-102273367D01*
X172174621Y-102273370D01*
X172174622Y-102273371D01*
X172174623Y-102273373D01*
X172190870Y-102292123D01*
X172208565Y-102312544D01*
X172211379Y-102316036D01*
X172220779Y-102328593D01*
X172231865Y-102339679D01*
X172234920Y-102342960D01*
X172262649Y-102374962D01*
X172268872Y-102382143D01*
X172272751Y-102384635D01*
X172293723Y-102401537D01*
X173721236Y-103829050D01*
X173755262Y-103891362D01*
X173757222Y-103902956D01*
X173761091Y-103934817D01*
X173749447Y-104004852D01*
X173701787Y-104057474D01*
X173633244Y-104075976D01*
X173565578Y-104054483D01*
X173546915Y-104039101D01*
X171919037Y-102411223D01*
X171902135Y-102390251D01*
X171899643Y-102386372D01*
X171894762Y-102382143D01*
X171860460Y-102352420D01*
X171857179Y-102349365D01*
X171846093Y-102338279D01*
X171833536Y-102328879D01*
X171830044Y-102326065D01*
X171822768Y-102319760D01*
X171790873Y-102292123D01*
X171790871Y-102292122D01*
X171790870Y-102292121D01*
X171790867Y-102292119D01*
X171786678Y-102290206D01*
X171763524Y-102276468D01*
X171759832Y-102273705D01*
X171759831Y-102273704D01*
X171734353Y-102264201D01*
X171711257Y-102255586D01*
X171707103Y-102253865D01*
X171659962Y-102232336D01*
X171659955Y-102232334D01*
X171655383Y-102231677D01*
X171629308Y-102225021D01*
X171624988Y-102223410D01*
X171624980Y-102223408D01*
X171573278Y-102219709D01*
X171568811Y-102219229D01*
X171553299Y-102217000D01*
X171537630Y-102217000D01*
X171533134Y-102216839D01*
X171481427Y-102213141D01*
X171481426Y-102213141D01*
X171476927Y-102214120D01*
X171450142Y-102217000D01*
X169674830Y-102217000D01*
X169606709Y-102196998D01*
X169560216Y-102143342D01*
X169550112Y-102073068D01*
X169573963Y-102015490D01*
X169593352Y-101989589D01*
X169643599Y-101854871D01*
X169649999Y-101795340D01*
X169650000Y-101795323D01*
X169650000Y-101697500D01*
X167150000Y-101697500D01*
X167150000Y-101795340D01*
X167156400Y-101854871D01*
X167206647Y-101989589D01*
X167292810Y-102104689D01*
X167374985Y-102166204D01*
X167417532Y-102223040D01*
X167422596Y-102293855D01*
X167415886Y-102315287D01*
X167414034Y-102319757D01*
X167399500Y-102392822D01*
X167399500Y-103042177D01*
X167414033Y-103115239D01*
X167429243Y-103138002D01*
X167469399Y-103198101D01*
X167529116Y-103238002D01*
X167543681Y-103247734D01*
X167589209Y-103302211D01*
X167598058Y-103372654D01*
X167567417Y-103436699D01*
X167543681Y-103457266D01*
X167469399Y-103506899D01*
X167414033Y-103589760D01*
X167399500Y-103662822D01*
X167399500Y-104312177D01*
X167414033Y-104385239D01*
X167414034Y-104385240D01*
X167469399Y-104468101D01*
X167524608Y-104504990D01*
X167543681Y-104517734D01*
X167589209Y-104572211D01*
X167598058Y-104642654D01*
X167567417Y-104706699D01*
X167543681Y-104727266D01*
X167469399Y-104776899D01*
X167414033Y-104859760D01*
X167399500Y-104932822D01*
X167399500Y-105582177D01*
X167414033Y-105655239D01*
X167424836Y-105671407D01*
X167469399Y-105738101D01*
X167552260Y-105793466D01*
X167625326Y-105808000D01*
X169174674Y-105808000D01*
X169247740Y-105793466D01*
X169269041Y-105779233D01*
X169336795Y-105758020D01*
X169339041Y-105758000D01*
X169797996Y-105758000D01*
X169866117Y-105778002D01*
X169887091Y-105794905D01*
X170121236Y-106029050D01*
X170155262Y-106091362D01*
X170157222Y-106102957D01*
X170163761Y-106156815D01*
X170184955Y-106212697D01*
X170219780Y-106304523D01*
X170219781Y-106304525D01*
X170219782Y-106304526D01*
X170219783Y-106304529D01*
X170309516Y-106434529D01*
X170309518Y-106434531D01*
X170326415Y-106449500D01*
X170427760Y-106539283D01*
X170567635Y-106612696D01*
X170567636Y-106612696D01*
X170567638Y-106612697D01*
X170644325Y-106631598D01*
X170721015Y-106650500D01*
X170721017Y-106650500D01*
X170878983Y-106650500D01*
X170878985Y-106650500D01*
X171032365Y-106612696D01*
X171172240Y-106539283D01*
X171290483Y-106434530D01*
X171380220Y-106304523D01*
X171436237Y-106156818D01*
X171436237Y-106156817D01*
X171436238Y-106156815D01*
X171455278Y-106000003D01*
X171455278Y-105999996D01*
X171436238Y-105843184D01*
X171426532Y-105817592D01*
X171380220Y-105695477D01*
X171380216Y-105695472D01*
X171380216Y-105695470D01*
X171290483Y-105565470D01*
X171290481Y-105565468D01*
X171172240Y-105460717D01*
X171032365Y-105387304D01*
X171032361Y-105387302D01*
X170884329Y-105350817D01*
X170825387Y-105317573D01*
X170459037Y-104951223D01*
X170442135Y-104930251D01*
X170439643Y-104926372D01*
X170410208Y-104900867D01*
X170400460Y-104892420D01*
X170397179Y-104889365D01*
X170386093Y-104878279D01*
X170373536Y-104868879D01*
X170370044Y-104866065D01*
X170343638Y-104843184D01*
X170330873Y-104832123D01*
X170330871Y-104832122D01*
X170330870Y-104832121D01*
X170330867Y-104832119D01*
X170326678Y-104830206D01*
X170303524Y-104816468D01*
X170299832Y-104813705D01*
X170299831Y-104813704D01*
X170277791Y-104805483D01*
X170251257Y-104795586D01*
X170247103Y-104793865D01*
X170199962Y-104772336D01*
X170199955Y-104772334D01*
X170195383Y-104771677D01*
X170169308Y-104765021D01*
X170164988Y-104763410D01*
X170164980Y-104763408D01*
X170113278Y-104759709D01*
X170108811Y-104759229D01*
X170093299Y-104757000D01*
X170077630Y-104757000D01*
X170073134Y-104756839D01*
X170021427Y-104753141D01*
X170021426Y-104753141D01*
X170016927Y-104754120D01*
X169990142Y-104757000D01*
X169339041Y-104757000D01*
X169270920Y-104736998D01*
X169269041Y-104735766D01*
X169262306Y-104731266D01*
X169216777Y-104676790D01*
X169207928Y-104606347D01*
X169238568Y-104542303D01*
X169298969Y-104504990D01*
X169332306Y-104500500D01*
X170540496Y-104500500D01*
X170608617Y-104520502D01*
X170629591Y-104537405D01*
X173362595Y-107270409D01*
X173396621Y-107332721D01*
X173399500Y-107359504D01*
X173399500Y-108140719D01*
X173379498Y-108208840D01*
X173377196Y-108212295D01*
X173319781Y-108295474D01*
X173263761Y-108443184D01*
X173244722Y-108599996D01*
X173244722Y-108600003D01*
X173263761Y-108756815D01*
X173286912Y-108817857D01*
X173319780Y-108904523D01*
X173319781Y-108904525D01*
X173319782Y-108904526D01*
X173319783Y-108904529D01*
X173409516Y-109034529D01*
X173409518Y-109034531D01*
X173433023Y-109055354D01*
X173527760Y-109139283D01*
X173667635Y-109212696D01*
X173667636Y-109212696D01*
X173667638Y-109212697D01*
X173741708Y-109230953D01*
X173821015Y-109250500D01*
X173821017Y-109250500D01*
X173978983Y-109250500D01*
X173978985Y-109250500D01*
X174132365Y-109212696D01*
X174132364Y-109212696D01*
X174139766Y-109210872D01*
X174140329Y-109213158D01*
X174199579Y-109208580D01*
X174262085Y-109242249D01*
X174296465Y-109304366D01*
X174299500Y-109331852D01*
X174299500Y-110233500D01*
X174279498Y-110301621D01*
X174225842Y-110348114D01*
X174173500Y-110359500D01*
X173925322Y-110359500D01*
X173852260Y-110374033D01*
X173769399Y-110429399D01*
X173714033Y-110512260D01*
X173699500Y-110585322D01*
X173699500Y-112334677D01*
X173714033Y-112407739D01*
X173714034Y-112407740D01*
X173769399Y-112490601D01*
X173852260Y-112545966D01*
X173925326Y-112560500D01*
X175674674Y-112560500D01*
X175747740Y-112545966D01*
X175830601Y-112490601D01*
X175885966Y-112407740D01*
X175900500Y-112334674D01*
X175900500Y-110585326D01*
X175885966Y-110512260D01*
X175830601Y-110429399D01*
X175758480Y-110381210D01*
X175747739Y-110374033D01*
X175674677Y-110359500D01*
X175674674Y-110359500D01*
X175426500Y-110359500D01*
X175358379Y-110339498D01*
X175311886Y-110285842D01*
X175300500Y-110233500D01*
X175300500Y-109331852D01*
X175320502Y-109263731D01*
X175374158Y-109217238D01*
X175444432Y-109207134D01*
X175460154Y-109211195D01*
X175460234Y-109210872D01*
X175467639Y-109212697D01*
X175621015Y-109250500D01*
X175621017Y-109250500D01*
X175778983Y-109250500D01*
X175778985Y-109250500D01*
X175932365Y-109212696D01*
X176072240Y-109139283D01*
X176190483Y-109034530D01*
X176279629Y-108905379D01*
X176280216Y-108904529D01*
X176280216Y-108904528D01*
X176280220Y-108904523D01*
X176336237Y-108756818D01*
X176336237Y-108756817D01*
X176336238Y-108756815D01*
X176355278Y-108600003D01*
X176355278Y-108599996D01*
X176336238Y-108443184D01*
X176318019Y-108395145D01*
X176280220Y-108295477D01*
X176230450Y-108223373D01*
X176222804Y-108212295D01*
X176200568Y-108144870D01*
X176200500Y-108140719D01*
X176200500Y-95259503D01*
X176220502Y-95191382D01*
X176237405Y-95170408D01*
X177910499Y-93497314D01*
X179606278Y-91801534D01*
X179627256Y-91784631D01*
X179631128Y-91782143D01*
X179665086Y-91742951D01*
X179668126Y-91739686D01*
X179679221Y-91728593D01*
X179682409Y-91725406D01*
X179683397Y-91726394D01*
X179737991Y-91691303D01*
X179808988Y-91691297D01*
X179868717Y-91729675D01*
G37*
G04 #@! TD.AperFunction*
M02*
