%TF.GenerationSoftware,KiCad,Pcbnew,7.0.5-7.0.5~ubuntu20.04.1*%
%TF.CreationDate,2023-07-24T22:07:20+03:00*%
%TF.ProjectId,hardware,68617264-7761-4726-952e-6b696361645f,rev?*%
%TF.SameCoordinates,Original*%
%TF.FileFunction,Drillmap*%
%TF.FilePolarity,Positive*%
%FSLAX45Y45*%
G04 Gerber Fmt 4.5, Leading zero omitted, Abs format (unit mm)*
G04 Created by KiCad (PCBNEW 7.0.5-7.0.5~ubuntu20.04.1) date 2023-07-24 22:07:20*
%MOMM*%
%LPD*%
G01*
G04 APERTURE LIST*
%ADD10C,0.100000*%
%ADD11C,0.200000*%
%ADD12C,0.030000*%
%ADD13C,0.040000*%
%ADD14C,0.076200*%
%ADD15C,0.080000*%
%ADD16C,0.110000*%
%ADD17C,0.120000*%
G04 APERTURE END LIST*
D10*
X18155000Y-8245000D02*
G75*
G03*
X18155000Y-8245000I-150000J0D01*
G01*
X12050000Y-8245000D02*
G75*
G03*
X12050000Y-8245000I-150000J0D01*
G01*
X12050000Y-12350000D02*
G75*
G03*
X12050000Y-12350000I-150000J0D01*
G01*
X18155000Y-12350000D02*
G75*
G03*
X18155000Y-12350000I-150000J0D01*
G01*
X11630000Y-12250000D02*
G75*
G03*
X11980000Y-12600000I350000J0D01*
G01*
X11980000Y-8000000D02*
G75*
G03*
X11630000Y-8350000I0J-350000D01*
G01*
X11630000Y-12250000D02*
X11630000Y-8350000D01*
X17925000Y-12600000D02*
G75*
G03*
X18275000Y-12250000I0J350000D01*
G01*
X17925000Y-12600000D02*
X11980000Y-12600000D01*
X18275000Y-8350000D02*
G75*
G03*
X17925000Y-8000000I-350000J0D01*
G01*
X11980000Y-8000000D02*
X17925000Y-8000000D01*
X18275000Y-8350000D02*
X18275000Y-12250000D01*
D11*
D12*
X16025000Y-11455000D02*
X16055000Y-11485000D01*
X16055000Y-11455000D02*
X16025000Y-11485000D01*
X16325000Y-10635000D02*
X16355000Y-10665000D01*
X16355000Y-10635000D02*
X16325000Y-10665000D01*
X16325000Y-10905000D02*
X16355000Y-10935000D01*
X16355000Y-10905000D02*
X16325000Y-10935000D01*
X16326533Y-11066533D02*
X16356533Y-11096533D01*
X16356533Y-11066533D02*
X16326533Y-11096533D01*
X16595000Y-9235000D02*
X16625000Y-9265000D01*
X16625000Y-9235000D02*
X16595000Y-9265000D01*
X16595000Y-9425000D02*
X16625000Y-9455000D01*
X16625000Y-9425000D02*
X16595000Y-9455000D01*
D13*
X12200000Y-11540000D02*
G75*
G03*
X12200000Y-11540000I-20000J0D01*
G01*
X12280000Y-10600000D02*
G75*
G03*
X12280000Y-10600000I-20000J0D01*
G01*
X13420000Y-11280000D02*
G75*
G03*
X13420000Y-11280000I-20000J0D01*
G01*
X13600000Y-11680000D02*
G75*
G03*
X13600000Y-11680000I-20000J0D01*
G01*
X14040000Y-11020000D02*
G75*
G03*
X14040000Y-11020000I-20000J0D01*
G01*
X14080000Y-11360000D02*
G75*
G03*
X14080000Y-11360000I-20000J0D01*
G01*
X14100000Y-9760000D02*
G75*
G03*
X14100000Y-9760000I-20000J0D01*
G01*
X14500000Y-10080000D02*
G75*
G03*
X14500000Y-10080000I-20000J0D01*
G01*
X14620000Y-11400000D02*
G75*
G03*
X14620000Y-11400000I-20000J0D01*
G01*
X14680000Y-10064950D02*
G75*
G03*
X14680000Y-10064950I-20000J0D01*
G01*
X14750000Y-8650000D02*
G75*
G03*
X14750000Y-8650000I-20000J0D01*
G01*
X14960000Y-9880000D02*
G75*
G03*
X14960000Y-9880000I-20000J0D01*
G01*
X14970000Y-10710000D02*
G75*
G03*
X14970000Y-10710000I-20000J0D01*
G01*
X14980000Y-10080000D02*
G75*
G03*
X14980000Y-10080000I-20000J0D01*
G01*
X15140000Y-9000000D02*
G75*
G03*
X15140000Y-9000000I-20000J0D01*
G01*
X15170000Y-9130000D02*
G75*
G03*
X15170000Y-9130000I-20000J0D01*
G01*
X15220000Y-9880000D02*
G75*
G03*
X15220000Y-9880000I-20000J0D01*
G01*
X15220000Y-11480000D02*
G75*
G03*
X15220000Y-11480000I-20000J0D01*
G01*
X15280000Y-10080000D02*
G75*
G03*
X15280000Y-10080000I-20000J0D01*
G01*
X15300000Y-10220000D02*
G75*
G03*
X15300000Y-10220000I-20000J0D01*
G01*
X15344250Y-10560000D02*
G75*
G03*
X15344250Y-10560000I-20000J0D01*
G01*
X15460000Y-9000000D02*
G75*
G03*
X15460000Y-9000000I-20000J0D01*
G01*
X15460000Y-9260000D02*
G75*
G03*
X15460000Y-9260000I-20000J0D01*
G01*
X15520000Y-9120000D02*
G75*
G03*
X15520000Y-9120000I-20000J0D01*
G01*
X15520000Y-10500000D02*
G75*
G03*
X15520000Y-10500000I-20000J0D01*
G01*
X15680000Y-9890000D02*
G75*
G03*
X15680000Y-9890000I-20000J0D01*
G01*
X15710000Y-10064950D02*
G75*
G03*
X15710000Y-10064950I-20000J0D01*
G01*
X15740000Y-11480000D02*
G75*
G03*
X15740000Y-11480000I-20000J0D01*
G01*
X15760000Y-9480000D02*
G75*
G03*
X15760000Y-9480000I-20000J0D01*
G01*
X15815000Y-10715000D02*
G75*
G03*
X15815000Y-10715000I-20000J0D01*
G01*
X15840000Y-10070000D02*
G75*
G03*
X15840000Y-10070000I-20000J0D01*
G01*
X15840000Y-10460000D02*
G75*
G03*
X15840000Y-10460000I-20000J0D01*
G01*
X15860069Y-11320069D02*
G75*
G03*
X15860069Y-11320069I-20000J0D01*
G01*
X15870000Y-9650000D02*
G75*
G03*
X15870000Y-9650000I-20000J0D01*
G01*
X15870000Y-9910000D02*
G75*
G03*
X15870000Y-9910000I-20000J0D01*
G01*
X15930000Y-10710000D02*
G75*
G03*
X15930000Y-10710000I-20000J0D01*
G01*
X15940000Y-12340000D02*
G75*
G03*
X15940000Y-12340000I-20000J0D01*
G01*
X15960000Y-10080000D02*
G75*
G03*
X15960000Y-10080000I-20000J0D01*
G01*
X16000000Y-9440000D02*
G75*
G03*
X16000000Y-9440000I-20000J0D01*
G01*
X16210000Y-12440000D02*
G75*
G03*
X16210000Y-12440000I-20000J0D01*
G01*
X16264950Y-10650069D02*
G75*
G03*
X16264950Y-10650069I-20000J0D01*
G01*
X16270000Y-8900000D02*
G75*
G03*
X16270000Y-8900000I-20000J0D01*
G01*
X16330000Y-10080000D02*
G75*
G03*
X16330000Y-10080000I-20000J0D01*
G01*
X16410000Y-9320000D02*
G75*
G03*
X16410000Y-9320000I-20000J0D01*
G01*
X16410000Y-9590000D02*
G75*
G03*
X16410000Y-9590000I-20000J0D01*
G01*
X16420000Y-11260000D02*
G75*
G03*
X16420000Y-11260000I-20000J0D01*
G01*
X16430000Y-12340000D02*
G75*
G03*
X16430000Y-12340000I-20000J0D01*
G01*
X16450000Y-9950000D02*
G75*
G03*
X16450000Y-9950000I-20000J0D01*
G01*
X16450000Y-10490000D02*
G75*
G03*
X16450000Y-10490000I-20000J0D01*
G01*
X16540000Y-11100000D02*
G75*
G03*
X16540000Y-11100000I-20000J0D01*
G01*
X16700000Y-8780000D02*
G75*
G03*
X16700000Y-8780000I-20000J0D01*
G01*
X16740000Y-11740000D02*
G75*
G03*
X16740000Y-11740000I-20000J0D01*
G01*
X16840000Y-8370000D02*
G75*
G03*
X16840000Y-8370000I-20000J0D01*
G01*
X16840000Y-11980000D02*
G75*
G03*
X16840000Y-11980000I-20000J0D01*
G01*
X16880000Y-11600000D02*
G75*
G03*
X16880000Y-11600000I-20000J0D01*
G01*
X16940000Y-9480000D02*
G75*
G03*
X16940000Y-9480000I-20000J0D01*
G01*
X16960000Y-9180000D02*
G75*
G03*
X16960000Y-9180000I-20000J0D01*
G01*
X17100000Y-10600000D02*
G75*
G03*
X17100000Y-10600000I-20000J0D01*
G01*
X17180000Y-9020000D02*
G75*
G03*
X17180000Y-9020000I-20000J0D01*
G01*
X17180000Y-9180000D02*
G75*
G03*
X17180000Y-9180000I-20000J0D01*
G01*
X17180000Y-9340000D02*
G75*
G03*
X17180000Y-9340000I-20000J0D01*
G01*
X17250000Y-12120000D02*
G75*
G03*
X17250000Y-12120000I-20000J0D01*
G01*
X17350000Y-8370000D02*
G75*
G03*
X17350000Y-8370000I-20000J0D01*
G01*
X17410000Y-9150000D02*
G75*
G03*
X17410000Y-9150000I-20000J0D01*
G01*
X17410000Y-10860000D02*
G75*
G03*
X17410000Y-10860000I-20000J0D01*
G01*
X17460000Y-10380000D02*
G75*
G03*
X17460000Y-10380000I-20000J0D01*
G01*
X17590000Y-10860000D02*
G75*
G03*
X17590000Y-10860000I-20000J0D01*
G01*
X17725000Y-8365000D02*
G75*
G03*
X17725000Y-8365000I-20000J0D01*
G01*
X17740000Y-9190000D02*
G75*
G03*
X17740000Y-9190000I-20000J0D01*
G01*
X17880000Y-10000000D02*
G75*
G03*
X17880000Y-10000000I-20000J0D01*
G01*
X17950000Y-9010000D02*
G75*
G03*
X17950000Y-9010000I-20000J0D01*
G01*
X18120000Y-8670000D02*
G75*
G03*
X18120000Y-8670000I-20000J0D01*
G01*
D14*
X14312000Y-9729400D02*
X14312000Y-9805600D01*
X14273900Y-9767500D02*
X14350100Y-9767500D01*
X14312000Y-10745400D02*
X14312000Y-10821600D01*
X14273900Y-10783500D02*
X14350100Y-10783500D01*
X14566000Y-9729400D02*
X14566000Y-9805600D01*
X14527900Y-9767500D02*
X14604100Y-9767500D01*
X14566000Y-10745400D02*
X14566000Y-10821600D01*
X14527900Y-10783500D02*
X14604100Y-10783500D01*
X14820000Y-9729400D02*
X14820000Y-9805600D01*
X14781900Y-9767500D02*
X14858100Y-9767500D01*
X14820000Y-10745400D02*
X14820000Y-10821600D01*
X14781900Y-10783500D02*
X14858100Y-10783500D01*
X15074000Y-9729400D02*
X15074000Y-9805600D01*
X15035900Y-9767500D02*
X15112100Y-9767500D01*
X15074000Y-10745400D02*
X15074000Y-10821600D01*
X15035900Y-10783500D02*
X15112100Y-10783500D01*
X15328000Y-9729400D02*
X15328000Y-9805600D01*
X15289900Y-9767500D02*
X15366100Y-9767500D01*
X15328000Y-10745400D02*
X15328000Y-10821600D01*
X15289900Y-10783500D02*
X15366100Y-10783500D01*
X15582000Y-9729400D02*
X15582000Y-9805600D01*
X15543900Y-9767500D02*
X15620100Y-9767500D01*
X15582000Y-10745400D02*
X15582000Y-10821600D01*
X15543900Y-10783500D02*
X15620100Y-10783500D01*
D15*
X16963285Y-9008285D02*
X16963285Y-8951716D01*
X16906716Y-8951716D01*
X16906716Y-9008285D01*
X16963285Y-9008285D01*
X17451285Y-9008285D02*
X17451285Y-8951716D01*
X17394716Y-8951716D01*
X17394716Y-9008285D01*
X17451285Y-9008285D01*
D10*
X16972000Y-11196000D02*
X17022000Y-11146000D01*
X16972000Y-11096000D01*
X16922000Y-11146000D01*
X16972000Y-11196000D01*
X16972000Y-11450000D02*
X17022000Y-11400000D01*
X16972000Y-11350000D01*
X16922000Y-11400000D01*
X16972000Y-11450000D01*
X16972000Y-11836000D02*
X17022000Y-11786000D01*
X16972000Y-11736000D01*
X16922000Y-11786000D01*
X16972000Y-11836000D01*
X17226000Y-11196000D02*
X17276000Y-11146000D01*
X17226000Y-11096000D01*
X17176000Y-11146000D01*
X17226000Y-11196000D01*
X17226000Y-11450000D02*
X17276000Y-11400000D01*
X17226000Y-11350000D01*
X17176000Y-11400000D01*
X17226000Y-11450000D01*
X17226000Y-11836000D02*
X17276000Y-11786000D01*
X17226000Y-11736000D01*
X17176000Y-11786000D01*
X17226000Y-11836000D01*
X17480000Y-11196000D02*
X17530000Y-11146000D01*
X17480000Y-11096000D01*
X17430000Y-11146000D01*
X17480000Y-11196000D01*
X17480000Y-11450000D02*
X17530000Y-11400000D01*
X17480000Y-11350000D01*
X17430000Y-11400000D01*
X17480000Y-11450000D01*
X17480000Y-11836000D02*
X17530000Y-11786000D01*
X17480000Y-11736000D01*
X17430000Y-11786000D01*
X17480000Y-11836000D01*
D16*
X12457000Y-8545000D02*
X12567000Y-8655000D01*
X12567000Y-8545000D02*
X12457000Y-8655000D01*
X12567000Y-8600000D02*
G75*
G03*
X12567000Y-8600000I-55000J0D01*
G01*
X12465000Y-11978500D02*
X12575000Y-12088500D01*
X12575000Y-11978500D02*
X12465000Y-12088500D01*
X12575000Y-12033500D02*
G75*
G03*
X12575000Y-12033500I-55000J0D01*
G01*
X12711000Y-8545000D02*
X12821000Y-8655000D01*
X12821000Y-8545000D02*
X12711000Y-8655000D01*
X12821000Y-8600000D02*
G75*
G03*
X12821000Y-8600000I-55000J0D01*
G01*
X12719000Y-11978500D02*
X12829000Y-12088500D01*
X12829000Y-11978500D02*
X12719000Y-12088500D01*
X12829000Y-12033500D02*
G75*
G03*
X12829000Y-12033500I-55000J0D01*
G01*
X12965000Y-8545000D02*
X13075000Y-8655000D01*
X13075000Y-8545000D02*
X12965000Y-8655000D01*
X13075000Y-8600000D02*
G75*
G03*
X13075000Y-8600000I-55000J0D01*
G01*
X13161000Y-11972500D02*
X13271000Y-12082500D01*
X13271000Y-11972500D02*
X13161000Y-12082500D01*
X13271000Y-12027500D02*
G75*
G03*
X13271000Y-12027500I-55000J0D01*
G01*
X13415000Y-11972500D02*
X13525000Y-12082500D01*
X13525000Y-11972500D02*
X13415000Y-12082500D01*
X13525000Y-12027500D02*
G75*
G03*
X13525000Y-12027500I-55000J0D01*
G01*
X13669000Y-11972500D02*
X13779000Y-12082500D01*
X13779000Y-11972500D02*
X13669000Y-12082500D01*
X13779000Y-12027500D02*
G75*
G03*
X13779000Y-12027500I-55000J0D01*
G01*
D17*
X13584000Y-8439500D02*
X13704000Y-8559500D01*
X13704000Y-8439500D02*
X13584000Y-8559500D01*
X13644000Y-8439500D02*
X13644000Y-8559500D01*
X13584000Y-8499500D02*
X13704000Y-8499500D01*
X13904000Y-9189500D02*
X14024000Y-9309500D01*
X14024000Y-9189500D02*
X13904000Y-9309500D01*
X13964000Y-9189500D02*
X13964000Y-9309500D01*
X13904000Y-9249500D02*
X14024000Y-9249500D01*
X14224000Y-8439500D02*
X14344000Y-8559500D01*
X14344000Y-8439500D02*
X14224000Y-8559500D01*
X14284000Y-8439500D02*
X14284000Y-8559500D01*
X14224000Y-8499500D02*
X14344000Y-8499500D01*
X16124000Y-8439500D02*
X16244000Y-8559500D01*
X16244000Y-8439500D02*
X16124000Y-8559500D01*
X16184000Y-8439500D02*
X16184000Y-8559500D01*
X16124000Y-8499500D02*
X16244000Y-8499500D01*
X16124000Y-9189500D02*
X16244000Y-9309500D01*
X16244000Y-9189500D02*
X16124000Y-9309500D01*
X16184000Y-9189500D02*
X16184000Y-9309500D01*
X16124000Y-9249500D02*
X16244000Y-9249500D01*
D11*
X11885777Y-12916484D02*
X11885777Y-12716484D01*
X11885777Y-12716484D02*
X11933396Y-12716484D01*
X11933396Y-12716484D02*
X11961967Y-12726008D01*
X11961967Y-12726008D02*
X11981015Y-12745055D01*
X11981015Y-12745055D02*
X11990539Y-12764103D01*
X11990539Y-12764103D02*
X12000062Y-12802198D01*
X12000062Y-12802198D02*
X12000062Y-12830769D01*
X12000062Y-12830769D02*
X11990539Y-12868865D01*
X11990539Y-12868865D02*
X11981015Y-12887912D01*
X11981015Y-12887912D02*
X11961967Y-12906960D01*
X11961967Y-12906960D02*
X11933396Y-12916484D01*
X11933396Y-12916484D02*
X11885777Y-12916484D01*
X12085777Y-12916484D02*
X12085777Y-12783150D01*
X12085777Y-12821246D02*
X12095301Y-12802198D01*
X12095301Y-12802198D02*
X12104824Y-12792674D01*
X12104824Y-12792674D02*
X12123872Y-12783150D01*
X12123872Y-12783150D02*
X12142920Y-12783150D01*
X12209586Y-12916484D02*
X12209586Y-12783150D01*
X12209586Y-12716484D02*
X12200062Y-12726008D01*
X12200062Y-12726008D02*
X12209586Y-12735531D01*
X12209586Y-12735531D02*
X12219110Y-12726008D01*
X12219110Y-12726008D02*
X12209586Y-12716484D01*
X12209586Y-12716484D02*
X12209586Y-12735531D01*
X12333396Y-12916484D02*
X12314348Y-12906960D01*
X12314348Y-12906960D02*
X12304824Y-12887912D01*
X12304824Y-12887912D02*
X12304824Y-12716484D01*
X12438158Y-12916484D02*
X12419110Y-12906960D01*
X12419110Y-12906960D02*
X12409586Y-12887912D01*
X12409586Y-12887912D02*
X12409586Y-12716484D01*
X12666729Y-12916484D02*
X12666729Y-12716484D01*
X12666729Y-12716484D02*
X12733396Y-12859341D01*
X12733396Y-12859341D02*
X12800062Y-12716484D01*
X12800062Y-12716484D02*
X12800062Y-12916484D01*
X12981015Y-12916484D02*
X12981015Y-12811722D01*
X12981015Y-12811722D02*
X12971491Y-12792674D01*
X12971491Y-12792674D02*
X12952443Y-12783150D01*
X12952443Y-12783150D02*
X12914348Y-12783150D01*
X12914348Y-12783150D02*
X12895301Y-12792674D01*
X12981015Y-12906960D02*
X12961967Y-12916484D01*
X12961967Y-12916484D02*
X12914348Y-12916484D01*
X12914348Y-12916484D02*
X12895301Y-12906960D01*
X12895301Y-12906960D02*
X12885777Y-12887912D01*
X12885777Y-12887912D02*
X12885777Y-12868865D01*
X12885777Y-12868865D02*
X12895301Y-12849817D01*
X12895301Y-12849817D02*
X12914348Y-12840293D01*
X12914348Y-12840293D02*
X12961967Y-12840293D01*
X12961967Y-12840293D02*
X12981015Y-12830769D01*
X13076253Y-12783150D02*
X13076253Y-12983150D01*
X13076253Y-12792674D02*
X13095301Y-12783150D01*
X13095301Y-12783150D02*
X13133396Y-12783150D01*
X13133396Y-12783150D02*
X13152443Y-12792674D01*
X13152443Y-12792674D02*
X13161967Y-12802198D01*
X13161967Y-12802198D02*
X13171491Y-12821246D01*
X13171491Y-12821246D02*
X13171491Y-12878388D01*
X13171491Y-12878388D02*
X13161967Y-12897436D01*
X13161967Y-12897436D02*
X13152443Y-12906960D01*
X13152443Y-12906960D02*
X13133396Y-12916484D01*
X13133396Y-12916484D02*
X13095301Y-12916484D01*
X13095301Y-12916484D02*
X13076253Y-12906960D01*
X13257205Y-12897436D02*
X13266729Y-12906960D01*
X13266729Y-12906960D02*
X13257205Y-12916484D01*
X13257205Y-12916484D02*
X13247682Y-12906960D01*
X13247682Y-12906960D02*
X13257205Y-12897436D01*
X13257205Y-12897436D02*
X13257205Y-12916484D01*
X13257205Y-12792674D02*
X13266729Y-12802198D01*
X13266729Y-12802198D02*
X13257205Y-12811722D01*
X13257205Y-12811722D02*
X13247682Y-12802198D01*
X13247682Y-12802198D02*
X13257205Y-12792674D01*
X13257205Y-12792674D02*
X13257205Y-12811722D01*
D12*
X11595000Y-13230000D02*
X11625000Y-13260000D01*
X11625000Y-13230000D02*
X11595000Y-13260000D01*
D11*
X11923872Y-13136484D02*
X11942920Y-13136484D01*
X11942920Y-13136484D02*
X11961967Y-13146008D01*
X11961967Y-13146008D02*
X11971491Y-13155531D01*
X11971491Y-13155531D02*
X11981015Y-13174579D01*
X11981015Y-13174579D02*
X11990539Y-13212674D01*
X11990539Y-13212674D02*
X11990539Y-13260293D01*
X11990539Y-13260293D02*
X11981015Y-13298388D01*
X11981015Y-13298388D02*
X11971491Y-13317436D01*
X11971491Y-13317436D02*
X11961967Y-13326960D01*
X11961967Y-13326960D02*
X11942920Y-13336484D01*
X11942920Y-13336484D02*
X11923872Y-13336484D01*
X11923872Y-13336484D02*
X11904824Y-13326960D01*
X11904824Y-13326960D02*
X11895301Y-13317436D01*
X11895301Y-13317436D02*
X11885777Y-13298388D01*
X11885777Y-13298388D02*
X11876253Y-13260293D01*
X11876253Y-13260293D02*
X11876253Y-13212674D01*
X11876253Y-13212674D02*
X11885777Y-13174579D01*
X11885777Y-13174579D02*
X11895301Y-13155531D01*
X11895301Y-13155531D02*
X11904824Y-13146008D01*
X11904824Y-13146008D02*
X11923872Y-13136484D01*
X12076253Y-13317436D02*
X12085777Y-13326960D01*
X12085777Y-13326960D02*
X12076253Y-13336484D01*
X12076253Y-13336484D02*
X12066729Y-13326960D01*
X12066729Y-13326960D02*
X12076253Y-13317436D01*
X12076253Y-13317436D02*
X12076253Y-13336484D01*
X12152443Y-13136484D02*
X12276253Y-13136484D01*
X12276253Y-13136484D02*
X12209586Y-13212674D01*
X12209586Y-13212674D02*
X12238158Y-13212674D01*
X12238158Y-13212674D02*
X12257205Y-13222198D01*
X12257205Y-13222198D02*
X12266729Y-13231722D01*
X12266729Y-13231722D02*
X12276253Y-13250769D01*
X12276253Y-13250769D02*
X12276253Y-13298388D01*
X12276253Y-13298388D02*
X12266729Y-13317436D01*
X12266729Y-13317436D02*
X12257205Y-13326960D01*
X12257205Y-13326960D02*
X12238158Y-13336484D01*
X12238158Y-13336484D02*
X12181015Y-13336484D01*
X12181015Y-13336484D02*
X12161967Y-13326960D01*
X12161967Y-13326960D02*
X12152443Y-13317436D01*
X12400062Y-13136484D02*
X12419110Y-13136484D01*
X12419110Y-13136484D02*
X12438158Y-13146008D01*
X12438158Y-13146008D02*
X12447682Y-13155531D01*
X12447682Y-13155531D02*
X12457205Y-13174579D01*
X12457205Y-13174579D02*
X12466729Y-13212674D01*
X12466729Y-13212674D02*
X12466729Y-13260293D01*
X12466729Y-13260293D02*
X12457205Y-13298388D01*
X12457205Y-13298388D02*
X12447682Y-13317436D01*
X12447682Y-13317436D02*
X12438158Y-13326960D01*
X12438158Y-13326960D02*
X12419110Y-13336484D01*
X12419110Y-13336484D02*
X12400062Y-13336484D01*
X12400062Y-13336484D02*
X12381015Y-13326960D01*
X12381015Y-13326960D02*
X12371491Y-13317436D01*
X12371491Y-13317436D02*
X12361967Y-13298388D01*
X12361967Y-13298388D02*
X12352443Y-13260293D01*
X12352443Y-13260293D02*
X12352443Y-13212674D01*
X12352443Y-13212674D02*
X12361967Y-13174579D01*
X12361967Y-13174579D02*
X12371491Y-13155531D01*
X12371491Y-13155531D02*
X12381015Y-13146008D01*
X12381015Y-13146008D02*
X12400062Y-13136484D01*
X12590539Y-13136484D02*
X12609586Y-13136484D01*
X12609586Y-13136484D02*
X12628634Y-13146008D01*
X12628634Y-13146008D02*
X12638158Y-13155531D01*
X12638158Y-13155531D02*
X12647682Y-13174579D01*
X12647682Y-13174579D02*
X12657205Y-13212674D01*
X12657205Y-13212674D02*
X12657205Y-13260293D01*
X12657205Y-13260293D02*
X12647682Y-13298388D01*
X12647682Y-13298388D02*
X12638158Y-13317436D01*
X12638158Y-13317436D02*
X12628634Y-13326960D01*
X12628634Y-13326960D02*
X12609586Y-13336484D01*
X12609586Y-13336484D02*
X12590539Y-13336484D01*
X12590539Y-13336484D02*
X12571491Y-13326960D01*
X12571491Y-13326960D02*
X12561967Y-13317436D01*
X12561967Y-13317436D02*
X12552443Y-13298388D01*
X12552443Y-13298388D02*
X12542920Y-13260293D01*
X12542920Y-13260293D02*
X12542920Y-13212674D01*
X12542920Y-13212674D02*
X12552443Y-13174579D01*
X12552443Y-13174579D02*
X12561967Y-13155531D01*
X12561967Y-13155531D02*
X12571491Y-13146008D01*
X12571491Y-13146008D02*
X12590539Y-13136484D01*
X12742920Y-13336484D02*
X12742920Y-13203150D01*
X12742920Y-13222198D02*
X12752443Y-13212674D01*
X12752443Y-13212674D02*
X12771491Y-13203150D01*
X12771491Y-13203150D02*
X12800063Y-13203150D01*
X12800063Y-13203150D02*
X12819110Y-13212674D01*
X12819110Y-13212674D02*
X12828634Y-13231722D01*
X12828634Y-13231722D02*
X12828634Y-13336484D01*
X12828634Y-13231722D02*
X12838158Y-13212674D01*
X12838158Y-13212674D02*
X12857205Y-13203150D01*
X12857205Y-13203150D02*
X12885777Y-13203150D01*
X12885777Y-13203150D02*
X12904824Y-13212674D01*
X12904824Y-13212674D02*
X12914348Y-13231722D01*
X12914348Y-13231722D02*
X12914348Y-13336484D01*
X13009586Y-13336484D02*
X13009586Y-13203150D01*
X13009586Y-13222198D02*
X13019110Y-13212674D01*
X13019110Y-13212674D02*
X13038158Y-13203150D01*
X13038158Y-13203150D02*
X13066729Y-13203150D01*
X13066729Y-13203150D02*
X13085777Y-13212674D01*
X13085777Y-13212674D02*
X13095301Y-13231722D01*
X13095301Y-13231722D02*
X13095301Y-13336484D01*
X13095301Y-13231722D02*
X13104824Y-13212674D01*
X13104824Y-13212674D02*
X13123872Y-13203150D01*
X13123872Y-13203150D02*
X13152443Y-13203150D01*
X13152443Y-13203150D02*
X13171491Y-13212674D01*
X13171491Y-13212674D02*
X13181015Y-13231722D01*
X13181015Y-13231722D02*
X13181015Y-13336484D01*
X13571491Y-13126960D02*
X13400063Y-13384103D01*
X13828634Y-13136484D02*
X13847682Y-13136484D01*
X13847682Y-13136484D02*
X13866729Y-13146008D01*
X13866729Y-13146008D02*
X13876253Y-13155531D01*
X13876253Y-13155531D02*
X13885777Y-13174579D01*
X13885777Y-13174579D02*
X13895301Y-13212674D01*
X13895301Y-13212674D02*
X13895301Y-13260293D01*
X13895301Y-13260293D02*
X13885777Y-13298388D01*
X13885777Y-13298388D02*
X13876253Y-13317436D01*
X13876253Y-13317436D02*
X13866729Y-13326960D01*
X13866729Y-13326960D02*
X13847682Y-13336484D01*
X13847682Y-13336484D02*
X13828634Y-13336484D01*
X13828634Y-13336484D02*
X13809586Y-13326960D01*
X13809586Y-13326960D02*
X13800063Y-13317436D01*
X13800063Y-13317436D02*
X13790539Y-13298388D01*
X13790539Y-13298388D02*
X13781015Y-13260293D01*
X13781015Y-13260293D02*
X13781015Y-13212674D01*
X13781015Y-13212674D02*
X13790539Y-13174579D01*
X13790539Y-13174579D02*
X13800063Y-13155531D01*
X13800063Y-13155531D02*
X13809586Y-13146008D01*
X13809586Y-13146008D02*
X13828634Y-13136484D01*
X13981015Y-13317436D02*
X13990539Y-13326960D01*
X13990539Y-13326960D02*
X13981015Y-13336484D01*
X13981015Y-13336484D02*
X13971491Y-13326960D01*
X13971491Y-13326960D02*
X13981015Y-13317436D01*
X13981015Y-13317436D02*
X13981015Y-13336484D01*
X14114348Y-13136484D02*
X14133396Y-13136484D01*
X14133396Y-13136484D02*
X14152444Y-13146008D01*
X14152444Y-13146008D02*
X14161967Y-13155531D01*
X14161967Y-13155531D02*
X14171491Y-13174579D01*
X14171491Y-13174579D02*
X14181015Y-13212674D01*
X14181015Y-13212674D02*
X14181015Y-13260293D01*
X14181015Y-13260293D02*
X14171491Y-13298388D01*
X14171491Y-13298388D02*
X14161967Y-13317436D01*
X14161967Y-13317436D02*
X14152444Y-13326960D01*
X14152444Y-13326960D02*
X14133396Y-13336484D01*
X14133396Y-13336484D02*
X14114348Y-13336484D01*
X14114348Y-13336484D02*
X14095301Y-13326960D01*
X14095301Y-13326960D02*
X14085777Y-13317436D01*
X14085777Y-13317436D02*
X14076253Y-13298388D01*
X14076253Y-13298388D02*
X14066729Y-13260293D01*
X14066729Y-13260293D02*
X14066729Y-13212674D01*
X14066729Y-13212674D02*
X14076253Y-13174579D01*
X14076253Y-13174579D02*
X14085777Y-13155531D01*
X14085777Y-13155531D02*
X14095301Y-13146008D01*
X14095301Y-13146008D02*
X14114348Y-13136484D01*
X14371491Y-13336484D02*
X14257206Y-13336484D01*
X14314348Y-13336484D02*
X14314348Y-13136484D01*
X14314348Y-13136484D02*
X14295301Y-13165055D01*
X14295301Y-13165055D02*
X14276253Y-13184103D01*
X14276253Y-13184103D02*
X14257206Y-13193627D01*
X14561967Y-13336484D02*
X14447682Y-13336484D01*
X14504825Y-13336484D02*
X14504825Y-13136484D01*
X14504825Y-13136484D02*
X14485777Y-13165055D01*
X14485777Y-13165055D02*
X14466729Y-13184103D01*
X14466729Y-13184103D02*
X14447682Y-13193627D01*
X14676253Y-13222198D02*
X14657206Y-13212674D01*
X14657206Y-13212674D02*
X14647682Y-13203150D01*
X14647682Y-13203150D02*
X14638158Y-13184103D01*
X14638158Y-13184103D02*
X14638158Y-13174579D01*
X14638158Y-13174579D02*
X14647682Y-13155531D01*
X14647682Y-13155531D02*
X14657206Y-13146008D01*
X14657206Y-13146008D02*
X14676253Y-13136484D01*
X14676253Y-13136484D02*
X14714348Y-13136484D01*
X14714348Y-13136484D02*
X14733396Y-13146008D01*
X14733396Y-13146008D02*
X14742920Y-13155531D01*
X14742920Y-13155531D02*
X14752444Y-13174579D01*
X14752444Y-13174579D02*
X14752444Y-13184103D01*
X14752444Y-13184103D02*
X14742920Y-13203150D01*
X14742920Y-13203150D02*
X14733396Y-13212674D01*
X14733396Y-13212674D02*
X14714348Y-13222198D01*
X14714348Y-13222198D02*
X14676253Y-13222198D01*
X14676253Y-13222198D02*
X14657206Y-13231722D01*
X14657206Y-13231722D02*
X14647682Y-13241246D01*
X14647682Y-13241246D02*
X14638158Y-13260293D01*
X14638158Y-13260293D02*
X14638158Y-13298388D01*
X14638158Y-13298388D02*
X14647682Y-13317436D01*
X14647682Y-13317436D02*
X14657206Y-13326960D01*
X14657206Y-13326960D02*
X14676253Y-13336484D01*
X14676253Y-13336484D02*
X14714348Y-13336484D01*
X14714348Y-13336484D02*
X14733396Y-13326960D01*
X14733396Y-13326960D02*
X14742920Y-13317436D01*
X14742920Y-13317436D02*
X14752444Y-13298388D01*
X14752444Y-13298388D02*
X14752444Y-13260293D01*
X14752444Y-13260293D02*
X14742920Y-13241246D01*
X14742920Y-13241246D02*
X14733396Y-13231722D01*
X14733396Y-13231722D02*
X14714348Y-13222198D01*
X14828634Y-13136484D02*
X14828634Y-13174579D01*
X14904825Y-13136484D02*
X14904825Y-13174579D01*
X15200063Y-13412674D02*
X15190539Y-13403150D01*
X15190539Y-13403150D02*
X15171491Y-13374579D01*
X15171491Y-13374579D02*
X15161968Y-13355531D01*
X15161968Y-13355531D02*
X15152444Y-13326960D01*
X15152444Y-13326960D02*
X15142920Y-13279341D01*
X15142920Y-13279341D02*
X15142920Y-13241246D01*
X15142920Y-13241246D02*
X15152444Y-13193627D01*
X15152444Y-13193627D02*
X15161968Y-13165055D01*
X15161968Y-13165055D02*
X15171491Y-13146008D01*
X15171491Y-13146008D02*
X15190539Y-13117436D01*
X15190539Y-13117436D02*
X15200063Y-13107912D01*
X15361968Y-13136484D02*
X15323872Y-13136484D01*
X15323872Y-13136484D02*
X15304825Y-13146008D01*
X15304825Y-13146008D02*
X15295301Y-13155531D01*
X15295301Y-13155531D02*
X15276253Y-13184103D01*
X15276253Y-13184103D02*
X15266729Y-13222198D01*
X15266729Y-13222198D02*
X15266729Y-13298388D01*
X15266729Y-13298388D02*
X15276253Y-13317436D01*
X15276253Y-13317436D02*
X15285777Y-13326960D01*
X15285777Y-13326960D02*
X15304825Y-13336484D01*
X15304825Y-13336484D02*
X15342920Y-13336484D01*
X15342920Y-13336484D02*
X15361968Y-13326960D01*
X15361968Y-13326960D02*
X15371491Y-13317436D01*
X15371491Y-13317436D02*
X15381015Y-13298388D01*
X15381015Y-13298388D02*
X15381015Y-13250769D01*
X15381015Y-13250769D02*
X15371491Y-13231722D01*
X15371491Y-13231722D02*
X15361968Y-13222198D01*
X15361968Y-13222198D02*
X15342920Y-13212674D01*
X15342920Y-13212674D02*
X15304825Y-13212674D01*
X15304825Y-13212674D02*
X15285777Y-13222198D01*
X15285777Y-13222198D02*
X15276253Y-13231722D01*
X15276253Y-13231722D02*
X15266729Y-13250769D01*
X15619110Y-13336484D02*
X15619110Y-13136484D01*
X15704825Y-13336484D02*
X15704825Y-13231722D01*
X15704825Y-13231722D02*
X15695301Y-13212674D01*
X15695301Y-13212674D02*
X15676253Y-13203150D01*
X15676253Y-13203150D02*
X15647682Y-13203150D01*
X15647682Y-13203150D02*
X15628634Y-13212674D01*
X15628634Y-13212674D02*
X15619110Y-13222198D01*
X15828634Y-13336484D02*
X15809587Y-13326960D01*
X15809587Y-13326960D02*
X15800063Y-13317436D01*
X15800063Y-13317436D02*
X15790539Y-13298388D01*
X15790539Y-13298388D02*
X15790539Y-13241246D01*
X15790539Y-13241246D02*
X15800063Y-13222198D01*
X15800063Y-13222198D02*
X15809587Y-13212674D01*
X15809587Y-13212674D02*
X15828634Y-13203150D01*
X15828634Y-13203150D02*
X15857206Y-13203150D01*
X15857206Y-13203150D02*
X15876253Y-13212674D01*
X15876253Y-13212674D02*
X15885777Y-13222198D01*
X15885777Y-13222198D02*
X15895301Y-13241246D01*
X15895301Y-13241246D02*
X15895301Y-13298388D01*
X15895301Y-13298388D02*
X15885777Y-13317436D01*
X15885777Y-13317436D02*
X15876253Y-13326960D01*
X15876253Y-13326960D02*
X15857206Y-13336484D01*
X15857206Y-13336484D02*
X15828634Y-13336484D01*
X16009587Y-13336484D02*
X15990539Y-13326960D01*
X15990539Y-13326960D02*
X15981015Y-13307912D01*
X15981015Y-13307912D02*
X15981015Y-13136484D01*
X16161968Y-13326960D02*
X16142920Y-13336484D01*
X16142920Y-13336484D02*
X16104825Y-13336484D01*
X16104825Y-13336484D02*
X16085777Y-13326960D01*
X16085777Y-13326960D02*
X16076253Y-13307912D01*
X16076253Y-13307912D02*
X16076253Y-13231722D01*
X16076253Y-13231722D02*
X16085777Y-13212674D01*
X16085777Y-13212674D02*
X16104825Y-13203150D01*
X16104825Y-13203150D02*
X16142920Y-13203150D01*
X16142920Y-13203150D02*
X16161968Y-13212674D01*
X16161968Y-13212674D02*
X16171491Y-13231722D01*
X16171491Y-13231722D02*
X16171491Y-13250769D01*
X16171491Y-13250769D02*
X16076253Y-13269817D01*
X16247682Y-13326960D02*
X16266730Y-13336484D01*
X16266730Y-13336484D02*
X16304825Y-13336484D01*
X16304825Y-13336484D02*
X16323872Y-13326960D01*
X16323872Y-13326960D02*
X16333396Y-13307912D01*
X16333396Y-13307912D02*
X16333396Y-13298388D01*
X16333396Y-13298388D02*
X16323872Y-13279341D01*
X16323872Y-13279341D02*
X16304825Y-13269817D01*
X16304825Y-13269817D02*
X16276253Y-13269817D01*
X16276253Y-13269817D02*
X16257206Y-13260293D01*
X16257206Y-13260293D02*
X16247682Y-13241246D01*
X16247682Y-13241246D02*
X16247682Y-13231722D01*
X16247682Y-13231722D02*
X16257206Y-13212674D01*
X16257206Y-13212674D02*
X16276253Y-13203150D01*
X16276253Y-13203150D02*
X16304825Y-13203150D01*
X16304825Y-13203150D02*
X16323872Y-13212674D01*
X16400063Y-13412674D02*
X16409587Y-13403150D01*
X16409587Y-13403150D02*
X16428634Y-13374579D01*
X16428634Y-13374579D02*
X16438158Y-13355531D01*
X16438158Y-13355531D02*
X16447682Y-13326960D01*
X16447682Y-13326960D02*
X16457206Y-13279341D01*
X16457206Y-13279341D02*
X16457206Y-13241246D01*
X16457206Y-13241246D02*
X16447682Y-13193627D01*
X16447682Y-13193627D02*
X16438158Y-13165055D01*
X16438158Y-13165055D02*
X16428634Y-13146008D01*
X16428634Y-13146008D02*
X16409587Y-13117436D01*
X16409587Y-13117436D02*
X16400063Y-13107912D01*
D13*
X11625000Y-13509000D02*
G75*
G03*
X11625000Y-13509000I-20000J0D01*
G01*
D11*
X11923872Y-13400484D02*
X11942920Y-13400484D01*
X11942920Y-13400484D02*
X11961967Y-13410008D01*
X11961967Y-13410008D02*
X11971491Y-13419531D01*
X11971491Y-13419531D02*
X11981015Y-13438579D01*
X11981015Y-13438579D02*
X11990539Y-13476674D01*
X11990539Y-13476674D02*
X11990539Y-13524293D01*
X11990539Y-13524293D02*
X11981015Y-13562388D01*
X11981015Y-13562388D02*
X11971491Y-13581436D01*
X11971491Y-13581436D02*
X11961967Y-13590960D01*
X11961967Y-13590960D02*
X11942920Y-13600484D01*
X11942920Y-13600484D02*
X11923872Y-13600484D01*
X11923872Y-13600484D02*
X11904824Y-13590960D01*
X11904824Y-13590960D02*
X11895301Y-13581436D01*
X11895301Y-13581436D02*
X11885777Y-13562388D01*
X11885777Y-13562388D02*
X11876253Y-13524293D01*
X11876253Y-13524293D02*
X11876253Y-13476674D01*
X11876253Y-13476674D02*
X11885777Y-13438579D01*
X11885777Y-13438579D02*
X11895301Y-13419531D01*
X11895301Y-13419531D02*
X11904824Y-13410008D01*
X11904824Y-13410008D02*
X11923872Y-13400484D01*
X12076253Y-13581436D02*
X12085777Y-13590960D01*
X12085777Y-13590960D02*
X12076253Y-13600484D01*
X12076253Y-13600484D02*
X12066729Y-13590960D01*
X12066729Y-13590960D02*
X12076253Y-13581436D01*
X12076253Y-13581436D02*
X12076253Y-13600484D01*
X12257205Y-13467150D02*
X12257205Y-13600484D01*
X12209586Y-13390960D02*
X12161967Y-13533817D01*
X12161967Y-13533817D02*
X12285777Y-13533817D01*
X12400062Y-13400484D02*
X12419110Y-13400484D01*
X12419110Y-13400484D02*
X12438158Y-13410008D01*
X12438158Y-13410008D02*
X12447682Y-13419531D01*
X12447682Y-13419531D02*
X12457205Y-13438579D01*
X12457205Y-13438579D02*
X12466729Y-13476674D01*
X12466729Y-13476674D02*
X12466729Y-13524293D01*
X12466729Y-13524293D02*
X12457205Y-13562388D01*
X12457205Y-13562388D02*
X12447682Y-13581436D01*
X12447682Y-13581436D02*
X12438158Y-13590960D01*
X12438158Y-13590960D02*
X12419110Y-13600484D01*
X12419110Y-13600484D02*
X12400062Y-13600484D01*
X12400062Y-13600484D02*
X12381015Y-13590960D01*
X12381015Y-13590960D02*
X12371491Y-13581436D01*
X12371491Y-13581436D02*
X12361967Y-13562388D01*
X12361967Y-13562388D02*
X12352443Y-13524293D01*
X12352443Y-13524293D02*
X12352443Y-13476674D01*
X12352443Y-13476674D02*
X12361967Y-13438579D01*
X12361967Y-13438579D02*
X12371491Y-13419531D01*
X12371491Y-13419531D02*
X12381015Y-13410008D01*
X12381015Y-13410008D02*
X12400062Y-13400484D01*
X12590539Y-13400484D02*
X12609586Y-13400484D01*
X12609586Y-13400484D02*
X12628634Y-13410008D01*
X12628634Y-13410008D02*
X12638158Y-13419531D01*
X12638158Y-13419531D02*
X12647682Y-13438579D01*
X12647682Y-13438579D02*
X12657205Y-13476674D01*
X12657205Y-13476674D02*
X12657205Y-13524293D01*
X12657205Y-13524293D02*
X12647682Y-13562388D01*
X12647682Y-13562388D02*
X12638158Y-13581436D01*
X12638158Y-13581436D02*
X12628634Y-13590960D01*
X12628634Y-13590960D02*
X12609586Y-13600484D01*
X12609586Y-13600484D02*
X12590539Y-13600484D01*
X12590539Y-13600484D02*
X12571491Y-13590960D01*
X12571491Y-13590960D02*
X12561967Y-13581436D01*
X12561967Y-13581436D02*
X12552443Y-13562388D01*
X12552443Y-13562388D02*
X12542920Y-13524293D01*
X12542920Y-13524293D02*
X12542920Y-13476674D01*
X12542920Y-13476674D02*
X12552443Y-13438579D01*
X12552443Y-13438579D02*
X12561967Y-13419531D01*
X12561967Y-13419531D02*
X12571491Y-13410008D01*
X12571491Y-13410008D02*
X12590539Y-13400484D01*
X12742920Y-13600484D02*
X12742920Y-13467150D01*
X12742920Y-13486198D02*
X12752443Y-13476674D01*
X12752443Y-13476674D02*
X12771491Y-13467150D01*
X12771491Y-13467150D02*
X12800063Y-13467150D01*
X12800063Y-13467150D02*
X12819110Y-13476674D01*
X12819110Y-13476674D02*
X12828634Y-13495722D01*
X12828634Y-13495722D02*
X12828634Y-13600484D01*
X12828634Y-13495722D02*
X12838158Y-13476674D01*
X12838158Y-13476674D02*
X12857205Y-13467150D01*
X12857205Y-13467150D02*
X12885777Y-13467150D01*
X12885777Y-13467150D02*
X12904824Y-13476674D01*
X12904824Y-13476674D02*
X12914348Y-13495722D01*
X12914348Y-13495722D02*
X12914348Y-13600484D01*
X13009586Y-13600484D02*
X13009586Y-13467150D01*
X13009586Y-13486198D02*
X13019110Y-13476674D01*
X13019110Y-13476674D02*
X13038158Y-13467150D01*
X13038158Y-13467150D02*
X13066729Y-13467150D01*
X13066729Y-13467150D02*
X13085777Y-13476674D01*
X13085777Y-13476674D02*
X13095301Y-13495722D01*
X13095301Y-13495722D02*
X13095301Y-13600484D01*
X13095301Y-13495722D02*
X13104824Y-13476674D01*
X13104824Y-13476674D02*
X13123872Y-13467150D01*
X13123872Y-13467150D02*
X13152443Y-13467150D01*
X13152443Y-13467150D02*
X13171491Y-13476674D01*
X13171491Y-13476674D02*
X13181015Y-13495722D01*
X13181015Y-13495722D02*
X13181015Y-13600484D01*
X13571491Y-13390960D02*
X13400063Y-13648103D01*
X13828634Y-13400484D02*
X13847682Y-13400484D01*
X13847682Y-13400484D02*
X13866729Y-13410008D01*
X13866729Y-13410008D02*
X13876253Y-13419531D01*
X13876253Y-13419531D02*
X13885777Y-13438579D01*
X13885777Y-13438579D02*
X13895301Y-13476674D01*
X13895301Y-13476674D02*
X13895301Y-13524293D01*
X13895301Y-13524293D02*
X13885777Y-13562388D01*
X13885777Y-13562388D02*
X13876253Y-13581436D01*
X13876253Y-13581436D02*
X13866729Y-13590960D01*
X13866729Y-13590960D02*
X13847682Y-13600484D01*
X13847682Y-13600484D02*
X13828634Y-13600484D01*
X13828634Y-13600484D02*
X13809586Y-13590960D01*
X13809586Y-13590960D02*
X13800063Y-13581436D01*
X13800063Y-13581436D02*
X13790539Y-13562388D01*
X13790539Y-13562388D02*
X13781015Y-13524293D01*
X13781015Y-13524293D02*
X13781015Y-13476674D01*
X13781015Y-13476674D02*
X13790539Y-13438579D01*
X13790539Y-13438579D02*
X13800063Y-13419531D01*
X13800063Y-13419531D02*
X13809586Y-13410008D01*
X13809586Y-13410008D02*
X13828634Y-13400484D01*
X13981015Y-13581436D02*
X13990539Y-13590960D01*
X13990539Y-13590960D02*
X13981015Y-13600484D01*
X13981015Y-13600484D02*
X13971491Y-13590960D01*
X13971491Y-13590960D02*
X13981015Y-13581436D01*
X13981015Y-13581436D02*
X13981015Y-13600484D01*
X14114348Y-13400484D02*
X14133396Y-13400484D01*
X14133396Y-13400484D02*
X14152444Y-13410008D01*
X14152444Y-13410008D02*
X14161967Y-13419531D01*
X14161967Y-13419531D02*
X14171491Y-13438579D01*
X14171491Y-13438579D02*
X14181015Y-13476674D01*
X14181015Y-13476674D02*
X14181015Y-13524293D01*
X14181015Y-13524293D02*
X14171491Y-13562388D01*
X14171491Y-13562388D02*
X14161967Y-13581436D01*
X14161967Y-13581436D02*
X14152444Y-13590960D01*
X14152444Y-13590960D02*
X14133396Y-13600484D01*
X14133396Y-13600484D02*
X14114348Y-13600484D01*
X14114348Y-13600484D02*
X14095301Y-13590960D01*
X14095301Y-13590960D02*
X14085777Y-13581436D01*
X14085777Y-13581436D02*
X14076253Y-13562388D01*
X14076253Y-13562388D02*
X14066729Y-13524293D01*
X14066729Y-13524293D02*
X14066729Y-13476674D01*
X14066729Y-13476674D02*
X14076253Y-13438579D01*
X14076253Y-13438579D02*
X14085777Y-13419531D01*
X14085777Y-13419531D02*
X14095301Y-13410008D01*
X14095301Y-13410008D02*
X14114348Y-13400484D01*
X14371491Y-13600484D02*
X14257206Y-13600484D01*
X14314348Y-13600484D02*
X14314348Y-13400484D01*
X14314348Y-13400484D02*
X14295301Y-13429055D01*
X14295301Y-13429055D02*
X14276253Y-13448103D01*
X14276253Y-13448103D02*
X14257206Y-13457627D01*
X14552444Y-13400484D02*
X14457206Y-13400484D01*
X14457206Y-13400484D02*
X14447682Y-13495722D01*
X14447682Y-13495722D02*
X14457206Y-13486198D01*
X14457206Y-13486198D02*
X14476253Y-13476674D01*
X14476253Y-13476674D02*
X14523872Y-13476674D01*
X14523872Y-13476674D02*
X14542920Y-13486198D01*
X14542920Y-13486198D02*
X14552444Y-13495722D01*
X14552444Y-13495722D02*
X14561967Y-13514769D01*
X14561967Y-13514769D02*
X14561967Y-13562388D01*
X14561967Y-13562388D02*
X14552444Y-13581436D01*
X14552444Y-13581436D02*
X14542920Y-13590960D01*
X14542920Y-13590960D02*
X14523872Y-13600484D01*
X14523872Y-13600484D02*
X14476253Y-13600484D01*
X14476253Y-13600484D02*
X14457206Y-13590960D01*
X14457206Y-13590960D02*
X14447682Y-13581436D01*
X14628634Y-13400484D02*
X14761967Y-13400484D01*
X14761967Y-13400484D02*
X14676253Y-13600484D01*
X14828634Y-13400484D02*
X14828634Y-13438579D01*
X14904825Y-13400484D02*
X14904825Y-13438579D01*
X15200063Y-13676674D02*
X15190539Y-13667150D01*
X15190539Y-13667150D02*
X15171491Y-13638579D01*
X15171491Y-13638579D02*
X15161968Y-13619531D01*
X15161968Y-13619531D02*
X15152444Y-13590960D01*
X15152444Y-13590960D02*
X15142920Y-13543341D01*
X15142920Y-13543341D02*
X15142920Y-13505246D01*
X15142920Y-13505246D02*
X15152444Y-13457627D01*
X15152444Y-13457627D02*
X15161968Y-13429055D01*
X15161968Y-13429055D02*
X15171491Y-13410008D01*
X15171491Y-13410008D02*
X15190539Y-13381436D01*
X15190539Y-13381436D02*
X15200063Y-13371912D01*
X15257206Y-13400484D02*
X15390539Y-13400484D01*
X15390539Y-13400484D02*
X15304825Y-13600484D01*
X15457206Y-13419531D02*
X15466729Y-13410008D01*
X15466729Y-13410008D02*
X15485777Y-13400484D01*
X15485777Y-13400484D02*
X15533396Y-13400484D01*
X15533396Y-13400484D02*
X15552444Y-13410008D01*
X15552444Y-13410008D02*
X15561968Y-13419531D01*
X15561968Y-13419531D02*
X15571491Y-13438579D01*
X15571491Y-13438579D02*
X15571491Y-13457627D01*
X15571491Y-13457627D02*
X15561968Y-13486198D01*
X15561968Y-13486198D02*
X15447682Y-13600484D01*
X15447682Y-13600484D02*
X15571491Y-13600484D01*
X15809587Y-13600484D02*
X15809587Y-13400484D01*
X15895301Y-13600484D02*
X15895301Y-13495722D01*
X15895301Y-13495722D02*
X15885777Y-13476674D01*
X15885777Y-13476674D02*
X15866730Y-13467150D01*
X15866730Y-13467150D02*
X15838158Y-13467150D01*
X15838158Y-13467150D02*
X15819110Y-13476674D01*
X15819110Y-13476674D02*
X15809587Y-13486198D01*
X16019110Y-13600484D02*
X16000063Y-13590960D01*
X16000063Y-13590960D02*
X15990539Y-13581436D01*
X15990539Y-13581436D02*
X15981015Y-13562388D01*
X15981015Y-13562388D02*
X15981015Y-13505246D01*
X15981015Y-13505246D02*
X15990539Y-13486198D01*
X15990539Y-13486198D02*
X16000063Y-13476674D01*
X16000063Y-13476674D02*
X16019110Y-13467150D01*
X16019110Y-13467150D02*
X16047682Y-13467150D01*
X16047682Y-13467150D02*
X16066730Y-13476674D01*
X16066730Y-13476674D02*
X16076253Y-13486198D01*
X16076253Y-13486198D02*
X16085777Y-13505246D01*
X16085777Y-13505246D02*
X16085777Y-13562388D01*
X16085777Y-13562388D02*
X16076253Y-13581436D01*
X16076253Y-13581436D02*
X16066730Y-13590960D01*
X16066730Y-13590960D02*
X16047682Y-13600484D01*
X16047682Y-13600484D02*
X16019110Y-13600484D01*
X16200063Y-13600484D02*
X16181015Y-13590960D01*
X16181015Y-13590960D02*
X16171491Y-13571912D01*
X16171491Y-13571912D02*
X16171491Y-13400484D01*
X16352444Y-13590960D02*
X16333396Y-13600484D01*
X16333396Y-13600484D02*
X16295301Y-13600484D01*
X16295301Y-13600484D02*
X16276253Y-13590960D01*
X16276253Y-13590960D02*
X16266730Y-13571912D01*
X16266730Y-13571912D02*
X16266730Y-13495722D01*
X16266730Y-13495722D02*
X16276253Y-13476674D01*
X16276253Y-13476674D02*
X16295301Y-13467150D01*
X16295301Y-13467150D02*
X16333396Y-13467150D01*
X16333396Y-13467150D02*
X16352444Y-13476674D01*
X16352444Y-13476674D02*
X16361968Y-13495722D01*
X16361968Y-13495722D02*
X16361968Y-13514769D01*
X16361968Y-13514769D02*
X16266730Y-13533817D01*
X16438158Y-13590960D02*
X16457206Y-13600484D01*
X16457206Y-13600484D02*
X16495301Y-13600484D01*
X16495301Y-13600484D02*
X16514349Y-13590960D01*
X16514349Y-13590960D02*
X16523872Y-13571912D01*
X16523872Y-13571912D02*
X16523872Y-13562388D01*
X16523872Y-13562388D02*
X16514349Y-13543341D01*
X16514349Y-13543341D02*
X16495301Y-13533817D01*
X16495301Y-13533817D02*
X16466730Y-13533817D01*
X16466730Y-13533817D02*
X16447682Y-13524293D01*
X16447682Y-13524293D02*
X16438158Y-13505246D01*
X16438158Y-13505246D02*
X16438158Y-13495722D01*
X16438158Y-13495722D02*
X16447682Y-13476674D01*
X16447682Y-13476674D02*
X16466730Y-13467150D01*
X16466730Y-13467150D02*
X16495301Y-13467150D01*
X16495301Y-13467150D02*
X16514349Y-13476674D01*
X16590539Y-13676674D02*
X16600063Y-13667150D01*
X16600063Y-13667150D02*
X16619111Y-13638579D01*
X16619111Y-13638579D02*
X16628634Y-13619531D01*
X16628634Y-13619531D02*
X16638158Y-13590960D01*
X16638158Y-13590960D02*
X16647682Y-13543341D01*
X16647682Y-13543341D02*
X16647682Y-13505246D01*
X16647682Y-13505246D02*
X16638158Y-13457627D01*
X16638158Y-13457627D02*
X16628634Y-13429055D01*
X16628634Y-13429055D02*
X16619111Y-13410008D01*
X16619111Y-13410008D02*
X16600063Y-13381436D01*
X16600063Y-13381436D02*
X16590539Y-13371912D01*
D14*
X11586900Y-13734900D02*
X11586900Y-13811100D01*
X11548800Y-13773000D02*
X11625000Y-13773000D01*
D11*
X11923872Y-13664484D02*
X11942920Y-13664484D01*
X11942920Y-13664484D02*
X11961967Y-13674008D01*
X11961967Y-13674008D02*
X11971491Y-13683531D01*
X11971491Y-13683531D02*
X11981015Y-13702579D01*
X11981015Y-13702579D02*
X11990539Y-13740674D01*
X11990539Y-13740674D02*
X11990539Y-13788293D01*
X11990539Y-13788293D02*
X11981015Y-13826388D01*
X11981015Y-13826388D02*
X11971491Y-13845436D01*
X11971491Y-13845436D02*
X11961967Y-13854960D01*
X11961967Y-13854960D02*
X11942920Y-13864484D01*
X11942920Y-13864484D02*
X11923872Y-13864484D01*
X11923872Y-13864484D02*
X11904824Y-13854960D01*
X11904824Y-13854960D02*
X11895301Y-13845436D01*
X11895301Y-13845436D02*
X11885777Y-13826388D01*
X11885777Y-13826388D02*
X11876253Y-13788293D01*
X11876253Y-13788293D02*
X11876253Y-13740674D01*
X11876253Y-13740674D02*
X11885777Y-13702579D01*
X11885777Y-13702579D02*
X11895301Y-13683531D01*
X11895301Y-13683531D02*
X11904824Y-13674008D01*
X11904824Y-13674008D02*
X11923872Y-13664484D01*
X12076253Y-13845436D02*
X12085777Y-13854960D01*
X12085777Y-13854960D02*
X12076253Y-13864484D01*
X12076253Y-13864484D02*
X12066729Y-13854960D01*
X12066729Y-13854960D02*
X12076253Y-13845436D01*
X12076253Y-13845436D02*
X12076253Y-13864484D01*
X12152443Y-13664484D02*
X12285777Y-13664484D01*
X12285777Y-13664484D02*
X12200062Y-13864484D01*
X12447682Y-13664484D02*
X12409586Y-13664484D01*
X12409586Y-13664484D02*
X12390539Y-13674008D01*
X12390539Y-13674008D02*
X12381015Y-13683531D01*
X12381015Y-13683531D02*
X12361967Y-13712103D01*
X12361967Y-13712103D02*
X12352443Y-13750198D01*
X12352443Y-13750198D02*
X12352443Y-13826388D01*
X12352443Y-13826388D02*
X12361967Y-13845436D01*
X12361967Y-13845436D02*
X12371491Y-13854960D01*
X12371491Y-13854960D02*
X12390539Y-13864484D01*
X12390539Y-13864484D02*
X12428634Y-13864484D01*
X12428634Y-13864484D02*
X12447682Y-13854960D01*
X12447682Y-13854960D02*
X12457205Y-13845436D01*
X12457205Y-13845436D02*
X12466729Y-13826388D01*
X12466729Y-13826388D02*
X12466729Y-13778769D01*
X12466729Y-13778769D02*
X12457205Y-13759722D01*
X12457205Y-13759722D02*
X12447682Y-13750198D01*
X12447682Y-13750198D02*
X12428634Y-13740674D01*
X12428634Y-13740674D02*
X12390539Y-13740674D01*
X12390539Y-13740674D02*
X12371491Y-13750198D01*
X12371491Y-13750198D02*
X12361967Y-13759722D01*
X12361967Y-13759722D02*
X12352443Y-13778769D01*
X12542920Y-13683531D02*
X12552443Y-13674008D01*
X12552443Y-13674008D02*
X12571491Y-13664484D01*
X12571491Y-13664484D02*
X12619110Y-13664484D01*
X12619110Y-13664484D02*
X12638158Y-13674008D01*
X12638158Y-13674008D02*
X12647682Y-13683531D01*
X12647682Y-13683531D02*
X12657205Y-13702579D01*
X12657205Y-13702579D02*
X12657205Y-13721627D01*
X12657205Y-13721627D02*
X12647682Y-13750198D01*
X12647682Y-13750198D02*
X12533396Y-13864484D01*
X12533396Y-13864484D02*
X12657205Y-13864484D01*
X12742920Y-13864484D02*
X12742920Y-13731150D01*
X12742920Y-13750198D02*
X12752443Y-13740674D01*
X12752443Y-13740674D02*
X12771491Y-13731150D01*
X12771491Y-13731150D02*
X12800063Y-13731150D01*
X12800063Y-13731150D02*
X12819110Y-13740674D01*
X12819110Y-13740674D02*
X12828634Y-13759722D01*
X12828634Y-13759722D02*
X12828634Y-13864484D01*
X12828634Y-13759722D02*
X12838158Y-13740674D01*
X12838158Y-13740674D02*
X12857205Y-13731150D01*
X12857205Y-13731150D02*
X12885777Y-13731150D01*
X12885777Y-13731150D02*
X12904824Y-13740674D01*
X12904824Y-13740674D02*
X12914348Y-13759722D01*
X12914348Y-13759722D02*
X12914348Y-13864484D01*
X13009586Y-13864484D02*
X13009586Y-13731150D01*
X13009586Y-13750198D02*
X13019110Y-13740674D01*
X13019110Y-13740674D02*
X13038158Y-13731150D01*
X13038158Y-13731150D02*
X13066729Y-13731150D01*
X13066729Y-13731150D02*
X13085777Y-13740674D01*
X13085777Y-13740674D02*
X13095301Y-13759722D01*
X13095301Y-13759722D02*
X13095301Y-13864484D01*
X13095301Y-13759722D02*
X13104824Y-13740674D01*
X13104824Y-13740674D02*
X13123872Y-13731150D01*
X13123872Y-13731150D02*
X13152443Y-13731150D01*
X13152443Y-13731150D02*
X13171491Y-13740674D01*
X13171491Y-13740674D02*
X13181015Y-13759722D01*
X13181015Y-13759722D02*
X13181015Y-13864484D01*
X13571491Y-13654960D02*
X13400063Y-13912103D01*
X13828634Y-13664484D02*
X13847682Y-13664484D01*
X13847682Y-13664484D02*
X13866729Y-13674008D01*
X13866729Y-13674008D02*
X13876253Y-13683531D01*
X13876253Y-13683531D02*
X13885777Y-13702579D01*
X13885777Y-13702579D02*
X13895301Y-13740674D01*
X13895301Y-13740674D02*
X13895301Y-13788293D01*
X13895301Y-13788293D02*
X13885777Y-13826388D01*
X13885777Y-13826388D02*
X13876253Y-13845436D01*
X13876253Y-13845436D02*
X13866729Y-13854960D01*
X13866729Y-13854960D02*
X13847682Y-13864484D01*
X13847682Y-13864484D02*
X13828634Y-13864484D01*
X13828634Y-13864484D02*
X13809586Y-13854960D01*
X13809586Y-13854960D02*
X13800063Y-13845436D01*
X13800063Y-13845436D02*
X13790539Y-13826388D01*
X13790539Y-13826388D02*
X13781015Y-13788293D01*
X13781015Y-13788293D02*
X13781015Y-13740674D01*
X13781015Y-13740674D02*
X13790539Y-13702579D01*
X13790539Y-13702579D02*
X13800063Y-13683531D01*
X13800063Y-13683531D02*
X13809586Y-13674008D01*
X13809586Y-13674008D02*
X13828634Y-13664484D01*
X13981015Y-13845436D02*
X13990539Y-13854960D01*
X13990539Y-13854960D02*
X13981015Y-13864484D01*
X13981015Y-13864484D02*
X13971491Y-13854960D01*
X13971491Y-13854960D02*
X13981015Y-13845436D01*
X13981015Y-13845436D02*
X13981015Y-13864484D01*
X14114348Y-13664484D02*
X14133396Y-13664484D01*
X14133396Y-13664484D02*
X14152444Y-13674008D01*
X14152444Y-13674008D02*
X14161967Y-13683531D01*
X14161967Y-13683531D02*
X14171491Y-13702579D01*
X14171491Y-13702579D02*
X14181015Y-13740674D01*
X14181015Y-13740674D02*
X14181015Y-13788293D01*
X14181015Y-13788293D02*
X14171491Y-13826388D01*
X14171491Y-13826388D02*
X14161967Y-13845436D01*
X14161967Y-13845436D02*
X14152444Y-13854960D01*
X14152444Y-13854960D02*
X14133396Y-13864484D01*
X14133396Y-13864484D02*
X14114348Y-13864484D01*
X14114348Y-13864484D02*
X14095301Y-13854960D01*
X14095301Y-13854960D02*
X14085777Y-13845436D01*
X14085777Y-13845436D02*
X14076253Y-13826388D01*
X14076253Y-13826388D02*
X14066729Y-13788293D01*
X14066729Y-13788293D02*
X14066729Y-13740674D01*
X14066729Y-13740674D02*
X14076253Y-13702579D01*
X14076253Y-13702579D02*
X14085777Y-13683531D01*
X14085777Y-13683531D02*
X14095301Y-13674008D01*
X14095301Y-13674008D02*
X14114348Y-13664484D01*
X14247682Y-13664484D02*
X14371491Y-13664484D01*
X14371491Y-13664484D02*
X14304825Y-13740674D01*
X14304825Y-13740674D02*
X14333396Y-13740674D01*
X14333396Y-13740674D02*
X14352444Y-13750198D01*
X14352444Y-13750198D02*
X14361967Y-13759722D01*
X14361967Y-13759722D02*
X14371491Y-13778769D01*
X14371491Y-13778769D02*
X14371491Y-13826388D01*
X14371491Y-13826388D02*
X14361967Y-13845436D01*
X14361967Y-13845436D02*
X14352444Y-13854960D01*
X14352444Y-13854960D02*
X14333396Y-13864484D01*
X14333396Y-13864484D02*
X14276253Y-13864484D01*
X14276253Y-13864484D02*
X14257206Y-13854960D01*
X14257206Y-13854960D02*
X14247682Y-13845436D01*
X14495301Y-13664484D02*
X14514348Y-13664484D01*
X14514348Y-13664484D02*
X14533396Y-13674008D01*
X14533396Y-13674008D02*
X14542920Y-13683531D01*
X14542920Y-13683531D02*
X14552444Y-13702579D01*
X14552444Y-13702579D02*
X14561967Y-13740674D01*
X14561967Y-13740674D02*
X14561967Y-13788293D01*
X14561967Y-13788293D02*
X14552444Y-13826388D01*
X14552444Y-13826388D02*
X14542920Y-13845436D01*
X14542920Y-13845436D02*
X14533396Y-13854960D01*
X14533396Y-13854960D02*
X14514348Y-13864484D01*
X14514348Y-13864484D02*
X14495301Y-13864484D01*
X14495301Y-13864484D02*
X14476253Y-13854960D01*
X14476253Y-13854960D02*
X14466729Y-13845436D01*
X14466729Y-13845436D02*
X14457206Y-13826388D01*
X14457206Y-13826388D02*
X14447682Y-13788293D01*
X14447682Y-13788293D02*
X14447682Y-13740674D01*
X14447682Y-13740674D02*
X14457206Y-13702579D01*
X14457206Y-13702579D02*
X14466729Y-13683531D01*
X14466729Y-13683531D02*
X14476253Y-13674008D01*
X14476253Y-13674008D02*
X14495301Y-13664484D01*
X14685777Y-13664484D02*
X14704825Y-13664484D01*
X14704825Y-13664484D02*
X14723872Y-13674008D01*
X14723872Y-13674008D02*
X14733396Y-13683531D01*
X14733396Y-13683531D02*
X14742920Y-13702579D01*
X14742920Y-13702579D02*
X14752444Y-13740674D01*
X14752444Y-13740674D02*
X14752444Y-13788293D01*
X14752444Y-13788293D02*
X14742920Y-13826388D01*
X14742920Y-13826388D02*
X14733396Y-13845436D01*
X14733396Y-13845436D02*
X14723872Y-13854960D01*
X14723872Y-13854960D02*
X14704825Y-13864484D01*
X14704825Y-13864484D02*
X14685777Y-13864484D01*
X14685777Y-13864484D02*
X14666729Y-13854960D01*
X14666729Y-13854960D02*
X14657206Y-13845436D01*
X14657206Y-13845436D02*
X14647682Y-13826388D01*
X14647682Y-13826388D02*
X14638158Y-13788293D01*
X14638158Y-13788293D02*
X14638158Y-13740674D01*
X14638158Y-13740674D02*
X14647682Y-13702579D01*
X14647682Y-13702579D02*
X14657206Y-13683531D01*
X14657206Y-13683531D02*
X14666729Y-13674008D01*
X14666729Y-13674008D02*
X14685777Y-13664484D01*
X14828634Y-13664484D02*
X14828634Y-13702579D01*
X14904825Y-13664484D02*
X14904825Y-13702579D01*
X15200063Y-13940674D02*
X15190539Y-13931150D01*
X15190539Y-13931150D02*
X15171491Y-13902579D01*
X15171491Y-13902579D02*
X15161968Y-13883531D01*
X15161968Y-13883531D02*
X15152444Y-13854960D01*
X15152444Y-13854960D02*
X15142920Y-13807341D01*
X15142920Y-13807341D02*
X15142920Y-13769246D01*
X15142920Y-13769246D02*
X15152444Y-13721627D01*
X15152444Y-13721627D02*
X15161968Y-13693055D01*
X15161968Y-13693055D02*
X15171491Y-13674008D01*
X15171491Y-13674008D02*
X15190539Y-13645436D01*
X15190539Y-13645436D02*
X15200063Y-13635912D01*
X15381015Y-13864484D02*
X15266729Y-13864484D01*
X15323872Y-13864484D02*
X15323872Y-13664484D01*
X15323872Y-13664484D02*
X15304825Y-13693055D01*
X15304825Y-13693055D02*
X15285777Y-13712103D01*
X15285777Y-13712103D02*
X15266729Y-13721627D01*
X15457206Y-13683531D02*
X15466729Y-13674008D01*
X15466729Y-13674008D02*
X15485777Y-13664484D01*
X15485777Y-13664484D02*
X15533396Y-13664484D01*
X15533396Y-13664484D02*
X15552444Y-13674008D01*
X15552444Y-13674008D02*
X15561968Y-13683531D01*
X15561968Y-13683531D02*
X15571491Y-13702579D01*
X15571491Y-13702579D02*
X15571491Y-13721627D01*
X15571491Y-13721627D02*
X15561968Y-13750198D01*
X15561968Y-13750198D02*
X15447682Y-13864484D01*
X15447682Y-13864484D02*
X15571491Y-13864484D01*
X15809587Y-13864484D02*
X15809587Y-13664484D01*
X15895301Y-13864484D02*
X15895301Y-13759722D01*
X15895301Y-13759722D02*
X15885777Y-13740674D01*
X15885777Y-13740674D02*
X15866730Y-13731150D01*
X15866730Y-13731150D02*
X15838158Y-13731150D01*
X15838158Y-13731150D02*
X15819110Y-13740674D01*
X15819110Y-13740674D02*
X15809587Y-13750198D01*
X16019110Y-13864484D02*
X16000063Y-13854960D01*
X16000063Y-13854960D02*
X15990539Y-13845436D01*
X15990539Y-13845436D02*
X15981015Y-13826388D01*
X15981015Y-13826388D02*
X15981015Y-13769246D01*
X15981015Y-13769246D02*
X15990539Y-13750198D01*
X15990539Y-13750198D02*
X16000063Y-13740674D01*
X16000063Y-13740674D02*
X16019110Y-13731150D01*
X16019110Y-13731150D02*
X16047682Y-13731150D01*
X16047682Y-13731150D02*
X16066730Y-13740674D01*
X16066730Y-13740674D02*
X16076253Y-13750198D01*
X16076253Y-13750198D02*
X16085777Y-13769246D01*
X16085777Y-13769246D02*
X16085777Y-13826388D01*
X16085777Y-13826388D02*
X16076253Y-13845436D01*
X16076253Y-13845436D02*
X16066730Y-13854960D01*
X16066730Y-13854960D02*
X16047682Y-13864484D01*
X16047682Y-13864484D02*
X16019110Y-13864484D01*
X16200063Y-13864484D02*
X16181015Y-13854960D01*
X16181015Y-13854960D02*
X16171491Y-13835912D01*
X16171491Y-13835912D02*
X16171491Y-13664484D01*
X16352444Y-13854960D02*
X16333396Y-13864484D01*
X16333396Y-13864484D02*
X16295301Y-13864484D01*
X16295301Y-13864484D02*
X16276253Y-13854960D01*
X16276253Y-13854960D02*
X16266730Y-13835912D01*
X16266730Y-13835912D02*
X16266730Y-13759722D01*
X16266730Y-13759722D02*
X16276253Y-13740674D01*
X16276253Y-13740674D02*
X16295301Y-13731150D01*
X16295301Y-13731150D02*
X16333396Y-13731150D01*
X16333396Y-13731150D02*
X16352444Y-13740674D01*
X16352444Y-13740674D02*
X16361968Y-13759722D01*
X16361968Y-13759722D02*
X16361968Y-13778769D01*
X16361968Y-13778769D02*
X16266730Y-13797817D01*
X16438158Y-13854960D02*
X16457206Y-13864484D01*
X16457206Y-13864484D02*
X16495301Y-13864484D01*
X16495301Y-13864484D02*
X16514349Y-13854960D01*
X16514349Y-13854960D02*
X16523872Y-13835912D01*
X16523872Y-13835912D02*
X16523872Y-13826388D01*
X16523872Y-13826388D02*
X16514349Y-13807341D01*
X16514349Y-13807341D02*
X16495301Y-13797817D01*
X16495301Y-13797817D02*
X16466730Y-13797817D01*
X16466730Y-13797817D02*
X16447682Y-13788293D01*
X16447682Y-13788293D02*
X16438158Y-13769246D01*
X16438158Y-13769246D02*
X16438158Y-13759722D01*
X16438158Y-13759722D02*
X16447682Y-13740674D01*
X16447682Y-13740674D02*
X16466730Y-13731150D01*
X16466730Y-13731150D02*
X16495301Y-13731150D01*
X16495301Y-13731150D02*
X16514349Y-13740674D01*
X16590539Y-13940674D02*
X16600063Y-13931150D01*
X16600063Y-13931150D02*
X16619111Y-13902579D01*
X16619111Y-13902579D02*
X16628634Y-13883531D01*
X16628634Y-13883531D02*
X16638158Y-13854960D01*
X16638158Y-13854960D02*
X16647682Y-13807341D01*
X16647682Y-13807341D02*
X16647682Y-13769246D01*
X16647682Y-13769246D02*
X16638158Y-13721627D01*
X16638158Y-13721627D02*
X16628634Y-13693055D01*
X16628634Y-13693055D02*
X16619111Y-13674008D01*
X16619111Y-13674008D02*
X16600063Y-13645436D01*
X16600063Y-13645436D02*
X16590539Y-13635912D01*
D15*
X11613284Y-14065284D02*
X11613284Y-14008715D01*
X11556715Y-14008715D01*
X11556715Y-14065284D01*
X11613284Y-14065284D01*
D11*
X11923872Y-13928484D02*
X11942920Y-13928484D01*
X11942920Y-13928484D02*
X11961967Y-13938008D01*
X11961967Y-13938008D02*
X11971491Y-13947531D01*
X11971491Y-13947531D02*
X11981015Y-13966579D01*
X11981015Y-13966579D02*
X11990539Y-14004674D01*
X11990539Y-14004674D02*
X11990539Y-14052293D01*
X11990539Y-14052293D02*
X11981015Y-14090388D01*
X11981015Y-14090388D02*
X11971491Y-14109436D01*
X11971491Y-14109436D02*
X11961967Y-14118960D01*
X11961967Y-14118960D02*
X11942920Y-14128484D01*
X11942920Y-14128484D02*
X11923872Y-14128484D01*
X11923872Y-14128484D02*
X11904824Y-14118960D01*
X11904824Y-14118960D02*
X11895301Y-14109436D01*
X11895301Y-14109436D02*
X11885777Y-14090388D01*
X11885777Y-14090388D02*
X11876253Y-14052293D01*
X11876253Y-14052293D02*
X11876253Y-14004674D01*
X11876253Y-14004674D02*
X11885777Y-13966579D01*
X11885777Y-13966579D02*
X11895301Y-13947531D01*
X11895301Y-13947531D02*
X11904824Y-13938008D01*
X11904824Y-13938008D02*
X11923872Y-13928484D01*
X12076253Y-14109436D02*
X12085777Y-14118960D01*
X12085777Y-14118960D02*
X12076253Y-14128484D01*
X12076253Y-14128484D02*
X12066729Y-14118960D01*
X12066729Y-14118960D02*
X12076253Y-14109436D01*
X12076253Y-14109436D02*
X12076253Y-14128484D01*
X12200062Y-14014198D02*
X12181015Y-14004674D01*
X12181015Y-14004674D02*
X12171491Y-13995150D01*
X12171491Y-13995150D02*
X12161967Y-13976103D01*
X12161967Y-13976103D02*
X12161967Y-13966579D01*
X12161967Y-13966579D02*
X12171491Y-13947531D01*
X12171491Y-13947531D02*
X12181015Y-13938008D01*
X12181015Y-13938008D02*
X12200062Y-13928484D01*
X12200062Y-13928484D02*
X12238158Y-13928484D01*
X12238158Y-13928484D02*
X12257205Y-13938008D01*
X12257205Y-13938008D02*
X12266729Y-13947531D01*
X12266729Y-13947531D02*
X12276253Y-13966579D01*
X12276253Y-13966579D02*
X12276253Y-13976103D01*
X12276253Y-13976103D02*
X12266729Y-13995150D01*
X12266729Y-13995150D02*
X12257205Y-14004674D01*
X12257205Y-14004674D02*
X12238158Y-14014198D01*
X12238158Y-14014198D02*
X12200062Y-14014198D01*
X12200062Y-14014198D02*
X12181015Y-14023722D01*
X12181015Y-14023722D02*
X12171491Y-14033246D01*
X12171491Y-14033246D02*
X12161967Y-14052293D01*
X12161967Y-14052293D02*
X12161967Y-14090388D01*
X12161967Y-14090388D02*
X12171491Y-14109436D01*
X12171491Y-14109436D02*
X12181015Y-14118960D01*
X12181015Y-14118960D02*
X12200062Y-14128484D01*
X12200062Y-14128484D02*
X12238158Y-14128484D01*
X12238158Y-14128484D02*
X12257205Y-14118960D01*
X12257205Y-14118960D02*
X12266729Y-14109436D01*
X12266729Y-14109436D02*
X12276253Y-14090388D01*
X12276253Y-14090388D02*
X12276253Y-14052293D01*
X12276253Y-14052293D02*
X12266729Y-14033246D01*
X12266729Y-14033246D02*
X12257205Y-14023722D01*
X12257205Y-14023722D02*
X12238158Y-14014198D01*
X12400062Y-13928484D02*
X12419110Y-13928484D01*
X12419110Y-13928484D02*
X12438158Y-13938008D01*
X12438158Y-13938008D02*
X12447682Y-13947531D01*
X12447682Y-13947531D02*
X12457205Y-13966579D01*
X12457205Y-13966579D02*
X12466729Y-14004674D01*
X12466729Y-14004674D02*
X12466729Y-14052293D01*
X12466729Y-14052293D02*
X12457205Y-14090388D01*
X12457205Y-14090388D02*
X12447682Y-14109436D01*
X12447682Y-14109436D02*
X12438158Y-14118960D01*
X12438158Y-14118960D02*
X12419110Y-14128484D01*
X12419110Y-14128484D02*
X12400062Y-14128484D01*
X12400062Y-14128484D02*
X12381015Y-14118960D01*
X12381015Y-14118960D02*
X12371491Y-14109436D01*
X12371491Y-14109436D02*
X12361967Y-14090388D01*
X12361967Y-14090388D02*
X12352443Y-14052293D01*
X12352443Y-14052293D02*
X12352443Y-14004674D01*
X12352443Y-14004674D02*
X12361967Y-13966579D01*
X12361967Y-13966579D02*
X12371491Y-13947531D01*
X12371491Y-13947531D02*
X12381015Y-13938008D01*
X12381015Y-13938008D02*
X12400062Y-13928484D01*
X12590539Y-13928484D02*
X12609586Y-13928484D01*
X12609586Y-13928484D02*
X12628634Y-13938008D01*
X12628634Y-13938008D02*
X12638158Y-13947531D01*
X12638158Y-13947531D02*
X12647682Y-13966579D01*
X12647682Y-13966579D02*
X12657205Y-14004674D01*
X12657205Y-14004674D02*
X12657205Y-14052293D01*
X12657205Y-14052293D02*
X12647682Y-14090388D01*
X12647682Y-14090388D02*
X12638158Y-14109436D01*
X12638158Y-14109436D02*
X12628634Y-14118960D01*
X12628634Y-14118960D02*
X12609586Y-14128484D01*
X12609586Y-14128484D02*
X12590539Y-14128484D01*
X12590539Y-14128484D02*
X12571491Y-14118960D01*
X12571491Y-14118960D02*
X12561967Y-14109436D01*
X12561967Y-14109436D02*
X12552443Y-14090388D01*
X12552443Y-14090388D02*
X12542920Y-14052293D01*
X12542920Y-14052293D02*
X12542920Y-14004674D01*
X12542920Y-14004674D02*
X12552443Y-13966579D01*
X12552443Y-13966579D02*
X12561967Y-13947531D01*
X12561967Y-13947531D02*
X12571491Y-13938008D01*
X12571491Y-13938008D02*
X12590539Y-13928484D01*
X12742920Y-14128484D02*
X12742920Y-13995150D01*
X12742920Y-14014198D02*
X12752443Y-14004674D01*
X12752443Y-14004674D02*
X12771491Y-13995150D01*
X12771491Y-13995150D02*
X12800063Y-13995150D01*
X12800063Y-13995150D02*
X12819110Y-14004674D01*
X12819110Y-14004674D02*
X12828634Y-14023722D01*
X12828634Y-14023722D02*
X12828634Y-14128484D01*
X12828634Y-14023722D02*
X12838158Y-14004674D01*
X12838158Y-14004674D02*
X12857205Y-13995150D01*
X12857205Y-13995150D02*
X12885777Y-13995150D01*
X12885777Y-13995150D02*
X12904824Y-14004674D01*
X12904824Y-14004674D02*
X12914348Y-14023722D01*
X12914348Y-14023722D02*
X12914348Y-14128484D01*
X13009586Y-14128484D02*
X13009586Y-13995150D01*
X13009586Y-14014198D02*
X13019110Y-14004674D01*
X13019110Y-14004674D02*
X13038158Y-13995150D01*
X13038158Y-13995150D02*
X13066729Y-13995150D01*
X13066729Y-13995150D02*
X13085777Y-14004674D01*
X13085777Y-14004674D02*
X13095301Y-14023722D01*
X13095301Y-14023722D02*
X13095301Y-14128484D01*
X13095301Y-14023722D02*
X13104824Y-14004674D01*
X13104824Y-14004674D02*
X13123872Y-13995150D01*
X13123872Y-13995150D02*
X13152443Y-13995150D01*
X13152443Y-13995150D02*
X13171491Y-14004674D01*
X13171491Y-14004674D02*
X13181015Y-14023722D01*
X13181015Y-14023722D02*
X13181015Y-14128484D01*
X13571491Y-13918960D02*
X13400063Y-14176103D01*
X13828634Y-13928484D02*
X13847682Y-13928484D01*
X13847682Y-13928484D02*
X13866729Y-13938008D01*
X13866729Y-13938008D02*
X13876253Y-13947531D01*
X13876253Y-13947531D02*
X13885777Y-13966579D01*
X13885777Y-13966579D02*
X13895301Y-14004674D01*
X13895301Y-14004674D02*
X13895301Y-14052293D01*
X13895301Y-14052293D02*
X13885777Y-14090388D01*
X13885777Y-14090388D02*
X13876253Y-14109436D01*
X13876253Y-14109436D02*
X13866729Y-14118960D01*
X13866729Y-14118960D02*
X13847682Y-14128484D01*
X13847682Y-14128484D02*
X13828634Y-14128484D01*
X13828634Y-14128484D02*
X13809586Y-14118960D01*
X13809586Y-14118960D02*
X13800063Y-14109436D01*
X13800063Y-14109436D02*
X13790539Y-14090388D01*
X13790539Y-14090388D02*
X13781015Y-14052293D01*
X13781015Y-14052293D02*
X13781015Y-14004674D01*
X13781015Y-14004674D02*
X13790539Y-13966579D01*
X13790539Y-13966579D02*
X13800063Y-13947531D01*
X13800063Y-13947531D02*
X13809586Y-13938008D01*
X13809586Y-13938008D02*
X13828634Y-13928484D01*
X13981015Y-14109436D02*
X13990539Y-14118960D01*
X13990539Y-14118960D02*
X13981015Y-14128484D01*
X13981015Y-14128484D02*
X13971491Y-14118960D01*
X13971491Y-14118960D02*
X13981015Y-14109436D01*
X13981015Y-14109436D02*
X13981015Y-14128484D01*
X14114348Y-13928484D02*
X14133396Y-13928484D01*
X14133396Y-13928484D02*
X14152444Y-13938008D01*
X14152444Y-13938008D02*
X14161967Y-13947531D01*
X14161967Y-13947531D02*
X14171491Y-13966579D01*
X14171491Y-13966579D02*
X14181015Y-14004674D01*
X14181015Y-14004674D02*
X14181015Y-14052293D01*
X14181015Y-14052293D02*
X14171491Y-14090388D01*
X14171491Y-14090388D02*
X14161967Y-14109436D01*
X14161967Y-14109436D02*
X14152444Y-14118960D01*
X14152444Y-14118960D02*
X14133396Y-14128484D01*
X14133396Y-14128484D02*
X14114348Y-14128484D01*
X14114348Y-14128484D02*
X14095301Y-14118960D01*
X14095301Y-14118960D02*
X14085777Y-14109436D01*
X14085777Y-14109436D02*
X14076253Y-14090388D01*
X14076253Y-14090388D02*
X14066729Y-14052293D01*
X14066729Y-14052293D02*
X14066729Y-14004674D01*
X14066729Y-14004674D02*
X14076253Y-13966579D01*
X14076253Y-13966579D02*
X14085777Y-13947531D01*
X14085777Y-13947531D02*
X14095301Y-13938008D01*
X14095301Y-13938008D02*
X14114348Y-13928484D01*
X14247682Y-13928484D02*
X14371491Y-13928484D01*
X14371491Y-13928484D02*
X14304825Y-14004674D01*
X14304825Y-14004674D02*
X14333396Y-14004674D01*
X14333396Y-14004674D02*
X14352444Y-14014198D01*
X14352444Y-14014198D02*
X14361967Y-14023722D01*
X14361967Y-14023722D02*
X14371491Y-14042769D01*
X14371491Y-14042769D02*
X14371491Y-14090388D01*
X14371491Y-14090388D02*
X14361967Y-14109436D01*
X14361967Y-14109436D02*
X14352444Y-14118960D01*
X14352444Y-14118960D02*
X14333396Y-14128484D01*
X14333396Y-14128484D02*
X14276253Y-14128484D01*
X14276253Y-14128484D02*
X14257206Y-14118960D01*
X14257206Y-14118960D02*
X14247682Y-14109436D01*
X14561967Y-14128484D02*
X14447682Y-14128484D01*
X14504825Y-14128484D02*
X14504825Y-13928484D01*
X14504825Y-13928484D02*
X14485777Y-13957055D01*
X14485777Y-13957055D02*
X14466729Y-13976103D01*
X14466729Y-13976103D02*
X14447682Y-13985627D01*
X14742920Y-13928484D02*
X14647682Y-13928484D01*
X14647682Y-13928484D02*
X14638158Y-14023722D01*
X14638158Y-14023722D02*
X14647682Y-14014198D01*
X14647682Y-14014198D02*
X14666729Y-14004674D01*
X14666729Y-14004674D02*
X14714348Y-14004674D01*
X14714348Y-14004674D02*
X14733396Y-14014198D01*
X14733396Y-14014198D02*
X14742920Y-14023722D01*
X14742920Y-14023722D02*
X14752444Y-14042769D01*
X14752444Y-14042769D02*
X14752444Y-14090388D01*
X14752444Y-14090388D02*
X14742920Y-14109436D01*
X14742920Y-14109436D02*
X14733396Y-14118960D01*
X14733396Y-14118960D02*
X14714348Y-14128484D01*
X14714348Y-14128484D02*
X14666729Y-14128484D01*
X14666729Y-14128484D02*
X14647682Y-14118960D01*
X14647682Y-14118960D02*
X14638158Y-14109436D01*
X14828634Y-13928484D02*
X14828634Y-13966579D01*
X14904825Y-13928484D02*
X14904825Y-13966579D01*
X15200063Y-14204674D02*
X15190539Y-14195150D01*
X15190539Y-14195150D02*
X15171491Y-14166579D01*
X15171491Y-14166579D02*
X15161968Y-14147531D01*
X15161968Y-14147531D02*
X15152444Y-14118960D01*
X15152444Y-14118960D02*
X15142920Y-14071341D01*
X15142920Y-14071341D02*
X15142920Y-14033246D01*
X15142920Y-14033246D02*
X15152444Y-13985627D01*
X15152444Y-13985627D02*
X15161968Y-13957055D01*
X15161968Y-13957055D02*
X15171491Y-13938008D01*
X15171491Y-13938008D02*
X15190539Y-13909436D01*
X15190539Y-13909436D02*
X15200063Y-13899912D01*
X15266729Y-13947531D02*
X15276253Y-13938008D01*
X15276253Y-13938008D02*
X15295301Y-13928484D01*
X15295301Y-13928484D02*
X15342920Y-13928484D01*
X15342920Y-13928484D02*
X15361968Y-13938008D01*
X15361968Y-13938008D02*
X15371491Y-13947531D01*
X15371491Y-13947531D02*
X15381015Y-13966579D01*
X15381015Y-13966579D02*
X15381015Y-13985627D01*
X15381015Y-13985627D02*
X15371491Y-14014198D01*
X15371491Y-14014198D02*
X15257206Y-14128484D01*
X15257206Y-14128484D02*
X15381015Y-14128484D01*
X15619110Y-14128484D02*
X15619110Y-13928484D01*
X15704825Y-14128484D02*
X15704825Y-14023722D01*
X15704825Y-14023722D02*
X15695301Y-14004674D01*
X15695301Y-14004674D02*
X15676253Y-13995150D01*
X15676253Y-13995150D02*
X15647682Y-13995150D01*
X15647682Y-13995150D02*
X15628634Y-14004674D01*
X15628634Y-14004674D02*
X15619110Y-14014198D01*
X15828634Y-14128484D02*
X15809587Y-14118960D01*
X15809587Y-14118960D02*
X15800063Y-14109436D01*
X15800063Y-14109436D02*
X15790539Y-14090388D01*
X15790539Y-14090388D02*
X15790539Y-14033246D01*
X15790539Y-14033246D02*
X15800063Y-14014198D01*
X15800063Y-14014198D02*
X15809587Y-14004674D01*
X15809587Y-14004674D02*
X15828634Y-13995150D01*
X15828634Y-13995150D02*
X15857206Y-13995150D01*
X15857206Y-13995150D02*
X15876253Y-14004674D01*
X15876253Y-14004674D02*
X15885777Y-14014198D01*
X15885777Y-14014198D02*
X15895301Y-14033246D01*
X15895301Y-14033246D02*
X15895301Y-14090388D01*
X15895301Y-14090388D02*
X15885777Y-14109436D01*
X15885777Y-14109436D02*
X15876253Y-14118960D01*
X15876253Y-14118960D02*
X15857206Y-14128484D01*
X15857206Y-14128484D02*
X15828634Y-14128484D01*
X16009587Y-14128484D02*
X15990539Y-14118960D01*
X15990539Y-14118960D02*
X15981015Y-14099912D01*
X15981015Y-14099912D02*
X15981015Y-13928484D01*
X16161968Y-14118960D02*
X16142920Y-14128484D01*
X16142920Y-14128484D02*
X16104825Y-14128484D01*
X16104825Y-14128484D02*
X16085777Y-14118960D01*
X16085777Y-14118960D02*
X16076253Y-14099912D01*
X16076253Y-14099912D02*
X16076253Y-14023722D01*
X16076253Y-14023722D02*
X16085777Y-14004674D01*
X16085777Y-14004674D02*
X16104825Y-13995150D01*
X16104825Y-13995150D02*
X16142920Y-13995150D01*
X16142920Y-13995150D02*
X16161968Y-14004674D01*
X16161968Y-14004674D02*
X16171491Y-14023722D01*
X16171491Y-14023722D02*
X16171491Y-14042769D01*
X16171491Y-14042769D02*
X16076253Y-14061817D01*
X16247682Y-14118960D02*
X16266730Y-14128484D01*
X16266730Y-14128484D02*
X16304825Y-14128484D01*
X16304825Y-14128484D02*
X16323872Y-14118960D01*
X16323872Y-14118960D02*
X16333396Y-14099912D01*
X16333396Y-14099912D02*
X16333396Y-14090388D01*
X16333396Y-14090388D02*
X16323872Y-14071341D01*
X16323872Y-14071341D02*
X16304825Y-14061817D01*
X16304825Y-14061817D02*
X16276253Y-14061817D01*
X16276253Y-14061817D02*
X16257206Y-14052293D01*
X16257206Y-14052293D02*
X16247682Y-14033246D01*
X16247682Y-14033246D02*
X16247682Y-14023722D01*
X16247682Y-14023722D02*
X16257206Y-14004674D01*
X16257206Y-14004674D02*
X16276253Y-13995150D01*
X16276253Y-13995150D02*
X16304825Y-13995150D01*
X16304825Y-13995150D02*
X16323872Y-14004674D01*
X16400063Y-14204674D02*
X16409587Y-14195150D01*
X16409587Y-14195150D02*
X16428634Y-14166579D01*
X16428634Y-14166579D02*
X16438158Y-14147531D01*
X16438158Y-14147531D02*
X16447682Y-14118960D01*
X16447682Y-14118960D02*
X16457206Y-14071341D01*
X16457206Y-14071341D02*
X16457206Y-14033246D01*
X16457206Y-14033246D02*
X16447682Y-13985627D01*
X16447682Y-13985627D02*
X16438158Y-13957055D01*
X16438158Y-13957055D02*
X16428634Y-13938008D01*
X16428634Y-13938008D02*
X16409587Y-13909436D01*
X16409587Y-13909436D02*
X16400063Y-13899912D01*
D10*
X11575000Y-14351000D02*
X11625000Y-14301000D01*
X11575000Y-14251000D01*
X11525000Y-14301000D01*
X11575000Y-14351000D01*
D11*
X11990539Y-14392484D02*
X11876253Y-14392484D01*
X11933396Y-14392484D02*
X11933396Y-14192484D01*
X11933396Y-14192484D02*
X11914348Y-14221055D01*
X11914348Y-14221055D02*
X11895301Y-14240103D01*
X11895301Y-14240103D02*
X11876253Y-14249627D01*
X12076253Y-14373436D02*
X12085777Y-14382960D01*
X12085777Y-14382960D02*
X12076253Y-14392484D01*
X12076253Y-14392484D02*
X12066729Y-14382960D01*
X12066729Y-14382960D02*
X12076253Y-14373436D01*
X12076253Y-14373436D02*
X12076253Y-14392484D01*
X12209586Y-14192484D02*
X12228634Y-14192484D01*
X12228634Y-14192484D02*
X12247682Y-14202008D01*
X12247682Y-14202008D02*
X12257205Y-14211531D01*
X12257205Y-14211531D02*
X12266729Y-14230579D01*
X12266729Y-14230579D02*
X12276253Y-14268674D01*
X12276253Y-14268674D02*
X12276253Y-14316293D01*
X12276253Y-14316293D02*
X12266729Y-14354388D01*
X12266729Y-14354388D02*
X12257205Y-14373436D01*
X12257205Y-14373436D02*
X12247682Y-14382960D01*
X12247682Y-14382960D02*
X12228634Y-14392484D01*
X12228634Y-14392484D02*
X12209586Y-14392484D01*
X12209586Y-14392484D02*
X12190539Y-14382960D01*
X12190539Y-14382960D02*
X12181015Y-14373436D01*
X12181015Y-14373436D02*
X12171491Y-14354388D01*
X12171491Y-14354388D02*
X12161967Y-14316293D01*
X12161967Y-14316293D02*
X12161967Y-14268674D01*
X12161967Y-14268674D02*
X12171491Y-14230579D01*
X12171491Y-14230579D02*
X12181015Y-14211531D01*
X12181015Y-14211531D02*
X12190539Y-14202008D01*
X12190539Y-14202008D02*
X12209586Y-14192484D01*
X12400062Y-14192484D02*
X12419110Y-14192484D01*
X12419110Y-14192484D02*
X12438158Y-14202008D01*
X12438158Y-14202008D02*
X12447682Y-14211531D01*
X12447682Y-14211531D02*
X12457205Y-14230579D01*
X12457205Y-14230579D02*
X12466729Y-14268674D01*
X12466729Y-14268674D02*
X12466729Y-14316293D01*
X12466729Y-14316293D02*
X12457205Y-14354388D01*
X12457205Y-14354388D02*
X12447682Y-14373436D01*
X12447682Y-14373436D02*
X12438158Y-14382960D01*
X12438158Y-14382960D02*
X12419110Y-14392484D01*
X12419110Y-14392484D02*
X12400062Y-14392484D01*
X12400062Y-14392484D02*
X12381015Y-14382960D01*
X12381015Y-14382960D02*
X12371491Y-14373436D01*
X12371491Y-14373436D02*
X12361967Y-14354388D01*
X12361967Y-14354388D02*
X12352443Y-14316293D01*
X12352443Y-14316293D02*
X12352443Y-14268674D01*
X12352443Y-14268674D02*
X12361967Y-14230579D01*
X12361967Y-14230579D02*
X12371491Y-14211531D01*
X12371491Y-14211531D02*
X12381015Y-14202008D01*
X12381015Y-14202008D02*
X12400062Y-14192484D01*
X12590539Y-14192484D02*
X12609586Y-14192484D01*
X12609586Y-14192484D02*
X12628634Y-14202008D01*
X12628634Y-14202008D02*
X12638158Y-14211531D01*
X12638158Y-14211531D02*
X12647682Y-14230579D01*
X12647682Y-14230579D02*
X12657205Y-14268674D01*
X12657205Y-14268674D02*
X12657205Y-14316293D01*
X12657205Y-14316293D02*
X12647682Y-14354388D01*
X12647682Y-14354388D02*
X12638158Y-14373436D01*
X12638158Y-14373436D02*
X12628634Y-14382960D01*
X12628634Y-14382960D02*
X12609586Y-14392484D01*
X12609586Y-14392484D02*
X12590539Y-14392484D01*
X12590539Y-14392484D02*
X12571491Y-14382960D01*
X12571491Y-14382960D02*
X12561967Y-14373436D01*
X12561967Y-14373436D02*
X12552443Y-14354388D01*
X12552443Y-14354388D02*
X12542920Y-14316293D01*
X12542920Y-14316293D02*
X12542920Y-14268674D01*
X12542920Y-14268674D02*
X12552443Y-14230579D01*
X12552443Y-14230579D02*
X12561967Y-14211531D01*
X12561967Y-14211531D02*
X12571491Y-14202008D01*
X12571491Y-14202008D02*
X12590539Y-14192484D01*
X12742920Y-14392484D02*
X12742920Y-14259150D01*
X12742920Y-14278198D02*
X12752443Y-14268674D01*
X12752443Y-14268674D02*
X12771491Y-14259150D01*
X12771491Y-14259150D02*
X12800063Y-14259150D01*
X12800063Y-14259150D02*
X12819110Y-14268674D01*
X12819110Y-14268674D02*
X12828634Y-14287722D01*
X12828634Y-14287722D02*
X12828634Y-14392484D01*
X12828634Y-14287722D02*
X12838158Y-14268674D01*
X12838158Y-14268674D02*
X12857205Y-14259150D01*
X12857205Y-14259150D02*
X12885777Y-14259150D01*
X12885777Y-14259150D02*
X12904824Y-14268674D01*
X12904824Y-14268674D02*
X12914348Y-14287722D01*
X12914348Y-14287722D02*
X12914348Y-14392484D01*
X13009586Y-14392484D02*
X13009586Y-14259150D01*
X13009586Y-14278198D02*
X13019110Y-14268674D01*
X13019110Y-14268674D02*
X13038158Y-14259150D01*
X13038158Y-14259150D02*
X13066729Y-14259150D01*
X13066729Y-14259150D02*
X13085777Y-14268674D01*
X13085777Y-14268674D02*
X13095301Y-14287722D01*
X13095301Y-14287722D02*
X13095301Y-14392484D01*
X13095301Y-14287722D02*
X13104824Y-14268674D01*
X13104824Y-14268674D02*
X13123872Y-14259150D01*
X13123872Y-14259150D02*
X13152443Y-14259150D01*
X13152443Y-14259150D02*
X13171491Y-14268674D01*
X13171491Y-14268674D02*
X13181015Y-14287722D01*
X13181015Y-14287722D02*
X13181015Y-14392484D01*
X13571491Y-14182960D02*
X13400063Y-14440103D01*
X13828634Y-14192484D02*
X13847682Y-14192484D01*
X13847682Y-14192484D02*
X13866729Y-14202008D01*
X13866729Y-14202008D02*
X13876253Y-14211531D01*
X13876253Y-14211531D02*
X13885777Y-14230579D01*
X13885777Y-14230579D02*
X13895301Y-14268674D01*
X13895301Y-14268674D02*
X13895301Y-14316293D01*
X13895301Y-14316293D02*
X13885777Y-14354388D01*
X13885777Y-14354388D02*
X13876253Y-14373436D01*
X13876253Y-14373436D02*
X13866729Y-14382960D01*
X13866729Y-14382960D02*
X13847682Y-14392484D01*
X13847682Y-14392484D02*
X13828634Y-14392484D01*
X13828634Y-14392484D02*
X13809586Y-14382960D01*
X13809586Y-14382960D02*
X13800063Y-14373436D01*
X13800063Y-14373436D02*
X13790539Y-14354388D01*
X13790539Y-14354388D02*
X13781015Y-14316293D01*
X13781015Y-14316293D02*
X13781015Y-14268674D01*
X13781015Y-14268674D02*
X13790539Y-14230579D01*
X13790539Y-14230579D02*
X13800063Y-14211531D01*
X13800063Y-14211531D02*
X13809586Y-14202008D01*
X13809586Y-14202008D02*
X13828634Y-14192484D01*
X13981015Y-14373436D02*
X13990539Y-14382960D01*
X13990539Y-14382960D02*
X13981015Y-14392484D01*
X13981015Y-14392484D02*
X13971491Y-14382960D01*
X13971491Y-14382960D02*
X13981015Y-14373436D01*
X13981015Y-14373436D02*
X13981015Y-14392484D01*
X14114348Y-14192484D02*
X14133396Y-14192484D01*
X14133396Y-14192484D02*
X14152444Y-14202008D01*
X14152444Y-14202008D02*
X14161967Y-14211531D01*
X14161967Y-14211531D02*
X14171491Y-14230579D01*
X14171491Y-14230579D02*
X14181015Y-14268674D01*
X14181015Y-14268674D02*
X14181015Y-14316293D01*
X14181015Y-14316293D02*
X14171491Y-14354388D01*
X14171491Y-14354388D02*
X14161967Y-14373436D01*
X14161967Y-14373436D02*
X14152444Y-14382960D01*
X14152444Y-14382960D02*
X14133396Y-14392484D01*
X14133396Y-14392484D02*
X14114348Y-14392484D01*
X14114348Y-14392484D02*
X14095301Y-14382960D01*
X14095301Y-14382960D02*
X14085777Y-14373436D01*
X14085777Y-14373436D02*
X14076253Y-14354388D01*
X14076253Y-14354388D02*
X14066729Y-14316293D01*
X14066729Y-14316293D02*
X14066729Y-14268674D01*
X14066729Y-14268674D02*
X14076253Y-14230579D01*
X14076253Y-14230579D02*
X14085777Y-14211531D01*
X14085777Y-14211531D02*
X14095301Y-14202008D01*
X14095301Y-14202008D02*
X14114348Y-14192484D01*
X14247682Y-14192484D02*
X14371491Y-14192484D01*
X14371491Y-14192484D02*
X14304825Y-14268674D01*
X14304825Y-14268674D02*
X14333396Y-14268674D01*
X14333396Y-14268674D02*
X14352444Y-14278198D01*
X14352444Y-14278198D02*
X14361967Y-14287722D01*
X14361967Y-14287722D02*
X14371491Y-14306769D01*
X14371491Y-14306769D02*
X14371491Y-14354388D01*
X14371491Y-14354388D02*
X14361967Y-14373436D01*
X14361967Y-14373436D02*
X14352444Y-14382960D01*
X14352444Y-14382960D02*
X14333396Y-14392484D01*
X14333396Y-14392484D02*
X14276253Y-14392484D01*
X14276253Y-14392484D02*
X14257206Y-14382960D01*
X14257206Y-14382960D02*
X14247682Y-14373436D01*
X14466729Y-14392484D02*
X14504825Y-14392484D01*
X14504825Y-14392484D02*
X14523872Y-14382960D01*
X14523872Y-14382960D02*
X14533396Y-14373436D01*
X14533396Y-14373436D02*
X14552444Y-14344865D01*
X14552444Y-14344865D02*
X14561967Y-14306769D01*
X14561967Y-14306769D02*
X14561967Y-14230579D01*
X14561967Y-14230579D02*
X14552444Y-14211531D01*
X14552444Y-14211531D02*
X14542920Y-14202008D01*
X14542920Y-14202008D02*
X14523872Y-14192484D01*
X14523872Y-14192484D02*
X14485777Y-14192484D01*
X14485777Y-14192484D02*
X14466729Y-14202008D01*
X14466729Y-14202008D02*
X14457206Y-14211531D01*
X14457206Y-14211531D02*
X14447682Y-14230579D01*
X14447682Y-14230579D02*
X14447682Y-14278198D01*
X14447682Y-14278198D02*
X14457206Y-14297246D01*
X14457206Y-14297246D02*
X14466729Y-14306769D01*
X14466729Y-14306769D02*
X14485777Y-14316293D01*
X14485777Y-14316293D02*
X14523872Y-14316293D01*
X14523872Y-14316293D02*
X14542920Y-14306769D01*
X14542920Y-14306769D02*
X14552444Y-14297246D01*
X14552444Y-14297246D02*
X14561967Y-14278198D01*
X14733396Y-14259150D02*
X14733396Y-14392484D01*
X14685777Y-14182960D02*
X14638158Y-14325817D01*
X14638158Y-14325817D02*
X14761967Y-14325817D01*
X14828634Y-14192484D02*
X14828634Y-14230579D01*
X14904825Y-14192484D02*
X14904825Y-14230579D01*
X15200063Y-14468674D02*
X15190539Y-14459150D01*
X15190539Y-14459150D02*
X15171491Y-14430579D01*
X15171491Y-14430579D02*
X15161968Y-14411531D01*
X15161968Y-14411531D02*
X15152444Y-14382960D01*
X15152444Y-14382960D02*
X15142920Y-14335341D01*
X15142920Y-14335341D02*
X15142920Y-14297246D01*
X15142920Y-14297246D02*
X15152444Y-14249627D01*
X15152444Y-14249627D02*
X15161968Y-14221055D01*
X15161968Y-14221055D02*
X15171491Y-14202008D01*
X15171491Y-14202008D02*
X15190539Y-14173436D01*
X15190539Y-14173436D02*
X15200063Y-14163912D01*
X15285777Y-14392484D02*
X15323872Y-14392484D01*
X15323872Y-14392484D02*
X15342920Y-14382960D01*
X15342920Y-14382960D02*
X15352444Y-14373436D01*
X15352444Y-14373436D02*
X15371491Y-14344865D01*
X15371491Y-14344865D02*
X15381015Y-14306769D01*
X15381015Y-14306769D02*
X15381015Y-14230579D01*
X15381015Y-14230579D02*
X15371491Y-14211531D01*
X15371491Y-14211531D02*
X15361968Y-14202008D01*
X15361968Y-14202008D02*
X15342920Y-14192484D01*
X15342920Y-14192484D02*
X15304825Y-14192484D01*
X15304825Y-14192484D02*
X15285777Y-14202008D01*
X15285777Y-14202008D02*
X15276253Y-14211531D01*
X15276253Y-14211531D02*
X15266729Y-14230579D01*
X15266729Y-14230579D02*
X15266729Y-14278198D01*
X15266729Y-14278198D02*
X15276253Y-14297246D01*
X15276253Y-14297246D02*
X15285777Y-14306769D01*
X15285777Y-14306769D02*
X15304825Y-14316293D01*
X15304825Y-14316293D02*
X15342920Y-14316293D01*
X15342920Y-14316293D02*
X15361968Y-14306769D01*
X15361968Y-14306769D02*
X15371491Y-14297246D01*
X15371491Y-14297246D02*
X15381015Y-14278198D01*
X15619110Y-14392484D02*
X15619110Y-14192484D01*
X15704825Y-14392484D02*
X15704825Y-14287722D01*
X15704825Y-14287722D02*
X15695301Y-14268674D01*
X15695301Y-14268674D02*
X15676253Y-14259150D01*
X15676253Y-14259150D02*
X15647682Y-14259150D01*
X15647682Y-14259150D02*
X15628634Y-14268674D01*
X15628634Y-14268674D02*
X15619110Y-14278198D01*
X15828634Y-14392484D02*
X15809587Y-14382960D01*
X15809587Y-14382960D02*
X15800063Y-14373436D01*
X15800063Y-14373436D02*
X15790539Y-14354388D01*
X15790539Y-14354388D02*
X15790539Y-14297246D01*
X15790539Y-14297246D02*
X15800063Y-14278198D01*
X15800063Y-14278198D02*
X15809587Y-14268674D01*
X15809587Y-14268674D02*
X15828634Y-14259150D01*
X15828634Y-14259150D02*
X15857206Y-14259150D01*
X15857206Y-14259150D02*
X15876253Y-14268674D01*
X15876253Y-14268674D02*
X15885777Y-14278198D01*
X15885777Y-14278198D02*
X15895301Y-14297246D01*
X15895301Y-14297246D02*
X15895301Y-14354388D01*
X15895301Y-14354388D02*
X15885777Y-14373436D01*
X15885777Y-14373436D02*
X15876253Y-14382960D01*
X15876253Y-14382960D02*
X15857206Y-14392484D01*
X15857206Y-14392484D02*
X15828634Y-14392484D01*
X16009587Y-14392484D02*
X15990539Y-14382960D01*
X15990539Y-14382960D02*
X15981015Y-14363912D01*
X15981015Y-14363912D02*
X15981015Y-14192484D01*
X16161968Y-14382960D02*
X16142920Y-14392484D01*
X16142920Y-14392484D02*
X16104825Y-14392484D01*
X16104825Y-14392484D02*
X16085777Y-14382960D01*
X16085777Y-14382960D02*
X16076253Y-14363912D01*
X16076253Y-14363912D02*
X16076253Y-14287722D01*
X16076253Y-14287722D02*
X16085777Y-14268674D01*
X16085777Y-14268674D02*
X16104825Y-14259150D01*
X16104825Y-14259150D02*
X16142920Y-14259150D01*
X16142920Y-14259150D02*
X16161968Y-14268674D01*
X16161968Y-14268674D02*
X16171491Y-14287722D01*
X16171491Y-14287722D02*
X16171491Y-14306769D01*
X16171491Y-14306769D02*
X16076253Y-14325817D01*
X16247682Y-14382960D02*
X16266730Y-14392484D01*
X16266730Y-14392484D02*
X16304825Y-14392484D01*
X16304825Y-14392484D02*
X16323872Y-14382960D01*
X16323872Y-14382960D02*
X16333396Y-14363912D01*
X16333396Y-14363912D02*
X16333396Y-14354388D01*
X16333396Y-14354388D02*
X16323872Y-14335341D01*
X16323872Y-14335341D02*
X16304825Y-14325817D01*
X16304825Y-14325817D02*
X16276253Y-14325817D01*
X16276253Y-14325817D02*
X16257206Y-14316293D01*
X16257206Y-14316293D02*
X16247682Y-14297246D01*
X16247682Y-14297246D02*
X16247682Y-14287722D01*
X16247682Y-14287722D02*
X16257206Y-14268674D01*
X16257206Y-14268674D02*
X16276253Y-14259150D01*
X16276253Y-14259150D02*
X16304825Y-14259150D01*
X16304825Y-14259150D02*
X16323872Y-14268674D01*
X16400063Y-14468674D02*
X16409587Y-14459150D01*
X16409587Y-14459150D02*
X16428634Y-14430579D01*
X16428634Y-14430579D02*
X16438158Y-14411531D01*
X16438158Y-14411531D02*
X16447682Y-14382960D01*
X16447682Y-14382960D02*
X16457206Y-14335341D01*
X16457206Y-14335341D02*
X16457206Y-14297246D01*
X16457206Y-14297246D02*
X16447682Y-14249627D01*
X16447682Y-14249627D02*
X16438158Y-14221055D01*
X16438158Y-14221055D02*
X16428634Y-14202008D01*
X16428634Y-14202008D02*
X16409587Y-14173436D01*
X16409587Y-14173436D02*
X16400063Y-14163912D01*
D16*
X11515000Y-14510000D02*
X11625000Y-14620000D01*
X11625000Y-14510000D02*
X11515000Y-14620000D01*
X11625000Y-14565000D02*
G75*
G03*
X11625000Y-14565000I-55000J0D01*
G01*
D11*
X11990539Y-14656484D02*
X11876253Y-14656484D01*
X11933396Y-14656484D02*
X11933396Y-14456484D01*
X11933396Y-14456484D02*
X11914348Y-14485055D01*
X11914348Y-14485055D02*
X11895301Y-14504103D01*
X11895301Y-14504103D02*
X11876253Y-14513627D01*
X12076253Y-14637436D02*
X12085777Y-14646960D01*
X12085777Y-14646960D02*
X12076253Y-14656484D01*
X12076253Y-14656484D02*
X12066729Y-14646960D01*
X12066729Y-14646960D02*
X12076253Y-14637436D01*
X12076253Y-14637436D02*
X12076253Y-14656484D01*
X12276253Y-14656484D02*
X12161967Y-14656484D01*
X12219110Y-14656484D02*
X12219110Y-14456484D01*
X12219110Y-14456484D02*
X12200062Y-14485055D01*
X12200062Y-14485055D02*
X12181015Y-14504103D01*
X12181015Y-14504103D02*
X12161967Y-14513627D01*
X12400062Y-14456484D02*
X12419110Y-14456484D01*
X12419110Y-14456484D02*
X12438158Y-14466008D01*
X12438158Y-14466008D02*
X12447682Y-14475531D01*
X12447682Y-14475531D02*
X12457205Y-14494579D01*
X12457205Y-14494579D02*
X12466729Y-14532674D01*
X12466729Y-14532674D02*
X12466729Y-14580293D01*
X12466729Y-14580293D02*
X12457205Y-14618388D01*
X12457205Y-14618388D02*
X12447682Y-14637436D01*
X12447682Y-14637436D02*
X12438158Y-14646960D01*
X12438158Y-14646960D02*
X12419110Y-14656484D01*
X12419110Y-14656484D02*
X12400062Y-14656484D01*
X12400062Y-14656484D02*
X12381015Y-14646960D01*
X12381015Y-14646960D02*
X12371491Y-14637436D01*
X12371491Y-14637436D02*
X12361967Y-14618388D01*
X12361967Y-14618388D02*
X12352443Y-14580293D01*
X12352443Y-14580293D02*
X12352443Y-14532674D01*
X12352443Y-14532674D02*
X12361967Y-14494579D01*
X12361967Y-14494579D02*
X12371491Y-14475531D01*
X12371491Y-14475531D02*
X12381015Y-14466008D01*
X12381015Y-14466008D02*
X12400062Y-14456484D01*
X12590539Y-14456484D02*
X12609586Y-14456484D01*
X12609586Y-14456484D02*
X12628634Y-14466008D01*
X12628634Y-14466008D02*
X12638158Y-14475531D01*
X12638158Y-14475531D02*
X12647682Y-14494579D01*
X12647682Y-14494579D02*
X12657205Y-14532674D01*
X12657205Y-14532674D02*
X12657205Y-14580293D01*
X12657205Y-14580293D02*
X12647682Y-14618388D01*
X12647682Y-14618388D02*
X12638158Y-14637436D01*
X12638158Y-14637436D02*
X12628634Y-14646960D01*
X12628634Y-14646960D02*
X12609586Y-14656484D01*
X12609586Y-14656484D02*
X12590539Y-14656484D01*
X12590539Y-14656484D02*
X12571491Y-14646960D01*
X12571491Y-14646960D02*
X12561967Y-14637436D01*
X12561967Y-14637436D02*
X12552443Y-14618388D01*
X12552443Y-14618388D02*
X12542920Y-14580293D01*
X12542920Y-14580293D02*
X12542920Y-14532674D01*
X12542920Y-14532674D02*
X12552443Y-14494579D01*
X12552443Y-14494579D02*
X12561967Y-14475531D01*
X12561967Y-14475531D02*
X12571491Y-14466008D01*
X12571491Y-14466008D02*
X12590539Y-14456484D01*
X12742920Y-14656484D02*
X12742920Y-14523150D01*
X12742920Y-14542198D02*
X12752443Y-14532674D01*
X12752443Y-14532674D02*
X12771491Y-14523150D01*
X12771491Y-14523150D02*
X12800063Y-14523150D01*
X12800063Y-14523150D02*
X12819110Y-14532674D01*
X12819110Y-14532674D02*
X12828634Y-14551722D01*
X12828634Y-14551722D02*
X12828634Y-14656484D01*
X12828634Y-14551722D02*
X12838158Y-14532674D01*
X12838158Y-14532674D02*
X12857205Y-14523150D01*
X12857205Y-14523150D02*
X12885777Y-14523150D01*
X12885777Y-14523150D02*
X12904824Y-14532674D01*
X12904824Y-14532674D02*
X12914348Y-14551722D01*
X12914348Y-14551722D02*
X12914348Y-14656484D01*
X13009586Y-14656484D02*
X13009586Y-14523150D01*
X13009586Y-14542198D02*
X13019110Y-14532674D01*
X13019110Y-14532674D02*
X13038158Y-14523150D01*
X13038158Y-14523150D02*
X13066729Y-14523150D01*
X13066729Y-14523150D02*
X13085777Y-14532674D01*
X13085777Y-14532674D02*
X13095301Y-14551722D01*
X13095301Y-14551722D02*
X13095301Y-14656484D01*
X13095301Y-14551722D02*
X13104824Y-14532674D01*
X13104824Y-14532674D02*
X13123872Y-14523150D01*
X13123872Y-14523150D02*
X13152443Y-14523150D01*
X13152443Y-14523150D02*
X13171491Y-14532674D01*
X13171491Y-14532674D02*
X13181015Y-14551722D01*
X13181015Y-14551722D02*
X13181015Y-14656484D01*
X13571491Y-14446960D02*
X13400063Y-14704103D01*
X13828634Y-14456484D02*
X13847682Y-14456484D01*
X13847682Y-14456484D02*
X13866729Y-14466008D01*
X13866729Y-14466008D02*
X13876253Y-14475531D01*
X13876253Y-14475531D02*
X13885777Y-14494579D01*
X13885777Y-14494579D02*
X13895301Y-14532674D01*
X13895301Y-14532674D02*
X13895301Y-14580293D01*
X13895301Y-14580293D02*
X13885777Y-14618388D01*
X13885777Y-14618388D02*
X13876253Y-14637436D01*
X13876253Y-14637436D02*
X13866729Y-14646960D01*
X13866729Y-14646960D02*
X13847682Y-14656484D01*
X13847682Y-14656484D02*
X13828634Y-14656484D01*
X13828634Y-14656484D02*
X13809586Y-14646960D01*
X13809586Y-14646960D02*
X13800063Y-14637436D01*
X13800063Y-14637436D02*
X13790539Y-14618388D01*
X13790539Y-14618388D02*
X13781015Y-14580293D01*
X13781015Y-14580293D02*
X13781015Y-14532674D01*
X13781015Y-14532674D02*
X13790539Y-14494579D01*
X13790539Y-14494579D02*
X13800063Y-14475531D01*
X13800063Y-14475531D02*
X13809586Y-14466008D01*
X13809586Y-14466008D02*
X13828634Y-14456484D01*
X13981015Y-14637436D02*
X13990539Y-14646960D01*
X13990539Y-14646960D02*
X13981015Y-14656484D01*
X13981015Y-14656484D02*
X13971491Y-14646960D01*
X13971491Y-14646960D02*
X13981015Y-14637436D01*
X13981015Y-14637436D02*
X13981015Y-14656484D01*
X14114348Y-14456484D02*
X14133396Y-14456484D01*
X14133396Y-14456484D02*
X14152444Y-14466008D01*
X14152444Y-14466008D02*
X14161967Y-14475531D01*
X14161967Y-14475531D02*
X14171491Y-14494579D01*
X14171491Y-14494579D02*
X14181015Y-14532674D01*
X14181015Y-14532674D02*
X14181015Y-14580293D01*
X14181015Y-14580293D02*
X14171491Y-14618388D01*
X14171491Y-14618388D02*
X14161967Y-14637436D01*
X14161967Y-14637436D02*
X14152444Y-14646960D01*
X14152444Y-14646960D02*
X14133396Y-14656484D01*
X14133396Y-14656484D02*
X14114348Y-14656484D01*
X14114348Y-14656484D02*
X14095301Y-14646960D01*
X14095301Y-14646960D02*
X14085777Y-14637436D01*
X14085777Y-14637436D02*
X14076253Y-14618388D01*
X14076253Y-14618388D02*
X14066729Y-14580293D01*
X14066729Y-14580293D02*
X14066729Y-14532674D01*
X14066729Y-14532674D02*
X14076253Y-14494579D01*
X14076253Y-14494579D02*
X14085777Y-14475531D01*
X14085777Y-14475531D02*
X14095301Y-14466008D01*
X14095301Y-14466008D02*
X14114348Y-14456484D01*
X14352444Y-14523150D02*
X14352444Y-14656484D01*
X14304825Y-14446960D02*
X14257206Y-14589817D01*
X14257206Y-14589817D02*
X14381015Y-14589817D01*
X14438158Y-14456484D02*
X14561967Y-14456484D01*
X14561967Y-14456484D02*
X14495301Y-14532674D01*
X14495301Y-14532674D02*
X14523872Y-14532674D01*
X14523872Y-14532674D02*
X14542920Y-14542198D01*
X14542920Y-14542198D02*
X14552444Y-14551722D01*
X14552444Y-14551722D02*
X14561967Y-14570769D01*
X14561967Y-14570769D02*
X14561967Y-14618388D01*
X14561967Y-14618388D02*
X14552444Y-14637436D01*
X14552444Y-14637436D02*
X14542920Y-14646960D01*
X14542920Y-14646960D02*
X14523872Y-14656484D01*
X14523872Y-14656484D02*
X14466729Y-14656484D01*
X14466729Y-14656484D02*
X14447682Y-14646960D01*
X14447682Y-14646960D02*
X14438158Y-14637436D01*
X14628634Y-14456484D02*
X14752444Y-14456484D01*
X14752444Y-14456484D02*
X14685777Y-14532674D01*
X14685777Y-14532674D02*
X14714348Y-14532674D01*
X14714348Y-14532674D02*
X14733396Y-14542198D01*
X14733396Y-14542198D02*
X14742920Y-14551722D01*
X14742920Y-14551722D02*
X14752444Y-14570769D01*
X14752444Y-14570769D02*
X14752444Y-14618388D01*
X14752444Y-14618388D02*
X14742920Y-14637436D01*
X14742920Y-14637436D02*
X14733396Y-14646960D01*
X14733396Y-14646960D02*
X14714348Y-14656484D01*
X14714348Y-14656484D02*
X14657206Y-14656484D01*
X14657206Y-14656484D02*
X14638158Y-14646960D01*
X14638158Y-14646960D02*
X14628634Y-14637436D01*
X14828634Y-14456484D02*
X14828634Y-14494579D01*
X14904825Y-14456484D02*
X14904825Y-14494579D01*
X15200063Y-14732674D02*
X15190539Y-14723150D01*
X15190539Y-14723150D02*
X15171491Y-14694579D01*
X15171491Y-14694579D02*
X15161968Y-14675531D01*
X15161968Y-14675531D02*
X15152444Y-14646960D01*
X15152444Y-14646960D02*
X15142920Y-14599341D01*
X15142920Y-14599341D02*
X15142920Y-14561246D01*
X15142920Y-14561246D02*
X15152444Y-14513627D01*
X15152444Y-14513627D02*
X15161968Y-14485055D01*
X15161968Y-14485055D02*
X15171491Y-14466008D01*
X15171491Y-14466008D02*
X15190539Y-14437436D01*
X15190539Y-14437436D02*
X15200063Y-14427912D01*
X15304825Y-14542198D02*
X15285777Y-14532674D01*
X15285777Y-14532674D02*
X15276253Y-14523150D01*
X15276253Y-14523150D02*
X15266729Y-14504103D01*
X15266729Y-14504103D02*
X15266729Y-14494579D01*
X15266729Y-14494579D02*
X15276253Y-14475531D01*
X15276253Y-14475531D02*
X15285777Y-14466008D01*
X15285777Y-14466008D02*
X15304825Y-14456484D01*
X15304825Y-14456484D02*
X15342920Y-14456484D01*
X15342920Y-14456484D02*
X15361968Y-14466008D01*
X15361968Y-14466008D02*
X15371491Y-14475531D01*
X15371491Y-14475531D02*
X15381015Y-14494579D01*
X15381015Y-14494579D02*
X15381015Y-14504103D01*
X15381015Y-14504103D02*
X15371491Y-14523150D01*
X15371491Y-14523150D02*
X15361968Y-14532674D01*
X15361968Y-14532674D02*
X15342920Y-14542198D01*
X15342920Y-14542198D02*
X15304825Y-14542198D01*
X15304825Y-14542198D02*
X15285777Y-14551722D01*
X15285777Y-14551722D02*
X15276253Y-14561246D01*
X15276253Y-14561246D02*
X15266729Y-14580293D01*
X15266729Y-14580293D02*
X15266729Y-14618388D01*
X15266729Y-14618388D02*
X15276253Y-14637436D01*
X15276253Y-14637436D02*
X15285777Y-14646960D01*
X15285777Y-14646960D02*
X15304825Y-14656484D01*
X15304825Y-14656484D02*
X15342920Y-14656484D01*
X15342920Y-14656484D02*
X15361968Y-14646960D01*
X15361968Y-14646960D02*
X15371491Y-14637436D01*
X15371491Y-14637436D02*
X15381015Y-14618388D01*
X15381015Y-14618388D02*
X15381015Y-14580293D01*
X15381015Y-14580293D02*
X15371491Y-14561246D01*
X15371491Y-14561246D02*
X15361968Y-14551722D01*
X15361968Y-14551722D02*
X15342920Y-14542198D01*
X15619110Y-14656484D02*
X15619110Y-14456484D01*
X15704825Y-14656484D02*
X15704825Y-14551722D01*
X15704825Y-14551722D02*
X15695301Y-14532674D01*
X15695301Y-14532674D02*
X15676253Y-14523150D01*
X15676253Y-14523150D02*
X15647682Y-14523150D01*
X15647682Y-14523150D02*
X15628634Y-14532674D01*
X15628634Y-14532674D02*
X15619110Y-14542198D01*
X15828634Y-14656484D02*
X15809587Y-14646960D01*
X15809587Y-14646960D02*
X15800063Y-14637436D01*
X15800063Y-14637436D02*
X15790539Y-14618388D01*
X15790539Y-14618388D02*
X15790539Y-14561246D01*
X15790539Y-14561246D02*
X15800063Y-14542198D01*
X15800063Y-14542198D02*
X15809587Y-14532674D01*
X15809587Y-14532674D02*
X15828634Y-14523150D01*
X15828634Y-14523150D02*
X15857206Y-14523150D01*
X15857206Y-14523150D02*
X15876253Y-14532674D01*
X15876253Y-14532674D02*
X15885777Y-14542198D01*
X15885777Y-14542198D02*
X15895301Y-14561246D01*
X15895301Y-14561246D02*
X15895301Y-14618388D01*
X15895301Y-14618388D02*
X15885777Y-14637436D01*
X15885777Y-14637436D02*
X15876253Y-14646960D01*
X15876253Y-14646960D02*
X15857206Y-14656484D01*
X15857206Y-14656484D02*
X15828634Y-14656484D01*
X16009587Y-14656484D02*
X15990539Y-14646960D01*
X15990539Y-14646960D02*
X15981015Y-14627912D01*
X15981015Y-14627912D02*
X15981015Y-14456484D01*
X16161968Y-14646960D02*
X16142920Y-14656484D01*
X16142920Y-14656484D02*
X16104825Y-14656484D01*
X16104825Y-14656484D02*
X16085777Y-14646960D01*
X16085777Y-14646960D02*
X16076253Y-14627912D01*
X16076253Y-14627912D02*
X16076253Y-14551722D01*
X16076253Y-14551722D02*
X16085777Y-14532674D01*
X16085777Y-14532674D02*
X16104825Y-14523150D01*
X16104825Y-14523150D02*
X16142920Y-14523150D01*
X16142920Y-14523150D02*
X16161968Y-14532674D01*
X16161968Y-14532674D02*
X16171491Y-14551722D01*
X16171491Y-14551722D02*
X16171491Y-14570769D01*
X16171491Y-14570769D02*
X16076253Y-14589817D01*
X16247682Y-14646960D02*
X16266730Y-14656484D01*
X16266730Y-14656484D02*
X16304825Y-14656484D01*
X16304825Y-14656484D02*
X16323872Y-14646960D01*
X16323872Y-14646960D02*
X16333396Y-14627912D01*
X16333396Y-14627912D02*
X16333396Y-14618388D01*
X16333396Y-14618388D02*
X16323872Y-14599341D01*
X16323872Y-14599341D02*
X16304825Y-14589817D01*
X16304825Y-14589817D02*
X16276253Y-14589817D01*
X16276253Y-14589817D02*
X16257206Y-14580293D01*
X16257206Y-14580293D02*
X16247682Y-14561246D01*
X16247682Y-14561246D02*
X16247682Y-14551722D01*
X16247682Y-14551722D02*
X16257206Y-14532674D01*
X16257206Y-14532674D02*
X16276253Y-14523150D01*
X16276253Y-14523150D02*
X16304825Y-14523150D01*
X16304825Y-14523150D02*
X16323872Y-14532674D01*
X16400063Y-14732674D02*
X16409587Y-14723150D01*
X16409587Y-14723150D02*
X16428634Y-14694579D01*
X16428634Y-14694579D02*
X16438158Y-14675531D01*
X16438158Y-14675531D02*
X16447682Y-14646960D01*
X16447682Y-14646960D02*
X16457206Y-14599341D01*
X16457206Y-14599341D02*
X16457206Y-14561246D01*
X16457206Y-14561246D02*
X16447682Y-14513627D01*
X16447682Y-14513627D02*
X16438158Y-14485055D01*
X16438158Y-14485055D02*
X16428634Y-14466008D01*
X16428634Y-14466008D02*
X16409587Y-14437436D01*
X16409587Y-14437436D02*
X16400063Y-14427912D01*
D17*
X11505000Y-14769000D02*
X11625000Y-14889000D01*
X11625000Y-14769000D02*
X11505000Y-14889000D01*
X11565000Y-14769000D02*
X11565000Y-14889000D01*
X11505000Y-14829000D02*
X11625000Y-14829000D01*
D11*
X11990539Y-14920484D02*
X11876253Y-14920484D01*
X11933396Y-14920484D02*
X11933396Y-14720484D01*
X11933396Y-14720484D02*
X11914348Y-14749055D01*
X11914348Y-14749055D02*
X11895301Y-14768103D01*
X11895301Y-14768103D02*
X11876253Y-14777627D01*
X12076253Y-14901436D02*
X12085777Y-14910960D01*
X12085777Y-14910960D02*
X12076253Y-14920484D01*
X12076253Y-14920484D02*
X12066729Y-14910960D01*
X12066729Y-14910960D02*
X12076253Y-14901436D01*
X12076253Y-14901436D02*
X12076253Y-14920484D01*
X12161967Y-14739531D02*
X12171491Y-14730008D01*
X12171491Y-14730008D02*
X12190539Y-14720484D01*
X12190539Y-14720484D02*
X12238158Y-14720484D01*
X12238158Y-14720484D02*
X12257205Y-14730008D01*
X12257205Y-14730008D02*
X12266729Y-14739531D01*
X12266729Y-14739531D02*
X12276253Y-14758579D01*
X12276253Y-14758579D02*
X12276253Y-14777627D01*
X12276253Y-14777627D02*
X12266729Y-14806198D01*
X12266729Y-14806198D02*
X12152443Y-14920484D01*
X12152443Y-14920484D02*
X12276253Y-14920484D01*
X12400062Y-14720484D02*
X12419110Y-14720484D01*
X12419110Y-14720484D02*
X12438158Y-14730008D01*
X12438158Y-14730008D02*
X12447682Y-14739531D01*
X12447682Y-14739531D02*
X12457205Y-14758579D01*
X12457205Y-14758579D02*
X12466729Y-14796674D01*
X12466729Y-14796674D02*
X12466729Y-14844293D01*
X12466729Y-14844293D02*
X12457205Y-14882388D01*
X12457205Y-14882388D02*
X12447682Y-14901436D01*
X12447682Y-14901436D02*
X12438158Y-14910960D01*
X12438158Y-14910960D02*
X12419110Y-14920484D01*
X12419110Y-14920484D02*
X12400062Y-14920484D01*
X12400062Y-14920484D02*
X12381015Y-14910960D01*
X12381015Y-14910960D02*
X12371491Y-14901436D01*
X12371491Y-14901436D02*
X12361967Y-14882388D01*
X12361967Y-14882388D02*
X12352443Y-14844293D01*
X12352443Y-14844293D02*
X12352443Y-14796674D01*
X12352443Y-14796674D02*
X12361967Y-14758579D01*
X12361967Y-14758579D02*
X12371491Y-14739531D01*
X12371491Y-14739531D02*
X12381015Y-14730008D01*
X12381015Y-14730008D02*
X12400062Y-14720484D01*
X12590539Y-14720484D02*
X12609586Y-14720484D01*
X12609586Y-14720484D02*
X12628634Y-14730008D01*
X12628634Y-14730008D02*
X12638158Y-14739531D01*
X12638158Y-14739531D02*
X12647682Y-14758579D01*
X12647682Y-14758579D02*
X12657205Y-14796674D01*
X12657205Y-14796674D02*
X12657205Y-14844293D01*
X12657205Y-14844293D02*
X12647682Y-14882388D01*
X12647682Y-14882388D02*
X12638158Y-14901436D01*
X12638158Y-14901436D02*
X12628634Y-14910960D01*
X12628634Y-14910960D02*
X12609586Y-14920484D01*
X12609586Y-14920484D02*
X12590539Y-14920484D01*
X12590539Y-14920484D02*
X12571491Y-14910960D01*
X12571491Y-14910960D02*
X12561967Y-14901436D01*
X12561967Y-14901436D02*
X12552443Y-14882388D01*
X12552443Y-14882388D02*
X12542920Y-14844293D01*
X12542920Y-14844293D02*
X12542920Y-14796674D01*
X12542920Y-14796674D02*
X12552443Y-14758579D01*
X12552443Y-14758579D02*
X12561967Y-14739531D01*
X12561967Y-14739531D02*
X12571491Y-14730008D01*
X12571491Y-14730008D02*
X12590539Y-14720484D01*
X12742920Y-14920484D02*
X12742920Y-14787150D01*
X12742920Y-14806198D02*
X12752443Y-14796674D01*
X12752443Y-14796674D02*
X12771491Y-14787150D01*
X12771491Y-14787150D02*
X12800063Y-14787150D01*
X12800063Y-14787150D02*
X12819110Y-14796674D01*
X12819110Y-14796674D02*
X12828634Y-14815722D01*
X12828634Y-14815722D02*
X12828634Y-14920484D01*
X12828634Y-14815722D02*
X12838158Y-14796674D01*
X12838158Y-14796674D02*
X12857205Y-14787150D01*
X12857205Y-14787150D02*
X12885777Y-14787150D01*
X12885777Y-14787150D02*
X12904824Y-14796674D01*
X12904824Y-14796674D02*
X12914348Y-14815722D01*
X12914348Y-14815722D02*
X12914348Y-14920484D01*
X13009586Y-14920484D02*
X13009586Y-14787150D01*
X13009586Y-14806198D02*
X13019110Y-14796674D01*
X13019110Y-14796674D02*
X13038158Y-14787150D01*
X13038158Y-14787150D02*
X13066729Y-14787150D01*
X13066729Y-14787150D02*
X13085777Y-14796674D01*
X13085777Y-14796674D02*
X13095301Y-14815722D01*
X13095301Y-14815722D02*
X13095301Y-14920484D01*
X13095301Y-14815722D02*
X13104824Y-14796674D01*
X13104824Y-14796674D02*
X13123872Y-14787150D01*
X13123872Y-14787150D02*
X13152443Y-14787150D01*
X13152443Y-14787150D02*
X13171491Y-14796674D01*
X13171491Y-14796674D02*
X13181015Y-14815722D01*
X13181015Y-14815722D02*
X13181015Y-14920484D01*
X13571491Y-14710960D02*
X13400063Y-14968103D01*
X13828634Y-14720484D02*
X13847682Y-14720484D01*
X13847682Y-14720484D02*
X13866729Y-14730008D01*
X13866729Y-14730008D02*
X13876253Y-14739531D01*
X13876253Y-14739531D02*
X13885777Y-14758579D01*
X13885777Y-14758579D02*
X13895301Y-14796674D01*
X13895301Y-14796674D02*
X13895301Y-14844293D01*
X13895301Y-14844293D02*
X13885777Y-14882388D01*
X13885777Y-14882388D02*
X13876253Y-14901436D01*
X13876253Y-14901436D02*
X13866729Y-14910960D01*
X13866729Y-14910960D02*
X13847682Y-14920484D01*
X13847682Y-14920484D02*
X13828634Y-14920484D01*
X13828634Y-14920484D02*
X13809586Y-14910960D01*
X13809586Y-14910960D02*
X13800063Y-14901436D01*
X13800063Y-14901436D02*
X13790539Y-14882388D01*
X13790539Y-14882388D02*
X13781015Y-14844293D01*
X13781015Y-14844293D02*
X13781015Y-14796674D01*
X13781015Y-14796674D02*
X13790539Y-14758579D01*
X13790539Y-14758579D02*
X13800063Y-14739531D01*
X13800063Y-14739531D02*
X13809586Y-14730008D01*
X13809586Y-14730008D02*
X13828634Y-14720484D01*
X13981015Y-14901436D02*
X13990539Y-14910960D01*
X13990539Y-14910960D02*
X13981015Y-14920484D01*
X13981015Y-14920484D02*
X13971491Y-14910960D01*
X13971491Y-14910960D02*
X13981015Y-14901436D01*
X13981015Y-14901436D02*
X13981015Y-14920484D01*
X14114348Y-14720484D02*
X14133396Y-14720484D01*
X14133396Y-14720484D02*
X14152444Y-14730008D01*
X14152444Y-14730008D02*
X14161967Y-14739531D01*
X14161967Y-14739531D02*
X14171491Y-14758579D01*
X14171491Y-14758579D02*
X14181015Y-14796674D01*
X14181015Y-14796674D02*
X14181015Y-14844293D01*
X14181015Y-14844293D02*
X14171491Y-14882388D01*
X14171491Y-14882388D02*
X14161967Y-14901436D01*
X14161967Y-14901436D02*
X14152444Y-14910960D01*
X14152444Y-14910960D02*
X14133396Y-14920484D01*
X14133396Y-14920484D02*
X14114348Y-14920484D01*
X14114348Y-14920484D02*
X14095301Y-14910960D01*
X14095301Y-14910960D02*
X14085777Y-14901436D01*
X14085777Y-14901436D02*
X14076253Y-14882388D01*
X14076253Y-14882388D02*
X14066729Y-14844293D01*
X14066729Y-14844293D02*
X14066729Y-14796674D01*
X14066729Y-14796674D02*
X14076253Y-14758579D01*
X14076253Y-14758579D02*
X14085777Y-14739531D01*
X14085777Y-14739531D02*
X14095301Y-14730008D01*
X14095301Y-14730008D02*
X14114348Y-14720484D01*
X14352444Y-14787150D02*
X14352444Y-14920484D01*
X14304825Y-14710960D02*
X14257206Y-14853817D01*
X14257206Y-14853817D02*
X14381015Y-14853817D01*
X14438158Y-14720484D02*
X14571491Y-14720484D01*
X14571491Y-14720484D02*
X14485777Y-14920484D01*
X14638158Y-14739531D02*
X14647682Y-14730008D01*
X14647682Y-14730008D02*
X14666729Y-14720484D01*
X14666729Y-14720484D02*
X14714348Y-14720484D01*
X14714348Y-14720484D02*
X14733396Y-14730008D01*
X14733396Y-14730008D02*
X14742920Y-14739531D01*
X14742920Y-14739531D02*
X14752444Y-14758579D01*
X14752444Y-14758579D02*
X14752444Y-14777627D01*
X14752444Y-14777627D02*
X14742920Y-14806198D01*
X14742920Y-14806198D02*
X14628634Y-14920484D01*
X14628634Y-14920484D02*
X14752444Y-14920484D01*
X14828634Y-14720484D02*
X14828634Y-14758579D01*
X14904825Y-14720484D02*
X14904825Y-14758579D01*
X15200063Y-14996674D02*
X15190539Y-14987150D01*
X15190539Y-14987150D02*
X15171491Y-14958579D01*
X15171491Y-14958579D02*
X15161968Y-14939531D01*
X15161968Y-14939531D02*
X15152444Y-14910960D01*
X15152444Y-14910960D02*
X15142920Y-14863341D01*
X15142920Y-14863341D02*
X15142920Y-14825246D01*
X15142920Y-14825246D02*
X15152444Y-14777627D01*
X15152444Y-14777627D02*
X15161968Y-14749055D01*
X15161968Y-14749055D02*
X15171491Y-14730008D01*
X15171491Y-14730008D02*
X15190539Y-14701436D01*
X15190539Y-14701436D02*
X15200063Y-14691912D01*
X15371491Y-14720484D02*
X15276253Y-14720484D01*
X15276253Y-14720484D02*
X15266729Y-14815722D01*
X15266729Y-14815722D02*
X15276253Y-14806198D01*
X15276253Y-14806198D02*
X15295301Y-14796674D01*
X15295301Y-14796674D02*
X15342920Y-14796674D01*
X15342920Y-14796674D02*
X15361968Y-14806198D01*
X15361968Y-14806198D02*
X15371491Y-14815722D01*
X15371491Y-14815722D02*
X15381015Y-14834769D01*
X15381015Y-14834769D02*
X15381015Y-14882388D01*
X15381015Y-14882388D02*
X15371491Y-14901436D01*
X15371491Y-14901436D02*
X15361968Y-14910960D01*
X15361968Y-14910960D02*
X15342920Y-14920484D01*
X15342920Y-14920484D02*
X15295301Y-14920484D01*
X15295301Y-14920484D02*
X15276253Y-14910960D01*
X15276253Y-14910960D02*
X15266729Y-14901436D01*
X15619110Y-14920484D02*
X15619110Y-14720484D01*
X15704825Y-14920484D02*
X15704825Y-14815722D01*
X15704825Y-14815722D02*
X15695301Y-14796674D01*
X15695301Y-14796674D02*
X15676253Y-14787150D01*
X15676253Y-14787150D02*
X15647682Y-14787150D01*
X15647682Y-14787150D02*
X15628634Y-14796674D01*
X15628634Y-14796674D02*
X15619110Y-14806198D01*
X15828634Y-14920484D02*
X15809587Y-14910960D01*
X15809587Y-14910960D02*
X15800063Y-14901436D01*
X15800063Y-14901436D02*
X15790539Y-14882388D01*
X15790539Y-14882388D02*
X15790539Y-14825246D01*
X15790539Y-14825246D02*
X15800063Y-14806198D01*
X15800063Y-14806198D02*
X15809587Y-14796674D01*
X15809587Y-14796674D02*
X15828634Y-14787150D01*
X15828634Y-14787150D02*
X15857206Y-14787150D01*
X15857206Y-14787150D02*
X15876253Y-14796674D01*
X15876253Y-14796674D02*
X15885777Y-14806198D01*
X15885777Y-14806198D02*
X15895301Y-14825246D01*
X15895301Y-14825246D02*
X15895301Y-14882388D01*
X15895301Y-14882388D02*
X15885777Y-14901436D01*
X15885777Y-14901436D02*
X15876253Y-14910960D01*
X15876253Y-14910960D02*
X15857206Y-14920484D01*
X15857206Y-14920484D02*
X15828634Y-14920484D01*
X16009587Y-14920484D02*
X15990539Y-14910960D01*
X15990539Y-14910960D02*
X15981015Y-14891912D01*
X15981015Y-14891912D02*
X15981015Y-14720484D01*
X16161968Y-14910960D02*
X16142920Y-14920484D01*
X16142920Y-14920484D02*
X16104825Y-14920484D01*
X16104825Y-14920484D02*
X16085777Y-14910960D01*
X16085777Y-14910960D02*
X16076253Y-14891912D01*
X16076253Y-14891912D02*
X16076253Y-14815722D01*
X16076253Y-14815722D02*
X16085777Y-14796674D01*
X16085777Y-14796674D02*
X16104825Y-14787150D01*
X16104825Y-14787150D02*
X16142920Y-14787150D01*
X16142920Y-14787150D02*
X16161968Y-14796674D01*
X16161968Y-14796674D02*
X16171491Y-14815722D01*
X16171491Y-14815722D02*
X16171491Y-14834769D01*
X16171491Y-14834769D02*
X16076253Y-14853817D01*
X16247682Y-14910960D02*
X16266730Y-14920484D01*
X16266730Y-14920484D02*
X16304825Y-14920484D01*
X16304825Y-14920484D02*
X16323872Y-14910960D01*
X16323872Y-14910960D02*
X16333396Y-14891912D01*
X16333396Y-14891912D02*
X16333396Y-14882388D01*
X16333396Y-14882388D02*
X16323872Y-14863341D01*
X16323872Y-14863341D02*
X16304825Y-14853817D01*
X16304825Y-14853817D02*
X16276253Y-14853817D01*
X16276253Y-14853817D02*
X16257206Y-14844293D01*
X16257206Y-14844293D02*
X16247682Y-14825246D01*
X16247682Y-14825246D02*
X16247682Y-14815722D01*
X16247682Y-14815722D02*
X16257206Y-14796674D01*
X16257206Y-14796674D02*
X16276253Y-14787150D01*
X16276253Y-14787150D02*
X16304825Y-14787150D01*
X16304825Y-14787150D02*
X16323872Y-14796674D01*
X16400063Y-14996674D02*
X16409587Y-14987150D01*
X16409587Y-14987150D02*
X16428634Y-14958579D01*
X16428634Y-14958579D02*
X16438158Y-14939531D01*
X16438158Y-14939531D02*
X16447682Y-14910960D01*
X16447682Y-14910960D02*
X16457206Y-14863341D01*
X16457206Y-14863341D02*
X16457206Y-14825246D01*
X16457206Y-14825246D02*
X16447682Y-14777627D01*
X16447682Y-14777627D02*
X16438158Y-14749055D01*
X16438158Y-14749055D02*
X16428634Y-14730008D01*
X16428634Y-14730008D02*
X16409587Y-14701436D01*
X16409587Y-14701436D02*
X16400063Y-14691912D01*
M02*
