G04 #@! TF.GenerationSoftware,KiCad,Pcbnew,7.0.5-7.0.5~ubuntu20.04.1*
G04 #@! TF.CreationDate,2023-07-24T22:04:44+03:00*
G04 #@! TF.ProjectId,hardware,68617264-7761-4726-952e-6b696361645f,rev?*
G04 #@! TF.SameCoordinates,Original*
G04 #@! TF.FileFunction,Legend,Bot*
G04 #@! TF.FilePolarity,Positive*
%FSLAX46Y46*%
G04 Gerber Fmt 4.6, Leading zero omitted, Abs format (unit mm)*
G04 Created by KiCad (PCBNEW 7.0.5-7.0.5~ubuntu20.04.1) date 2023-07-24 22:04:44*
%MOMM*%
%LPD*%
G01*
G04 APERTURE LIST*
G04 Aperture macros list*
%AMRoundRect*
0 Rectangle with rounded corners*
0 $1 Rounding radius*
0 $2 $3 $4 $5 $6 $7 $8 $9 X,Y pos of 4 corners*
0 Add a 4 corners polygon primitive as box body*
4,1,4,$2,$3,$4,$5,$6,$7,$8,$9,$2,$3,0*
0 Add four circle primitives for the rounded corners*
1,1,$1+$1,$2,$3*
1,1,$1+$1,$4,$5*
1,1,$1+$1,$6,$7*
1,1,$1+$1,$8,$9*
0 Add four rect primitives between the rounded corners*
20,1,$1+$1,$2,$3,$4,$5,0*
20,1,$1+$1,$4,$5,$6,$7,0*
20,1,$1+$1,$6,$7,$8,$9,0*
20,1,$1+$1,$8,$9,$2,$3,0*%
G04 Aperture macros list end*
%ADD10C,0.175000*%
%ADD11C,0.150000*%
%ADD12C,0.010000*%
%ADD13C,0.120000*%
%ADD14R,1.500000X0.600000*%
%ADD15R,1.700000X1.700000*%
%ADD16O,1.700000X1.700000*%
%ADD17C,1.524000*%
%ADD18R,1.524000X1.524000*%
%ADD19C,2.200000*%
%ADD20R,2.200000X2.200000*%
%ADD21C,1.100000*%
%ADD22C,1.500000*%
%ADD23RoundRect,0.250000X1.000000X0.650000X-1.000000X0.650000X-1.000000X-0.650000X1.000000X-0.650000X0*%
%ADD24RoundRect,0.150000X-0.150000X0.587500X-0.150000X-0.587500X0.150000X-0.587500X0.150000X0.587500X0*%
%ADD25RoundRect,0.250000X0.450000X-0.262500X0.450000X0.262500X-0.450000X0.262500X-0.450000X-0.262500X0*%
%ADD26RoundRect,0.150000X-0.587500X-0.150000X0.587500X-0.150000X0.587500X0.150000X-0.587500X0.150000X0*%
%ADD27RoundRect,0.250000X-0.450000X0.262500X-0.450000X-0.262500X0.450000X-0.262500X0.450000X0.262500X0*%
%ADD28RoundRect,0.250000X-0.250000X-0.475000X0.250000X-0.475000X0.250000X0.475000X-0.250000X0.475000X0*%
%ADD29RoundRect,0.250000X0.850000X0.350000X-0.850000X0.350000X-0.850000X-0.350000X0.850000X-0.350000X0*%
%ADD30RoundRect,0.249997X2.950003X2.650003X-2.950003X2.650003X-2.950003X-2.650003X2.950003X-2.650003X0*%
%ADD31RoundRect,0.250000X0.650000X-1.000000X0.650000X1.000000X-0.650000X1.000000X-0.650000X-1.000000X0*%
%ADD32RoundRect,0.250000X1.000000X-1.950000X1.000000X1.950000X-1.000000X1.950000X-1.000000X-1.950000X0*%
%ADD33RoundRect,0.250000X0.512652X0.159099X0.159099X0.512652X-0.512652X-0.159099X-0.159099X-0.512652X0*%
%ADD34RoundRect,0.250000X0.550000X-1.500000X0.550000X1.500000X-0.550000X1.500000X-0.550000X-1.500000X0*%
%ADD35RoundRect,0.250000X0.262500X0.450000X-0.262500X0.450000X-0.262500X-0.450000X0.262500X-0.450000X0*%
G04 APERTURE END LIST*
D10*
X139781797Y-122094766D02*
X139781797Y-122794766D01*
X139781797Y-122794766D02*
X139948464Y-122794766D01*
X139948464Y-122794766D02*
X140048464Y-122761433D01*
X140048464Y-122761433D02*
X140115131Y-122694766D01*
X140115131Y-122694766D02*
X140148464Y-122628100D01*
X140148464Y-122628100D02*
X140181797Y-122494766D01*
X140181797Y-122494766D02*
X140181797Y-122394766D01*
X140181797Y-122394766D02*
X140148464Y-122261433D01*
X140148464Y-122261433D02*
X140115131Y-122194766D01*
X140115131Y-122194766D02*
X140048464Y-122128100D01*
X140048464Y-122128100D02*
X139948464Y-122094766D01*
X139948464Y-122094766D02*
X139781797Y-122094766D01*
X140748464Y-122128100D02*
X140681797Y-122094766D01*
X140681797Y-122094766D02*
X140548464Y-122094766D01*
X140548464Y-122094766D02*
X140481797Y-122128100D01*
X140481797Y-122128100D02*
X140448464Y-122194766D01*
X140448464Y-122194766D02*
X140448464Y-122461433D01*
X140448464Y-122461433D02*
X140481797Y-122528100D01*
X140481797Y-122528100D02*
X140548464Y-122561433D01*
X140548464Y-122561433D02*
X140681797Y-122561433D01*
X140681797Y-122561433D02*
X140748464Y-122528100D01*
X140748464Y-122528100D02*
X140781797Y-122461433D01*
X140781797Y-122461433D02*
X140781797Y-122394766D01*
X140781797Y-122394766D02*
X140448464Y-122328100D01*
X141048464Y-122128100D02*
X141115131Y-122094766D01*
X141115131Y-122094766D02*
X141248464Y-122094766D01*
X141248464Y-122094766D02*
X141315131Y-122128100D01*
X141315131Y-122128100D02*
X141348464Y-122194766D01*
X141348464Y-122194766D02*
X141348464Y-122228100D01*
X141348464Y-122228100D02*
X141315131Y-122294766D01*
X141315131Y-122294766D02*
X141248464Y-122328100D01*
X141248464Y-122328100D02*
X141148464Y-122328100D01*
X141148464Y-122328100D02*
X141081797Y-122361433D01*
X141081797Y-122361433D02*
X141048464Y-122428100D01*
X141048464Y-122428100D02*
X141048464Y-122461433D01*
X141048464Y-122461433D02*
X141081797Y-122528100D01*
X141081797Y-122528100D02*
X141148464Y-122561433D01*
X141148464Y-122561433D02*
X141248464Y-122561433D01*
X141248464Y-122561433D02*
X141315131Y-122528100D01*
X141648464Y-122094766D02*
X141648464Y-122561433D01*
X141648464Y-122794766D02*
X141615131Y-122761433D01*
X141615131Y-122761433D02*
X141648464Y-122728100D01*
X141648464Y-122728100D02*
X141681798Y-122761433D01*
X141681798Y-122761433D02*
X141648464Y-122794766D01*
X141648464Y-122794766D02*
X141648464Y-122728100D01*
X142281797Y-122561433D02*
X142281797Y-121994766D01*
X142281797Y-121994766D02*
X142248464Y-121928100D01*
X142248464Y-121928100D02*
X142215131Y-121894766D01*
X142215131Y-121894766D02*
X142148464Y-121861433D01*
X142148464Y-121861433D02*
X142048464Y-121861433D01*
X142048464Y-121861433D02*
X141981797Y-121894766D01*
X142281797Y-122128100D02*
X142215131Y-122094766D01*
X142215131Y-122094766D02*
X142081797Y-122094766D01*
X142081797Y-122094766D02*
X142015131Y-122128100D01*
X142015131Y-122128100D02*
X141981797Y-122161433D01*
X141981797Y-122161433D02*
X141948464Y-122228100D01*
X141948464Y-122228100D02*
X141948464Y-122428100D01*
X141948464Y-122428100D02*
X141981797Y-122494766D01*
X141981797Y-122494766D02*
X142015131Y-122528100D01*
X142015131Y-122528100D02*
X142081797Y-122561433D01*
X142081797Y-122561433D02*
X142215131Y-122561433D01*
X142215131Y-122561433D02*
X142281797Y-122528100D01*
X142615130Y-122561433D02*
X142615130Y-122094766D01*
X142615130Y-122494766D02*
X142648464Y-122528100D01*
X142648464Y-122528100D02*
X142715130Y-122561433D01*
X142715130Y-122561433D02*
X142815130Y-122561433D01*
X142815130Y-122561433D02*
X142881797Y-122528100D01*
X142881797Y-122528100D02*
X142915130Y-122461433D01*
X142915130Y-122461433D02*
X142915130Y-122094766D01*
X143515130Y-122128100D02*
X143448463Y-122094766D01*
X143448463Y-122094766D02*
X143315130Y-122094766D01*
X143315130Y-122094766D02*
X143248463Y-122128100D01*
X143248463Y-122128100D02*
X143215130Y-122194766D01*
X143215130Y-122194766D02*
X143215130Y-122461433D01*
X143215130Y-122461433D02*
X143248463Y-122528100D01*
X143248463Y-122528100D02*
X143315130Y-122561433D01*
X143315130Y-122561433D02*
X143448463Y-122561433D01*
X143448463Y-122561433D02*
X143515130Y-122528100D01*
X143515130Y-122528100D02*
X143548463Y-122461433D01*
X143548463Y-122461433D02*
X143548463Y-122394766D01*
X143548463Y-122394766D02*
X143215130Y-122328100D01*
X144148463Y-122094766D02*
X144148463Y-122794766D01*
X144148463Y-122128100D02*
X144081797Y-122094766D01*
X144081797Y-122094766D02*
X143948463Y-122094766D01*
X143948463Y-122094766D02*
X143881797Y-122128100D01*
X143881797Y-122128100D02*
X143848463Y-122161433D01*
X143848463Y-122161433D02*
X143815130Y-122228100D01*
X143815130Y-122228100D02*
X143815130Y-122428100D01*
X143815130Y-122428100D02*
X143848463Y-122494766D01*
X143848463Y-122494766D02*
X143881797Y-122528100D01*
X143881797Y-122528100D02*
X143948463Y-122561433D01*
X143948463Y-122561433D02*
X144081797Y-122561433D01*
X144081797Y-122561433D02*
X144148463Y-122528100D01*
X145015129Y-122094766D02*
X145015129Y-122794766D01*
X145015129Y-122528100D02*
X145081796Y-122561433D01*
X145081796Y-122561433D02*
X145215129Y-122561433D01*
X145215129Y-122561433D02*
X145281796Y-122528100D01*
X145281796Y-122528100D02*
X145315129Y-122494766D01*
X145315129Y-122494766D02*
X145348463Y-122428100D01*
X145348463Y-122428100D02*
X145348463Y-122228100D01*
X145348463Y-122228100D02*
X145315129Y-122161433D01*
X145315129Y-122161433D02*
X145281796Y-122128100D01*
X145281796Y-122128100D02*
X145215129Y-122094766D01*
X145215129Y-122094766D02*
X145081796Y-122094766D01*
X145081796Y-122094766D02*
X145015129Y-122128100D01*
X145581796Y-122561433D02*
X145748462Y-122094766D01*
X145915129Y-122561433D02*
X145748462Y-122094766D01*
X145748462Y-122094766D02*
X145681796Y-121928100D01*
X145681796Y-121928100D02*
X145648462Y-121894766D01*
X145648462Y-121894766D02*
X145581796Y-121861433D01*
X146181795Y-122161433D02*
X146215129Y-122128100D01*
X146215129Y-122128100D02*
X146181795Y-122094766D01*
X146181795Y-122094766D02*
X146148462Y-122128100D01*
X146148462Y-122128100D02*
X146181795Y-122161433D01*
X146181795Y-122161433D02*
X146181795Y-122094766D01*
X146181795Y-122528100D02*
X146215129Y-122494766D01*
X146215129Y-122494766D02*
X146181795Y-122461433D01*
X146181795Y-122461433D02*
X146148462Y-122494766D01*
X146148462Y-122494766D02*
X146181795Y-122528100D01*
X146181795Y-122528100D02*
X146181795Y-122461433D01*
X147015128Y-122128100D02*
X147115128Y-122094766D01*
X147115128Y-122094766D02*
X147281795Y-122094766D01*
X147281795Y-122094766D02*
X147348461Y-122128100D01*
X147348461Y-122128100D02*
X147381795Y-122161433D01*
X147381795Y-122161433D02*
X147415128Y-122228100D01*
X147415128Y-122228100D02*
X147415128Y-122294766D01*
X147415128Y-122294766D02*
X147381795Y-122361433D01*
X147381795Y-122361433D02*
X147348461Y-122394766D01*
X147348461Y-122394766D02*
X147281795Y-122428100D01*
X147281795Y-122428100D02*
X147148461Y-122461433D01*
X147148461Y-122461433D02*
X147081795Y-122494766D01*
X147081795Y-122494766D02*
X147048461Y-122528100D01*
X147048461Y-122528100D02*
X147015128Y-122594766D01*
X147015128Y-122594766D02*
X147015128Y-122661433D01*
X147015128Y-122661433D02*
X147048461Y-122728100D01*
X147048461Y-122728100D02*
X147081795Y-122761433D01*
X147081795Y-122761433D02*
X147148461Y-122794766D01*
X147148461Y-122794766D02*
X147315128Y-122794766D01*
X147315128Y-122794766D02*
X147415128Y-122761433D01*
X147981795Y-122128100D02*
X147915128Y-122094766D01*
X147915128Y-122094766D02*
X147781795Y-122094766D01*
X147781795Y-122094766D02*
X147715128Y-122128100D01*
X147715128Y-122128100D02*
X147681795Y-122194766D01*
X147681795Y-122194766D02*
X147681795Y-122461433D01*
X147681795Y-122461433D02*
X147715128Y-122528100D01*
X147715128Y-122528100D02*
X147781795Y-122561433D01*
X147781795Y-122561433D02*
X147915128Y-122561433D01*
X147915128Y-122561433D02*
X147981795Y-122528100D01*
X147981795Y-122528100D02*
X148015128Y-122461433D01*
X148015128Y-122461433D02*
X148015128Y-122394766D01*
X148015128Y-122394766D02*
X147681795Y-122328100D01*
X148315128Y-122094766D02*
X148315128Y-122561433D01*
X148315128Y-122428100D02*
X148348462Y-122494766D01*
X148348462Y-122494766D02*
X148381795Y-122528100D01*
X148381795Y-122528100D02*
X148448462Y-122561433D01*
X148448462Y-122561433D02*
X148515128Y-122561433D01*
X149048461Y-122561433D02*
X149048461Y-121994766D01*
X149048461Y-121994766D02*
X149015128Y-121928100D01*
X149015128Y-121928100D02*
X148981795Y-121894766D01*
X148981795Y-121894766D02*
X148915128Y-121861433D01*
X148915128Y-121861433D02*
X148815128Y-121861433D01*
X148815128Y-121861433D02*
X148748461Y-121894766D01*
X149048461Y-122128100D02*
X148981795Y-122094766D01*
X148981795Y-122094766D02*
X148848461Y-122094766D01*
X148848461Y-122094766D02*
X148781795Y-122128100D01*
X148781795Y-122128100D02*
X148748461Y-122161433D01*
X148748461Y-122161433D02*
X148715128Y-122228100D01*
X148715128Y-122228100D02*
X148715128Y-122428100D01*
X148715128Y-122428100D02*
X148748461Y-122494766D01*
X148748461Y-122494766D02*
X148781795Y-122528100D01*
X148781795Y-122528100D02*
X148848461Y-122561433D01*
X148848461Y-122561433D02*
X148981795Y-122561433D01*
X148981795Y-122561433D02*
X149048461Y-122528100D01*
X149648461Y-122128100D02*
X149581794Y-122094766D01*
X149581794Y-122094766D02*
X149448461Y-122094766D01*
X149448461Y-122094766D02*
X149381794Y-122128100D01*
X149381794Y-122128100D02*
X149348461Y-122194766D01*
X149348461Y-122194766D02*
X149348461Y-122461433D01*
X149348461Y-122461433D02*
X149381794Y-122528100D01*
X149381794Y-122528100D02*
X149448461Y-122561433D01*
X149448461Y-122561433D02*
X149581794Y-122561433D01*
X149581794Y-122561433D02*
X149648461Y-122528100D01*
X149648461Y-122528100D02*
X149681794Y-122461433D01*
X149681794Y-122461433D02*
X149681794Y-122394766D01*
X149681794Y-122394766D02*
X149348461Y-122328100D01*
X149915128Y-122561433D02*
X150081794Y-122094766D01*
X150248461Y-122561433D02*
X150081794Y-122094766D01*
X150081794Y-122094766D02*
X150015128Y-121928100D01*
X150015128Y-121928100D02*
X149981794Y-121894766D01*
X149981794Y-121894766D02*
X149915128Y-121861433D01*
X151181794Y-122428100D02*
X151181794Y-122094766D01*
X150948460Y-122794766D02*
X151181794Y-122428100D01*
X151181794Y-122428100D02*
X151415127Y-122794766D01*
X151948460Y-122094766D02*
X151948460Y-122461433D01*
X151948460Y-122461433D02*
X151915127Y-122528100D01*
X151915127Y-122528100D02*
X151848460Y-122561433D01*
X151848460Y-122561433D02*
X151715127Y-122561433D01*
X151715127Y-122561433D02*
X151648460Y-122528100D01*
X151948460Y-122128100D02*
X151881794Y-122094766D01*
X151881794Y-122094766D02*
X151715127Y-122094766D01*
X151715127Y-122094766D02*
X151648460Y-122128100D01*
X151648460Y-122128100D02*
X151615127Y-122194766D01*
X151615127Y-122194766D02*
X151615127Y-122261433D01*
X151615127Y-122261433D02*
X151648460Y-122328100D01*
X151648460Y-122328100D02*
X151715127Y-122361433D01*
X151715127Y-122361433D02*
X151881794Y-122361433D01*
X151881794Y-122361433D02*
X151948460Y-122394766D01*
X152281793Y-122094766D02*
X152281793Y-122561433D01*
X152281793Y-122428100D02*
X152315127Y-122494766D01*
X152315127Y-122494766D02*
X152348460Y-122528100D01*
X152348460Y-122528100D02*
X152415127Y-122561433D01*
X152415127Y-122561433D02*
X152481793Y-122561433D01*
X152715126Y-122094766D02*
X152715126Y-122794766D01*
X152781793Y-122361433D02*
X152981793Y-122094766D01*
X152981793Y-122561433D02*
X152715126Y-122294766D01*
X153381793Y-122094766D02*
X153315127Y-122128100D01*
X153315127Y-122128100D02*
X153281793Y-122161433D01*
X153281793Y-122161433D02*
X153248460Y-122228100D01*
X153248460Y-122228100D02*
X153248460Y-122428100D01*
X153248460Y-122428100D02*
X153281793Y-122494766D01*
X153281793Y-122494766D02*
X153315127Y-122528100D01*
X153315127Y-122528100D02*
X153381793Y-122561433D01*
X153381793Y-122561433D02*
X153481793Y-122561433D01*
X153481793Y-122561433D02*
X153548460Y-122528100D01*
X153548460Y-122528100D02*
X153581793Y-122494766D01*
X153581793Y-122494766D02*
X153615127Y-122428100D01*
X153615127Y-122428100D02*
X153615127Y-122228100D01*
X153615127Y-122228100D02*
X153581793Y-122161433D01*
X153581793Y-122161433D02*
X153548460Y-122128100D01*
X153548460Y-122128100D02*
X153481793Y-122094766D01*
X153481793Y-122094766D02*
X153381793Y-122094766D01*
X153848460Y-122561433D02*
X154015126Y-122094766D01*
X154015126Y-122094766D02*
X154181793Y-122561433D01*
X139781797Y-120594766D02*
X139781797Y-121294766D01*
X140081797Y-120594766D02*
X140081797Y-120961433D01*
X140081797Y-120961433D02*
X140048464Y-121028100D01*
X140048464Y-121028100D02*
X139981797Y-121061433D01*
X139981797Y-121061433D02*
X139881797Y-121061433D01*
X139881797Y-121061433D02*
X139815131Y-121028100D01*
X139815131Y-121028100D02*
X139781797Y-120994766D01*
X140315130Y-121061433D02*
X140581797Y-121061433D01*
X140415130Y-121294766D02*
X140415130Y-120694766D01*
X140415130Y-120694766D02*
X140448464Y-120628100D01*
X140448464Y-120628100D02*
X140515130Y-120594766D01*
X140515130Y-120594766D02*
X140581797Y-120594766D01*
X140715130Y-121061433D02*
X140981797Y-121061433D01*
X140815130Y-121294766D02*
X140815130Y-120694766D01*
X140815130Y-120694766D02*
X140848464Y-120628100D01*
X140848464Y-120628100D02*
X140915130Y-120594766D01*
X140915130Y-120594766D02*
X140981797Y-120594766D01*
X141215130Y-121061433D02*
X141215130Y-120361433D01*
X141215130Y-121028100D02*
X141281797Y-121061433D01*
X141281797Y-121061433D02*
X141415130Y-121061433D01*
X141415130Y-121061433D02*
X141481797Y-121028100D01*
X141481797Y-121028100D02*
X141515130Y-120994766D01*
X141515130Y-120994766D02*
X141548464Y-120928100D01*
X141548464Y-120928100D02*
X141548464Y-120728100D01*
X141548464Y-120728100D02*
X141515130Y-120661433D01*
X141515130Y-120661433D02*
X141481797Y-120628100D01*
X141481797Y-120628100D02*
X141415130Y-120594766D01*
X141415130Y-120594766D02*
X141281797Y-120594766D01*
X141281797Y-120594766D02*
X141215130Y-120628100D01*
X141815130Y-120628100D02*
X141881797Y-120594766D01*
X141881797Y-120594766D02*
X142015130Y-120594766D01*
X142015130Y-120594766D02*
X142081797Y-120628100D01*
X142081797Y-120628100D02*
X142115130Y-120694766D01*
X142115130Y-120694766D02*
X142115130Y-120728100D01*
X142115130Y-120728100D02*
X142081797Y-120794766D01*
X142081797Y-120794766D02*
X142015130Y-120828100D01*
X142015130Y-120828100D02*
X141915130Y-120828100D01*
X141915130Y-120828100D02*
X141848463Y-120861433D01*
X141848463Y-120861433D02*
X141815130Y-120928100D01*
X141815130Y-120928100D02*
X141815130Y-120961433D01*
X141815130Y-120961433D02*
X141848463Y-121028100D01*
X141848463Y-121028100D02*
X141915130Y-121061433D01*
X141915130Y-121061433D02*
X142015130Y-121061433D01*
X142015130Y-121061433D02*
X142081797Y-121028100D01*
X142415130Y-120661433D02*
X142448464Y-120628100D01*
X142448464Y-120628100D02*
X142415130Y-120594766D01*
X142415130Y-120594766D02*
X142381797Y-120628100D01*
X142381797Y-120628100D02*
X142415130Y-120661433D01*
X142415130Y-120661433D02*
X142415130Y-120594766D01*
X142415130Y-121028100D02*
X142448464Y-120994766D01*
X142448464Y-120994766D02*
X142415130Y-120961433D01*
X142415130Y-120961433D02*
X142381797Y-120994766D01*
X142381797Y-120994766D02*
X142415130Y-121028100D01*
X142415130Y-121028100D02*
X142415130Y-120961433D01*
X143248463Y-121328100D02*
X142648463Y-120428100D01*
X143981796Y-121328100D02*
X143381796Y-120428100D01*
X144515129Y-121061433D02*
X144515129Y-120494766D01*
X144515129Y-120494766D02*
X144481796Y-120428100D01*
X144481796Y-120428100D02*
X144448463Y-120394766D01*
X144448463Y-120394766D02*
X144381796Y-120361433D01*
X144381796Y-120361433D02*
X144281796Y-120361433D01*
X144281796Y-120361433D02*
X144215129Y-120394766D01*
X144515129Y-120628100D02*
X144448463Y-120594766D01*
X144448463Y-120594766D02*
X144315129Y-120594766D01*
X144315129Y-120594766D02*
X144248463Y-120628100D01*
X144248463Y-120628100D02*
X144215129Y-120661433D01*
X144215129Y-120661433D02*
X144181796Y-120728100D01*
X144181796Y-120728100D02*
X144181796Y-120928100D01*
X144181796Y-120928100D02*
X144215129Y-120994766D01*
X144215129Y-120994766D02*
X144248463Y-121028100D01*
X144248463Y-121028100D02*
X144315129Y-121061433D01*
X144315129Y-121061433D02*
X144448463Y-121061433D01*
X144448463Y-121061433D02*
X144515129Y-121028100D01*
X144848462Y-120594766D02*
X144848462Y-121061433D01*
X144848462Y-121294766D02*
X144815129Y-121261433D01*
X144815129Y-121261433D02*
X144848462Y-121228100D01*
X144848462Y-121228100D02*
X144881796Y-121261433D01*
X144881796Y-121261433D02*
X144848462Y-121294766D01*
X144848462Y-121294766D02*
X144848462Y-121228100D01*
X145081795Y-121061433D02*
X145348462Y-121061433D01*
X145181795Y-121294766D02*
X145181795Y-120694766D01*
X145181795Y-120694766D02*
X145215129Y-120628100D01*
X145215129Y-120628100D02*
X145281795Y-120594766D01*
X145281795Y-120594766D02*
X145348462Y-120594766D01*
X145581795Y-120594766D02*
X145581795Y-121294766D01*
X145881795Y-120594766D02*
X145881795Y-120961433D01*
X145881795Y-120961433D02*
X145848462Y-121028100D01*
X145848462Y-121028100D02*
X145781795Y-121061433D01*
X145781795Y-121061433D02*
X145681795Y-121061433D01*
X145681795Y-121061433D02*
X145615129Y-121028100D01*
X145615129Y-121028100D02*
X145581795Y-120994766D01*
X146515128Y-121061433D02*
X146515128Y-120594766D01*
X146215128Y-121061433D02*
X146215128Y-120694766D01*
X146215128Y-120694766D02*
X146248462Y-120628100D01*
X146248462Y-120628100D02*
X146315128Y-120594766D01*
X146315128Y-120594766D02*
X146415128Y-120594766D01*
X146415128Y-120594766D02*
X146481795Y-120628100D01*
X146481795Y-120628100D02*
X146515128Y-120661433D01*
X146848461Y-120594766D02*
X146848461Y-121294766D01*
X146848461Y-121028100D02*
X146915128Y-121061433D01*
X146915128Y-121061433D02*
X147048461Y-121061433D01*
X147048461Y-121061433D02*
X147115128Y-121028100D01*
X147115128Y-121028100D02*
X147148461Y-120994766D01*
X147148461Y-120994766D02*
X147181795Y-120928100D01*
X147181795Y-120928100D02*
X147181795Y-120728100D01*
X147181795Y-120728100D02*
X147148461Y-120661433D01*
X147148461Y-120661433D02*
X147115128Y-120628100D01*
X147115128Y-120628100D02*
X147048461Y-120594766D01*
X147048461Y-120594766D02*
X146915128Y-120594766D01*
X146915128Y-120594766D02*
X146848461Y-120628100D01*
X147481794Y-120661433D02*
X147515128Y-120628100D01*
X147515128Y-120628100D02*
X147481794Y-120594766D01*
X147481794Y-120594766D02*
X147448461Y-120628100D01*
X147448461Y-120628100D02*
X147481794Y-120661433D01*
X147481794Y-120661433D02*
X147481794Y-120594766D01*
X148115127Y-120628100D02*
X148048461Y-120594766D01*
X148048461Y-120594766D02*
X147915127Y-120594766D01*
X147915127Y-120594766D02*
X147848461Y-120628100D01*
X147848461Y-120628100D02*
X147815127Y-120661433D01*
X147815127Y-120661433D02*
X147781794Y-120728100D01*
X147781794Y-120728100D02*
X147781794Y-120928100D01*
X147781794Y-120928100D02*
X147815127Y-120994766D01*
X147815127Y-120994766D02*
X147848461Y-121028100D01*
X147848461Y-121028100D02*
X147915127Y-121061433D01*
X147915127Y-121061433D02*
X148048461Y-121061433D01*
X148048461Y-121061433D02*
X148115127Y-121028100D01*
X148515127Y-120594766D02*
X148448461Y-120628100D01*
X148448461Y-120628100D02*
X148415127Y-120661433D01*
X148415127Y-120661433D02*
X148381794Y-120728100D01*
X148381794Y-120728100D02*
X148381794Y-120928100D01*
X148381794Y-120928100D02*
X148415127Y-120994766D01*
X148415127Y-120994766D02*
X148448461Y-121028100D01*
X148448461Y-121028100D02*
X148515127Y-121061433D01*
X148515127Y-121061433D02*
X148615127Y-121061433D01*
X148615127Y-121061433D02*
X148681794Y-121028100D01*
X148681794Y-121028100D02*
X148715127Y-120994766D01*
X148715127Y-120994766D02*
X148748461Y-120928100D01*
X148748461Y-120928100D02*
X148748461Y-120728100D01*
X148748461Y-120728100D02*
X148715127Y-120661433D01*
X148715127Y-120661433D02*
X148681794Y-120628100D01*
X148681794Y-120628100D02*
X148615127Y-120594766D01*
X148615127Y-120594766D02*
X148515127Y-120594766D01*
X149048460Y-120594766D02*
X149048460Y-121061433D01*
X149048460Y-120994766D02*
X149081794Y-121028100D01*
X149081794Y-121028100D02*
X149148460Y-121061433D01*
X149148460Y-121061433D02*
X149248460Y-121061433D01*
X149248460Y-121061433D02*
X149315127Y-121028100D01*
X149315127Y-121028100D02*
X149348460Y-120961433D01*
X149348460Y-120961433D02*
X149348460Y-120594766D01*
X149348460Y-120961433D02*
X149381794Y-121028100D01*
X149381794Y-121028100D02*
X149448460Y-121061433D01*
X149448460Y-121061433D02*
X149548460Y-121061433D01*
X149548460Y-121061433D02*
X149615127Y-121028100D01*
X149615127Y-121028100D02*
X149648460Y-120961433D01*
X149648460Y-120961433D02*
X149648460Y-120594766D01*
X150481793Y-121328100D02*
X149881793Y-120428100D01*
X150681793Y-120628100D02*
X150748460Y-120594766D01*
X150748460Y-120594766D02*
X150881793Y-120594766D01*
X150881793Y-120594766D02*
X150948460Y-120628100D01*
X150948460Y-120628100D02*
X150981793Y-120694766D01*
X150981793Y-120694766D02*
X150981793Y-120728100D01*
X150981793Y-120728100D02*
X150948460Y-120794766D01*
X150948460Y-120794766D02*
X150881793Y-120828100D01*
X150881793Y-120828100D02*
X150781793Y-120828100D01*
X150781793Y-120828100D02*
X150715126Y-120861433D01*
X150715126Y-120861433D02*
X150681793Y-120928100D01*
X150681793Y-120928100D02*
X150681793Y-120961433D01*
X150681793Y-120961433D02*
X150715126Y-121028100D01*
X150715126Y-121028100D02*
X150781793Y-121061433D01*
X150781793Y-121061433D02*
X150881793Y-121061433D01*
X150881793Y-121061433D02*
X150948460Y-121028100D01*
X151548460Y-120628100D02*
X151481793Y-120594766D01*
X151481793Y-120594766D02*
X151348460Y-120594766D01*
X151348460Y-120594766D02*
X151281793Y-120628100D01*
X151281793Y-120628100D02*
X151248460Y-120694766D01*
X151248460Y-120694766D02*
X151248460Y-120961433D01*
X151248460Y-120961433D02*
X151281793Y-121028100D01*
X151281793Y-121028100D02*
X151348460Y-121061433D01*
X151348460Y-121061433D02*
X151481793Y-121061433D01*
X151481793Y-121061433D02*
X151548460Y-121028100D01*
X151548460Y-121028100D02*
X151581793Y-120961433D01*
X151581793Y-120961433D02*
X151581793Y-120894766D01*
X151581793Y-120894766D02*
X151248460Y-120828100D01*
X151881793Y-120594766D02*
X151881793Y-121061433D01*
X151881793Y-120928100D02*
X151915127Y-120994766D01*
X151915127Y-120994766D02*
X151948460Y-121028100D01*
X151948460Y-121028100D02*
X152015127Y-121061433D01*
X152015127Y-121061433D02*
X152081793Y-121061433D01*
X152615126Y-121061433D02*
X152615126Y-120494766D01*
X152615126Y-120494766D02*
X152581793Y-120428100D01*
X152581793Y-120428100D02*
X152548460Y-120394766D01*
X152548460Y-120394766D02*
X152481793Y-120361433D01*
X152481793Y-120361433D02*
X152381793Y-120361433D01*
X152381793Y-120361433D02*
X152315126Y-120394766D01*
X152615126Y-120628100D02*
X152548460Y-120594766D01*
X152548460Y-120594766D02*
X152415126Y-120594766D01*
X152415126Y-120594766D02*
X152348460Y-120628100D01*
X152348460Y-120628100D02*
X152315126Y-120661433D01*
X152315126Y-120661433D02*
X152281793Y-120728100D01*
X152281793Y-120728100D02*
X152281793Y-120928100D01*
X152281793Y-120928100D02*
X152315126Y-120994766D01*
X152315126Y-120994766D02*
X152348460Y-121028100D01*
X152348460Y-121028100D02*
X152415126Y-121061433D01*
X152415126Y-121061433D02*
X152548460Y-121061433D01*
X152548460Y-121061433D02*
X152615126Y-121028100D01*
X153215126Y-120628100D02*
X153148459Y-120594766D01*
X153148459Y-120594766D02*
X153015126Y-120594766D01*
X153015126Y-120594766D02*
X152948459Y-120628100D01*
X152948459Y-120628100D02*
X152915126Y-120694766D01*
X152915126Y-120694766D02*
X152915126Y-120961433D01*
X152915126Y-120961433D02*
X152948459Y-121028100D01*
X152948459Y-121028100D02*
X153015126Y-121061433D01*
X153015126Y-121061433D02*
X153148459Y-121061433D01*
X153148459Y-121061433D02*
X153215126Y-121028100D01*
X153215126Y-121028100D02*
X153248459Y-120961433D01*
X153248459Y-120961433D02*
X153248459Y-120894766D01*
X153248459Y-120894766D02*
X152915126Y-120828100D01*
X153481793Y-121061433D02*
X153648459Y-120594766D01*
X153815126Y-121061433D02*
X153648459Y-120594766D01*
X153648459Y-120594766D02*
X153581793Y-120428100D01*
X153581793Y-120428100D02*
X153548459Y-120394766D01*
X153548459Y-120394766D02*
X153481793Y-120361433D01*
X154015126Y-121061433D02*
X154181792Y-120594766D01*
X154348459Y-121061433D02*
X154181792Y-120594766D01*
X154181792Y-120594766D02*
X154115126Y-120428100D01*
X154115126Y-120428100D02*
X154081792Y-120394766D01*
X154081792Y-120394766D02*
X154015126Y-120361433D01*
X154915125Y-120594766D02*
X154915125Y-120961433D01*
X154915125Y-120961433D02*
X154881792Y-121028100D01*
X154881792Y-121028100D02*
X154815125Y-121061433D01*
X154815125Y-121061433D02*
X154681792Y-121061433D01*
X154681792Y-121061433D02*
X154615125Y-121028100D01*
X154915125Y-120628100D02*
X154848459Y-120594766D01*
X154848459Y-120594766D02*
X154681792Y-120594766D01*
X154681792Y-120594766D02*
X154615125Y-120628100D01*
X154615125Y-120628100D02*
X154581792Y-120694766D01*
X154581792Y-120694766D02*
X154581792Y-120761433D01*
X154581792Y-120761433D02*
X154615125Y-120828100D01*
X154615125Y-120828100D02*
X154681792Y-120861433D01*
X154681792Y-120861433D02*
X154848459Y-120861433D01*
X154848459Y-120861433D02*
X154915125Y-120894766D01*
X155248458Y-120594766D02*
X155248458Y-121061433D01*
X155248458Y-120928100D02*
X155281792Y-120994766D01*
X155281792Y-120994766D02*
X155315125Y-121028100D01*
X155315125Y-121028100D02*
X155381792Y-121061433D01*
X155381792Y-121061433D02*
X155448458Y-121061433D01*
X155681791Y-120594766D02*
X155681791Y-121294766D01*
X155748458Y-120861433D02*
X155948458Y-120594766D01*
X155948458Y-121061433D02*
X155681791Y-120794766D01*
X156348458Y-120594766D02*
X156281792Y-120628100D01*
X156281792Y-120628100D02*
X156248458Y-120661433D01*
X156248458Y-120661433D02*
X156215125Y-120728100D01*
X156215125Y-120728100D02*
X156215125Y-120928100D01*
X156215125Y-120928100D02*
X156248458Y-120994766D01*
X156248458Y-120994766D02*
X156281792Y-121028100D01*
X156281792Y-121028100D02*
X156348458Y-121061433D01*
X156348458Y-121061433D02*
X156448458Y-121061433D01*
X156448458Y-121061433D02*
X156515125Y-121028100D01*
X156515125Y-121028100D02*
X156548458Y-120994766D01*
X156548458Y-120994766D02*
X156581792Y-120928100D01*
X156581792Y-120928100D02*
X156581792Y-120728100D01*
X156581792Y-120728100D02*
X156548458Y-120661433D01*
X156548458Y-120661433D02*
X156515125Y-120628100D01*
X156515125Y-120628100D02*
X156448458Y-120594766D01*
X156448458Y-120594766D02*
X156348458Y-120594766D01*
X156815125Y-121061433D02*
X156981791Y-120594766D01*
X156981791Y-120594766D02*
X157148458Y-121061433D01*
X157915124Y-121328100D02*
X157315124Y-120428100D01*
X158448457Y-120594766D02*
X158448457Y-120961433D01*
X158448457Y-120961433D02*
X158415124Y-121028100D01*
X158415124Y-121028100D02*
X158348457Y-121061433D01*
X158348457Y-121061433D02*
X158215124Y-121061433D01*
X158215124Y-121061433D02*
X158148457Y-121028100D01*
X158448457Y-120628100D02*
X158381791Y-120594766D01*
X158381791Y-120594766D02*
X158215124Y-120594766D01*
X158215124Y-120594766D02*
X158148457Y-120628100D01*
X158148457Y-120628100D02*
X158115124Y-120694766D01*
X158115124Y-120694766D02*
X158115124Y-120761433D01*
X158115124Y-120761433D02*
X158148457Y-120828100D01*
X158148457Y-120828100D02*
X158215124Y-120861433D01*
X158215124Y-120861433D02*
X158381791Y-120861433D01*
X158381791Y-120861433D02*
X158448457Y-120894766D01*
X158681790Y-121061433D02*
X158948457Y-121061433D01*
X158781790Y-121294766D02*
X158781790Y-120694766D01*
X158781790Y-120694766D02*
X158815124Y-120628100D01*
X158815124Y-120628100D02*
X158881790Y-120594766D01*
X158881790Y-120594766D02*
X158948457Y-120594766D01*
X159081790Y-121061433D02*
X159348457Y-121061433D01*
X159181790Y-121294766D02*
X159181790Y-120694766D01*
X159181790Y-120694766D02*
X159215124Y-120628100D01*
X159215124Y-120628100D02*
X159281790Y-120594766D01*
X159281790Y-120594766D02*
X159348457Y-120594766D01*
X159581790Y-120594766D02*
X159581790Y-121061433D01*
X159581790Y-121294766D02*
X159548457Y-121261433D01*
X159548457Y-121261433D02*
X159581790Y-121228100D01*
X159581790Y-121228100D02*
X159615124Y-121261433D01*
X159615124Y-121261433D02*
X159581790Y-121294766D01*
X159581790Y-121294766D02*
X159581790Y-121228100D01*
X159915123Y-121061433D02*
X159915123Y-120594766D01*
X159915123Y-120994766D02*
X159948457Y-121028100D01*
X159948457Y-121028100D02*
X160015123Y-121061433D01*
X160015123Y-121061433D02*
X160115123Y-121061433D01*
X160115123Y-121061433D02*
X160181790Y-121028100D01*
X160181790Y-121028100D02*
X160215123Y-120961433D01*
X160215123Y-120961433D02*
X160215123Y-120594766D01*
X160481790Y-121061433D02*
X160648456Y-120594766D01*
X160815123Y-121061433D02*
X160648456Y-120594766D01*
X160648456Y-120594766D02*
X160581790Y-120428100D01*
X160581790Y-120428100D02*
X160548456Y-120394766D01*
X160548456Y-120394766D02*
X160481790Y-120361433D01*
X161048456Y-121228100D02*
X161081789Y-121261433D01*
X161081789Y-121261433D02*
X161148456Y-121294766D01*
X161148456Y-121294766D02*
X161315123Y-121294766D01*
X161315123Y-121294766D02*
X161381789Y-121261433D01*
X161381789Y-121261433D02*
X161415123Y-121228100D01*
X161415123Y-121228100D02*
X161448456Y-121161433D01*
X161448456Y-121161433D02*
X161448456Y-121094766D01*
X161448456Y-121094766D02*
X161415123Y-120994766D01*
X161415123Y-120994766D02*
X161015123Y-120594766D01*
X161015123Y-120594766D02*
X161448456Y-120594766D01*
X161681790Y-121294766D02*
X162115123Y-121294766D01*
X162115123Y-121294766D02*
X161881790Y-121028100D01*
X161881790Y-121028100D02*
X161981790Y-121028100D01*
X161981790Y-121028100D02*
X162048456Y-120994766D01*
X162048456Y-120994766D02*
X162081790Y-120961433D01*
X162081790Y-120961433D02*
X162115123Y-120894766D01*
X162115123Y-120894766D02*
X162115123Y-120728100D01*
X162115123Y-120728100D02*
X162081790Y-120661433D01*
X162081790Y-120661433D02*
X162048456Y-120628100D01*
X162048456Y-120628100D02*
X161981790Y-120594766D01*
X161981790Y-120594766D02*
X161781790Y-120594766D01*
X161781790Y-120594766D02*
X161715123Y-120628100D01*
X161715123Y-120628100D02*
X161681790Y-120661433D01*
X162781790Y-120594766D02*
X162381790Y-120594766D01*
X162581790Y-120594766D02*
X162581790Y-121294766D01*
X162581790Y-121294766D02*
X162515123Y-121194766D01*
X162515123Y-121194766D02*
X162448457Y-121128100D01*
X162448457Y-121128100D02*
X162381790Y-121094766D01*
X163015124Y-121294766D02*
X163448457Y-121294766D01*
X163448457Y-121294766D02*
X163215124Y-121028100D01*
X163215124Y-121028100D02*
X163315124Y-121028100D01*
X163315124Y-121028100D02*
X163381790Y-120994766D01*
X163381790Y-120994766D02*
X163415124Y-120961433D01*
X163415124Y-120961433D02*
X163448457Y-120894766D01*
X163448457Y-120894766D02*
X163448457Y-120728100D01*
X163448457Y-120728100D02*
X163415124Y-120661433D01*
X163415124Y-120661433D02*
X163381790Y-120628100D01*
X163381790Y-120628100D02*
X163315124Y-120594766D01*
X163315124Y-120594766D02*
X163115124Y-120594766D01*
X163115124Y-120594766D02*
X163048457Y-120628100D01*
X163048457Y-120628100D02*
X163015124Y-120661433D01*
X164048457Y-120594766D02*
X164048457Y-120961433D01*
X164048457Y-120961433D02*
X164015124Y-121028100D01*
X164015124Y-121028100D02*
X163948457Y-121061433D01*
X163948457Y-121061433D02*
X163815124Y-121061433D01*
X163815124Y-121061433D02*
X163748457Y-121028100D01*
X164048457Y-120628100D02*
X163981791Y-120594766D01*
X163981791Y-120594766D02*
X163815124Y-120594766D01*
X163815124Y-120594766D02*
X163748457Y-120628100D01*
X163748457Y-120628100D02*
X163715124Y-120694766D01*
X163715124Y-120694766D02*
X163715124Y-120761433D01*
X163715124Y-120761433D02*
X163748457Y-120828100D01*
X163748457Y-120828100D02*
X163815124Y-120861433D01*
X163815124Y-120861433D02*
X163981791Y-120861433D01*
X163981791Y-120861433D02*
X164048457Y-120894766D01*
X164215124Y-120528100D02*
X164748457Y-120528100D01*
X164815123Y-121061433D02*
X165081790Y-121061433D01*
X164915123Y-121294766D02*
X164915123Y-120694766D01*
X164915123Y-120694766D02*
X164948457Y-120628100D01*
X164948457Y-120628100D02*
X165015123Y-120594766D01*
X165015123Y-120594766D02*
X165081790Y-120594766D01*
X165315123Y-120594766D02*
X165315123Y-121294766D01*
X165615123Y-120594766D02*
X165615123Y-120961433D01*
X165615123Y-120961433D02*
X165581790Y-121028100D01*
X165581790Y-121028100D02*
X165515123Y-121061433D01*
X165515123Y-121061433D02*
X165415123Y-121061433D01*
X165415123Y-121061433D02*
X165348457Y-121028100D01*
X165348457Y-121028100D02*
X165315123Y-120994766D01*
X166215123Y-120628100D02*
X166148456Y-120594766D01*
X166148456Y-120594766D02*
X166015123Y-120594766D01*
X166015123Y-120594766D02*
X165948456Y-120628100D01*
X165948456Y-120628100D02*
X165915123Y-120694766D01*
X165915123Y-120694766D02*
X165915123Y-120961433D01*
X165915123Y-120961433D02*
X165948456Y-121028100D01*
X165948456Y-121028100D02*
X166015123Y-121061433D01*
X166015123Y-121061433D02*
X166148456Y-121061433D01*
X166148456Y-121061433D02*
X166215123Y-121028100D01*
X166215123Y-121028100D02*
X166248456Y-120961433D01*
X166248456Y-120961433D02*
X166248456Y-120894766D01*
X166248456Y-120894766D02*
X165915123Y-120828100D01*
X166548456Y-120594766D02*
X166548456Y-121061433D01*
X166548456Y-120928100D02*
X166581790Y-120994766D01*
X166581790Y-120994766D02*
X166615123Y-121028100D01*
X166615123Y-121028100D02*
X166681790Y-121061433D01*
X166681790Y-121061433D02*
X166748456Y-121061433D01*
X166981789Y-120594766D02*
X166981789Y-121061433D01*
X166981789Y-120994766D02*
X167015123Y-121028100D01*
X167015123Y-121028100D02*
X167081789Y-121061433D01*
X167081789Y-121061433D02*
X167181789Y-121061433D01*
X167181789Y-121061433D02*
X167248456Y-121028100D01*
X167248456Y-121028100D02*
X167281789Y-120961433D01*
X167281789Y-120961433D02*
X167281789Y-120594766D01*
X167281789Y-120961433D02*
X167315123Y-121028100D01*
X167315123Y-121028100D02*
X167381789Y-121061433D01*
X167381789Y-121061433D02*
X167481789Y-121061433D01*
X167481789Y-121061433D02*
X167548456Y-121028100D01*
X167548456Y-121028100D02*
X167581789Y-120961433D01*
X167581789Y-120961433D02*
X167581789Y-120594766D01*
X168015122Y-120594766D02*
X167948456Y-120628100D01*
X167948456Y-120628100D02*
X167915122Y-120661433D01*
X167915122Y-120661433D02*
X167881789Y-120728100D01*
X167881789Y-120728100D02*
X167881789Y-120928100D01*
X167881789Y-120928100D02*
X167915122Y-120994766D01*
X167915122Y-120994766D02*
X167948456Y-121028100D01*
X167948456Y-121028100D02*
X168015122Y-121061433D01*
X168015122Y-121061433D02*
X168115122Y-121061433D01*
X168115122Y-121061433D02*
X168181789Y-121028100D01*
X168181789Y-121028100D02*
X168215122Y-120994766D01*
X168215122Y-120994766D02*
X168248456Y-120928100D01*
X168248456Y-120928100D02*
X168248456Y-120728100D01*
X168248456Y-120728100D02*
X168215122Y-120661433D01*
X168215122Y-120661433D02*
X168181789Y-120628100D01*
X168181789Y-120628100D02*
X168115122Y-120594766D01*
X168115122Y-120594766D02*
X168015122Y-120594766D01*
X168515122Y-120628100D02*
X168581789Y-120594766D01*
X168581789Y-120594766D02*
X168715122Y-120594766D01*
X168715122Y-120594766D02*
X168781789Y-120628100D01*
X168781789Y-120628100D02*
X168815122Y-120694766D01*
X168815122Y-120694766D02*
X168815122Y-120728100D01*
X168815122Y-120728100D02*
X168781789Y-120794766D01*
X168781789Y-120794766D02*
X168715122Y-120828100D01*
X168715122Y-120828100D02*
X168615122Y-120828100D01*
X168615122Y-120828100D02*
X168548455Y-120861433D01*
X168548455Y-120861433D02*
X168515122Y-120928100D01*
X168515122Y-120928100D02*
X168515122Y-120961433D01*
X168515122Y-120961433D02*
X168548455Y-121028100D01*
X168548455Y-121028100D02*
X168615122Y-121061433D01*
X168615122Y-121061433D02*
X168715122Y-121061433D01*
X168715122Y-121061433D02*
X168781789Y-121028100D01*
X169015122Y-121061433D02*
X169281789Y-121061433D01*
X169115122Y-121294766D02*
X169115122Y-120694766D01*
X169115122Y-120694766D02*
X169148456Y-120628100D01*
X169148456Y-120628100D02*
X169215122Y-120594766D01*
X169215122Y-120594766D02*
X169281789Y-120594766D01*
X169815122Y-120594766D02*
X169815122Y-120961433D01*
X169815122Y-120961433D02*
X169781789Y-121028100D01*
X169781789Y-121028100D02*
X169715122Y-121061433D01*
X169715122Y-121061433D02*
X169581789Y-121061433D01*
X169581789Y-121061433D02*
X169515122Y-121028100D01*
X169815122Y-120628100D02*
X169748456Y-120594766D01*
X169748456Y-120594766D02*
X169581789Y-120594766D01*
X169581789Y-120594766D02*
X169515122Y-120628100D01*
X169515122Y-120628100D02*
X169481789Y-120694766D01*
X169481789Y-120694766D02*
X169481789Y-120761433D01*
X169481789Y-120761433D02*
X169515122Y-120828100D01*
X169515122Y-120828100D02*
X169581789Y-120861433D01*
X169581789Y-120861433D02*
X169748456Y-120861433D01*
X169748456Y-120861433D02*
X169815122Y-120894766D01*
X170048455Y-121061433D02*
X170315122Y-121061433D01*
X170148455Y-121294766D02*
X170148455Y-120694766D01*
X170148455Y-120694766D02*
X170181789Y-120628100D01*
X170181789Y-120628100D02*
X170248455Y-120594766D01*
X170248455Y-120594766D02*
X170315122Y-120594766D01*
D11*
X165611904Y-106467319D02*
X165611904Y-107276842D01*
X165611904Y-107276842D02*
X165564285Y-107372080D01*
X165564285Y-107372080D02*
X165516666Y-107419700D01*
X165516666Y-107419700D02*
X165421428Y-107467319D01*
X165421428Y-107467319D02*
X165230952Y-107467319D01*
X165230952Y-107467319D02*
X165135714Y-107419700D01*
X165135714Y-107419700D02*
X165088095Y-107372080D01*
X165088095Y-107372080D02*
X165040476Y-107276842D01*
X165040476Y-107276842D02*
X165040476Y-106467319D01*
X164040476Y-107467319D02*
X164611904Y-107467319D01*
X164326190Y-107467319D02*
X164326190Y-106467319D01*
X164326190Y-106467319D02*
X164421428Y-106610176D01*
X164421428Y-106610176D02*
X164516666Y-106705414D01*
X164516666Y-106705414D02*
X164611904Y-106753033D01*
X128738094Y-116584819D02*
X128738094Y-115584819D01*
X128738094Y-115584819D02*
X128499999Y-115584819D01*
X128499999Y-115584819D02*
X128357142Y-115632438D01*
X128357142Y-115632438D02*
X128261904Y-115727676D01*
X128261904Y-115727676D02*
X128214285Y-115822914D01*
X128214285Y-115822914D02*
X128166666Y-116013390D01*
X128166666Y-116013390D02*
X128166666Y-116156247D01*
X128166666Y-116156247D02*
X128214285Y-116346723D01*
X128214285Y-116346723D02*
X128261904Y-116441961D01*
X128261904Y-116441961D02*
X128357142Y-116537200D01*
X128357142Y-116537200D02*
X128499999Y-116584819D01*
X128499999Y-116584819D02*
X128738094Y-116584819D01*
X127309523Y-115918152D02*
X127309523Y-116584819D01*
X127547618Y-115537200D02*
X127785713Y-116251485D01*
X127785713Y-116251485D02*
X127166666Y-116251485D01*
X152895238Y-100350057D02*
X152990476Y-100302438D01*
X152990476Y-100302438D02*
X153085714Y-100207200D01*
X153085714Y-100207200D02*
X153228571Y-100064342D01*
X153228571Y-100064342D02*
X153323809Y-100016723D01*
X153323809Y-100016723D02*
X153419047Y-100016723D01*
X153371428Y-100254819D02*
X153466666Y-100207200D01*
X153466666Y-100207200D02*
X153561904Y-100111961D01*
X153561904Y-100111961D02*
X153609523Y-99921485D01*
X153609523Y-99921485D02*
X153609523Y-99588152D01*
X153609523Y-99588152D02*
X153561904Y-99397676D01*
X153561904Y-99397676D02*
X153466666Y-99302438D01*
X153466666Y-99302438D02*
X153371428Y-99254819D01*
X153371428Y-99254819D02*
X153180952Y-99254819D01*
X153180952Y-99254819D02*
X153085714Y-99302438D01*
X153085714Y-99302438D02*
X152990476Y-99397676D01*
X152990476Y-99397676D02*
X152942857Y-99588152D01*
X152942857Y-99588152D02*
X152942857Y-99921485D01*
X152942857Y-99921485D02*
X152990476Y-100111961D01*
X152990476Y-100111961D02*
X153085714Y-100207200D01*
X153085714Y-100207200D02*
X153180952Y-100254819D01*
X153180952Y-100254819D02*
X153371428Y-100254819D01*
X152609523Y-99254819D02*
X151990476Y-99254819D01*
X151990476Y-99254819D02*
X152323809Y-99635771D01*
X152323809Y-99635771D02*
X152180952Y-99635771D01*
X152180952Y-99635771D02*
X152085714Y-99683390D01*
X152085714Y-99683390D02*
X152038095Y-99731009D01*
X152038095Y-99731009D02*
X151990476Y-99826247D01*
X151990476Y-99826247D02*
X151990476Y-100064342D01*
X151990476Y-100064342D02*
X152038095Y-100159580D01*
X152038095Y-100159580D02*
X152085714Y-100207200D01*
X152085714Y-100207200D02*
X152180952Y-100254819D01*
X152180952Y-100254819D02*
X152466666Y-100254819D01*
X152466666Y-100254819D02*
X152561904Y-100207200D01*
X152561904Y-100207200D02*
X152609523Y-100159580D01*
X156304819Y-113519642D02*
X155828628Y-113186309D01*
X156304819Y-112948214D02*
X155304819Y-112948214D01*
X155304819Y-112948214D02*
X155304819Y-113329166D01*
X155304819Y-113329166D02*
X155352438Y-113424404D01*
X155352438Y-113424404D02*
X155400057Y-113472023D01*
X155400057Y-113472023D02*
X155495295Y-113519642D01*
X155495295Y-113519642D02*
X155638152Y-113519642D01*
X155638152Y-113519642D02*
X155733390Y-113472023D01*
X155733390Y-113472023D02*
X155781009Y-113424404D01*
X155781009Y-113424404D02*
X155828628Y-113329166D01*
X155828628Y-113329166D02*
X155828628Y-112948214D01*
X156304819Y-114472023D02*
X156304819Y-113900595D01*
X156304819Y-114186309D02*
X155304819Y-114186309D01*
X155304819Y-114186309D02*
X155447676Y-114091071D01*
X155447676Y-114091071D02*
X155542914Y-113995833D01*
X155542914Y-113995833D02*
X155590533Y-113900595D01*
X155733390Y-115043452D02*
X155685771Y-114948214D01*
X155685771Y-114948214D02*
X155638152Y-114900595D01*
X155638152Y-114900595D02*
X155542914Y-114852976D01*
X155542914Y-114852976D02*
X155495295Y-114852976D01*
X155495295Y-114852976D02*
X155400057Y-114900595D01*
X155400057Y-114900595D02*
X155352438Y-114948214D01*
X155352438Y-114948214D02*
X155304819Y-115043452D01*
X155304819Y-115043452D02*
X155304819Y-115233928D01*
X155304819Y-115233928D02*
X155352438Y-115329166D01*
X155352438Y-115329166D02*
X155400057Y-115376785D01*
X155400057Y-115376785D02*
X155495295Y-115424404D01*
X155495295Y-115424404D02*
X155542914Y-115424404D01*
X155542914Y-115424404D02*
X155638152Y-115376785D01*
X155638152Y-115376785D02*
X155685771Y-115329166D01*
X155685771Y-115329166D02*
X155733390Y-115233928D01*
X155733390Y-115233928D02*
X155733390Y-115043452D01*
X155733390Y-115043452D02*
X155781009Y-114948214D01*
X155781009Y-114948214D02*
X155828628Y-114900595D01*
X155828628Y-114900595D02*
X155923866Y-114852976D01*
X155923866Y-114852976D02*
X156114342Y-114852976D01*
X156114342Y-114852976D02*
X156209580Y-114900595D01*
X156209580Y-114900595D02*
X156257200Y-114948214D01*
X156257200Y-114948214D02*
X156304819Y-115043452D01*
X156304819Y-115043452D02*
X156304819Y-115233928D01*
X156304819Y-115233928D02*
X156257200Y-115329166D01*
X156257200Y-115329166D02*
X156209580Y-115376785D01*
X156209580Y-115376785D02*
X156114342Y-115424404D01*
X156114342Y-115424404D02*
X155923866Y-115424404D01*
X155923866Y-115424404D02*
X155828628Y-115376785D01*
X155828628Y-115376785D02*
X155781009Y-115329166D01*
X155781009Y-115329166D02*
X155733390Y-115233928D01*
X151204819Y-113719642D02*
X150728628Y-113386309D01*
X151204819Y-113148214D02*
X150204819Y-113148214D01*
X150204819Y-113148214D02*
X150204819Y-113529166D01*
X150204819Y-113529166D02*
X150252438Y-113624404D01*
X150252438Y-113624404D02*
X150300057Y-113672023D01*
X150300057Y-113672023D02*
X150395295Y-113719642D01*
X150395295Y-113719642D02*
X150538152Y-113719642D01*
X150538152Y-113719642D02*
X150633390Y-113672023D01*
X150633390Y-113672023D02*
X150681009Y-113624404D01*
X150681009Y-113624404D02*
X150728628Y-113529166D01*
X150728628Y-113529166D02*
X150728628Y-113148214D01*
X151204819Y-114672023D02*
X151204819Y-114100595D01*
X151204819Y-114386309D02*
X150204819Y-114386309D01*
X150204819Y-114386309D02*
X150347676Y-114291071D01*
X150347676Y-114291071D02*
X150442914Y-114195833D01*
X150442914Y-114195833D02*
X150490533Y-114100595D01*
X151204819Y-115624404D02*
X151204819Y-115052976D01*
X151204819Y-115338690D02*
X150204819Y-115338690D01*
X150204819Y-115338690D02*
X150347676Y-115243452D01*
X150347676Y-115243452D02*
X150442914Y-115148214D01*
X150442914Y-115148214D02*
X150490533Y-115052976D01*
X154495238Y-85350057D02*
X154590476Y-85302438D01*
X154590476Y-85302438D02*
X154685714Y-85207200D01*
X154685714Y-85207200D02*
X154828571Y-85064342D01*
X154828571Y-85064342D02*
X154923809Y-85016723D01*
X154923809Y-85016723D02*
X155019047Y-85016723D01*
X154971428Y-85254819D02*
X155066666Y-85207200D01*
X155066666Y-85207200D02*
X155161904Y-85111961D01*
X155161904Y-85111961D02*
X155209523Y-84921485D01*
X155209523Y-84921485D02*
X155209523Y-84588152D01*
X155209523Y-84588152D02*
X155161904Y-84397676D01*
X155161904Y-84397676D02*
X155066666Y-84302438D01*
X155066666Y-84302438D02*
X154971428Y-84254819D01*
X154971428Y-84254819D02*
X154780952Y-84254819D01*
X154780952Y-84254819D02*
X154685714Y-84302438D01*
X154685714Y-84302438D02*
X154590476Y-84397676D01*
X154590476Y-84397676D02*
X154542857Y-84588152D01*
X154542857Y-84588152D02*
X154542857Y-84921485D01*
X154542857Y-84921485D02*
X154590476Y-85111961D01*
X154590476Y-85111961D02*
X154685714Y-85207200D01*
X154685714Y-85207200D02*
X154780952Y-85254819D01*
X154780952Y-85254819D02*
X154971428Y-85254819D01*
X154209523Y-84254819D02*
X153542857Y-84254819D01*
X153542857Y-84254819D02*
X153971428Y-85254819D01*
X156254819Y-90557142D02*
X155778628Y-90223809D01*
X156254819Y-89985714D02*
X155254819Y-89985714D01*
X155254819Y-89985714D02*
X155254819Y-90366666D01*
X155254819Y-90366666D02*
X155302438Y-90461904D01*
X155302438Y-90461904D02*
X155350057Y-90509523D01*
X155350057Y-90509523D02*
X155445295Y-90557142D01*
X155445295Y-90557142D02*
X155588152Y-90557142D01*
X155588152Y-90557142D02*
X155683390Y-90509523D01*
X155683390Y-90509523D02*
X155731009Y-90461904D01*
X155731009Y-90461904D02*
X155778628Y-90366666D01*
X155778628Y-90366666D02*
X155778628Y-89985714D01*
X156254819Y-91509523D02*
X156254819Y-90938095D01*
X156254819Y-91223809D02*
X155254819Y-91223809D01*
X155254819Y-91223809D02*
X155397676Y-91128571D01*
X155397676Y-91128571D02*
X155492914Y-91033333D01*
X155492914Y-91033333D02*
X155540533Y-90938095D01*
X155254819Y-92128571D02*
X155254819Y-92223809D01*
X155254819Y-92223809D02*
X155302438Y-92319047D01*
X155302438Y-92319047D02*
X155350057Y-92366666D01*
X155350057Y-92366666D02*
X155445295Y-92414285D01*
X155445295Y-92414285D02*
X155635771Y-92461904D01*
X155635771Y-92461904D02*
X155873866Y-92461904D01*
X155873866Y-92461904D02*
X156064342Y-92414285D01*
X156064342Y-92414285D02*
X156159580Y-92366666D01*
X156159580Y-92366666D02*
X156207200Y-92319047D01*
X156207200Y-92319047D02*
X156254819Y-92223809D01*
X156254819Y-92223809D02*
X156254819Y-92128571D01*
X156254819Y-92128571D02*
X156207200Y-92033333D01*
X156207200Y-92033333D02*
X156159580Y-91985714D01*
X156159580Y-91985714D02*
X156064342Y-91938095D01*
X156064342Y-91938095D02*
X155873866Y-91890476D01*
X155873866Y-91890476D02*
X155635771Y-91890476D01*
X155635771Y-91890476D02*
X155445295Y-91938095D01*
X155445295Y-91938095D02*
X155350057Y-91985714D01*
X155350057Y-91985714D02*
X155302438Y-92033333D01*
X155302438Y-92033333D02*
X155254819Y-92128571D01*
X153754819Y-113719642D02*
X153278628Y-113386309D01*
X153754819Y-113148214D02*
X152754819Y-113148214D01*
X152754819Y-113148214D02*
X152754819Y-113529166D01*
X152754819Y-113529166D02*
X152802438Y-113624404D01*
X152802438Y-113624404D02*
X152850057Y-113672023D01*
X152850057Y-113672023D02*
X152945295Y-113719642D01*
X152945295Y-113719642D02*
X153088152Y-113719642D01*
X153088152Y-113719642D02*
X153183390Y-113672023D01*
X153183390Y-113672023D02*
X153231009Y-113624404D01*
X153231009Y-113624404D02*
X153278628Y-113529166D01*
X153278628Y-113529166D02*
X153278628Y-113148214D01*
X153754819Y-114672023D02*
X153754819Y-114100595D01*
X153754819Y-114386309D02*
X152754819Y-114386309D01*
X152754819Y-114386309D02*
X152897676Y-114291071D01*
X152897676Y-114291071D02*
X152992914Y-114195833D01*
X152992914Y-114195833D02*
X153040533Y-114100595D01*
X152754819Y-115576785D02*
X152754819Y-115100595D01*
X152754819Y-115100595D02*
X153231009Y-115052976D01*
X153231009Y-115052976D02*
X153183390Y-115100595D01*
X153183390Y-115100595D02*
X153135771Y-115195833D01*
X153135771Y-115195833D02*
X153135771Y-115433928D01*
X153135771Y-115433928D02*
X153183390Y-115529166D01*
X153183390Y-115529166D02*
X153231009Y-115576785D01*
X153231009Y-115576785D02*
X153326247Y-115624404D01*
X153326247Y-115624404D02*
X153564342Y-115624404D01*
X153564342Y-115624404D02*
X153659580Y-115576785D01*
X153659580Y-115576785D02*
X153707200Y-115529166D01*
X153707200Y-115529166D02*
X153754819Y-115433928D01*
X153754819Y-115433928D02*
X153754819Y-115195833D01*
X153754819Y-115195833D02*
X153707200Y-115100595D01*
X153707200Y-115100595D02*
X153659580Y-115052976D01*
X153714819Y-90532142D02*
X153238628Y-90198809D01*
X153714819Y-89960714D02*
X152714819Y-89960714D01*
X152714819Y-89960714D02*
X152714819Y-90341666D01*
X152714819Y-90341666D02*
X152762438Y-90436904D01*
X152762438Y-90436904D02*
X152810057Y-90484523D01*
X152810057Y-90484523D02*
X152905295Y-90532142D01*
X152905295Y-90532142D02*
X153048152Y-90532142D01*
X153048152Y-90532142D02*
X153143390Y-90484523D01*
X153143390Y-90484523D02*
X153191009Y-90436904D01*
X153191009Y-90436904D02*
X153238628Y-90341666D01*
X153238628Y-90341666D02*
X153238628Y-89960714D01*
X153714819Y-91484523D02*
X153714819Y-90913095D01*
X153714819Y-91198809D02*
X152714819Y-91198809D01*
X152714819Y-91198809D02*
X152857676Y-91103571D01*
X152857676Y-91103571D02*
X152952914Y-91008333D01*
X152952914Y-91008333D02*
X153000533Y-90913095D01*
X152714819Y-91817857D02*
X152714819Y-92484523D01*
X152714819Y-92484523D02*
X153714819Y-92055952D01*
X148584819Y-90532142D02*
X148108628Y-90198809D01*
X148584819Y-89960714D02*
X147584819Y-89960714D01*
X147584819Y-89960714D02*
X147584819Y-90341666D01*
X147584819Y-90341666D02*
X147632438Y-90436904D01*
X147632438Y-90436904D02*
X147680057Y-90484523D01*
X147680057Y-90484523D02*
X147775295Y-90532142D01*
X147775295Y-90532142D02*
X147918152Y-90532142D01*
X147918152Y-90532142D02*
X148013390Y-90484523D01*
X148013390Y-90484523D02*
X148061009Y-90436904D01*
X148061009Y-90436904D02*
X148108628Y-90341666D01*
X148108628Y-90341666D02*
X148108628Y-89960714D01*
X148584819Y-91484523D02*
X148584819Y-90913095D01*
X148584819Y-91198809D02*
X147584819Y-91198809D01*
X147584819Y-91198809D02*
X147727676Y-91103571D01*
X147727676Y-91103571D02*
X147822914Y-91008333D01*
X147822914Y-91008333D02*
X147870533Y-90913095D01*
X147918152Y-92341666D02*
X148584819Y-92341666D01*
X147537200Y-92103571D02*
X148251485Y-91865476D01*
X148251485Y-91865476D02*
X148251485Y-92484523D01*
X146054819Y-90633333D02*
X145578628Y-90300000D01*
X146054819Y-90061905D02*
X145054819Y-90061905D01*
X145054819Y-90061905D02*
X145054819Y-90442857D01*
X145054819Y-90442857D02*
X145102438Y-90538095D01*
X145102438Y-90538095D02*
X145150057Y-90585714D01*
X145150057Y-90585714D02*
X145245295Y-90633333D01*
X145245295Y-90633333D02*
X145388152Y-90633333D01*
X145388152Y-90633333D02*
X145483390Y-90585714D01*
X145483390Y-90585714D02*
X145531009Y-90538095D01*
X145531009Y-90538095D02*
X145578628Y-90442857D01*
X145578628Y-90442857D02*
X145578628Y-90061905D01*
X146054819Y-91109524D02*
X146054819Y-91300000D01*
X146054819Y-91300000D02*
X146007200Y-91395238D01*
X146007200Y-91395238D02*
X145959580Y-91442857D01*
X145959580Y-91442857D02*
X145816723Y-91538095D01*
X145816723Y-91538095D02*
X145626247Y-91585714D01*
X145626247Y-91585714D02*
X145245295Y-91585714D01*
X145245295Y-91585714D02*
X145150057Y-91538095D01*
X145150057Y-91538095D02*
X145102438Y-91490476D01*
X145102438Y-91490476D02*
X145054819Y-91395238D01*
X145054819Y-91395238D02*
X145054819Y-91204762D01*
X145054819Y-91204762D02*
X145102438Y-91109524D01*
X145102438Y-91109524D02*
X145150057Y-91061905D01*
X145150057Y-91061905D02*
X145245295Y-91014286D01*
X145245295Y-91014286D02*
X145483390Y-91014286D01*
X145483390Y-91014286D02*
X145578628Y-91061905D01*
X145578628Y-91061905D02*
X145626247Y-91109524D01*
X145626247Y-91109524D02*
X145673866Y-91204762D01*
X145673866Y-91204762D02*
X145673866Y-91395238D01*
X145673866Y-91395238D02*
X145626247Y-91490476D01*
X145626247Y-91490476D02*
X145578628Y-91538095D01*
X145578628Y-91538095D02*
X145483390Y-91585714D01*
X148295238Y-100350057D02*
X148390476Y-100302438D01*
X148390476Y-100302438D02*
X148485714Y-100207200D01*
X148485714Y-100207200D02*
X148628571Y-100064342D01*
X148628571Y-100064342D02*
X148723809Y-100016723D01*
X148723809Y-100016723D02*
X148819047Y-100016723D01*
X148771428Y-100254819D02*
X148866666Y-100207200D01*
X148866666Y-100207200D02*
X148961904Y-100111961D01*
X148961904Y-100111961D02*
X149009523Y-99921485D01*
X149009523Y-99921485D02*
X149009523Y-99588152D01*
X149009523Y-99588152D02*
X148961904Y-99397676D01*
X148961904Y-99397676D02*
X148866666Y-99302438D01*
X148866666Y-99302438D02*
X148771428Y-99254819D01*
X148771428Y-99254819D02*
X148580952Y-99254819D01*
X148580952Y-99254819D02*
X148485714Y-99302438D01*
X148485714Y-99302438D02*
X148390476Y-99397676D01*
X148390476Y-99397676D02*
X148342857Y-99588152D01*
X148342857Y-99588152D02*
X148342857Y-99921485D01*
X148342857Y-99921485D02*
X148390476Y-100111961D01*
X148390476Y-100111961D02*
X148485714Y-100207200D01*
X148485714Y-100207200D02*
X148580952Y-100254819D01*
X148580952Y-100254819D02*
X148771428Y-100254819D01*
X147485714Y-99254819D02*
X147676190Y-99254819D01*
X147676190Y-99254819D02*
X147771428Y-99302438D01*
X147771428Y-99302438D02*
X147819047Y-99350057D01*
X147819047Y-99350057D02*
X147914285Y-99492914D01*
X147914285Y-99492914D02*
X147961904Y-99683390D01*
X147961904Y-99683390D02*
X147961904Y-100064342D01*
X147961904Y-100064342D02*
X147914285Y-100159580D01*
X147914285Y-100159580D02*
X147866666Y-100207200D01*
X147866666Y-100207200D02*
X147771428Y-100254819D01*
X147771428Y-100254819D02*
X147580952Y-100254819D01*
X147580952Y-100254819D02*
X147485714Y-100207200D01*
X147485714Y-100207200D02*
X147438095Y-100159580D01*
X147438095Y-100159580D02*
X147390476Y-100064342D01*
X147390476Y-100064342D02*
X147390476Y-99826247D01*
X147390476Y-99826247D02*
X147438095Y-99731009D01*
X147438095Y-99731009D02*
X147485714Y-99683390D01*
X147485714Y-99683390D02*
X147580952Y-99635771D01*
X147580952Y-99635771D02*
X147771428Y-99635771D01*
X147771428Y-99635771D02*
X147866666Y-99683390D01*
X147866666Y-99683390D02*
X147914285Y-99731009D01*
X147914285Y-99731009D02*
X147961904Y-99826247D01*
X129509580Y-99363333D02*
X129557200Y-99315714D01*
X129557200Y-99315714D02*
X129604819Y-99172857D01*
X129604819Y-99172857D02*
X129604819Y-99077619D01*
X129604819Y-99077619D02*
X129557200Y-98934762D01*
X129557200Y-98934762D02*
X129461961Y-98839524D01*
X129461961Y-98839524D02*
X129366723Y-98791905D01*
X129366723Y-98791905D02*
X129176247Y-98744286D01*
X129176247Y-98744286D02*
X129033390Y-98744286D01*
X129033390Y-98744286D02*
X128842914Y-98791905D01*
X128842914Y-98791905D02*
X128747676Y-98839524D01*
X128747676Y-98839524D02*
X128652438Y-98934762D01*
X128652438Y-98934762D02*
X128604819Y-99077619D01*
X128604819Y-99077619D02*
X128604819Y-99172857D01*
X128604819Y-99172857D02*
X128652438Y-99315714D01*
X128652438Y-99315714D02*
X128700057Y-99363333D01*
X128604819Y-99696667D02*
X128604819Y-100315714D01*
X128604819Y-100315714D02*
X128985771Y-99982381D01*
X128985771Y-99982381D02*
X128985771Y-100125238D01*
X128985771Y-100125238D02*
X129033390Y-100220476D01*
X129033390Y-100220476D02*
X129081009Y-100268095D01*
X129081009Y-100268095D02*
X129176247Y-100315714D01*
X129176247Y-100315714D02*
X129414342Y-100315714D01*
X129414342Y-100315714D02*
X129509580Y-100268095D01*
X129509580Y-100268095D02*
X129557200Y-100220476D01*
X129557200Y-100220476D02*
X129604819Y-100125238D01*
X129604819Y-100125238D02*
X129604819Y-99839524D01*
X129604819Y-99839524D02*
X129557200Y-99744286D01*
X129557200Y-99744286D02*
X129509580Y-99696667D01*
X149554819Y-87133333D02*
X149078628Y-86800000D01*
X149554819Y-86561905D02*
X148554819Y-86561905D01*
X148554819Y-86561905D02*
X148554819Y-86942857D01*
X148554819Y-86942857D02*
X148602438Y-87038095D01*
X148602438Y-87038095D02*
X148650057Y-87085714D01*
X148650057Y-87085714D02*
X148745295Y-87133333D01*
X148745295Y-87133333D02*
X148888152Y-87133333D01*
X148888152Y-87133333D02*
X148983390Y-87085714D01*
X148983390Y-87085714D02*
X149031009Y-87038095D01*
X149031009Y-87038095D02*
X149078628Y-86942857D01*
X149078628Y-86942857D02*
X149078628Y-86561905D01*
X148888152Y-87990476D02*
X149554819Y-87990476D01*
X148507200Y-87752381D02*
X149221485Y-87514286D01*
X149221485Y-87514286D02*
X149221485Y-88133333D01*
X157295238Y-100350057D02*
X157390476Y-100302438D01*
X157390476Y-100302438D02*
X157485714Y-100207200D01*
X157485714Y-100207200D02*
X157628571Y-100064342D01*
X157628571Y-100064342D02*
X157723809Y-100016723D01*
X157723809Y-100016723D02*
X157819047Y-100016723D01*
X157771428Y-100254819D02*
X157866666Y-100207200D01*
X157866666Y-100207200D02*
X157961904Y-100111961D01*
X157961904Y-100111961D02*
X158009523Y-99921485D01*
X158009523Y-99921485D02*
X158009523Y-99588152D01*
X158009523Y-99588152D02*
X157961904Y-99397676D01*
X157961904Y-99397676D02*
X157866666Y-99302438D01*
X157866666Y-99302438D02*
X157771428Y-99254819D01*
X157771428Y-99254819D02*
X157580952Y-99254819D01*
X157580952Y-99254819D02*
X157485714Y-99302438D01*
X157485714Y-99302438D02*
X157390476Y-99397676D01*
X157390476Y-99397676D02*
X157342857Y-99588152D01*
X157342857Y-99588152D02*
X157342857Y-99921485D01*
X157342857Y-99921485D02*
X157390476Y-100111961D01*
X157390476Y-100111961D02*
X157485714Y-100207200D01*
X157485714Y-100207200D02*
X157580952Y-100254819D01*
X157580952Y-100254819D02*
X157771428Y-100254819D01*
X156961904Y-99350057D02*
X156914285Y-99302438D01*
X156914285Y-99302438D02*
X156819047Y-99254819D01*
X156819047Y-99254819D02*
X156580952Y-99254819D01*
X156580952Y-99254819D02*
X156485714Y-99302438D01*
X156485714Y-99302438D02*
X156438095Y-99350057D01*
X156438095Y-99350057D02*
X156390476Y-99445295D01*
X156390476Y-99445295D02*
X156390476Y-99540533D01*
X156390476Y-99540533D02*
X156438095Y-99683390D01*
X156438095Y-99683390D02*
X157009523Y-100254819D01*
X157009523Y-100254819D02*
X156390476Y-100254819D01*
X143554819Y-113757142D02*
X143078628Y-113423809D01*
X143554819Y-113185714D02*
X142554819Y-113185714D01*
X142554819Y-113185714D02*
X142554819Y-113566666D01*
X142554819Y-113566666D02*
X142602438Y-113661904D01*
X142602438Y-113661904D02*
X142650057Y-113709523D01*
X142650057Y-113709523D02*
X142745295Y-113757142D01*
X142745295Y-113757142D02*
X142888152Y-113757142D01*
X142888152Y-113757142D02*
X142983390Y-113709523D01*
X142983390Y-113709523D02*
X143031009Y-113661904D01*
X143031009Y-113661904D02*
X143078628Y-113566666D01*
X143078628Y-113566666D02*
X143078628Y-113185714D01*
X143554819Y-114709523D02*
X143554819Y-114138095D01*
X143554819Y-114423809D02*
X142554819Y-114423809D01*
X142554819Y-114423809D02*
X142697676Y-114328571D01*
X142697676Y-114328571D02*
X142792914Y-114233333D01*
X142792914Y-114233333D02*
X142840533Y-114138095D01*
X142554819Y-115042857D02*
X142554819Y-115661904D01*
X142554819Y-115661904D02*
X142935771Y-115328571D01*
X142935771Y-115328571D02*
X142935771Y-115471428D01*
X142935771Y-115471428D02*
X142983390Y-115566666D01*
X142983390Y-115566666D02*
X143031009Y-115614285D01*
X143031009Y-115614285D02*
X143126247Y-115661904D01*
X143126247Y-115661904D02*
X143364342Y-115661904D01*
X143364342Y-115661904D02*
X143459580Y-115614285D01*
X143459580Y-115614285D02*
X143507200Y-115566666D01*
X143507200Y-115566666D02*
X143554819Y-115471428D01*
X143554819Y-115471428D02*
X143554819Y-115185714D01*
X143554819Y-115185714D02*
X143507200Y-115090476D01*
X143507200Y-115090476D02*
X143459580Y-115042857D01*
X123761904Y-89584819D02*
X123761904Y-90394342D01*
X123761904Y-90394342D02*
X123714285Y-90489580D01*
X123714285Y-90489580D02*
X123666666Y-90537200D01*
X123666666Y-90537200D02*
X123571428Y-90584819D01*
X123571428Y-90584819D02*
X123380952Y-90584819D01*
X123380952Y-90584819D02*
X123285714Y-90537200D01*
X123285714Y-90537200D02*
X123238095Y-90489580D01*
X123238095Y-90489580D02*
X123190476Y-90394342D01*
X123190476Y-90394342D02*
X123190476Y-89584819D01*
X122761904Y-89680057D02*
X122714285Y-89632438D01*
X122714285Y-89632438D02*
X122619047Y-89584819D01*
X122619047Y-89584819D02*
X122380952Y-89584819D01*
X122380952Y-89584819D02*
X122285714Y-89632438D01*
X122285714Y-89632438D02*
X122238095Y-89680057D01*
X122238095Y-89680057D02*
X122190476Y-89775295D01*
X122190476Y-89775295D02*
X122190476Y-89870533D01*
X122190476Y-89870533D02*
X122238095Y-90013390D01*
X122238095Y-90013390D02*
X122809523Y-90584819D01*
X122809523Y-90584819D02*
X122190476Y-90584819D01*
X146104819Y-113719642D02*
X145628628Y-113386309D01*
X146104819Y-113148214D02*
X145104819Y-113148214D01*
X145104819Y-113148214D02*
X145104819Y-113529166D01*
X145104819Y-113529166D02*
X145152438Y-113624404D01*
X145152438Y-113624404D02*
X145200057Y-113672023D01*
X145200057Y-113672023D02*
X145295295Y-113719642D01*
X145295295Y-113719642D02*
X145438152Y-113719642D01*
X145438152Y-113719642D02*
X145533390Y-113672023D01*
X145533390Y-113672023D02*
X145581009Y-113624404D01*
X145581009Y-113624404D02*
X145628628Y-113529166D01*
X145628628Y-113529166D02*
X145628628Y-113148214D01*
X146104819Y-114672023D02*
X146104819Y-114100595D01*
X146104819Y-114386309D02*
X145104819Y-114386309D01*
X145104819Y-114386309D02*
X145247676Y-114291071D01*
X145247676Y-114291071D02*
X145342914Y-114195833D01*
X145342914Y-114195833D02*
X145390533Y-114100595D01*
X145200057Y-115052976D02*
X145152438Y-115100595D01*
X145152438Y-115100595D02*
X145104819Y-115195833D01*
X145104819Y-115195833D02*
X145104819Y-115433928D01*
X145104819Y-115433928D02*
X145152438Y-115529166D01*
X145152438Y-115529166D02*
X145200057Y-115576785D01*
X145200057Y-115576785D02*
X145295295Y-115624404D01*
X145295295Y-115624404D02*
X145390533Y-115624404D01*
X145390533Y-115624404D02*
X145533390Y-115576785D01*
X145533390Y-115576785D02*
X146104819Y-115005357D01*
X146104819Y-115005357D02*
X146104819Y-115624404D01*
X161554819Y-88036905D02*
X160554819Y-88036905D01*
X160554819Y-88036905D02*
X160554819Y-88275000D01*
X160554819Y-88275000D02*
X160602438Y-88417857D01*
X160602438Y-88417857D02*
X160697676Y-88513095D01*
X160697676Y-88513095D02*
X160792914Y-88560714D01*
X160792914Y-88560714D02*
X160983390Y-88608333D01*
X160983390Y-88608333D02*
X161126247Y-88608333D01*
X161126247Y-88608333D02*
X161316723Y-88560714D01*
X161316723Y-88560714D02*
X161411961Y-88513095D01*
X161411961Y-88513095D02*
X161507200Y-88417857D01*
X161507200Y-88417857D02*
X161554819Y-88275000D01*
X161554819Y-88275000D02*
X161554819Y-88036905D01*
X160554819Y-89513095D02*
X160554819Y-89036905D01*
X160554819Y-89036905D02*
X161031009Y-88989286D01*
X161031009Y-88989286D02*
X160983390Y-89036905D01*
X160983390Y-89036905D02*
X160935771Y-89132143D01*
X160935771Y-89132143D02*
X160935771Y-89370238D01*
X160935771Y-89370238D02*
X160983390Y-89465476D01*
X160983390Y-89465476D02*
X161031009Y-89513095D01*
X161031009Y-89513095D02*
X161126247Y-89560714D01*
X161126247Y-89560714D02*
X161364342Y-89560714D01*
X161364342Y-89560714D02*
X161459580Y-89513095D01*
X161459580Y-89513095D02*
X161507200Y-89465476D01*
X161507200Y-89465476D02*
X161554819Y-89370238D01*
X161554819Y-89370238D02*
X161554819Y-89132143D01*
X161554819Y-89132143D02*
X161507200Y-89036905D01*
X161507200Y-89036905D02*
X161459580Y-88989286D01*
X140966666Y-100689580D02*
X141014285Y-100737200D01*
X141014285Y-100737200D02*
X141157142Y-100784819D01*
X141157142Y-100784819D02*
X141252380Y-100784819D01*
X141252380Y-100784819D02*
X141395237Y-100737200D01*
X141395237Y-100737200D02*
X141490475Y-100641961D01*
X141490475Y-100641961D02*
X141538094Y-100546723D01*
X141538094Y-100546723D02*
X141585713Y-100356247D01*
X141585713Y-100356247D02*
X141585713Y-100213390D01*
X141585713Y-100213390D02*
X141538094Y-100022914D01*
X141538094Y-100022914D02*
X141490475Y-99927676D01*
X141490475Y-99927676D02*
X141395237Y-99832438D01*
X141395237Y-99832438D02*
X141252380Y-99784819D01*
X141252380Y-99784819D02*
X141157142Y-99784819D01*
X141157142Y-99784819D02*
X141014285Y-99832438D01*
X141014285Y-99832438D02*
X140966666Y-99880057D01*
X140061904Y-99784819D02*
X140538094Y-99784819D01*
X140538094Y-99784819D02*
X140585713Y-100261009D01*
X140585713Y-100261009D02*
X140538094Y-100213390D01*
X140538094Y-100213390D02*
X140442856Y-100165771D01*
X140442856Y-100165771D02*
X140204761Y-100165771D01*
X140204761Y-100165771D02*
X140109523Y-100213390D01*
X140109523Y-100213390D02*
X140061904Y-100261009D01*
X140061904Y-100261009D02*
X140014285Y-100356247D01*
X140014285Y-100356247D02*
X140014285Y-100594342D01*
X140014285Y-100594342D02*
X140061904Y-100689580D01*
X140061904Y-100689580D02*
X140109523Y-100737200D01*
X140109523Y-100737200D02*
X140204761Y-100784819D01*
X140204761Y-100784819D02*
X140442856Y-100784819D01*
X140442856Y-100784819D02*
X140538094Y-100737200D01*
X140538094Y-100737200D02*
X140585713Y-100689580D01*
X122463588Y-111172112D02*
X122463588Y-111239456D01*
X122463588Y-111239456D02*
X122530932Y-111374143D01*
X122530932Y-111374143D02*
X122598275Y-111441486D01*
X122598275Y-111441486D02*
X122732962Y-111508830D01*
X122732962Y-111508830D02*
X122867649Y-111508830D01*
X122867649Y-111508830D02*
X122968664Y-111475158D01*
X122968664Y-111475158D02*
X123137023Y-111374143D01*
X123137023Y-111374143D02*
X123238038Y-111273128D01*
X123238038Y-111273128D02*
X123339054Y-111104769D01*
X123339054Y-111104769D02*
X123372725Y-111003754D01*
X123372725Y-111003754D02*
X123372725Y-110869067D01*
X123372725Y-110869067D02*
X123305382Y-110734380D01*
X123305382Y-110734380D02*
X123238038Y-110667036D01*
X123238038Y-110667036D02*
X123103351Y-110599693D01*
X123103351Y-110599693D02*
X123036008Y-110599693D01*
X122261558Y-110161960D02*
X121790153Y-110633364D01*
X122699290Y-110060945D02*
X122362573Y-110734380D01*
X122362573Y-110734380D02*
X121924840Y-110296647D01*
X151174819Y-90532142D02*
X150698628Y-90198809D01*
X151174819Y-89960714D02*
X150174819Y-89960714D01*
X150174819Y-89960714D02*
X150174819Y-90341666D01*
X150174819Y-90341666D02*
X150222438Y-90436904D01*
X150222438Y-90436904D02*
X150270057Y-90484523D01*
X150270057Y-90484523D02*
X150365295Y-90532142D01*
X150365295Y-90532142D02*
X150508152Y-90532142D01*
X150508152Y-90532142D02*
X150603390Y-90484523D01*
X150603390Y-90484523D02*
X150651009Y-90436904D01*
X150651009Y-90436904D02*
X150698628Y-90341666D01*
X150698628Y-90341666D02*
X150698628Y-89960714D01*
X151174819Y-91484523D02*
X151174819Y-90913095D01*
X151174819Y-91198809D02*
X150174819Y-91198809D01*
X150174819Y-91198809D02*
X150317676Y-91103571D01*
X150317676Y-91103571D02*
X150412914Y-91008333D01*
X150412914Y-91008333D02*
X150460533Y-90913095D01*
X151174819Y-91960714D02*
X151174819Y-92151190D01*
X151174819Y-92151190D02*
X151127200Y-92246428D01*
X151127200Y-92246428D02*
X151079580Y-92294047D01*
X151079580Y-92294047D02*
X150936723Y-92389285D01*
X150936723Y-92389285D02*
X150746247Y-92436904D01*
X150746247Y-92436904D02*
X150365295Y-92436904D01*
X150365295Y-92436904D02*
X150270057Y-92389285D01*
X150270057Y-92389285D02*
X150222438Y-92341666D01*
X150222438Y-92341666D02*
X150174819Y-92246428D01*
X150174819Y-92246428D02*
X150174819Y-92055952D01*
X150174819Y-92055952D02*
X150222438Y-91960714D01*
X150222438Y-91960714D02*
X150270057Y-91913095D01*
X150270057Y-91913095D02*
X150365295Y-91865476D01*
X150365295Y-91865476D02*
X150603390Y-91865476D01*
X150603390Y-91865476D02*
X150698628Y-91913095D01*
X150698628Y-91913095D02*
X150746247Y-91960714D01*
X150746247Y-91960714D02*
X150793866Y-92055952D01*
X150793866Y-92055952D02*
X150793866Y-92246428D01*
X150793866Y-92246428D02*
X150746247Y-92341666D01*
X150746247Y-92341666D02*
X150698628Y-92389285D01*
X150698628Y-92389285D02*
X150603390Y-92436904D01*
X144045238Y-100350057D02*
X144140476Y-100302438D01*
X144140476Y-100302438D02*
X144235714Y-100207200D01*
X144235714Y-100207200D02*
X144378571Y-100064342D01*
X144378571Y-100064342D02*
X144473809Y-100016723D01*
X144473809Y-100016723D02*
X144569047Y-100016723D01*
X144521428Y-100254819D02*
X144616666Y-100207200D01*
X144616666Y-100207200D02*
X144711904Y-100111961D01*
X144711904Y-100111961D02*
X144759523Y-99921485D01*
X144759523Y-99921485D02*
X144759523Y-99588152D01*
X144759523Y-99588152D02*
X144711904Y-99397676D01*
X144711904Y-99397676D02*
X144616666Y-99302438D01*
X144616666Y-99302438D02*
X144521428Y-99254819D01*
X144521428Y-99254819D02*
X144330952Y-99254819D01*
X144330952Y-99254819D02*
X144235714Y-99302438D01*
X144235714Y-99302438D02*
X144140476Y-99397676D01*
X144140476Y-99397676D02*
X144092857Y-99588152D01*
X144092857Y-99588152D02*
X144092857Y-99921485D01*
X144092857Y-99921485D02*
X144140476Y-100111961D01*
X144140476Y-100111961D02*
X144235714Y-100207200D01*
X144235714Y-100207200D02*
X144330952Y-100254819D01*
X144330952Y-100254819D02*
X144521428Y-100254819D01*
X143235714Y-99588152D02*
X143235714Y-100254819D01*
X143473809Y-99207200D02*
X143711904Y-99921485D01*
X143711904Y-99921485D02*
X143092857Y-99921485D01*
X143554819Y-90644642D02*
X143078628Y-90311309D01*
X143554819Y-90073214D02*
X142554819Y-90073214D01*
X142554819Y-90073214D02*
X142554819Y-90454166D01*
X142554819Y-90454166D02*
X142602438Y-90549404D01*
X142602438Y-90549404D02*
X142650057Y-90597023D01*
X142650057Y-90597023D02*
X142745295Y-90644642D01*
X142745295Y-90644642D02*
X142888152Y-90644642D01*
X142888152Y-90644642D02*
X142983390Y-90597023D01*
X142983390Y-90597023D02*
X143031009Y-90549404D01*
X143031009Y-90549404D02*
X143078628Y-90454166D01*
X143078628Y-90454166D02*
X143078628Y-90073214D01*
X142650057Y-91025595D02*
X142602438Y-91073214D01*
X142602438Y-91073214D02*
X142554819Y-91168452D01*
X142554819Y-91168452D02*
X142554819Y-91406547D01*
X142554819Y-91406547D02*
X142602438Y-91501785D01*
X142602438Y-91501785D02*
X142650057Y-91549404D01*
X142650057Y-91549404D02*
X142745295Y-91597023D01*
X142745295Y-91597023D02*
X142840533Y-91597023D01*
X142840533Y-91597023D02*
X142983390Y-91549404D01*
X142983390Y-91549404D02*
X143554819Y-90977976D01*
X143554819Y-90977976D02*
X143554819Y-91597023D01*
X142554819Y-92216071D02*
X142554819Y-92311309D01*
X142554819Y-92311309D02*
X142602438Y-92406547D01*
X142602438Y-92406547D02*
X142650057Y-92454166D01*
X142650057Y-92454166D02*
X142745295Y-92501785D01*
X142745295Y-92501785D02*
X142935771Y-92549404D01*
X142935771Y-92549404D02*
X143173866Y-92549404D01*
X143173866Y-92549404D02*
X143364342Y-92501785D01*
X143364342Y-92501785D02*
X143459580Y-92454166D01*
X143459580Y-92454166D02*
X143507200Y-92406547D01*
X143507200Y-92406547D02*
X143554819Y-92311309D01*
X143554819Y-92311309D02*
X143554819Y-92216071D01*
X143554819Y-92216071D02*
X143507200Y-92120833D01*
X143507200Y-92120833D02*
X143459580Y-92073214D01*
X143459580Y-92073214D02*
X143364342Y-92025595D01*
X143364342Y-92025595D02*
X143173866Y-91977976D01*
X143173866Y-91977976D02*
X142935771Y-91977976D01*
X142935771Y-91977976D02*
X142745295Y-92025595D01*
X142745295Y-92025595D02*
X142650057Y-92073214D01*
X142650057Y-92073214D02*
X142602438Y-92120833D01*
X142602438Y-92120833D02*
X142554819Y-92216071D01*
X148654819Y-113719642D02*
X148178628Y-113386309D01*
X148654819Y-113148214D02*
X147654819Y-113148214D01*
X147654819Y-113148214D02*
X147654819Y-113529166D01*
X147654819Y-113529166D02*
X147702438Y-113624404D01*
X147702438Y-113624404D02*
X147750057Y-113672023D01*
X147750057Y-113672023D02*
X147845295Y-113719642D01*
X147845295Y-113719642D02*
X147988152Y-113719642D01*
X147988152Y-113719642D02*
X148083390Y-113672023D01*
X148083390Y-113672023D02*
X148131009Y-113624404D01*
X148131009Y-113624404D02*
X148178628Y-113529166D01*
X148178628Y-113529166D02*
X148178628Y-113148214D01*
X148654819Y-114672023D02*
X148654819Y-114100595D01*
X148654819Y-114386309D02*
X147654819Y-114386309D01*
X147654819Y-114386309D02*
X147797676Y-114291071D01*
X147797676Y-114291071D02*
X147892914Y-114195833D01*
X147892914Y-114195833D02*
X147940533Y-114100595D01*
X147654819Y-115529166D02*
X147654819Y-115338690D01*
X147654819Y-115338690D02*
X147702438Y-115243452D01*
X147702438Y-115243452D02*
X147750057Y-115195833D01*
X147750057Y-115195833D02*
X147892914Y-115100595D01*
X147892914Y-115100595D02*
X148083390Y-115052976D01*
X148083390Y-115052976D02*
X148464342Y-115052976D01*
X148464342Y-115052976D02*
X148559580Y-115100595D01*
X148559580Y-115100595D02*
X148607200Y-115148214D01*
X148607200Y-115148214D02*
X148654819Y-115243452D01*
X148654819Y-115243452D02*
X148654819Y-115433928D01*
X148654819Y-115433928D02*
X148607200Y-115529166D01*
X148607200Y-115529166D02*
X148559580Y-115576785D01*
X148559580Y-115576785D02*
X148464342Y-115624404D01*
X148464342Y-115624404D02*
X148226247Y-115624404D01*
X148226247Y-115624404D02*
X148131009Y-115576785D01*
X148131009Y-115576785D02*
X148083390Y-115529166D01*
X148083390Y-115529166D02*
X148035771Y-115433928D01*
X148035771Y-115433928D02*
X148035771Y-115243452D01*
X148035771Y-115243452D02*
X148083390Y-115148214D01*
X148083390Y-115148214D02*
X148131009Y-115100595D01*
X148131009Y-115100595D02*
X148226247Y-115052976D01*
X124566666Y-100359580D02*
X124614285Y-100407200D01*
X124614285Y-100407200D02*
X124757142Y-100454819D01*
X124757142Y-100454819D02*
X124852380Y-100454819D01*
X124852380Y-100454819D02*
X124995237Y-100407200D01*
X124995237Y-100407200D02*
X125090475Y-100311961D01*
X125090475Y-100311961D02*
X125138094Y-100216723D01*
X125138094Y-100216723D02*
X125185713Y-100026247D01*
X125185713Y-100026247D02*
X125185713Y-99883390D01*
X125185713Y-99883390D02*
X125138094Y-99692914D01*
X125138094Y-99692914D02*
X125090475Y-99597676D01*
X125090475Y-99597676D02*
X124995237Y-99502438D01*
X124995237Y-99502438D02*
X124852380Y-99454819D01*
X124852380Y-99454819D02*
X124757142Y-99454819D01*
X124757142Y-99454819D02*
X124614285Y-99502438D01*
X124614285Y-99502438D02*
X124566666Y-99550057D01*
X123709523Y-99454819D02*
X123899999Y-99454819D01*
X123899999Y-99454819D02*
X123995237Y-99502438D01*
X123995237Y-99502438D02*
X124042856Y-99550057D01*
X124042856Y-99550057D02*
X124138094Y-99692914D01*
X124138094Y-99692914D02*
X124185713Y-99883390D01*
X124185713Y-99883390D02*
X124185713Y-100264342D01*
X124185713Y-100264342D02*
X124138094Y-100359580D01*
X124138094Y-100359580D02*
X124090475Y-100407200D01*
X124090475Y-100407200D02*
X123995237Y-100454819D01*
X123995237Y-100454819D02*
X123804761Y-100454819D01*
X123804761Y-100454819D02*
X123709523Y-100407200D01*
X123709523Y-100407200D02*
X123661904Y-100359580D01*
X123661904Y-100359580D02*
X123614285Y-100264342D01*
X123614285Y-100264342D02*
X123614285Y-100026247D01*
X123614285Y-100026247D02*
X123661904Y-99931009D01*
X123661904Y-99931009D02*
X123709523Y-99883390D01*
X123709523Y-99883390D02*
X123804761Y-99835771D01*
X123804761Y-99835771D02*
X123995237Y-99835771D01*
X123995237Y-99835771D02*
X124090475Y-99883390D01*
X124090475Y-99883390D02*
X124138094Y-99931009D01*
X124138094Y-99931009D02*
X124185713Y-100026247D01*
X133166666Y-115854819D02*
X133499999Y-115378628D01*
X133738094Y-115854819D02*
X133738094Y-114854819D01*
X133738094Y-114854819D02*
X133357142Y-114854819D01*
X133357142Y-114854819D02*
X133261904Y-114902438D01*
X133261904Y-114902438D02*
X133214285Y-114950057D01*
X133214285Y-114950057D02*
X133166666Y-115045295D01*
X133166666Y-115045295D02*
X133166666Y-115188152D01*
X133166666Y-115188152D02*
X133214285Y-115283390D01*
X133214285Y-115283390D02*
X133261904Y-115331009D01*
X133261904Y-115331009D02*
X133357142Y-115378628D01*
X133357142Y-115378628D02*
X133738094Y-115378628D01*
X132785713Y-114950057D02*
X132738094Y-114902438D01*
X132738094Y-114902438D02*
X132642856Y-114854819D01*
X132642856Y-114854819D02*
X132404761Y-114854819D01*
X132404761Y-114854819D02*
X132309523Y-114902438D01*
X132309523Y-114902438D02*
X132261904Y-114950057D01*
X132261904Y-114950057D02*
X132214285Y-115045295D01*
X132214285Y-115045295D02*
X132214285Y-115140533D01*
X132214285Y-115140533D02*
X132261904Y-115283390D01*
X132261904Y-115283390D02*
X132833332Y-115854819D01*
X132833332Y-115854819D02*
X132214285Y-115854819D01*
D12*
X171006902Y-103056951D02*
X171173494Y-103061380D01*
X171297532Y-103072594D01*
X171389013Y-103093272D01*
X171457934Y-103126093D01*
X171514293Y-103173736D01*
X171568086Y-103238877D01*
X171622281Y-103332571D01*
X171657661Y-103480175D01*
X171642311Y-103628487D01*
X171578230Y-103764848D01*
X171467416Y-103876598D01*
X171432727Y-103899761D01*
X171393410Y-103918973D01*
X171343855Y-103932598D01*
X171274432Y-103941877D01*
X171175510Y-103948050D01*
X171037461Y-103952357D01*
X170850654Y-103956038D01*
X170332458Y-103965180D01*
X170361656Y-103888383D01*
X170388480Y-103818068D01*
X170414294Y-103765424D01*
X170447569Y-103731060D01*
X170498490Y-103711093D01*
X170577239Y-103701639D01*
X170694001Y-103698814D01*
X170858958Y-103698736D01*
X170990442Y-103698336D01*
X171116606Y-103695951D01*
X171202777Y-103690259D01*
X171259328Y-103679961D01*
X171296630Y-103663755D01*
X171325057Y-103640345D01*
X171365173Y-103582793D01*
X171380294Y-103486112D01*
X171342083Y-103390465D01*
X171337190Y-103384152D01*
X171314587Y-103364477D01*
X171278336Y-103349963D01*
X171219489Y-103339394D01*
X171129099Y-103331555D01*
X170998221Y-103325227D01*
X170817905Y-103319195D01*
X170335093Y-103304598D01*
X170390717Y-103180517D01*
X170446341Y-103056437D01*
X170887149Y-103056437D01*
X171006902Y-103056951D01*
G36*
X171006902Y-103056951D02*
G01*
X171173494Y-103061380D01*
X171297532Y-103072594D01*
X171389013Y-103093272D01*
X171457934Y-103126093D01*
X171514293Y-103173736D01*
X171568086Y-103238877D01*
X171622281Y-103332571D01*
X171657661Y-103480175D01*
X171642311Y-103628487D01*
X171578230Y-103764848D01*
X171467416Y-103876598D01*
X171432727Y-103899761D01*
X171393410Y-103918973D01*
X171343855Y-103932598D01*
X171274432Y-103941877D01*
X171175510Y-103948050D01*
X171037461Y-103952357D01*
X170850654Y-103956038D01*
X170332458Y-103965180D01*
X170361656Y-103888383D01*
X170388480Y-103818068D01*
X170414294Y-103765424D01*
X170447569Y-103731060D01*
X170498490Y-103711093D01*
X170577239Y-103701639D01*
X170694001Y-103698814D01*
X170858958Y-103698736D01*
X170990442Y-103698336D01*
X171116606Y-103695951D01*
X171202777Y-103690259D01*
X171259328Y-103679961D01*
X171296630Y-103663755D01*
X171325057Y-103640345D01*
X171365173Y-103582793D01*
X171380294Y-103486112D01*
X171342083Y-103390465D01*
X171337190Y-103384152D01*
X171314587Y-103364477D01*
X171278336Y-103349963D01*
X171219489Y-103339394D01*
X171129099Y-103331555D01*
X170998221Y-103325227D01*
X170817905Y-103319195D01*
X170335093Y-103304598D01*
X170390717Y-103180517D01*
X170446341Y-103056437D01*
X170887149Y-103056437D01*
X171006902Y-103056951D01*
G37*
X171162878Y-105276371D02*
X171266636Y-105281307D01*
X171338588Y-105292272D01*
X171392500Y-105311438D01*
X171442136Y-105340977D01*
X171480069Y-105368092D01*
X171582478Y-105466550D01*
X171638097Y-105578100D01*
X171655703Y-105718246D01*
X171638153Y-105878635D01*
X171575203Y-106017288D01*
X171464176Y-106126951D01*
X171452422Y-106135218D01*
X171421187Y-106154499D01*
X171385493Y-106169269D01*
X171337636Y-106180254D01*
X171269913Y-106188174D01*
X171174618Y-106193753D01*
X171044048Y-106197713D01*
X171017179Y-106198188D01*
X170870498Y-106200778D01*
X170646264Y-106203668D01*
X170581215Y-106204471D01*
X170363740Y-106207040D01*
X170197328Y-106207556D01*
X170076154Y-106204437D01*
X169994393Y-106196100D01*
X169946219Y-106180962D01*
X169925806Y-106157441D01*
X169927328Y-106123956D01*
X169944961Y-106078923D01*
X169972879Y-106020761D01*
X169978836Y-106008332D01*
X170007994Y-105956578D01*
X170042686Y-105929550D01*
X170100530Y-105919207D01*
X170199143Y-105917509D01*
X170376207Y-105917433D01*
X170376207Y-105735038D01*
X170377796Y-105698753D01*
X170632280Y-105698753D01*
X170637079Y-105767865D01*
X170696029Y-105845925D01*
X170716177Y-105865019D01*
X170757485Y-105893142D01*
X170811213Y-105909000D01*
X170892674Y-105916009D01*
X171017179Y-105917586D01*
X171092555Y-105916220D01*
X171229638Y-105901402D01*
X171319452Y-105867579D01*
X171368540Y-105811389D01*
X171383448Y-105729472D01*
X171380271Y-105694956D01*
X171348746Y-105635235D01*
X171278495Y-105595752D01*
X171163417Y-105573942D01*
X170997412Y-105567241D01*
X170970724Y-105567291D01*
X170850262Y-105570064D01*
X170771516Y-105578967D01*
X170720382Y-105596617D01*
X170682759Y-105625632D01*
X170680962Y-105627440D01*
X170632280Y-105698753D01*
X170377796Y-105698753D01*
X170381120Y-105622840D01*
X170401047Y-105534620D01*
X170441322Y-105461358D01*
X170445259Y-105455896D01*
X170511757Y-105381558D01*
X170592092Y-105329823D01*
X170697242Y-105297196D01*
X170838185Y-105280182D01*
X171025899Y-105275287D01*
X171162878Y-105276371D01*
G36*
X171162878Y-105276371D02*
G01*
X171266636Y-105281307D01*
X171338588Y-105292272D01*
X171392500Y-105311438D01*
X171442136Y-105340977D01*
X171480069Y-105368092D01*
X171582478Y-105466550D01*
X171638097Y-105578100D01*
X171655703Y-105718246D01*
X171638153Y-105878635D01*
X171575203Y-106017288D01*
X171464176Y-106126951D01*
X171452422Y-106135218D01*
X171421187Y-106154499D01*
X171385493Y-106169269D01*
X171337636Y-106180254D01*
X171269913Y-106188174D01*
X171174618Y-106193753D01*
X171044048Y-106197713D01*
X171017179Y-106198188D01*
X170870498Y-106200778D01*
X170646264Y-106203668D01*
X170581215Y-106204471D01*
X170363740Y-106207040D01*
X170197328Y-106207556D01*
X170076154Y-106204437D01*
X169994393Y-106196100D01*
X169946219Y-106180962D01*
X169925806Y-106157441D01*
X169927328Y-106123956D01*
X169944961Y-106078923D01*
X169972879Y-106020761D01*
X169978836Y-106008332D01*
X170007994Y-105956578D01*
X170042686Y-105929550D01*
X170100530Y-105919207D01*
X170199143Y-105917509D01*
X170376207Y-105917433D01*
X170376207Y-105735038D01*
X170377796Y-105698753D01*
X170632280Y-105698753D01*
X170637079Y-105767865D01*
X170696029Y-105845925D01*
X170716177Y-105865019D01*
X170757485Y-105893142D01*
X170811213Y-105909000D01*
X170892674Y-105916009D01*
X171017179Y-105917586D01*
X171092555Y-105916220D01*
X171229638Y-105901402D01*
X171319452Y-105867579D01*
X171368540Y-105811389D01*
X171383448Y-105729472D01*
X171380271Y-105694956D01*
X171348746Y-105635235D01*
X171278495Y-105595752D01*
X171163417Y-105573942D01*
X170997412Y-105567241D01*
X170970724Y-105567291D01*
X170850262Y-105570064D01*
X170771516Y-105578967D01*
X170720382Y-105596617D01*
X170682759Y-105625632D01*
X170680962Y-105627440D01*
X170632280Y-105698753D01*
X170377796Y-105698753D01*
X170381120Y-105622840D01*
X170401047Y-105534620D01*
X170441322Y-105461358D01*
X170445259Y-105455896D01*
X170511757Y-105381558D01*
X170592092Y-105329823D01*
X170697242Y-105297196D01*
X170838185Y-105280182D01*
X171025899Y-105275287D01*
X171162878Y-105276371D01*
G37*
X171983181Y-98450862D02*
X171972301Y-98475949D01*
X171947732Y-98515881D01*
X171910525Y-98538739D01*
X171845459Y-98551301D01*
X171737313Y-98560345D01*
X171640212Y-98568605D01*
X171576465Y-98579523D01*
X171552677Y-98595165D01*
X171559057Y-98618736D01*
X171581475Y-98678801D01*
X171587033Y-98786145D01*
X171566272Y-98901624D01*
X171521545Y-99001257D01*
X171480144Y-99056072D01*
X171399368Y-99126452D01*
X171295805Y-99171528D01*
X171158053Y-99195496D01*
X170982894Y-99202239D01*
X170974713Y-99202553D01*
X170860865Y-99200219D01*
X170705680Y-99183739D01*
X170589388Y-99147883D01*
X170500589Y-99088455D01*
X170427881Y-99001257D01*
X170385850Y-98918195D01*
X170362462Y-98778709D01*
X170371210Y-98731060D01*
X170573008Y-98731060D01*
X170578095Y-98832312D01*
X170637638Y-98926614D01*
X170668486Y-98954694D01*
X170709382Y-98978196D01*
X170765920Y-98991322D01*
X170852343Y-98997030D01*
X170982894Y-98998276D01*
X171082513Y-98997661D01*
X171179749Y-98993407D01*
X171242498Y-98982682D01*
X171284618Y-98962707D01*
X171319968Y-98930704D01*
X171335886Y-98911905D01*
X171378765Y-98814492D01*
X171372015Y-98712437D01*
X171315877Y-98623825D01*
X171293618Y-98604749D01*
X171251707Y-98581486D01*
X171193178Y-98568036D01*
X171104120Y-98561841D01*
X170970621Y-98560345D01*
X170864356Y-98561035D01*
X170768238Y-98565400D01*
X170706189Y-98576192D01*
X170664498Y-98596126D01*
X170629457Y-98627916D01*
X170622721Y-98635364D01*
X170573008Y-98731060D01*
X170371210Y-98731060D01*
X170388035Y-98639412D01*
X170459306Y-98513510D01*
X170573009Y-98414210D01*
X170593976Y-98402219D01*
X170630709Y-98386384D01*
X170677585Y-98374638D01*
X170742645Y-98366378D01*
X170833930Y-98360998D01*
X170959481Y-98357892D01*
X171127339Y-98356457D01*
X171345545Y-98356086D01*
X172022928Y-98355977D01*
X171983181Y-98450862D01*
G36*
X171983181Y-98450862D02*
G01*
X171972301Y-98475949D01*
X171947732Y-98515881D01*
X171910525Y-98538739D01*
X171845459Y-98551301D01*
X171737313Y-98560345D01*
X171640212Y-98568605D01*
X171576465Y-98579523D01*
X171552677Y-98595165D01*
X171559057Y-98618736D01*
X171581475Y-98678801D01*
X171587033Y-98786145D01*
X171566272Y-98901624D01*
X171521545Y-99001257D01*
X171480144Y-99056072D01*
X171399368Y-99126452D01*
X171295805Y-99171528D01*
X171158053Y-99195496D01*
X170982894Y-99202239D01*
X170974713Y-99202553D01*
X170860865Y-99200219D01*
X170705680Y-99183739D01*
X170589388Y-99147883D01*
X170500589Y-99088455D01*
X170427881Y-99001257D01*
X170385850Y-98918195D01*
X170362462Y-98778709D01*
X170371210Y-98731060D01*
X170573008Y-98731060D01*
X170578095Y-98832312D01*
X170637638Y-98926614D01*
X170668486Y-98954694D01*
X170709382Y-98978196D01*
X170765920Y-98991322D01*
X170852343Y-98997030D01*
X170982894Y-98998276D01*
X171082513Y-98997661D01*
X171179749Y-98993407D01*
X171242498Y-98982682D01*
X171284618Y-98962707D01*
X171319968Y-98930704D01*
X171335886Y-98911905D01*
X171378765Y-98814492D01*
X171372015Y-98712437D01*
X171315877Y-98623825D01*
X171293618Y-98604749D01*
X171251707Y-98581486D01*
X171193178Y-98568036D01*
X171104120Y-98561841D01*
X170970621Y-98560345D01*
X170864356Y-98561035D01*
X170768238Y-98565400D01*
X170706189Y-98576192D01*
X170664498Y-98596126D01*
X170629457Y-98627916D01*
X170622721Y-98635364D01*
X170573008Y-98731060D01*
X170371210Y-98731060D01*
X170388035Y-98639412D01*
X170459306Y-98513510D01*
X170573009Y-98414210D01*
X170593976Y-98402219D01*
X170630709Y-98386384D01*
X170677585Y-98374638D01*
X170742645Y-98366378D01*
X170833930Y-98360998D01*
X170959481Y-98357892D01*
X171127339Y-98356457D01*
X171345545Y-98356086D01*
X172022928Y-98355977D01*
X171983181Y-98450862D01*
G37*
X171219179Y-97159685D02*
X171366609Y-97161929D01*
X171483347Y-97165421D01*
X171560160Y-97169876D01*
X171587816Y-97175013D01*
X171587742Y-97176090D01*
X171573981Y-97213407D01*
X171543656Y-97276457D01*
X171499495Y-97361854D01*
X171040035Y-97369893D01*
X170580575Y-97377931D01*
X170580575Y-97553103D01*
X171084195Y-97561092D01*
X171221096Y-97563624D01*
X171367421Y-97567249D01*
X171483589Y-97571177D01*
X171560191Y-97575080D01*
X171587816Y-97578632D01*
X171587719Y-97579653D01*
X171577557Y-97615051D01*
X171555765Y-97680126D01*
X171523713Y-97772069D01*
X171081339Y-97772516D01*
X171004493Y-97772964D01*
X170855166Y-97776069D01*
X170730456Y-97781622D01*
X170641621Y-97789033D01*
X170599917Y-97797714D01*
X170577611Y-97828771D01*
X170570722Y-97892152D01*
X170580575Y-97961839D01*
X171084195Y-97969827D01*
X171212172Y-97972686D01*
X171363652Y-97978614D01*
X171482470Y-97986365D01*
X171560050Y-97995343D01*
X171587816Y-98004948D01*
X171579030Y-98042410D01*
X171553934Y-98106442D01*
X171520053Y-98180805D01*
X170541273Y-98180805D01*
X170448883Y-98088415D01*
X170428165Y-98067310D01*
X170382115Y-98008847D01*
X170367199Y-97949886D01*
X170374066Y-97862150D01*
X170378506Y-97826429D01*
X170387898Y-97734301D01*
X170391639Y-97669885D01*
X170391067Y-97650778D01*
X170384874Y-97572390D01*
X170374066Y-97477620D01*
X170370353Y-97447298D01*
X170368893Y-97370911D01*
X170391953Y-97315022D01*
X170448883Y-97251355D01*
X170541273Y-97158965D01*
X171064545Y-97158965D01*
X171219179Y-97159685D01*
G36*
X171219179Y-97159685D02*
G01*
X171366609Y-97161929D01*
X171483347Y-97165421D01*
X171560160Y-97169876D01*
X171587816Y-97175013D01*
X171587742Y-97176090D01*
X171573981Y-97213407D01*
X171543656Y-97276457D01*
X171499495Y-97361854D01*
X171040035Y-97369893D01*
X170580575Y-97377931D01*
X170580575Y-97553103D01*
X171084195Y-97561092D01*
X171221096Y-97563624D01*
X171367421Y-97567249D01*
X171483589Y-97571177D01*
X171560191Y-97575080D01*
X171587816Y-97578632D01*
X171587719Y-97579653D01*
X171577557Y-97615051D01*
X171555765Y-97680126D01*
X171523713Y-97772069D01*
X171081339Y-97772516D01*
X171004493Y-97772964D01*
X170855166Y-97776069D01*
X170730456Y-97781622D01*
X170641621Y-97789033D01*
X170599917Y-97797714D01*
X170577611Y-97828771D01*
X170570722Y-97892152D01*
X170580575Y-97961839D01*
X171084195Y-97969827D01*
X171212172Y-97972686D01*
X171363652Y-97978614D01*
X171482470Y-97986365D01*
X171560050Y-97995343D01*
X171587816Y-98004948D01*
X171579030Y-98042410D01*
X171553934Y-98106442D01*
X171520053Y-98180805D01*
X170541273Y-98180805D01*
X170448883Y-98088415D01*
X170428165Y-98067310D01*
X170382115Y-98008847D01*
X170367199Y-97949886D01*
X170374066Y-97862150D01*
X170378506Y-97826429D01*
X170387898Y-97734301D01*
X170391639Y-97669885D01*
X170391067Y-97650778D01*
X170384874Y-97572390D01*
X170374066Y-97477620D01*
X170370353Y-97447298D01*
X170368893Y-97370911D01*
X170391953Y-97315022D01*
X170448883Y-97251355D01*
X170541273Y-97158965D01*
X171064545Y-97158965D01*
X171219179Y-97159685D01*
G37*
X171281594Y-95180847D02*
X171383382Y-95224897D01*
X171478765Y-95296123D01*
X171544731Y-95379415D01*
X171559982Y-95414310D01*
X171585479Y-95546443D01*
X171575381Y-95686725D01*
X171530607Y-95807261D01*
X171496966Y-95857388D01*
X171448764Y-95908152D01*
X171387449Y-95944362D01*
X171303976Y-95968393D01*
X171189303Y-95982618D01*
X171034387Y-95989412D01*
X170830186Y-95991149D01*
X170724659Y-95990809D01*
X170580459Y-95989101D01*
X170465380Y-95986201D01*
X170389178Y-95982384D01*
X170361609Y-95977925D01*
X170370728Y-95948909D01*
X170395491Y-95890339D01*
X170396293Y-95888581D01*
X170412215Y-95858167D01*
X170434062Y-95837712D01*
X170472328Y-95825240D01*
X170537505Y-95818777D01*
X170640087Y-95816348D01*
X170790567Y-95815977D01*
X170886026Y-95815229D01*
X171065429Y-95807256D01*
X171196837Y-95788998D01*
X171287141Y-95758526D01*
X171343233Y-95713912D01*
X171372006Y-95653226D01*
X171374011Y-95644807D01*
X171375577Y-95531139D01*
X171324652Y-95442492D01*
X171222555Y-95381265D01*
X171193039Y-95370346D01*
X171127717Y-95345458D01*
X171097700Y-95332854D01*
X171101836Y-95306969D01*
X171124283Y-95250439D01*
X171161353Y-95197715D01*
X171231413Y-95173678D01*
X171281594Y-95180847D01*
G36*
X171281594Y-95180847D02*
G01*
X171383382Y-95224897D01*
X171478765Y-95296123D01*
X171544731Y-95379415D01*
X171559982Y-95414310D01*
X171585479Y-95546443D01*
X171575381Y-95686725D01*
X171530607Y-95807261D01*
X171496966Y-95857388D01*
X171448764Y-95908152D01*
X171387449Y-95944362D01*
X171303976Y-95968393D01*
X171189303Y-95982618D01*
X171034387Y-95989412D01*
X170830186Y-95991149D01*
X170724659Y-95990809D01*
X170580459Y-95989101D01*
X170465380Y-95986201D01*
X170389178Y-95982384D01*
X170361609Y-95977925D01*
X170370728Y-95948909D01*
X170395491Y-95890339D01*
X170396293Y-95888581D01*
X170412215Y-95858167D01*
X170434062Y-95837712D01*
X170472328Y-95825240D01*
X170537505Y-95818777D01*
X170640087Y-95816348D01*
X170790567Y-95815977D01*
X170886026Y-95815229D01*
X171065429Y-95807256D01*
X171196837Y-95788998D01*
X171287141Y-95758526D01*
X171343233Y-95713912D01*
X171372006Y-95653226D01*
X171374011Y-95644807D01*
X171375577Y-95531139D01*
X171324652Y-95442492D01*
X171222555Y-95381265D01*
X171193039Y-95370346D01*
X171127717Y-95345458D01*
X171097700Y-95332854D01*
X171101836Y-95306969D01*
X171124283Y-95250439D01*
X171161353Y-95197715D01*
X171231413Y-95173678D01*
X171281594Y-95180847D01*
G37*
X176512835Y-96137160D02*
X176704297Y-96137808D01*
X176847188Y-96139720D01*
X176948811Y-96143469D01*
X177016469Y-96149622D01*
X177057464Y-96158751D01*
X177079100Y-96171427D01*
X177088680Y-96188218D01*
X177092561Y-96204474D01*
X177106290Y-96270748D01*
X177127255Y-96376479D01*
X177153412Y-96510915D01*
X177182717Y-96663302D01*
X177213123Y-96822890D01*
X177242587Y-96978925D01*
X177269063Y-97120657D01*
X177290506Y-97237331D01*
X177304872Y-97318197D01*
X177310115Y-97352503D01*
X177313280Y-97354822D01*
X177354358Y-97373474D01*
X177432956Y-97405753D01*
X177536379Y-97446391D01*
X177675727Y-97502788D01*
X177836774Y-97572214D01*
X177978709Y-97637288D01*
X178010568Y-97652202D01*
X178110331Y-97694047D01*
X178187279Y-97719118D01*
X178226870Y-97722426D01*
X178229675Y-97720720D01*
X178270995Y-97693631D01*
X178351260Y-97639927D01*
X178462650Y-97564877D01*
X178597345Y-97473746D01*
X178747524Y-97371800D01*
X178918149Y-97256930D01*
X179050689Y-97170761D01*
X179147888Y-97112131D01*
X179215766Y-97077650D01*
X179260344Y-97063926D01*
X179287639Y-97067568D01*
X179289687Y-97068794D01*
X179329464Y-97101747D01*
X179401948Y-97168927D01*
X179499954Y-97263419D01*
X179616298Y-97378306D01*
X179743795Y-97506672D01*
X179873179Y-97639831D01*
X179994791Y-97770269D01*
X180076844Y-97866119D01*
X180121440Y-97929866D01*
X180130683Y-97963996D01*
X180128607Y-97968456D01*
X180100615Y-98015421D01*
X180045916Y-98100685D01*
X179969763Y-98216259D01*
X179877408Y-98354154D01*
X179774103Y-98506381D01*
X179435235Y-99002610D01*
X179536944Y-99226707D01*
X179539891Y-99233219D01*
X179599496Y-99370804D01*
X179658778Y-99516767D01*
X179705315Y-99640575D01*
X179705507Y-99641122D01*
X179741503Y-99739414D01*
X179771905Y-99815081D01*
X179790148Y-99851780D01*
X179790810Y-99852374D01*
X179828169Y-99864833D01*
X179913129Y-99885336D01*
X180036531Y-99911907D01*
X180189218Y-99942567D01*
X180362033Y-99975336D01*
X180368226Y-99976478D01*
X180544569Y-100009193D01*
X180704257Y-100039155D01*
X180837095Y-100064425D01*
X180932887Y-100083065D01*
X180981437Y-100093135D01*
X180984127Y-100093779D01*
X181004912Y-100100408D01*
X181020534Y-100113841D01*
X181031730Y-100141446D01*
X181039238Y-100190593D01*
X181043795Y-100268653D01*
X181046137Y-100382994D01*
X181047002Y-100540986D01*
X181047126Y-100750000D01*
X181047126Y-100776262D01*
X181046955Y-100979175D01*
X181045961Y-101131895D01*
X181043407Y-101241792D01*
X181038555Y-101316235D01*
X181030669Y-101362594D01*
X181019012Y-101388239D01*
X181002847Y-101400539D01*
X180981437Y-101406865D01*
X180980668Y-101407047D01*
X180930337Y-101417441D01*
X180833112Y-101436339D01*
X180699190Y-101461802D01*
X180538765Y-101491890D01*
X180362033Y-101524664D01*
X180347572Y-101527337D01*
X180176041Y-101560010D01*
X180025375Y-101590413D01*
X179904733Y-101616568D01*
X179823271Y-101636496D01*
X179790148Y-101648220D01*
X179790095Y-101648282D01*
X179771771Y-101685229D01*
X179741323Y-101761057D01*
X179705315Y-101859425D01*
X179703360Y-101864965D01*
X179655830Y-101990724D01*
X179596217Y-102137011D01*
X179536944Y-102273293D01*
X179435235Y-102497390D01*
X179774103Y-102993618D01*
X179797937Y-103028570D01*
X179899245Y-103178280D01*
X179988425Y-103311867D01*
X180060227Y-103421343D01*
X180109397Y-103498718D01*
X180130683Y-103536004D01*
X180125804Y-103561552D01*
X180087998Y-103619555D01*
X180013130Y-103709195D01*
X179899097Y-103832957D01*
X179743795Y-103993328D01*
X179729659Y-104007679D01*
X179603001Y-104134933D01*
X179488255Y-104247969D01*
X179392609Y-104339867D01*
X179323254Y-104403707D01*
X179287380Y-104432570D01*
X179287206Y-104432664D01*
X179259894Y-104436331D01*
X179215592Y-104422808D01*
X179148239Y-104388684D01*
X179051774Y-104330548D01*
X178920137Y-104244988D01*
X178747266Y-104128594D01*
X178718088Y-104108759D01*
X178570274Y-104008445D01*
X178439423Y-103919923D01*
X178333357Y-103848465D01*
X178259898Y-103799343D01*
X178226870Y-103777831D01*
X178219874Y-103776208D01*
X178167674Y-103786387D01*
X178082439Y-103816879D01*
X177978709Y-103862712D01*
X177843049Y-103925000D01*
X177682079Y-103994548D01*
X177536379Y-104053609D01*
X177498667Y-104068252D01*
X177402378Y-104106600D01*
X177335296Y-104134770D01*
X177310115Y-104147497D01*
X177308233Y-104161545D01*
X177297349Y-104224681D01*
X177278551Y-104328019D01*
X177253885Y-104460809D01*
X177225396Y-104612297D01*
X177195127Y-104771732D01*
X177165125Y-104928361D01*
X177137434Y-105071433D01*
X177114100Y-105190195D01*
X177097167Y-105273896D01*
X177088680Y-105311782D01*
X177086287Y-105318063D01*
X177073381Y-105333373D01*
X177045904Y-105344763D01*
X176996554Y-105352803D01*
X176918027Y-105358064D01*
X176803020Y-105361116D01*
X176644230Y-105362529D01*
X176434355Y-105362873D01*
X175796094Y-105362873D01*
X175765840Y-105209598D01*
X175762215Y-105191057D01*
X175743431Y-105092596D01*
X175717907Y-104956448D01*
X175688532Y-104798087D01*
X175658194Y-104632988D01*
X175645991Y-104567973D01*
X175616303Y-104422697D01*
X175588230Y-104301626D01*
X175564464Y-104215886D01*
X175547699Y-104176601D01*
X175520306Y-104158799D01*
X175447826Y-104126389D01*
X175354023Y-104093234D01*
X175318897Y-104081564D01*
X175203591Y-104038604D01*
X175067124Y-103983192D01*
X174932046Y-103924353D01*
X174861491Y-103892884D01*
X174756105Y-103848051D01*
X174677182Y-103817240D01*
X174637947Y-103805785D01*
X174634986Y-103806422D01*
X174593361Y-103828150D01*
X174513031Y-103877146D01*
X174401780Y-103948438D01*
X174267395Y-104037054D01*
X174117660Y-104138023D01*
X173630069Y-104470261D01*
X173192851Y-104033771D01*
X173150779Y-103991555D01*
X173024847Y-103862470D01*
X172916246Y-103747107D01*
X172831097Y-103652224D01*
X172775518Y-103584582D01*
X172755632Y-103550938D01*
X172770762Y-103514402D01*
X172814199Y-103437890D01*
X172880730Y-103330196D01*
X172965133Y-103199767D01*
X173062184Y-103055052D01*
X173158036Y-102912910D01*
X173242443Y-102784678D01*
X173309150Y-102680054D01*
X173352976Y-102607171D01*
X173368736Y-102574158D01*
X173368592Y-102572223D01*
X173353055Y-102528369D01*
X173316879Y-102450598D01*
X173267215Y-102354392D01*
X173266671Y-102353381D01*
X173202674Y-102225605D01*
X173171409Y-102138051D01*
X173171323Y-102083726D01*
X173200862Y-102055641D01*
X173229939Y-102043752D01*
X173307812Y-102011668D01*
X173427525Y-101962247D01*
X173582714Y-101898118D01*
X173767016Y-101821911D01*
X173974067Y-101736255D01*
X174197504Y-101643781D01*
X174400774Y-101559962D01*
X174609351Y-101474678D01*
X174795737Y-101399222D01*
X174953593Y-101336126D01*
X175076581Y-101287923D01*
X175158361Y-101257144D01*
X175192594Y-101246322D01*
X175223985Y-101266991D01*
X175276398Y-101324409D01*
X175337296Y-101405688D01*
X175496613Y-101600820D01*
X175700193Y-101775445D01*
X175924192Y-101903235D01*
X176161997Y-101983402D01*
X176406993Y-102015160D01*
X176652567Y-101997722D01*
X176892105Y-101930301D01*
X177118993Y-101812111D01*
X177326617Y-101642364D01*
X177407473Y-101553856D01*
X177550441Y-101341804D01*
X177643648Y-101114905D01*
X177689313Y-100879791D01*
X177689656Y-100643094D01*
X177646895Y-100411446D01*
X177563250Y-100191478D01*
X177440939Y-99989822D01*
X177282183Y-99813111D01*
X177089199Y-99667977D01*
X176864207Y-99561050D01*
X176609425Y-99498964D01*
X176486623Y-99487569D01*
X176220566Y-99503246D01*
X175968144Y-99573846D01*
X175733818Y-99697282D01*
X175522048Y-99871466D01*
X175337296Y-100094311D01*
X175278877Y-100172561D01*
X175225890Y-100231244D01*
X175192644Y-100253678D01*
X175163661Y-100244732D01*
X175086004Y-100215703D01*
X174966549Y-100169026D01*
X174811638Y-100107231D01*
X174627608Y-100032850D01*
X174420800Y-99948412D01*
X174197554Y-99856449D01*
X173995258Y-99772771D01*
X173786314Y-99686366D01*
X173599502Y-99609138D01*
X173441186Y-99543716D01*
X173317731Y-99492731D01*
X173235502Y-99458812D01*
X173200862Y-99444590D01*
X173200452Y-99444425D01*
X173171202Y-99415972D01*
X173171537Y-99361382D01*
X173203020Y-99273609D01*
X173267215Y-99145608D01*
X173272620Y-99135532D01*
X173321250Y-99040481D01*
X173355672Y-98965424D01*
X173368736Y-98925842D01*
X173353298Y-98893400D01*
X173309742Y-98820895D01*
X173243249Y-98716565D01*
X173159002Y-98588539D01*
X173062184Y-98444948D01*
X172967266Y-98303468D01*
X172882510Y-98172611D01*
X172815504Y-98064292D01*
X172771471Y-97986960D01*
X172755632Y-97949062D01*
X172757643Y-97942607D01*
X172789342Y-97897609D01*
X172854819Y-97820727D01*
X172947952Y-97718721D01*
X173062619Y-97598351D01*
X173192700Y-97466379D01*
X173629768Y-97030039D01*
X174629560Y-97709733D01*
X174853114Y-97606402D01*
X174853775Y-97606096D01*
X174996286Y-97544046D01*
X175154982Y-97480640D01*
X175295632Y-97429558D01*
X175318317Y-97421827D01*
X175423630Y-97382852D01*
X175505466Y-97347707D01*
X175547699Y-97323195D01*
X175553663Y-97313212D01*
X175573671Y-97253286D01*
X175599558Y-97151532D01*
X175628630Y-97019068D01*
X175658194Y-96867011D01*
X175666533Y-96821466D01*
X175696893Y-96656685D01*
X175725491Y-96502930D01*
X175749436Y-96375678D01*
X175765840Y-96290402D01*
X175796094Y-96137126D01*
X176434355Y-96137126D01*
X176512835Y-96137160D01*
G36*
X176512835Y-96137160D02*
G01*
X176704297Y-96137808D01*
X176847188Y-96139720D01*
X176948811Y-96143469D01*
X177016469Y-96149622D01*
X177057464Y-96158751D01*
X177079100Y-96171427D01*
X177088680Y-96188218D01*
X177092561Y-96204474D01*
X177106290Y-96270748D01*
X177127255Y-96376479D01*
X177153412Y-96510915D01*
X177182717Y-96663302D01*
X177213123Y-96822890D01*
X177242587Y-96978925D01*
X177269063Y-97120657D01*
X177290506Y-97237331D01*
X177304872Y-97318197D01*
X177310115Y-97352503D01*
X177313280Y-97354822D01*
X177354358Y-97373474D01*
X177432956Y-97405753D01*
X177536379Y-97446391D01*
X177675727Y-97502788D01*
X177836774Y-97572214D01*
X177978709Y-97637288D01*
X178010568Y-97652202D01*
X178110331Y-97694047D01*
X178187279Y-97719118D01*
X178226870Y-97722426D01*
X178229675Y-97720720D01*
X178270995Y-97693631D01*
X178351260Y-97639927D01*
X178462650Y-97564877D01*
X178597345Y-97473746D01*
X178747524Y-97371800D01*
X178918149Y-97256930D01*
X179050689Y-97170761D01*
X179147888Y-97112131D01*
X179215766Y-97077650D01*
X179260344Y-97063926D01*
X179287639Y-97067568D01*
X179289687Y-97068794D01*
X179329464Y-97101747D01*
X179401948Y-97168927D01*
X179499954Y-97263419D01*
X179616298Y-97378306D01*
X179743795Y-97506672D01*
X179873179Y-97639831D01*
X179994791Y-97770269D01*
X180076844Y-97866119D01*
X180121440Y-97929866D01*
X180130683Y-97963996D01*
X180128607Y-97968456D01*
X180100615Y-98015421D01*
X180045916Y-98100685D01*
X179969763Y-98216259D01*
X179877408Y-98354154D01*
X179774103Y-98506381D01*
X179435235Y-99002610D01*
X179536944Y-99226707D01*
X179539891Y-99233219D01*
X179599496Y-99370804D01*
X179658778Y-99516767D01*
X179705315Y-99640575D01*
X179705507Y-99641122D01*
X179741503Y-99739414D01*
X179771905Y-99815081D01*
X179790148Y-99851780D01*
X179790810Y-99852374D01*
X179828169Y-99864833D01*
X179913129Y-99885336D01*
X180036531Y-99911907D01*
X180189218Y-99942567D01*
X180362033Y-99975336D01*
X180368226Y-99976478D01*
X180544569Y-100009193D01*
X180704257Y-100039155D01*
X180837095Y-100064425D01*
X180932887Y-100083065D01*
X180981437Y-100093135D01*
X180984127Y-100093779D01*
X181004912Y-100100408D01*
X181020534Y-100113841D01*
X181031730Y-100141446D01*
X181039238Y-100190593D01*
X181043795Y-100268653D01*
X181046137Y-100382994D01*
X181047002Y-100540986D01*
X181047126Y-100750000D01*
X181047126Y-100776262D01*
X181046955Y-100979175D01*
X181045961Y-101131895D01*
X181043407Y-101241792D01*
X181038555Y-101316235D01*
X181030669Y-101362594D01*
X181019012Y-101388239D01*
X181002847Y-101400539D01*
X180981437Y-101406865D01*
X180980668Y-101407047D01*
X180930337Y-101417441D01*
X180833112Y-101436339D01*
X180699190Y-101461802D01*
X180538765Y-101491890D01*
X180362033Y-101524664D01*
X180347572Y-101527337D01*
X180176041Y-101560010D01*
X180025375Y-101590413D01*
X179904733Y-101616568D01*
X179823271Y-101636496D01*
X179790148Y-101648220D01*
X179790095Y-101648282D01*
X179771771Y-101685229D01*
X179741323Y-101761057D01*
X179705315Y-101859425D01*
X179703360Y-101864965D01*
X179655830Y-101990724D01*
X179596217Y-102137011D01*
X179536944Y-102273293D01*
X179435235Y-102497390D01*
X179774103Y-102993618D01*
X179797937Y-103028570D01*
X179899245Y-103178280D01*
X179988425Y-103311867D01*
X180060227Y-103421343D01*
X180109397Y-103498718D01*
X180130683Y-103536004D01*
X180125804Y-103561552D01*
X180087998Y-103619555D01*
X180013130Y-103709195D01*
X179899097Y-103832957D01*
X179743795Y-103993328D01*
X179729659Y-104007679D01*
X179603001Y-104134933D01*
X179488255Y-104247969D01*
X179392609Y-104339867D01*
X179323254Y-104403707D01*
X179287380Y-104432570D01*
X179287206Y-104432664D01*
X179259894Y-104436331D01*
X179215592Y-104422808D01*
X179148239Y-104388684D01*
X179051774Y-104330548D01*
X178920137Y-104244988D01*
X178747266Y-104128594D01*
X178718088Y-104108759D01*
X178570274Y-104008445D01*
X178439423Y-103919923D01*
X178333357Y-103848465D01*
X178259898Y-103799343D01*
X178226870Y-103777831D01*
X178219874Y-103776208D01*
X178167674Y-103786387D01*
X178082439Y-103816879D01*
X177978709Y-103862712D01*
X177843049Y-103925000D01*
X177682079Y-103994548D01*
X177536379Y-104053609D01*
X177498667Y-104068252D01*
X177402378Y-104106600D01*
X177335296Y-104134770D01*
X177310115Y-104147497D01*
X177308233Y-104161545D01*
X177297349Y-104224681D01*
X177278551Y-104328019D01*
X177253885Y-104460809D01*
X177225396Y-104612297D01*
X177195127Y-104771732D01*
X177165125Y-104928361D01*
X177137434Y-105071433D01*
X177114100Y-105190195D01*
X177097167Y-105273896D01*
X177088680Y-105311782D01*
X177086287Y-105318063D01*
X177073381Y-105333373D01*
X177045904Y-105344763D01*
X176996554Y-105352803D01*
X176918027Y-105358064D01*
X176803020Y-105361116D01*
X176644230Y-105362529D01*
X176434355Y-105362873D01*
X175796094Y-105362873D01*
X175765840Y-105209598D01*
X175762215Y-105191057D01*
X175743431Y-105092596D01*
X175717907Y-104956448D01*
X175688532Y-104798087D01*
X175658194Y-104632988D01*
X175645991Y-104567973D01*
X175616303Y-104422697D01*
X175588230Y-104301626D01*
X175564464Y-104215886D01*
X175547699Y-104176601D01*
X175520306Y-104158799D01*
X175447826Y-104126389D01*
X175354023Y-104093234D01*
X175318897Y-104081564D01*
X175203591Y-104038604D01*
X175067124Y-103983192D01*
X174932046Y-103924353D01*
X174861491Y-103892884D01*
X174756105Y-103848051D01*
X174677182Y-103817240D01*
X174637947Y-103805785D01*
X174634986Y-103806422D01*
X174593361Y-103828150D01*
X174513031Y-103877146D01*
X174401780Y-103948438D01*
X174267395Y-104037054D01*
X174117660Y-104138023D01*
X173630069Y-104470261D01*
X173192851Y-104033771D01*
X173150779Y-103991555D01*
X173024847Y-103862470D01*
X172916246Y-103747107D01*
X172831097Y-103652224D01*
X172775518Y-103584582D01*
X172755632Y-103550938D01*
X172770762Y-103514402D01*
X172814199Y-103437890D01*
X172880730Y-103330196D01*
X172965133Y-103199767D01*
X173062184Y-103055052D01*
X173158036Y-102912910D01*
X173242443Y-102784678D01*
X173309150Y-102680054D01*
X173352976Y-102607171D01*
X173368736Y-102574158D01*
X173368592Y-102572223D01*
X173353055Y-102528369D01*
X173316879Y-102450598D01*
X173267215Y-102354392D01*
X173266671Y-102353381D01*
X173202674Y-102225605D01*
X173171409Y-102138051D01*
X173171323Y-102083726D01*
X173200862Y-102055641D01*
X173229939Y-102043752D01*
X173307812Y-102011668D01*
X173427525Y-101962247D01*
X173582714Y-101898118D01*
X173767016Y-101821911D01*
X173974067Y-101736255D01*
X174197504Y-101643781D01*
X174400774Y-101559962D01*
X174609351Y-101474678D01*
X174795737Y-101399222D01*
X174953593Y-101336126D01*
X175076581Y-101287923D01*
X175158361Y-101257144D01*
X175192594Y-101246322D01*
X175223985Y-101266991D01*
X175276398Y-101324409D01*
X175337296Y-101405688D01*
X175496613Y-101600820D01*
X175700193Y-101775445D01*
X175924192Y-101903235D01*
X176161997Y-101983402D01*
X176406993Y-102015160D01*
X176652567Y-101997722D01*
X176892105Y-101930301D01*
X177118993Y-101812111D01*
X177326617Y-101642364D01*
X177407473Y-101553856D01*
X177550441Y-101341804D01*
X177643648Y-101114905D01*
X177689313Y-100879791D01*
X177689656Y-100643094D01*
X177646895Y-100411446D01*
X177563250Y-100191478D01*
X177440939Y-99989822D01*
X177282183Y-99813111D01*
X177089199Y-99667977D01*
X176864207Y-99561050D01*
X176609425Y-99498964D01*
X176486623Y-99487569D01*
X176220566Y-99503246D01*
X175968144Y-99573846D01*
X175733818Y-99697282D01*
X175522048Y-99871466D01*
X175337296Y-100094311D01*
X175278877Y-100172561D01*
X175225890Y-100231244D01*
X175192644Y-100253678D01*
X175163661Y-100244732D01*
X175086004Y-100215703D01*
X174966549Y-100169026D01*
X174811638Y-100107231D01*
X174627608Y-100032850D01*
X174420800Y-99948412D01*
X174197554Y-99856449D01*
X173995258Y-99772771D01*
X173786314Y-99686366D01*
X173599502Y-99609138D01*
X173441186Y-99543716D01*
X173317731Y-99492731D01*
X173235502Y-99458812D01*
X173200862Y-99444590D01*
X173200452Y-99444425D01*
X173171202Y-99415972D01*
X173171537Y-99361382D01*
X173203020Y-99273609D01*
X173267215Y-99145608D01*
X173272620Y-99135532D01*
X173321250Y-99040481D01*
X173355672Y-98965424D01*
X173368736Y-98925842D01*
X173353298Y-98893400D01*
X173309742Y-98820895D01*
X173243249Y-98716565D01*
X173159002Y-98588539D01*
X173062184Y-98444948D01*
X172967266Y-98303468D01*
X172882510Y-98172611D01*
X172815504Y-98064292D01*
X172771471Y-97986960D01*
X172755632Y-97949062D01*
X172757643Y-97942607D01*
X172789342Y-97897609D01*
X172854819Y-97820727D01*
X172947952Y-97718721D01*
X173062619Y-97598351D01*
X173192700Y-97466379D01*
X173629768Y-97030039D01*
X174629560Y-97709733D01*
X174853114Y-97606402D01*
X174853775Y-97606096D01*
X174996286Y-97544046D01*
X175154982Y-97480640D01*
X175295632Y-97429558D01*
X175318317Y-97421827D01*
X175423630Y-97382852D01*
X175505466Y-97347707D01*
X175547699Y-97323195D01*
X175553663Y-97313212D01*
X175573671Y-97253286D01*
X175599558Y-97151532D01*
X175628630Y-97019068D01*
X175658194Y-96867011D01*
X175666533Y-96821466D01*
X175696893Y-96656685D01*
X175725491Y-96502930D01*
X175749436Y-96375678D01*
X175765840Y-96290402D01*
X175796094Y-96137126D01*
X176434355Y-96137126D01*
X176512835Y-96137160D01*
G37*
X170867372Y-100346436D02*
X170894821Y-100347171D01*
X171087483Y-100355555D01*
X171232691Y-100370366D01*
X171340113Y-100394629D01*
X171419416Y-100431364D01*
X171480270Y-100483597D01*
X171532342Y-100554348D01*
X171533158Y-100555657D01*
X171575640Y-100670056D01*
X171582816Y-100802365D01*
X171556326Y-100929995D01*
X171497809Y-101030355D01*
X171452216Y-101074505D01*
X171315928Y-101159347D01*
X171167342Y-101187931D01*
X171065118Y-101187931D01*
X171104628Y-101093963D01*
X171144496Y-101028977D01*
X171227266Y-100977763D01*
X171244331Y-100972504D01*
X171331276Y-100915903D01*
X171378242Y-100830594D01*
X171380259Y-100732641D01*
X171332356Y-100638106D01*
X171320002Y-100623993D01*
X171266317Y-100576797D01*
X171219512Y-100569003D01*
X171173554Y-100604706D01*
X171122412Y-100688003D01*
X171060052Y-100822988D01*
X171056103Y-100832118D01*
X170986228Y-100981969D01*
X170924328Y-101084316D01*
X170862524Y-101147320D01*
X170792938Y-101179138D01*
X170707692Y-101187931D01*
X170613184Y-101176409D01*
X170492215Y-101118228D01*
X170405312Y-101015875D01*
X170379222Y-100941843D01*
X170364945Y-100837367D01*
X170367994Y-100735917D01*
X170389533Y-100663472D01*
X170394896Y-100655777D01*
X170432368Y-100635341D01*
X170498409Y-100649522D01*
X170550247Y-100674161D01*
X170571828Y-100713670D01*
X170570754Y-100788602D01*
X170576945Y-100892630D01*
X170619689Y-100960605D01*
X170698811Y-100983563D01*
X170701084Y-100983542D01*
X170747014Y-100969629D01*
X170789155Y-100922303D01*
X170837728Y-100830287D01*
X170896210Y-100705151D01*
X170928025Y-100622268D01*
X170925975Y-100574420D01*
X170883949Y-100552063D01*
X170795838Y-100545649D01*
X170655531Y-100545632D01*
X170568919Y-100544917D01*
X170461959Y-100541635D01*
X170388750Y-100536300D01*
X170361609Y-100529585D01*
X170361794Y-100527790D01*
X170376502Y-100488982D01*
X170407544Y-100424709D01*
X170453479Y-100335880D01*
X170867372Y-100346436D01*
G36*
X170867372Y-100346436D02*
G01*
X170894821Y-100347171D01*
X171087483Y-100355555D01*
X171232691Y-100370366D01*
X171340113Y-100394629D01*
X171419416Y-100431364D01*
X171480270Y-100483597D01*
X171532342Y-100554348D01*
X171533158Y-100555657D01*
X171575640Y-100670056D01*
X171582816Y-100802365D01*
X171556326Y-100929995D01*
X171497809Y-101030355D01*
X171452216Y-101074505D01*
X171315928Y-101159347D01*
X171167342Y-101187931D01*
X171065118Y-101187931D01*
X171104628Y-101093963D01*
X171144496Y-101028977D01*
X171227266Y-100977763D01*
X171244331Y-100972504D01*
X171331276Y-100915903D01*
X171378242Y-100830594D01*
X171380259Y-100732641D01*
X171332356Y-100638106D01*
X171320002Y-100623993D01*
X171266317Y-100576797D01*
X171219512Y-100569003D01*
X171173554Y-100604706D01*
X171122412Y-100688003D01*
X171060052Y-100822988D01*
X171056103Y-100832118D01*
X170986228Y-100981969D01*
X170924328Y-101084316D01*
X170862524Y-101147320D01*
X170792938Y-101179138D01*
X170707692Y-101187931D01*
X170613184Y-101176409D01*
X170492215Y-101118228D01*
X170405312Y-101015875D01*
X170379222Y-100941843D01*
X170364945Y-100837367D01*
X170367994Y-100735917D01*
X170389533Y-100663472D01*
X170394896Y-100655777D01*
X170432368Y-100635341D01*
X170498409Y-100649522D01*
X170550247Y-100674161D01*
X170571828Y-100713670D01*
X170570754Y-100788602D01*
X170576945Y-100892630D01*
X170619689Y-100960605D01*
X170698811Y-100983563D01*
X170701084Y-100983542D01*
X170747014Y-100969629D01*
X170789155Y-100922303D01*
X170837728Y-100830287D01*
X170896210Y-100705151D01*
X170928025Y-100622268D01*
X170925975Y-100574420D01*
X170883949Y-100552063D01*
X170795838Y-100545649D01*
X170655531Y-100545632D01*
X170568919Y-100544917D01*
X170461959Y-100541635D01*
X170388750Y-100536300D01*
X170361609Y-100529585D01*
X170361794Y-100527790D01*
X170376502Y-100488982D01*
X170407544Y-100424709D01*
X170453479Y-100335880D01*
X170867372Y-100346436D01*
G37*
X171118773Y-106385871D02*
X171260008Y-106400161D01*
X171371787Y-106428075D01*
X171446234Y-106463949D01*
X171562032Y-106564939D01*
X171633985Y-106701779D01*
X171658719Y-106869283D01*
X171657381Y-106914019D01*
X171629992Y-107045758D01*
X171560993Y-107153968D01*
X171442136Y-107253276D01*
X171433319Y-107259184D01*
X171385892Y-107285921D01*
X171332286Y-107303312D01*
X171259451Y-107313312D01*
X171154341Y-107317878D01*
X171013981Y-107318893D01*
X171003908Y-107318965D01*
X170972256Y-107318938D01*
X170831082Y-107317355D01*
X170732715Y-107311916D01*
X170664010Y-107300643D01*
X170611819Y-107281561D01*
X170562996Y-107252694D01*
X170552865Y-107245592D01*
X170472988Y-107170444D01*
X170412747Y-107084820D01*
X170393198Y-107040852D01*
X170363874Y-106898764D01*
X170632828Y-106898764D01*
X170682759Y-106968621D01*
X170695898Y-106980771D01*
X170735215Y-107004575D01*
X170792326Y-107018628D01*
X170880744Y-107025313D01*
X171013981Y-107027011D01*
X171138778Y-107024101D01*
X171257674Y-107009582D01*
X171332816Y-106979610D01*
X171372107Y-106930589D01*
X171383448Y-106858924D01*
X171381193Y-106831632D01*
X171339840Y-106755176D01*
X171247100Y-106704650D01*
X171103853Y-106680384D01*
X170910980Y-106682706D01*
X170898567Y-106683639D01*
X170792143Y-106697242D01*
X170724654Y-106721465D01*
X170678416Y-106762365D01*
X170635105Y-106830941D01*
X170632828Y-106898764D01*
X170363874Y-106898764D01*
X170360592Y-106882861D01*
X170381683Y-106726613D01*
X170453751Y-106582618D01*
X170574078Y-106461385D01*
X170590197Y-106451150D01*
X170683795Y-106417847D01*
X170814121Y-106395405D01*
X170964629Y-106384516D01*
X171118773Y-106385871D01*
G36*
X171118773Y-106385871D02*
G01*
X171260008Y-106400161D01*
X171371787Y-106428075D01*
X171446234Y-106463949D01*
X171562032Y-106564939D01*
X171633985Y-106701779D01*
X171658719Y-106869283D01*
X171657381Y-106914019D01*
X171629992Y-107045758D01*
X171560993Y-107153968D01*
X171442136Y-107253276D01*
X171433319Y-107259184D01*
X171385892Y-107285921D01*
X171332286Y-107303312D01*
X171259451Y-107313312D01*
X171154341Y-107317878D01*
X171013981Y-107318893D01*
X171003908Y-107318965D01*
X170972256Y-107318938D01*
X170831082Y-107317355D01*
X170732715Y-107311916D01*
X170664010Y-107300643D01*
X170611819Y-107281561D01*
X170562996Y-107252694D01*
X170552865Y-107245592D01*
X170472988Y-107170444D01*
X170412747Y-107084820D01*
X170393198Y-107040852D01*
X170363874Y-106898764D01*
X170632828Y-106898764D01*
X170682759Y-106968621D01*
X170695898Y-106980771D01*
X170735215Y-107004575D01*
X170792326Y-107018628D01*
X170880744Y-107025313D01*
X171013981Y-107027011D01*
X171138778Y-107024101D01*
X171257674Y-107009582D01*
X171332816Y-106979610D01*
X171372107Y-106930589D01*
X171383448Y-106858924D01*
X171381193Y-106831632D01*
X171339840Y-106755176D01*
X171247100Y-106704650D01*
X171103853Y-106680384D01*
X170910980Y-106682706D01*
X170898567Y-106683639D01*
X170792143Y-106697242D01*
X170724654Y-106721465D01*
X170678416Y-106762365D01*
X170635105Y-106830941D01*
X170632828Y-106898764D01*
X170363874Y-106898764D01*
X170360592Y-106882861D01*
X170381683Y-106726613D01*
X170453751Y-106582618D01*
X170574078Y-106461385D01*
X170590197Y-106451150D01*
X170683795Y-106417847D01*
X170814121Y-106395405D01*
X170964629Y-106384516D01*
X171118773Y-106385871D01*
G37*
X171381648Y-99401968D02*
X171442581Y-99443990D01*
X171529141Y-99551435D01*
X171578080Y-99684057D01*
X171584740Y-99825867D01*
X171544464Y-99960872D01*
X171539362Y-99970090D01*
X171480920Y-100045381D01*
X171405785Y-100112698D01*
X171388804Y-100124439D01*
X171349175Y-100146883D01*
X171302142Y-100162918D01*
X171237508Y-100173945D01*
X171145077Y-100181365D01*
X171014651Y-100186579D01*
X170836035Y-100190989D01*
X170805838Y-100191614D01*
X170610059Y-100193620D01*
X170471397Y-100190792D01*
X170388897Y-100183088D01*
X170361609Y-100170466D01*
X170369780Y-100132267D01*
X170394537Y-100067374D01*
X170401777Y-100052094D01*
X170418165Y-100028227D01*
X170445107Y-100011769D01*
X170492167Y-100001005D01*
X170568912Y-99994219D01*
X170684905Y-99989693D01*
X170849713Y-99985713D01*
X170897888Y-99984622D01*
X171050040Y-99980407D01*
X171156524Y-99974936D01*
X171227435Y-99966554D01*
X171272871Y-99953606D01*
X171302928Y-99934439D01*
X171327704Y-99907398D01*
X171371139Y-99827337D01*
X171379502Y-99728846D01*
X171346266Y-99640719D01*
X171277452Y-99577314D01*
X171179080Y-99552988D01*
X171152342Y-99552311D01*
X171103935Y-99539024D01*
X171096550Y-99499796D01*
X171125376Y-99422983D01*
X171134622Y-99405192D01*
X171188994Y-99357109D01*
X171269839Y-99356157D01*
X171381648Y-99401968D01*
G36*
X171381648Y-99401968D02*
G01*
X171442581Y-99443990D01*
X171529141Y-99551435D01*
X171578080Y-99684057D01*
X171584740Y-99825867D01*
X171544464Y-99960872D01*
X171539362Y-99970090D01*
X171480920Y-100045381D01*
X171405785Y-100112698D01*
X171388804Y-100124439D01*
X171349175Y-100146883D01*
X171302142Y-100162918D01*
X171237508Y-100173945D01*
X171145077Y-100181365D01*
X171014651Y-100186579D01*
X170836035Y-100190989D01*
X170805838Y-100191614D01*
X170610059Y-100193620D01*
X170471397Y-100190792D01*
X170388897Y-100183088D01*
X170361609Y-100170466D01*
X170369780Y-100132267D01*
X170394537Y-100067374D01*
X170401777Y-100052094D01*
X170418165Y-100028227D01*
X170445107Y-100011769D01*
X170492167Y-100001005D01*
X170568912Y-99994219D01*
X170684905Y-99989693D01*
X170849713Y-99985713D01*
X170897888Y-99984622D01*
X171050040Y-99980407D01*
X171156524Y-99974936D01*
X171227435Y-99966554D01*
X171272871Y-99953606D01*
X171302928Y-99934439D01*
X171327704Y-99907398D01*
X171371139Y-99827337D01*
X171379502Y-99728846D01*
X171346266Y-99640719D01*
X171277452Y-99577314D01*
X171179080Y-99552988D01*
X171152342Y-99552311D01*
X171103935Y-99539024D01*
X171096550Y-99499796D01*
X171125376Y-99422983D01*
X171134622Y-99405192D01*
X171188994Y-99357109D01*
X171269839Y-99356157D01*
X171381648Y-99401968D01*
G37*
X170838891Y-101363149D02*
X170875674Y-101363218D01*
X171067420Y-101367081D01*
X171212414Y-101378950D01*
X171320490Y-101401725D01*
X171401481Y-101438307D01*
X171465222Y-101491595D01*
X171521545Y-101564490D01*
X171556801Y-101635586D01*
X171584054Y-101749255D01*
X171585602Y-101861060D01*
X171559090Y-101947011D01*
X171555429Y-101953473D01*
X171555821Y-101973401D01*
X171586494Y-101987019D01*
X171656812Y-101996846D01*
X171776143Y-102005402D01*
X172021027Y-102020000D01*
X171981003Y-102114885D01*
X171940980Y-102209770D01*
X171151294Y-102209770D01*
X171142080Y-102209769D01*
X170934917Y-102209377D01*
X170748568Y-102208329D01*
X170590547Y-102206722D01*
X170468370Y-102204655D01*
X170389552Y-102202225D01*
X170361609Y-102199529D01*
X170361703Y-102198475D01*
X170371856Y-102162647D01*
X170393661Y-102097345D01*
X170425712Y-102005402D01*
X170837009Y-102005402D01*
X170998615Y-102004818D01*
X171115823Y-102002104D01*
X171195585Y-101995858D01*
X171248469Y-101984680D01*
X171285043Y-101967168D01*
X171315877Y-101941922D01*
X171332275Y-101924710D01*
X171377693Y-101831636D01*
X171373672Y-101729051D01*
X171319968Y-101635043D01*
X171306641Y-101621358D01*
X171278968Y-101599439D01*
X171242386Y-101584440D01*
X171187000Y-101575053D01*
X171102912Y-101569968D01*
X170980227Y-101567877D01*
X170809049Y-101567471D01*
X170722231Y-101567276D01*
X170579435Y-101566010D01*
X170465077Y-101563761D01*
X170389140Y-101560758D01*
X170361609Y-101557230D01*
X170361703Y-101556176D01*
X170371856Y-101520348D01*
X170393661Y-101455046D01*
X170425712Y-101363103D01*
X170838891Y-101363149D01*
G36*
X170838891Y-101363149D02*
G01*
X170875674Y-101363218D01*
X171067420Y-101367081D01*
X171212414Y-101378950D01*
X171320490Y-101401725D01*
X171401481Y-101438307D01*
X171465222Y-101491595D01*
X171521545Y-101564490D01*
X171556801Y-101635586D01*
X171584054Y-101749255D01*
X171585602Y-101861060D01*
X171559090Y-101947011D01*
X171555429Y-101953473D01*
X171555821Y-101973401D01*
X171586494Y-101987019D01*
X171656812Y-101996846D01*
X171776143Y-102005402D01*
X172021027Y-102020000D01*
X171981003Y-102114885D01*
X171940980Y-102209770D01*
X171151294Y-102209770D01*
X171142080Y-102209769D01*
X170934917Y-102209377D01*
X170748568Y-102208329D01*
X170590547Y-102206722D01*
X170468370Y-102204655D01*
X170389552Y-102202225D01*
X170361609Y-102199529D01*
X170361703Y-102198475D01*
X170371856Y-102162647D01*
X170393661Y-102097345D01*
X170425712Y-102005402D01*
X170837009Y-102005402D01*
X170998615Y-102004818D01*
X171115823Y-102002104D01*
X171195585Y-101995858D01*
X171248469Y-101984680D01*
X171285043Y-101967168D01*
X171315877Y-101941922D01*
X171332275Y-101924710D01*
X171377693Y-101831636D01*
X171373672Y-101729051D01*
X171319968Y-101635043D01*
X171306641Y-101621358D01*
X171278968Y-101599439D01*
X171242386Y-101584440D01*
X171187000Y-101575053D01*
X171102912Y-101569968D01*
X170980227Y-101567877D01*
X170809049Y-101567471D01*
X170722231Y-101567276D01*
X170579435Y-101566010D01*
X170465077Y-101563761D01*
X170389140Y-101560758D01*
X170361609Y-101557230D01*
X170361703Y-101556176D01*
X170371856Y-101520348D01*
X170393661Y-101455046D01*
X170425712Y-101363103D01*
X170838891Y-101363149D01*
G37*
X170949679Y-104165237D02*
X170974713Y-104181623D01*
X170973191Y-104196179D01*
X170945504Y-104265792D01*
X170894591Y-104344697D01*
X170835657Y-104411820D01*
X170783906Y-104446087D01*
X170713709Y-104481707D01*
X170649862Y-104554711D01*
X170624368Y-104639485D01*
X170631739Y-104670558D01*
X170668846Y-104731891D01*
X170720356Y-104785315D01*
X170767087Y-104808161D01*
X170767260Y-104808154D01*
X170786751Y-104784611D01*
X171106709Y-104784611D01*
X171125497Y-104804521D01*
X171189876Y-104808161D01*
X171269999Y-104793035D01*
X171342811Y-104740597D01*
X171380561Y-104664677D01*
X171376749Y-104580040D01*
X171324879Y-104501447D01*
X171289035Y-104470555D01*
X171261756Y-104463219D01*
X171235735Y-104492970D01*
X171196744Y-104567101D01*
X171195641Y-104569274D01*
X171153991Y-104656733D01*
X171120765Y-104734974D01*
X171106709Y-104784611D01*
X170786751Y-104784611D01*
X170788720Y-104782233D01*
X170827435Y-104713127D01*
X170877963Y-104611249D01*
X170934866Y-104487011D01*
X170935167Y-104486328D01*
X170995262Y-104351355D01*
X171038560Y-104260884D01*
X171071821Y-104206039D01*
X171101806Y-104177944D01*
X171135274Y-104167724D01*
X171178985Y-104166503D01*
X171283735Y-104177251D01*
X171426051Y-104230389D01*
X171537889Y-104319342D01*
X171615324Y-104434448D01*
X171654432Y-104566045D01*
X171651289Y-104704472D01*
X171601970Y-104840065D01*
X171502553Y-104963164D01*
X171404171Y-105031366D01*
X171263739Y-105080356D01*
X171189876Y-105088322D01*
X171086671Y-105099452D01*
X170865361Y-105090168D01*
X170818474Y-105084926D01*
X170651591Y-105045868D01*
X170524674Y-104975290D01*
X170427398Y-104867955D01*
X170423384Y-104861888D01*
X170366294Y-104725440D01*
X170361214Y-104582973D01*
X170404689Y-104445696D01*
X170493266Y-104324819D01*
X170623491Y-104231552D01*
X170626631Y-104229986D01*
X170707499Y-104198993D01*
X170799407Y-104176292D01*
X170885689Y-104164250D01*
X170949679Y-104165237D01*
G36*
X170949679Y-104165237D02*
G01*
X170974713Y-104181623D01*
X170973191Y-104196179D01*
X170945504Y-104265792D01*
X170894591Y-104344697D01*
X170835657Y-104411820D01*
X170783906Y-104446087D01*
X170713709Y-104481707D01*
X170649862Y-104554711D01*
X170624368Y-104639485D01*
X170631739Y-104670558D01*
X170668846Y-104731891D01*
X170720356Y-104785315D01*
X170767087Y-104808161D01*
X170767260Y-104808154D01*
X170786751Y-104784611D01*
X171106709Y-104784611D01*
X171125497Y-104804521D01*
X171189876Y-104808161D01*
X171269999Y-104793035D01*
X171342811Y-104740597D01*
X171380561Y-104664677D01*
X171376749Y-104580040D01*
X171324879Y-104501447D01*
X171289035Y-104470555D01*
X171261756Y-104463219D01*
X171235735Y-104492970D01*
X171196744Y-104567101D01*
X171195641Y-104569274D01*
X171153991Y-104656733D01*
X171120765Y-104734974D01*
X171106709Y-104784611D01*
X170786751Y-104784611D01*
X170788720Y-104782233D01*
X170827435Y-104713127D01*
X170877963Y-104611249D01*
X170934866Y-104487011D01*
X170935167Y-104486328D01*
X170995262Y-104351355D01*
X171038560Y-104260884D01*
X171071821Y-104206039D01*
X171101806Y-104177944D01*
X171135274Y-104167724D01*
X171178985Y-104166503D01*
X171283735Y-104177251D01*
X171426051Y-104230389D01*
X171537889Y-104319342D01*
X171615324Y-104434448D01*
X171654432Y-104566045D01*
X171651289Y-104704472D01*
X171601970Y-104840065D01*
X171502553Y-104963164D01*
X171404171Y-105031366D01*
X171263739Y-105080356D01*
X171189876Y-105088322D01*
X171086671Y-105099452D01*
X170865361Y-105090168D01*
X170818474Y-105084926D01*
X170651591Y-105045868D01*
X170524674Y-104975290D01*
X170427398Y-104867955D01*
X170423384Y-104861888D01*
X170366294Y-104725440D01*
X170361214Y-104582973D01*
X170404689Y-104445696D01*
X170493266Y-104324819D01*
X170623491Y-104231552D01*
X170626631Y-104229986D01*
X170707499Y-104198993D01*
X170799407Y-104176292D01*
X170885689Y-104164250D01*
X170949679Y-104165237D01*
G37*
X170975492Y-96166797D02*
X171144699Y-96171293D01*
X171270231Y-96182747D01*
X171361637Y-96203828D01*
X171428468Y-96237206D01*
X171480274Y-96285550D01*
X171526607Y-96351531D01*
X171564844Y-96435594D01*
X171587816Y-96590807D01*
X171585190Y-96661628D01*
X171569298Y-96724194D01*
X171529678Y-96782446D01*
X171455924Y-96857418D01*
X171403837Y-96905633D01*
X171336214Y-96955858D01*
X171272832Y-96978510D01*
X171192416Y-96983793D01*
X171060799Y-96983793D01*
X171107215Y-96894035D01*
X171163775Y-96822904D01*
X171239960Y-96774183D01*
X171260674Y-96765814D01*
X171340959Y-96702056D01*
X171381216Y-96613470D01*
X171377298Y-96516873D01*
X171325057Y-96429080D01*
X171282630Y-96391936D01*
X171228353Y-96370300D01*
X171180046Y-96393461D01*
X171131455Y-96465479D01*
X171076323Y-96590410D01*
X171068708Y-96609368D01*
X171018875Y-96723105D01*
X170969735Y-96820706D01*
X170930920Y-96882803D01*
X170861589Y-96944999D01*
X170750949Y-96986346D01*
X170632218Y-96981957D01*
X170519852Y-96933037D01*
X170428310Y-96840797D01*
X170389342Y-96766110D01*
X170362056Y-96621832D01*
X170365737Y-96541656D01*
X170385640Y-96467435D01*
X170427402Y-96438960D01*
X170496180Y-96449608D01*
X170505274Y-96452705D01*
X170553502Y-96477268D01*
X170571755Y-96518165D01*
X170570534Y-96596079D01*
X170568874Y-96651091D01*
X170583119Y-96715459D01*
X170625708Y-96759561D01*
X170678143Y-96784680D01*
X170733071Y-96787481D01*
X170733392Y-96787352D01*
X170763072Y-96754785D01*
X170806265Y-96685083D01*
X170854539Y-96594898D01*
X170899461Y-96500883D01*
X170932598Y-96419689D01*
X170945517Y-96367968D01*
X170932866Y-96360274D01*
X170873332Y-96350588D01*
X170776113Y-96343954D01*
X170653563Y-96341494D01*
X170568737Y-96340922D01*
X170461906Y-96338225D01*
X170388743Y-96333821D01*
X170361609Y-96328270D01*
X170370728Y-96299254D01*
X170395491Y-96240684D01*
X170429373Y-96166322D01*
X170864067Y-96166322D01*
X170975492Y-96166797D01*
G36*
X170975492Y-96166797D02*
G01*
X171144699Y-96171293D01*
X171270231Y-96182747D01*
X171361637Y-96203828D01*
X171428468Y-96237206D01*
X171480274Y-96285550D01*
X171526607Y-96351531D01*
X171564844Y-96435594D01*
X171587816Y-96590807D01*
X171585190Y-96661628D01*
X171569298Y-96724194D01*
X171529678Y-96782446D01*
X171455924Y-96857418D01*
X171403837Y-96905633D01*
X171336214Y-96955858D01*
X171272832Y-96978510D01*
X171192416Y-96983793D01*
X171060799Y-96983793D01*
X171107215Y-96894035D01*
X171163775Y-96822904D01*
X171239960Y-96774183D01*
X171260674Y-96765814D01*
X171340959Y-96702056D01*
X171381216Y-96613470D01*
X171377298Y-96516873D01*
X171325057Y-96429080D01*
X171282630Y-96391936D01*
X171228353Y-96370300D01*
X171180046Y-96393461D01*
X171131455Y-96465479D01*
X171076323Y-96590410D01*
X171068708Y-96609368D01*
X171018875Y-96723105D01*
X170969735Y-96820706D01*
X170930920Y-96882803D01*
X170861589Y-96944999D01*
X170750949Y-96986346D01*
X170632218Y-96981957D01*
X170519852Y-96933037D01*
X170428310Y-96840797D01*
X170389342Y-96766110D01*
X170362056Y-96621832D01*
X170365737Y-96541656D01*
X170385640Y-96467435D01*
X170427402Y-96438960D01*
X170496180Y-96449608D01*
X170505274Y-96452705D01*
X170553502Y-96477268D01*
X170571755Y-96518165D01*
X170570534Y-96596079D01*
X170568874Y-96651091D01*
X170583119Y-96715459D01*
X170625708Y-96759561D01*
X170678143Y-96784680D01*
X170733071Y-96787481D01*
X170733392Y-96787352D01*
X170763072Y-96754785D01*
X170806265Y-96685083D01*
X170854539Y-96594898D01*
X170899461Y-96500883D01*
X170932598Y-96419689D01*
X170945517Y-96367968D01*
X170932866Y-96360274D01*
X170873332Y-96350588D01*
X170776113Y-96343954D01*
X170653563Y-96341494D01*
X170568737Y-96340922D01*
X170461906Y-96338225D01*
X170388743Y-96333821D01*
X170361609Y-96328270D01*
X170370728Y-96299254D01*
X170395491Y-96240684D01*
X170429373Y-96166322D01*
X170864067Y-96166322D01*
X170975492Y-96166797D01*
G37*
X170849060Y-94268447D02*
X170810491Y-94332175D01*
X170719992Y-94387567D01*
X170691017Y-94399131D01*
X170608959Y-94463788D01*
X170567653Y-94551804D01*
X170571367Y-94647637D01*
X170624368Y-94735747D01*
X170657418Y-94766028D01*
X170707280Y-94793489D01*
X170752584Y-94784899D01*
X170799210Y-94735463D01*
X170853042Y-94640389D01*
X170919961Y-94494885D01*
X171050944Y-94195632D01*
X171180702Y-94187691D01*
X171277745Y-94191196D01*
X171400383Y-94235336D01*
X171467966Y-94291050D01*
X171543460Y-94406561D01*
X171581597Y-94543588D01*
X171578578Y-94685237D01*
X171530607Y-94814617D01*
X171512187Y-94843099D01*
X171455189Y-94908428D01*
X171383084Y-94953106D01*
X171285147Y-94980641D01*
X171150649Y-94994541D01*
X171062147Y-94996378D01*
X170968864Y-94998313D01*
X170891054Y-94997744D01*
X170737746Y-94990612D01*
X170625559Y-94971948D01*
X170542446Y-94937537D01*
X170476359Y-94883162D01*
X170421749Y-94812961D01*
X171003908Y-94812961D01*
X171012104Y-94818056D01*
X171062147Y-94820101D01*
X171142586Y-94812812D01*
X171221247Y-94794452D01*
X171320349Y-94737188D01*
X171376192Y-94654524D01*
X171383750Y-94555784D01*
X171338000Y-94450289D01*
X171315124Y-94421053D01*
X171263351Y-94385652D01*
X171212185Y-94400453D01*
X171157558Y-94467797D01*
X171095403Y-94590027D01*
X171086399Y-94610253D01*
X171044507Y-94706970D01*
X171015042Y-94779334D01*
X171003908Y-94812961D01*
X170421749Y-94812961D01*
X170415253Y-94804610D01*
X170387465Y-94754630D01*
X170368749Y-94674513D01*
X170370226Y-94561970D01*
X170376155Y-94499050D01*
X170394258Y-94423153D01*
X170433609Y-94362487D01*
X170506934Y-94291912D01*
X170517644Y-94282482D01*
X170600062Y-94219034D01*
X170671844Y-94188762D01*
X170756966Y-94181034D01*
X170882054Y-94181034D01*
X170849060Y-94268447D01*
G36*
X170849060Y-94268447D02*
G01*
X170810491Y-94332175D01*
X170719992Y-94387567D01*
X170691017Y-94399131D01*
X170608959Y-94463788D01*
X170567653Y-94551804D01*
X170571367Y-94647637D01*
X170624368Y-94735747D01*
X170657418Y-94766028D01*
X170707280Y-94793489D01*
X170752584Y-94784899D01*
X170799210Y-94735463D01*
X170853042Y-94640389D01*
X170919961Y-94494885D01*
X171050944Y-94195632D01*
X171180702Y-94187691D01*
X171277745Y-94191196D01*
X171400383Y-94235336D01*
X171467966Y-94291050D01*
X171543460Y-94406561D01*
X171581597Y-94543588D01*
X171578578Y-94685237D01*
X171530607Y-94814617D01*
X171512187Y-94843099D01*
X171455189Y-94908428D01*
X171383084Y-94953106D01*
X171285147Y-94980641D01*
X171150649Y-94994541D01*
X171062147Y-94996378D01*
X170968864Y-94998313D01*
X170891054Y-94997744D01*
X170737746Y-94990612D01*
X170625559Y-94971948D01*
X170542446Y-94937537D01*
X170476359Y-94883162D01*
X170421749Y-94812961D01*
X171003908Y-94812961D01*
X171012104Y-94818056D01*
X171062147Y-94820101D01*
X171142586Y-94812812D01*
X171221247Y-94794452D01*
X171320349Y-94737188D01*
X171376192Y-94654524D01*
X171383750Y-94555784D01*
X171338000Y-94450289D01*
X171315124Y-94421053D01*
X171263351Y-94385652D01*
X171212185Y-94400453D01*
X171157558Y-94467797D01*
X171095403Y-94590027D01*
X171086399Y-94610253D01*
X171044507Y-94706970D01*
X171015042Y-94779334D01*
X171003908Y-94812961D01*
X170421749Y-94812961D01*
X170415253Y-94804610D01*
X170387465Y-94754630D01*
X170368749Y-94674513D01*
X170370226Y-94561970D01*
X170376155Y-94499050D01*
X170394258Y-94423153D01*
X170433609Y-94362487D01*
X170506934Y-94291912D01*
X170517644Y-94282482D01*
X170600062Y-94219034D01*
X170671844Y-94188762D01*
X170756966Y-94181034D01*
X170882054Y-94181034D01*
X170849060Y-94268447D01*
G37*
D11*
X162075000Y-95537500D02*
X167625000Y-95537500D01*
X162075000Y-106087500D02*
X167625000Y-106087500D01*
X167625000Y-95537500D02*
X167625000Y-95892500D01*
X167625000Y-106087500D02*
X167625000Y-105732500D01*
X162075000Y-105812500D02*
X160550000Y-105812500D01*
X162075000Y-95537500D02*
X162075000Y-95892500D01*
X162075000Y-106087500D02*
X162075000Y-105812500D01*
D13*
X131110000Y-115180000D02*
X125600000Y-115180000D01*
X131110000Y-111880000D02*
X131110000Y-115180000D01*
X131110000Y-111880000D02*
X125600000Y-111880000D01*
X154310000Y-103137500D02*
X154310000Y-102487500D01*
X154310000Y-103137500D02*
X154310000Y-103787500D01*
X151190000Y-103137500D02*
X151190000Y-101462500D01*
X151190000Y-103137500D02*
X151190000Y-103787500D01*
X155115000Y-111189564D02*
X155115000Y-110735436D01*
X156585000Y-111189564D02*
X156585000Y-110735436D01*
X150015000Y-111189564D02*
X150015000Y-110735436D01*
X151485000Y-111189564D02*
X151485000Y-110735436D01*
X154450000Y-85752500D02*
X153800000Y-85752500D01*
X154450000Y-85752500D02*
X155100000Y-85752500D01*
X154450000Y-88872500D02*
X152775000Y-88872500D01*
X154450000Y-88872500D02*
X155100000Y-88872500D01*
X156535000Y-94347936D02*
X156535000Y-94802064D01*
X155065000Y-94347936D02*
X155065000Y-94802064D01*
X152565000Y-111189564D02*
X152565000Y-110735436D01*
X154035000Y-111189564D02*
X154035000Y-110735436D01*
X153995000Y-94347936D02*
X153995000Y-94802064D01*
X152525000Y-94347936D02*
X152525000Y-94802064D01*
X148915000Y-94347936D02*
X148915000Y-94802064D01*
X147445000Y-94347936D02*
X147445000Y-94802064D01*
X146375000Y-94347936D02*
X146375000Y-94802064D01*
X144905000Y-94347936D02*
X144905000Y-94802064D01*
X149860000Y-103137500D02*
X149860000Y-102487500D01*
X149860000Y-103137500D02*
X149860000Y-103787500D01*
X146740000Y-103137500D02*
X146740000Y-101462500D01*
X146740000Y-103137500D02*
X146740000Y-103787500D01*
X131338748Y-98795000D02*
X131861252Y-98795000D01*
X131338748Y-100265000D02*
X131861252Y-100265000D01*
X150065000Y-87427064D02*
X150065000Y-86972936D01*
X151535000Y-87427064D02*
X151535000Y-86972936D01*
X158760000Y-103137500D02*
X158760000Y-102487500D01*
X158760000Y-103137500D02*
X158760000Y-103787500D01*
X155640000Y-103137500D02*
X155640000Y-101462500D01*
X155640000Y-103137500D02*
X155640000Y-103787500D01*
X142365000Y-111189564D02*
X142365000Y-110735436D01*
X143835000Y-111189564D02*
X143835000Y-110735436D01*
X130070000Y-97900000D02*
X130070000Y-97630000D01*
X130070000Y-97630000D02*
X131170000Y-97630000D01*
X130070000Y-91270000D02*
X132900000Y-91270000D01*
X130070000Y-91000000D02*
X130070000Y-91270000D01*
X123650000Y-97900000D02*
X130070000Y-97900000D01*
X123650000Y-91000000D02*
X130070000Y-91000000D01*
X144915000Y-111189564D02*
X144915000Y-110735436D01*
X146385000Y-111189564D02*
X146385000Y-110735436D01*
X156750000Y-92385000D02*
X156750000Y-86875000D01*
X160050000Y-92385000D02*
X156750000Y-92385000D01*
X160050000Y-92385000D02*
X160050000Y-86875000D01*
X138960000Y-113380000D02*
X138960000Y-112130000D01*
X139585000Y-112755000D02*
X138335000Y-112755000D01*
X131904437Y-111890000D02*
X134690000Y-111890000D01*
X131904437Y-111890000D02*
X130840000Y-110825563D01*
X140495563Y-111890000D02*
X137710000Y-111890000D01*
X140495563Y-111890000D02*
X141560000Y-110825563D01*
X130840000Y-110825563D02*
X130840000Y-101170000D01*
X141560000Y-110825563D02*
X141560000Y-101170000D01*
X130840000Y-101170000D02*
X134690000Y-101170000D01*
X141560000Y-101170000D02*
X137710000Y-101170000D01*
X123365010Y-110079457D02*
X122995543Y-109709990D01*
X124404457Y-109040010D02*
X124034990Y-108670543D01*
X151455000Y-94347936D02*
X151455000Y-94802064D01*
X149985000Y-94347936D02*
X149985000Y-94802064D01*
X145410000Y-103137500D02*
X145410000Y-102487500D01*
X145410000Y-103137500D02*
X145410000Y-103787500D01*
X142290000Y-103137500D02*
X142290000Y-101462500D01*
X142290000Y-103137500D02*
X142290000Y-103787500D01*
X143835000Y-94347936D02*
X143835000Y-94802064D01*
X142365000Y-94347936D02*
X142365000Y-94802064D01*
X147465000Y-111189564D02*
X147465000Y-110735436D01*
X148935000Y-111189564D02*
X148935000Y-110735436D01*
X128647500Y-109167500D02*
X128647500Y-108380000D01*
X129041250Y-108773750D02*
X128253750Y-108773750D01*
X124454437Y-108140000D02*
X125740000Y-108140000D01*
X124454437Y-108140000D02*
X123390000Y-107075563D01*
X129145563Y-108140000D02*
X127860000Y-108140000D01*
X129145563Y-108140000D02*
X130210000Y-107075563D01*
X123390000Y-107075563D02*
X123390000Y-101320000D01*
X130210000Y-107075563D02*
X130210000Y-101320000D01*
X123390000Y-101320000D02*
X125740000Y-101320000D01*
X130210000Y-101320000D02*
X127860000Y-101320000D01*
X133227064Y-117935000D02*
X132772936Y-117935000D01*
X133227064Y-116465000D02*
X132772936Y-116465000D01*
%LPC*%
D14*
X161300000Y-105257500D03*
X161300000Y-103987500D03*
X161300000Y-102717500D03*
X161300000Y-101447500D03*
X161300000Y-100177500D03*
X161300000Y-98907500D03*
X161300000Y-97637500D03*
X161300000Y-96367500D03*
X168400000Y-96367500D03*
X168400000Y-97637500D03*
X168400000Y-98907500D03*
X168400000Y-100177500D03*
X168400000Y-101447500D03*
X168400000Y-102717500D03*
X168400000Y-103987500D03*
X168400000Y-105257500D03*
D15*
X174800000Y-111460000D03*
D16*
X174800000Y-114000000D03*
X172260000Y-111460000D03*
X172260000Y-114000000D03*
X169720000Y-111460000D03*
X169720000Y-114000000D03*
D17*
X143120000Y-97675000D03*
X145660000Y-97675000D03*
X148200000Y-97675000D03*
X150740000Y-97675000D03*
X153280000Y-97675000D03*
X155820000Y-97675000D03*
X155820000Y-107835000D03*
X153280000Y-107835000D03*
X150740000Y-107835000D03*
X148200000Y-107835000D03*
X145660000Y-107835000D03*
D18*
X143120000Y-107835000D03*
D19*
X161840000Y-84995000D03*
D20*
X161840000Y-92495000D03*
D19*
X136440000Y-84995000D03*
X142840000Y-84995000D03*
X139640000Y-92495000D03*
X127740000Y-120335000D03*
D20*
X125200000Y-120335000D03*
D21*
X127740000Y-122875000D03*
X125200000Y-122875000D03*
D19*
X137240000Y-120275000D03*
X134700000Y-120275000D03*
D20*
X132160000Y-120275000D03*
D21*
X137240000Y-122815000D03*
X134700000Y-122815000D03*
X132160000Y-122815000D03*
D15*
X169720000Y-117860000D03*
D16*
X172260000Y-117860000D03*
X174800000Y-117860000D03*
D22*
X169350000Y-89800000D03*
X174230000Y-89800000D03*
D19*
X125120000Y-86000000D03*
X127660000Y-86000000D03*
D20*
X130200000Y-86000000D03*
D21*
X125120000Y-83460000D03*
X127660000Y-83460000D03*
X130200000Y-83460000D03*
D23*
X129600000Y-113530000D03*
X125600000Y-113530000D03*
D24*
X151800000Y-102200000D03*
X153700000Y-102200000D03*
X152750000Y-104075000D03*
D25*
X155850000Y-111875000D03*
X155850000Y-110050000D03*
X150750000Y-111875000D03*
X150750000Y-110050000D03*
D26*
X153512500Y-88262500D03*
X153512500Y-86362500D03*
X155387500Y-87312500D03*
D27*
X155800000Y-93662500D03*
X155800000Y-95487500D03*
D25*
X153300000Y-111875000D03*
X153300000Y-110050000D03*
D27*
X153260000Y-93662500D03*
X153260000Y-95487500D03*
X148180000Y-93662500D03*
X148180000Y-95487500D03*
X145640000Y-93662500D03*
X145640000Y-95487500D03*
D24*
X147350000Y-102200000D03*
X149250000Y-102200000D03*
X148300000Y-104075000D03*
D28*
X130650000Y-99530000D03*
X132550000Y-99530000D03*
D25*
X150800000Y-88112500D03*
X150800000Y-86287500D03*
D24*
X156250000Y-102200000D03*
X158150000Y-102200000D03*
X157200000Y-104075000D03*
D25*
X143100000Y-111875000D03*
X143100000Y-110050000D03*
D29*
X131800000Y-92170000D03*
D30*
X125500000Y-94450000D03*
D29*
X131800000Y-96730000D03*
D25*
X145650000Y-111875000D03*
X145650000Y-110050000D03*
D31*
X158400000Y-90875000D03*
X158400000Y-86875000D03*
D32*
X136200000Y-110730000D03*
X136200000Y-102330000D03*
D33*
X124371751Y-110046751D03*
X123028249Y-108703249D03*
D27*
X150720000Y-93662500D03*
X150720000Y-95487500D03*
D24*
X142900000Y-102200000D03*
X144800000Y-102200000D03*
X143850000Y-104075000D03*
D27*
X143100000Y-93662500D03*
X143100000Y-95487500D03*
D25*
X148200000Y-111875000D03*
X148200000Y-110050000D03*
D34*
X126800000Y-107430000D03*
X126800000Y-102030000D03*
D35*
X133912500Y-117200000D03*
X132087500Y-117200000D03*
%LPD*%
M02*
