G04 #@! TF.GenerationSoftware,KiCad,Pcbnew,7.0.5-7.0.5~ubuntu20.04.1*
G04 #@! TF.CreationDate,2023-07-24T22:04:43+03:00*
G04 #@! TF.ProjectId,hardware,68617264-7761-4726-952e-6b696361645f,rev?*
G04 #@! TF.SameCoordinates,Original*
G04 #@! TF.FileFunction,Copper,L1,Top*
G04 #@! TF.FilePolarity,Positive*
%FSLAX46Y46*%
G04 Gerber Fmt 4.6, Leading zero omitted, Abs format (unit mm)*
G04 Created by KiCad (PCBNEW 7.0.5-7.0.5~ubuntu20.04.1) date 2023-07-24 22:04:43*
%MOMM*%
%LPD*%
G01*
G04 APERTURE LIST*
G04 Aperture macros list*
%AMRoundRect*
0 Rectangle with rounded corners*
0 $1 Rounding radius*
0 $2 $3 $4 $5 $6 $7 $8 $9 X,Y pos of 4 corners*
0 Add a 4 corners polygon primitive as box body*
4,1,4,$2,$3,$4,$5,$6,$7,$8,$9,$2,$3,0*
0 Add four circle primitives for the rounded corners*
1,1,$1+$1,$2,$3*
1,1,$1+$1,$4,$5*
1,1,$1+$1,$6,$7*
1,1,$1+$1,$8,$9*
0 Add four rect primitives between the rounded corners*
20,1,$1+$1,$2,$3,$4,$5,0*
20,1,$1+$1,$4,$5,$6,$7,0*
20,1,$1+$1,$6,$7,$8,$9,0*
20,1,$1+$1,$8,$9,$2,$3,0*%
G04 Aperture macros list end*
G04 #@! TA.AperFunction,SMDPad,CuDef*
%ADD10RoundRect,0.250000X0.262500X0.450000X-0.262500X0.450000X-0.262500X-0.450000X0.262500X-0.450000X0*%
G04 #@! TD*
G04 #@! TA.AperFunction,ComponentPad*
%ADD11R,1.700000X1.700000*%
G04 #@! TD*
G04 #@! TA.AperFunction,ComponentPad*
%ADD12O,1.700000X1.700000*%
G04 #@! TD*
G04 #@! TA.AperFunction,SMDPad,CuDef*
%ADD13R,3.000000X2.500000*%
G04 #@! TD*
G04 #@! TA.AperFunction,ComponentPad*
%ADD14C,1.524000*%
G04 #@! TD*
G04 #@! TA.AperFunction,ComponentPad*
%ADD15R,1.524000X1.524000*%
G04 #@! TD*
G04 #@! TA.AperFunction,SMDPad,CuDef*
%ADD16RoundRect,0.250000X0.250000X0.475000X-0.250000X0.475000X-0.250000X-0.475000X0.250000X-0.475000X0*%
G04 #@! TD*
G04 #@! TA.AperFunction,SMDPad,CuDef*
%ADD17RoundRect,0.250000X0.450000X-0.262500X0.450000X0.262500X-0.450000X0.262500X-0.450000X-0.262500X0*%
G04 #@! TD*
G04 #@! TA.AperFunction,SMDPad,CuDef*
%ADD18R,1.550000X1.300000*%
G04 #@! TD*
G04 #@! TA.AperFunction,SMDPad,CuDef*
%ADD19RoundRect,0.243750X0.243750X0.456250X-0.243750X0.456250X-0.243750X-0.456250X0.243750X-0.456250X0*%
G04 #@! TD*
G04 #@! TA.AperFunction,ComponentPad*
%ADD20C,2.200000*%
G04 #@! TD*
G04 #@! TA.AperFunction,ComponentPad*
%ADD21R,2.200000X2.200000*%
G04 #@! TD*
G04 #@! TA.AperFunction,SMDPad,CuDef*
%ADD22RoundRect,0.150000X0.875000X0.150000X-0.875000X0.150000X-0.875000X-0.150000X0.875000X-0.150000X0*%
G04 #@! TD*
G04 #@! TA.AperFunction,SMDPad,CuDef*
%ADD23RoundRect,0.250000X-0.450000X0.262500X-0.450000X-0.262500X0.450000X-0.262500X0.450000X0.262500X0*%
G04 #@! TD*
G04 #@! TA.AperFunction,SMDPad,CuDef*
%ADD24RoundRect,0.250000X-0.250000X-0.475000X0.250000X-0.475000X0.250000X0.475000X-0.250000X0.475000X0*%
G04 #@! TD*
G04 #@! TA.AperFunction,ComponentPad*
%ADD25C,1.500000*%
G04 #@! TD*
G04 #@! TA.AperFunction,SMDPad,CuDef*
%ADD26RoundRect,0.225000X0.225000X0.375000X-0.225000X0.375000X-0.225000X-0.375000X0.225000X-0.375000X0*%
G04 #@! TD*
G04 #@! TA.AperFunction,SMDPad,CuDef*
%ADD27RoundRect,0.150000X0.587500X0.150000X-0.587500X0.150000X-0.587500X-0.150000X0.587500X-0.150000X0*%
G04 #@! TD*
G04 #@! TA.AperFunction,ViaPad*
%ADD28C,0.800000*%
G04 #@! TD*
G04 #@! TA.AperFunction,ViaPad*
%ADD29C,0.700000*%
G04 #@! TD*
G04 #@! TA.AperFunction,Conductor*
%ADD30C,0.500000*%
G04 #@! TD*
G04 #@! TA.AperFunction,Conductor*
%ADD31C,1.200000*%
G04 #@! TD*
G04 #@! TA.AperFunction,Conductor*
%ADD32C,0.300000*%
G04 #@! TD*
G04 #@! TA.AperFunction,Conductor*
%ADD33C,0.700000*%
G04 #@! TD*
G04 APERTURE END LIST*
D10*
X161912500Y-121800000D03*
X160087500Y-121800000D03*
D11*
X174800000Y-111460000D03*
D12*
X174800000Y-114000000D03*
X172260000Y-111460000D03*
X172260000Y-114000000D03*
X169720000Y-111460000D03*
X169720000Y-114000000D03*
D13*
X154800000Y-115275000D03*
X162800000Y-115275000D03*
D14*
X143120000Y-97675000D03*
X145660000Y-97675000D03*
X148200000Y-97675000D03*
X150740000Y-97675000D03*
X153280000Y-97675000D03*
X155820000Y-97675000D03*
X155820000Y-107835000D03*
X153280000Y-107835000D03*
X150740000Y-107835000D03*
X148200000Y-107835000D03*
X145660000Y-107835000D03*
D15*
X143120000Y-107835000D03*
D16*
X169850000Y-85400000D03*
X167950000Y-85400000D03*
D17*
X178600000Y-112312500D03*
X178600000Y-110487500D03*
D10*
X152512500Y-121800000D03*
X150687500Y-121800000D03*
D18*
X132275000Y-114725000D03*
X124325000Y-114725000D03*
X132275000Y-110225000D03*
X124325000Y-110225000D03*
X132275000Y-106225000D03*
X124325000Y-106225000D03*
X132275000Y-101725000D03*
X124325000Y-101725000D03*
D19*
X135262500Y-111800000D03*
X137137500Y-111800000D03*
D10*
X144112500Y-114000000D03*
X142287500Y-114000000D03*
D20*
X161840000Y-84995000D03*
D21*
X161840000Y-92495000D03*
D20*
X136440000Y-84995000D03*
X142840000Y-84995000D03*
X139640000Y-92495000D03*
D19*
X142262500Y-111800000D03*
X144137500Y-111800000D03*
D18*
X132275000Y-97725000D03*
X124325000Y-97725000D03*
X132275000Y-93225000D03*
X124325000Y-93225000D03*
D22*
X176700000Y-106885000D03*
X176700000Y-105615000D03*
X176700000Y-104345000D03*
X176700000Y-103075000D03*
X176700000Y-101805000D03*
X176700000Y-100535000D03*
X176700000Y-99265000D03*
X176700000Y-97995000D03*
X176700000Y-96725000D03*
X176700000Y-95455000D03*
X167400000Y-95455000D03*
X167400000Y-96725000D03*
X167400000Y-97995000D03*
X167400000Y-99265000D03*
X167400000Y-100535000D03*
X167400000Y-101805000D03*
X167400000Y-103075000D03*
X167400000Y-104345000D03*
X167400000Y-105615000D03*
X167400000Y-106885000D03*
D23*
X121800000Y-93687500D03*
X121800000Y-95512500D03*
D24*
X175150000Y-85400000D03*
X177050000Y-85400000D03*
D10*
X137112500Y-114000000D03*
X135287500Y-114000000D03*
D20*
X127740000Y-120335000D03*
D21*
X125200000Y-120335000D03*
D20*
X137240000Y-120275000D03*
X134700000Y-120275000D03*
D21*
X132160000Y-120275000D03*
D23*
X121900000Y-102087500D03*
X121900000Y-103912500D03*
X122200000Y-111687500D03*
X122200000Y-113512500D03*
D11*
X169720000Y-117860000D03*
D12*
X172260000Y-117860000D03*
X174800000Y-117860000D03*
D25*
X169350000Y-89800000D03*
X174230000Y-89800000D03*
D26*
X157850000Y-121775000D03*
X154550000Y-121775000D03*
D20*
X125120000Y-86000000D03*
X127660000Y-86000000D03*
D21*
X130200000Y-86000000D03*
D27*
X151875000Y-119550000D03*
X151875000Y-117650000D03*
X150000000Y-118600000D03*
D28*
X181000000Y-86700000D03*
X177050000Y-83650000D03*
X173900000Y-91500000D03*
X177200000Y-91900000D03*
X164300000Y-99500000D03*
X161900000Y-124400000D03*
X173300000Y-83700000D03*
X168200000Y-83700000D03*
D29*
X166100000Y-92500000D03*
X166100000Y-94400000D03*
D28*
X121800000Y-115400000D03*
X122600000Y-106000000D03*
X164000000Y-112600000D03*
X170800000Y-106000000D03*
X158500000Y-99100000D03*
X158500000Y-96500000D03*
X140600000Y-113600000D03*
X153242500Y-105600000D03*
X152600000Y-100800000D03*
X156900000Y-100649500D03*
X146600000Y-100649500D03*
X154400000Y-90000000D03*
X152000000Y-114800000D03*
X164300000Y-104900000D03*
X157200000Y-114800000D03*
X168600000Y-116000000D03*
X159200000Y-123400000D03*
X165200000Y-111000000D03*
X167200000Y-117400000D03*
X164100000Y-123400000D03*
X158200000Y-104600000D03*
X157950000Y-107150000D03*
X152800000Y-102200000D03*
X149400000Y-98800000D03*
X140800000Y-97600000D03*
X144800000Y-100800000D03*
X149600000Y-100800000D03*
X152000000Y-98800000D03*
X174400000Y-103800000D03*
X140200000Y-110200000D03*
X146000000Y-114000000D03*
X134000000Y-112800000D03*
X135800000Y-116800000D03*
X175700000Y-108600000D03*
X179300000Y-90100000D03*
X173900000Y-108600000D03*
X147300000Y-86500000D03*
X159400000Y-100800000D03*
X157400000Y-94800000D03*
X162449500Y-106500688D03*
X158400688Y-113200688D03*
D29*
X163400000Y-106500000D03*
X163415332Y-110815332D03*
X160400000Y-114700000D03*
X163400000Y-109200000D03*
D28*
X163100000Y-100800000D03*
X159100000Y-107100000D03*
X151500000Y-91300000D03*
X163900000Y-95900000D03*
X163900000Y-93200000D03*
X162500000Y-89000000D03*
X158200000Y-100700000D03*
X155000000Y-105000000D03*
X156600000Y-98900000D03*
X149500000Y-107100000D03*
X159800000Y-94400000D03*
X171600000Y-93400000D03*
X154400000Y-92600000D03*
X178600000Y-100000000D03*
X168200000Y-119800000D03*
X172300000Y-121200000D03*
X169400000Y-91800000D03*
X171600000Y-91800000D03*
X155000000Y-91200000D03*
X151200000Y-90000000D03*
X166800000Y-87800000D03*
X171600000Y-90200000D03*
X169200000Y-94800000D03*
D30*
X179300000Y-90100000D02*
X179300000Y-84550000D01*
X179300000Y-84550000D02*
X176904791Y-82154791D01*
X176904791Y-82154791D02*
X151645209Y-82154791D01*
X151645209Y-82154791D02*
X147300000Y-86500000D01*
X177050000Y-83650000D02*
X177050000Y-85400000D01*
D31*
X139640000Y-92495000D02*
X139640000Y-90640000D01*
X139640000Y-90640000D02*
X138500000Y-89500000D01*
X138500000Y-89500000D02*
X129700000Y-89500000D01*
X129700000Y-89500000D02*
X127660000Y-87460000D01*
X127660000Y-87460000D02*
X127660000Y-86000000D01*
D30*
X176700000Y-96725000D02*
X179425000Y-96725000D01*
X179425000Y-96725000D02*
X179900000Y-96250000D01*
X179900000Y-96250000D02*
X179900000Y-92850000D01*
X179900000Y-92850000D02*
X178950000Y-91900000D01*
X178950000Y-91900000D02*
X177200000Y-91900000D01*
X140200000Y-110200000D02*
X139500000Y-110200000D01*
X139500000Y-110200000D02*
X134800000Y-105500000D01*
X134800000Y-105500000D02*
X134800000Y-97800000D01*
X132275000Y-95275000D02*
X132275000Y-93225000D01*
X134800000Y-97800000D02*
X132275000Y-95275000D01*
X176700000Y-103075000D02*
X178725000Y-103075000D01*
X178725000Y-103075000D02*
X181000000Y-100800000D01*
X181000000Y-100800000D02*
X181000000Y-86700000D01*
X171600000Y-90200000D02*
X172400000Y-91000000D01*
X172400000Y-91000000D02*
X173400000Y-91000000D01*
X173400000Y-91000000D02*
X173900000Y-91500000D01*
D32*
X164300000Y-99500000D02*
X164300000Y-99100000D01*
X164300000Y-99100000D02*
X165100000Y-98300000D01*
D30*
X165405000Y-97995000D02*
X165100000Y-98300000D01*
X167400000Y-97995000D02*
X165405000Y-97995000D01*
D32*
X164300000Y-108100000D02*
X164300000Y-104900000D01*
D30*
X157200000Y-114800000D02*
X158300000Y-114800000D01*
X158300000Y-114800000D02*
X163100000Y-110000000D01*
X163100000Y-110000000D02*
X163800000Y-110000000D01*
X163800000Y-110000000D02*
X164300000Y-109500000D01*
X164300000Y-109500000D02*
X164300000Y-108100000D01*
X167400000Y-105615000D02*
X169385000Y-105615000D01*
X169385000Y-105615000D02*
X170000000Y-105000000D01*
X170000000Y-105000000D02*
X171200000Y-105000000D01*
X171200000Y-105000000D02*
X172000000Y-105800000D01*
X172000000Y-105800000D02*
X172000000Y-111200000D01*
D33*
X168200000Y-83700000D02*
X173300000Y-83700000D01*
D30*
X144137500Y-111800000D02*
X138200000Y-105862500D01*
X138200000Y-105862500D02*
X138200000Y-97600000D01*
X138200000Y-97600000D02*
X143600000Y-92200000D01*
X152200000Y-92200000D02*
X154400000Y-90000000D01*
X143600000Y-92200000D02*
X152200000Y-92200000D01*
D33*
X161900000Y-124400000D02*
X161900000Y-121812500D01*
D30*
X154112500Y-123400000D02*
X152512500Y-121800000D01*
X159200000Y-123400000D02*
X154112500Y-123400000D01*
X164100000Y-123400000D02*
X164800000Y-123400000D01*
X167200000Y-121000000D02*
X167200000Y-117400000D01*
X164800000Y-123400000D02*
X167200000Y-121000000D01*
X168200000Y-119800000D02*
X169600000Y-121200000D01*
X169600000Y-121200000D02*
X172300000Y-121200000D01*
X166100000Y-94400000D02*
X166100000Y-92500000D01*
D33*
X174800000Y-114000000D02*
X178200000Y-114000000D01*
X178200000Y-114000000D02*
X178600000Y-113600000D01*
X178600000Y-113600000D02*
X178600000Y-112312500D01*
X122200000Y-113512500D02*
X122200000Y-115000000D01*
X122200000Y-115000000D02*
X121800000Y-115400000D01*
X121900000Y-103912500D02*
X120312500Y-103912500D01*
X120312500Y-103912500D02*
X119700000Y-103300000D01*
X119700000Y-103300000D02*
X119700000Y-100100000D01*
X121800000Y-98000000D02*
X121800000Y-95512500D01*
X119700000Y-100100000D02*
X121800000Y-98000000D01*
X121900000Y-103912500D02*
X121900000Y-105300000D01*
X121900000Y-105300000D02*
X122600000Y-106000000D01*
D30*
X165200000Y-111000000D02*
X165200000Y-104671472D01*
X165200000Y-104671472D02*
X166796472Y-103075000D01*
X176091472Y-101800000D02*
X172000000Y-101800000D01*
X172000000Y-101800000D02*
X170200000Y-100000000D01*
X170200000Y-100000000D02*
X170200000Y-92202082D01*
X170200000Y-92202082D02*
X170250000Y-92152082D01*
X170250000Y-92152082D02*
X170250000Y-90700000D01*
X170250000Y-90700000D02*
X169350000Y-89800000D01*
X177050000Y-88350000D02*
X177050000Y-85400000D01*
X175600000Y-89800000D02*
X177050000Y-88350000D01*
X174230000Y-89800000D02*
X175600000Y-89800000D01*
X167950000Y-85400000D02*
X167950000Y-88400000D01*
X167950000Y-88400000D02*
X169350000Y-89800000D01*
X164000000Y-112600000D02*
X165000000Y-113600000D01*
X167400000Y-116201041D02*
X169058959Y-117860000D01*
X170800000Y-106000000D02*
X170800000Y-106200000D01*
X170800000Y-106200000D02*
X170115000Y-106885000D01*
X170115000Y-106885000D02*
X167400000Y-106885000D01*
X169058959Y-117860000D02*
X169720000Y-117860000D01*
X165000000Y-113600000D02*
X167400000Y-113600000D01*
X167400000Y-106885000D02*
X167400000Y-113600000D01*
X167400000Y-113600000D02*
X167400000Y-116201041D01*
X141000000Y-114000000D02*
X140600000Y-113600000D01*
X142287500Y-114000000D02*
X141000000Y-114000000D01*
X158500000Y-99100000D02*
X158500000Y-96500000D01*
X154550000Y-120550000D02*
X154100000Y-120100000D01*
X154100000Y-120100000D02*
X154800000Y-119400000D01*
X154100000Y-120100000D02*
X153600000Y-119600000D01*
X154800000Y-119400000D02*
X154800000Y-115275000D01*
X151925000Y-119600000D02*
X151875000Y-119550000D01*
X154550000Y-121775000D02*
X154550000Y-120550000D01*
X153600000Y-119600000D02*
X151925000Y-119600000D01*
X153242500Y-105600000D02*
X155477500Y-107835000D01*
X153280000Y-97675000D02*
X153280000Y-100120000D01*
X153280000Y-100120000D02*
X152600000Y-100800000D01*
X157593966Y-99955534D02*
X157593966Y-96593966D01*
X151200000Y-95800000D02*
X150740000Y-96260000D01*
X150740000Y-96260000D02*
X150740000Y-97675000D01*
X157593966Y-96593966D02*
X156800000Y-95800000D01*
X156900000Y-100649500D02*
X157593966Y-99955534D01*
X156800000Y-95800000D02*
X151200000Y-95800000D01*
X146600000Y-100649500D02*
X146449500Y-100649500D01*
X146449500Y-100649500D02*
X143475000Y-97675000D01*
X135287500Y-114000000D02*
X135287500Y-111825000D01*
X144112500Y-113650000D02*
X142262500Y-111800000D01*
X150000000Y-114800000D02*
X152000000Y-114800000D01*
X146600000Y-118200000D02*
X150000000Y-114800000D01*
X135600000Y-118200000D02*
X146600000Y-118200000D01*
X134700000Y-119100000D02*
X135600000Y-118200000D01*
X134700000Y-120275000D02*
X134700000Y-119100000D01*
D31*
X130200000Y-86000000D02*
X131600000Y-86000000D01*
X133000000Y-87400000D02*
X140435000Y-87400000D01*
X131600000Y-86000000D02*
X133000000Y-87400000D01*
X140435000Y-87400000D02*
X142840000Y-84995000D01*
D30*
X173600000Y-120000000D02*
X172260000Y-118660000D01*
X180000000Y-105600000D02*
X180000000Y-116600000D01*
X176700000Y-104345000D02*
X178745000Y-104345000D01*
X172260000Y-118660000D02*
X172260000Y-117860000D01*
X180000000Y-116600000D02*
X176600000Y-120000000D01*
X176600000Y-120000000D02*
X173600000Y-120000000D01*
X178745000Y-104345000D02*
X180000000Y-105600000D01*
X173000000Y-109660000D02*
X174800000Y-111460000D01*
X169600000Y-103800000D02*
X171389950Y-103800000D01*
X167400000Y-104345000D02*
X169055000Y-104345000D01*
X171389950Y-103800000D02*
X173000000Y-105410050D01*
X173000000Y-105410050D02*
X173000000Y-109660000D01*
X169055000Y-104345000D02*
X169600000Y-103800000D01*
X172260000Y-115340000D02*
X171600000Y-116000000D01*
X172260000Y-114000000D02*
X172260000Y-115340000D01*
X171600000Y-116000000D02*
X168600000Y-116000000D01*
D32*
X171010000Y-112750000D02*
X169720000Y-111460000D01*
X176800000Y-111600000D02*
X176800000Y-112050000D01*
D30*
X176800000Y-111200000D02*
X176800000Y-111600000D01*
X176700000Y-108587500D02*
X178600000Y-110487500D01*
D32*
X176100000Y-112750000D02*
X171010000Y-112750000D01*
D30*
X178487500Y-110600000D02*
X177400000Y-110600000D01*
X176700000Y-106885000D02*
X176700000Y-108587500D01*
D32*
X176800000Y-112050000D02*
X176100000Y-112750000D01*
D30*
X177400000Y-110600000D02*
X176800000Y-111200000D01*
X148600000Y-118000000D02*
X148600000Y-120400000D01*
X150000000Y-121800000D02*
X150687500Y-121800000D01*
X150000000Y-116600000D02*
X148600000Y-118000000D01*
X148600000Y-120400000D02*
X150000000Y-121800000D01*
X151875000Y-117650000D02*
X150825000Y-116600000D01*
X150825000Y-116600000D02*
X150000000Y-116600000D01*
X157900000Y-107100000D02*
X157950000Y-107150000D01*
X158200000Y-104600000D02*
X157900000Y-104900000D01*
X157900000Y-104900000D02*
X157900000Y-107100000D01*
X149400000Y-98800000D02*
X148200000Y-100000000D01*
X149000000Y-102200000D02*
X152800000Y-102200000D01*
X148200000Y-100000000D02*
X148200000Y-101400000D01*
X148200000Y-101400000D02*
X149000000Y-102200000D01*
X144800000Y-100200000D02*
X144800000Y-100800000D01*
X141800000Y-99600000D02*
X144200000Y-99600000D01*
X140800000Y-97600000D02*
X140800000Y-98600000D01*
X144200000Y-99600000D02*
X144800000Y-100200000D01*
X140800000Y-98600000D02*
X141800000Y-99600000D01*
X152000000Y-99400000D02*
X150600000Y-100800000D01*
X150600000Y-100800000D02*
X149600000Y-100800000D01*
X152000000Y-98800000D02*
X152000000Y-99400000D01*
X166142918Y-95455000D02*
X167400000Y-95455000D01*
X145500000Y-112900000D02*
X148000000Y-110400000D01*
D32*
X145075000Y-113325000D02*
X145500000Y-112900000D01*
X144900000Y-115100000D02*
X145075000Y-114925000D01*
X145075000Y-114925000D02*
X145075000Y-113325000D01*
D30*
X137112500Y-114000000D02*
X139000000Y-114000000D01*
X139000000Y-114000000D02*
X140100000Y-115100000D01*
X157100000Y-109000000D02*
X157100000Y-104497918D01*
X155700000Y-110400000D02*
X157100000Y-109000000D01*
X148000000Y-110400000D02*
X155700000Y-110400000D01*
X157100000Y-104497918D02*
X166142918Y-95455000D01*
X140100000Y-115100000D02*
X140800000Y-115100000D01*
D32*
X140800000Y-115100000D02*
X144900000Y-115100000D01*
D30*
X174400000Y-105200000D02*
X174400000Y-103800000D01*
X176700000Y-105615000D02*
X174815000Y-105615000D01*
X174815000Y-105615000D02*
X174400000Y-105200000D01*
X165935000Y-99265000D02*
X160000000Y-105200000D01*
X124325000Y-93225000D02*
X122262500Y-93225000D01*
X148600000Y-111400000D02*
X146000000Y-114000000D01*
X132275000Y-93225000D02*
X124325000Y-93225000D01*
X167400000Y-99265000D02*
X165935000Y-99265000D01*
X160000000Y-107500000D02*
X156100000Y-111400000D01*
X122262500Y-93225000D02*
X121800000Y-93687500D01*
X160000000Y-105200000D02*
X160000000Y-107500000D01*
X156100000Y-111400000D02*
X148600000Y-111400000D01*
X124325000Y-101725000D02*
X123275000Y-101725000D01*
X161600000Y-106100000D02*
X165895000Y-101805000D01*
X165895000Y-101805000D02*
X167400000Y-101805000D01*
X149800000Y-113400000D02*
X157000000Y-113400000D01*
X135800000Y-116800000D02*
X146400000Y-116800000D01*
X132275000Y-101725000D02*
X124325000Y-101725000D01*
X157000000Y-113400000D02*
X161600000Y-108800000D01*
X123275000Y-101725000D02*
X122912500Y-102087500D01*
X134000000Y-103450000D02*
X132275000Y-101725000D01*
X161600000Y-108800000D02*
X161600000Y-106100000D01*
X134000000Y-112800000D02*
X134000000Y-103450000D01*
X146400000Y-116800000D02*
X149800000Y-113400000D01*
X122912500Y-102087500D02*
X121900000Y-102087500D01*
X124325000Y-112725000D02*
X123287500Y-111687500D01*
X134900000Y-115900000D02*
X133725000Y-114725000D01*
X145700000Y-115900000D02*
X134900000Y-115900000D01*
X124325000Y-114725000D02*
X124325000Y-112725000D01*
X133725000Y-114725000D02*
X132275000Y-114725000D01*
X123287500Y-111687500D02*
X122200000Y-111687500D01*
X160800000Y-108200000D02*
X156600000Y-112400000D01*
X156600000Y-112400000D02*
X149200000Y-112400000D01*
X132275000Y-114725000D02*
X124325000Y-114725000D01*
X160800000Y-105600000D02*
X160800000Y-108200000D01*
X149200000Y-112400000D02*
X145700000Y-115900000D01*
X165865000Y-100535000D02*
X160800000Y-105600000D01*
X167400000Y-100535000D02*
X165865000Y-100535000D01*
X173900000Y-108600000D02*
X175700000Y-108600000D01*
X159400000Y-95400000D02*
X159400000Y-100800000D01*
X158000000Y-95400000D02*
X157400000Y-94800000D01*
X159400000Y-95400000D02*
X158000000Y-95400000D01*
D32*
X162400000Y-109300000D02*
X162400000Y-106550188D01*
X162400000Y-106550188D02*
X162449500Y-106500688D01*
X158400688Y-113200688D02*
X158499312Y-113200688D01*
D30*
X158499312Y-113200688D02*
X162400000Y-109300000D01*
X160400000Y-114100000D02*
X163415332Y-111084668D01*
D32*
X163415332Y-111084668D02*
X163415332Y-110815332D01*
D30*
X160400000Y-114700000D02*
X160400000Y-114100000D01*
D32*
X163400000Y-106500000D02*
X163400000Y-109200000D01*
X159100000Y-104800000D02*
X163100000Y-100800000D01*
X159100000Y-107100000D02*
X159100000Y-104800000D01*
D30*
X153800000Y-89000000D02*
X162500000Y-89000000D01*
X151500000Y-91300000D02*
X153800000Y-89000000D01*
X163900000Y-93200000D02*
X163900000Y-95900000D01*
X158200000Y-101800000D02*
X158200000Y-100700000D01*
X155000000Y-105000000D02*
X158200000Y-101800000D01*
X149600000Y-106800000D02*
X154900000Y-101500000D01*
X149600000Y-107100000D02*
X149600000Y-106800000D01*
X154900000Y-100600000D02*
X156600000Y-98900000D01*
D32*
X149500000Y-107100000D02*
X149600000Y-107100000D01*
D30*
X154900000Y-101500000D02*
X154900000Y-100600000D01*
X172600000Y-93400000D02*
X171600000Y-93400000D01*
X175235000Y-100535000D02*
X173600000Y-98900000D01*
X173600000Y-94400000D02*
X172600000Y-93400000D01*
X159800000Y-94400000D02*
X159000000Y-94400000D01*
X159000000Y-94400000D02*
X157200000Y-92600000D01*
X173600000Y-98900000D02*
X173600000Y-94400000D01*
X157200000Y-92600000D02*
X154400000Y-92600000D01*
X176700000Y-100535000D02*
X175235000Y-100535000D01*
X177865000Y-99265000D02*
X178600000Y-100000000D01*
X176700000Y-99265000D02*
X177865000Y-99265000D01*
X168600000Y-91800000D02*
X169400000Y-91800000D01*
X176700000Y-97995000D02*
X175195000Y-97995000D01*
X175195000Y-97995000D02*
X174600000Y-97400000D01*
X156200000Y-90000000D02*
X166800000Y-90000000D01*
X155000000Y-91200000D02*
X156200000Y-90000000D01*
X172600000Y-91800000D02*
X171600000Y-91800000D01*
X174600000Y-93800000D02*
X172600000Y-91800000D01*
X166800000Y-90000000D02*
X168600000Y-91800000D01*
X174600000Y-97400000D02*
X174600000Y-93800000D01*
X151200000Y-90000000D02*
X153400000Y-87800000D01*
X153400000Y-87800000D02*
X166800000Y-87800000D01*
X169200000Y-94800000D02*
X169200000Y-96400000D01*
X168875000Y-96725000D02*
X167400000Y-96725000D01*
X169200000Y-96400000D02*
X168875000Y-96725000D01*
X162800000Y-116400000D02*
X160087500Y-119112500D01*
X160087500Y-119112500D02*
X160087500Y-121800000D01*
X162800000Y-115275000D02*
X162800000Y-116400000D01*
X160087500Y-121800000D02*
X157875000Y-121800000D01*
G04 #@! TA.AperFunction,Conductor*
G36*
X179251545Y-80000575D02*
G01*
X179402663Y-80007999D01*
X179596574Y-80018162D01*
X179602452Y-80018751D01*
X179771626Y-80043846D01*
X179863387Y-80058379D01*
X179947547Y-80071708D01*
X179952980Y-80072817D01*
X180122209Y-80115206D01*
X180291320Y-80160520D01*
X180296156Y-80162030D01*
X180461239Y-80221098D01*
X180462494Y-80221563D01*
X180624260Y-80283659D01*
X180628547Y-80285493D01*
X180787684Y-80360759D01*
X180789235Y-80361521D01*
X180920871Y-80428593D01*
X180942968Y-80439852D01*
X180946747Y-80441944D01*
X181033431Y-80493900D01*
X181097983Y-80532591D01*
X181099907Y-80533792D01*
X181157564Y-80571235D01*
X181244256Y-80627533D01*
X181247451Y-80629752D01*
X181389278Y-80734939D01*
X181391342Y-80736538D01*
X181524964Y-80844744D01*
X181527597Y-80846999D01*
X181589574Y-80903172D01*
X181658503Y-80965646D01*
X181660722Y-80967758D01*
X181782239Y-81089275D01*
X181784352Y-81091495D01*
X181902990Y-81222391D01*
X181905260Y-81225041D01*
X182013450Y-81358644D01*
X182015078Y-81360744D01*
X182120238Y-81502536D01*
X182122473Y-81505754D01*
X182216206Y-81650091D01*
X182217407Y-81652015D01*
X182308049Y-81803242D01*
X182310146Y-81807030D01*
X182388445Y-81960698D01*
X182389263Y-81962364D01*
X182464494Y-82121426D01*
X182466350Y-82125765D01*
X182495680Y-82202171D01*
X182528418Y-82287459D01*
X182528919Y-82288811D01*
X182539827Y-82319295D01*
X182587958Y-82453813D01*
X182589489Y-82458713D01*
X182634797Y-82627809D01*
X182677178Y-82797004D01*
X182678291Y-82802459D01*
X182706152Y-82978372D01*
X182731243Y-83147511D01*
X182731839Y-83153462D01*
X182742009Y-83347519D01*
X182749424Y-83498451D01*
X182749500Y-83501543D01*
X182749500Y-121374000D01*
X182729498Y-121442121D01*
X182675842Y-121488614D01*
X182623500Y-121500000D01*
X178999998Y-121500000D01*
X177500000Y-122999998D01*
X177500000Y-125873500D01*
X177479998Y-125941621D01*
X177426342Y-125988114D01*
X177374000Y-125999500D01*
X121126000Y-125999500D01*
X121057879Y-125979498D01*
X121011386Y-125925842D01*
X121000000Y-125873500D01*
X121000000Y-123000000D01*
X120999999Y-122999998D01*
X120875001Y-122875000D01*
X124394435Y-122875000D01*
X124414632Y-123054255D01*
X124414633Y-123054257D01*
X124474211Y-123224522D01*
X124474212Y-123224525D01*
X124570182Y-123377260D01*
X124570183Y-123377262D01*
X124697737Y-123504816D01*
X124697739Y-123504817D01*
X124850474Y-123600787D01*
X124850475Y-123600787D01*
X124850478Y-123600789D01*
X125020745Y-123660368D01*
X125155046Y-123675500D01*
X125244954Y-123675500D01*
X125379255Y-123660368D01*
X125549522Y-123600789D01*
X125702262Y-123504816D01*
X125829816Y-123377262D01*
X125925789Y-123224522D01*
X125985368Y-123054255D01*
X126005565Y-122875000D01*
X125985368Y-122695745D01*
X125925789Y-122525478D01*
X125925787Y-122525475D01*
X125925787Y-122525474D01*
X125829817Y-122372739D01*
X125829816Y-122372737D01*
X125702262Y-122245183D01*
X125702260Y-122245182D01*
X125549525Y-122149212D01*
X125549522Y-122149211D01*
X125525553Y-122140824D01*
X125379255Y-122089632D01*
X125244954Y-122074500D01*
X125155046Y-122074500D01*
X125020745Y-122089632D01*
X125020742Y-122089632D01*
X125020742Y-122089633D01*
X124850477Y-122149211D01*
X124850474Y-122149212D01*
X124697739Y-122245182D01*
X124697737Y-122245183D01*
X124570183Y-122372737D01*
X124570182Y-122372739D01*
X124474212Y-122525474D01*
X124474211Y-122525477D01*
X124442883Y-122615009D01*
X124414632Y-122695745D01*
X124394435Y-122875000D01*
X120875001Y-122875000D01*
X119500001Y-121500000D01*
X119500000Y-121500000D01*
X116426500Y-121500000D01*
X116358379Y-121479998D01*
X116340771Y-121459677D01*
X123849500Y-121459677D01*
X123864033Y-121532739D01*
X123879308Y-121555600D01*
X123919399Y-121615601D01*
X124002260Y-121670966D01*
X124075326Y-121685500D01*
X126324674Y-121685500D01*
X126397740Y-121670966D01*
X126480601Y-121615601D01*
X126509065Y-121572999D01*
X126563539Y-121527473D01*
X126633982Y-121518623D01*
X126695660Y-121547190D01*
X126796631Y-121633427D01*
X126796633Y-121633428D01*
X127011370Y-121765019D01*
X127244045Y-121861396D01*
X127402245Y-121899376D01*
X127463814Y-121934728D01*
X127496497Y-121997755D01*
X127489917Y-122068446D01*
X127446162Y-122124357D01*
X127414447Y-122140824D01*
X127390474Y-122149212D01*
X127237739Y-122245182D01*
X127237737Y-122245183D01*
X127110183Y-122372737D01*
X127110182Y-122372739D01*
X127014212Y-122525474D01*
X127014211Y-122525477D01*
X126982883Y-122615009D01*
X126954632Y-122695745D01*
X126934435Y-122875000D01*
X126954632Y-123054255D01*
X126954633Y-123054257D01*
X127014211Y-123224522D01*
X127014212Y-123224525D01*
X127110182Y-123377260D01*
X127110183Y-123377262D01*
X127237737Y-123504816D01*
X127237739Y-123504817D01*
X127390474Y-123600787D01*
X127390475Y-123600787D01*
X127390478Y-123600789D01*
X127560745Y-123660368D01*
X127695046Y-123675500D01*
X127784954Y-123675500D01*
X127919255Y-123660368D01*
X128089522Y-123600789D01*
X128242262Y-123504816D01*
X128369816Y-123377262D01*
X128465789Y-123224522D01*
X128525368Y-123054255D01*
X128545565Y-122875000D01*
X128538805Y-122815000D01*
X131354435Y-122815000D01*
X131374632Y-122994255D01*
X131395627Y-123054255D01*
X131434211Y-123164522D01*
X131434212Y-123164525D01*
X131530182Y-123317260D01*
X131530183Y-123317262D01*
X131657737Y-123444816D01*
X131657739Y-123444817D01*
X131810474Y-123540787D01*
X131810475Y-123540787D01*
X131810478Y-123540789D01*
X131980745Y-123600368D01*
X132115046Y-123615500D01*
X132204954Y-123615500D01*
X132339255Y-123600368D01*
X132509522Y-123540789D01*
X132662262Y-123444816D01*
X132789816Y-123317262D01*
X132885789Y-123164522D01*
X132945368Y-122994255D01*
X132965565Y-122815000D01*
X133894435Y-122815000D01*
X133914632Y-122994255D01*
X133935627Y-123054255D01*
X133974211Y-123164522D01*
X133974212Y-123164525D01*
X134070182Y-123317260D01*
X134070183Y-123317262D01*
X134197737Y-123444816D01*
X134197739Y-123444817D01*
X134350474Y-123540787D01*
X134350475Y-123540787D01*
X134350478Y-123540789D01*
X134520745Y-123600368D01*
X134655046Y-123615500D01*
X134744954Y-123615500D01*
X134879255Y-123600368D01*
X135049522Y-123540789D01*
X135202262Y-123444816D01*
X135329816Y-123317262D01*
X135425789Y-123164522D01*
X135485368Y-122994255D01*
X135505565Y-122815000D01*
X135485368Y-122635745D01*
X135425789Y-122465478D01*
X135425787Y-122465475D01*
X135425787Y-122465474D01*
X135329817Y-122312739D01*
X135329816Y-122312737D01*
X135202262Y-122185183D01*
X135202260Y-122185182D01*
X135049525Y-122089212D01*
X135049522Y-122089211D01*
X134978493Y-122064357D01*
X134879255Y-122029632D01*
X134744954Y-122014500D01*
X134655046Y-122014500D01*
X134520745Y-122029632D01*
X134520742Y-122029632D01*
X134520742Y-122029633D01*
X134350477Y-122089211D01*
X134350474Y-122089212D01*
X134197739Y-122185182D01*
X134197737Y-122185183D01*
X134070183Y-122312737D01*
X134070182Y-122312739D01*
X133974212Y-122465474D01*
X133974211Y-122465477D01*
X133932953Y-122583386D01*
X133914632Y-122635745D01*
X133894435Y-122815000D01*
X132965565Y-122815000D01*
X132945368Y-122635745D01*
X132885789Y-122465478D01*
X132885787Y-122465475D01*
X132885787Y-122465474D01*
X132789817Y-122312739D01*
X132789816Y-122312737D01*
X132662262Y-122185183D01*
X132662260Y-122185182D01*
X132509525Y-122089212D01*
X132509522Y-122089211D01*
X132438493Y-122064357D01*
X132339255Y-122029632D01*
X132204954Y-122014500D01*
X132115046Y-122014500D01*
X131980745Y-122029632D01*
X131980742Y-122029632D01*
X131980742Y-122029633D01*
X131810477Y-122089211D01*
X131810474Y-122089212D01*
X131657739Y-122185182D01*
X131657737Y-122185183D01*
X131530183Y-122312737D01*
X131530182Y-122312739D01*
X131434212Y-122465474D01*
X131434211Y-122465477D01*
X131392953Y-122583386D01*
X131374632Y-122635745D01*
X131354435Y-122815000D01*
X128538805Y-122815000D01*
X128525368Y-122695745D01*
X128465789Y-122525478D01*
X128465787Y-122525475D01*
X128465787Y-122525474D01*
X128369817Y-122372739D01*
X128369816Y-122372737D01*
X128242262Y-122245183D01*
X128242260Y-122245182D01*
X128089526Y-122149213D01*
X128089524Y-122149212D01*
X128089522Y-122149211D01*
X128065551Y-122140823D01*
X128007862Y-122099446D01*
X127981699Y-122033446D01*
X127995371Y-121963779D01*
X128044539Y-121912563D01*
X128077754Y-121899376D01*
X128235954Y-121861396D01*
X128468629Y-121765019D01*
X128683370Y-121633426D01*
X128684178Y-121632733D01*
X128684179Y-121632732D01*
X127911568Y-120860121D01*
X128028458Y-120809349D01*
X128145739Y-120713934D01*
X128232928Y-120590415D01*
X128263354Y-120504801D01*
X129037732Y-121279179D01*
X129037733Y-121279178D01*
X129038426Y-121278370D01*
X129170019Y-121063629D01*
X129266396Y-120830954D01*
X129325187Y-120586068D01*
X129344947Y-120335000D01*
X129325187Y-120083931D01*
X129266396Y-119839045D01*
X129170019Y-119606370D01*
X129038426Y-119391631D01*
X129037732Y-119390819D01*
X128265929Y-120162622D01*
X128263116Y-120149085D01*
X128193558Y-120014844D01*
X128090362Y-119904348D01*
X127961181Y-119825791D01*
X127909996Y-119811449D01*
X128684178Y-119037266D01*
X128683359Y-119036566D01*
X128468629Y-118904980D01*
X128235954Y-118808603D01*
X127991068Y-118749812D01*
X127739999Y-118730052D01*
X127488931Y-118749812D01*
X127244045Y-118808603D01*
X127011370Y-118904980D01*
X126796636Y-119036569D01*
X126695660Y-119122810D01*
X126630870Y-119151840D01*
X126560670Y-119141235D01*
X126509064Y-119096998D01*
X126508811Y-119096620D01*
X126480601Y-119054399D01*
X126449471Y-119033599D01*
X126397739Y-118999033D01*
X126324677Y-118984500D01*
X126324674Y-118984500D01*
X124075326Y-118984500D01*
X124075322Y-118984500D01*
X124002260Y-118999033D01*
X123919399Y-119054399D01*
X123864033Y-119137260D01*
X123849500Y-119210322D01*
X123849500Y-121459677D01*
X116340771Y-121459677D01*
X116311886Y-121426342D01*
X116300500Y-121374000D01*
X116300500Y-109975000D01*
X123050000Y-109975000D01*
X124075000Y-109975000D01*
X124075000Y-109075000D01*
X124575000Y-109075000D01*
X124575000Y-109975000D01*
X125600000Y-109975000D01*
X131000000Y-109975000D01*
X132025000Y-109975000D01*
X132025000Y-109075000D01*
X131452159Y-109075000D01*
X131392628Y-109081400D01*
X131257910Y-109131647D01*
X131142810Y-109217810D01*
X131056647Y-109332910D01*
X131006400Y-109467628D01*
X131000000Y-109527159D01*
X131000000Y-109975000D01*
X125600000Y-109975000D01*
X125600000Y-109527176D01*
X125599999Y-109527159D01*
X125593599Y-109467628D01*
X125543352Y-109332910D01*
X125457189Y-109217810D01*
X125342089Y-109131647D01*
X125207371Y-109081400D01*
X125147840Y-109075000D01*
X124575000Y-109075000D01*
X124075000Y-109075000D01*
X123502159Y-109075000D01*
X123442628Y-109081400D01*
X123307910Y-109131647D01*
X123192810Y-109217810D01*
X123106647Y-109332910D01*
X123056400Y-109467628D01*
X123050000Y-109527159D01*
X123050000Y-109975000D01*
X116300500Y-109975000D01*
X116300500Y-103300000D01*
X119094318Y-103300000D01*
X119101717Y-103356206D01*
X119102937Y-103365469D01*
X119114955Y-103456760D01*
X119175463Y-103602839D01*
X119175465Y-103602842D01*
X119253548Y-103704603D01*
X119271718Y-103728282D01*
X119299944Y-103749940D01*
X119306132Y-103755367D01*
X119857126Y-104306361D01*
X119862558Y-104312555D01*
X119884219Y-104340783D01*
X119980098Y-104414354D01*
X120005208Y-104433621D01*
X120009659Y-104437036D01*
X120155738Y-104497544D01*
X120312500Y-104518182D01*
X120312501Y-104518182D01*
X120347762Y-104513540D01*
X120355994Y-104513000D01*
X121024407Y-104513000D01*
X121092528Y-104533002D01*
X121099917Y-104538133D01*
X121207665Y-104618794D01*
X121207669Y-104618796D01*
X121212988Y-104620780D01*
X121217528Y-104622473D01*
X121274365Y-104665017D01*
X121299179Y-104731537D01*
X121299500Y-104740530D01*
X121299500Y-105256505D01*
X121298960Y-105264737D01*
X121294318Y-105299999D01*
X121294318Y-105300000D01*
X121304748Y-105379222D01*
X121314955Y-105456760D01*
X121374286Y-105599996D01*
X121375464Y-105602841D01*
X121471718Y-105728282D01*
X121491279Y-105743291D01*
X121499934Y-105749933D01*
X121506137Y-105755372D01*
X121978961Y-106228197D01*
X122007676Y-106272610D01*
X122019776Y-106304515D01*
X122019782Y-106304526D01*
X122098008Y-106417857D01*
X122109517Y-106434530D01*
X122227760Y-106539283D01*
X122367635Y-106612696D01*
X122367636Y-106612696D01*
X122367638Y-106612697D01*
X122398056Y-106620194D01*
X122521015Y-106650500D01*
X122521017Y-106650500D01*
X122678983Y-106650500D01*
X122678985Y-106650500D01*
X122832365Y-106612696D01*
X122865444Y-106595334D01*
X122935054Y-106581387D01*
X123001157Y-106607289D01*
X123042763Y-106664817D01*
X123049999Y-106706900D01*
X123049999Y-106922822D01*
X123050000Y-106922840D01*
X123056400Y-106982371D01*
X123106647Y-107117089D01*
X123192810Y-107232189D01*
X123307910Y-107318352D01*
X123442628Y-107368599D01*
X123502159Y-107374999D01*
X123502176Y-107375000D01*
X124075000Y-107375000D01*
X124075000Y-106475000D01*
X124575000Y-106475000D01*
X124575000Y-107375000D01*
X125147824Y-107375000D01*
X125147840Y-107374999D01*
X125207371Y-107368599D01*
X125342089Y-107318352D01*
X125457189Y-107232189D01*
X125543352Y-107117089D01*
X125593599Y-106982371D01*
X125599999Y-106922840D01*
X125600000Y-106922823D01*
X125600000Y-106475000D01*
X131000000Y-106475000D01*
X131000000Y-106922840D01*
X131006400Y-106982371D01*
X131056647Y-107117089D01*
X131142810Y-107232189D01*
X131257910Y-107318352D01*
X131392628Y-107368599D01*
X131452159Y-107374999D01*
X131452176Y-107375000D01*
X132025000Y-107375000D01*
X132025000Y-106475000D01*
X131000000Y-106475000D01*
X125600000Y-106475000D01*
X124575000Y-106475000D01*
X124075000Y-106475000D01*
X124075000Y-105075000D01*
X124575000Y-105075000D01*
X124575000Y-105975000D01*
X125600000Y-105975000D01*
X131000000Y-105975000D01*
X132025000Y-105975000D01*
X132025000Y-105075000D01*
X131452159Y-105075000D01*
X131392628Y-105081400D01*
X131257910Y-105131647D01*
X131142810Y-105217810D01*
X131056647Y-105332910D01*
X131006400Y-105467628D01*
X131000000Y-105527159D01*
X131000000Y-105975000D01*
X125600000Y-105975000D01*
X125600000Y-105527176D01*
X125599999Y-105527159D01*
X125593599Y-105467628D01*
X125543352Y-105332910D01*
X125457189Y-105217810D01*
X125342089Y-105131647D01*
X125207371Y-105081400D01*
X125147840Y-105075000D01*
X124575000Y-105075000D01*
X124075000Y-105075000D01*
X123502159Y-105075000D01*
X123442628Y-105081400D01*
X123307910Y-105131647D01*
X123192810Y-105217810D01*
X123106646Y-105332911D01*
X123106645Y-105332913D01*
X123094756Y-105364791D01*
X123052209Y-105421627D01*
X122985689Y-105446437D01*
X122918145Y-105432325D01*
X122858128Y-105400825D01*
X122827589Y-105378353D01*
X122537405Y-105088169D01*
X122503379Y-105025857D01*
X122500500Y-104999074D01*
X122500500Y-104740530D01*
X122520502Y-104672409D01*
X122574158Y-104625916D01*
X122582472Y-104622473D01*
X122592331Y-104618796D01*
X122707546Y-104532546D01*
X122793796Y-104417331D01*
X122794055Y-104416638D01*
X122810170Y-104373429D01*
X122844091Y-104282483D01*
X122850500Y-104222873D01*
X122850499Y-103602128D01*
X122844091Y-103542517D01*
X122822319Y-103484143D01*
X122793798Y-103407673D01*
X122793796Y-103407670D01*
X122793796Y-103407669D01*
X122741706Y-103338086D01*
X122707546Y-103292453D01*
X122630591Y-103234845D01*
X122592331Y-103206204D01*
X122592329Y-103206203D01*
X122592326Y-103206201D01*
X122457483Y-103155909D01*
X122457486Y-103155909D01*
X122397873Y-103149500D01*
X121402135Y-103149500D01*
X121402114Y-103149502D01*
X121342519Y-103155908D01*
X121342518Y-103155908D01*
X121207673Y-103206201D01*
X121207670Y-103206203D01*
X121099916Y-103286868D01*
X121033396Y-103311679D01*
X121024407Y-103312000D01*
X120613425Y-103312000D01*
X120545304Y-103291998D01*
X120524330Y-103275095D01*
X120337405Y-103088170D01*
X120303379Y-103025858D01*
X120300500Y-102999075D01*
X120300500Y-100400924D01*
X120320502Y-100332803D01*
X120337400Y-100311834D01*
X122193875Y-98455359D01*
X122200058Y-98449937D01*
X122228282Y-98428282D01*
X122253329Y-98395641D01*
X122324536Y-98302841D01*
X122385044Y-98156762D01*
X122405682Y-98000000D01*
X122402391Y-97975000D01*
X123050000Y-97975000D01*
X123050000Y-98422840D01*
X123056400Y-98482371D01*
X123106647Y-98617089D01*
X123192810Y-98732189D01*
X123307910Y-98818352D01*
X123442628Y-98868599D01*
X123502159Y-98874999D01*
X123502176Y-98875000D01*
X124075000Y-98875000D01*
X124075000Y-97975000D01*
X124575000Y-97975000D01*
X124575000Y-98875000D01*
X125147824Y-98875000D01*
X125147840Y-98874999D01*
X125207371Y-98868599D01*
X125342089Y-98818352D01*
X125457189Y-98732189D01*
X125543352Y-98617089D01*
X125593599Y-98482371D01*
X125599999Y-98422840D01*
X125600000Y-98422823D01*
X125600000Y-97975000D01*
X131000000Y-97975000D01*
X131000000Y-98422840D01*
X131006400Y-98482371D01*
X131056647Y-98617089D01*
X131142810Y-98732189D01*
X131257910Y-98818352D01*
X131392628Y-98868599D01*
X131452159Y-98874999D01*
X131452176Y-98875000D01*
X132025000Y-98875000D01*
X132025000Y-97975000D01*
X132525000Y-97975000D01*
X132525000Y-98875000D01*
X133097824Y-98875000D01*
X133097840Y-98874999D01*
X133157371Y-98868599D01*
X133292089Y-98818352D01*
X133407189Y-98732189D01*
X133493352Y-98617089D01*
X133543599Y-98482371D01*
X133549999Y-98422840D01*
X133550000Y-98422823D01*
X133550000Y-97975000D01*
X132525000Y-97975000D01*
X132025000Y-97975000D01*
X131000000Y-97975000D01*
X125600000Y-97975000D01*
X124575000Y-97975000D01*
X124075000Y-97975000D01*
X123050000Y-97975000D01*
X122402391Y-97975000D01*
X122401038Y-97964725D01*
X122400500Y-97956520D01*
X122400500Y-97475000D01*
X123050000Y-97475000D01*
X124075000Y-97475000D01*
X124075000Y-96575000D01*
X124575000Y-96575000D01*
X124575000Y-97475000D01*
X125600000Y-97475000D01*
X131000000Y-97475000D01*
X132025000Y-97475000D01*
X132025000Y-96575000D01*
X131452159Y-96575000D01*
X131392628Y-96581400D01*
X131257910Y-96631647D01*
X131142810Y-96717810D01*
X131056647Y-96832910D01*
X131006400Y-96967628D01*
X131000000Y-97027159D01*
X131000000Y-97475000D01*
X125600000Y-97475000D01*
X125600000Y-97027176D01*
X125599999Y-97027159D01*
X125593599Y-96967628D01*
X125543352Y-96832910D01*
X125457189Y-96717810D01*
X125342089Y-96631647D01*
X125207371Y-96581400D01*
X125147840Y-96575000D01*
X124575000Y-96575000D01*
X124075000Y-96575000D01*
X123502159Y-96575000D01*
X123442628Y-96581400D01*
X123307910Y-96631647D01*
X123192810Y-96717810D01*
X123106647Y-96832910D01*
X123056400Y-96967628D01*
X123050000Y-97027159D01*
X123050000Y-97475000D01*
X122400500Y-97475000D01*
X122400500Y-96340530D01*
X122420502Y-96272409D01*
X122474158Y-96225916D01*
X122482472Y-96222473D01*
X122484759Y-96221620D01*
X122492331Y-96218796D01*
X122607546Y-96132546D01*
X122693796Y-96017331D01*
X122744091Y-95882483D01*
X122750500Y-95822873D01*
X122750499Y-95202128D01*
X122744091Y-95142517D01*
X122716181Y-95067686D01*
X122693798Y-95007673D01*
X122693796Y-95007670D01*
X122693796Y-95007669D01*
X122642602Y-94939283D01*
X122607546Y-94892453D01*
X122504158Y-94815058D01*
X122492331Y-94806204D01*
X122492329Y-94806203D01*
X122492326Y-94806201D01*
X122357483Y-94755909D01*
X122357486Y-94755909D01*
X122297873Y-94749500D01*
X121302135Y-94749500D01*
X121302114Y-94749502D01*
X121242519Y-94755908D01*
X121242518Y-94755908D01*
X121107673Y-94806201D01*
X121107670Y-94806203D01*
X120992453Y-94892453D01*
X120906203Y-95007670D01*
X120906201Y-95007673D01*
X120855909Y-95142515D01*
X120849500Y-95202121D01*
X120849500Y-95822864D01*
X120849502Y-95822885D01*
X120855908Y-95882480D01*
X120855908Y-95882481D01*
X120906201Y-96017326D01*
X120906203Y-96017329D01*
X120906204Y-96017331D01*
X120906458Y-96017670D01*
X120992452Y-96132544D01*
X120992453Y-96132544D01*
X120992454Y-96132546D01*
X121107669Y-96218796D01*
X121107670Y-96218796D01*
X121107671Y-96218797D01*
X121117527Y-96222473D01*
X121174364Y-96265017D01*
X121199178Y-96331537D01*
X121199499Y-96340530D01*
X121199499Y-97699074D01*
X121179497Y-97767195D01*
X121162594Y-97788169D01*
X119306139Y-99644625D01*
X119299938Y-99650063D01*
X119271718Y-99671717D01*
X119205766Y-99757669D01*
X119175465Y-99797157D01*
X119175463Y-99797160D01*
X119114955Y-99943239D01*
X119094318Y-100099999D01*
X119094318Y-100100000D01*
X119098960Y-100135262D01*
X119099500Y-100143494D01*
X119099500Y-103256505D01*
X119098960Y-103264737D01*
X119095311Y-103292454D01*
X119094318Y-103300000D01*
X116300500Y-103300000D01*
X116300500Y-91126000D01*
X116320502Y-91057879D01*
X116374158Y-91011386D01*
X116426500Y-91000000D01*
X132947810Y-91000000D01*
X133015931Y-91020002D01*
X133036905Y-91036905D01*
X137499998Y-95499999D01*
X137500000Y-95500000D01*
X139287996Y-95500000D01*
X139356117Y-95520002D01*
X139402610Y-95573658D01*
X139412714Y-95643932D01*
X139383220Y-95708512D01*
X139377106Y-95715079D01*
X138263123Y-96829062D01*
X137893721Y-97198464D01*
X137872758Y-97215359D01*
X137868873Y-97217856D01*
X137868868Y-97217859D01*
X137834925Y-97257031D01*
X137831866Y-97260317D01*
X137820778Y-97271408D01*
X137820775Y-97271411D01*
X137811384Y-97283955D01*
X137808564Y-97287454D01*
X137774623Y-97326625D01*
X137772709Y-97330818D01*
X137758969Y-97353975D01*
X137756202Y-97357670D01*
X137738090Y-97406234D01*
X137736369Y-97410389D01*
X137714834Y-97457544D01*
X137714833Y-97457548D01*
X137714176Y-97462117D01*
X137707523Y-97488186D01*
X137705909Y-97492512D01*
X137705909Y-97492516D01*
X137702209Y-97544223D01*
X137701729Y-97548690D01*
X137699500Y-97564201D01*
X137699500Y-97579867D01*
X137699339Y-97584363D01*
X137695641Y-97636070D01*
X137695641Y-97636073D01*
X137696620Y-97640576D01*
X137699500Y-97667357D01*
X137699500Y-105795140D01*
X137696621Y-105821920D01*
X137695641Y-105826423D01*
X137695641Y-105826428D01*
X137699339Y-105878134D01*
X137699500Y-105882630D01*
X137699500Y-105898299D01*
X137701729Y-105913811D01*
X137702209Y-105918278D01*
X137705908Y-105969980D01*
X137705910Y-105969988D01*
X137707521Y-105974308D01*
X137714177Y-106000383D01*
X137714834Y-106004955D01*
X137714836Y-106004962D01*
X137736365Y-106052103D01*
X137738086Y-106056257D01*
X137743434Y-106070594D01*
X137756204Y-106104831D01*
X137756205Y-106104832D01*
X137758968Y-106108524D01*
X137772706Y-106131678D01*
X137774619Y-106135867D01*
X137774621Y-106135870D01*
X137774622Y-106135871D01*
X137774623Y-106135873D01*
X137800294Y-106165499D01*
X137808565Y-106175044D01*
X137811379Y-106178536D01*
X137820779Y-106191093D01*
X137831865Y-106202179D01*
X137834920Y-106205460D01*
X137854621Y-106228197D01*
X137868872Y-106244643D01*
X137872751Y-106247135D01*
X137893723Y-106264037D01*
X142264091Y-110634405D01*
X142298117Y-110696717D01*
X142293052Y-110767532D01*
X142250505Y-110824368D01*
X142183985Y-110849179D01*
X142174997Y-110849500D01*
X141971487Y-110849500D01*
X141971463Y-110849502D01*
X141912611Y-110855828D01*
X141912609Y-110855828D01*
X141779446Y-110905496D01*
X141779442Y-110905498D01*
X141665668Y-110990668D01*
X141580498Y-111104442D01*
X141580496Y-111104447D01*
X141530829Y-111237605D01*
X141530827Y-111237613D01*
X141524500Y-111296467D01*
X141524500Y-112303512D01*
X141524502Y-112303536D01*
X141530828Y-112362388D01*
X141530828Y-112362390D01*
X141580496Y-112495553D01*
X141580498Y-112495557D01*
X141665668Y-112609331D01*
X141779442Y-112694501D01*
X141779444Y-112694502D01*
X141779446Y-112694503D01*
X141813273Y-112707120D01*
X141912605Y-112744170D01*
X141912613Y-112744172D01*
X141942044Y-112747335D01*
X141971479Y-112750500D01*
X142452995Y-112750499D01*
X142521116Y-112770501D01*
X142542090Y-112787404D01*
X142589091Y-112834405D01*
X142623117Y-112896717D01*
X142618052Y-112967532D01*
X142575505Y-113024368D01*
X142508985Y-113049179D01*
X142499996Y-113049500D01*
X141977135Y-113049500D01*
X141977114Y-113049502D01*
X141917519Y-113055908D01*
X141917518Y-113055908D01*
X141782673Y-113106201D01*
X141782670Y-113106203D01*
X141667453Y-113192453D01*
X141581203Y-113307670D01*
X141581201Y-113307673D01*
X141540228Y-113417531D01*
X141497682Y-113474368D01*
X141431162Y-113499179D01*
X141422172Y-113499500D01*
X141344567Y-113499500D01*
X141276446Y-113479498D01*
X141229953Y-113425842D01*
X141226755Y-113418180D01*
X141217619Y-113394091D01*
X141180220Y-113295477D01*
X141180217Y-113295473D01*
X141180216Y-113295470D01*
X141090483Y-113165470D01*
X141090481Y-113165468D01*
X140972240Y-113060717D01*
X140832365Y-112987304D01*
X140832361Y-112987302D01*
X140678987Y-112949500D01*
X140678985Y-112949500D01*
X140521015Y-112949500D01*
X140521012Y-112949500D01*
X140367638Y-112987302D01*
X140367634Y-112987304D01*
X140227759Y-113060717D01*
X140109518Y-113165468D01*
X140109516Y-113165470D01*
X140019783Y-113295470D01*
X140019782Y-113295473D01*
X140019781Y-113295475D01*
X140019780Y-113295477D01*
X140015156Y-113307670D01*
X139963761Y-113443184D01*
X139944722Y-113599996D01*
X139944722Y-113600003D01*
X139963761Y-113756815D01*
X139987001Y-113818091D01*
X140019780Y-113904523D01*
X140019781Y-113904525D01*
X140019782Y-113904526D01*
X140019783Y-113904529D01*
X140109516Y-114034529D01*
X140109518Y-114034531D01*
X140138037Y-114059796D01*
X140227760Y-114139283D01*
X140367635Y-114212696D01*
X140515671Y-114249183D01*
X140574612Y-114282426D01*
X140598461Y-114306275D01*
X140615362Y-114327246D01*
X140617857Y-114331128D01*
X140647544Y-114356852D01*
X140657038Y-114365078D01*
X140660317Y-114368131D01*
X140671406Y-114379220D01*
X140674592Y-114382406D01*
X140673602Y-114383395D01*
X140708696Y-114437987D01*
X140708704Y-114508984D01*
X140670328Y-114568714D01*
X140605751Y-114598215D01*
X140587804Y-114599500D01*
X140359504Y-114599500D01*
X140291383Y-114579498D01*
X140270409Y-114562595D01*
X139401537Y-113693723D01*
X139384635Y-113672751D01*
X139382143Y-113668872D01*
X139342959Y-113634919D01*
X139339679Y-113631865D01*
X139328593Y-113620779D01*
X139316036Y-113611379D01*
X139312544Y-113608565D01*
X139302663Y-113600003D01*
X139273373Y-113574623D01*
X139273371Y-113574622D01*
X139273370Y-113574621D01*
X139273367Y-113574619D01*
X139269178Y-113572706D01*
X139246024Y-113558968D01*
X139242332Y-113556205D01*
X139242331Y-113556204D01*
X139220291Y-113547983D01*
X139193757Y-113538086D01*
X139189603Y-113536365D01*
X139142462Y-113514836D01*
X139142455Y-113514834D01*
X139137883Y-113514177D01*
X139111808Y-113507521D01*
X139107488Y-113505910D01*
X139107480Y-113505908D01*
X139055778Y-113502209D01*
X139051311Y-113501729D01*
X139035799Y-113499500D01*
X139020130Y-113499500D01*
X139015634Y-113499339D01*
X138963927Y-113495641D01*
X138963926Y-113495641D01*
X138959427Y-113496620D01*
X138932642Y-113499500D01*
X137977828Y-113499500D01*
X137909707Y-113479498D01*
X137863214Y-113425842D01*
X137859772Y-113417531D01*
X137818798Y-113307673D01*
X137818796Y-113307670D01*
X137818796Y-113307669D01*
X137764044Y-113234530D01*
X137732546Y-113192453D01*
X137675661Y-113149870D01*
X137633114Y-113093034D01*
X137628050Y-113022218D01*
X137662075Y-112959906D01*
X137691711Y-112939155D01*
X137691466Y-112938757D01*
X137845690Y-112843630D01*
X137845696Y-112843625D01*
X137968625Y-112720696D01*
X137968630Y-112720690D01*
X138059904Y-112572712D01*
X138114593Y-112407668D01*
X138125000Y-112305816D01*
X138125000Y-112050000D01*
X137013500Y-112050000D01*
X136945379Y-112029998D01*
X136898886Y-111976342D01*
X136887500Y-111924000D01*
X136887500Y-110600000D01*
X137387500Y-110600000D01*
X137387500Y-111550000D01*
X138125000Y-111550000D01*
X138125000Y-111294183D01*
X138114593Y-111192331D01*
X138059904Y-111027287D01*
X137968630Y-110879309D01*
X137968625Y-110879303D01*
X137845696Y-110756374D01*
X137845690Y-110756369D01*
X137697712Y-110665095D01*
X137532668Y-110610406D01*
X137430816Y-110600000D01*
X137387500Y-110600000D01*
X136887500Y-110600000D01*
X136844184Y-110600000D01*
X136742331Y-110610406D01*
X136577287Y-110665095D01*
X136429309Y-110756369D01*
X136429303Y-110756374D01*
X136306374Y-110879303D01*
X136306369Y-110879309D01*
X136215093Y-111027291D01*
X136186834Y-111112572D01*
X136146420Y-111170944D01*
X136080864Y-111198199D01*
X136010979Y-111185685D01*
X135958953Y-111137376D01*
X135949176Y-111116977D01*
X135944503Y-111104446D01*
X135944501Y-111104444D01*
X135944501Y-111104442D01*
X135859331Y-110990668D01*
X135745557Y-110905498D01*
X135745552Y-110905496D01*
X135612394Y-110855829D01*
X135612386Y-110855827D01*
X135553524Y-110849500D01*
X134971487Y-110849500D01*
X134971463Y-110849502D01*
X134912611Y-110855828D01*
X134912609Y-110855828D01*
X134779446Y-110905496D01*
X134779443Y-110905498D01*
X134702008Y-110963465D01*
X134635488Y-110988275D01*
X134566114Y-110973183D01*
X134515912Y-110922981D01*
X134500500Y-110862596D01*
X134500500Y-106212503D01*
X134520502Y-106144382D01*
X134574158Y-106097889D01*
X134644432Y-106087785D01*
X134709012Y-106117279D01*
X134715594Y-106123407D01*
X136920182Y-108327996D01*
X139098461Y-110506275D01*
X139115362Y-110527246D01*
X139117857Y-110531128D01*
X139123560Y-110536070D01*
X139157038Y-110565078D01*
X139160317Y-110568131D01*
X139171407Y-110579221D01*
X139183963Y-110588620D01*
X139187456Y-110591435D01*
X139226627Y-110625377D01*
X139230814Y-110627289D01*
X139253975Y-110641031D01*
X139257669Y-110643796D01*
X139257672Y-110643798D01*
X139290909Y-110656193D01*
X139306246Y-110661914D01*
X139310376Y-110663624D01*
X139357543Y-110685165D01*
X139362107Y-110685821D01*
X139388202Y-110692481D01*
X139392517Y-110694091D01*
X139444228Y-110697789D01*
X139448657Y-110698264D01*
X139464201Y-110700500D01*
X139479870Y-110700500D01*
X139484366Y-110700661D01*
X139500547Y-110701817D01*
X139536073Y-110704359D01*
X139540573Y-110703379D01*
X139567358Y-110700500D01*
X139736198Y-110700500D01*
X139804319Y-110720502D01*
X139819749Y-110732186D01*
X139827760Y-110739283D01*
X139967635Y-110812696D01*
X139967636Y-110812696D01*
X139967638Y-110812697D01*
X140014991Y-110824368D01*
X140121015Y-110850500D01*
X140121017Y-110850500D01*
X140278983Y-110850500D01*
X140278985Y-110850500D01*
X140432365Y-110812696D01*
X140572240Y-110739283D01*
X140690483Y-110634530D01*
X140780220Y-110504523D01*
X140836237Y-110356818D01*
X140836237Y-110356817D01*
X140836238Y-110356815D01*
X140855278Y-110200003D01*
X140855278Y-110199996D01*
X140836238Y-110043184D01*
X140813287Y-109982669D01*
X140780220Y-109895477D01*
X140780216Y-109895472D01*
X140780216Y-109895470D01*
X140690483Y-109765470D01*
X140690481Y-109765468D01*
X140572240Y-109660717D01*
X140432365Y-109587304D01*
X140432361Y-109587302D01*
X140278987Y-109549500D01*
X140278985Y-109549500D01*
X140121015Y-109549500D01*
X140121012Y-109549500D01*
X139967638Y-109587302D01*
X139967634Y-109587304D01*
X139827760Y-109660716D01*
X139821486Y-109665048D01*
X139819829Y-109662648D01*
X139767788Y-109687074D01*
X139697412Y-109677705D01*
X139659460Y-109651646D01*
X137501192Y-107493378D01*
X135337405Y-105329590D01*
X135303379Y-105267278D01*
X135300500Y-105240495D01*
X135300500Y-97867357D01*
X135303379Y-97840576D01*
X135304359Y-97836073D01*
X135301204Y-97791957D01*
X135300661Y-97784363D01*
X135300500Y-97779867D01*
X135300500Y-97764201D01*
X135299438Y-97756818D01*
X135298264Y-97748657D01*
X135297788Y-97744216D01*
X135297577Y-97741267D01*
X135294091Y-97692517D01*
X135292481Y-97688202D01*
X135285821Y-97662107D01*
X135285165Y-97657543D01*
X135263624Y-97610376D01*
X135261910Y-97606237D01*
X135259582Y-97599996D01*
X135253752Y-97584363D01*
X135243798Y-97557672D01*
X135243796Y-97557669D01*
X135241031Y-97553975D01*
X135227289Y-97530814D01*
X135225377Y-97526627D01*
X135204491Y-97502523D01*
X135191428Y-97487447D01*
X135188607Y-97483946D01*
X135186111Y-97480612D01*
X135179220Y-97471407D01*
X135168139Y-97460326D01*
X135165085Y-97457046D01*
X135131126Y-97417855D01*
X135127245Y-97415361D01*
X135106272Y-97398459D01*
X132812405Y-95104591D01*
X132778379Y-95042279D01*
X132775500Y-95015496D01*
X132775500Y-94251500D01*
X132795502Y-94183379D01*
X132849158Y-94136886D01*
X132901500Y-94125500D01*
X133074674Y-94125500D01*
X133147740Y-94110966D01*
X133230601Y-94055601D01*
X133285966Y-93972740D01*
X133300500Y-93899674D01*
X133300500Y-92550326D01*
X133285966Y-92477260D01*
X133230601Y-92394399D01*
X133154776Y-92343735D01*
X133147739Y-92339033D01*
X133074677Y-92324500D01*
X133074674Y-92324500D01*
X131475326Y-92324500D01*
X131475322Y-92324500D01*
X131402260Y-92339033D01*
X131319399Y-92394399D01*
X131264033Y-92477260D01*
X131249500Y-92550322D01*
X131249500Y-92598500D01*
X131229498Y-92666621D01*
X131175842Y-92713114D01*
X131123500Y-92724500D01*
X125476500Y-92724500D01*
X125408379Y-92704498D01*
X125361886Y-92650842D01*
X125350500Y-92598500D01*
X125350500Y-92550325D01*
X125350499Y-92550322D01*
X125350335Y-92549500D01*
X125335966Y-92477260D01*
X125280601Y-92394399D01*
X125204776Y-92343735D01*
X125197739Y-92339033D01*
X125124677Y-92324500D01*
X125124674Y-92324500D01*
X123525326Y-92324500D01*
X123525322Y-92324500D01*
X123452260Y-92339033D01*
X123369399Y-92394399D01*
X123314033Y-92477260D01*
X123299500Y-92550322D01*
X123299500Y-92598500D01*
X123279498Y-92666621D01*
X123225842Y-92713114D01*
X123173500Y-92724500D01*
X122329858Y-92724500D01*
X122303073Y-92721620D01*
X122298573Y-92720641D01*
X122298572Y-92720641D01*
X122246866Y-92724339D01*
X122242370Y-92724500D01*
X122226701Y-92724500D01*
X122211190Y-92726729D01*
X122206723Y-92727209D01*
X122155016Y-92730909D01*
X122155012Y-92730909D01*
X122150686Y-92732523D01*
X122124617Y-92739176D01*
X122120048Y-92739833D01*
X122120044Y-92739834D01*
X122072889Y-92761369D01*
X122068739Y-92763087D01*
X122062362Y-92765466D01*
X122020170Y-92781202D01*
X122016475Y-92783969D01*
X121993319Y-92797707D01*
X121992469Y-92798096D01*
X121989125Y-92799623D01*
X121949954Y-92833564D01*
X121946455Y-92836384D01*
X121933911Y-92845775D01*
X121933908Y-92845778D01*
X121922817Y-92856866D01*
X121919531Y-92859926D01*
X121880528Y-92893723D01*
X121815948Y-92923217D01*
X121798014Y-92924500D01*
X121302135Y-92924500D01*
X121302114Y-92924502D01*
X121242519Y-92930908D01*
X121242518Y-92930908D01*
X121107673Y-92981201D01*
X121107670Y-92981203D01*
X120992453Y-93067453D01*
X120906203Y-93182670D01*
X120906201Y-93182673D01*
X120855909Y-93317515D01*
X120849500Y-93377121D01*
X120849500Y-93997864D01*
X120849502Y-93997885D01*
X120855908Y-94057480D01*
X120855908Y-94057481D01*
X120906201Y-94192326D01*
X120906203Y-94192329D01*
X120992453Y-94307546D01*
X121044438Y-94346461D01*
X121107669Y-94393796D01*
X121107671Y-94393796D01*
X121107673Y-94393798D01*
X121168030Y-94416309D01*
X121242514Y-94444090D01*
X121242517Y-94444091D01*
X121302127Y-94450500D01*
X122297872Y-94450499D01*
X122357483Y-94444091D01*
X122492331Y-94393796D01*
X122607546Y-94307546D01*
X122693796Y-94192331D01*
X122744091Y-94057483D01*
X122750500Y-93997873D01*
X122750500Y-93851500D01*
X122770502Y-93783379D01*
X122824158Y-93736886D01*
X122876500Y-93725500D01*
X123173500Y-93725500D01*
X123241621Y-93745502D01*
X123288114Y-93799158D01*
X123299500Y-93851500D01*
X123299500Y-93899677D01*
X123314033Y-93972739D01*
X123314034Y-93972740D01*
X123369399Y-94055601D01*
X123452260Y-94110966D01*
X123525326Y-94125500D01*
X125124674Y-94125500D01*
X125197740Y-94110966D01*
X125280601Y-94055601D01*
X125335966Y-93972740D01*
X125350500Y-93899674D01*
X125350500Y-93851499D01*
X125370502Y-93783379D01*
X125424158Y-93736886D01*
X125476500Y-93725500D01*
X131123500Y-93725500D01*
X131191621Y-93745502D01*
X131238114Y-93799158D01*
X131249500Y-93851500D01*
X131249500Y-93899677D01*
X131264033Y-93972739D01*
X131264034Y-93972740D01*
X131319399Y-94055601D01*
X131402260Y-94110966D01*
X131475326Y-94125500D01*
X131648500Y-94125500D01*
X131716621Y-94145502D01*
X131763114Y-94199158D01*
X131774500Y-94251500D01*
X131774500Y-95207640D01*
X131771621Y-95234420D01*
X131770641Y-95238923D01*
X131770641Y-95238928D01*
X131774339Y-95290634D01*
X131774500Y-95295130D01*
X131774500Y-95310799D01*
X131776729Y-95326311D01*
X131777209Y-95330778D01*
X131780908Y-95382480D01*
X131780910Y-95382488D01*
X131782521Y-95386808D01*
X131789177Y-95412883D01*
X131789834Y-95417455D01*
X131789836Y-95417462D01*
X131811365Y-95464603D01*
X131813086Y-95468757D01*
X131813130Y-95468874D01*
X131831204Y-95517331D01*
X131831205Y-95517332D01*
X131833968Y-95521024D01*
X131847706Y-95544178D01*
X131849619Y-95548367D01*
X131849621Y-95548370D01*
X131849622Y-95548371D01*
X131849623Y-95548373D01*
X131883565Y-95587544D01*
X131886379Y-95591036D01*
X131895779Y-95603593D01*
X131906865Y-95614679D01*
X131909919Y-95617959D01*
X131943872Y-95657143D01*
X131947751Y-95659635D01*
X131968723Y-95676537D01*
X132652091Y-96359905D01*
X132686117Y-96422217D01*
X132681052Y-96493032D01*
X132638505Y-96549868D01*
X132571985Y-96574679D01*
X132562996Y-96575000D01*
X132525000Y-96575000D01*
X132525000Y-97475000D01*
X133549999Y-97475000D01*
X133569498Y-97455501D01*
X133631810Y-97421476D01*
X133702625Y-97426540D01*
X133747683Y-97455496D01*
X134262597Y-97970410D01*
X134296621Y-98032720D01*
X134299500Y-98059503D01*
X134299500Y-102737495D01*
X134279498Y-102805616D01*
X134225842Y-102852109D01*
X134155568Y-102862213D01*
X134090988Y-102832719D01*
X134084405Y-102826590D01*
X133337405Y-102079590D01*
X133303379Y-102017278D01*
X133300500Y-101990495D01*
X133300500Y-101050325D01*
X133300499Y-101050322D01*
X133299641Y-101046011D01*
X133285966Y-100977260D01*
X133230601Y-100894399D01*
X133151094Y-100841275D01*
X133147739Y-100839033D01*
X133074677Y-100824500D01*
X133074674Y-100824500D01*
X131475326Y-100824500D01*
X131475322Y-100824500D01*
X131402260Y-100839033D01*
X131319399Y-100894399D01*
X131264033Y-100977260D01*
X131249500Y-101050322D01*
X131249500Y-101098500D01*
X131229498Y-101166621D01*
X131175842Y-101213114D01*
X131123500Y-101224500D01*
X125476500Y-101224500D01*
X125408379Y-101204498D01*
X125361886Y-101150842D01*
X125350500Y-101098500D01*
X125350500Y-101050325D01*
X125350499Y-101050322D01*
X125349641Y-101046011D01*
X125335966Y-100977260D01*
X125280601Y-100894399D01*
X125201094Y-100841275D01*
X125197739Y-100839033D01*
X125124677Y-100824500D01*
X125124674Y-100824500D01*
X123525326Y-100824500D01*
X123525322Y-100824500D01*
X123452260Y-100839033D01*
X123369399Y-100894399D01*
X123314033Y-100977260D01*
X123299500Y-101050322D01*
X123299499Y-101050326D01*
X123299499Y-101104161D01*
X123279496Y-101172282D01*
X123225839Y-101218774D01*
X123182490Y-101229838D01*
X123167516Y-101230909D01*
X123167507Y-101230911D01*
X123163196Y-101232519D01*
X123137108Y-101239178D01*
X123132544Y-101239834D01*
X123085390Y-101261368D01*
X123081237Y-101263088D01*
X123032672Y-101281203D01*
X123032667Y-101281206D01*
X123028972Y-101283972D01*
X123005825Y-101297705D01*
X123001626Y-101299622D01*
X123001624Y-101299623D01*
X122962450Y-101333568D01*
X122958950Y-101336388D01*
X122946412Y-101345774D01*
X122946396Y-101345787D01*
X122935319Y-101356865D01*
X122932031Y-101359926D01*
X122892859Y-101393869D01*
X122892856Y-101393873D01*
X122890359Y-101397758D01*
X122873463Y-101418721D01*
X122851764Y-101440420D01*
X122789452Y-101474446D01*
X122718637Y-101469381D01*
X122687160Y-101452193D01*
X122665260Y-101435799D01*
X122592331Y-101381204D01*
X122592329Y-101381203D01*
X122592326Y-101381201D01*
X122457483Y-101330909D01*
X122457486Y-101330909D01*
X122397873Y-101324500D01*
X121402135Y-101324500D01*
X121402114Y-101324502D01*
X121342519Y-101330908D01*
X121342518Y-101330908D01*
X121207673Y-101381201D01*
X121207670Y-101381203D01*
X121092453Y-101467453D01*
X121006203Y-101582670D01*
X121006201Y-101582673D01*
X120955909Y-101717515D01*
X120949500Y-101777121D01*
X120949500Y-102397864D01*
X120949502Y-102397885D01*
X120955908Y-102457480D01*
X120955908Y-102457481D01*
X121006201Y-102592326D01*
X121006203Y-102592329D01*
X121006204Y-102592331D01*
X121009661Y-102596949D01*
X121092453Y-102707546D01*
X121134846Y-102739281D01*
X121207669Y-102793796D01*
X121207671Y-102793796D01*
X121207673Y-102793798D01*
X121258348Y-102812698D01*
X121342514Y-102844090D01*
X121342517Y-102844091D01*
X121402127Y-102850500D01*
X122397872Y-102850499D01*
X122457483Y-102844091D01*
X122592331Y-102793796D01*
X122707546Y-102707546D01*
X122757145Y-102641290D01*
X122813980Y-102598744D01*
X122867172Y-102594936D01*
X122867439Y-102591216D01*
X122876420Y-102591857D01*
X122876427Y-102591859D01*
X122912765Y-102589259D01*
X122928134Y-102588161D01*
X122932630Y-102588000D01*
X122948298Y-102588000D01*
X122948299Y-102588000D01*
X122963838Y-102585765D01*
X122968270Y-102585289D01*
X123019983Y-102581591D01*
X123024291Y-102579983D01*
X123050401Y-102573319D01*
X123054957Y-102572665D01*
X123102140Y-102551116D01*
X123106239Y-102549418D01*
X123154831Y-102531296D01*
X123158517Y-102528536D01*
X123181683Y-102514789D01*
X123185873Y-102512877D01*
X123185880Y-102512870D01*
X123190168Y-102510116D01*
X123258288Y-102490112D01*
X123326409Y-102510112D01*
X123363057Y-102546110D01*
X123367169Y-102552264D01*
X123369399Y-102555601D01*
X123452260Y-102610966D01*
X123525326Y-102625500D01*
X125124674Y-102625500D01*
X125197740Y-102610966D01*
X125280601Y-102555601D01*
X125335966Y-102472740D01*
X125350500Y-102399674D01*
X125350500Y-102351500D01*
X125370502Y-102283379D01*
X125424158Y-102236886D01*
X125476500Y-102225500D01*
X131123500Y-102225500D01*
X131191621Y-102245502D01*
X131238114Y-102299158D01*
X131249500Y-102351500D01*
X131249500Y-102399677D01*
X131264033Y-102472739D01*
X131275641Y-102490112D01*
X131319399Y-102555601D01*
X131402260Y-102610966D01*
X131475326Y-102625500D01*
X132415496Y-102625500D01*
X132483617Y-102645502D01*
X132504591Y-102662405D01*
X133462594Y-103620408D01*
X133496620Y-103682720D01*
X133499499Y-103709503D01*
X133499499Y-105035196D01*
X133479497Y-105103317D01*
X133425841Y-105149810D01*
X133355567Y-105159914D01*
X133297994Y-105136067D01*
X133292090Y-105131648D01*
X133157371Y-105081400D01*
X133097840Y-105075000D01*
X132525000Y-105075000D01*
X132525000Y-107375000D01*
X133097824Y-107375000D01*
X133097840Y-107374999D01*
X133157371Y-107368599D01*
X133292089Y-107318352D01*
X133297989Y-107313936D01*
X133364509Y-107289124D01*
X133433883Y-107304215D01*
X133484086Y-107354416D01*
X133499499Y-107414803D01*
X133499499Y-109035196D01*
X133479497Y-109103317D01*
X133425841Y-109149810D01*
X133355567Y-109159914D01*
X133297994Y-109136067D01*
X133292090Y-109131648D01*
X133157371Y-109081400D01*
X133097840Y-109075000D01*
X132525000Y-109075000D01*
X132525000Y-111375000D01*
X133097824Y-111375000D01*
X133097840Y-111374999D01*
X133157371Y-111368599D01*
X133292086Y-111318353D01*
X133297984Y-111313938D01*
X133364503Y-111289124D01*
X133433878Y-111304211D01*
X133484083Y-111354410D01*
X133499499Y-111414802D01*
X133499499Y-112340719D01*
X133479497Y-112408840D01*
X133477196Y-112412294D01*
X133419781Y-112495474D01*
X133363761Y-112643184D01*
X133344722Y-112799996D01*
X133344722Y-112800003D01*
X133363761Y-112956815D01*
X133383946Y-113010036D01*
X133419780Y-113104523D01*
X133419781Y-113104525D01*
X133419782Y-113104526D01*
X133419783Y-113104529D01*
X133509516Y-113234529D01*
X133509518Y-113234531D01*
X133559963Y-113279221D01*
X133627760Y-113339283D01*
X133767635Y-113412696D01*
X133767636Y-113412696D01*
X133767638Y-113412697D01*
X133844325Y-113431598D01*
X133921015Y-113450500D01*
X133921017Y-113450500D01*
X134078983Y-113450500D01*
X134078985Y-113450500D01*
X134232365Y-113412696D01*
X134343087Y-113354583D01*
X134412698Y-113340637D01*
X134478801Y-113366540D01*
X134520406Y-113424068D01*
X134526919Y-113479618D01*
X134524501Y-113502112D01*
X134524500Y-113502131D01*
X134524500Y-114497864D01*
X134524502Y-114497888D01*
X134524727Y-114499979D01*
X134524640Y-114500460D01*
X134524682Y-114501243D01*
X134524497Y-114501252D01*
X134512120Y-114569847D01*
X134463741Y-114621808D01*
X134394949Y-114639365D01*
X134327586Y-114616942D01*
X134310354Y-114602540D01*
X134126537Y-114418723D01*
X134109635Y-114397751D01*
X134107143Y-114393872D01*
X134102628Y-114389960D01*
X134067960Y-114359920D01*
X134064679Y-114356865D01*
X134053593Y-114345779D01*
X134041036Y-114336379D01*
X134037544Y-114333565D01*
X134034732Y-114331128D01*
X133998373Y-114299623D01*
X133998371Y-114299622D01*
X133998370Y-114299621D01*
X133998367Y-114299619D01*
X133994178Y-114297706D01*
X133971024Y-114283968D01*
X133967332Y-114281205D01*
X133967331Y-114281204D01*
X133943751Y-114272409D01*
X133918757Y-114263086D01*
X133914603Y-114261365D01*
X133867462Y-114239836D01*
X133867455Y-114239834D01*
X133862883Y-114239177D01*
X133836808Y-114232521D01*
X133832488Y-114230910D01*
X133832480Y-114230908D01*
X133780778Y-114227209D01*
X133776311Y-114226729D01*
X133760799Y-114224500D01*
X133745130Y-114224500D01*
X133740634Y-114224339D01*
X133688927Y-114220641D01*
X133688926Y-114220641D01*
X133684427Y-114221620D01*
X133657642Y-114224500D01*
X133426500Y-114224500D01*
X133358379Y-114204498D01*
X133311886Y-114150842D01*
X133300500Y-114098500D01*
X133300500Y-114050325D01*
X133300499Y-114050322D01*
X133295919Y-114027299D01*
X133285966Y-113977260D01*
X133230601Y-113894399D01*
X133165930Y-113851188D01*
X133147739Y-113839033D01*
X133074677Y-113824500D01*
X133074674Y-113824500D01*
X131475326Y-113824500D01*
X131475322Y-113824500D01*
X131402260Y-113839033D01*
X131319399Y-113894399D01*
X131264033Y-113977260D01*
X131249500Y-114050322D01*
X131249500Y-114098500D01*
X131229498Y-114166621D01*
X131175842Y-114213114D01*
X131123500Y-114224500D01*
X125476500Y-114224500D01*
X125408379Y-114204498D01*
X125361886Y-114150842D01*
X125350500Y-114098500D01*
X125350500Y-114050325D01*
X125350499Y-114050322D01*
X125345919Y-114027299D01*
X125335966Y-113977260D01*
X125280601Y-113894399D01*
X125215930Y-113851188D01*
X125197739Y-113839033D01*
X125124677Y-113824500D01*
X125124674Y-113824500D01*
X124951500Y-113824500D01*
X124883379Y-113804498D01*
X124836886Y-113750842D01*
X124825500Y-113698500D01*
X124825500Y-112792357D01*
X124828380Y-112765572D01*
X124829359Y-112761071D01*
X124825660Y-112709362D01*
X124825499Y-112704862D01*
X124825500Y-112689201D01*
X124823265Y-112673660D01*
X124822788Y-112669216D01*
X124821962Y-112657669D01*
X124819091Y-112617517D01*
X124817481Y-112613202D01*
X124810821Y-112587107D01*
X124810165Y-112582543D01*
X124788624Y-112535376D01*
X124786910Y-112531237D01*
X124768798Y-112482672D01*
X124768796Y-112482669D01*
X124766031Y-112478975D01*
X124752289Y-112455814D01*
X124750377Y-112451627D01*
X124716435Y-112412456D01*
X124713620Y-112408963D01*
X124704221Y-112396407D01*
X124693131Y-112385317D01*
X124690078Y-112382038D01*
X124688296Y-112379982D01*
X124656128Y-112342857D01*
X124656127Y-112342856D01*
X124652246Y-112340362D01*
X124631275Y-112323461D01*
X123897909Y-111590095D01*
X123863883Y-111527783D01*
X123868948Y-111456968D01*
X123911495Y-111400132D01*
X123978015Y-111375321D01*
X123987004Y-111375000D01*
X124075000Y-111375000D01*
X124075000Y-110475000D01*
X124575000Y-110475000D01*
X124575000Y-111375000D01*
X125147824Y-111375000D01*
X125147840Y-111374999D01*
X125207371Y-111368599D01*
X125342089Y-111318352D01*
X125457189Y-111232189D01*
X125543352Y-111117089D01*
X125593599Y-110982371D01*
X125599999Y-110922840D01*
X125600000Y-110922823D01*
X125600000Y-110475000D01*
X131000000Y-110475000D01*
X131000000Y-110922840D01*
X131006400Y-110982371D01*
X131056647Y-111117089D01*
X131142810Y-111232189D01*
X131257910Y-111318352D01*
X131392628Y-111368599D01*
X131452159Y-111374999D01*
X131452176Y-111375000D01*
X132025000Y-111375000D01*
X132025000Y-110475000D01*
X131000000Y-110475000D01*
X125600000Y-110475000D01*
X124575000Y-110475000D01*
X124075000Y-110475000D01*
X123050000Y-110475000D01*
X123050000Y-110858536D01*
X123029998Y-110926657D01*
X122976342Y-110973150D01*
X122906068Y-110983254D01*
X122879969Y-110976592D01*
X122757484Y-110930909D01*
X122757486Y-110930909D01*
X122697873Y-110924500D01*
X121702135Y-110924500D01*
X121702114Y-110924502D01*
X121642519Y-110930908D01*
X121642518Y-110930908D01*
X121507673Y-110981201D01*
X121507670Y-110981203D01*
X121392453Y-111067453D01*
X121306203Y-111182670D01*
X121306201Y-111182673D01*
X121255909Y-111317515D01*
X121249500Y-111377121D01*
X121249500Y-111997864D01*
X121249502Y-111997885D01*
X121255908Y-112057480D01*
X121255908Y-112057481D01*
X121306201Y-112192326D01*
X121306203Y-112192329D01*
X121306204Y-112192331D01*
X121329537Y-112223500D01*
X121392453Y-112307546D01*
X121439622Y-112342856D01*
X121507669Y-112393796D01*
X121507671Y-112393796D01*
X121507673Y-112393798D01*
X121548004Y-112408840D01*
X121642514Y-112444090D01*
X121642517Y-112444091D01*
X121702127Y-112450500D01*
X122697872Y-112450499D01*
X122757483Y-112444091D01*
X122892331Y-112393796D01*
X123007546Y-112307546D01*
X123007547Y-112307544D01*
X123007549Y-112307543D01*
X123013919Y-112301174D01*
X123016479Y-112303734D01*
X123059412Y-112271536D01*
X123130223Y-112266409D01*
X123192565Y-112300379D01*
X123787595Y-112895409D01*
X123821621Y-112957721D01*
X123824500Y-112984504D01*
X123824500Y-113698500D01*
X123804498Y-113766621D01*
X123750842Y-113813114D01*
X123698500Y-113824500D01*
X123525322Y-113824500D01*
X123452260Y-113839033D01*
X123369396Y-113894400D01*
X123365591Y-113898206D01*
X123303277Y-113932229D01*
X123232462Y-113927161D01*
X123175628Y-113884612D01*
X123150820Y-113818091D01*
X123150499Y-113809134D01*
X123150499Y-113202128D01*
X123144091Y-113142517D01*
X123120045Y-113078046D01*
X123093798Y-113007673D01*
X123093796Y-113007670D01*
X123093796Y-113007669D01*
X123050251Y-112949500D01*
X123007546Y-112892453D01*
X122927414Y-112832467D01*
X122892331Y-112806204D01*
X122892329Y-112806203D01*
X122892326Y-112806201D01*
X122757483Y-112755909D01*
X122757486Y-112755909D01*
X122697873Y-112749500D01*
X121702135Y-112749500D01*
X121702114Y-112749502D01*
X121642519Y-112755908D01*
X121642518Y-112755908D01*
X121507673Y-112806201D01*
X121507670Y-112806203D01*
X121392453Y-112892453D01*
X121306203Y-113007670D01*
X121306201Y-113007673D01*
X121255909Y-113142515D01*
X121249500Y-113202121D01*
X121249500Y-113822864D01*
X121249502Y-113822885D01*
X121255908Y-113882480D01*
X121255908Y-113882481D01*
X121306201Y-114017326D01*
X121306203Y-114017329D01*
X121306204Y-114017331D01*
X121330904Y-114050326D01*
X121392452Y-114132544D01*
X121392453Y-114132544D01*
X121392454Y-114132546D01*
X121507669Y-114218796D01*
X121517528Y-114222473D01*
X121574365Y-114265017D01*
X121599179Y-114331537D01*
X121599500Y-114340530D01*
X121599500Y-114694409D01*
X121579498Y-114762530D01*
X121532057Y-114805975D01*
X121427761Y-114860716D01*
X121427760Y-114860716D01*
X121309518Y-114965468D01*
X121309516Y-114965470D01*
X121219783Y-115095470D01*
X121219782Y-115095473D01*
X121219781Y-115095475D01*
X121219780Y-115095477D01*
X121211039Y-115118526D01*
X121163761Y-115243184D01*
X121144722Y-115399996D01*
X121144722Y-115400003D01*
X121163761Y-115556815D01*
X121185211Y-115613373D01*
X121219780Y-115704523D01*
X121219781Y-115704524D01*
X121219782Y-115704526D01*
X121219783Y-115704529D01*
X121309516Y-115834529D01*
X121309517Y-115834530D01*
X121427760Y-115939283D01*
X121567635Y-116012696D01*
X121567636Y-116012696D01*
X121567638Y-116012697D01*
X121644325Y-116031598D01*
X121721015Y-116050500D01*
X121721017Y-116050500D01*
X121878983Y-116050500D01*
X121878985Y-116050500D01*
X122032365Y-116012696D01*
X122172240Y-115939283D01*
X122290483Y-115834530D01*
X122380220Y-115704523D01*
X122392323Y-115672608D01*
X122421038Y-115628195D01*
X122593872Y-115455361D01*
X122600054Y-115449940D01*
X122628282Y-115428282D01*
X122724536Y-115302841D01*
X122785044Y-115156762D01*
X122800500Y-115039361D01*
X122805682Y-115000000D01*
X122804280Y-114989348D01*
X122801040Y-114964737D01*
X122800500Y-114956505D01*
X122800500Y-114340530D01*
X122820502Y-114272409D01*
X122874158Y-114225916D01*
X122882472Y-114222473D01*
X122884759Y-114221620D01*
X122892331Y-114218796D01*
X123007546Y-114132546D01*
X123072632Y-114045601D01*
X123129468Y-114003055D01*
X123200284Y-113997991D01*
X123262596Y-114032016D01*
X123296621Y-114094328D01*
X123299500Y-114121111D01*
X123299500Y-115399677D01*
X123314033Y-115472739D01*
X123331914Y-115499500D01*
X123369399Y-115555601D01*
X123452260Y-115610966D01*
X123525326Y-115625500D01*
X125124674Y-115625500D01*
X125197740Y-115610966D01*
X125280601Y-115555601D01*
X125335966Y-115472740D01*
X125350500Y-115399674D01*
X125350500Y-115351500D01*
X125370502Y-115283379D01*
X125424158Y-115236886D01*
X125476500Y-115225500D01*
X131123500Y-115225500D01*
X131191621Y-115245502D01*
X131238114Y-115299158D01*
X131249500Y-115351500D01*
X131249500Y-115399677D01*
X131264033Y-115472739D01*
X131281914Y-115499500D01*
X131319399Y-115555601D01*
X131402260Y-115610966D01*
X131475326Y-115625500D01*
X133074674Y-115625500D01*
X133147740Y-115610966D01*
X133230601Y-115555601D01*
X133285966Y-115472740D01*
X133300500Y-115399674D01*
X133300500Y-115351499D01*
X133320502Y-115283379D01*
X133374158Y-115236886D01*
X133426500Y-115225500D01*
X133465496Y-115225500D01*
X133533617Y-115245502D01*
X133554591Y-115262405D01*
X134498461Y-116206275D01*
X134515362Y-116227246D01*
X134517856Y-116231127D01*
X134557038Y-116265078D01*
X134560317Y-116268131D01*
X134571407Y-116279221D01*
X134583963Y-116288620D01*
X134587456Y-116291435D01*
X134626627Y-116325377D01*
X134630814Y-116327289D01*
X134653975Y-116341031D01*
X134657271Y-116343498D01*
X134657672Y-116343798D01*
X134690909Y-116356193D01*
X134706246Y-116361914D01*
X134710376Y-116363624D01*
X134757543Y-116385165D01*
X134762107Y-116385821D01*
X134788202Y-116392481D01*
X134792517Y-116394091D01*
X134844228Y-116397789D01*
X134848657Y-116398264D01*
X134864201Y-116400500D01*
X134879870Y-116400500D01*
X134884366Y-116400661D01*
X134900547Y-116401817D01*
X134936073Y-116404359D01*
X134940573Y-116403379D01*
X134967358Y-116400500D01*
X135073258Y-116400500D01*
X135141379Y-116420502D01*
X135187872Y-116474158D01*
X135197976Y-116544432D01*
X135191071Y-116571175D01*
X135185234Y-116586568D01*
X135163761Y-116643184D01*
X135144722Y-116799996D01*
X135144722Y-116800003D01*
X135163761Y-116956815D01*
X135176573Y-116990596D01*
X135219780Y-117104523D01*
X135219781Y-117104525D01*
X135219782Y-117104526D01*
X135219783Y-117104529D01*
X135309516Y-117234529D01*
X135309518Y-117234531D01*
X135341311Y-117262697D01*
X135427760Y-117339283D01*
X135567635Y-117412696D01*
X135567636Y-117412696D01*
X135567638Y-117412697D01*
X135723696Y-117451161D01*
X135785051Y-117486884D01*
X135799864Y-117515879D01*
X135811233Y-117490988D01*
X135870959Y-117452604D01*
X135876304Y-117451161D01*
X136032361Y-117412697D01*
X136032361Y-117412696D01*
X136032365Y-117412696D01*
X136172240Y-117339283D01*
X136180248Y-117332188D01*
X136244500Y-117301987D01*
X136263802Y-117300500D01*
X146332642Y-117300500D01*
X146359426Y-117303379D01*
X146363927Y-117304359D01*
X146400265Y-117301759D01*
X146415634Y-117300661D01*
X146420130Y-117300500D01*
X146435798Y-117300500D01*
X146435799Y-117300500D01*
X146451338Y-117298265D01*
X146455770Y-117297789D01*
X146483526Y-117295804D01*
X146552899Y-117310896D01*
X146603101Y-117361100D01*
X146618191Y-117430474D01*
X146593379Y-117496994D01*
X146581608Y-117510577D01*
X146429589Y-117662596D01*
X146367280Y-117696620D01*
X146340496Y-117699500D01*
X135906457Y-117699500D01*
X135838336Y-117679498D01*
X135799402Y-117634566D01*
X135766254Y-117676403D01*
X135699078Y-117699378D01*
X135693543Y-117699500D01*
X135667358Y-117699500D01*
X135640573Y-117696620D01*
X135636073Y-117695641D01*
X135636072Y-117695641D01*
X135584366Y-117699339D01*
X135579870Y-117699500D01*
X135564201Y-117699500D01*
X135548690Y-117701729D01*
X135544223Y-117702209D01*
X135492516Y-117705909D01*
X135492512Y-117705909D01*
X135488186Y-117707523D01*
X135462117Y-117714176D01*
X135457548Y-117714833D01*
X135457544Y-117714834D01*
X135410389Y-117736369D01*
X135406239Y-117738087D01*
X135399862Y-117740466D01*
X135357670Y-117756202D01*
X135353975Y-117758969D01*
X135330819Y-117772707D01*
X135329969Y-117773096D01*
X135326625Y-117774623D01*
X135287454Y-117808564D01*
X135283955Y-117811384D01*
X135271411Y-117820775D01*
X135271408Y-117820778D01*
X135260317Y-117831866D01*
X135257031Y-117834925D01*
X135217859Y-117868868D01*
X135217856Y-117868873D01*
X135215359Y-117872758D01*
X135198463Y-117893721D01*
X134393721Y-118698463D01*
X134372758Y-118715359D01*
X134368873Y-118717856D01*
X134368868Y-118717859D01*
X134334925Y-118757031D01*
X134331866Y-118760317D01*
X134320778Y-118771408D01*
X134320775Y-118771411D01*
X134311384Y-118783955D01*
X134308564Y-118787454D01*
X134274623Y-118826625D01*
X134272709Y-118830818D01*
X134258969Y-118853975D01*
X134256202Y-118857670D01*
X134241465Y-118897185D01*
X134238558Y-118904980D01*
X134238090Y-118906234D01*
X134236369Y-118910389D01*
X134214833Y-118957547D01*
X134212647Y-118964993D01*
X134174262Y-119024718D01*
X134145003Y-119043686D01*
X134022171Y-119100964D01*
X134022167Y-119100966D01*
X133828607Y-119236498D01*
X133828602Y-119236502D01*
X133725595Y-119339509D01*
X133663283Y-119373534D01*
X133592467Y-119368468D01*
X133535631Y-119325922D01*
X133510821Y-119259401D01*
X133510500Y-119250413D01*
X133510500Y-119150325D01*
X133510499Y-119150322D01*
X133510335Y-119149500D01*
X133495966Y-119077260D01*
X133440601Y-118994399D01*
X133357740Y-118939034D01*
X133357739Y-118939033D01*
X133284677Y-118924500D01*
X133284674Y-118924500D01*
X131035326Y-118924500D01*
X131035322Y-118924500D01*
X130962260Y-118939033D01*
X130879399Y-118994399D01*
X130824033Y-119077260D01*
X130809500Y-119150322D01*
X130809500Y-121399677D01*
X130824033Y-121472739D01*
X130834640Y-121488614D01*
X130879399Y-121555601D01*
X130962260Y-121610966D01*
X131035326Y-121625500D01*
X133284674Y-121625500D01*
X133357740Y-121610966D01*
X133440601Y-121555601D01*
X133495966Y-121472740D01*
X133510500Y-121399674D01*
X133510500Y-121299586D01*
X133530502Y-121231465D01*
X133584158Y-121184972D01*
X133654432Y-121174868D01*
X133719012Y-121204362D01*
X133725595Y-121210491D01*
X133828599Y-121313495D01*
X134022170Y-121449035D01*
X134236337Y-121548903D01*
X134464592Y-121610063D01*
X134700000Y-121630659D01*
X134935408Y-121610063D01*
X135163663Y-121548903D01*
X135377830Y-121449035D01*
X135571401Y-121313495D01*
X135724049Y-121160846D01*
X135786361Y-121126821D01*
X135857176Y-121131886D01*
X135914012Y-121174433D01*
X135920577Y-121184107D01*
X135941566Y-121218359D01*
X135942267Y-121219178D01*
X136714070Y-120447375D01*
X136716884Y-120460915D01*
X136786442Y-120595156D01*
X136889638Y-120705652D01*
X137018819Y-120784209D01*
X137070002Y-120798549D01*
X136295819Y-121572732D01*
X136296631Y-121573426D01*
X136511370Y-121705019D01*
X136744045Y-121801396D01*
X136902245Y-121839376D01*
X136963814Y-121874728D01*
X136996497Y-121937755D01*
X136989917Y-122008446D01*
X136946162Y-122064357D01*
X136914447Y-122080824D01*
X136890474Y-122089212D01*
X136737739Y-122185182D01*
X136737737Y-122185183D01*
X136610183Y-122312737D01*
X136610182Y-122312739D01*
X136514212Y-122465474D01*
X136514211Y-122465477D01*
X136472953Y-122583386D01*
X136454632Y-122635745D01*
X136434435Y-122815000D01*
X136454632Y-122994255D01*
X136475627Y-123054255D01*
X136514211Y-123164522D01*
X136514212Y-123164525D01*
X136610182Y-123317260D01*
X136610183Y-123317262D01*
X136737737Y-123444816D01*
X136737739Y-123444817D01*
X136890474Y-123540787D01*
X136890475Y-123540787D01*
X136890478Y-123540789D01*
X137060745Y-123600368D01*
X137195046Y-123615500D01*
X137284954Y-123615500D01*
X137419255Y-123600368D01*
X137589522Y-123540789D01*
X137742262Y-123444816D01*
X137869816Y-123317262D01*
X137965789Y-123164522D01*
X138025368Y-122994255D01*
X138045565Y-122815000D01*
X138025368Y-122635745D01*
X137965789Y-122465478D01*
X137965787Y-122465475D01*
X137965787Y-122465474D01*
X137869817Y-122312739D01*
X137869816Y-122312737D01*
X137742262Y-122185183D01*
X137742260Y-122185182D01*
X137589526Y-122089213D01*
X137589524Y-122089212D01*
X137589522Y-122089211D01*
X137565551Y-122080823D01*
X137507862Y-122039446D01*
X137481699Y-121973446D01*
X137495371Y-121903779D01*
X137544539Y-121852563D01*
X137577754Y-121839376D01*
X137735954Y-121801396D01*
X137968629Y-121705019D01*
X138183370Y-121573426D01*
X138184178Y-121572733D01*
X138184179Y-121572732D01*
X137411568Y-120800121D01*
X137528458Y-120749349D01*
X137645739Y-120653934D01*
X137732928Y-120530415D01*
X137763354Y-120444801D01*
X138537732Y-121219179D01*
X138537733Y-121219178D01*
X138538426Y-121218370D01*
X138670019Y-121003629D01*
X138766396Y-120770954D01*
X138825187Y-120526068D01*
X138837948Y-120363928D01*
X148095641Y-120363928D01*
X148099339Y-120415634D01*
X148099500Y-120420130D01*
X148099500Y-120435799D01*
X148101729Y-120451311D01*
X148102209Y-120455778D01*
X148105908Y-120507480D01*
X148105910Y-120507488D01*
X148107521Y-120511808D01*
X148114177Y-120537883D01*
X148114834Y-120542455D01*
X148114836Y-120542462D01*
X148136365Y-120589603D01*
X148138086Y-120593757D01*
X148141837Y-120603812D01*
X148156204Y-120642331D01*
X148156205Y-120642332D01*
X148158968Y-120646024D01*
X148172706Y-120669178D01*
X148174619Y-120673367D01*
X148174621Y-120673370D01*
X148174622Y-120673371D01*
X148174623Y-120673373D01*
X148195974Y-120698013D01*
X148208565Y-120712544D01*
X148211379Y-120716036D01*
X148220779Y-120728593D01*
X148231865Y-120739679D01*
X148234920Y-120742960D01*
X148254582Y-120765652D01*
X148268872Y-120782143D01*
X148272751Y-120784635D01*
X148293723Y-120801537D01*
X149598461Y-122106275D01*
X149615362Y-122127246D01*
X149617857Y-122131128D01*
X149638728Y-122149213D01*
X149657038Y-122165078D01*
X149660317Y-122168131D01*
X149671407Y-122179221D01*
X149683963Y-122188620D01*
X149687456Y-122191435D01*
X149726627Y-122225377D01*
X149730814Y-122227289D01*
X149753975Y-122241031D01*
X149757669Y-122243796D01*
X149757672Y-122243798D01*
X149790909Y-122256193D01*
X149806246Y-122261914D01*
X149810376Y-122263624D01*
X149857543Y-122285165D01*
X149857544Y-122285165D01*
X149865742Y-122288909D01*
X149864158Y-122292375D01*
X149908772Y-122320985D01*
X149931683Y-122359558D01*
X149981201Y-122492326D01*
X149981203Y-122492329D01*
X150067453Y-122607546D01*
X150099499Y-122631535D01*
X150182669Y-122693796D01*
X150182671Y-122693796D01*
X150182673Y-122693798D01*
X150243030Y-122716309D01*
X150317514Y-122744090D01*
X150317517Y-122744091D01*
X150377127Y-122750500D01*
X150997872Y-122750499D01*
X151057483Y-122744091D01*
X151171646Y-122701510D01*
X151192326Y-122693798D01*
X151192326Y-122693797D01*
X151192331Y-122693796D01*
X151307546Y-122607546D01*
X151393796Y-122492331D01*
X151444091Y-122357483D01*
X151450500Y-122297873D01*
X151450499Y-121302128D01*
X151444091Y-121242517D01*
X151406771Y-121142457D01*
X151393798Y-121107673D01*
X151393796Y-121107670D01*
X151393796Y-121107669D01*
X151339994Y-121035799D01*
X151307546Y-120992453D01*
X151224902Y-120930587D01*
X151192331Y-120906204D01*
X151192329Y-120906203D01*
X151192326Y-120906201D01*
X151057483Y-120855909D01*
X151057486Y-120855909D01*
X150997873Y-120849500D01*
X150377135Y-120849500D01*
X150377114Y-120849502D01*
X150317519Y-120855908D01*
X150317518Y-120855908D01*
X150182674Y-120906201D01*
X150182670Y-120906203D01*
X150182669Y-120906204D01*
X150067454Y-120992454D01*
X150067451Y-120992456D01*
X150060241Y-120997855D01*
X150058149Y-120995060D01*
X150010502Y-121021007D01*
X149939692Y-121015861D01*
X149894765Y-120986951D01*
X149137405Y-120229591D01*
X149103379Y-120167279D01*
X149100500Y-120140496D01*
X149100500Y-119504047D01*
X149120502Y-119435926D01*
X149174158Y-119389433D01*
X149244432Y-119379329D01*
X149261655Y-119383051D01*
X149310007Y-119397099D01*
X149310010Y-119397100D01*
X149346848Y-119399999D01*
X149346851Y-119400000D01*
X149750000Y-119400000D01*
X149750000Y-117799999D01*
X149718002Y-117768001D01*
X149683976Y-117705689D01*
X149689041Y-117634874D01*
X149717999Y-117589814D01*
X150170409Y-117137404D01*
X150232722Y-117103379D01*
X150259505Y-117100500D01*
X150565496Y-117100500D01*
X150633617Y-117120502D01*
X150654591Y-117137405D01*
X150855093Y-117337907D01*
X150889119Y-117400219D01*
X150890448Y-117446707D01*
X150887000Y-117468483D01*
X150887000Y-117692320D01*
X150866998Y-117760441D01*
X150813342Y-117806934D01*
X150743068Y-117817038D01*
X150725848Y-117813317D01*
X150689992Y-117802900D01*
X150689989Y-117802899D01*
X150653150Y-117800000D01*
X150250000Y-117800000D01*
X150250000Y-118350000D01*
X151234796Y-118350000D01*
X151234095Y-118341090D01*
X151235759Y-118340959D01*
X151242334Y-118278534D01*
X151286761Y-118223157D01*
X151354076Y-118200589D01*
X151358798Y-118200499D01*
X152494018Y-118200499D01*
X152587804Y-118185646D01*
X152700842Y-118128050D01*
X152790550Y-118038342D01*
X152848146Y-117925304D01*
X152863000Y-117831519D01*
X152862999Y-117468482D01*
X152848146Y-117374696D01*
X152810341Y-117300500D01*
X152790550Y-117261657D01*
X152700842Y-117171949D01*
X152620725Y-117131128D01*
X152587804Y-117114354D01*
X152494019Y-117099500D01*
X152494016Y-117099500D01*
X152084504Y-117099500D01*
X152016383Y-117079498D01*
X151995408Y-117062595D01*
X151619213Y-116686400D01*
X151226534Y-116293720D01*
X151209629Y-116272741D01*
X151207143Y-116268872D01*
X151167959Y-116234919D01*
X151164679Y-116231865D01*
X151153593Y-116220779D01*
X151141036Y-116211379D01*
X151137544Y-116208565D01*
X151137543Y-116208564D01*
X151098373Y-116174623D01*
X151098371Y-116174622D01*
X151098370Y-116174621D01*
X151098367Y-116174619D01*
X151094178Y-116172706D01*
X151071024Y-116158968D01*
X151067332Y-116156205D01*
X151067331Y-116156204D01*
X151043266Y-116147228D01*
X151018757Y-116138086D01*
X151014603Y-116136365D01*
X150967462Y-116114836D01*
X150967455Y-116114834D01*
X150962883Y-116114177D01*
X150936808Y-116107521D01*
X150932488Y-116105910D01*
X150932480Y-116105908D01*
X150880778Y-116102209D01*
X150876311Y-116101729D01*
X150860799Y-116099500D01*
X150845130Y-116099500D01*
X150840634Y-116099339D01*
X150788927Y-116095641D01*
X150788926Y-116095641D01*
X150784427Y-116096620D01*
X150757642Y-116099500D01*
X150067358Y-116099500D01*
X150040573Y-116096620D01*
X150036073Y-116095641D01*
X150036072Y-116095641D01*
X149984366Y-116099339D01*
X149979870Y-116099500D01*
X149964201Y-116099500D01*
X149948690Y-116101729D01*
X149944223Y-116102209D01*
X149892516Y-116105909D01*
X149892512Y-116105909D01*
X149888186Y-116107523D01*
X149862117Y-116114176D01*
X149857548Y-116114833D01*
X149857544Y-116114834D01*
X149810389Y-116136369D01*
X149806244Y-116138086D01*
X149799862Y-116140466D01*
X149757670Y-116156202D01*
X149753975Y-116158969D01*
X149730819Y-116172707D01*
X149729969Y-116173096D01*
X149726625Y-116174623D01*
X149687454Y-116208564D01*
X149683955Y-116211384D01*
X149671411Y-116220775D01*
X149671408Y-116220778D01*
X149660317Y-116231866D01*
X149657031Y-116234925D01*
X149617859Y-116268868D01*
X149617856Y-116268873D01*
X149615359Y-116272758D01*
X149598463Y-116293721D01*
X148293721Y-117598463D01*
X148272758Y-117615359D01*
X148268873Y-117617856D01*
X148268868Y-117617859D01*
X148234925Y-117657031D01*
X148231866Y-117660317D01*
X148220778Y-117671408D01*
X148220775Y-117671411D01*
X148211384Y-117683955D01*
X148208564Y-117687454D01*
X148174623Y-117726625D01*
X148172709Y-117730818D01*
X148158969Y-117753975D01*
X148156202Y-117757670D01*
X148138090Y-117806234D01*
X148136369Y-117810389D01*
X148114834Y-117857544D01*
X148114833Y-117857548D01*
X148114176Y-117862117D01*
X148107523Y-117888186D01*
X148105909Y-117892512D01*
X148105909Y-117892516D01*
X148102209Y-117944223D01*
X148101729Y-117948690D01*
X148099500Y-117964201D01*
X148099500Y-117979867D01*
X148099339Y-117984363D01*
X148095641Y-118036070D01*
X148095641Y-118036073D01*
X148096620Y-118040576D01*
X148099500Y-118067357D01*
X148099500Y-120332640D01*
X148096621Y-120359420D01*
X148095641Y-120363923D01*
X148095641Y-120363928D01*
X138837948Y-120363928D01*
X138844947Y-120275000D01*
X138825187Y-120023931D01*
X138766396Y-119779045D01*
X138670019Y-119546370D01*
X138538426Y-119331631D01*
X138537732Y-119330819D01*
X137765929Y-120102621D01*
X137763116Y-120089085D01*
X137693558Y-119954844D01*
X137590362Y-119844348D01*
X137461181Y-119765791D01*
X137409996Y-119751449D01*
X138184179Y-118977267D01*
X138183359Y-118976566D01*
X138113787Y-118933933D01*
X138066156Y-118881285D01*
X138054549Y-118811244D01*
X138082652Y-118746046D01*
X138141542Y-118706392D01*
X138179622Y-118700500D01*
X146532642Y-118700500D01*
X146559426Y-118703379D01*
X146563927Y-118704359D01*
X146600265Y-118701759D01*
X146615634Y-118700661D01*
X146620130Y-118700500D01*
X146635798Y-118700500D01*
X146635799Y-118700500D01*
X146651338Y-118698265D01*
X146655770Y-118697789D01*
X146707483Y-118694091D01*
X146711791Y-118692483D01*
X146737901Y-118685819D01*
X146742457Y-118685165D01*
X146789640Y-118663616D01*
X146793739Y-118661918D01*
X146842331Y-118643796D01*
X146846017Y-118641036D01*
X146869183Y-118627289D01*
X146873373Y-118625377D01*
X146912547Y-118591432D01*
X146916045Y-118588613D01*
X146928593Y-118579221D01*
X146939686Y-118568126D01*
X146942951Y-118565086D01*
X146982143Y-118531128D01*
X146984631Y-118527256D01*
X147001534Y-118506278D01*
X150170408Y-115337405D01*
X150232721Y-115303379D01*
X150259504Y-115300500D01*
X151536198Y-115300500D01*
X151604319Y-115320502D01*
X151619749Y-115332186D01*
X151627760Y-115339283D01*
X151767635Y-115412696D01*
X151767636Y-115412696D01*
X151767638Y-115412697D01*
X151830863Y-115428280D01*
X151921015Y-115450500D01*
X151921017Y-115450500D01*
X152078983Y-115450500D01*
X152078985Y-115450500D01*
X152232365Y-115412696D01*
X152372240Y-115339283D01*
X152490483Y-115234530D01*
X152570198Y-115119042D01*
X152580216Y-115104529D01*
X152580216Y-115104528D01*
X152580220Y-115104523D01*
X152636237Y-114956818D01*
X152636237Y-114956817D01*
X152636238Y-114956815D01*
X152655278Y-114800003D01*
X152655278Y-114799996D01*
X152636238Y-114643184D01*
X152628131Y-114621808D01*
X152580220Y-114495477D01*
X152580216Y-114495472D01*
X152580216Y-114495470D01*
X152490483Y-114365470D01*
X152490481Y-114365468D01*
X152372240Y-114260717D01*
X152232365Y-114187304D01*
X152232361Y-114187302D01*
X152076304Y-114148839D01*
X152014949Y-114113116D01*
X152000135Y-114084120D01*
X151988767Y-114109012D01*
X151929041Y-114147396D01*
X151923696Y-114148839D01*
X151767638Y-114187302D01*
X151767634Y-114187304D01*
X151627760Y-114260716D01*
X151627758Y-114260718D01*
X151619753Y-114267811D01*
X151555500Y-114298013D01*
X151536198Y-114299500D01*
X150067358Y-114299500D01*
X150040573Y-114296620D01*
X150036073Y-114295641D01*
X150036072Y-114295641D01*
X149984366Y-114299339D01*
X149979870Y-114299500D01*
X149964200Y-114299500D01*
X149948689Y-114301729D01*
X149944220Y-114302210D01*
X149916477Y-114304194D01*
X149847103Y-114289103D01*
X149796901Y-114238901D01*
X149781809Y-114169527D01*
X149806620Y-114103006D01*
X149818380Y-114089433D01*
X149970411Y-113937402D01*
X150032721Y-113903379D01*
X150059504Y-113900500D01*
X151893543Y-113900500D01*
X151961664Y-113920502D01*
X152000597Y-113965433D01*
X152033746Y-113923597D01*
X152100922Y-113900622D01*
X152106457Y-113900500D01*
X152923500Y-113900500D01*
X152991621Y-113920502D01*
X153038114Y-113974158D01*
X153049500Y-114026500D01*
X153049500Y-116549677D01*
X153064033Y-116622739D01*
X153075444Y-116639817D01*
X153119399Y-116705601D01*
X153202260Y-116760966D01*
X153275326Y-116775500D01*
X154173500Y-116775500D01*
X154241621Y-116795502D01*
X154288114Y-116849158D01*
X154299500Y-116901500D01*
X154299500Y-119140494D01*
X154279498Y-119208615D01*
X154262595Y-119229590D01*
X154189094Y-119303090D01*
X154126781Y-119337115D01*
X154055966Y-119332049D01*
X154010904Y-119303089D01*
X154001535Y-119293720D01*
X153984629Y-119272741D01*
X153982143Y-119268872D01*
X153942959Y-119234919D01*
X153939679Y-119231865D01*
X153928593Y-119220779D01*
X153916036Y-119211379D01*
X153912544Y-119208565D01*
X153901556Y-119199044D01*
X153873373Y-119174623D01*
X153873371Y-119174622D01*
X153873370Y-119174621D01*
X153873367Y-119174619D01*
X153869178Y-119172706D01*
X153846024Y-119158968D01*
X153842332Y-119156205D01*
X153842331Y-119156204D01*
X153820291Y-119147983D01*
X153793757Y-119138086D01*
X153789603Y-119136365D01*
X153742462Y-119114836D01*
X153742455Y-119114834D01*
X153737883Y-119114177D01*
X153711808Y-119107521D01*
X153707488Y-119105910D01*
X153707480Y-119105908D01*
X153655778Y-119102209D01*
X153651311Y-119101729D01*
X153635799Y-119099500D01*
X153620130Y-119099500D01*
X153615634Y-119099339D01*
X153563927Y-119095641D01*
X153563926Y-119095641D01*
X153559427Y-119096620D01*
X153532642Y-119099500D01*
X152779701Y-119099500D01*
X152711580Y-119079498D01*
X152705636Y-119075433D01*
X152700842Y-119071950D01*
X152666396Y-119054399D01*
X152587804Y-119014354D01*
X152494019Y-118999500D01*
X152494016Y-118999500D01*
X151358847Y-118999500D01*
X151290726Y-118979498D01*
X151244233Y-118925842D01*
X151234615Y-118858950D01*
X151234095Y-118858910D01*
X151234276Y-118856597D01*
X151234129Y-118855568D01*
X151234570Y-118852863D01*
X151234796Y-118850000D01*
X150250000Y-118850000D01*
X150250000Y-119400000D01*
X150653149Y-119400000D01*
X150653151Y-119399999D01*
X150689987Y-119397100D01*
X150725846Y-119386682D01*
X150796842Y-119386884D01*
X150856459Y-119425438D01*
X150885768Y-119490102D01*
X150887000Y-119507678D01*
X150887000Y-119731516D01*
X150901853Y-119825302D01*
X150959449Y-119938342D01*
X151049157Y-120028050D01*
X151071810Y-120039592D01*
X151162196Y-120085646D01*
X151255981Y-120100500D01*
X151884952Y-120100499D01*
X151884970Y-120100500D01*
X151889201Y-120100500D01*
X151904870Y-120100500D01*
X151909366Y-120100661D01*
X151925547Y-120101817D01*
X151961073Y-120104359D01*
X151965573Y-120103379D01*
X151992358Y-120100500D01*
X153340495Y-120100500D01*
X153408616Y-120120502D01*
X153429590Y-120137404D01*
X153677485Y-120385298D01*
X153677490Y-120385305D01*
X153695209Y-120403023D01*
X153720778Y-120428592D01*
X153720779Y-120428593D01*
X153878254Y-120586068D01*
X154012595Y-120720409D01*
X154046621Y-120782721D01*
X154049500Y-120809504D01*
X154049500Y-120949192D01*
X154029498Y-121017313D01*
X153999012Y-121050058D01*
X153985312Y-121060313D01*
X153985310Y-121060316D01*
X153903373Y-121169770D01*
X153903371Y-121169775D01*
X153855587Y-121297885D01*
X153855587Y-121297886D01*
X153849500Y-121354503D01*
X153849500Y-122124996D01*
X153829498Y-122193117D01*
X153775842Y-122239610D01*
X153705568Y-122249714D01*
X153640988Y-122220220D01*
X153634405Y-122214091D01*
X153312404Y-121892090D01*
X153278378Y-121829778D01*
X153275499Y-121802995D01*
X153275499Y-121302135D01*
X153275499Y-121302128D01*
X153269091Y-121242517D01*
X153231771Y-121142457D01*
X153218798Y-121107673D01*
X153218796Y-121107670D01*
X153218796Y-121107669D01*
X153164994Y-121035799D01*
X153132546Y-120992453D01*
X153049902Y-120930587D01*
X153017331Y-120906204D01*
X153017329Y-120906203D01*
X153017326Y-120906201D01*
X152882483Y-120855909D01*
X152882486Y-120855909D01*
X152822873Y-120849500D01*
X152202135Y-120849500D01*
X152202114Y-120849502D01*
X152142519Y-120855908D01*
X152142518Y-120855908D01*
X152007673Y-120906201D01*
X152007670Y-120906203D01*
X151892453Y-120992453D01*
X151806203Y-121107670D01*
X151806201Y-121107673D01*
X151755909Y-121242515D01*
X151749500Y-121302121D01*
X151749500Y-122297864D01*
X151749502Y-122297885D01*
X151755908Y-122357480D01*
X151755908Y-122357481D01*
X151806201Y-122492326D01*
X151806203Y-122492329D01*
X151892453Y-122607546D01*
X151924499Y-122631535D01*
X152007669Y-122693796D01*
X152007671Y-122693796D01*
X152007673Y-122693798D01*
X152068030Y-122716309D01*
X152142514Y-122744090D01*
X152142517Y-122744091D01*
X152202127Y-122750500D01*
X152702995Y-122750499D01*
X152771116Y-122770501D01*
X152792090Y-122787404D01*
X153710961Y-123706275D01*
X153727862Y-123727246D01*
X153730356Y-123731127D01*
X153769538Y-123765078D01*
X153772817Y-123768131D01*
X153783907Y-123779221D01*
X153796463Y-123788620D01*
X153799952Y-123791432D01*
X153839127Y-123825377D01*
X153843303Y-123827284D01*
X153843314Y-123827289D01*
X153866475Y-123841031D01*
X153870169Y-123843796D01*
X153870172Y-123843798D01*
X153903409Y-123856193D01*
X153918746Y-123861914D01*
X153922876Y-123863624D01*
X153970043Y-123885165D01*
X153974607Y-123885821D01*
X154000702Y-123892481D01*
X154005017Y-123894091D01*
X154056728Y-123897789D01*
X154061157Y-123898264D01*
X154076701Y-123900500D01*
X154092370Y-123900500D01*
X154096866Y-123900661D01*
X154113047Y-123901817D01*
X154148573Y-123904359D01*
X154153073Y-123903379D01*
X154179858Y-123900500D01*
X158736198Y-123900500D01*
X158804319Y-123920502D01*
X158819749Y-123932186D01*
X158827760Y-123939283D01*
X158967635Y-124012696D01*
X158967636Y-124012696D01*
X158967638Y-124012697D01*
X159044325Y-124031598D01*
X159121015Y-124050500D01*
X159121017Y-124050500D01*
X159278983Y-124050500D01*
X159278985Y-124050500D01*
X159432365Y-124012696D01*
X159572240Y-123939283D01*
X159690483Y-123834530D01*
X159780220Y-123704523D01*
X159836237Y-123556818D01*
X159836237Y-123556817D01*
X159836238Y-123556815D01*
X159855278Y-123400003D01*
X159855278Y-123399996D01*
X159836238Y-123243184D01*
X159806405Y-123164522D01*
X159780220Y-123095477D01*
X159780216Y-123095472D01*
X159780216Y-123095470D01*
X159710353Y-122994257D01*
X159690483Y-122965470D01*
X159690478Y-122965466D01*
X159685679Y-122960047D01*
X159655483Y-122895792D01*
X159664819Y-122825412D01*
X159710723Y-122771251D01*
X159778621Y-122750507D01*
X159779825Y-122750499D01*
X160397872Y-122750499D01*
X160457483Y-122744091D01*
X160571646Y-122701510D01*
X160592326Y-122693798D01*
X160592326Y-122693797D01*
X160592331Y-122693796D01*
X160707546Y-122607546D01*
X160793796Y-122492331D01*
X160844091Y-122357483D01*
X160850500Y-122297873D01*
X160850500Y-122297864D01*
X161149500Y-122297864D01*
X161149502Y-122297885D01*
X161155908Y-122357480D01*
X161155908Y-122357481D01*
X161206201Y-122492326D01*
X161206203Y-122492329D01*
X161274368Y-122583386D01*
X161299179Y-122649906D01*
X161299500Y-122658895D01*
X161299500Y-124125860D01*
X161291312Y-124170540D01*
X161263762Y-124243183D01*
X161244722Y-124399996D01*
X161244722Y-124400003D01*
X161263761Y-124556815D01*
X161291771Y-124630670D01*
X161319780Y-124704523D01*
X161319781Y-124704525D01*
X161319782Y-124704526D01*
X161319783Y-124704529D01*
X161409516Y-124834529D01*
X161409517Y-124834530D01*
X161527760Y-124939283D01*
X161667635Y-125012696D01*
X161667636Y-125012696D01*
X161667638Y-125012697D01*
X161744325Y-125031598D01*
X161821015Y-125050500D01*
X161821017Y-125050500D01*
X161978983Y-125050500D01*
X161978985Y-125050500D01*
X162132365Y-125012696D01*
X162272240Y-124939283D01*
X162390483Y-124834530D01*
X162480220Y-124704523D01*
X162536237Y-124556818D01*
X162536237Y-124556817D01*
X162536238Y-124556815D01*
X162555278Y-124400003D01*
X162555278Y-124399996D01*
X162536237Y-124243183D01*
X162508688Y-124170540D01*
X162500500Y-124125860D01*
X162500500Y-122691782D01*
X162520502Y-122623661D01*
X162527476Y-122615009D01*
X162527145Y-122614761D01*
X162559434Y-122571628D01*
X162618796Y-122492331D01*
X162669091Y-122357483D01*
X162675500Y-122297873D01*
X162675499Y-121302128D01*
X162669091Y-121242517D01*
X162631771Y-121142457D01*
X162618798Y-121107673D01*
X162618796Y-121107670D01*
X162618796Y-121107669D01*
X162564994Y-121035799D01*
X162532546Y-120992453D01*
X162449902Y-120930587D01*
X162417331Y-120906204D01*
X162417329Y-120906203D01*
X162417326Y-120906201D01*
X162282483Y-120855909D01*
X162282486Y-120855909D01*
X162222873Y-120849500D01*
X161602135Y-120849500D01*
X161602114Y-120849502D01*
X161542519Y-120855908D01*
X161542518Y-120855908D01*
X161407673Y-120906201D01*
X161407670Y-120906203D01*
X161292453Y-120992453D01*
X161206203Y-121107670D01*
X161206201Y-121107673D01*
X161155909Y-121242515D01*
X161149500Y-121302121D01*
X161149500Y-122297864D01*
X160850500Y-122297864D01*
X160850499Y-121302128D01*
X160844091Y-121242517D01*
X160806771Y-121142457D01*
X160793798Y-121107673D01*
X160793796Y-121107670D01*
X160793796Y-121107669D01*
X160726155Y-121017313D01*
X160707547Y-120992455D01*
X160707546Y-120992454D01*
X160638489Y-120940758D01*
X160595944Y-120883923D01*
X160588000Y-120839891D01*
X160588000Y-119372002D01*
X160608002Y-119303881D01*
X160624900Y-119282912D01*
X163095407Y-116812404D01*
X163157719Y-116778379D01*
X163184502Y-116775500D01*
X164324674Y-116775500D01*
X164397740Y-116760966D01*
X164480601Y-116705601D01*
X164535966Y-116622740D01*
X164550500Y-116549674D01*
X164550500Y-114141002D01*
X164570502Y-114072881D01*
X164624158Y-114026388D01*
X164694432Y-114016284D01*
X164728862Y-114026398D01*
X164730834Y-114027299D01*
X164753975Y-114041031D01*
X164757669Y-114043796D01*
X164757672Y-114043798D01*
X164781062Y-114052521D01*
X164806246Y-114061914D01*
X164810376Y-114063624D01*
X164857543Y-114085165D01*
X164862107Y-114085821D01*
X164888202Y-114092481D01*
X164892517Y-114094091D01*
X164944228Y-114097789D01*
X164948657Y-114098264D01*
X164964201Y-114100500D01*
X164979870Y-114100500D01*
X164984366Y-114100661D01*
X165000547Y-114101817D01*
X165036073Y-114104359D01*
X165040573Y-114103379D01*
X165067358Y-114100500D01*
X166773500Y-114100500D01*
X166841621Y-114120502D01*
X166888114Y-114174158D01*
X166899500Y-114226500D01*
X166899500Y-116133681D01*
X166896621Y-116160461D01*
X166895641Y-116164964D01*
X166895641Y-116164969D01*
X166899339Y-116216675D01*
X166899500Y-116221171D01*
X166899500Y-116236840D01*
X166901729Y-116252352D01*
X166902209Y-116256819D01*
X166905908Y-116308521D01*
X166905910Y-116308529D01*
X166907521Y-116312849D01*
X166914177Y-116338924D01*
X166914834Y-116343496D01*
X166914836Y-116343503D01*
X166936365Y-116390644D01*
X166938086Y-116394798D01*
X166947674Y-116420502D01*
X166956204Y-116443372D01*
X166956522Y-116443797D01*
X166958968Y-116447065D01*
X166972706Y-116470219D01*
X166974619Y-116474408D01*
X166974621Y-116474411D01*
X166974622Y-116474412D01*
X166974623Y-116474414D01*
X167008565Y-116513585D01*
X167011379Y-116517077D01*
X167020779Y-116529634D01*
X167031866Y-116540721D01*
X167034920Y-116544001D01*
X167061985Y-116575236D01*
X167091478Y-116639817D01*
X167081373Y-116710091D01*
X167034880Y-116763746D01*
X166996915Y-116780086D01*
X166967643Y-116787301D01*
X166967634Y-116787304D01*
X166827759Y-116860717D01*
X166709518Y-116965468D01*
X166709516Y-116965470D01*
X166619783Y-117095470D01*
X166619782Y-117095473D01*
X166619781Y-117095475D01*
X166619780Y-117095477D01*
X166610289Y-117120502D01*
X166563761Y-117243184D01*
X166544722Y-117399996D01*
X166544722Y-117400003D01*
X166563762Y-117556816D01*
X166619778Y-117704518D01*
X166619782Y-117704526D01*
X166626897Y-117714834D01*
X166657361Y-117758969D01*
X166677196Y-117787704D01*
X166699432Y-117855129D01*
X166699500Y-117859280D01*
X166699500Y-120740495D01*
X166679498Y-120808616D01*
X166662595Y-120829590D01*
X164640539Y-122851646D01*
X164578227Y-122885672D01*
X164507412Y-122880607D01*
X164479391Y-122863776D01*
X164478514Y-122865048D01*
X164472239Y-122860716D01*
X164332365Y-122787304D01*
X164332361Y-122787302D01*
X164178987Y-122749500D01*
X164178985Y-122749500D01*
X164021015Y-122749500D01*
X164021012Y-122749500D01*
X163867638Y-122787302D01*
X163867634Y-122787304D01*
X163727759Y-122860717D01*
X163609518Y-122965468D01*
X163609516Y-122965470D01*
X163519783Y-123095470D01*
X163519782Y-123095473D01*
X163463761Y-123243184D01*
X163444722Y-123399996D01*
X163444722Y-123400003D01*
X163463761Y-123556815D01*
X163480439Y-123600789D01*
X163519780Y-123704523D01*
X163519781Y-123704525D01*
X163519782Y-123704526D01*
X163519783Y-123704529D01*
X163609516Y-123834529D01*
X163609518Y-123834531D01*
X163640420Y-123861907D01*
X163727760Y-123939283D01*
X163867635Y-124012696D01*
X163867636Y-124012696D01*
X163867638Y-124012697D01*
X163944325Y-124031598D01*
X164021015Y-124050500D01*
X164021017Y-124050500D01*
X164178983Y-124050500D01*
X164178985Y-124050500D01*
X164332365Y-124012696D01*
X164472240Y-123939283D01*
X164480248Y-123932188D01*
X164544500Y-123901987D01*
X164563802Y-123900500D01*
X164732642Y-123900500D01*
X164759426Y-123903379D01*
X164763927Y-123904359D01*
X164800265Y-123901759D01*
X164815634Y-123900661D01*
X164820130Y-123900500D01*
X164835798Y-123900500D01*
X164835799Y-123900500D01*
X164851338Y-123898265D01*
X164855770Y-123897789D01*
X164907483Y-123894091D01*
X164911791Y-123892483D01*
X164937901Y-123885819D01*
X164942457Y-123885165D01*
X164989640Y-123863616D01*
X164993739Y-123861918D01*
X165042331Y-123843796D01*
X165046019Y-123841035D01*
X165069183Y-123827289D01*
X165073373Y-123825377D01*
X165112547Y-123791432D01*
X165116047Y-123788612D01*
X165128593Y-123779221D01*
X165139686Y-123768126D01*
X165142961Y-123765078D01*
X165182143Y-123731128D01*
X165184631Y-123727256D01*
X165201534Y-123706278D01*
X167506278Y-121401534D01*
X167527256Y-121384631D01*
X167531128Y-121382143D01*
X167565086Y-121342951D01*
X167568126Y-121339686D01*
X167579221Y-121328593D01*
X167588613Y-121316045D01*
X167591432Y-121312547D01*
X167604136Y-121297886D01*
X167625377Y-121273373D01*
X167627289Y-121269183D01*
X167641036Y-121246017D01*
X167643796Y-121242331D01*
X167661918Y-121193739D01*
X167663616Y-121189640D01*
X167685165Y-121142457D01*
X167685819Y-121137901D01*
X167692483Y-121111791D01*
X167694091Y-121107483D01*
X167697789Y-121055770D01*
X167698265Y-121051338D01*
X167700500Y-121035799D01*
X167700500Y-121020130D01*
X167700661Y-121015634D01*
X167702318Y-120992455D01*
X167704359Y-120963927D01*
X167703379Y-120959420D01*
X167700500Y-120932640D01*
X167700500Y-120480921D01*
X167720502Y-120412800D01*
X167774158Y-120366307D01*
X167844432Y-120356203D01*
X167885052Y-120369352D01*
X167967635Y-120412696D01*
X168115671Y-120449183D01*
X168174612Y-120482426D01*
X169198461Y-121506275D01*
X169215362Y-121527246D01*
X169217857Y-121531128D01*
X169238368Y-121548901D01*
X169257038Y-121565078D01*
X169260317Y-121568131D01*
X169271407Y-121579221D01*
X169283963Y-121588620D01*
X169287456Y-121591435D01*
X169326627Y-121625377D01*
X169330814Y-121627289D01*
X169353975Y-121641031D01*
X169357669Y-121643796D01*
X169357672Y-121643798D01*
X169390909Y-121656193D01*
X169406246Y-121661914D01*
X169410376Y-121663624D01*
X169457543Y-121685165D01*
X169462107Y-121685821D01*
X169488202Y-121692481D01*
X169492517Y-121694091D01*
X169544228Y-121697789D01*
X169548657Y-121698264D01*
X169564201Y-121700500D01*
X169579870Y-121700500D01*
X169584366Y-121700661D01*
X169600547Y-121701817D01*
X169636073Y-121704359D01*
X169640573Y-121703379D01*
X169667358Y-121700500D01*
X171836198Y-121700500D01*
X171904319Y-121720502D01*
X171919749Y-121732186D01*
X171927760Y-121739283D01*
X172067635Y-121812696D01*
X172067636Y-121812696D01*
X172067638Y-121812697D01*
X172136941Y-121829778D01*
X172221015Y-121850500D01*
X172221017Y-121850500D01*
X172378983Y-121850500D01*
X172378985Y-121850500D01*
X172532365Y-121812696D01*
X172672240Y-121739283D01*
X172790483Y-121634530D01*
X172880220Y-121504523D01*
X172936237Y-121356818D01*
X172936237Y-121356817D01*
X172936238Y-121356815D01*
X172955278Y-121200003D01*
X172955278Y-121199996D01*
X172936238Y-121043184D01*
X172926426Y-121017313D01*
X172880220Y-120895477D01*
X172880216Y-120895472D01*
X172880216Y-120895470D01*
X172790483Y-120765470D01*
X172790481Y-120765468D01*
X172672240Y-120660717D01*
X172532365Y-120587304D01*
X172532361Y-120587302D01*
X172378987Y-120549500D01*
X172378985Y-120549500D01*
X172221015Y-120549500D01*
X172221012Y-120549500D01*
X172067638Y-120587302D01*
X172067634Y-120587304D01*
X171927760Y-120660716D01*
X171927758Y-120660718D01*
X171919753Y-120667811D01*
X171855500Y-120698013D01*
X171836198Y-120699500D01*
X169859504Y-120699500D01*
X169791383Y-120679498D01*
X169770409Y-120662595D01*
X168878762Y-119770948D01*
X168844736Y-119708636D01*
X168842778Y-119697059D01*
X168836237Y-119643182D01*
X168780220Y-119495477D01*
X168780216Y-119495472D01*
X168780216Y-119495470D01*
X168690483Y-119365470D01*
X168690481Y-119365468D01*
X168572240Y-119260717D01*
X168432365Y-119187304D01*
X168432361Y-119187302D01*
X168278987Y-119149500D01*
X168278985Y-119149500D01*
X168121015Y-119149500D01*
X168121012Y-119149500D01*
X167967638Y-119187302D01*
X167967630Y-119187306D01*
X167885055Y-119230645D01*
X167815442Y-119244592D01*
X167749339Y-119218688D01*
X167707735Y-119161159D01*
X167700500Y-119119078D01*
X167700500Y-117859280D01*
X167720502Y-117791159D01*
X167722804Y-117787704D01*
X167736404Y-117768001D01*
X167780220Y-117704523D01*
X167825350Y-117585524D01*
X167868207Y-117528924D01*
X167934862Y-117504479D01*
X168004152Y-117519950D01*
X168032256Y-117541110D01*
X168582595Y-118091449D01*
X168616621Y-118153761D01*
X168619500Y-118180544D01*
X168619500Y-118734677D01*
X168634033Y-118807739D01*
X168636375Y-118811244D01*
X168689399Y-118890601D01*
X168772260Y-118945966D01*
X168845326Y-118960500D01*
X170594674Y-118960500D01*
X170667740Y-118945966D01*
X170750601Y-118890601D01*
X170805966Y-118807740D01*
X170820500Y-118734674D01*
X170820500Y-116985326D01*
X170805966Y-116912260D01*
X170750601Y-116829399D01*
X170674243Y-116778379D01*
X170667739Y-116774033D01*
X170594677Y-116759500D01*
X170594674Y-116759500D01*
X169055901Y-116759500D01*
X168987780Y-116739498D01*
X168941287Y-116685842D01*
X168931183Y-116615568D01*
X168960677Y-116550988D01*
X168972345Y-116539190D01*
X168980246Y-116532190D01*
X169044499Y-116501987D01*
X169063802Y-116500500D01*
X171532642Y-116500500D01*
X171559426Y-116503379D01*
X171563927Y-116504359D01*
X171600265Y-116501759D01*
X171615634Y-116500661D01*
X171620130Y-116500500D01*
X171635798Y-116500500D01*
X171635799Y-116500500D01*
X171651338Y-116498265D01*
X171655770Y-116497789D01*
X171707483Y-116494091D01*
X171711791Y-116492483D01*
X171737901Y-116485819D01*
X171742457Y-116485165D01*
X171789640Y-116463616D01*
X171793739Y-116461918D01*
X171842331Y-116443796D01*
X171846017Y-116441036D01*
X171869183Y-116427289D01*
X171873373Y-116425377D01*
X171909478Y-116394091D01*
X171912547Y-116391432D01*
X171916045Y-116388613D01*
X171928593Y-116379221D01*
X171939686Y-116368126D01*
X171942951Y-116365086D01*
X171982143Y-116331128D01*
X171984631Y-116327256D01*
X172001534Y-116306278D01*
X172566278Y-115741534D01*
X172587256Y-115724631D01*
X172591128Y-115722143D01*
X172625086Y-115682951D01*
X172628126Y-115679686D01*
X172639221Y-115668593D01*
X172648613Y-115656045D01*
X172651432Y-115652547D01*
X172656848Y-115646296D01*
X172685377Y-115613373D01*
X172687289Y-115609183D01*
X172701036Y-115586017D01*
X172703796Y-115582331D01*
X172721918Y-115533739D01*
X172723616Y-115529640D01*
X172745165Y-115482457D01*
X172745819Y-115477901D01*
X172752483Y-115451791D01*
X172754091Y-115447483D01*
X172757789Y-115395770D01*
X172758265Y-115391338D01*
X172760500Y-115375799D01*
X172760500Y-115360130D01*
X172760661Y-115355634D01*
X172761964Y-115337405D01*
X172764359Y-115303927D01*
X172763379Y-115299425D01*
X172760500Y-115272648D01*
X172760500Y-115054659D01*
X172780502Y-114986540D01*
X172820170Y-114947534D01*
X172926039Y-114881982D01*
X172926038Y-114881982D01*
X172926041Y-114881981D01*
X173076764Y-114744579D01*
X173199673Y-114581821D01*
X173290582Y-114399250D01*
X173346397Y-114203083D01*
X173365215Y-114000000D01*
X173346397Y-113796917D01*
X173290582Y-113600750D01*
X173199673Y-113418179D01*
X173176969Y-113388114D01*
X173150023Y-113352431D01*
X173124934Y-113286016D01*
X173139734Y-113216579D01*
X173189725Y-113166167D01*
X173250574Y-113150500D01*
X173809426Y-113150500D01*
X173877547Y-113170502D01*
X173924040Y-113224158D01*
X173934144Y-113294432D01*
X173909977Y-113352431D01*
X173860329Y-113418175D01*
X173769416Y-113600754D01*
X173713603Y-113796915D01*
X173694785Y-114000000D01*
X173713603Y-114203084D01*
X173769416Y-114399245D01*
X173769417Y-114399247D01*
X173769418Y-114399250D01*
X173860327Y-114581821D01*
X173860328Y-114581822D01*
X173860329Y-114581824D01*
X173983234Y-114744578D01*
X174133959Y-114881981D01*
X174133960Y-114881982D01*
X174307351Y-114989341D01*
X174307354Y-114989342D01*
X174307363Y-114989348D01*
X174497544Y-115063024D01*
X174698024Y-115100500D01*
X174698026Y-115100500D01*
X174901974Y-115100500D01*
X174901976Y-115100500D01*
X175102456Y-115063024D01*
X175292637Y-114989348D01*
X175466041Y-114881981D01*
X175616764Y-114744579D01*
X175632185Y-114724158D01*
X175687758Y-114650568D01*
X175744771Y-114608261D01*
X175788308Y-114600500D01*
X178156506Y-114600500D01*
X178164738Y-114601040D01*
X178199999Y-114605682D01*
X178200000Y-114605682D01*
X178356762Y-114585044D01*
X178502841Y-114524536D01*
X178529136Y-114504359D01*
X178628282Y-114428282D01*
X178649940Y-114400054D01*
X178655364Y-114393870D01*
X178993872Y-114055361D01*
X179000054Y-114049940D01*
X179028282Y-114028282D01*
X179124536Y-113902841D01*
X179185044Y-113756762D01*
X179200500Y-113639361D01*
X179205682Y-113600000D01*
X179205682Y-113599999D01*
X179201040Y-113564737D01*
X179200500Y-113556505D01*
X179200500Y-113140530D01*
X179220502Y-113072409D01*
X179274158Y-113025916D01*
X179282472Y-113022473D01*
X179287014Y-113020779D01*
X179292331Y-113018796D01*
X179297988Y-113014560D01*
X179364507Y-112989748D01*
X179433882Y-113004838D01*
X179484086Y-113055038D01*
X179499500Y-113115427D01*
X179499500Y-116340495D01*
X179479498Y-116408616D01*
X179462595Y-116429590D01*
X176429591Y-119462595D01*
X176367279Y-119496621D01*
X176340496Y-119499500D01*
X173859504Y-119499500D01*
X173791383Y-119479498D01*
X173770409Y-119462595D01*
X173083449Y-118775635D01*
X173049423Y-118713323D01*
X173054488Y-118642508D01*
X173074321Y-118610034D01*
X173073253Y-118609228D01*
X173127360Y-118537579D01*
X173199673Y-118441821D01*
X173284463Y-118271536D01*
X173332730Y-118219476D01*
X173401484Y-118201773D01*
X173468894Y-118224052D01*
X173513559Y-118279239D01*
X173518958Y-118295090D01*
X173526565Y-118323480D01*
X173526570Y-118323493D01*
X173626399Y-118537577D01*
X173626400Y-118537579D01*
X173761886Y-118731073D01*
X173761893Y-118731082D01*
X173928917Y-118898106D01*
X173928926Y-118898113D01*
X174122420Y-119033599D01*
X174122422Y-119033600D01*
X174336506Y-119133429D01*
X174336510Y-119133431D01*
X174550000Y-119190635D01*
X174550000Y-118295501D01*
X174657685Y-118344680D01*
X174764237Y-118360000D01*
X174835763Y-118360000D01*
X174942315Y-118344680D01*
X175050000Y-118295501D01*
X175050000Y-119190634D01*
X175263489Y-119133431D01*
X175263493Y-119133429D01*
X175477577Y-119033600D01*
X175477579Y-119033599D01*
X175671073Y-118898113D01*
X175671082Y-118898106D01*
X175838106Y-118731082D01*
X175838113Y-118731073D01*
X175973599Y-118537579D01*
X175973600Y-118537577D01*
X176073429Y-118323493D01*
X176073431Y-118323488D01*
X176130636Y-118110000D01*
X175233686Y-118110000D01*
X175259493Y-118069844D01*
X175300000Y-117931889D01*
X175300000Y-117788111D01*
X175259493Y-117650156D01*
X175233686Y-117610000D01*
X176130636Y-117610000D01*
X176073431Y-117396511D01*
X176073429Y-117396506D01*
X175973599Y-117182421D01*
X175838112Y-116988925D01*
X175671076Y-116821888D01*
X175671073Y-116821886D01*
X175477579Y-116686400D01*
X175477577Y-116686399D01*
X175263493Y-116586570D01*
X175263488Y-116586568D01*
X175050000Y-116529364D01*
X175050000Y-117424498D01*
X174942315Y-117375320D01*
X174835763Y-117360000D01*
X174764237Y-117360000D01*
X174657685Y-117375320D01*
X174550000Y-117424498D01*
X174550000Y-116529364D01*
X174336511Y-116586568D01*
X174336506Y-116586570D01*
X174122421Y-116686400D01*
X173928925Y-116821887D01*
X173928919Y-116821892D01*
X173761892Y-116988919D01*
X173761887Y-116988925D01*
X173626400Y-117182421D01*
X173526570Y-117396506D01*
X173526566Y-117396516D01*
X173518958Y-117424910D01*
X173482006Y-117485532D01*
X173418144Y-117516553D01*
X173347650Y-117508123D01*
X173292904Y-117462919D01*
X173284466Y-117448468D01*
X173199673Y-117278179D01*
X173187197Y-117261658D01*
X173076765Y-117115421D01*
X172926040Y-116978018D01*
X172926039Y-116978017D01*
X172752648Y-116870658D01*
X172752641Y-116870654D01*
X172752637Y-116870652D01*
X172626757Y-116821886D01*
X172562457Y-116796976D01*
X172462970Y-116778379D01*
X172361976Y-116759500D01*
X172158024Y-116759500D01*
X172072431Y-116775500D01*
X171957542Y-116796976D01*
X171840468Y-116842331D01*
X171767363Y-116870652D01*
X171767362Y-116870652D01*
X171767361Y-116870653D01*
X171767351Y-116870658D01*
X171593960Y-116978017D01*
X171593959Y-116978018D01*
X171443234Y-117115421D01*
X171320329Y-117278175D01*
X171229416Y-117460754D01*
X171173603Y-117656915D01*
X171154785Y-117860000D01*
X171173603Y-118063084D01*
X171229416Y-118259245D01*
X171229417Y-118259247D01*
X171229418Y-118259250D01*
X171320327Y-118441821D01*
X171320328Y-118441822D01*
X171320329Y-118441824D01*
X171443234Y-118604578D01*
X171593956Y-118741979D01*
X171593958Y-118741980D01*
X171593959Y-118741981D01*
X171767363Y-118849348D01*
X171767367Y-118849349D01*
X171769138Y-118850446D01*
X171813393Y-118897185D01*
X171816201Y-118902328D01*
X171818968Y-118906024D01*
X171832706Y-118929178D01*
X171834619Y-118933367D01*
X171834621Y-118933370D01*
X171834622Y-118933371D01*
X171834623Y-118933373D01*
X171866402Y-118970048D01*
X171868565Y-118972544D01*
X171871379Y-118976036D01*
X171880779Y-118988593D01*
X171891865Y-118999679D01*
X171894920Y-119002960D01*
X171924039Y-119036566D01*
X171928872Y-119042143D01*
X171932751Y-119044635D01*
X171953723Y-119061537D01*
X173198461Y-120306275D01*
X173215362Y-120327246D01*
X173217857Y-120331128D01*
X173255709Y-120363927D01*
X173257038Y-120365078D01*
X173260317Y-120368131D01*
X173271407Y-120379221D01*
X173283963Y-120388620D01*
X173287452Y-120391432D01*
X173326627Y-120425377D01*
X173330803Y-120427284D01*
X173330814Y-120427289D01*
X173353975Y-120441031D01*
X173357669Y-120443796D01*
X173357672Y-120443798D01*
X173383789Y-120453538D01*
X173406246Y-120461914D01*
X173410376Y-120463624D01*
X173457543Y-120485165D01*
X173462107Y-120485821D01*
X173488202Y-120492481D01*
X173492517Y-120494091D01*
X173544228Y-120497789D01*
X173548657Y-120498264D01*
X173564201Y-120500500D01*
X173579870Y-120500500D01*
X173584366Y-120500661D01*
X173600547Y-120501817D01*
X173636073Y-120504359D01*
X173640573Y-120503379D01*
X173667358Y-120500500D01*
X176532642Y-120500500D01*
X176559426Y-120503379D01*
X176563927Y-120504359D01*
X176600265Y-120501759D01*
X176615634Y-120500661D01*
X176620130Y-120500500D01*
X176635798Y-120500500D01*
X176635799Y-120500500D01*
X176651338Y-120498265D01*
X176655770Y-120497789D01*
X176707483Y-120494091D01*
X176711791Y-120492483D01*
X176737901Y-120485819D01*
X176742457Y-120485165D01*
X176789640Y-120463616D01*
X176793739Y-120461918D01*
X176842331Y-120443796D01*
X176846019Y-120441035D01*
X176869183Y-120427289D01*
X176873373Y-120425377D01*
X176912547Y-120391432D01*
X176916047Y-120388612D01*
X176928593Y-120379221D01*
X176939686Y-120368126D01*
X176942961Y-120365078D01*
X176982143Y-120331128D01*
X176984631Y-120327256D01*
X177001534Y-120306278D01*
X180306278Y-117001534D01*
X180327256Y-116984631D01*
X180331128Y-116982143D01*
X180365086Y-116942951D01*
X180368126Y-116939686D01*
X180379221Y-116928593D01*
X180388613Y-116916045D01*
X180391432Y-116912547D01*
X180401004Y-116901500D01*
X180425377Y-116873373D01*
X180427289Y-116869183D01*
X180441036Y-116846017D01*
X180443796Y-116842331D01*
X180461918Y-116793739D01*
X180463616Y-116789640D01*
X180485165Y-116742457D01*
X180485819Y-116737901D01*
X180492483Y-116711791D01*
X180494091Y-116707483D01*
X180497789Y-116655770D01*
X180498265Y-116651338D01*
X180500500Y-116635799D01*
X180500500Y-116620130D01*
X180500661Y-116615634D01*
X180501817Y-116599452D01*
X180504359Y-116563927D01*
X180503379Y-116559420D01*
X180500500Y-116532640D01*
X180500500Y-105667357D01*
X180503379Y-105640576D01*
X180504359Y-105636073D01*
X180500680Y-105584631D01*
X180500661Y-105584363D01*
X180500500Y-105579867D01*
X180500500Y-105564201D01*
X180500476Y-105564033D01*
X180498264Y-105548657D01*
X180497788Y-105544216D01*
X180497698Y-105542960D01*
X180494091Y-105492517D01*
X180492481Y-105488202D01*
X180485821Y-105462107D01*
X180485165Y-105457543D01*
X180463624Y-105410376D01*
X180461910Y-105406237D01*
X180443798Y-105357672D01*
X180442929Y-105356511D01*
X180441031Y-105353975D01*
X180427289Y-105330814D01*
X180426730Y-105329590D01*
X180425377Y-105326627D01*
X180391435Y-105287456D01*
X180388620Y-105283963D01*
X180379221Y-105271407D01*
X180368131Y-105260317D01*
X180365078Y-105257038D01*
X180333460Y-105220549D01*
X180331128Y-105217857D01*
X180331127Y-105217856D01*
X180327246Y-105215362D01*
X180306275Y-105198461D01*
X179146537Y-104038723D01*
X179129635Y-104017751D01*
X179127143Y-104013872D01*
X179087959Y-103979919D01*
X179084679Y-103976865D01*
X179073593Y-103965779D01*
X179061036Y-103956379D01*
X179057544Y-103953565D01*
X179018373Y-103919623D01*
X179018371Y-103919622D01*
X179018370Y-103919621D01*
X179018367Y-103919619D01*
X179014178Y-103917706D01*
X178991024Y-103903968D01*
X178987332Y-103901205D01*
X178987331Y-103901204D01*
X178965291Y-103892983D01*
X178938757Y-103883086D01*
X178934603Y-103881365D01*
X178887462Y-103859836D01*
X178887455Y-103859834D01*
X178882883Y-103859177D01*
X178856808Y-103852521D01*
X178852488Y-103850910D01*
X178852480Y-103850908D01*
X178800778Y-103847209D01*
X178796311Y-103846729D01*
X178780799Y-103844500D01*
X178765130Y-103844500D01*
X178760634Y-103844339D01*
X178708927Y-103840641D01*
X178708926Y-103840641D01*
X178704427Y-103841620D01*
X178677642Y-103844500D01*
X177799532Y-103844500D01*
X177742329Y-103830767D01*
X177742325Y-103830765D01*
X177725646Y-103822266D01*
X177674032Y-103773518D01*
X177656966Y-103704603D01*
X177679867Y-103637402D01*
X177725647Y-103597733D01*
X177742329Y-103589233D01*
X177799532Y-103575500D01*
X178657642Y-103575500D01*
X178684426Y-103578379D01*
X178688927Y-103579359D01*
X178725265Y-103576759D01*
X178740634Y-103575661D01*
X178745130Y-103575500D01*
X178760798Y-103575500D01*
X178760799Y-103575500D01*
X178776338Y-103573265D01*
X178780770Y-103572789D01*
X178832483Y-103569091D01*
X178836791Y-103567483D01*
X178862901Y-103560819D01*
X178867457Y-103560165D01*
X178914640Y-103538616D01*
X178918739Y-103536918D01*
X178967331Y-103518796D01*
X178971017Y-103516036D01*
X178994183Y-103502289D01*
X178998373Y-103500377D01*
X179037547Y-103466432D01*
X179041045Y-103463613D01*
X179053593Y-103454221D01*
X179064686Y-103443126D01*
X179067951Y-103440086D01*
X179107143Y-103406128D01*
X179109631Y-103402256D01*
X179126534Y-103381278D01*
X181306278Y-101201534D01*
X181327256Y-101184631D01*
X181331128Y-101182143D01*
X181365086Y-101142951D01*
X181368126Y-101139686D01*
X181379221Y-101128593D01*
X181388613Y-101116045D01*
X181391432Y-101112547D01*
X181396868Y-101106273D01*
X181425377Y-101073373D01*
X181427289Y-101069183D01*
X181441036Y-101046017D01*
X181443796Y-101042331D01*
X181461918Y-100993739D01*
X181463616Y-100989640D01*
X181485165Y-100942457D01*
X181485819Y-100937901D01*
X181492483Y-100911791D01*
X181494091Y-100907483D01*
X181497789Y-100855770D01*
X181498265Y-100851338D01*
X181500500Y-100835799D01*
X181500500Y-100820130D01*
X181500661Y-100815634D01*
X181503895Y-100770409D01*
X181504359Y-100763927D01*
X181503379Y-100759420D01*
X181500500Y-100732640D01*
X181500500Y-87159280D01*
X181520502Y-87091159D01*
X181522804Y-87087704D01*
X181580220Y-87004523D01*
X181636237Y-86856818D01*
X181655278Y-86700000D01*
X181650035Y-86656818D01*
X181636238Y-86543184D01*
X181619860Y-86500000D01*
X181580220Y-86395477D01*
X181580216Y-86395472D01*
X181580216Y-86395470D01*
X181490483Y-86265470D01*
X181490481Y-86265468D01*
X181372240Y-86160717D01*
X181232365Y-86087304D01*
X181232361Y-86087302D01*
X181078987Y-86049500D01*
X181078985Y-86049500D01*
X180921015Y-86049500D01*
X180921012Y-86049500D01*
X180767638Y-86087302D01*
X180767634Y-86087304D01*
X180627759Y-86160717D01*
X180509518Y-86265468D01*
X180509516Y-86265470D01*
X180419783Y-86395470D01*
X180419782Y-86395473D01*
X180363761Y-86543184D01*
X180344722Y-86699996D01*
X180344722Y-86700003D01*
X180363762Y-86856816D01*
X180419778Y-87004518D01*
X180419782Y-87004526D01*
X180477196Y-87087704D01*
X180499432Y-87155129D01*
X180499500Y-87159280D01*
X180499500Y-92437803D01*
X180479498Y-92505924D01*
X180425842Y-92552417D01*
X180355568Y-92562521D01*
X180290988Y-92533027D01*
X180282479Y-92524520D01*
X180282407Y-92524593D01*
X180279221Y-92521407D01*
X180268131Y-92510317D01*
X180265078Y-92507038D01*
X180231127Y-92467856D01*
X180227246Y-92465362D01*
X180206275Y-92448461D01*
X179351537Y-91593723D01*
X179334635Y-91572751D01*
X179332143Y-91568872D01*
X179324940Y-91562631D01*
X179292960Y-91534920D01*
X179289679Y-91531865D01*
X179278593Y-91520779D01*
X179266036Y-91511379D01*
X179262544Y-91508565D01*
X179223373Y-91474623D01*
X179223371Y-91474622D01*
X179223370Y-91474621D01*
X179223367Y-91474619D01*
X179219178Y-91472706D01*
X179196024Y-91458968D01*
X179192332Y-91456205D01*
X179192331Y-91456204D01*
X179170291Y-91447983D01*
X179143757Y-91438086D01*
X179139603Y-91436365D01*
X179092462Y-91414836D01*
X179092455Y-91414834D01*
X179087883Y-91414177D01*
X179061808Y-91407521D01*
X179057488Y-91405910D01*
X179057480Y-91405908D01*
X179005778Y-91402209D01*
X179001311Y-91401729D01*
X178985799Y-91399500D01*
X178970130Y-91399500D01*
X178965634Y-91399339D01*
X178913927Y-91395641D01*
X178913926Y-91395641D01*
X178909427Y-91396620D01*
X178882642Y-91399500D01*
X177663802Y-91399500D01*
X177595681Y-91379498D01*
X177580247Y-91367811D01*
X177577602Y-91365468D01*
X177572240Y-91360717D01*
X177572239Y-91360716D01*
X177432365Y-91287304D01*
X177432361Y-91287302D01*
X177278987Y-91249500D01*
X177278985Y-91249500D01*
X177121015Y-91249500D01*
X177121012Y-91249500D01*
X176967638Y-91287302D01*
X176967634Y-91287304D01*
X176827759Y-91360717D01*
X176709518Y-91465468D01*
X176709516Y-91465470D01*
X176619783Y-91595470D01*
X176619782Y-91595473D01*
X176619781Y-91595475D01*
X176619780Y-91595477D01*
X176610771Y-91619232D01*
X176563761Y-91743184D01*
X176544722Y-91899996D01*
X176544722Y-91900003D01*
X176563761Y-92056815D01*
X176590473Y-92127246D01*
X176619780Y-92204523D01*
X176619781Y-92204525D01*
X176619782Y-92204526D01*
X176619783Y-92204529D01*
X176709516Y-92334529D01*
X176709518Y-92334531D01*
X176756822Y-92376438D01*
X176827760Y-92439283D01*
X176967635Y-92512696D01*
X176967636Y-92512696D01*
X176967638Y-92512697D01*
X177042418Y-92531128D01*
X177121015Y-92550500D01*
X177121017Y-92550500D01*
X177278983Y-92550500D01*
X177278985Y-92550500D01*
X177432365Y-92512696D01*
X177572240Y-92439283D01*
X177580248Y-92432188D01*
X177644500Y-92401987D01*
X177663802Y-92400500D01*
X178690496Y-92400500D01*
X178758617Y-92420502D01*
X178779585Y-92437399D01*
X179362597Y-93020411D01*
X179396620Y-93082720D01*
X179399500Y-93109503D01*
X179399500Y-95990494D01*
X179379498Y-96058615D01*
X179362596Y-96079589D01*
X179254591Y-96187595D01*
X179192279Y-96221620D01*
X179165495Y-96224500D01*
X178178930Y-96224500D01*
X178110809Y-96204498D01*
X178064316Y-96150842D01*
X178054212Y-96080568D01*
X178083706Y-96015988D01*
X178089835Y-96009405D01*
X178092680Y-96006559D01*
X178092685Y-96006552D01*
X178176280Y-95865202D01*
X178222100Y-95707489D01*
X178222296Y-95705000D01*
X176576000Y-95705000D01*
X176507879Y-95684998D01*
X176461386Y-95631342D01*
X176450000Y-95579000D01*
X176450000Y-94655000D01*
X176950000Y-94655000D01*
X176950000Y-95205000D01*
X178222296Y-95205000D01*
X178222100Y-95202510D01*
X178176280Y-95044797D01*
X178092685Y-94903447D01*
X178092680Y-94903440D01*
X177976559Y-94787319D01*
X177976552Y-94787314D01*
X177835202Y-94703719D01*
X177677489Y-94657899D01*
X177640650Y-94655000D01*
X176950000Y-94655000D01*
X176450000Y-94655000D01*
X175759350Y-94655000D01*
X175722510Y-94657899D01*
X175564797Y-94703719D01*
X175423447Y-94787314D01*
X175423444Y-94787316D01*
X175315594Y-94895166D01*
X175253282Y-94929191D01*
X175182466Y-94924125D01*
X175125630Y-94881579D01*
X175100820Y-94815058D01*
X175100499Y-94806070D01*
X175100499Y-93867361D01*
X175103380Y-93840572D01*
X175104359Y-93836073D01*
X175100661Y-93784364D01*
X175100500Y-93779868D01*
X175100500Y-93764201D01*
X175100500Y-93764200D01*
X175098264Y-93748657D01*
X175097788Y-93744216D01*
X175094949Y-93704523D01*
X175094091Y-93692517D01*
X175092481Y-93688202D01*
X175085821Y-93662107D01*
X175085165Y-93657543D01*
X175063624Y-93610376D01*
X175061910Y-93606237D01*
X175043798Y-93557672D01*
X175043159Y-93556818D01*
X175041031Y-93553975D01*
X175027289Y-93530814D01*
X175025377Y-93526627D01*
X174991435Y-93487456D01*
X174988620Y-93483963D01*
X174979221Y-93471407D01*
X174968131Y-93460317D01*
X174965078Y-93457038D01*
X174931127Y-93417856D01*
X174927246Y-93415362D01*
X174906275Y-93398461D01*
X173873409Y-92365595D01*
X173839383Y-92303283D01*
X173844448Y-92232468D01*
X173886995Y-92175632D01*
X173953515Y-92150821D01*
X173962504Y-92150500D01*
X173978983Y-92150500D01*
X173978985Y-92150500D01*
X174132365Y-92112696D01*
X174272240Y-92039283D01*
X174390483Y-91934530D01*
X174480220Y-91804523D01*
X174536237Y-91656818D01*
X174536237Y-91656817D01*
X174536238Y-91656815D01*
X174555278Y-91500003D01*
X174555278Y-91499996D01*
X174536238Y-91343184D01*
X174519860Y-91300000D01*
X174480220Y-91195477D01*
X174480216Y-91195472D01*
X174480216Y-91195470D01*
X174390483Y-91065470D01*
X174390477Y-91065464D01*
X174326240Y-91008556D01*
X174288514Y-90948413D01*
X174289293Y-90877420D01*
X174328329Y-90818119D01*
X174393230Y-90789336D01*
X174397443Y-90788850D01*
X174426123Y-90786025D01*
X174426126Y-90786025D01*
X174426127Y-90786024D01*
X174426132Y-90786024D01*
X174614727Y-90728814D01*
X174788538Y-90635910D01*
X174940883Y-90510883D01*
X175065910Y-90358538D01*
X175065915Y-90358528D01*
X175067271Y-90356500D01*
X175068262Y-90355670D01*
X175069837Y-90353753D01*
X175070200Y-90354051D01*
X175121748Y-90310971D01*
X175172038Y-90300500D01*
X175532642Y-90300500D01*
X175559426Y-90303379D01*
X175563927Y-90304359D01*
X175600265Y-90301759D01*
X175615634Y-90300661D01*
X175620130Y-90300500D01*
X175635798Y-90300500D01*
X175635799Y-90300500D01*
X175651338Y-90298265D01*
X175655770Y-90297789D01*
X175707483Y-90294091D01*
X175711791Y-90292483D01*
X175737901Y-90285819D01*
X175742457Y-90285165D01*
X175789640Y-90263616D01*
X175793739Y-90261918D01*
X175842331Y-90243796D01*
X175846017Y-90241036D01*
X175869183Y-90227289D01*
X175873373Y-90225377D01*
X175912547Y-90191432D01*
X175916045Y-90188613D01*
X175928593Y-90179221D01*
X175939686Y-90168126D01*
X175942951Y-90165086D01*
X175982143Y-90131128D01*
X175984631Y-90127256D01*
X176001534Y-90106278D01*
X177356278Y-88751534D01*
X177377256Y-88734631D01*
X177381128Y-88732143D01*
X177415086Y-88692951D01*
X177418126Y-88689686D01*
X177429221Y-88678593D01*
X177438613Y-88666045D01*
X177441432Y-88662547D01*
X177455749Y-88646024D01*
X177475377Y-88623373D01*
X177477289Y-88619183D01*
X177491036Y-88596017D01*
X177493796Y-88592331D01*
X177511918Y-88543739D01*
X177513616Y-88539640D01*
X177535165Y-88492457D01*
X177535819Y-88487901D01*
X177542483Y-88461791D01*
X177544091Y-88457483D01*
X177547789Y-88405770D01*
X177548265Y-88401338D01*
X177550500Y-88385799D01*
X177550500Y-88370130D01*
X177550661Y-88365634D01*
X177551817Y-88349452D01*
X177554359Y-88313927D01*
X177553379Y-88309420D01*
X177550500Y-88282640D01*
X177550500Y-86375750D01*
X177570502Y-86307629D01*
X177600988Y-86274884D01*
X177657546Y-86232546D01*
X177743796Y-86117331D01*
X177794091Y-85982483D01*
X177800500Y-85922873D01*
X177800499Y-84877128D01*
X177794091Y-84817517D01*
X177755294Y-84713496D01*
X177743798Y-84682674D01*
X177743797Y-84682673D01*
X177743796Y-84682669D01*
X177657546Y-84567454D01*
X177657543Y-84567452D01*
X177657542Y-84567450D01*
X177600990Y-84525115D01*
X177558444Y-84468279D01*
X177550500Y-84424248D01*
X177550500Y-84109280D01*
X177570502Y-84041159D01*
X177572804Y-84037704D01*
X177595707Y-84004523D01*
X177630220Y-83954523D01*
X177661887Y-83871022D01*
X177704745Y-83814422D01*
X177771400Y-83789977D01*
X177840691Y-83805449D01*
X177868790Y-83826604D01*
X178762596Y-84720409D01*
X178796620Y-84782720D01*
X178799500Y-84809503D01*
X178799500Y-89640719D01*
X178779498Y-89708840D01*
X178777196Y-89712295D01*
X178719781Y-89795474D01*
X178663761Y-89943184D01*
X178644722Y-90099996D01*
X178644722Y-90100003D01*
X178663761Y-90256815D01*
X178686912Y-90317857D01*
X178719780Y-90404523D01*
X178719781Y-90404525D01*
X178719782Y-90404526D01*
X178719783Y-90404529D01*
X178799834Y-90520502D01*
X178809517Y-90534530D01*
X178927760Y-90639283D01*
X179067635Y-90712696D01*
X179067636Y-90712696D01*
X179067638Y-90712697D01*
X179144324Y-90731598D01*
X179221015Y-90750500D01*
X179221017Y-90750500D01*
X179378983Y-90750500D01*
X179378985Y-90750500D01*
X179532365Y-90712696D01*
X179672240Y-90639283D01*
X179790483Y-90534530D01*
X179880220Y-90404523D01*
X179936237Y-90256818D01*
X179936237Y-90256817D01*
X179936238Y-90256815D01*
X179955278Y-90100003D01*
X179955278Y-90099996D01*
X179936238Y-89943184D01*
X179918142Y-89895470D01*
X179880220Y-89795477D01*
X179825082Y-89715596D01*
X179822804Y-89712295D01*
X179800568Y-89644870D01*
X179800500Y-89640719D01*
X179800500Y-84617357D01*
X179803379Y-84590576D01*
X179804359Y-84586073D01*
X179802214Y-84556084D01*
X179800661Y-84534363D01*
X179800500Y-84529867D01*
X179800500Y-84514201D01*
X179800500Y-84514200D01*
X179798264Y-84498657D01*
X179797788Y-84494216D01*
X179796857Y-84481204D01*
X179794091Y-84442517D01*
X179792481Y-84438202D01*
X179785821Y-84412107D01*
X179785165Y-84407543D01*
X179763624Y-84360376D01*
X179761910Y-84356237D01*
X179759770Y-84350500D01*
X179754110Y-84335323D01*
X179743798Y-84307672D01*
X179743796Y-84307669D01*
X179741031Y-84303975D01*
X179727289Y-84280814D01*
X179725377Y-84276627D01*
X179691435Y-84237456D01*
X179688620Y-84233963D01*
X179679221Y-84221407D01*
X179668131Y-84210317D01*
X179665078Y-84207038D01*
X179646409Y-84185493D01*
X179631128Y-84167857D01*
X179631127Y-84167856D01*
X179627246Y-84165362D01*
X179606275Y-84148461D01*
X179582806Y-84124992D01*
X179548780Y-84062680D01*
X179553845Y-83991865D01*
X179596392Y-83935029D01*
X179662912Y-83910218D01*
X179692633Y-83911614D01*
X179925665Y-83950500D01*
X179925669Y-83950500D01*
X180174331Y-83950500D01*
X180174335Y-83950500D01*
X180419614Y-83909571D01*
X180654810Y-83828828D01*
X180873509Y-83710474D01*
X181069744Y-83557738D01*
X181122436Y-83500500D01*
X181238164Y-83374785D01*
X181272027Y-83322954D01*
X181374173Y-83166607D01*
X181474063Y-82938881D01*
X181535108Y-82697821D01*
X181555643Y-82450000D01*
X181535108Y-82202179D01*
X181515757Y-82125765D01*
X181474064Y-81961122D01*
X181474061Y-81961115D01*
X181413769Y-81823664D01*
X181374173Y-81733393D01*
X181347192Y-81692095D01*
X181238164Y-81525214D01*
X181069750Y-81342267D01*
X180873509Y-81189526D01*
X180873508Y-81189525D01*
X180654809Y-81071171D01*
X180654807Y-81071170D01*
X180419618Y-80990430D01*
X180419609Y-80990428D01*
X180370836Y-80982289D01*
X180174335Y-80949500D01*
X179925665Y-80949500D01*
X179761952Y-80976818D01*
X179680390Y-80990428D01*
X179680381Y-80990430D01*
X179445192Y-81071170D01*
X179445190Y-81071171D01*
X179226491Y-81189525D01*
X179226490Y-81189526D01*
X179030249Y-81342267D01*
X178861835Y-81525214D01*
X178725826Y-81733393D01*
X178625938Y-81961115D01*
X178625935Y-81961122D01*
X178564893Y-82202171D01*
X178564892Y-82202177D01*
X178564892Y-82202179D01*
X178544357Y-82450000D01*
X178564808Y-82696810D01*
X178564893Y-82697828D01*
X178591339Y-82802260D01*
X178588672Y-82873206D01*
X178548072Y-82931448D01*
X178482428Y-82958494D01*
X178412584Y-82945757D01*
X178380100Y-82922286D01*
X177306328Y-81848514D01*
X177289426Y-81827542D01*
X177286934Y-81823663D01*
X177267738Y-81807030D01*
X177247751Y-81789711D01*
X177244470Y-81786656D01*
X177233384Y-81775570D01*
X177220826Y-81766169D01*
X177217335Y-81763356D01*
X177217327Y-81763349D01*
X177178164Y-81729414D01*
X177178162Y-81729413D01*
X177178161Y-81729412D01*
X177178158Y-81729410D01*
X177173969Y-81727497D01*
X177150815Y-81713759D01*
X177148397Y-81711949D01*
X177147122Y-81710995D01*
X177125082Y-81702774D01*
X177098548Y-81692877D01*
X177094394Y-81691156D01*
X177047253Y-81669627D01*
X177047246Y-81669625D01*
X177042674Y-81668968D01*
X177016599Y-81662312D01*
X177012279Y-81660701D01*
X177012271Y-81660699D01*
X176960569Y-81657000D01*
X176956102Y-81656520D01*
X176940590Y-81654291D01*
X176924921Y-81654291D01*
X176920425Y-81654130D01*
X176868718Y-81650432D01*
X176868717Y-81650432D01*
X176864218Y-81651411D01*
X176837433Y-81654291D01*
X151712564Y-81654291D01*
X151685784Y-81651412D01*
X151681284Y-81650433D01*
X151681279Y-81650433D01*
X151629583Y-81654130D01*
X151625087Y-81654291D01*
X151609404Y-81654291D01*
X151593887Y-81656521D01*
X151589421Y-81657001D01*
X151537726Y-81660699D01*
X151537716Y-81660702D01*
X151533405Y-81662310D01*
X151507318Y-81668969D01*
X151502753Y-81669625D01*
X151455596Y-81691160D01*
X151451443Y-81692880D01*
X151402874Y-81710997D01*
X151399185Y-81713759D01*
X151376026Y-81727500D01*
X151371836Y-81729413D01*
X151332672Y-81763349D01*
X151329173Y-81766169D01*
X151316616Y-81775569D01*
X151316604Y-81775580D01*
X151305528Y-81786656D01*
X151302240Y-81789717D01*
X151263068Y-81823660D01*
X151263065Y-81823664D01*
X151260568Y-81827549D01*
X151243672Y-81848512D01*
X147274612Y-85817573D01*
X147215670Y-85850817D01*
X147067638Y-85887302D01*
X147067634Y-85887304D01*
X146927759Y-85960717D01*
X146809518Y-86065468D01*
X146809516Y-86065470D01*
X146719783Y-86195470D01*
X146719782Y-86195473D01*
X146663761Y-86343184D01*
X146644722Y-86499996D01*
X146644722Y-86500003D01*
X146663761Y-86656815D01*
X146680141Y-86700003D01*
X146719780Y-86804523D01*
X146719781Y-86804525D01*
X146719782Y-86804526D01*
X146719783Y-86804529D01*
X146755876Y-86856818D01*
X146809517Y-86934530D01*
X146927760Y-87039283D01*
X147067635Y-87112696D01*
X147067636Y-87112696D01*
X147067638Y-87112697D01*
X147144325Y-87131598D01*
X147221015Y-87150500D01*
X147221017Y-87150500D01*
X147378983Y-87150500D01*
X147378985Y-87150500D01*
X147532365Y-87112696D01*
X147672240Y-87039283D01*
X147790483Y-86934530D01*
X147880220Y-86804523D01*
X147936237Y-86656818D01*
X147942776Y-86602956D01*
X147970841Y-86537747D01*
X147978751Y-86529061D01*
X149512812Y-84995000D01*
X160484341Y-84995000D01*
X160504937Y-85230411D01*
X160566096Y-85458661D01*
X160566097Y-85458663D01*
X160665965Y-85672830D01*
X160801505Y-85866401D01*
X160968599Y-86033495D01*
X161162170Y-86169035D01*
X161376337Y-86268903D01*
X161604592Y-86330063D01*
X161840000Y-86350659D01*
X162075408Y-86330063D01*
X162303663Y-86268903D01*
X162517830Y-86169035D01*
X162711401Y-86033495D01*
X162878495Y-85866401D01*
X163014035Y-85672830D01*
X163113903Y-85458663D01*
X163175063Y-85230408D01*
X163195659Y-84995000D01*
X163175063Y-84759592D01*
X163113903Y-84531337D01*
X163014035Y-84317171D01*
X163014034Y-84317170D01*
X163014033Y-84317167D01*
X162878501Y-84123607D01*
X162878498Y-84123603D01*
X162878495Y-84123599D01*
X162711401Y-83956505D01*
X162708570Y-83954523D01*
X162517830Y-83820965D01*
X162303665Y-83721098D01*
X162303661Y-83721096D01*
X162075411Y-83659937D01*
X161898852Y-83644490D01*
X161840000Y-83639341D01*
X161839999Y-83639341D01*
X161604588Y-83659937D01*
X161376338Y-83721096D01*
X161376334Y-83721098D01*
X161162167Y-83820966D01*
X160968607Y-83956498D01*
X160968596Y-83956507D01*
X160801507Y-84123596D01*
X160801498Y-84123607D01*
X160665966Y-84317167D01*
X160566098Y-84531334D01*
X160566096Y-84531338D01*
X160504937Y-84759588D01*
X160484341Y-84995000D01*
X149512812Y-84995000D01*
X151815617Y-82692196D01*
X151877930Y-82658170D01*
X151904713Y-82655291D01*
X176645287Y-82655291D01*
X176713408Y-82675293D01*
X176734382Y-82692196D01*
X176869740Y-82827554D01*
X176903766Y-82889866D01*
X176898701Y-82960681D01*
X176856154Y-83017517D01*
X176824060Y-83032742D01*
X176824765Y-83034600D01*
X176817634Y-83037304D01*
X176677759Y-83110717D01*
X176559518Y-83215468D01*
X176559516Y-83215470D01*
X176469783Y-83345470D01*
X176469782Y-83345473D01*
X176413761Y-83493184D01*
X176394722Y-83649996D01*
X176394722Y-83650003D01*
X176413762Y-83806816D01*
X176469778Y-83954518D01*
X176469782Y-83954526D01*
X176527196Y-84037704D01*
X176549432Y-84105129D01*
X176549500Y-84109280D01*
X176549500Y-84424248D01*
X176529498Y-84492369D01*
X176499010Y-84525115D01*
X176442457Y-84567450D01*
X176442454Y-84567453D01*
X176442454Y-84567454D01*
X176356204Y-84682669D01*
X176356203Y-84682670D01*
X176356201Y-84682674D01*
X176356200Y-84682674D01*
X176350801Y-84697151D01*
X176308252Y-84753985D01*
X176241731Y-84778793D01*
X176172358Y-84763699D01*
X176122157Y-84713496D01*
X176113142Y-84692746D01*
X176084357Y-84605878D01*
X175992316Y-84456655D01*
X175992311Y-84456649D01*
X175868350Y-84332688D01*
X175868344Y-84332683D01*
X175719122Y-84240642D01*
X175552691Y-84185493D01*
X175449987Y-84175000D01*
X175399999Y-84175000D01*
X175400000Y-85150000D01*
X175399999Y-86624999D01*
X175449978Y-86624999D01*
X175552691Y-86614506D01*
X175719122Y-86559357D01*
X175868344Y-86467316D01*
X175868350Y-86467311D01*
X175992311Y-86343350D01*
X175992316Y-86343344D01*
X176084357Y-86194121D01*
X176113142Y-86107253D01*
X176153555Y-86048881D01*
X176219112Y-86021625D01*
X176288997Y-86034138D01*
X176341023Y-86082447D01*
X176350802Y-86102850D01*
X176356202Y-86117327D01*
X176356203Y-86117329D01*
X176356204Y-86117331D01*
X176442454Y-86232546D01*
X176499009Y-86274883D01*
X176541555Y-86331716D01*
X176549500Y-86375750D01*
X176549500Y-88090496D01*
X176529498Y-88158617D01*
X176512595Y-88179591D01*
X175429591Y-89262595D01*
X175367279Y-89296621D01*
X175340496Y-89299500D01*
X175172038Y-89299500D01*
X175103917Y-89279498D01*
X175069962Y-89246143D01*
X175069837Y-89246247D01*
X175068878Y-89245079D01*
X175067271Y-89243500D01*
X175065912Y-89241466D01*
X175065910Y-89241462D01*
X174940883Y-89089117D01*
X174788538Y-88964090D01*
X174614728Y-88871186D01*
X174480674Y-88830521D01*
X174426132Y-88813976D01*
X174426131Y-88813975D01*
X174426125Y-88813974D01*
X174230003Y-88794659D01*
X174229997Y-88794659D01*
X174033875Y-88813974D01*
X174033873Y-88813974D01*
X173845271Y-88871186D01*
X173671461Y-88964090D01*
X173519117Y-89089117D01*
X173394090Y-89241461D01*
X173301186Y-89415271D01*
X173243974Y-89603873D01*
X173243974Y-89603875D01*
X173224659Y-89799996D01*
X173224659Y-89800003D01*
X173243974Y-89996124D01*
X173243974Y-89996126D01*
X173301186Y-90184728D01*
X173330250Y-90239102D01*
X173367099Y-90308042D01*
X173370340Y-90314104D01*
X173384812Y-90383610D01*
X173359409Y-90449906D01*
X173302196Y-90491944D01*
X173259218Y-90499500D01*
X172659504Y-90499500D01*
X172591383Y-90479498D01*
X172570409Y-90462595D01*
X172278762Y-90170948D01*
X172244736Y-90108636D01*
X172242778Y-90097059D01*
X172236237Y-90043182D01*
X172180220Y-89895477D01*
X172180216Y-89895472D01*
X172180216Y-89895470D01*
X172090483Y-89765470D01*
X172090481Y-89765468D01*
X171972240Y-89660717D01*
X171832365Y-89587304D01*
X171832361Y-89587302D01*
X171678987Y-89549500D01*
X171678985Y-89549500D01*
X171521015Y-89549500D01*
X171521012Y-89549500D01*
X171367638Y-89587302D01*
X171367634Y-89587304D01*
X171227759Y-89660717D01*
X171109518Y-89765468D01*
X171109516Y-89765470D01*
X171019783Y-89895470D01*
X171019782Y-89895473D01*
X170963761Y-90043184D01*
X170944722Y-90199996D01*
X170944722Y-90200003D01*
X170963761Y-90356815D01*
X170981855Y-90404523D01*
X171019780Y-90504523D01*
X171019781Y-90504525D01*
X171019782Y-90504526D01*
X171019783Y-90504529D01*
X171109516Y-90634529D01*
X171109518Y-90634531D01*
X171111075Y-90635910D01*
X171227760Y-90739283D01*
X171367635Y-90812696D01*
X171515671Y-90849183D01*
X171574612Y-90882426D01*
X171626591Y-90934405D01*
X171660617Y-90996717D01*
X171655552Y-91067532D01*
X171613005Y-91124368D01*
X171546485Y-91149179D01*
X171537496Y-91149500D01*
X171521012Y-91149500D01*
X171367638Y-91187302D01*
X171367634Y-91187304D01*
X171227759Y-91260717D01*
X171109518Y-91365468D01*
X171109516Y-91365470D01*
X171019783Y-91495470D01*
X171019782Y-91495473D01*
X171019781Y-91495475D01*
X171019780Y-91495477D01*
X170996991Y-91555568D01*
X170994312Y-91562631D01*
X170951453Y-91619232D01*
X170884797Y-91643677D01*
X170815507Y-91628204D01*
X170765582Y-91577726D01*
X170750500Y-91517950D01*
X170750500Y-90767357D01*
X170753379Y-90740576D01*
X170754359Y-90736073D01*
X170750871Y-90687304D01*
X170750661Y-90684363D01*
X170750500Y-90679867D01*
X170750500Y-90664201D01*
X170749999Y-90660717D01*
X170748264Y-90648657D01*
X170747788Y-90644216D01*
X170747435Y-90639283D01*
X170744091Y-90592517D01*
X170742481Y-90588202D01*
X170735821Y-90562107D01*
X170735165Y-90557543D01*
X170713624Y-90510376D01*
X170711910Y-90506237D01*
X170710348Y-90502050D01*
X170701938Y-90479498D01*
X170693798Y-90457672D01*
X170693796Y-90457669D01*
X170691031Y-90453975D01*
X170677289Y-90430814D01*
X170675377Y-90426627D01*
X170641435Y-90387456D01*
X170638620Y-90383963D01*
X170629221Y-90371407D01*
X170618131Y-90360317D01*
X170615078Y-90357038D01*
X170614887Y-90356818D01*
X170581128Y-90317857D01*
X170581127Y-90317856D01*
X170577246Y-90315362D01*
X170556275Y-90298461D01*
X170370029Y-90112215D01*
X170336003Y-90049903D01*
X170335580Y-90002309D01*
X170335418Y-90002293D01*
X170335566Y-90000780D01*
X170335547Y-89998527D01*
X170336019Y-89996145D01*
X170336024Y-89996132D01*
X170343384Y-89921396D01*
X170355341Y-89800003D01*
X170355341Y-89799996D01*
X170336025Y-89603875D01*
X170336025Y-89603873D01*
X170336024Y-89603870D01*
X170336024Y-89603868D01*
X170278814Y-89415273D01*
X170185910Y-89241462D01*
X170060883Y-89089117D01*
X169908538Y-88964090D01*
X169734728Y-88871186D01*
X169600674Y-88830521D01*
X169546132Y-88813976D01*
X169546131Y-88813975D01*
X169546125Y-88813974D01*
X169350003Y-88794659D01*
X169349997Y-88794659D01*
X169153868Y-88813975D01*
X169151456Y-88814455D01*
X169150168Y-88814339D01*
X169147708Y-88814582D01*
X169147662Y-88814115D01*
X169080742Y-88808124D01*
X169037784Y-88779970D01*
X168770065Y-88512251D01*
X168487404Y-88229589D01*
X168453379Y-88167277D01*
X168450500Y-88140494D01*
X168450500Y-86375750D01*
X168470502Y-86307629D01*
X168500988Y-86274884D01*
X168557546Y-86232546D01*
X168643796Y-86117331D01*
X168643799Y-86117324D01*
X168649196Y-86102855D01*
X168691741Y-86046018D01*
X168758261Y-86021206D01*
X168827635Y-86036296D01*
X168877838Y-86086498D01*
X168886857Y-86107252D01*
X168915642Y-86194122D01*
X169007683Y-86343344D01*
X169007688Y-86343350D01*
X169131649Y-86467311D01*
X169131655Y-86467316D01*
X169280877Y-86559357D01*
X169447308Y-86614506D01*
X169550012Y-86624999D01*
X169600000Y-86624998D01*
X169600000Y-85650000D01*
X170100000Y-85650000D01*
X170100000Y-86624999D01*
X170149978Y-86624999D01*
X170252691Y-86614506D01*
X170419122Y-86559357D01*
X170568344Y-86467316D01*
X170568350Y-86467311D01*
X170692311Y-86343350D01*
X170692316Y-86343344D01*
X170784357Y-86194122D01*
X170839506Y-86027691D01*
X170849999Y-85924987D01*
X170850000Y-85924987D01*
X170850000Y-85650000D01*
X174150001Y-85650000D01*
X174150001Y-85924978D01*
X174160493Y-86027691D01*
X174215642Y-86194122D01*
X174307683Y-86343344D01*
X174307688Y-86343350D01*
X174431649Y-86467311D01*
X174431655Y-86467316D01*
X174580877Y-86559357D01*
X174747308Y-86614506D01*
X174850012Y-86624999D01*
X174900000Y-86624998D01*
X174900000Y-85650000D01*
X174150001Y-85650000D01*
X170850000Y-85650000D01*
X170100000Y-85650000D01*
X169600000Y-85650000D01*
X169600000Y-85276000D01*
X169620002Y-85207879D01*
X169673658Y-85161386D01*
X169726000Y-85150000D01*
X170849999Y-85150000D01*
X174150000Y-85150000D01*
X174900000Y-85150000D01*
X174900000Y-84175000D01*
X174899999Y-84174999D01*
X174850021Y-84175000D01*
X174747308Y-84185493D01*
X174580877Y-84240642D01*
X174431655Y-84332683D01*
X174431649Y-84332688D01*
X174307688Y-84456649D01*
X174307683Y-84456655D01*
X174215642Y-84605877D01*
X174160493Y-84772308D01*
X174150000Y-84875012D01*
X174150000Y-85150000D01*
X170849999Y-85150000D01*
X170849999Y-84875021D01*
X170839506Y-84772308D01*
X170784357Y-84605877D01*
X170714516Y-84492647D01*
X170695779Y-84424167D01*
X170717038Y-84356429D01*
X170771546Y-84310937D01*
X170821757Y-84300500D01*
X173013342Y-84300500D01*
X173059771Y-84311945D01*
X173060512Y-84309994D01*
X173067638Y-84312697D01*
X173144324Y-84331598D01*
X173221015Y-84350500D01*
X173221017Y-84350500D01*
X173378983Y-84350500D01*
X173378985Y-84350500D01*
X173532365Y-84312696D01*
X173672240Y-84239283D01*
X173790483Y-84134530D01*
X173880220Y-84004523D01*
X173936237Y-83856818D01*
X173936237Y-83856817D01*
X173936238Y-83856815D01*
X173955278Y-83700003D01*
X173955278Y-83699996D01*
X173936238Y-83543184D01*
X173919860Y-83500000D01*
X173880220Y-83395477D01*
X173880216Y-83395472D01*
X173880216Y-83395470D01*
X173790483Y-83265470D01*
X173790481Y-83265468D01*
X173672240Y-83160717D01*
X173532365Y-83087304D01*
X173532361Y-83087302D01*
X173378987Y-83049500D01*
X173378985Y-83049500D01*
X173221015Y-83049500D01*
X173221012Y-83049500D01*
X173067638Y-83087302D01*
X173060512Y-83090006D01*
X173059771Y-83088054D01*
X173013342Y-83099500D01*
X168486658Y-83099500D01*
X168440228Y-83088054D01*
X168439488Y-83090006D01*
X168432361Y-83087302D01*
X168278987Y-83049500D01*
X168278985Y-83049500D01*
X168121015Y-83049500D01*
X168121012Y-83049500D01*
X167967638Y-83087302D01*
X167967634Y-83087304D01*
X167827759Y-83160717D01*
X167709518Y-83265468D01*
X167709516Y-83265470D01*
X167619783Y-83395470D01*
X167619782Y-83395473D01*
X167563761Y-83543184D01*
X167544722Y-83699996D01*
X167544722Y-83700003D01*
X167563761Y-83856815D01*
X167591771Y-83930670D01*
X167619780Y-84004523D01*
X167619781Y-84004525D01*
X167619782Y-84004526D01*
X167619783Y-84004529D01*
X167701972Y-84123599D01*
X167709517Y-84134530D01*
X167788145Y-84204188D01*
X167825870Y-84264331D01*
X167825091Y-84335323D01*
X167786054Y-84394624D01*
X167721154Y-84423407D01*
X167704594Y-84424500D01*
X167652136Y-84424500D01*
X167652114Y-84424502D01*
X167592519Y-84430908D01*
X167592518Y-84430908D01*
X167457673Y-84481201D01*
X167457670Y-84481203D01*
X167342453Y-84567453D01*
X167256203Y-84682670D01*
X167256201Y-84682673D01*
X167205909Y-84817515D01*
X167199500Y-84877121D01*
X167199500Y-85922864D01*
X167199502Y-85922885D01*
X167205908Y-85982480D01*
X167205908Y-85982481D01*
X167256201Y-86117326D01*
X167256203Y-86117329D01*
X167256204Y-86117331D01*
X167342454Y-86232546D01*
X167399009Y-86274883D01*
X167441555Y-86331716D01*
X167449500Y-86375750D01*
X167449500Y-87226386D01*
X167429498Y-87294507D01*
X167375842Y-87341000D01*
X167305568Y-87351104D01*
X167240988Y-87321610D01*
X167239948Y-87320699D01*
X167172243Y-87260719D01*
X167172242Y-87260718D01*
X167032365Y-87187304D01*
X167032361Y-87187302D01*
X166878987Y-87149500D01*
X166878985Y-87149500D01*
X166721015Y-87149500D01*
X166721012Y-87149500D01*
X166567638Y-87187302D01*
X166567634Y-87187304D01*
X166427760Y-87260716D01*
X166427758Y-87260718D01*
X166419753Y-87267811D01*
X166355500Y-87298013D01*
X166336198Y-87299500D01*
X153467358Y-87299500D01*
X153440573Y-87296620D01*
X153436073Y-87295641D01*
X153436072Y-87295641D01*
X153384366Y-87299339D01*
X153379870Y-87299500D01*
X153364201Y-87299500D01*
X153348690Y-87301729D01*
X153344223Y-87302209D01*
X153292516Y-87305909D01*
X153292512Y-87305909D01*
X153288186Y-87307523D01*
X153262117Y-87314176D01*
X153257548Y-87314833D01*
X153257544Y-87314834D01*
X153210389Y-87336369D01*
X153206239Y-87338087D01*
X153199862Y-87340466D01*
X153157670Y-87356202D01*
X153153975Y-87358969D01*
X153130819Y-87372707D01*
X153129969Y-87373096D01*
X153126625Y-87374623D01*
X153087454Y-87408564D01*
X153083955Y-87411384D01*
X153071411Y-87420775D01*
X153071408Y-87420778D01*
X153060317Y-87431866D01*
X153057031Y-87434925D01*
X153017859Y-87468868D01*
X153017856Y-87468873D01*
X153015359Y-87472758D01*
X152998463Y-87493721D01*
X151174612Y-89317573D01*
X151115670Y-89350817D01*
X150967638Y-89387302D01*
X150967634Y-89387304D01*
X150827759Y-89460717D01*
X150709518Y-89565468D01*
X150709516Y-89565470D01*
X150619783Y-89695470D01*
X150619782Y-89695473D01*
X150563761Y-89843184D01*
X150544722Y-89999996D01*
X150544722Y-90000003D01*
X150563761Y-90156815D01*
X150580141Y-90200003D01*
X150619780Y-90304523D01*
X150619781Y-90304525D01*
X150619782Y-90304526D01*
X150619783Y-90304529D01*
X150704061Y-90426626D01*
X150709517Y-90434530D01*
X150827760Y-90539283D01*
X150967635Y-90612696D01*
X150990522Y-90618337D01*
X151051876Y-90654060D01*
X151084178Y-90717282D01*
X151077172Y-90787932D01*
X151043923Y-90834988D01*
X151009519Y-90865467D01*
X151009516Y-90865470D01*
X150919783Y-90995470D01*
X150919782Y-90995473D01*
X150863761Y-91143184D01*
X150844722Y-91299996D01*
X150844722Y-91300003D01*
X150863761Y-91456815D01*
X150874225Y-91484405D01*
X150891070Y-91528821D01*
X150896524Y-91599606D01*
X150862842Y-91662104D01*
X150800718Y-91696471D01*
X150773258Y-91699500D01*
X144604690Y-91699500D01*
X144536569Y-91679498D01*
X144490076Y-91625842D01*
X144479972Y-91555568D01*
X144509466Y-91490988D01*
X144515595Y-91484405D01*
X146000000Y-90000000D01*
X146000000Y-80126500D01*
X146020002Y-80058379D01*
X146073658Y-80011886D01*
X146126000Y-80000500D01*
X179248458Y-80000500D01*
X179251545Y-80000575D01*
G37*
G04 #@! TD.AperFunction*
G04 #@! TA.AperFunction,Conductor*
G36*
X136368499Y-118720502D02*
G01*
X136414992Y-118774158D01*
X136425096Y-118844432D01*
X136395602Y-118909012D01*
X136366213Y-118933933D01*
X136296633Y-118976571D01*
X136296628Y-118976575D01*
X136295820Y-118977265D01*
X136295820Y-118977267D01*
X137068431Y-119749878D01*
X136951542Y-119800651D01*
X136834261Y-119896066D01*
X136747072Y-120019585D01*
X136716645Y-120105198D01*
X135942267Y-119330820D01*
X135942265Y-119330820D01*
X135941575Y-119331628D01*
X135941561Y-119331647D01*
X135920574Y-119365894D01*
X135867925Y-119413525D01*
X135797884Y-119425130D01*
X135732687Y-119397025D01*
X135724048Y-119389152D01*
X135571403Y-119236507D01*
X135571392Y-119236498D01*
X135517902Y-119199044D01*
X135473573Y-119143587D01*
X135466264Y-119072968D01*
X135498294Y-119009607D01*
X135501037Y-119006775D01*
X135770409Y-118737404D01*
X135832722Y-118703379D01*
X135859505Y-118700500D01*
X136300378Y-118700500D01*
X136368499Y-118720502D01*
G37*
G04 #@! TD.AperFunction*
G04 #@! TA.AperFunction,Conductor*
G36*
X171424580Y-106414135D02*
G01*
X171478743Y-106460036D01*
X171499492Y-106527933D01*
X171499500Y-106529317D01*
X171499500Y-110608495D01*
X171479498Y-110676616D01*
X171458387Y-110701609D01*
X171443235Y-110715421D01*
X171320329Y-110878175D01*
X171229416Y-111060754D01*
X171173603Y-111256915D01*
X171154785Y-111460000D01*
X171173603Y-111663084D01*
X171229416Y-111859245D01*
X171229417Y-111859247D01*
X171229418Y-111859250D01*
X171320327Y-112041821D01*
X171320328Y-112041822D01*
X171320329Y-112041824D01*
X171400183Y-112147568D01*
X171425273Y-112213984D01*
X171410473Y-112283420D01*
X171360482Y-112333833D01*
X171299633Y-112349500D01*
X171228083Y-112349500D01*
X171159962Y-112329498D01*
X171138987Y-112312595D01*
X170788555Y-111962162D01*
X170754530Y-111899850D01*
X170756460Y-111838588D01*
X170806397Y-111663083D01*
X170825215Y-111460000D01*
X170806397Y-111256917D01*
X170750582Y-111060750D01*
X170659673Y-110878179D01*
X170638017Y-110849502D01*
X170536765Y-110715421D01*
X170386040Y-110578018D01*
X170386039Y-110578017D01*
X170212648Y-110470658D01*
X170212641Y-110470654D01*
X170212637Y-110470652D01*
X170040985Y-110404154D01*
X170022457Y-110396976D01*
X169955629Y-110384483D01*
X169821976Y-110359500D01*
X169618024Y-110359500D01*
X169540279Y-110374033D01*
X169417542Y-110396976D01*
X169286212Y-110447854D01*
X169227363Y-110470652D01*
X169227362Y-110470652D01*
X169227361Y-110470653D01*
X169227351Y-110470658D01*
X169053960Y-110578017D01*
X169053959Y-110578018D01*
X168903234Y-110715421D01*
X168780329Y-110878175D01*
X168689416Y-111060754D01*
X168633603Y-111256915D01*
X168614785Y-111460000D01*
X168633603Y-111663084D01*
X168689416Y-111859245D01*
X168689417Y-111859247D01*
X168689418Y-111859250D01*
X168780327Y-112041821D01*
X168780328Y-112041822D01*
X168780329Y-112041824D01*
X168903234Y-112204578D01*
X169053959Y-112341981D01*
X169053960Y-112341982D01*
X169227351Y-112449341D01*
X169227354Y-112449342D01*
X169227363Y-112449348D01*
X169302577Y-112478486D01*
X169358870Y-112521743D01*
X169382841Y-112588571D01*
X169366877Y-112657749D01*
X169316047Y-112707315D01*
X169289672Y-112717682D01*
X169256516Y-112726566D01*
X169256506Y-112726570D01*
X169042421Y-112826400D01*
X168848925Y-112961887D01*
X168848919Y-112961892D01*
X168681892Y-113128919D01*
X168681887Y-113128925D01*
X168546400Y-113322421D01*
X168446570Y-113536506D01*
X168446568Y-113536511D01*
X168389363Y-113750000D01*
X169286314Y-113750000D01*
X169260507Y-113790156D01*
X169220000Y-113928111D01*
X169220000Y-114071889D01*
X169260507Y-114209844D01*
X169286314Y-114250000D01*
X168389364Y-114250000D01*
X168446568Y-114463488D01*
X168446570Y-114463493D01*
X168546399Y-114677577D01*
X168546400Y-114677579D01*
X168681886Y-114871073D01*
X168681893Y-114871082D01*
X168848917Y-115038106D01*
X168848926Y-115038113D01*
X169042420Y-115173599D01*
X169042422Y-115173600D01*
X169226216Y-115259305D01*
X169279501Y-115306222D01*
X169298962Y-115374500D01*
X169278420Y-115442459D01*
X169224397Y-115488525D01*
X169172966Y-115499500D01*
X169063802Y-115499500D01*
X168995681Y-115479498D01*
X168980247Y-115467811D01*
X168976496Y-115464488D01*
X168972240Y-115460717D01*
X168972239Y-115460716D01*
X168832365Y-115387304D01*
X168832361Y-115387302D01*
X168678987Y-115349500D01*
X168678985Y-115349500D01*
X168521015Y-115349500D01*
X168521012Y-115349500D01*
X168367638Y-115387302D01*
X168367634Y-115387304D01*
X168227759Y-115460717D01*
X168110053Y-115564995D01*
X168045800Y-115595195D01*
X167975419Y-115585863D01*
X167921256Y-115539962D01*
X167900508Y-115472065D01*
X167900500Y-115470682D01*
X167900500Y-107561499D01*
X167920502Y-107493378D01*
X167974158Y-107446885D01*
X168026500Y-107435499D01*
X168306516Y-107435499D01*
X168306518Y-107435499D01*
X168400304Y-107420646D01*
X168442329Y-107399232D01*
X168499532Y-107385500D01*
X170047642Y-107385500D01*
X170074426Y-107388379D01*
X170078927Y-107389359D01*
X170115265Y-107386759D01*
X170130634Y-107385661D01*
X170135130Y-107385500D01*
X170150798Y-107385500D01*
X170150799Y-107385500D01*
X170166338Y-107383265D01*
X170170770Y-107382789D01*
X170222483Y-107379091D01*
X170226791Y-107377483D01*
X170252901Y-107370819D01*
X170257457Y-107370165D01*
X170304640Y-107348616D01*
X170308739Y-107346918D01*
X170357331Y-107328796D01*
X170361017Y-107326036D01*
X170384183Y-107312289D01*
X170388373Y-107310377D01*
X170427547Y-107276432D01*
X170431045Y-107273613D01*
X170443593Y-107264221D01*
X170454686Y-107253126D01*
X170457951Y-107250086D01*
X170497143Y-107216128D01*
X170499629Y-107212258D01*
X170516531Y-107191281D01*
X171106278Y-106601533D01*
X171127251Y-106584633D01*
X171131128Y-106582143D01*
X171151872Y-106558201D01*
X171166894Y-106544746D01*
X171166534Y-106544339D01*
X171289947Y-106435005D01*
X171354200Y-106404804D01*
X171424580Y-106414135D01*
G37*
G04 #@! TD.AperFunction*
M02*
