G04 #@! TF.GenerationSoftware,KiCad,Pcbnew,7.0.5-7.0.5~ubuntu20.04.1*
G04 #@! TF.CreationDate,2023-07-24T22:04:44+03:00*
G04 #@! TF.ProjectId,hardware,68617264-7761-4726-952e-6b696361645f,rev?*
G04 #@! TF.SameCoordinates,Original*
G04 #@! TF.FileFunction,Soldermask,Top*
G04 #@! TF.FilePolarity,Negative*
%FSLAX46Y46*%
G04 Gerber Fmt 4.6, Leading zero omitted, Abs format (unit mm)*
G04 Created by KiCad (PCBNEW 7.0.5-7.0.5~ubuntu20.04.1) date 2023-07-24 22:04:44*
%MOMM*%
%LPD*%
G01*
G04 APERTURE LIST*
G04 Aperture macros list*
%AMRoundRect*
0 Rectangle with rounded corners*
0 $1 Rounding radius*
0 $2 $3 $4 $5 $6 $7 $8 $9 X,Y pos of 4 corners*
0 Add a 4 corners polygon primitive as box body*
4,1,4,$2,$3,$4,$5,$6,$7,$8,$9,$2,$3,0*
0 Add four circle primitives for the rounded corners*
1,1,$1+$1,$2,$3*
1,1,$1+$1,$4,$5*
1,1,$1+$1,$6,$7*
1,1,$1+$1,$8,$9*
0 Add four rect primitives between the rounded corners*
20,1,$1+$1,$2,$3,$4,$5,0*
20,1,$1+$1,$4,$5,$6,$7,0*
20,1,$1+$1,$6,$7,$8,$9,0*
20,1,$1+$1,$8,$9,$2,$3,0*%
G04 Aperture macros list end*
%ADD10RoundRect,0.250000X0.262500X0.450000X-0.262500X0.450000X-0.262500X-0.450000X0.262500X-0.450000X0*%
%ADD11R,1.700000X1.700000*%
%ADD12O,1.700000X1.700000*%
%ADD13R,3.000000X2.500000*%
%ADD14C,1.524000*%
%ADD15R,1.524000X1.524000*%
%ADD16RoundRect,0.250000X0.250000X0.475000X-0.250000X0.475000X-0.250000X-0.475000X0.250000X-0.475000X0*%
%ADD17RoundRect,0.250000X0.450000X-0.262500X0.450000X0.262500X-0.450000X0.262500X-0.450000X-0.262500X0*%
%ADD18R,1.550000X1.300000*%
%ADD19RoundRect,0.243750X0.243750X0.456250X-0.243750X0.456250X-0.243750X-0.456250X0.243750X-0.456250X0*%
%ADD20C,2.200000*%
%ADD21R,2.200000X2.200000*%
%ADD22RoundRect,0.150000X0.875000X0.150000X-0.875000X0.150000X-0.875000X-0.150000X0.875000X-0.150000X0*%
%ADD23RoundRect,0.250000X-0.450000X0.262500X-0.450000X-0.262500X0.450000X-0.262500X0.450000X0.262500X0*%
%ADD24RoundRect,0.250000X-0.250000X-0.475000X0.250000X-0.475000X0.250000X0.475000X-0.250000X0.475000X0*%
%ADD25C,1.100000*%
%ADD26C,1.500000*%
%ADD27RoundRect,0.225000X0.225000X0.375000X-0.225000X0.375000X-0.225000X-0.375000X0.225000X-0.375000X0*%
%ADD28RoundRect,0.150000X0.587500X0.150000X-0.587500X0.150000X-0.587500X-0.150000X0.587500X-0.150000X0*%
G04 APERTURE END LIST*
D10*
X161912500Y-121800000D03*
X160087500Y-121800000D03*
D11*
X174800000Y-111460000D03*
D12*
X174800000Y-114000000D03*
X172260000Y-111460000D03*
X172260000Y-114000000D03*
X169720000Y-111460000D03*
X169720000Y-114000000D03*
D13*
X154800000Y-115275000D03*
X162800000Y-115275000D03*
D14*
X143120000Y-97675000D03*
X145660000Y-97675000D03*
X148200000Y-97675000D03*
X150740000Y-97675000D03*
X153280000Y-97675000D03*
X155820000Y-97675000D03*
X155820000Y-107835000D03*
X153280000Y-107835000D03*
X150740000Y-107835000D03*
X148200000Y-107835000D03*
X145660000Y-107835000D03*
D15*
X143120000Y-107835000D03*
D16*
X169850000Y-85400000D03*
X167950000Y-85400000D03*
D17*
X178600000Y-112312500D03*
X178600000Y-110487500D03*
D10*
X152512500Y-121800000D03*
X150687500Y-121800000D03*
D18*
X132275000Y-114725000D03*
X124325000Y-114725000D03*
X132275000Y-110225000D03*
X124325000Y-110225000D03*
X132275000Y-106225000D03*
X124325000Y-106225000D03*
X132275000Y-101725000D03*
X124325000Y-101725000D03*
D19*
X135262500Y-111800000D03*
X137137500Y-111800000D03*
D10*
X144112500Y-114000000D03*
X142287500Y-114000000D03*
D20*
X161840000Y-84995000D03*
D21*
X161840000Y-92495000D03*
D20*
X136440000Y-84995000D03*
X142840000Y-84995000D03*
X139640000Y-92495000D03*
D19*
X142262500Y-111800000D03*
X144137500Y-111800000D03*
D18*
X132275000Y-97725000D03*
X124325000Y-97725000D03*
X132275000Y-93225000D03*
X124325000Y-93225000D03*
D22*
X176700000Y-106885000D03*
X176700000Y-105615000D03*
X176700000Y-104345000D03*
X176700000Y-103075000D03*
X176700000Y-101805000D03*
X176700000Y-100535000D03*
X176700000Y-99265000D03*
X176700000Y-97995000D03*
X176700000Y-96725000D03*
X176700000Y-95455000D03*
X167400000Y-95455000D03*
X167400000Y-96725000D03*
X167400000Y-97995000D03*
X167400000Y-99265000D03*
X167400000Y-100535000D03*
X167400000Y-101805000D03*
X167400000Y-103075000D03*
X167400000Y-104345000D03*
X167400000Y-105615000D03*
X167400000Y-106885000D03*
D23*
X121800000Y-93687500D03*
X121800000Y-95512500D03*
D24*
X175150000Y-85400000D03*
X177050000Y-85400000D03*
D10*
X137112500Y-114000000D03*
X135287500Y-114000000D03*
D20*
X127740000Y-120335000D03*
D21*
X125200000Y-120335000D03*
D25*
X127740000Y-122875000D03*
X125200000Y-122875000D03*
D20*
X137240000Y-120275000D03*
X134700000Y-120275000D03*
D21*
X132160000Y-120275000D03*
D25*
X137240000Y-122815000D03*
X134700000Y-122815000D03*
X132160000Y-122815000D03*
D23*
X121900000Y-102087500D03*
X121900000Y-103912500D03*
X122200000Y-111687500D03*
X122200000Y-113512500D03*
D11*
X169720000Y-117860000D03*
D12*
X172260000Y-117860000D03*
X174800000Y-117860000D03*
D26*
X169350000Y-89800000D03*
X174230000Y-89800000D03*
D27*
X157850000Y-121775000D03*
X154550000Y-121775000D03*
D20*
X125120000Y-86000000D03*
X127660000Y-86000000D03*
D21*
X130200000Y-86000000D03*
D25*
X125120000Y-83460000D03*
X127660000Y-83460000D03*
X130200000Y-83460000D03*
D28*
X151875000Y-119550000D03*
X151875000Y-117650000D03*
X150000000Y-118600000D03*
M02*
