M48
; DRILL file {KiCad 7.0.5-7.0.5~ubuntu20.04.1} date Пн 24 июл 2023 22:05:44
; FORMAT={-:-/ absolute / metric / decimal}
; #@! TF.CreationDate,2023-07-24T22:05:44+03:00
; #@! TF.GenerationSoftware,Kicad,Pcbnew,7.0.5-7.0.5~ubuntu20.04.1
; #@! TF.FileFunction,Plated,1,2,PTH
FMAT,2
METRIC
; #@! TA.AperFunction,Plated,PTH,ViaDrill
T1C0.300
; #@! TA.AperFunction,Plated,PTH,ViaDrill
T2C0.400
; #@! TA.AperFunction,Plated,PTH,ComponentDrill
T3C0.762
; #@! TA.AperFunction,Plated,PTH,ComponentDrill
T4C0.800
; #@! TA.AperFunction,Plated,PTH,ComponentDrill
T5C1.000
; #@! TA.AperFunction,Plated,PTH,ComponentDrill
T6C1.100
; #@! TA.AperFunction,Plated,PTH,ComponentDrill
T7C1.200
%
G90
G05
T1
X160.4Y-114.7
X163.4Y-106.5
X163.4Y-109.2
X163.415Y-110.815
X166.1Y-92.5
X166.1Y-94.4
T2
X121.8Y-115.4
X122.6Y-106.0
X134.0Y-112.8
X135.8Y-116.8
X140.2Y-110.2
X140.6Y-113.6
X140.8Y-97.6
X144.8Y-100.8
X146.0Y-114.0
X146.6Y-100.649
X147.3Y-86.5
X149.4Y-98.8
X149.5Y-107.1
X149.6Y-100.8
X151.2Y-90.0
X151.5Y-91.3
X152.0Y-98.8
X152.0Y-114.8
X152.6Y-100.8
X152.8Y-102.2
X153.243Y-105.6
X154.4Y-90.0
X154.4Y-92.6
X155.0Y-91.2
X155.0Y-105.0
X156.6Y-98.9
X156.9Y-100.649
X157.2Y-114.8
X157.4Y-94.8
X157.95Y-107.15
X158.2Y-100.7
X158.2Y-104.6
X158.401Y-113.201
X158.5Y-96.5
X158.5Y-99.1
X159.1Y-107.1
X159.2Y-123.4
X159.4Y-100.8
X159.8Y-94.4
X161.9Y-124.4
X162.45Y-106.501
X162.5Y-89.0
X163.1Y-100.8
X163.9Y-93.2
X163.9Y-95.9
X164.0Y-112.6
X164.1Y-123.4
X164.3Y-99.5
X164.3Y-104.9
X165.2Y-111.0
X166.8Y-87.8
X167.2Y-117.4
X168.2Y-83.7
X168.2Y-119.8
X168.6Y-116.0
X169.2Y-94.8
X169.4Y-91.8
X170.8Y-106.0
X171.6Y-90.2
X171.6Y-91.8
X171.6Y-93.4
X172.3Y-121.2
X173.3Y-83.7
X173.9Y-91.5
X173.9Y-108.6
X174.4Y-103.8
X175.7Y-108.6
X177.05Y-83.65
X177.2Y-91.9
X178.6Y-100.0
X179.3Y-90.1
X181.0Y-86.7
T3
X143.12Y-97.675
X143.12Y-107.835
X145.66Y-97.675
X145.66Y-107.835
X148.2Y-97.675
X148.2Y-107.835
X150.74Y-97.675
X150.74Y-107.835
X153.28Y-97.675
X153.28Y-107.835
X155.82Y-97.675
X155.82Y-107.835
T4
X169.35Y-89.8
X174.23Y-89.8
T5
X169.72Y-111.46
X169.72Y-114.0
X169.72Y-117.86
X172.26Y-111.46
X172.26Y-114.0
X172.26Y-117.86
X174.8Y-111.46
X174.8Y-114.0
X174.8Y-117.86
T6
X125.12Y-86.0
X125.2Y-120.335
X127.66Y-86.0
X127.74Y-120.335
X130.2Y-86.0
X132.16Y-120.275
X134.7Y-120.275
X137.24Y-120.275
T7
X136.44Y-84.995
X139.64Y-92.495
X142.84Y-84.995
X161.84Y-84.995
X161.84Y-92.495
T0
M30
