G04 #@! TF.GenerationSoftware,KiCad,Pcbnew,7.0.5-7.0.5~ubuntu20.04.1*
G04 #@! TF.CreationDate,2023-07-24T22:04:44+03:00*
G04 #@! TF.ProjectId,hardware,68617264-7761-4726-952e-6b696361645f,rev?*
G04 #@! TF.SameCoordinates,Original*
G04 #@! TF.FileFunction,Legend,Top*
G04 #@! TF.FilePolarity,Positive*
%FSLAX46Y46*%
G04 Gerber Fmt 4.6, Leading zero omitted, Abs format (unit mm)*
G04 Created by KiCad (PCBNEW 7.0.5-7.0.5~ubuntu20.04.1) date 2023-07-24 22:04:44*
%MOMM*%
%LPD*%
G01*
G04 APERTURE LIST*
G04 Aperture macros list*
%AMRoundRect*
0 Rectangle with rounded corners*
0 $1 Rounding radius*
0 $2 $3 $4 $5 $6 $7 $8 $9 X,Y pos of 4 corners*
0 Add a 4 corners polygon primitive as box body*
4,1,4,$2,$3,$4,$5,$6,$7,$8,$9,$2,$3,0*
0 Add four circle primitives for the rounded corners*
1,1,$1+$1,$2,$3*
1,1,$1+$1,$4,$5*
1,1,$1+$1,$6,$7*
1,1,$1+$1,$8,$9*
0 Add four rect primitives between the rounded corners*
20,1,$1+$1,$2,$3,$4,$5,0*
20,1,$1+$1,$4,$5,$6,$7,0*
20,1,$1+$1,$6,$7,$8,$9,0*
20,1,$1+$1,$8,$9,$2,$3,0*%
G04 Aperture macros list end*
%ADD10C,0.150000*%
%ADD11C,0.100000*%
%ADD12C,0.010000*%
%ADD13C,0.120000*%
%ADD14C,0.127000*%
%ADD15RoundRect,0.250000X0.262500X0.450000X-0.262500X0.450000X-0.262500X-0.450000X0.262500X-0.450000X0*%
%ADD16R,1.700000X1.700000*%
%ADD17O,1.700000X1.700000*%
%ADD18R,3.000000X2.500000*%
%ADD19C,1.524000*%
%ADD20R,1.524000X1.524000*%
%ADD21RoundRect,0.250000X0.250000X0.475000X-0.250000X0.475000X-0.250000X-0.475000X0.250000X-0.475000X0*%
%ADD22RoundRect,0.250000X0.450000X-0.262500X0.450000X0.262500X-0.450000X0.262500X-0.450000X-0.262500X0*%
%ADD23R,1.550000X1.300000*%
%ADD24RoundRect,0.243750X0.243750X0.456250X-0.243750X0.456250X-0.243750X-0.456250X0.243750X-0.456250X0*%
%ADD25C,2.200000*%
%ADD26R,2.200000X2.200000*%
%ADD27RoundRect,0.150000X0.875000X0.150000X-0.875000X0.150000X-0.875000X-0.150000X0.875000X-0.150000X0*%
%ADD28RoundRect,0.250000X-0.450000X0.262500X-0.450000X-0.262500X0.450000X-0.262500X0.450000X0.262500X0*%
%ADD29RoundRect,0.250000X-0.250000X-0.475000X0.250000X-0.475000X0.250000X0.475000X-0.250000X0.475000X0*%
%ADD30C,1.100000*%
%ADD31C,1.500000*%
%ADD32RoundRect,0.225000X0.225000X0.375000X-0.225000X0.375000X-0.225000X-0.375000X0.225000X-0.375000X0*%
%ADD33RoundRect,0.150000X0.587500X0.150000X-0.587500X0.150000X-0.587500X-0.150000X0.587500X-0.150000X0*%
G04 APERTURE END LIST*
D10*
X167454819Y-113476189D02*
X166454819Y-113476189D01*
X167407200Y-113047618D02*
X167454819Y-112904761D01*
X167454819Y-112904761D02*
X167454819Y-112666666D01*
X167454819Y-112666666D02*
X167407200Y-112571428D01*
X167407200Y-112571428D02*
X167359580Y-112523809D01*
X167359580Y-112523809D02*
X167264342Y-112476190D01*
X167264342Y-112476190D02*
X167169104Y-112476190D01*
X167169104Y-112476190D02*
X167073866Y-112523809D01*
X167073866Y-112523809D02*
X167026247Y-112571428D01*
X167026247Y-112571428D02*
X166978628Y-112666666D01*
X166978628Y-112666666D02*
X166931009Y-112857142D01*
X166931009Y-112857142D02*
X166883390Y-112952380D01*
X166883390Y-112952380D02*
X166835771Y-112999999D01*
X166835771Y-112999999D02*
X166740533Y-113047618D01*
X166740533Y-113047618D02*
X166645295Y-113047618D01*
X166645295Y-113047618D02*
X166550057Y-112999999D01*
X166550057Y-112999999D02*
X166502438Y-112952380D01*
X166502438Y-112952380D02*
X166454819Y-112857142D01*
X166454819Y-112857142D02*
X166454819Y-112619047D01*
X166454819Y-112619047D02*
X166502438Y-112476190D01*
X167454819Y-112047618D02*
X166454819Y-112047618D01*
X166454819Y-112047618D02*
X166454819Y-111666666D01*
X166454819Y-111666666D02*
X166502438Y-111571428D01*
X166502438Y-111571428D02*
X166550057Y-111523809D01*
X166550057Y-111523809D02*
X166645295Y-111476190D01*
X166645295Y-111476190D02*
X166788152Y-111476190D01*
X166788152Y-111476190D02*
X166883390Y-111523809D01*
X166883390Y-111523809D02*
X166931009Y-111571428D01*
X166931009Y-111571428D02*
X166978628Y-111666666D01*
X166978628Y-111666666D02*
X166978628Y-112047618D01*
X134115350Y-124981533D02*
X134115350Y-124281533D01*
X134115350Y-124281533D02*
X134282017Y-124281533D01*
X134282017Y-124281533D02*
X134382017Y-124314866D01*
X134382017Y-124314866D02*
X134448684Y-124381533D01*
X134448684Y-124381533D02*
X134482017Y-124448200D01*
X134482017Y-124448200D02*
X134515350Y-124581533D01*
X134515350Y-124581533D02*
X134515350Y-124681533D01*
X134515350Y-124681533D02*
X134482017Y-124814866D01*
X134482017Y-124814866D02*
X134448684Y-124881533D01*
X134448684Y-124881533D02*
X134382017Y-124948200D01*
X134382017Y-124948200D02*
X134282017Y-124981533D01*
X134282017Y-124981533D02*
X134115350Y-124981533D01*
X135282017Y-125048200D02*
X135215350Y-125014866D01*
X135215350Y-125014866D02*
X135148684Y-124948200D01*
X135148684Y-124948200D02*
X135048684Y-124848200D01*
X135048684Y-124848200D02*
X134982017Y-124814866D01*
X134982017Y-124814866D02*
X134915350Y-124814866D01*
X134948684Y-124981533D02*
X134882017Y-124948200D01*
X134882017Y-124948200D02*
X134815350Y-124881533D01*
X134815350Y-124881533D02*
X134782017Y-124748200D01*
X134782017Y-124748200D02*
X134782017Y-124514866D01*
X134782017Y-124514866D02*
X134815350Y-124381533D01*
X134815350Y-124381533D02*
X134882017Y-124314866D01*
X134882017Y-124314866D02*
X134948684Y-124281533D01*
X134948684Y-124281533D02*
X135082017Y-124281533D01*
X135082017Y-124281533D02*
X135148684Y-124314866D01*
X135148684Y-124314866D02*
X135215350Y-124381533D01*
X135215350Y-124381533D02*
X135248684Y-124514866D01*
X135248684Y-124514866D02*
X135248684Y-124748200D01*
X135248684Y-124748200D02*
X135215350Y-124881533D01*
X135215350Y-124881533D02*
X135148684Y-124948200D01*
X135148684Y-124948200D02*
X135082017Y-124981533D01*
X135082017Y-124981533D02*
X134948684Y-124981533D01*
X136732017Y-124314866D02*
X136665350Y-124281533D01*
X136665350Y-124281533D02*
X136565350Y-124281533D01*
X136565350Y-124281533D02*
X136465350Y-124314866D01*
X136465350Y-124314866D02*
X136398684Y-124381533D01*
X136398684Y-124381533D02*
X136365350Y-124448200D01*
X136365350Y-124448200D02*
X136332017Y-124581533D01*
X136332017Y-124581533D02*
X136332017Y-124681533D01*
X136332017Y-124681533D02*
X136365350Y-124814866D01*
X136365350Y-124814866D02*
X136398684Y-124881533D01*
X136398684Y-124881533D02*
X136465350Y-124948200D01*
X136465350Y-124948200D02*
X136565350Y-124981533D01*
X136565350Y-124981533D02*
X136632017Y-124981533D01*
X136632017Y-124981533D02*
X136732017Y-124948200D01*
X136732017Y-124948200D02*
X136765350Y-124914866D01*
X136765350Y-124914866D02*
X136765350Y-124681533D01*
X136765350Y-124681533D02*
X136632017Y-124681533D01*
X137065350Y-124981533D02*
X137065350Y-124281533D01*
X137065350Y-124281533D02*
X137465350Y-124981533D01*
X137465350Y-124981533D02*
X137465350Y-124281533D01*
X137798683Y-124981533D02*
X137798683Y-124281533D01*
X137798683Y-124281533D02*
X137965350Y-124281533D01*
X137965350Y-124281533D02*
X138065350Y-124314866D01*
X138065350Y-124314866D02*
X138132017Y-124381533D01*
X138132017Y-124381533D02*
X138165350Y-124448200D01*
X138165350Y-124448200D02*
X138198683Y-124581533D01*
X138198683Y-124581533D02*
X138198683Y-124681533D01*
X138198683Y-124681533D02*
X138165350Y-124814866D01*
X138165350Y-124814866D02*
X138132017Y-124881533D01*
X138132017Y-124881533D02*
X138065350Y-124948200D01*
X138065350Y-124948200D02*
X137965350Y-124981533D01*
X137965350Y-124981533D02*
X137798683Y-124981533D01*
X171817017Y-120066533D02*
X172217017Y-120066533D01*
X172017017Y-120766533D02*
X172017017Y-120066533D01*
X172383684Y-120066533D02*
X172850350Y-120766533D01*
X172850350Y-120066533D02*
X172383684Y-120766533D01*
X131165350Y-124714866D02*
X131698684Y-124714866D01*
X131432017Y-124981533D02*
X131432017Y-124448200D01*
X132365351Y-124281533D02*
X132032017Y-124281533D01*
X132032017Y-124281533D02*
X131998684Y-124614866D01*
X131998684Y-124614866D02*
X132032017Y-124581533D01*
X132032017Y-124581533D02*
X132098684Y-124548200D01*
X132098684Y-124548200D02*
X132265351Y-124548200D01*
X132265351Y-124548200D02*
X132332017Y-124581533D01*
X132332017Y-124581533D02*
X132365351Y-124614866D01*
X132365351Y-124614866D02*
X132398684Y-124681533D01*
X132398684Y-124681533D02*
X132398684Y-124848200D01*
X132398684Y-124848200D02*
X132365351Y-124914866D01*
X132365351Y-124914866D02*
X132332017Y-124948200D01*
X132332017Y-124948200D02*
X132265351Y-124981533D01*
X132265351Y-124981533D02*
X132098684Y-124981533D01*
X132098684Y-124981533D02*
X132032017Y-124948200D01*
X132032017Y-124948200D02*
X131998684Y-124914866D01*
X132598684Y-124281533D02*
X132832018Y-124981533D01*
X132832018Y-124981533D02*
X133065351Y-124281533D01*
X130801316Y-81493466D02*
X130801316Y-82193466D01*
X130801316Y-82193466D02*
X130401316Y-81493466D01*
X130401316Y-81493466D02*
X130401316Y-82193466D01*
X129934650Y-82193466D02*
X129801316Y-82193466D01*
X129801316Y-82193466D02*
X129734650Y-82160133D01*
X129734650Y-82160133D02*
X129667983Y-82093466D01*
X129667983Y-82093466D02*
X129634650Y-81960133D01*
X129634650Y-81960133D02*
X129634650Y-81726800D01*
X129634650Y-81726800D02*
X129667983Y-81593466D01*
X129667983Y-81593466D02*
X129734650Y-81526800D01*
X129734650Y-81526800D02*
X129801316Y-81493466D01*
X129801316Y-81493466D02*
X129934650Y-81493466D01*
X129934650Y-81493466D02*
X130001316Y-81526800D01*
X130001316Y-81526800D02*
X130067983Y-81593466D01*
X130067983Y-81593466D02*
X130101316Y-81726800D01*
X130101316Y-81726800D02*
X130101316Y-81960133D01*
X130101316Y-81960133D02*
X130067983Y-82093466D01*
X130067983Y-82093466D02*
X130001316Y-82160133D01*
X130001316Y-82160133D02*
X129934650Y-82193466D01*
X168475350Y-120499866D02*
X169008684Y-120499866D01*
X168742017Y-120766533D02*
X168742017Y-120233200D01*
X169675351Y-120066533D02*
X169342017Y-120066533D01*
X169342017Y-120066533D02*
X169308684Y-120399866D01*
X169308684Y-120399866D02*
X169342017Y-120366533D01*
X169342017Y-120366533D02*
X169408684Y-120333200D01*
X169408684Y-120333200D02*
X169575351Y-120333200D01*
X169575351Y-120333200D02*
X169642017Y-120366533D01*
X169642017Y-120366533D02*
X169675351Y-120399866D01*
X169675351Y-120399866D02*
X169708684Y-120466533D01*
X169708684Y-120466533D02*
X169708684Y-120633200D01*
X169708684Y-120633200D02*
X169675351Y-120699866D01*
X169675351Y-120699866D02*
X169642017Y-120733200D01*
X169642017Y-120733200D02*
X169575351Y-120766533D01*
X169575351Y-120766533D02*
X169408684Y-120766533D01*
X169408684Y-120766533D02*
X169342017Y-120733200D01*
X169342017Y-120733200D02*
X169308684Y-120699866D01*
X169908684Y-120066533D02*
X170142018Y-120766533D01*
X170142018Y-120766533D02*
X170375351Y-120066533D01*
X128134649Y-81560133D02*
X128167982Y-81526800D01*
X128167982Y-81526800D02*
X128267982Y-81493466D01*
X128267982Y-81493466D02*
X128334649Y-81493466D01*
X128334649Y-81493466D02*
X128434649Y-81526800D01*
X128434649Y-81526800D02*
X128501316Y-81593466D01*
X128501316Y-81593466D02*
X128534649Y-81660133D01*
X128534649Y-81660133D02*
X128567982Y-81793466D01*
X128567982Y-81793466D02*
X128567982Y-81893466D01*
X128567982Y-81893466D02*
X128534649Y-82026800D01*
X128534649Y-82026800D02*
X128501316Y-82093466D01*
X128501316Y-82093466D02*
X128434649Y-82160133D01*
X128434649Y-82160133D02*
X128334649Y-82193466D01*
X128334649Y-82193466D02*
X128267982Y-82193466D01*
X128267982Y-82193466D02*
X128167982Y-82160133D01*
X128167982Y-82160133D02*
X128134649Y-82126800D01*
X127701316Y-82193466D02*
X127567982Y-82193466D01*
X127567982Y-82193466D02*
X127501316Y-82160133D01*
X127501316Y-82160133D02*
X127434649Y-82093466D01*
X127434649Y-82093466D02*
X127401316Y-81960133D01*
X127401316Y-81960133D02*
X127401316Y-81726800D01*
X127401316Y-81726800D02*
X127434649Y-81593466D01*
X127434649Y-81593466D02*
X127501316Y-81526800D01*
X127501316Y-81526800D02*
X127567982Y-81493466D01*
X127567982Y-81493466D02*
X127701316Y-81493466D01*
X127701316Y-81493466D02*
X127767982Y-81526800D01*
X127767982Y-81526800D02*
X127834649Y-81593466D01*
X127834649Y-81593466D02*
X127867982Y-81726800D01*
X127867982Y-81726800D02*
X127867982Y-81960133D01*
X127867982Y-81960133D02*
X127834649Y-82093466D01*
X127834649Y-82093466D02*
X127767982Y-82160133D01*
X127767982Y-82160133D02*
X127701316Y-82193466D01*
X127101316Y-81493466D02*
X127101316Y-82193466D01*
X127101316Y-82193466D02*
X126867983Y-81693466D01*
X126867983Y-81693466D02*
X126634649Y-82193466D01*
X126634649Y-82193466D02*
X126634649Y-81493466D01*
X123665350Y-124714866D02*
X124198684Y-124714866D01*
X123932017Y-124981533D02*
X123932017Y-124448200D01*
X124898684Y-124981533D02*
X124498684Y-124981533D01*
X124698684Y-124981533D02*
X124698684Y-124281533D01*
X124698684Y-124281533D02*
X124632017Y-124381533D01*
X124632017Y-124381533D02*
X124565351Y-124448200D01*
X124565351Y-124448200D02*
X124498684Y-124481533D01*
X125165351Y-124348200D02*
X125198684Y-124314866D01*
X125198684Y-124314866D02*
X125265351Y-124281533D01*
X125265351Y-124281533D02*
X125432018Y-124281533D01*
X125432018Y-124281533D02*
X125498684Y-124314866D01*
X125498684Y-124314866D02*
X125532018Y-124348200D01*
X125532018Y-124348200D02*
X125565351Y-124414866D01*
X125565351Y-124414866D02*
X125565351Y-124481533D01*
X125565351Y-124481533D02*
X125532018Y-124581533D01*
X125532018Y-124581533D02*
X125132018Y-124981533D01*
X125132018Y-124981533D02*
X125565351Y-124981533D01*
X125765351Y-124281533D02*
X125998685Y-124981533D01*
X125998685Y-124981533D02*
X126232018Y-124281533D01*
X125501316Y-81493466D02*
X125501316Y-82193466D01*
X125501316Y-82193466D02*
X125101316Y-81493466D01*
X125101316Y-81493466D02*
X125101316Y-82193466D01*
X124367983Y-81560133D02*
X124401316Y-81526800D01*
X124401316Y-81526800D02*
X124501316Y-81493466D01*
X124501316Y-81493466D02*
X124567983Y-81493466D01*
X124567983Y-81493466D02*
X124667983Y-81526800D01*
X124667983Y-81526800D02*
X124734650Y-81593466D01*
X124734650Y-81593466D02*
X124767983Y-81660133D01*
X124767983Y-81660133D02*
X124801316Y-81793466D01*
X124801316Y-81793466D02*
X124801316Y-81893466D01*
X124801316Y-81893466D02*
X124767983Y-82026800D01*
X124767983Y-82026800D02*
X124734650Y-82093466D01*
X124734650Y-82093466D02*
X124667983Y-82160133D01*
X124667983Y-82160133D02*
X124567983Y-82193466D01*
X124567983Y-82193466D02*
X124501316Y-82193466D01*
X124501316Y-82193466D02*
X124401316Y-82160133D01*
X124401316Y-82160133D02*
X124367983Y-82126800D01*
X127232017Y-124314866D02*
X127165350Y-124281533D01*
X127165350Y-124281533D02*
X127065350Y-124281533D01*
X127065350Y-124281533D02*
X126965350Y-124314866D01*
X126965350Y-124314866D02*
X126898684Y-124381533D01*
X126898684Y-124381533D02*
X126865350Y-124448200D01*
X126865350Y-124448200D02*
X126832017Y-124581533D01*
X126832017Y-124581533D02*
X126832017Y-124681533D01*
X126832017Y-124681533D02*
X126865350Y-124814866D01*
X126865350Y-124814866D02*
X126898684Y-124881533D01*
X126898684Y-124881533D02*
X126965350Y-124948200D01*
X126965350Y-124948200D02*
X127065350Y-124981533D01*
X127065350Y-124981533D02*
X127132017Y-124981533D01*
X127132017Y-124981533D02*
X127232017Y-124948200D01*
X127232017Y-124948200D02*
X127265350Y-124914866D01*
X127265350Y-124914866D02*
X127265350Y-124681533D01*
X127265350Y-124681533D02*
X127132017Y-124681533D01*
X127565350Y-124981533D02*
X127565350Y-124281533D01*
X127565350Y-124281533D02*
X127965350Y-124981533D01*
X127965350Y-124981533D02*
X127965350Y-124281533D01*
X128298683Y-124981533D02*
X128298683Y-124281533D01*
X128298683Y-124281533D02*
X128465350Y-124281533D01*
X128465350Y-124281533D02*
X128565350Y-124314866D01*
X128565350Y-124314866D02*
X128632017Y-124381533D01*
X128632017Y-124381533D02*
X128665350Y-124448200D01*
X128665350Y-124448200D02*
X128698683Y-124581533D01*
X128698683Y-124581533D02*
X128698683Y-124681533D01*
X128698683Y-124681533D02*
X128665350Y-124814866D01*
X128665350Y-124814866D02*
X128632017Y-124881533D01*
X128632017Y-124881533D02*
X128565350Y-124948200D01*
X128565350Y-124948200D02*
X128465350Y-124981533D01*
X128465350Y-124981533D02*
X128298683Y-124981533D01*
X174792017Y-120099866D02*
X174725350Y-120066533D01*
X174725350Y-120066533D02*
X174625350Y-120066533D01*
X174625350Y-120066533D02*
X174525350Y-120099866D01*
X174525350Y-120099866D02*
X174458684Y-120166533D01*
X174458684Y-120166533D02*
X174425350Y-120233200D01*
X174425350Y-120233200D02*
X174392017Y-120366533D01*
X174392017Y-120366533D02*
X174392017Y-120466533D01*
X174392017Y-120466533D02*
X174425350Y-120599866D01*
X174425350Y-120599866D02*
X174458684Y-120666533D01*
X174458684Y-120666533D02*
X174525350Y-120733200D01*
X174525350Y-120733200D02*
X174625350Y-120766533D01*
X174625350Y-120766533D02*
X174692017Y-120766533D01*
X174692017Y-120766533D02*
X174792017Y-120733200D01*
X174792017Y-120733200D02*
X174825350Y-120699866D01*
X174825350Y-120699866D02*
X174825350Y-120466533D01*
X174825350Y-120466533D02*
X174692017Y-120466533D01*
X175125350Y-120766533D02*
X175125350Y-120066533D01*
X175125350Y-120066533D02*
X175525350Y-120766533D01*
X175525350Y-120766533D02*
X175525350Y-120066533D01*
X175858683Y-120766533D02*
X175858683Y-120066533D01*
X175858683Y-120066533D02*
X176025350Y-120066533D01*
X176025350Y-120066533D02*
X176125350Y-120099866D01*
X176125350Y-120099866D02*
X176192017Y-120166533D01*
X176192017Y-120166533D02*
X176225350Y-120233200D01*
X176225350Y-120233200D02*
X176258683Y-120366533D01*
X176258683Y-120366533D02*
X176258683Y-120466533D01*
X176258683Y-120466533D02*
X176225350Y-120599866D01*
X176225350Y-120599866D02*
X176192017Y-120666533D01*
X176192017Y-120666533D02*
X176125350Y-120733200D01*
X176125350Y-120733200D02*
X176025350Y-120766533D01*
X176025350Y-120766533D02*
X175858683Y-120766533D01*
X163657142Y-122254819D02*
X163323809Y-121778628D01*
X163085714Y-122254819D02*
X163085714Y-121254819D01*
X163085714Y-121254819D02*
X163466666Y-121254819D01*
X163466666Y-121254819D02*
X163561904Y-121302438D01*
X163561904Y-121302438D02*
X163609523Y-121350057D01*
X163609523Y-121350057D02*
X163657142Y-121445295D01*
X163657142Y-121445295D02*
X163657142Y-121588152D01*
X163657142Y-121588152D02*
X163609523Y-121683390D01*
X163609523Y-121683390D02*
X163561904Y-121731009D01*
X163561904Y-121731009D02*
X163466666Y-121778628D01*
X163466666Y-121778628D02*
X163085714Y-121778628D01*
X164038095Y-121350057D02*
X164085714Y-121302438D01*
X164085714Y-121302438D02*
X164180952Y-121254819D01*
X164180952Y-121254819D02*
X164419047Y-121254819D01*
X164419047Y-121254819D02*
X164514285Y-121302438D01*
X164514285Y-121302438D02*
X164561904Y-121350057D01*
X164561904Y-121350057D02*
X164609523Y-121445295D01*
X164609523Y-121445295D02*
X164609523Y-121540533D01*
X164609523Y-121540533D02*
X164561904Y-121683390D01*
X164561904Y-121683390D02*
X163990476Y-122254819D01*
X163990476Y-122254819D02*
X164609523Y-122254819D01*
X164990476Y-121350057D02*
X165038095Y-121302438D01*
X165038095Y-121302438D02*
X165133333Y-121254819D01*
X165133333Y-121254819D02*
X165371428Y-121254819D01*
X165371428Y-121254819D02*
X165466666Y-121302438D01*
X165466666Y-121302438D02*
X165514285Y-121350057D01*
X165514285Y-121350057D02*
X165561904Y-121445295D01*
X165561904Y-121445295D02*
X165561904Y-121540533D01*
X165561904Y-121540533D02*
X165514285Y-121683390D01*
X165514285Y-121683390D02*
X164942857Y-122254819D01*
X164942857Y-122254819D02*
X165561904Y-122254819D01*
X158257142Y-117754819D02*
X157780952Y-117754819D01*
X157780952Y-117754819D02*
X157780952Y-116754819D01*
X158542857Y-117707200D02*
X158685714Y-117754819D01*
X158685714Y-117754819D02*
X158923809Y-117754819D01*
X158923809Y-117754819D02*
X159019047Y-117707200D01*
X159019047Y-117707200D02*
X159066666Y-117659580D01*
X159066666Y-117659580D02*
X159114285Y-117564342D01*
X159114285Y-117564342D02*
X159114285Y-117469104D01*
X159114285Y-117469104D02*
X159066666Y-117373866D01*
X159066666Y-117373866D02*
X159019047Y-117326247D01*
X159019047Y-117326247D02*
X158923809Y-117278628D01*
X158923809Y-117278628D02*
X158733333Y-117231009D01*
X158733333Y-117231009D02*
X158638095Y-117183390D01*
X158638095Y-117183390D02*
X158590476Y-117135771D01*
X158590476Y-117135771D02*
X158542857Y-117040533D01*
X158542857Y-117040533D02*
X158542857Y-116945295D01*
X158542857Y-116945295D02*
X158590476Y-116850057D01*
X158590476Y-116850057D02*
X158638095Y-116802438D01*
X158638095Y-116802438D02*
X158733333Y-116754819D01*
X158733333Y-116754819D02*
X158971428Y-116754819D01*
X158971428Y-116754819D02*
X159114285Y-116802438D01*
X160066666Y-117754819D02*
X159495238Y-117754819D01*
X159780952Y-117754819D02*
X159780952Y-116754819D01*
X159780952Y-116754819D02*
X159685714Y-116897676D01*
X159685714Y-116897676D02*
X159590476Y-116992914D01*
X159590476Y-116992914D02*
X159495238Y-117040533D01*
X165933333Y-85759580D02*
X165885714Y-85807200D01*
X165885714Y-85807200D02*
X165742857Y-85854819D01*
X165742857Y-85854819D02*
X165647619Y-85854819D01*
X165647619Y-85854819D02*
X165504762Y-85807200D01*
X165504762Y-85807200D02*
X165409524Y-85711961D01*
X165409524Y-85711961D02*
X165361905Y-85616723D01*
X165361905Y-85616723D02*
X165314286Y-85426247D01*
X165314286Y-85426247D02*
X165314286Y-85283390D01*
X165314286Y-85283390D02*
X165361905Y-85092914D01*
X165361905Y-85092914D02*
X165409524Y-84997676D01*
X165409524Y-84997676D02*
X165504762Y-84902438D01*
X165504762Y-84902438D02*
X165647619Y-84854819D01*
X165647619Y-84854819D02*
X165742857Y-84854819D01*
X165742857Y-84854819D02*
X165885714Y-84902438D01*
X165885714Y-84902438D02*
X165933333Y-84950057D01*
X166314286Y-84950057D02*
X166361905Y-84902438D01*
X166361905Y-84902438D02*
X166457143Y-84854819D01*
X166457143Y-84854819D02*
X166695238Y-84854819D01*
X166695238Y-84854819D02*
X166790476Y-84902438D01*
X166790476Y-84902438D02*
X166838095Y-84950057D01*
X166838095Y-84950057D02*
X166885714Y-85045295D01*
X166885714Y-85045295D02*
X166885714Y-85140533D01*
X166885714Y-85140533D02*
X166838095Y-85283390D01*
X166838095Y-85283390D02*
X166266667Y-85854819D01*
X166266667Y-85854819D02*
X166885714Y-85854819D01*
X177957142Y-114654819D02*
X177623809Y-114178628D01*
X177385714Y-114654819D02*
X177385714Y-113654819D01*
X177385714Y-113654819D02*
X177766666Y-113654819D01*
X177766666Y-113654819D02*
X177861904Y-113702438D01*
X177861904Y-113702438D02*
X177909523Y-113750057D01*
X177909523Y-113750057D02*
X177957142Y-113845295D01*
X177957142Y-113845295D02*
X177957142Y-113988152D01*
X177957142Y-113988152D02*
X177909523Y-114083390D01*
X177909523Y-114083390D02*
X177861904Y-114131009D01*
X177861904Y-114131009D02*
X177766666Y-114178628D01*
X177766666Y-114178628D02*
X177385714Y-114178628D01*
X178338095Y-113750057D02*
X178385714Y-113702438D01*
X178385714Y-113702438D02*
X178480952Y-113654819D01*
X178480952Y-113654819D02*
X178719047Y-113654819D01*
X178719047Y-113654819D02*
X178814285Y-113702438D01*
X178814285Y-113702438D02*
X178861904Y-113750057D01*
X178861904Y-113750057D02*
X178909523Y-113845295D01*
X178909523Y-113845295D02*
X178909523Y-113940533D01*
X178909523Y-113940533D02*
X178861904Y-114083390D01*
X178861904Y-114083390D02*
X178290476Y-114654819D01*
X178290476Y-114654819D02*
X178909523Y-114654819D01*
X179861904Y-114654819D02*
X179290476Y-114654819D01*
X179576190Y-114654819D02*
X179576190Y-113654819D01*
X179576190Y-113654819D02*
X179480952Y-113797676D01*
X179480952Y-113797676D02*
X179385714Y-113892914D01*
X179385714Y-113892914D02*
X179290476Y-113940533D01*
X151433333Y-124254819D02*
X151100000Y-123778628D01*
X150861905Y-124254819D02*
X150861905Y-123254819D01*
X150861905Y-123254819D02*
X151242857Y-123254819D01*
X151242857Y-123254819D02*
X151338095Y-123302438D01*
X151338095Y-123302438D02*
X151385714Y-123350057D01*
X151385714Y-123350057D02*
X151433333Y-123445295D01*
X151433333Y-123445295D02*
X151433333Y-123588152D01*
X151433333Y-123588152D02*
X151385714Y-123683390D01*
X151385714Y-123683390D02*
X151338095Y-123731009D01*
X151338095Y-123731009D02*
X151242857Y-123778628D01*
X151242857Y-123778628D02*
X150861905Y-123778628D01*
X152385714Y-124254819D02*
X151814286Y-124254819D01*
X152100000Y-124254819D02*
X152100000Y-123254819D01*
X152100000Y-123254819D02*
X152004762Y-123397676D01*
X152004762Y-123397676D02*
X151909524Y-123492914D01*
X151909524Y-123492914D02*
X151814286Y-123540533D01*
X147233333Y-114554819D02*
X146900000Y-114078628D01*
X146661905Y-114554819D02*
X146661905Y-113554819D01*
X146661905Y-113554819D02*
X147042857Y-113554819D01*
X147042857Y-113554819D02*
X147138095Y-113602438D01*
X147138095Y-113602438D02*
X147185714Y-113650057D01*
X147185714Y-113650057D02*
X147233333Y-113745295D01*
X147233333Y-113745295D02*
X147233333Y-113888152D01*
X147233333Y-113888152D02*
X147185714Y-113983390D01*
X147185714Y-113983390D02*
X147138095Y-114031009D01*
X147138095Y-114031009D02*
X147042857Y-114078628D01*
X147042857Y-114078628D02*
X146661905Y-114078628D01*
X147804762Y-113983390D02*
X147709524Y-113935771D01*
X147709524Y-113935771D02*
X147661905Y-113888152D01*
X147661905Y-113888152D02*
X147614286Y-113792914D01*
X147614286Y-113792914D02*
X147614286Y-113745295D01*
X147614286Y-113745295D02*
X147661905Y-113650057D01*
X147661905Y-113650057D02*
X147709524Y-113602438D01*
X147709524Y-113602438D02*
X147804762Y-113554819D01*
X147804762Y-113554819D02*
X147995238Y-113554819D01*
X147995238Y-113554819D02*
X148090476Y-113602438D01*
X148090476Y-113602438D02*
X148138095Y-113650057D01*
X148138095Y-113650057D02*
X148185714Y-113745295D01*
X148185714Y-113745295D02*
X148185714Y-113792914D01*
X148185714Y-113792914D02*
X148138095Y-113888152D01*
X148138095Y-113888152D02*
X148090476Y-113935771D01*
X148090476Y-113935771D02*
X147995238Y-113983390D01*
X147995238Y-113983390D02*
X147804762Y-113983390D01*
X147804762Y-113983390D02*
X147709524Y-114031009D01*
X147709524Y-114031009D02*
X147661905Y-114078628D01*
X147661905Y-114078628D02*
X147614286Y-114173866D01*
X147614286Y-114173866D02*
X147614286Y-114364342D01*
X147614286Y-114364342D02*
X147661905Y-114459580D01*
X147661905Y-114459580D02*
X147709524Y-114507200D01*
X147709524Y-114507200D02*
X147804762Y-114554819D01*
X147804762Y-114554819D02*
X147995238Y-114554819D01*
X147995238Y-114554819D02*
X148090476Y-114507200D01*
X148090476Y-114507200D02*
X148138095Y-114459580D01*
X148138095Y-114459580D02*
X148185714Y-114364342D01*
X148185714Y-114364342D02*
X148185714Y-114173866D01*
X148185714Y-114173866D02*
X148138095Y-114078628D01*
X148138095Y-114078628D02*
X148090476Y-114031009D01*
X148090476Y-114031009D02*
X147995238Y-113983390D01*
D11*
X149061905Y-89257419D02*
X149061905Y-88257419D01*
X149633333Y-89257419D02*
X149204762Y-88685990D01*
X149633333Y-88257419D02*
X149061905Y-88828847D01*
X150585714Y-89257419D02*
X150014286Y-89257419D01*
X150300000Y-89257419D02*
X150300000Y-88257419D01*
X150300000Y-88257419D02*
X150204762Y-88400276D01*
X150204762Y-88400276D02*
X150109524Y-88495514D01*
X150109524Y-88495514D02*
X150014286Y-88543133D01*
D10*
X171438095Y-100629819D02*
X171438095Y-101439342D01*
X171438095Y-101439342D02*
X171485714Y-101534580D01*
X171485714Y-101534580D02*
X171533333Y-101582200D01*
X171533333Y-101582200D02*
X171628571Y-101629819D01*
X171628571Y-101629819D02*
X171819047Y-101629819D01*
X171819047Y-101629819D02*
X171914285Y-101582200D01*
X171914285Y-101582200D02*
X171961904Y-101534580D01*
X171961904Y-101534580D02*
X172009523Y-101439342D01*
X172009523Y-101439342D02*
X172009523Y-100629819D01*
X172914285Y-100963152D02*
X172914285Y-101629819D01*
X172676190Y-100582200D02*
X172438095Y-101296485D01*
X172438095Y-101296485D02*
X173057142Y-101296485D01*
X121533333Y-92654819D02*
X121200000Y-92178628D01*
X120961905Y-92654819D02*
X120961905Y-91654819D01*
X120961905Y-91654819D02*
X121342857Y-91654819D01*
X121342857Y-91654819D02*
X121438095Y-91702438D01*
X121438095Y-91702438D02*
X121485714Y-91750057D01*
X121485714Y-91750057D02*
X121533333Y-91845295D01*
X121533333Y-91845295D02*
X121533333Y-91988152D01*
X121533333Y-91988152D02*
X121485714Y-92083390D01*
X121485714Y-92083390D02*
X121438095Y-92131009D01*
X121438095Y-92131009D02*
X121342857Y-92178628D01*
X121342857Y-92178628D02*
X120961905Y-92178628D01*
X122438095Y-91654819D02*
X121961905Y-91654819D01*
X121961905Y-91654819D02*
X121914286Y-92131009D01*
X121914286Y-92131009D02*
X121961905Y-92083390D01*
X121961905Y-92083390D02*
X122057143Y-92035771D01*
X122057143Y-92035771D02*
X122295238Y-92035771D01*
X122295238Y-92035771D02*
X122390476Y-92083390D01*
X122390476Y-92083390D02*
X122438095Y-92131009D01*
X122438095Y-92131009D02*
X122485714Y-92226247D01*
X122485714Y-92226247D02*
X122485714Y-92464342D01*
X122485714Y-92464342D02*
X122438095Y-92559580D01*
X122438095Y-92559580D02*
X122390476Y-92607200D01*
X122390476Y-92607200D02*
X122295238Y-92654819D01*
X122295238Y-92654819D02*
X122057143Y-92654819D01*
X122057143Y-92654819D02*
X121961905Y-92607200D01*
X121961905Y-92607200D02*
X121914286Y-92559580D01*
X173233333Y-85859580D02*
X173185714Y-85907200D01*
X173185714Y-85907200D02*
X173042857Y-85954819D01*
X173042857Y-85954819D02*
X172947619Y-85954819D01*
X172947619Y-85954819D02*
X172804762Y-85907200D01*
X172804762Y-85907200D02*
X172709524Y-85811961D01*
X172709524Y-85811961D02*
X172661905Y-85716723D01*
X172661905Y-85716723D02*
X172614286Y-85526247D01*
X172614286Y-85526247D02*
X172614286Y-85383390D01*
X172614286Y-85383390D02*
X172661905Y-85192914D01*
X172661905Y-85192914D02*
X172709524Y-85097676D01*
X172709524Y-85097676D02*
X172804762Y-85002438D01*
X172804762Y-85002438D02*
X172947619Y-84954819D01*
X172947619Y-84954819D02*
X173042857Y-84954819D01*
X173042857Y-84954819D02*
X173185714Y-85002438D01*
X173185714Y-85002438D02*
X173233333Y-85050057D01*
X174185714Y-85954819D02*
X173614286Y-85954819D01*
X173900000Y-85954819D02*
X173900000Y-84954819D01*
X173900000Y-84954819D02*
X173804762Y-85097676D01*
X173804762Y-85097676D02*
X173709524Y-85192914D01*
X173709524Y-85192914D02*
X173614286Y-85240533D01*
X138833333Y-114454819D02*
X138500000Y-113978628D01*
X138261905Y-114454819D02*
X138261905Y-113454819D01*
X138261905Y-113454819D02*
X138642857Y-113454819D01*
X138642857Y-113454819D02*
X138738095Y-113502438D01*
X138738095Y-113502438D02*
X138785714Y-113550057D01*
X138785714Y-113550057D02*
X138833333Y-113645295D01*
X138833333Y-113645295D02*
X138833333Y-113788152D01*
X138833333Y-113788152D02*
X138785714Y-113883390D01*
X138785714Y-113883390D02*
X138738095Y-113931009D01*
X138738095Y-113931009D02*
X138642857Y-113978628D01*
X138642857Y-113978628D02*
X138261905Y-113978628D01*
X139166667Y-113454819D02*
X139785714Y-113454819D01*
X139785714Y-113454819D02*
X139452381Y-113835771D01*
X139452381Y-113835771D02*
X139595238Y-113835771D01*
X139595238Y-113835771D02*
X139690476Y-113883390D01*
X139690476Y-113883390D02*
X139738095Y-113931009D01*
X139738095Y-113931009D02*
X139785714Y-114026247D01*
X139785714Y-114026247D02*
X139785714Y-114264342D01*
X139785714Y-114264342D02*
X139738095Y-114359580D01*
X139738095Y-114359580D02*
X139690476Y-114407200D01*
X139690476Y-114407200D02*
X139595238Y-114454819D01*
X139595238Y-114454819D02*
X139309524Y-114454819D01*
X139309524Y-114454819D02*
X139214286Y-114407200D01*
X139214286Y-114407200D02*
X139166667Y-114359580D01*
X121733333Y-100967319D02*
X121400000Y-100491128D01*
X121161905Y-100967319D02*
X121161905Y-99967319D01*
X121161905Y-99967319D02*
X121542857Y-99967319D01*
X121542857Y-99967319D02*
X121638095Y-100014938D01*
X121638095Y-100014938D02*
X121685714Y-100062557D01*
X121685714Y-100062557D02*
X121733333Y-100157795D01*
X121733333Y-100157795D02*
X121733333Y-100300652D01*
X121733333Y-100300652D02*
X121685714Y-100395890D01*
X121685714Y-100395890D02*
X121638095Y-100443509D01*
X121638095Y-100443509D02*
X121542857Y-100491128D01*
X121542857Y-100491128D02*
X121161905Y-100491128D01*
X122590476Y-99967319D02*
X122400000Y-99967319D01*
X122400000Y-99967319D02*
X122304762Y-100014938D01*
X122304762Y-100014938D02*
X122257143Y-100062557D01*
X122257143Y-100062557D02*
X122161905Y-100205414D01*
X122161905Y-100205414D02*
X122114286Y-100395890D01*
X122114286Y-100395890D02*
X122114286Y-100776842D01*
X122114286Y-100776842D02*
X122161905Y-100872080D01*
X122161905Y-100872080D02*
X122209524Y-100919700D01*
X122209524Y-100919700D02*
X122304762Y-100967319D01*
X122304762Y-100967319D02*
X122495238Y-100967319D01*
X122495238Y-100967319D02*
X122590476Y-100919700D01*
X122590476Y-100919700D02*
X122638095Y-100872080D01*
X122638095Y-100872080D02*
X122685714Y-100776842D01*
X122685714Y-100776842D02*
X122685714Y-100538747D01*
X122685714Y-100538747D02*
X122638095Y-100443509D01*
X122638095Y-100443509D02*
X122590476Y-100395890D01*
X122590476Y-100395890D02*
X122495238Y-100348271D01*
X122495238Y-100348271D02*
X122304762Y-100348271D01*
X122304762Y-100348271D02*
X122209524Y-100395890D01*
X122209524Y-100395890D02*
X122161905Y-100443509D01*
X122161905Y-100443509D02*
X122114286Y-100538747D01*
X122033333Y-110654819D02*
X121700000Y-110178628D01*
X121461905Y-110654819D02*
X121461905Y-109654819D01*
X121461905Y-109654819D02*
X121842857Y-109654819D01*
X121842857Y-109654819D02*
X121938095Y-109702438D01*
X121938095Y-109702438D02*
X121985714Y-109750057D01*
X121985714Y-109750057D02*
X122033333Y-109845295D01*
X122033333Y-109845295D02*
X122033333Y-109988152D01*
X122033333Y-109988152D02*
X121985714Y-110083390D01*
X121985714Y-110083390D02*
X121938095Y-110131009D01*
X121938095Y-110131009D02*
X121842857Y-110178628D01*
X121842857Y-110178628D02*
X121461905Y-110178628D01*
X122366667Y-109654819D02*
X123033333Y-109654819D01*
X123033333Y-109654819D02*
X122604762Y-110654819D01*
X171228809Y-89628628D02*
X171228809Y-90104819D01*
X170895476Y-89104819D02*
X171228809Y-89628628D01*
X171228809Y-89628628D02*
X171562142Y-89104819D01*
X172419285Y-90104819D02*
X171847857Y-90104819D01*
X172133571Y-90104819D02*
X172133571Y-89104819D01*
X172133571Y-89104819D02*
X172038333Y-89247676D01*
X172038333Y-89247676D02*
X171943095Y-89342914D01*
X171943095Y-89342914D02*
X171847857Y-89390533D01*
X155461905Y-124254819D02*
X155461905Y-123254819D01*
X155461905Y-123254819D02*
X155700000Y-123254819D01*
X155700000Y-123254819D02*
X155842857Y-123302438D01*
X155842857Y-123302438D02*
X155938095Y-123397676D01*
X155938095Y-123397676D02*
X155985714Y-123492914D01*
X155985714Y-123492914D02*
X156033333Y-123683390D01*
X156033333Y-123683390D02*
X156033333Y-123826247D01*
X156033333Y-123826247D02*
X155985714Y-124016723D01*
X155985714Y-124016723D02*
X155938095Y-124111961D01*
X155938095Y-124111961D02*
X155842857Y-124207200D01*
X155842857Y-124207200D02*
X155700000Y-124254819D01*
X155700000Y-124254819D02*
X155461905Y-124254819D01*
X156985714Y-124254819D02*
X156414286Y-124254819D01*
X156700000Y-124254819D02*
X156700000Y-123254819D01*
X156700000Y-123254819D02*
X156604762Y-123397676D01*
X156604762Y-123397676D02*
X156509524Y-123492914D01*
X156509524Y-123492914D02*
X156414286Y-123540533D01*
X149654761Y-116550057D02*
X149559523Y-116502438D01*
X149559523Y-116502438D02*
X149464285Y-116407200D01*
X149464285Y-116407200D02*
X149321428Y-116264342D01*
X149321428Y-116264342D02*
X149226190Y-116216723D01*
X149226190Y-116216723D02*
X149130952Y-116216723D01*
X149178571Y-116454819D02*
X149083333Y-116407200D01*
X149083333Y-116407200D02*
X148988095Y-116311961D01*
X148988095Y-116311961D02*
X148940476Y-116121485D01*
X148940476Y-116121485D02*
X148940476Y-115788152D01*
X148940476Y-115788152D02*
X148988095Y-115597676D01*
X148988095Y-115597676D02*
X149083333Y-115502438D01*
X149083333Y-115502438D02*
X149178571Y-115454819D01*
X149178571Y-115454819D02*
X149369047Y-115454819D01*
X149369047Y-115454819D02*
X149464285Y-115502438D01*
X149464285Y-115502438D02*
X149559523Y-115597676D01*
X149559523Y-115597676D02*
X149607142Y-115788152D01*
X149607142Y-115788152D02*
X149607142Y-116121485D01*
X149607142Y-116121485D02*
X149559523Y-116311961D01*
X149559523Y-116311961D02*
X149464285Y-116407200D01*
X149464285Y-116407200D02*
X149369047Y-116454819D01*
X149369047Y-116454819D02*
X149178571Y-116454819D01*
X150559523Y-116454819D02*
X149988095Y-116454819D01*
X150273809Y-116454819D02*
X150273809Y-115454819D01*
X150273809Y-115454819D02*
X150178571Y-115597676D01*
X150178571Y-115597676D02*
X150083333Y-115692914D01*
X150083333Y-115692914D02*
X149988095Y-115740533D01*
D12*
X145305814Y-117468931D02*
X145389635Y-117913555D01*
X145698920Y-118041053D01*
X146008206Y-118168551D01*
X146379246Y-117916246D01*
X146483157Y-117845996D01*
X146577087Y-117783272D01*
X146656652Y-117730938D01*
X146717470Y-117691857D01*
X146755157Y-117668893D01*
X146765421Y-117663942D01*
X146783910Y-117676676D01*
X146823420Y-117711882D01*
X146879522Y-117765062D01*
X146947787Y-117831718D01*
X147023786Y-117907354D01*
X147103092Y-117987472D01*
X147181275Y-118067574D01*
X147253907Y-118143164D01*
X147316559Y-118209745D01*
X147364803Y-118262818D01*
X147394210Y-118297887D01*
X147401241Y-118309623D01*
X147391123Y-118331260D01*
X147362759Y-118378662D01*
X147319129Y-118447193D01*
X147263218Y-118532215D01*
X147198006Y-118629093D01*
X147160219Y-118684350D01*
X147091343Y-118785248D01*
X147030140Y-118876299D01*
X146979578Y-118952970D01*
X146942628Y-119010728D01*
X146922258Y-119045043D01*
X146919197Y-119052254D01*
X146926136Y-119072748D01*
X146945051Y-119120513D01*
X146973087Y-119188832D01*
X147007391Y-119270989D01*
X147045109Y-119360270D01*
X147083387Y-119449958D01*
X147119370Y-119533338D01*
X147150206Y-119603694D01*
X147173039Y-119654310D01*
X147185017Y-119678471D01*
X147185724Y-119679422D01*
X147204531Y-119684036D01*
X147254618Y-119694328D01*
X147330793Y-119709287D01*
X147427865Y-119727901D01*
X147540643Y-119749159D01*
X147606442Y-119761418D01*
X147726950Y-119784362D01*
X147835797Y-119806195D01*
X147927476Y-119825722D01*
X147996481Y-119841748D01*
X148037304Y-119853079D01*
X148045511Y-119856674D01*
X148053548Y-119881006D01*
X148060033Y-119935959D01*
X148064970Y-120015108D01*
X148068364Y-120112026D01*
X148070218Y-120220287D01*
X148070538Y-120333465D01*
X148069327Y-120445135D01*
X148066590Y-120548868D01*
X148062331Y-120638241D01*
X148056555Y-120706826D01*
X148049267Y-120748197D01*
X148044895Y-120756810D01*
X148018764Y-120767133D01*
X147963393Y-120781892D01*
X147886107Y-120799352D01*
X147794230Y-120817780D01*
X147762158Y-120823741D01*
X147607524Y-120852066D01*
X147485375Y-120874876D01*
X147391673Y-120893080D01*
X147322384Y-120907583D01*
X147273471Y-120919292D01*
X147240897Y-120929115D01*
X147220628Y-120937956D01*
X147208626Y-120946724D01*
X147206947Y-120948457D01*
X147190184Y-120976371D01*
X147164614Y-121030695D01*
X147132788Y-121104777D01*
X147097260Y-121191965D01*
X147060583Y-121285608D01*
X147025311Y-121379052D01*
X146993996Y-121465647D01*
X146969193Y-121538740D01*
X146953454Y-121591678D01*
X146949332Y-121617811D01*
X146949676Y-121618726D01*
X146963641Y-121640086D01*
X146995322Y-121687084D01*
X147041391Y-121754827D01*
X147098518Y-121838423D01*
X147163373Y-121932982D01*
X147181843Y-121959854D01*
X147247699Y-122057275D01*
X147305650Y-122146163D01*
X147352538Y-122221412D01*
X147385207Y-122277920D01*
X147400500Y-122310581D01*
X147401241Y-122314593D01*
X147388392Y-122335684D01*
X147352888Y-122377464D01*
X147299293Y-122435445D01*
X147232171Y-122505135D01*
X147156087Y-122582045D01*
X147075604Y-122661683D01*
X146995287Y-122739561D01*
X146919699Y-122811186D01*
X146853405Y-122872070D01*
X146800969Y-122917721D01*
X146766955Y-122943650D01*
X146757545Y-122947883D01*
X146735643Y-122937912D01*
X146690800Y-122911020D01*
X146630321Y-122871736D01*
X146583789Y-122840117D01*
X146499475Y-122782098D01*
X146399626Y-122713784D01*
X146299473Y-122645579D01*
X146245627Y-122609075D01*
X146063371Y-122485800D01*
X145910381Y-122568520D01*
X145840682Y-122604759D01*
X145781414Y-122632926D01*
X145741311Y-122648991D01*
X145731103Y-122651226D01*
X145718829Y-122634722D01*
X145694613Y-122588082D01*
X145660263Y-122515609D01*
X145617588Y-122421606D01*
X145568394Y-122310374D01*
X145514490Y-122186215D01*
X145457684Y-122053432D01*
X145399782Y-121916327D01*
X145342593Y-121779202D01*
X145287924Y-121646358D01*
X145237584Y-121522098D01*
X145193380Y-121410725D01*
X145157119Y-121316539D01*
X145130609Y-121243844D01*
X145115658Y-121196941D01*
X145113254Y-121180833D01*
X145132311Y-121160286D01*
X145174036Y-121126933D01*
X145229706Y-121087702D01*
X145234378Y-121084599D01*
X145378264Y-120969423D01*
X145494283Y-120835053D01*
X145581430Y-120685784D01*
X145638699Y-120525913D01*
X145665086Y-120359737D01*
X145659585Y-120191552D01*
X145621190Y-120025655D01*
X145548895Y-119866342D01*
X145527626Y-119831487D01*
X145416996Y-119690737D01*
X145286302Y-119577714D01*
X145140064Y-119493003D01*
X144982808Y-119437194D01*
X144819057Y-119410874D01*
X144653333Y-119414630D01*
X144490162Y-119449050D01*
X144334065Y-119514723D01*
X144189567Y-119612235D01*
X144144869Y-119651813D01*
X144031112Y-119775703D01*
X143948218Y-119906124D01*
X143891356Y-120052315D01*
X143859687Y-120197088D01*
X143851869Y-120359860D01*
X143877938Y-120523440D01*
X143935245Y-120682298D01*
X144021144Y-120830906D01*
X144132986Y-120963735D01*
X144268123Y-121075256D01*
X144285883Y-121087011D01*
X144342150Y-121125508D01*
X144384923Y-121158863D01*
X144405372Y-121180160D01*
X144405669Y-121180833D01*
X144401279Y-121203871D01*
X144383876Y-121256157D01*
X144355268Y-121333390D01*
X144317265Y-121431268D01*
X144271674Y-121545491D01*
X144220303Y-121671758D01*
X144164962Y-121805767D01*
X144107458Y-121943218D01*
X144049601Y-122079808D01*
X143993198Y-122211237D01*
X143940058Y-122333205D01*
X143891990Y-122441409D01*
X143850801Y-122531549D01*
X143818301Y-122599323D01*
X143796297Y-122640430D01*
X143787436Y-122651226D01*
X143760360Y-122642819D01*
X143709697Y-122620272D01*
X143644183Y-122587613D01*
X143608159Y-122568520D01*
X143455168Y-122485800D01*
X143272912Y-122609075D01*
X143179875Y-122672228D01*
X143078015Y-122741727D01*
X142982562Y-122807165D01*
X142934750Y-122840117D01*
X142867505Y-122885273D01*
X142810564Y-122921057D01*
X142771354Y-122942938D01*
X142758619Y-122947563D01*
X142740083Y-122935085D01*
X142699059Y-122900252D01*
X142639525Y-122846678D01*
X142565458Y-122777983D01*
X142480835Y-122697781D01*
X142427315Y-122646286D01*
X142333681Y-122554286D01*
X142252759Y-122471999D01*
X142187823Y-122402945D01*
X142142142Y-122350644D01*
X142118989Y-122318616D01*
X142116768Y-122312116D01*
X142127076Y-122287394D01*
X142155561Y-122237405D01*
X142199063Y-122167212D01*
X142254423Y-122081875D01*
X142318480Y-121986456D01*
X142336697Y-121959854D01*
X142403073Y-121863167D01*
X142462622Y-121776117D01*
X142512016Y-121703595D01*
X142547925Y-121650493D01*
X142567019Y-121621703D01*
X142568864Y-121618726D01*
X142566105Y-121595782D01*
X142551462Y-121545336D01*
X142527487Y-121474041D01*
X142496734Y-121388547D01*
X142461756Y-121295507D01*
X142425107Y-121201574D01*
X142389339Y-121113399D01*
X142357006Y-121037634D01*
X142330662Y-120980931D01*
X142312858Y-120949943D01*
X142311593Y-120948457D01*
X142300706Y-120939601D01*
X142282318Y-120930843D01*
X142252394Y-120921277D01*
X142206897Y-120909996D01*
X142141791Y-120896093D01*
X142053039Y-120878663D01*
X141936607Y-120856798D01*
X141788458Y-120829591D01*
X141756382Y-120823741D01*
X141661314Y-120805374D01*
X141578435Y-120787405D01*
X141515070Y-120771569D01*
X141478542Y-120759600D01*
X141473644Y-120756810D01*
X141465573Y-120732072D01*
X141459013Y-120676790D01*
X141453967Y-120597389D01*
X141450441Y-120500296D01*
X141448439Y-120391938D01*
X141447964Y-120278740D01*
X141449023Y-120167128D01*
X141451618Y-120063529D01*
X141455754Y-119974368D01*
X141461437Y-119906072D01*
X141468669Y-119865066D01*
X141473029Y-119856674D01*
X141497302Y-119848208D01*
X141552574Y-119834435D01*
X141633338Y-119816550D01*
X141734088Y-119795748D01*
X141849317Y-119773223D01*
X141912098Y-119761418D01*
X142031213Y-119739151D01*
X142137435Y-119718979D01*
X142225573Y-119701915D01*
X142290434Y-119688969D01*
X142326826Y-119681155D01*
X142332816Y-119679422D01*
X142342939Y-119659890D01*
X142364338Y-119612843D01*
X142394161Y-119545003D01*
X142429555Y-119463091D01*
X142467668Y-119373828D01*
X142505647Y-119283935D01*
X142540640Y-119200135D01*
X142569794Y-119129147D01*
X142590257Y-119077694D01*
X142599177Y-119052497D01*
X142599343Y-119051396D01*
X142589231Y-119031519D01*
X142560883Y-118985777D01*
X142517277Y-118918717D01*
X142461394Y-118834884D01*
X142396213Y-118738826D01*
X142358321Y-118683650D01*
X142289275Y-118582481D01*
X142227950Y-118490630D01*
X142177337Y-118412744D01*
X142140429Y-118353469D01*
X142120218Y-118317451D01*
X142117299Y-118309377D01*
X142129847Y-118290584D01*
X142164537Y-118250457D01*
X142216937Y-118193493D01*
X142282616Y-118124185D01*
X142357144Y-118047031D01*
X142436087Y-117966525D01*
X142515017Y-117887163D01*
X142589500Y-117813440D01*
X142655106Y-117749852D01*
X142707404Y-117700894D01*
X142741961Y-117671061D01*
X142753522Y-117663942D01*
X142772346Y-117673953D01*
X142817369Y-117702078D01*
X142884213Y-117745454D01*
X142968501Y-117801218D01*
X143065856Y-117866506D01*
X143139293Y-117916246D01*
X143510333Y-118168551D01*
X144128905Y-117913555D01*
X144212725Y-117468931D01*
X144296546Y-117024307D01*
X145221994Y-117024307D01*
X145305814Y-117468931D01*
G36*
X145305814Y-117468931D02*
G01*
X145389635Y-117913555D01*
X145698920Y-118041053D01*
X146008206Y-118168551D01*
X146379246Y-117916246D01*
X146483157Y-117845996D01*
X146577087Y-117783272D01*
X146656652Y-117730938D01*
X146717470Y-117691857D01*
X146755157Y-117668893D01*
X146765421Y-117663942D01*
X146783910Y-117676676D01*
X146823420Y-117711882D01*
X146879522Y-117765062D01*
X146947787Y-117831718D01*
X147023786Y-117907354D01*
X147103092Y-117987472D01*
X147181275Y-118067574D01*
X147253907Y-118143164D01*
X147316559Y-118209745D01*
X147364803Y-118262818D01*
X147394210Y-118297887D01*
X147401241Y-118309623D01*
X147391123Y-118331260D01*
X147362759Y-118378662D01*
X147319129Y-118447193D01*
X147263218Y-118532215D01*
X147198006Y-118629093D01*
X147160219Y-118684350D01*
X147091343Y-118785248D01*
X147030140Y-118876299D01*
X146979578Y-118952970D01*
X146942628Y-119010728D01*
X146922258Y-119045043D01*
X146919197Y-119052254D01*
X146926136Y-119072748D01*
X146945051Y-119120513D01*
X146973087Y-119188832D01*
X147007391Y-119270989D01*
X147045109Y-119360270D01*
X147083387Y-119449958D01*
X147119370Y-119533338D01*
X147150206Y-119603694D01*
X147173039Y-119654310D01*
X147185017Y-119678471D01*
X147185724Y-119679422D01*
X147204531Y-119684036D01*
X147254618Y-119694328D01*
X147330793Y-119709287D01*
X147427865Y-119727901D01*
X147540643Y-119749159D01*
X147606442Y-119761418D01*
X147726950Y-119784362D01*
X147835797Y-119806195D01*
X147927476Y-119825722D01*
X147996481Y-119841748D01*
X148037304Y-119853079D01*
X148045511Y-119856674D01*
X148053548Y-119881006D01*
X148060033Y-119935959D01*
X148064970Y-120015108D01*
X148068364Y-120112026D01*
X148070218Y-120220287D01*
X148070538Y-120333465D01*
X148069327Y-120445135D01*
X148066590Y-120548868D01*
X148062331Y-120638241D01*
X148056555Y-120706826D01*
X148049267Y-120748197D01*
X148044895Y-120756810D01*
X148018764Y-120767133D01*
X147963393Y-120781892D01*
X147886107Y-120799352D01*
X147794230Y-120817780D01*
X147762158Y-120823741D01*
X147607524Y-120852066D01*
X147485375Y-120874876D01*
X147391673Y-120893080D01*
X147322384Y-120907583D01*
X147273471Y-120919292D01*
X147240897Y-120929115D01*
X147220628Y-120937956D01*
X147208626Y-120946724D01*
X147206947Y-120948457D01*
X147190184Y-120976371D01*
X147164614Y-121030695D01*
X147132788Y-121104777D01*
X147097260Y-121191965D01*
X147060583Y-121285608D01*
X147025311Y-121379052D01*
X146993996Y-121465647D01*
X146969193Y-121538740D01*
X146953454Y-121591678D01*
X146949332Y-121617811D01*
X146949676Y-121618726D01*
X146963641Y-121640086D01*
X146995322Y-121687084D01*
X147041391Y-121754827D01*
X147098518Y-121838423D01*
X147163373Y-121932982D01*
X147181843Y-121959854D01*
X147247699Y-122057275D01*
X147305650Y-122146163D01*
X147352538Y-122221412D01*
X147385207Y-122277920D01*
X147400500Y-122310581D01*
X147401241Y-122314593D01*
X147388392Y-122335684D01*
X147352888Y-122377464D01*
X147299293Y-122435445D01*
X147232171Y-122505135D01*
X147156087Y-122582045D01*
X147075604Y-122661683D01*
X146995287Y-122739561D01*
X146919699Y-122811186D01*
X146853405Y-122872070D01*
X146800969Y-122917721D01*
X146766955Y-122943650D01*
X146757545Y-122947883D01*
X146735643Y-122937912D01*
X146690800Y-122911020D01*
X146630321Y-122871736D01*
X146583789Y-122840117D01*
X146499475Y-122782098D01*
X146399626Y-122713784D01*
X146299473Y-122645579D01*
X146245627Y-122609075D01*
X146063371Y-122485800D01*
X145910381Y-122568520D01*
X145840682Y-122604759D01*
X145781414Y-122632926D01*
X145741311Y-122648991D01*
X145731103Y-122651226D01*
X145718829Y-122634722D01*
X145694613Y-122588082D01*
X145660263Y-122515609D01*
X145617588Y-122421606D01*
X145568394Y-122310374D01*
X145514490Y-122186215D01*
X145457684Y-122053432D01*
X145399782Y-121916327D01*
X145342593Y-121779202D01*
X145287924Y-121646358D01*
X145237584Y-121522098D01*
X145193380Y-121410725D01*
X145157119Y-121316539D01*
X145130609Y-121243844D01*
X145115658Y-121196941D01*
X145113254Y-121180833D01*
X145132311Y-121160286D01*
X145174036Y-121126933D01*
X145229706Y-121087702D01*
X145234378Y-121084599D01*
X145378264Y-120969423D01*
X145494283Y-120835053D01*
X145581430Y-120685784D01*
X145638699Y-120525913D01*
X145665086Y-120359737D01*
X145659585Y-120191552D01*
X145621190Y-120025655D01*
X145548895Y-119866342D01*
X145527626Y-119831487D01*
X145416996Y-119690737D01*
X145286302Y-119577714D01*
X145140064Y-119493003D01*
X144982808Y-119437194D01*
X144819057Y-119410874D01*
X144653333Y-119414630D01*
X144490162Y-119449050D01*
X144334065Y-119514723D01*
X144189567Y-119612235D01*
X144144869Y-119651813D01*
X144031112Y-119775703D01*
X143948218Y-119906124D01*
X143891356Y-120052315D01*
X143859687Y-120197088D01*
X143851869Y-120359860D01*
X143877938Y-120523440D01*
X143935245Y-120682298D01*
X144021144Y-120830906D01*
X144132986Y-120963735D01*
X144268123Y-121075256D01*
X144285883Y-121087011D01*
X144342150Y-121125508D01*
X144384923Y-121158863D01*
X144405372Y-121180160D01*
X144405669Y-121180833D01*
X144401279Y-121203871D01*
X144383876Y-121256157D01*
X144355268Y-121333390D01*
X144317265Y-121431268D01*
X144271674Y-121545491D01*
X144220303Y-121671758D01*
X144164962Y-121805767D01*
X144107458Y-121943218D01*
X144049601Y-122079808D01*
X143993198Y-122211237D01*
X143940058Y-122333205D01*
X143891990Y-122441409D01*
X143850801Y-122531549D01*
X143818301Y-122599323D01*
X143796297Y-122640430D01*
X143787436Y-122651226D01*
X143760360Y-122642819D01*
X143709697Y-122620272D01*
X143644183Y-122587613D01*
X143608159Y-122568520D01*
X143455168Y-122485800D01*
X143272912Y-122609075D01*
X143179875Y-122672228D01*
X143078015Y-122741727D01*
X142982562Y-122807165D01*
X142934750Y-122840117D01*
X142867505Y-122885273D01*
X142810564Y-122921057D01*
X142771354Y-122942938D01*
X142758619Y-122947563D01*
X142740083Y-122935085D01*
X142699059Y-122900252D01*
X142639525Y-122846678D01*
X142565458Y-122777983D01*
X142480835Y-122697781D01*
X142427315Y-122646286D01*
X142333681Y-122554286D01*
X142252759Y-122471999D01*
X142187823Y-122402945D01*
X142142142Y-122350644D01*
X142118989Y-122318616D01*
X142116768Y-122312116D01*
X142127076Y-122287394D01*
X142155561Y-122237405D01*
X142199063Y-122167212D01*
X142254423Y-122081875D01*
X142318480Y-121986456D01*
X142336697Y-121959854D01*
X142403073Y-121863167D01*
X142462622Y-121776117D01*
X142512016Y-121703595D01*
X142547925Y-121650493D01*
X142567019Y-121621703D01*
X142568864Y-121618726D01*
X142566105Y-121595782D01*
X142551462Y-121545336D01*
X142527487Y-121474041D01*
X142496734Y-121388547D01*
X142461756Y-121295507D01*
X142425107Y-121201574D01*
X142389339Y-121113399D01*
X142357006Y-121037634D01*
X142330662Y-120980931D01*
X142312858Y-120949943D01*
X142311593Y-120948457D01*
X142300706Y-120939601D01*
X142282318Y-120930843D01*
X142252394Y-120921277D01*
X142206897Y-120909996D01*
X142141791Y-120896093D01*
X142053039Y-120878663D01*
X141936607Y-120856798D01*
X141788458Y-120829591D01*
X141756382Y-120823741D01*
X141661314Y-120805374D01*
X141578435Y-120787405D01*
X141515070Y-120771569D01*
X141478542Y-120759600D01*
X141473644Y-120756810D01*
X141465573Y-120732072D01*
X141459013Y-120676790D01*
X141453967Y-120597389D01*
X141450441Y-120500296D01*
X141448439Y-120391938D01*
X141447964Y-120278740D01*
X141449023Y-120167128D01*
X141451618Y-120063529D01*
X141455754Y-119974368D01*
X141461437Y-119906072D01*
X141468669Y-119865066D01*
X141473029Y-119856674D01*
X141497302Y-119848208D01*
X141552574Y-119834435D01*
X141633338Y-119816550D01*
X141734088Y-119795748D01*
X141849317Y-119773223D01*
X141912098Y-119761418D01*
X142031213Y-119739151D01*
X142137435Y-119718979D01*
X142225573Y-119701915D01*
X142290434Y-119688969D01*
X142326826Y-119681155D01*
X142332816Y-119679422D01*
X142342939Y-119659890D01*
X142364338Y-119612843D01*
X142394161Y-119545003D01*
X142429555Y-119463091D01*
X142467668Y-119373828D01*
X142505647Y-119283935D01*
X142540640Y-119200135D01*
X142569794Y-119129147D01*
X142590257Y-119077694D01*
X142599177Y-119052497D01*
X142599343Y-119051396D01*
X142589231Y-119031519D01*
X142560883Y-118985777D01*
X142517277Y-118918717D01*
X142461394Y-118834884D01*
X142396213Y-118738826D01*
X142358321Y-118683650D01*
X142289275Y-118582481D01*
X142227950Y-118490630D01*
X142177337Y-118412744D01*
X142140429Y-118353469D01*
X142120218Y-118317451D01*
X142117299Y-118309377D01*
X142129847Y-118290584D01*
X142164537Y-118250457D01*
X142216937Y-118193493D01*
X142282616Y-118124185D01*
X142357144Y-118047031D01*
X142436087Y-117966525D01*
X142515017Y-117887163D01*
X142589500Y-117813440D01*
X142655106Y-117749852D01*
X142707404Y-117700894D01*
X142741961Y-117671061D01*
X142753522Y-117663942D01*
X142772346Y-117673953D01*
X142817369Y-117702078D01*
X142884213Y-117745454D01*
X142968501Y-117801218D01*
X143065856Y-117866506D01*
X143139293Y-117916246D01*
X143510333Y-118168551D01*
X144128905Y-117913555D01*
X144212725Y-117468931D01*
X144296546Y-117024307D01*
X145221994Y-117024307D01*
X145305814Y-117468931D01*
G37*
D13*
X161227064Y-122535000D02*
X160772936Y-122535000D01*
X161227064Y-121065000D02*
X160772936Y-121065000D01*
X176130000Y-110130000D02*
X176130000Y-111460000D01*
X174800000Y-110130000D02*
X176130000Y-110130000D01*
X173530000Y-110130000D02*
X168390000Y-110130000D01*
X173530000Y-110130000D02*
X173530000Y-112730000D01*
X168390000Y-110130000D02*
X168390000Y-115330000D01*
X176130000Y-112730000D02*
X176130000Y-115330000D01*
X173530000Y-112730000D02*
X176130000Y-112730000D01*
X176130000Y-115330000D02*
X168390000Y-115330000D01*
D14*
X166890000Y-115275000D02*
X165890000Y-115275000D01*
X166390000Y-115775000D02*
X166390000Y-114775000D01*
X163600000Y-120075000D02*
X154000000Y-120075000D01*
X163600000Y-116845000D02*
X163600000Y-120075000D01*
X163600000Y-110475000D02*
X163600000Y-113705000D01*
X155500000Y-110475000D02*
X163600000Y-110475000D01*
X154000000Y-120075000D02*
X154000000Y-116845000D01*
X154000000Y-111975000D02*
X155500000Y-110475000D01*
X154000000Y-111975000D02*
X154000000Y-113705000D01*
X151710000Y-115275000D02*
X150710000Y-115275000D01*
D11*
X134520000Y-95765000D02*
X164520000Y-95765000D01*
X164520000Y-95765000D02*
X164520000Y-109765000D01*
X164520000Y-109765000D02*
X134520000Y-109765000D01*
X134520000Y-109765000D02*
X134520000Y-95765000D01*
D13*
X169161252Y-86135000D02*
X168638748Y-86135000D01*
X169161252Y-84665000D02*
X168638748Y-84665000D01*
X177865000Y-111627064D02*
X177865000Y-111172936D01*
X179335000Y-111627064D02*
X179335000Y-111172936D01*
X151827064Y-122535000D02*
X151372936Y-122535000D01*
X151827064Y-121065000D02*
X151372936Y-121065000D01*
X131530000Y-115705000D02*
X131530000Y-115675000D01*
X131530000Y-111175000D02*
X131530000Y-113775000D01*
X131530000Y-109245000D02*
X131530000Y-109275000D01*
X125070000Y-115705000D02*
X131530000Y-115705000D01*
X125070000Y-115705000D02*
X125070000Y-115675000D01*
X125070000Y-111175000D02*
X125070000Y-113775000D01*
X125070000Y-109275000D02*
X125070000Y-109245000D01*
X125070000Y-109245000D02*
X131530000Y-109245000D01*
X131530000Y-107205000D02*
X125070000Y-107205000D01*
X131530000Y-107175000D02*
X131530000Y-107205000D01*
X131530000Y-105275000D02*
X131530000Y-102675000D01*
X131530000Y-100745000D02*
X131530000Y-100775000D01*
X131530000Y-100745000D02*
X125070000Y-100745000D01*
X125070000Y-107205000D02*
X125070000Y-107175000D01*
X125070000Y-105275000D02*
X125070000Y-102675000D01*
X125070000Y-100745000D02*
X125070000Y-100775000D01*
X135200000Y-112760000D02*
X137885000Y-112760000D01*
X137885000Y-110840000D02*
X135200000Y-110840000D01*
X137885000Y-112760000D02*
X137885000Y-110840000D01*
X143427064Y-114735000D02*
X142972936Y-114735000D01*
X143427064Y-113265000D02*
X142972936Y-113265000D01*
D11*
X164590000Y-93845000D02*
X134390000Y-93845000D01*
X134390000Y-93845000D02*
X134390000Y-83645000D01*
X134390000Y-83645000D02*
X164590000Y-83645000D01*
X164590000Y-83645000D02*
X164590000Y-93845000D01*
D13*
X156100000Y-86095000D02*
X158640000Y-86095000D01*
X156100000Y-91175000D02*
X156100000Y-86095000D01*
X157370000Y-84825000D02*
X158640000Y-84825000D01*
X157370000Y-86095000D02*
X157370000Y-84825000D01*
X157370000Y-91175000D02*
X156100000Y-91175000D01*
X157370000Y-92445000D02*
X157370000Y-91175000D01*
X158640000Y-86095000D02*
X158640000Y-91175000D01*
X158640000Y-89905000D02*
X156100000Y-88635000D01*
X158640000Y-91175000D02*
X157370000Y-91175000D01*
X158640000Y-92445000D02*
X157370000Y-92445000D01*
X162440000Y-94095000D02*
X164840000Y-94095000D01*
X164840000Y-91695000D02*
X164840000Y-94095000D01*
X142200000Y-112760000D02*
X144885000Y-112760000D01*
X144885000Y-110840000D02*
X142200000Y-110840000D01*
X144885000Y-112760000D02*
X144885000Y-110840000D01*
X131530000Y-98705000D02*
X125070000Y-98705000D01*
X131530000Y-98675000D02*
X131530000Y-98705000D01*
X131530000Y-96775000D02*
X131530000Y-94175000D01*
X131530000Y-92245000D02*
X131530000Y-92275000D01*
X131530000Y-92245000D02*
X125070000Y-92245000D01*
X125070000Y-98705000D02*
X125070000Y-98675000D01*
X125070000Y-96775000D02*
X125070000Y-94175000D01*
X125070000Y-92245000D02*
X125070000Y-92275000D01*
X175910000Y-107680000D02*
X175910000Y-107445000D01*
X175910000Y-107445000D02*
X177725000Y-107445000D01*
X175910000Y-94660000D02*
X175910000Y-94895000D01*
X172050000Y-107680000D02*
X175910000Y-107680000D01*
X172050000Y-107680000D02*
X168190000Y-107680000D01*
X172050000Y-94660000D02*
X175910000Y-94660000D01*
X172050000Y-94660000D02*
X168190000Y-94660000D01*
X168190000Y-107680000D02*
X168190000Y-107445000D01*
X168190000Y-94660000D02*
X168190000Y-94895000D01*
X122535000Y-94372936D02*
X122535000Y-94827064D01*
X121065000Y-94372936D02*
X121065000Y-94827064D01*
X175838748Y-84665000D02*
X176361252Y-84665000D01*
X175838748Y-86135000D02*
X176361252Y-86135000D01*
X136427064Y-114735000D02*
X135972936Y-114735000D01*
X136427064Y-113265000D02*
X135972936Y-113265000D01*
X129300000Y-117175000D02*
X129300000Y-123495000D01*
X128530000Y-123495000D02*
X129300000Y-123495000D01*
X128530000Y-122935000D02*
X129300000Y-122935000D01*
X125990000Y-123495000D02*
X126950000Y-123495000D01*
X125990000Y-122935000D02*
X126950000Y-122935000D01*
X123640000Y-123495000D02*
X124410000Y-123495000D01*
X123640000Y-122935000D02*
X124410000Y-122935000D01*
X123640000Y-117635000D02*
X129300000Y-117635000D01*
X123640000Y-117175000D02*
X129300000Y-117175000D01*
X123640000Y-117175000D02*
X123640000Y-123495000D01*
X123400000Y-123735000D02*
X123900000Y-123735000D01*
X123400000Y-122995000D02*
X123400000Y-123735000D01*
X138800000Y-117115000D02*
X138800000Y-123435000D01*
X138030000Y-123435000D02*
X138800000Y-123435000D01*
X138030000Y-122875000D02*
X138800000Y-122875000D01*
X135490000Y-123435000D02*
X136450000Y-123435000D01*
X135490000Y-122875000D02*
X136450000Y-122875000D01*
X132950000Y-123435000D02*
X133910000Y-123435000D01*
X132950000Y-122875000D02*
X133910000Y-122875000D01*
X130600000Y-123435000D02*
X131370000Y-123435000D01*
X130600000Y-122875000D02*
X131370000Y-122875000D01*
X130600000Y-117575000D02*
X138800000Y-117575000D01*
X130600000Y-117115000D02*
X138800000Y-117115000D01*
X130600000Y-117115000D02*
X130600000Y-123435000D01*
X130360000Y-123675000D02*
X130860000Y-123675000D01*
X130360000Y-122935000D02*
X130360000Y-123675000D01*
X122635000Y-102772936D02*
X122635000Y-103227064D01*
X121165000Y-102772936D02*
X121165000Y-103227064D01*
X122935000Y-112372936D02*
X122935000Y-112827064D01*
X121465000Y-112372936D02*
X121465000Y-112827064D01*
X168390000Y-119190000D02*
X168390000Y-117860000D01*
X169720000Y-119190000D02*
X168390000Y-119190000D01*
X170990000Y-119190000D02*
X176130000Y-119190000D01*
X170990000Y-119190000D02*
X170990000Y-116530000D01*
X176130000Y-119190000D02*
X176130000Y-116530000D01*
X170990000Y-116530000D02*
X176130000Y-116530000D01*
X168590000Y-87275000D02*
X174990000Y-87275000D01*
X168590000Y-92325000D02*
X174990000Y-92325000D01*
X168590000Y-87275000D02*
G75*
G03*
X168590000Y-92325000I0J-2525000D01*
G01*
X174990000Y-92325000D02*
G75*
G03*
X174990000Y-87275000I0J2525000D01*
G01*
X158560000Y-122775000D02*
X158560000Y-120775000D01*
X158560000Y-122775000D02*
X154550000Y-122775000D01*
X158560000Y-120775000D02*
X154550000Y-120775000D01*
X123560000Y-89160000D02*
X123560000Y-82840000D01*
X124330000Y-82840000D02*
X123560000Y-82840000D01*
X124330000Y-83400000D02*
X123560000Y-83400000D01*
X126870000Y-82840000D02*
X125910000Y-82840000D01*
X126870000Y-83400000D02*
X125910000Y-83400000D01*
X129410000Y-82840000D02*
X128450000Y-82840000D01*
X129410000Y-83400000D02*
X128450000Y-83400000D01*
X131760000Y-82840000D02*
X130990000Y-82840000D01*
X131760000Y-83400000D02*
X130990000Y-83400000D01*
X131760000Y-88700000D02*
X123560000Y-88700000D01*
X131760000Y-89160000D02*
X123560000Y-89160000D01*
X131760000Y-89160000D02*
X131760000Y-82840000D01*
X132000000Y-82600000D02*
X131500000Y-82600000D01*
X132000000Y-83340000D02*
X132000000Y-82600000D01*
X150937500Y-120160000D02*
X152612500Y-120160000D01*
X150937500Y-120160000D02*
X150287500Y-120160000D01*
X150937500Y-117040000D02*
X151587500Y-117040000D01*
X150937500Y-117040000D02*
X150287500Y-117040000D01*
%LPC*%
D15*
X161912500Y-121800000D03*
X160087500Y-121800000D03*
D16*
X174800000Y-111460000D03*
D17*
X174800000Y-114000000D03*
X172260000Y-111460000D03*
X172260000Y-114000000D03*
X169720000Y-111460000D03*
X169720000Y-114000000D03*
D18*
X154800000Y-115275000D03*
X162800000Y-115275000D03*
D19*
X143120000Y-97675000D03*
X145660000Y-97675000D03*
X148200000Y-97675000D03*
X150740000Y-97675000D03*
X153280000Y-97675000D03*
X155820000Y-97675000D03*
X155820000Y-107835000D03*
X153280000Y-107835000D03*
X150740000Y-107835000D03*
X148200000Y-107835000D03*
X145660000Y-107835000D03*
D20*
X143120000Y-107835000D03*
D21*
X169850000Y-85400000D03*
X167950000Y-85400000D03*
D22*
X178600000Y-112312500D03*
X178600000Y-110487500D03*
D15*
X152512500Y-121800000D03*
X150687500Y-121800000D03*
D23*
X132275000Y-114725000D03*
X124325000Y-114725000D03*
X132275000Y-110225000D03*
X124325000Y-110225000D03*
X132275000Y-106225000D03*
X124325000Y-106225000D03*
X132275000Y-101725000D03*
X124325000Y-101725000D03*
D24*
X135262500Y-111800000D03*
X137137500Y-111800000D03*
D15*
X144112500Y-114000000D03*
X142287500Y-114000000D03*
D25*
X161840000Y-84995000D03*
D26*
X161840000Y-92495000D03*
D25*
X136440000Y-84995000D03*
X142840000Y-84995000D03*
X139640000Y-92495000D03*
D24*
X142262500Y-111800000D03*
X144137500Y-111800000D03*
D23*
X132275000Y-97725000D03*
X124325000Y-97725000D03*
X132275000Y-93225000D03*
X124325000Y-93225000D03*
D27*
X176700000Y-106885000D03*
X176700000Y-105615000D03*
X176700000Y-104345000D03*
X176700000Y-103075000D03*
X176700000Y-101805000D03*
X176700000Y-100535000D03*
X176700000Y-99265000D03*
X176700000Y-97995000D03*
X176700000Y-96725000D03*
X176700000Y-95455000D03*
X167400000Y-95455000D03*
X167400000Y-96725000D03*
X167400000Y-97995000D03*
X167400000Y-99265000D03*
X167400000Y-100535000D03*
X167400000Y-101805000D03*
X167400000Y-103075000D03*
X167400000Y-104345000D03*
X167400000Y-105615000D03*
X167400000Y-106885000D03*
D28*
X121800000Y-93687500D03*
X121800000Y-95512500D03*
D29*
X175150000Y-85400000D03*
X177050000Y-85400000D03*
D15*
X137112500Y-114000000D03*
X135287500Y-114000000D03*
D25*
X127740000Y-120335000D03*
D26*
X125200000Y-120335000D03*
D30*
X127740000Y-122875000D03*
X125200000Y-122875000D03*
D25*
X137240000Y-120275000D03*
X134700000Y-120275000D03*
D26*
X132160000Y-120275000D03*
D30*
X137240000Y-122815000D03*
X134700000Y-122815000D03*
X132160000Y-122815000D03*
D28*
X121900000Y-102087500D03*
X121900000Y-103912500D03*
X122200000Y-111687500D03*
X122200000Y-113512500D03*
D16*
X169720000Y-117860000D03*
D17*
X172260000Y-117860000D03*
X174800000Y-117860000D03*
D31*
X169350000Y-89800000D03*
X174230000Y-89800000D03*
D32*
X157850000Y-121775000D03*
X154550000Y-121775000D03*
D25*
X125120000Y-86000000D03*
X127660000Y-86000000D03*
D26*
X130200000Y-86000000D03*
D30*
X125120000Y-83460000D03*
X127660000Y-83460000D03*
X130200000Y-83460000D03*
D33*
X151875000Y-119550000D03*
X151875000Y-117650000D03*
X150000000Y-118600000D03*
%LPD*%
M02*
